G04 #@! TF.GenerationSoftware,KiCad,Pcbnew,(5.1.0)-1*
G04 #@! TF.CreationDate,2019-06-15T12:37:24+02:00*
G04 #@! TF.ProjectId,DiodeAdapter,44696f64-6541-4646-9170-7465722e6b69,2*
G04 #@! TF.SameCoordinates,Original*
G04 #@! TF.FileFunction,Legend,Bot*
G04 #@! TF.FilePolarity,Positive*
%FSLAX46Y46*%
G04 Gerber Fmt 4.6, Leading zero omitted, Abs format (unit mm)*
G04 Created by KiCad (PCBNEW (5.1.0)-1) date 2019-06-15 12:37:24*
%MOMM*%
%LPD*%
G04 APERTURE LIST*
%ADD10C,0.120000*%
G04 APERTURE END LIST*
D10*
X83720000Y-67420000D02*
X83720000Y-70080000D01*
X81120000Y-67420000D02*
X83720000Y-67420000D01*
X81120000Y-70080000D02*
X83720000Y-70080000D01*
X81120000Y-67420000D02*
X81120000Y-70080000D01*
X79850000Y-67420000D02*
X78520000Y-67420000D01*
X78520000Y-67420000D02*
X78520000Y-68750000D01*
X78520000Y-92820000D02*
X78520000Y-94150000D01*
X79850000Y-92820000D02*
X78520000Y-92820000D01*
X81120000Y-92820000D02*
X81120000Y-95480000D01*
X81120000Y-95480000D02*
X83720000Y-95480000D01*
X81120000Y-92820000D02*
X83720000Y-92820000D01*
X83720000Y-92820000D02*
X83720000Y-95480000D01*
X72290000Y-67420000D02*
X72290000Y-70080000D01*
X69690000Y-67420000D02*
X72290000Y-67420000D01*
X69690000Y-70080000D02*
X72290000Y-70080000D01*
X69690000Y-67420000D02*
X69690000Y-70080000D01*
X68420000Y-67420000D02*
X67090000Y-67420000D01*
X67090000Y-67420000D02*
X67090000Y-68750000D01*
X72290000Y-92820000D02*
X72290000Y-95480000D01*
X69690000Y-92820000D02*
X72290000Y-92820000D01*
X69690000Y-95480000D02*
X72290000Y-95480000D01*
X69690000Y-92820000D02*
X69690000Y-95480000D01*
X68420000Y-92820000D02*
X67090000Y-92820000D01*
X67090000Y-92820000D02*
X67090000Y-94150000D01*
M02*
