M48
;DRILL file {KiCad 4.0.5} date 08/19/18 14:23:07
;FORMAT={-:-/ absolute / metric / decimal}
FMAT,2
METRIC,TZ
T1C0.700
%
G90
G05
M71
T1
X54.5Y-74.5
X54.5Y-99.5
X55.5Y-74.5
X55.5Y-99.5
X56.5Y-74.5
X56.5Y-99.5
X57.5Y-74.5
X57.5Y-99.5
X58.5Y-74.5
X58.5Y-99.5
X59.5Y-74.5
X59.5Y-99.5
X60.5Y-74.5
X60.5Y-99.5
X61.Y-55.
X61.Y-56.
X61.Y-59.5
X61.Y-60.5
X61.Y-64.
X61.Y-65.
X61.5Y-74.5
X61.5Y-99.5
X62.5Y-74.5
X62.5Y-99.5
X63.5Y-54.
X63.5Y-57.
X63.5Y-60.
X63.5Y-63.
X63.5Y-66.
X63.5Y-74.5
X63.5Y-99.5
X64.5Y-54.
X64.5Y-57.
X64.5Y-60.
X64.5Y-63.
X64.5Y-66.
X64.5Y-74.5
X64.5Y-99.5
X65.5Y-74.5
X65.5Y-99.5
X66.5Y-74.5
X66.5Y-99.5
X67.Y-55.
X67.Y-56.
X67.Y-59.5
X67.Y-60.5
X67.Y-64.
X67.Y-65.
X67.5Y-74.5
X67.5Y-99.5
X68.5Y-74.5
X68.5Y-99.5
X69.5Y-74.5
X69.5Y-99.5
X70.5Y-74.5
X70.5Y-99.5
X71.5Y-74.5
X71.5Y-99.5
X72.5Y-74.5
X72.5Y-99.5
X73.5Y-74.5
X73.5Y-99.5
X74.5Y-46.5
X74.5Y-47.5
X74.5Y-48.5
X74.5Y-49.5
X74.5Y-50.5
X74.5Y-51.5
X74.5Y-52.5
X74.5Y-53.5
X74.5Y-54.5
X74.5Y-55.5
X74.5Y-56.5
X74.5Y-57.5
X74.5Y-58.5
X74.5Y-59.5
X74.5Y-60.5
X74.5Y-61.5
X74.5Y-62.5
X74.5Y-63.5
X74.5Y-64.5
X74.5Y-65.5
X74.5Y-66.5
X74.5Y-67.5
X74.5Y-68.5
X74.5Y-69.5
X74.5Y-70.5
X74.5Y-71.5
X74.5Y-72.5
X74.5Y-73.5
X74.5Y-74.5
X74.5Y-75.5
X74.5Y-76.5
X74.5Y-77.5
X74.5Y-78.5
X74.5Y-79.5
X74.5Y-80.5
X74.5Y-81.5
X74.5Y-82.5
X74.5Y-83.5
X74.5Y-84.5
X74.5Y-85.5
X74.5Y-86.5
X74.5Y-87.5
X74.5Y-88.5
X74.5Y-89.5
X74.5Y-90.5
X74.5Y-91.5
X74.5Y-92.5
X74.5Y-93.5
X74.5Y-94.5
X74.5Y-95.5
X74.5Y-96.5
X74.5Y-97.5
X74.5Y-98.5
X74.5Y-99.5
X74.5Y-100.5
X74.5Y-101.5
X74.5Y-102.5
X74.5Y-103.5
X74.5Y-104.5
X74.5Y-105.5
X74.5Y-106.5
X74.5Y-107.5
X74.5Y-108.5
X74.5Y-109.5
X74.5Y-110.5
X74.5Y-111.5
X74.5Y-112.5
X74.5Y-113.5
X74.5Y-114.5
X74.5Y-115.5
X74.5Y-116.5
X74.5Y-117.5
X74.5Y-118.5
X74.5Y-119.5
X74.5Y-120.5
X74.5Y-121.5
X74.5Y-122.5
X74.5Y-123.5
X75.5Y-74.5
X75.5Y-99.5
X76.5Y-74.5
X76.5Y-99.5
X77.5Y-74.5
X77.5Y-99.5
X78.5Y-74.5
X78.5Y-99.5
X79.5Y-74.5
X79.5Y-99.5
X80.5Y-74.5
X80.5Y-99.5
X81.5Y-74.5
X81.5Y-99.5
X82.Y-55.
X82.Y-56.
X82.Y-59.5
X82.Y-60.5
X82.Y-64.
X82.Y-65.
X82.5Y-74.5
X82.5Y-99.5
X83.5Y-74.5
X83.5Y-99.5
X84.5Y-54.
X84.5Y-57.
X84.5Y-60.
X84.5Y-63.
X84.5Y-66.
X84.5Y-74.5
X84.5Y-99.5
X85.5Y-54.
X85.5Y-57.
X85.5Y-60.
X85.5Y-63.
X85.5Y-66.
X85.5Y-74.5
X85.5Y-99.5
X86.5Y-74.5
X86.5Y-99.5
X87.5Y-74.5
X87.5Y-99.5
X88.Y-55.
X88.Y-56.
X88.Y-59.5
X88.Y-60.5
X88.Y-64.
X88.Y-65.
X88.5Y-74.5
X88.5Y-99.5
X89.5Y-74.5
X89.5Y-99.5
X90.5Y-74.5
X90.5Y-99.5
X91.5Y-74.5
X91.5Y-99.5
X92.5Y-74.5
X92.5Y-99.5
X93.5Y-74.5
X93.5Y-99.5
X94.5Y-74.5
X94.5Y-99.5
X95.5Y-46.5
X95.5Y-47.5
X95.5Y-48.5
X95.5Y-49.5
X95.5Y-50.5
X95.5Y-51.5
X95.5Y-52.5
X95.5Y-53.5
X95.5Y-54.5
X95.5Y-55.5
X95.5Y-56.5
X95.5Y-57.5
X95.5Y-58.5
X95.5Y-59.5
X95.5Y-60.5
X95.5Y-61.5
X95.5Y-62.5
X95.5Y-63.5
X95.5Y-64.5
X95.5Y-65.5
X95.5Y-66.5
X95.5Y-67.5
X95.5Y-68.5
X95.5Y-69.5
X95.5Y-70.5
X95.5Y-71.5
X95.5Y-72.5
X95.5Y-73.5
X95.5Y-74.5
X95.5Y-75.5
X95.5Y-76.5
X95.5Y-77.5
X95.5Y-78.5
X95.5Y-79.5
X95.5Y-80.5
X95.5Y-81.5
X95.5Y-82.5
X95.5Y-83.5
X95.5Y-84.5
X95.5Y-85.5
X95.5Y-86.5
X95.5Y-87.5
X95.5Y-88.5
X95.5Y-89.5
X95.5Y-90.5
X95.5Y-91.5
X95.5Y-92.5
X95.5Y-93.5
X95.5Y-94.5
X95.5Y-95.5
X95.5Y-96.5
X95.5Y-97.5
X95.5Y-98.5
X95.5Y-99.5
X95.5Y-100.5
X95.5Y-101.5
X95.5Y-102.5
X95.5Y-103.5
X95.5Y-104.5
X95.5Y-105.5
X95.5Y-106.5
X95.5Y-107.5
X95.5Y-108.5
X95.5Y-109.5
X95.5Y-110.5
X95.5Y-111.5
X95.5Y-112.5
X95.5Y-113.5
X95.5Y-114.5
X95.5Y-115.5
X95.5Y-116.5
X95.5Y-117.5
X95.5Y-118.5
X95.5Y-119.5
X95.5Y-120.5
X95.5Y-121.5
X95.5Y-122.5
X95.5Y-123.5
X96.5Y-74.5
X96.5Y-99.5
X97.5Y-74.5
X97.5Y-99.5
X98.5Y-74.5
X98.5Y-99.5
X99.5Y-74.5
X99.5Y-99.5
X100.5Y-74.5
X100.5Y-99.5
X101.5Y-74.5
X101.5Y-99.5
X102.5Y-74.5
X102.5Y-99.5
X103.Y-55.
X103.Y-56.
X103.Y-59.5
X103.Y-60.5
X103.Y-64.
X103.Y-65.
X103.5Y-74.5
X103.5Y-99.5
X104.5Y-74.5
X104.5Y-99.5
X105.5Y-54.
X105.5Y-57.
X105.5Y-60.
X105.5Y-63.
X105.5Y-66.
X105.5Y-74.5
X105.5Y-99.5
X106.5Y-54.
X106.5Y-57.
X106.5Y-60.
X106.5Y-63.
X106.5Y-66.
X106.5Y-74.5
X106.5Y-99.5
X107.5Y-74.5
X107.5Y-99.5
X108.5Y-74.5
X108.5Y-99.5
X109.Y-55.
X109.Y-56.
X109.Y-59.5
X109.Y-60.5
X109.Y-64.
X109.Y-65.
X109.5Y-74.5
X109.5Y-99.5
X110.5Y-74.5
X110.5Y-99.5
X111.5Y-74.5
X111.5Y-99.5
X112.5Y-74.5
X112.5Y-99.5
X113.5Y-74.5
X113.5Y-99.5
X114.5Y-74.5
X114.5Y-99.5
X115.5Y-74.5
X115.5Y-99.5
X116.5Y-46.5
X116.5Y-47.5
X116.5Y-48.5
X116.5Y-49.5
X116.5Y-50.5
X116.5Y-51.5
X116.5Y-52.5
X116.5Y-53.5
X116.5Y-54.5
X116.5Y-55.5
X116.5Y-56.5
X116.5Y-57.5
X116.5Y-58.5
X116.5Y-59.5
X116.5Y-60.5
X116.5Y-61.5
X116.5Y-62.5
X116.5Y-63.5
X116.5Y-64.5
X116.5Y-65.5
X116.5Y-66.5
X116.5Y-67.5
X116.5Y-68.5
X116.5Y-69.5
X116.5Y-70.5
X116.5Y-71.5
X116.5Y-72.5
X116.5Y-73.5
X116.5Y-74.5
X116.5Y-75.5
X116.5Y-76.5
X116.5Y-77.5
X116.5Y-78.5
X116.5Y-79.5
X116.5Y-80.5
X116.5Y-81.5
X116.5Y-82.5
X116.5Y-83.5
X116.5Y-84.5
X116.5Y-85.5
X116.5Y-86.5
X116.5Y-87.5
X116.5Y-88.5
X116.5Y-89.5
X116.5Y-90.5
X116.5Y-91.5
X116.5Y-92.5
X116.5Y-93.5
X116.5Y-94.5
X116.5Y-95.5
X116.5Y-96.5
X116.5Y-97.5
X116.5Y-98.5
X116.5Y-99.5
X116.5Y-100.5
X116.5Y-101.5
X116.5Y-102.5
X116.5Y-103.5
X116.5Y-104.5
X116.5Y-105.5
X116.5Y-106.5
X116.5Y-107.5
X116.5Y-108.5
X116.5Y-109.5
X116.5Y-110.5
X116.5Y-111.5
X116.5Y-112.5
X116.5Y-113.5
X116.5Y-114.5
X116.5Y-115.5
X116.5Y-116.5
X116.5Y-117.5
X116.5Y-118.5
X116.5Y-119.5
X116.5Y-120.5
X116.5Y-121.5
X116.5Y-122.5
X116.5Y-123.5
X117.5Y-74.5
X117.5Y-99.5
X118.5Y-74.5
X118.5Y-99.5
X119.5Y-74.5
X119.5Y-99.5
X120.5Y-74.5
X120.5Y-99.5
X121.5Y-74.5
X121.5Y-99.5
X122.5Y-74.5
X122.5Y-99.5
X123.5Y-74.5
X123.5Y-99.5
X124.Y-55.
X124.Y-56.
X124.Y-59.5
X124.Y-60.5
X124.Y-64.
X124.Y-65.
X124.5Y-74.5
X124.5Y-99.5
X125.5Y-74.5
X125.5Y-99.5
X126.5Y-54.
X126.5Y-57.
X126.5Y-60.
X126.5Y-63.
X126.5Y-66.
X126.5Y-74.5
X126.5Y-99.5
X127.5Y-54.
X127.5Y-57.
X127.5Y-60.
X127.5Y-63.
X127.5Y-66.
X127.5Y-74.5
X127.5Y-99.5
X128.5Y-74.5
X128.5Y-99.5
X129.5Y-74.5
X129.5Y-99.5
X130.Y-55.
X130.Y-56.
X130.Y-59.5
X130.Y-60.5
X130.Y-64.
X130.Y-65.
X130.5Y-74.5
X130.5Y-99.5
X131.5Y-74.5
X131.5Y-99.5
X132.5Y-74.5
X132.5Y-99.5
X133.5Y-74.5
X133.5Y-99.5
X134.5Y-74.5
X134.5Y-99.5
X135.5Y-74.5
X135.5Y-99.5
X136.5Y-74.5
X136.5Y-99.5
T0
M30
