M48
;DRILL file {KiCad 4.0.5} date 08/19/18 14:23:07
;FORMAT={-:-/ absolute / metric / decimal}
FMAT,2
METRIC,TZ
T1C0.600
T2C1.000
T3C1.100
%
G90
G05
M71
T1
X60.27Y-81.
X60.27Y-106.
X67.73Y-81.
X67.73Y-107.
X81.27Y-81.
X81.27Y-106.
X88.73Y-81.
X88.73Y-107.
X102.27Y-81.
X102.27Y-106.
X109.73Y-81.
X109.73Y-107.
X123.27Y-81.
X123.27Y-106.
X130.73Y-81.
X130.73Y-107.
T2
X57.73Y-51.
X60.27Y-51.
X67.73Y-51.
X70.27Y-51.
X78.73Y-51.
X81.27Y-51.
X88.73Y-51.
X91.27Y-51.
X99.73Y-51.
X102.27Y-51.
X109.73Y-51.
X112.27Y-51.
X120.73Y-51.
X123.27Y-51.
X130.73Y-51.
X133.27Y-51.
T3
X57.73Y-71.
X57.73Y-78.
X57.73Y-96.
X57.73Y-103.
X57.73Y-121.
X60.27Y-71.
X60.27Y-78.
X60.27Y-96.
X60.27Y-103.
X60.27Y-121.
X67.73Y-71.
X67.73Y-78.
X67.73Y-96.
X67.73Y-103.
X67.73Y-121.
X70.27Y-71.
X70.27Y-78.
X70.27Y-96.
X70.27Y-103.
X70.27Y-121.
X78.73Y-71.
X78.73Y-78.
X78.73Y-96.
X78.73Y-103.
X78.73Y-121.
X81.27Y-71.
X81.27Y-78.
X81.27Y-96.
X81.27Y-103.
X81.27Y-121.
X88.73Y-71.
X88.73Y-78.
X88.73Y-96.
X88.73Y-103.
X88.73Y-121.
X91.27Y-71.
X91.27Y-78.
X91.27Y-96.
X91.27Y-103.
X91.27Y-121.
X99.73Y-71.
X99.73Y-78.
X99.73Y-96.
X99.73Y-103.
X99.73Y-121.
X102.27Y-71.
X102.27Y-78.
X102.27Y-96.
X102.27Y-103.
X102.27Y-121.
X109.73Y-71.
X109.73Y-78.
X109.73Y-96.
X109.73Y-103.
X109.73Y-121.
X112.27Y-71.
X112.27Y-78.
X112.27Y-96.
X112.27Y-103.
X112.27Y-121.
X120.73Y-71.
X120.73Y-78.
X120.73Y-96.
X120.73Y-103.
X120.73Y-121.
X123.27Y-71.
X123.27Y-78.
X123.27Y-96.
X123.27Y-103.
X123.27Y-121.
X130.73Y-71.
X130.73Y-78.
X130.73Y-96.
X130.73Y-103.
X130.73Y-121.
X133.27Y-71.
X133.27Y-78.
X133.27Y-96.
X133.27Y-103.
X133.27Y-121.
T0
M30
