G04 #@! TF.GenerationSoftware,KiCad,Pcbnew,(5.1.0)-1*
G04 #@! TF.CreationDate,2019-06-24T18:37:41+02:00*
G04 #@! TF.ProjectId,DiodeAdapter,44696f64-6541-4646-9170-7465722e6b69,2*
G04 #@! TF.SameCoordinates,Original*
G04 #@! TF.FileFunction,Copper,L1,Top*
G04 #@! TF.FilePolarity,Positive*
%FSLAX46Y46*%
G04 Gerber Fmt 4.6, Leading zero omitted, Abs format (unit mm)*
G04 Created by KiCad (PCBNEW (5.1.0)-1) date 2019-06-24 18:37:41*
%MOMM*%
%LPD*%
G04 APERTURE LIST*
%ADD10R,1.900000X1.900000*%
%ADD11C,1.900000*%
%ADD12R,2.000000X6.000000*%
%ADD13R,1.300000X6.000000*%
%ADD14O,1.700000X1.700000*%
%ADD15R,1.700000X1.700000*%
%ADD16C,1.500000*%
%ADD17C,1.000000*%
%ADD18C,0.254000*%
G04 APERTURE END LIST*
D10*
X108890000Y-57620000D03*
D11*
X108890000Y-60160000D03*
D12*
X104200000Y-135090000D03*
X108500000Y-135090000D03*
D13*
X106350000Y-135090000D03*
D12*
X104200000Y-110960000D03*
X108500000Y-110960000D03*
D13*
X106350000Y-110960000D03*
D14*
X107620000Y-80480000D03*
D15*
X105080000Y-80480000D03*
D11*
X107620000Y-94450000D03*
D10*
X105080000Y-94450000D03*
D11*
X107620000Y-119850000D03*
D10*
X105080000Y-119850000D03*
D11*
X107620000Y-100800000D03*
D10*
X105080000Y-100800000D03*
D11*
X107620000Y-126200000D03*
D10*
X105080000Y-126200000D03*
D11*
X107620000Y-143980000D03*
D10*
X105080000Y-143980000D03*
D11*
X103810000Y-60160000D03*
D10*
X103810000Y-57620000D03*
D14*
X107620000Y-53810000D03*
D15*
X105080000Y-53810000D03*
D11*
X107620000Y-63970000D03*
D10*
X105080000Y-63970000D03*
D14*
X107620000Y-71590000D03*
D15*
X105080000Y-71590000D03*
D16*
X105080000Y-104610000D03*
X105080000Y-116040000D03*
X107620000Y-116040000D03*
X107620000Y-104610000D03*
X107620000Y-128740000D03*
X107620000Y-141440000D03*
X105080000Y-128740000D03*
X105080000Y-141440000D03*
D17*
X105080000Y-100800000D02*
X105080000Y-104610000D01*
X105080000Y-104610000D02*
X104200000Y-105490000D01*
X105080000Y-119850000D02*
X105080000Y-116040000D01*
X105080000Y-116040000D02*
X104200000Y-115160000D01*
X104200000Y-110960000D02*
X104200000Y-105490000D01*
X104200000Y-115160000D02*
X104200000Y-110960000D01*
X107620000Y-119850000D02*
X107620000Y-116040000D01*
X108500000Y-115160000D02*
X107620000Y-116040000D01*
X106350000Y-114770000D02*
X107620000Y-116040000D01*
X107620000Y-100800000D02*
X107620000Y-104610000D01*
X106350000Y-105880000D02*
X107620000Y-104610000D01*
X106350000Y-105880000D02*
X106350000Y-110960000D01*
X108500000Y-110960000D02*
X108500000Y-105490000D01*
X108500000Y-110960000D02*
X108500000Y-115160000D01*
X106350000Y-114770000D02*
X106350000Y-110960000D01*
X107620000Y-126200000D02*
X107620000Y-128740000D01*
X108500000Y-129620000D02*
X107620000Y-128740000D01*
X106350000Y-130010000D02*
X107620000Y-128740000D01*
X107620000Y-143980000D02*
X107620000Y-141440000D01*
X108500000Y-140560000D02*
X107620000Y-141440000D01*
X106350000Y-140170000D02*
X107620000Y-141440000D01*
X106350000Y-135090000D02*
X106350000Y-130010000D01*
X108500000Y-135090000D02*
X108500000Y-129620000D01*
X108500000Y-135090000D02*
X108500000Y-140560000D01*
X106350000Y-140170000D02*
X106350000Y-135090000D01*
X105080000Y-126200000D02*
X105080000Y-128740000D01*
X104200000Y-129620000D02*
X105080000Y-128740000D01*
X105080000Y-143980000D02*
X105080000Y-141440000D01*
X104200000Y-140560000D02*
X105080000Y-141440000D01*
X104200000Y-135090000D02*
X104200000Y-129620000D01*
X104200000Y-135090000D02*
X104200000Y-140560000D01*
X105080000Y-94450000D02*
X105080000Y-80480000D01*
X105080000Y-53810000D02*
X105080000Y-55080000D01*
X103810000Y-56350000D02*
X103810000Y-57620000D01*
X105080000Y-55080000D02*
X103810000Y-56350000D01*
X103810000Y-57620000D02*
X108890000Y-57620000D01*
X105080000Y-63970000D02*
X105080000Y-71590000D01*
X103810000Y-60160000D02*
X108890000Y-60160000D01*
X105080000Y-63970000D02*
X105080000Y-62700000D01*
X103810000Y-61430000D02*
X103810000Y-60160000D01*
X105080000Y-62700000D02*
X103810000Y-61430000D01*
D18*
G36*
X110463428Y-76907896D02*
G01*
X110642686Y-76982147D01*
X110832986Y-77020000D01*
X111027014Y-77020000D01*
X111217314Y-76982147D01*
X111396572Y-76907896D01*
X111430000Y-76885560D01*
X111463428Y-76907896D01*
X111642686Y-76982147D01*
X111832986Y-77020000D01*
X111990000Y-77020000D01*
X111990000Y-96228000D01*
X100710000Y-96228000D01*
X100710000Y-95400000D01*
X103491928Y-95400000D01*
X103504188Y-95524482D01*
X103540498Y-95644180D01*
X103599463Y-95754494D01*
X103678815Y-95851185D01*
X103775506Y-95930537D01*
X103885820Y-95989502D01*
X104005518Y-96025812D01*
X104130000Y-96038072D01*
X104794250Y-96035000D01*
X104953000Y-95876250D01*
X104953000Y-94577000D01*
X103653750Y-94577000D01*
X103495000Y-94735750D01*
X103491928Y-95400000D01*
X100710000Y-95400000D01*
X100710000Y-93500000D01*
X103491928Y-93500000D01*
X103495000Y-94164250D01*
X103653750Y-94323000D01*
X104953000Y-94323000D01*
X104953000Y-93023750D01*
X105207000Y-93023750D01*
X105207000Y-94323000D01*
X105227000Y-94323000D01*
X105227000Y-94577000D01*
X105207000Y-94577000D01*
X105207000Y-95876250D01*
X105365750Y-96035000D01*
X106030000Y-96038072D01*
X106154482Y-96025812D01*
X106274180Y-95989502D01*
X106384494Y-95930537D01*
X106481185Y-95851185D01*
X106560537Y-95754494D01*
X106603182Y-95674711D01*
X106609621Y-95681150D01*
X106869221Y-95854609D01*
X107157673Y-95974089D01*
X107463891Y-96035000D01*
X107776109Y-96035000D01*
X108082327Y-95974089D01*
X108370779Y-95854609D01*
X108630379Y-95681150D01*
X108851150Y-95460379D01*
X109024609Y-95200779D01*
X109144089Y-94912327D01*
X109205000Y-94606109D01*
X109205000Y-94293891D01*
X109144089Y-93987673D01*
X109024609Y-93699221D01*
X108851150Y-93439621D01*
X108630379Y-93218850D01*
X108370779Y-93045391D01*
X108082327Y-92925911D01*
X107776109Y-92865000D01*
X107463891Y-92865000D01*
X107157673Y-92925911D01*
X106869221Y-93045391D01*
X106609621Y-93218850D01*
X106603182Y-93225289D01*
X106560537Y-93145506D01*
X106481185Y-93048815D01*
X106384494Y-92969463D01*
X106274180Y-92910498D01*
X106154482Y-92874188D01*
X106030000Y-92861928D01*
X105365750Y-92865000D01*
X105207000Y-93023750D01*
X104953000Y-93023750D01*
X104794250Y-92865000D01*
X104130000Y-92861928D01*
X104005518Y-92874188D01*
X103885820Y-92910498D01*
X103775506Y-92969463D01*
X103678815Y-93048815D01*
X103599463Y-93145506D01*
X103540498Y-93255820D01*
X103504188Y-93375518D01*
X103491928Y-93500000D01*
X100710000Y-93500000D01*
X100710000Y-81330000D01*
X103591928Y-81330000D01*
X103604188Y-81454482D01*
X103640498Y-81574180D01*
X103699463Y-81684494D01*
X103778815Y-81781185D01*
X103875506Y-81860537D01*
X103985820Y-81919502D01*
X104105518Y-81955812D01*
X104230000Y-81968072D01*
X104794250Y-81965000D01*
X104953000Y-81806250D01*
X104953000Y-80607000D01*
X103753750Y-80607000D01*
X103595000Y-80765750D01*
X103591928Y-81330000D01*
X100710000Y-81330000D01*
X100710000Y-79630000D01*
X103591928Y-79630000D01*
X103595000Y-80194250D01*
X103753750Y-80353000D01*
X104953000Y-80353000D01*
X104953000Y-79153750D01*
X105207000Y-79153750D01*
X105207000Y-80353000D01*
X105227000Y-80353000D01*
X105227000Y-80607000D01*
X105207000Y-80607000D01*
X105207000Y-81806250D01*
X105365750Y-81965000D01*
X105930000Y-81968072D01*
X106054482Y-81955812D01*
X106174180Y-81919502D01*
X106284494Y-81860537D01*
X106381185Y-81781185D01*
X106460537Y-81684494D01*
X106519502Y-81574180D01*
X106540393Y-81505313D01*
X106564866Y-81535134D01*
X106790986Y-81720706D01*
X107048966Y-81858599D01*
X107328889Y-81943513D01*
X107547050Y-81965000D01*
X107692950Y-81965000D01*
X107911111Y-81943513D01*
X108191034Y-81858599D01*
X108449014Y-81720706D01*
X108675134Y-81535134D01*
X108860706Y-81309014D01*
X108998599Y-81051034D01*
X109083513Y-80771111D01*
X109112185Y-80480000D01*
X109083513Y-80188889D01*
X108998599Y-79908966D01*
X108860706Y-79650986D01*
X108675134Y-79424866D01*
X108449014Y-79239294D01*
X108191034Y-79101401D01*
X107911111Y-79016487D01*
X107692950Y-78995000D01*
X107547050Y-78995000D01*
X107328889Y-79016487D01*
X107048966Y-79101401D01*
X106790986Y-79239294D01*
X106564866Y-79424866D01*
X106540393Y-79454687D01*
X106519502Y-79385820D01*
X106460537Y-79275506D01*
X106381185Y-79178815D01*
X106284494Y-79099463D01*
X106174180Y-79040498D01*
X106054482Y-79004188D01*
X105930000Y-78991928D01*
X105365750Y-78995000D01*
X105207000Y-79153750D01*
X104953000Y-79153750D01*
X104794250Y-78995000D01*
X104230000Y-78991928D01*
X104105518Y-79004188D01*
X103985820Y-79040498D01*
X103875506Y-79099463D01*
X103778815Y-79178815D01*
X103699463Y-79275506D01*
X103640498Y-79385820D01*
X103604188Y-79505518D01*
X103591928Y-79630000D01*
X100710000Y-79630000D01*
X100710000Y-77020000D01*
X100740014Y-77020000D01*
X100930314Y-76982147D01*
X101109572Y-76907896D01*
X101143000Y-76885560D01*
X101176428Y-76907896D01*
X101355686Y-76982147D01*
X101545986Y-77020000D01*
X101740014Y-77020000D01*
X101930314Y-76982147D01*
X102109572Y-76907896D01*
X102155000Y-76877542D01*
X102200428Y-76907896D01*
X102379686Y-76982147D01*
X102569986Y-77020000D01*
X102764014Y-77020000D01*
X102954314Y-76982147D01*
X103133572Y-76907896D01*
X103175000Y-76880215D01*
X103216428Y-76907896D01*
X103395686Y-76982147D01*
X103585986Y-77020000D01*
X103780014Y-77020000D01*
X103970314Y-76982147D01*
X104149572Y-76907896D01*
X104191000Y-76880215D01*
X104232428Y-76907896D01*
X104411686Y-76982147D01*
X104601986Y-77020000D01*
X104796014Y-77020000D01*
X104986314Y-76982147D01*
X105165572Y-76907896D01*
X105207000Y-76880215D01*
X105248428Y-76907896D01*
X105427686Y-76982147D01*
X105617986Y-77020000D01*
X105812014Y-77020000D01*
X106002314Y-76982147D01*
X106181572Y-76907896D01*
X106223000Y-76880215D01*
X106264428Y-76907896D01*
X106443686Y-76982147D01*
X106633986Y-77020000D01*
X106828014Y-77020000D01*
X107018314Y-76982147D01*
X107197572Y-76907896D01*
X107239000Y-76880215D01*
X107280428Y-76907896D01*
X107459686Y-76982147D01*
X107649986Y-77020000D01*
X107844014Y-77020000D01*
X108034314Y-76982147D01*
X108213572Y-76907896D01*
X108255000Y-76880215D01*
X108296428Y-76907896D01*
X108475686Y-76982147D01*
X108665986Y-77020000D01*
X108860014Y-77020000D01*
X109050314Y-76982147D01*
X109229572Y-76907896D01*
X109271000Y-76880215D01*
X109312428Y-76907896D01*
X109491686Y-76982147D01*
X109681986Y-77020000D01*
X109876014Y-77020000D01*
X110066314Y-76982147D01*
X110245572Y-76907896D01*
X110354500Y-76835112D01*
X110463428Y-76907896D01*
X110463428Y-76907896D01*
G37*
X110463428Y-76907896D02*
X110642686Y-76982147D01*
X110832986Y-77020000D01*
X111027014Y-77020000D01*
X111217314Y-76982147D01*
X111396572Y-76907896D01*
X111430000Y-76885560D01*
X111463428Y-76907896D01*
X111642686Y-76982147D01*
X111832986Y-77020000D01*
X111990000Y-77020000D01*
X111990000Y-96228000D01*
X100710000Y-96228000D01*
X100710000Y-95400000D01*
X103491928Y-95400000D01*
X103504188Y-95524482D01*
X103540498Y-95644180D01*
X103599463Y-95754494D01*
X103678815Y-95851185D01*
X103775506Y-95930537D01*
X103885820Y-95989502D01*
X104005518Y-96025812D01*
X104130000Y-96038072D01*
X104794250Y-96035000D01*
X104953000Y-95876250D01*
X104953000Y-94577000D01*
X103653750Y-94577000D01*
X103495000Y-94735750D01*
X103491928Y-95400000D01*
X100710000Y-95400000D01*
X100710000Y-93500000D01*
X103491928Y-93500000D01*
X103495000Y-94164250D01*
X103653750Y-94323000D01*
X104953000Y-94323000D01*
X104953000Y-93023750D01*
X105207000Y-93023750D01*
X105207000Y-94323000D01*
X105227000Y-94323000D01*
X105227000Y-94577000D01*
X105207000Y-94577000D01*
X105207000Y-95876250D01*
X105365750Y-96035000D01*
X106030000Y-96038072D01*
X106154482Y-96025812D01*
X106274180Y-95989502D01*
X106384494Y-95930537D01*
X106481185Y-95851185D01*
X106560537Y-95754494D01*
X106603182Y-95674711D01*
X106609621Y-95681150D01*
X106869221Y-95854609D01*
X107157673Y-95974089D01*
X107463891Y-96035000D01*
X107776109Y-96035000D01*
X108082327Y-95974089D01*
X108370779Y-95854609D01*
X108630379Y-95681150D01*
X108851150Y-95460379D01*
X109024609Y-95200779D01*
X109144089Y-94912327D01*
X109205000Y-94606109D01*
X109205000Y-94293891D01*
X109144089Y-93987673D01*
X109024609Y-93699221D01*
X108851150Y-93439621D01*
X108630379Y-93218850D01*
X108370779Y-93045391D01*
X108082327Y-92925911D01*
X107776109Y-92865000D01*
X107463891Y-92865000D01*
X107157673Y-92925911D01*
X106869221Y-93045391D01*
X106609621Y-93218850D01*
X106603182Y-93225289D01*
X106560537Y-93145506D01*
X106481185Y-93048815D01*
X106384494Y-92969463D01*
X106274180Y-92910498D01*
X106154482Y-92874188D01*
X106030000Y-92861928D01*
X105365750Y-92865000D01*
X105207000Y-93023750D01*
X104953000Y-93023750D01*
X104794250Y-92865000D01*
X104130000Y-92861928D01*
X104005518Y-92874188D01*
X103885820Y-92910498D01*
X103775506Y-92969463D01*
X103678815Y-93048815D01*
X103599463Y-93145506D01*
X103540498Y-93255820D01*
X103504188Y-93375518D01*
X103491928Y-93500000D01*
X100710000Y-93500000D01*
X100710000Y-81330000D01*
X103591928Y-81330000D01*
X103604188Y-81454482D01*
X103640498Y-81574180D01*
X103699463Y-81684494D01*
X103778815Y-81781185D01*
X103875506Y-81860537D01*
X103985820Y-81919502D01*
X104105518Y-81955812D01*
X104230000Y-81968072D01*
X104794250Y-81965000D01*
X104953000Y-81806250D01*
X104953000Y-80607000D01*
X103753750Y-80607000D01*
X103595000Y-80765750D01*
X103591928Y-81330000D01*
X100710000Y-81330000D01*
X100710000Y-79630000D01*
X103591928Y-79630000D01*
X103595000Y-80194250D01*
X103753750Y-80353000D01*
X104953000Y-80353000D01*
X104953000Y-79153750D01*
X105207000Y-79153750D01*
X105207000Y-80353000D01*
X105227000Y-80353000D01*
X105227000Y-80607000D01*
X105207000Y-80607000D01*
X105207000Y-81806250D01*
X105365750Y-81965000D01*
X105930000Y-81968072D01*
X106054482Y-81955812D01*
X106174180Y-81919502D01*
X106284494Y-81860537D01*
X106381185Y-81781185D01*
X106460537Y-81684494D01*
X106519502Y-81574180D01*
X106540393Y-81505313D01*
X106564866Y-81535134D01*
X106790986Y-81720706D01*
X107048966Y-81858599D01*
X107328889Y-81943513D01*
X107547050Y-81965000D01*
X107692950Y-81965000D01*
X107911111Y-81943513D01*
X108191034Y-81858599D01*
X108449014Y-81720706D01*
X108675134Y-81535134D01*
X108860706Y-81309014D01*
X108998599Y-81051034D01*
X109083513Y-80771111D01*
X109112185Y-80480000D01*
X109083513Y-80188889D01*
X108998599Y-79908966D01*
X108860706Y-79650986D01*
X108675134Y-79424866D01*
X108449014Y-79239294D01*
X108191034Y-79101401D01*
X107911111Y-79016487D01*
X107692950Y-78995000D01*
X107547050Y-78995000D01*
X107328889Y-79016487D01*
X107048966Y-79101401D01*
X106790986Y-79239294D01*
X106564866Y-79424866D01*
X106540393Y-79454687D01*
X106519502Y-79385820D01*
X106460537Y-79275506D01*
X106381185Y-79178815D01*
X106284494Y-79099463D01*
X106174180Y-79040498D01*
X106054482Y-79004188D01*
X105930000Y-78991928D01*
X105365750Y-78995000D01*
X105207000Y-79153750D01*
X104953000Y-79153750D01*
X104794250Y-78995000D01*
X104230000Y-78991928D01*
X104105518Y-79004188D01*
X103985820Y-79040498D01*
X103875506Y-79099463D01*
X103778815Y-79178815D01*
X103699463Y-79275506D01*
X103640498Y-79385820D01*
X103604188Y-79505518D01*
X103591928Y-79630000D01*
X100710000Y-79630000D01*
X100710000Y-77020000D01*
X100740014Y-77020000D01*
X100930314Y-76982147D01*
X101109572Y-76907896D01*
X101143000Y-76885560D01*
X101176428Y-76907896D01*
X101355686Y-76982147D01*
X101545986Y-77020000D01*
X101740014Y-77020000D01*
X101930314Y-76982147D01*
X102109572Y-76907896D01*
X102155000Y-76877542D01*
X102200428Y-76907896D01*
X102379686Y-76982147D01*
X102569986Y-77020000D01*
X102764014Y-77020000D01*
X102954314Y-76982147D01*
X103133572Y-76907896D01*
X103175000Y-76880215D01*
X103216428Y-76907896D01*
X103395686Y-76982147D01*
X103585986Y-77020000D01*
X103780014Y-77020000D01*
X103970314Y-76982147D01*
X104149572Y-76907896D01*
X104191000Y-76880215D01*
X104232428Y-76907896D01*
X104411686Y-76982147D01*
X104601986Y-77020000D01*
X104796014Y-77020000D01*
X104986314Y-76982147D01*
X105165572Y-76907896D01*
X105207000Y-76880215D01*
X105248428Y-76907896D01*
X105427686Y-76982147D01*
X105617986Y-77020000D01*
X105812014Y-77020000D01*
X106002314Y-76982147D01*
X106181572Y-76907896D01*
X106223000Y-76880215D01*
X106264428Y-76907896D01*
X106443686Y-76982147D01*
X106633986Y-77020000D01*
X106828014Y-77020000D01*
X107018314Y-76982147D01*
X107197572Y-76907896D01*
X107239000Y-76880215D01*
X107280428Y-76907896D01*
X107459686Y-76982147D01*
X107649986Y-77020000D01*
X107844014Y-77020000D01*
X108034314Y-76982147D01*
X108213572Y-76907896D01*
X108255000Y-76880215D01*
X108296428Y-76907896D01*
X108475686Y-76982147D01*
X108665986Y-77020000D01*
X108860014Y-77020000D01*
X109050314Y-76982147D01*
X109229572Y-76907896D01*
X109271000Y-76880215D01*
X109312428Y-76907896D01*
X109491686Y-76982147D01*
X109681986Y-77020000D01*
X109876014Y-77020000D01*
X110066314Y-76982147D01*
X110245572Y-76907896D01*
X110354500Y-76835112D01*
X110463428Y-76907896D01*
G36*
X103945001Y-103815713D02*
G01*
X103852629Y-103953957D01*
X103748225Y-104206011D01*
X103715788Y-104369080D01*
X103436860Y-104648009D01*
X103393552Y-104683551D01*
X103251717Y-104856377D01*
X103195384Y-104961770D01*
X103146324Y-105053554D01*
X103081423Y-105267502D01*
X103059509Y-105490000D01*
X103065001Y-105545761D01*
X103065001Y-107337378D01*
X102955820Y-107370498D01*
X102845506Y-107429463D01*
X102748815Y-107508815D01*
X102669463Y-107605506D01*
X102610498Y-107715820D01*
X102574188Y-107835518D01*
X102561928Y-107960000D01*
X102561928Y-113960000D01*
X102574188Y-114084482D01*
X102610498Y-114204180D01*
X102669463Y-114314494D01*
X102748815Y-114411185D01*
X102845506Y-114490537D01*
X102955820Y-114549502D01*
X103065000Y-114582621D01*
X103065000Y-115104248D01*
X103059509Y-115160000D01*
X103065000Y-115215751D01*
X103081423Y-115382498D01*
X103146324Y-115596446D01*
X103251716Y-115793623D01*
X103393551Y-115966449D01*
X103436864Y-116001995D01*
X103715788Y-116280920D01*
X103748225Y-116443989D01*
X103852629Y-116696043D01*
X103945001Y-116834287D01*
X103945001Y-117183000D01*
X100710000Y-117183000D01*
X100710000Y-103467000D01*
X103945001Y-103467000D01*
X103945001Y-103815713D01*
X103945001Y-103815713D01*
G37*
X103945001Y-103815713D02*
X103852629Y-103953957D01*
X103748225Y-104206011D01*
X103715788Y-104369080D01*
X103436860Y-104648009D01*
X103393552Y-104683551D01*
X103251717Y-104856377D01*
X103195384Y-104961770D01*
X103146324Y-105053554D01*
X103081423Y-105267502D01*
X103059509Y-105490000D01*
X103065001Y-105545761D01*
X103065001Y-107337378D01*
X102955820Y-107370498D01*
X102845506Y-107429463D01*
X102748815Y-107508815D01*
X102669463Y-107605506D01*
X102610498Y-107715820D01*
X102574188Y-107835518D01*
X102561928Y-107960000D01*
X102561928Y-113960000D01*
X102574188Y-114084482D01*
X102610498Y-114204180D01*
X102669463Y-114314494D01*
X102748815Y-114411185D01*
X102845506Y-114490537D01*
X102955820Y-114549502D01*
X103065000Y-114582621D01*
X103065000Y-115104248D01*
X103059509Y-115160000D01*
X103065000Y-115215751D01*
X103081423Y-115382498D01*
X103146324Y-115596446D01*
X103251716Y-115793623D01*
X103393551Y-115966449D01*
X103436864Y-116001995D01*
X103715788Y-116280920D01*
X103748225Y-116443989D01*
X103852629Y-116696043D01*
X103945001Y-116834287D01*
X103945001Y-117183000D01*
X100710000Y-117183000D01*
X100710000Y-103467000D01*
X103945001Y-103467000D01*
X103945001Y-103815713D01*
G36*
X111990001Y-117183000D02*
G01*
X106215000Y-117183000D01*
X106215000Y-116834286D01*
X106307371Y-116696043D01*
X106411775Y-116443989D01*
X106465000Y-116176411D01*
X106465000Y-115903589D01*
X106411775Y-115636011D01*
X106307371Y-115383957D01*
X106155799Y-115157114D01*
X105962886Y-114964201D01*
X105736043Y-114812629D01*
X105483989Y-114708225D01*
X105335000Y-114678589D01*
X105335000Y-114582621D01*
X105444180Y-114549502D01*
X105554494Y-114490537D01*
X105651185Y-114411185D01*
X105730537Y-114314494D01*
X105789502Y-114204180D01*
X105824909Y-114087458D01*
X106191250Y-114087000D01*
X106223000Y-114055250D01*
X106223000Y-111087000D01*
X106477000Y-111087000D01*
X106477000Y-114055250D01*
X106508750Y-114087000D01*
X107000000Y-114087614D01*
X107024896Y-114085162D01*
X107048836Y-114077900D01*
X107070899Y-114066107D01*
X107090237Y-114050237D01*
X107106107Y-114030899D01*
X107117900Y-114008836D01*
X107125162Y-113984896D01*
X107127614Y-113960000D01*
X107372386Y-113960000D01*
X107374838Y-113984896D01*
X107382100Y-114008836D01*
X107393893Y-114030899D01*
X107409763Y-114050237D01*
X107429101Y-114066107D01*
X107451164Y-114077900D01*
X107475104Y-114085162D01*
X107500000Y-114087614D01*
X108341250Y-114087000D01*
X108373000Y-114055250D01*
X108373000Y-111087000D01*
X108627000Y-111087000D01*
X108627000Y-114055250D01*
X108658750Y-114087000D01*
X109500000Y-114087614D01*
X109524896Y-114085162D01*
X109548836Y-114077900D01*
X109570899Y-114066107D01*
X109590237Y-114050237D01*
X109606107Y-114030899D01*
X109617900Y-114008836D01*
X109625162Y-113984896D01*
X109627614Y-113960000D01*
X109627000Y-111118750D01*
X109595250Y-111087000D01*
X108627000Y-111087000D01*
X108373000Y-111087000D01*
X107404750Y-111087000D01*
X107373000Y-111118750D01*
X107372386Y-113960000D01*
X107127614Y-113960000D01*
X107127000Y-111118750D01*
X107095250Y-111087000D01*
X106477000Y-111087000D01*
X106223000Y-111087000D01*
X106203000Y-111087000D01*
X106203000Y-110833000D01*
X106223000Y-110833000D01*
X106223000Y-107864750D01*
X106477000Y-107864750D01*
X106477000Y-110833000D01*
X107095250Y-110833000D01*
X107127000Y-110801250D01*
X107127614Y-107960000D01*
X107372386Y-107960000D01*
X107373000Y-110801250D01*
X107404750Y-110833000D01*
X108373000Y-110833000D01*
X108373000Y-107864750D01*
X108627000Y-107864750D01*
X108627000Y-110833000D01*
X109595250Y-110833000D01*
X109627000Y-110801250D01*
X109627614Y-107960000D01*
X109625162Y-107935104D01*
X109617900Y-107911164D01*
X109606107Y-107889101D01*
X109590237Y-107869763D01*
X109570899Y-107853893D01*
X109548836Y-107842100D01*
X109524896Y-107834838D01*
X109500000Y-107832386D01*
X108658750Y-107833000D01*
X108627000Y-107864750D01*
X108373000Y-107864750D01*
X108341250Y-107833000D01*
X107500000Y-107832386D01*
X107475104Y-107834838D01*
X107451164Y-107842100D01*
X107429101Y-107853893D01*
X107409763Y-107869763D01*
X107393893Y-107889101D01*
X107382100Y-107911164D01*
X107374838Y-107935104D01*
X107372386Y-107960000D01*
X107127614Y-107960000D01*
X107125162Y-107935104D01*
X107117900Y-107911164D01*
X107106107Y-107889101D01*
X107090237Y-107869763D01*
X107070899Y-107853893D01*
X107048836Y-107842100D01*
X107024896Y-107834838D01*
X107000000Y-107832386D01*
X106508750Y-107833000D01*
X106477000Y-107864750D01*
X106223000Y-107864750D01*
X106191250Y-107833000D01*
X105824909Y-107832542D01*
X105789502Y-107715820D01*
X105730537Y-107605506D01*
X105651185Y-107508815D01*
X105554494Y-107429463D01*
X105444180Y-107370498D01*
X105335000Y-107337379D01*
X105335000Y-105971411D01*
X105483989Y-105941775D01*
X105736043Y-105837371D01*
X105962886Y-105685799D01*
X106155799Y-105492886D01*
X106307371Y-105266043D01*
X106411775Y-105013989D01*
X106465000Y-104746411D01*
X106465000Y-104473589D01*
X106411775Y-104206011D01*
X106307371Y-103953957D01*
X106215000Y-103815714D01*
X106215000Y-103467000D01*
X111990001Y-103467000D01*
X111990001Y-117183000D01*
X111990001Y-117183000D01*
G37*
X111990001Y-117183000D02*
X106215000Y-117183000D01*
X106215000Y-116834286D01*
X106307371Y-116696043D01*
X106411775Y-116443989D01*
X106465000Y-116176411D01*
X106465000Y-115903589D01*
X106411775Y-115636011D01*
X106307371Y-115383957D01*
X106155799Y-115157114D01*
X105962886Y-114964201D01*
X105736043Y-114812629D01*
X105483989Y-114708225D01*
X105335000Y-114678589D01*
X105335000Y-114582621D01*
X105444180Y-114549502D01*
X105554494Y-114490537D01*
X105651185Y-114411185D01*
X105730537Y-114314494D01*
X105789502Y-114204180D01*
X105824909Y-114087458D01*
X106191250Y-114087000D01*
X106223000Y-114055250D01*
X106223000Y-111087000D01*
X106477000Y-111087000D01*
X106477000Y-114055250D01*
X106508750Y-114087000D01*
X107000000Y-114087614D01*
X107024896Y-114085162D01*
X107048836Y-114077900D01*
X107070899Y-114066107D01*
X107090237Y-114050237D01*
X107106107Y-114030899D01*
X107117900Y-114008836D01*
X107125162Y-113984896D01*
X107127614Y-113960000D01*
X107372386Y-113960000D01*
X107374838Y-113984896D01*
X107382100Y-114008836D01*
X107393893Y-114030899D01*
X107409763Y-114050237D01*
X107429101Y-114066107D01*
X107451164Y-114077900D01*
X107475104Y-114085162D01*
X107500000Y-114087614D01*
X108341250Y-114087000D01*
X108373000Y-114055250D01*
X108373000Y-111087000D01*
X108627000Y-111087000D01*
X108627000Y-114055250D01*
X108658750Y-114087000D01*
X109500000Y-114087614D01*
X109524896Y-114085162D01*
X109548836Y-114077900D01*
X109570899Y-114066107D01*
X109590237Y-114050237D01*
X109606107Y-114030899D01*
X109617900Y-114008836D01*
X109625162Y-113984896D01*
X109627614Y-113960000D01*
X109627000Y-111118750D01*
X109595250Y-111087000D01*
X108627000Y-111087000D01*
X108373000Y-111087000D01*
X107404750Y-111087000D01*
X107373000Y-111118750D01*
X107372386Y-113960000D01*
X107127614Y-113960000D01*
X107127000Y-111118750D01*
X107095250Y-111087000D01*
X106477000Y-111087000D01*
X106223000Y-111087000D01*
X106203000Y-111087000D01*
X106203000Y-110833000D01*
X106223000Y-110833000D01*
X106223000Y-107864750D01*
X106477000Y-107864750D01*
X106477000Y-110833000D01*
X107095250Y-110833000D01*
X107127000Y-110801250D01*
X107127614Y-107960000D01*
X107372386Y-107960000D01*
X107373000Y-110801250D01*
X107404750Y-110833000D01*
X108373000Y-110833000D01*
X108373000Y-107864750D01*
X108627000Y-107864750D01*
X108627000Y-110833000D01*
X109595250Y-110833000D01*
X109627000Y-110801250D01*
X109627614Y-107960000D01*
X109625162Y-107935104D01*
X109617900Y-107911164D01*
X109606107Y-107889101D01*
X109590237Y-107869763D01*
X109570899Y-107853893D01*
X109548836Y-107842100D01*
X109524896Y-107834838D01*
X109500000Y-107832386D01*
X108658750Y-107833000D01*
X108627000Y-107864750D01*
X108373000Y-107864750D01*
X108341250Y-107833000D01*
X107500000Y-107832386D01*
X107475104Y-107834838D01*
X107451164Y-107842100D01*
X107429101Y-107853893D01*
X107409763Y-107869763D01*
X107393893Y-107889101D01*
X107382100Y-107911164D01*
X107374838Y-107935104D01*
X107372386Y-107960000D01*
X107127614Y-107960000D01*
X107125162Y-107935104D01*
X107117900Y-107911164D01*
X107106107Y-107889101D01*
X107090237Y-107869763D01*
X107070899Y-107853893D01*
X107048836Y-107842100D01*
X107024896Y-107834838D01*
X107000000Y-107832386D01*
X106508750Y-107833000D01*
X106477000Y-107864750D01*
X106223000Y-107864750D01*
X106191250Y-107833000D01*
X105824909Y-107832542D01*
X105789502Y-107715820D01*
X105730537Y-107605506D01*
X105651185Y-107508815D01*
X105554494Y-107429463D01*
X105444180Y-107370498D01*
X105335000Y-107337379D01*
X105335000Y-105971411D01*
X105483989Y-105941775D01*
X105736043Y-105837371D01*
X105962886Y-105685799D01*
X106155799Y-105492886D01*
X106307371Y-105266043D01*
X106411775Y-105013989D01*
X106465000Y-104746411D01*
X106465000Y-104473589D01*
X106411775Y-104206011D01*
X106307371Y-103953957D01*
X106215000Y-103815714D01*
X106215000Y-103467000D01*
X111990001Y-103467000D01*
X111990001Y-117183000D01*
G36*
X111990001Y-121628000D02*
G01*
X100710000Y-121628000D01*
X100710000Y-107960000D01*
X102561928Y-107960000D01*
X102561928Y-113960000D01*
X102574188Y-114084482D01*
X102610498Y-114204180D01*
X102669463Y-114314494D01*
X102748815Y-114411185D01*
X102845506Y-114490537D01*
X102955820Y-114549502D01*
X103065000Y-114582621D01*
X103065000Y-115104248D01*
X103059509Y-115160000D01*
X103065000Y-115215751D01*
X103081423Y-115382498D01*
X103146324Y-115596446D01*
X103251716Y-115793623D01*
X103393551Y-115966449D01*
X103436864Y-116001995D01*
X103715788Y-116280920D01*
X103748225Y-116443989D01*
X103852629Y-116696043D01*
X103945001Y-116834287D01*
X103945000Y-118292546D01*
X103885820Y-118310498D01*
X103775506Y-118369463D01*
X103678815Y-118448815D01*
X103599463Y-118545506D01*
X103540498Y-118655820D01*
X103504188Y-118775518D01*
X103491928Y-118900000D01*
X103491928Y-120800000D01*
X103504188Y-120924482D01*
X103540498Y-121044180D01*
X103599463Y-121154494D01*
X103678815Y-121251185D01*
X103775506Y-121330537D01*
X103885820Y-121389502D01*
X104005518Y-121425812D01*
X104130000Y-121438072D01*
X106030000Y-121438072D01*
X106154482Y-121425812D01*
X106274180Y-121389502D01*
X106384494Y-121330537D01*
X106481185Y-121251185D01*
X106560537Y-121154494D01*
X106619502Y-121044180D01*
X106625630Y-121023978D01*
X106699854Y-120949754D01*
X106789579Y-121209042D01*
X107070671Y-121344935D01*
X107372873Y-121423379D01*
X107684573Y-121441359D01*
X107993791Y-121398184D01*
X108288644Y-121295513D01*
X108450421Y-121209042D01*
X108540147Y-120949752D01*
X107620000Y-120029605D01*
X107605858Y-120043748D01*
X107426253Y-119864143D01*
X107440395Y-119850000D01*
X107799605Y-119850000D01*
X108719752Y-120770147D01*
X108979042Y-120680421D01*
X109114935Y-120399329D01*
X109193379Y-120097127D01*
X109211359Y-119785427D01*
X109168184Y-119476209D01*
X109065513Y-119181356D01*
X108979042Y-119019579D01*
X108719752Y-118929853D01*
X107799605Y-119850000D01*
X107440395Y-119850000D01*
X107426253Y-119835858D01*
X107605858Y-119656253D01*
X107620000Y-119670395D01*
X108540147Y-118750248D01*
X108450421Y-118490958D01*
X108169329Y-118355065D01*
X107867127Y-118276621D01*
X107555427Y-118258641D01*
X107246209Y-118301816D01*
X106951356Y-118404487D01*
X106789579Y-118490958D01*
X106699854Y-118750246D01*
X106625630Y-118676022D01*
X106619502Y-118655820D01*
X106560537Y-118545506D01*
X106481185Y-118448815D01*
X106384494Y-118369463D01*
X106274180Y-118310498D01*
X106215000Y-118292546D01*
X106215000Y-116834286D01*
X106307371Y-116696043D01*
X106411775Y-116443989D01*
X106465000Y-116176411D01*
X106465000Y-115903589D01*
X106411775Y-115636011D01*
X106307371Y-115383957D01*
X106155799Y-115157114D01*
X105962886Y-114964201D01*
X105736043Y-114812629D01*
X105483989Y-114708225D01*
X105335000Y-114678589D01*
X105335000Y-114582621D01*
X105444180Y-114549502D01*
X105450000Y-114546391D01*
X105455820Y-114549502D01*
X105575518Y-114585812D01*
X105700000Y-114598072D01*
X106064250Y-114595000D01*
X106223000Y-114436250D01*
X106223000Y-111087000D01*
X106477000Y-111087000D01*
X106477000Y-114436250D01*
X106635750Y-114595000D01*
X107000000Y-114598072D01*
X107124482Y-114585812D01*
X107244180Y-114549502D01*
X107250000Y-114546391D01*
X107255820Y-114549502D01*
X107375518Y-114585812D01*
X107500000Y-114598072D01*
X108214250Y-114595000D01*
X108373000Y-114436250D01*
X108373000Y-111087000D01*
X108627000Y-111087000D01*
X108627000Y-114436250D01*
X108785750Y-114595000D01*
X109500000Y-114598072D01*
X109624482Y-114585812D01*
X109744180Y-114549502D01*
X109854494Y-114490537D01*
X109951185Y-114411185D01*
X110030537Y-114314494D01*
X110089502Y-114204180D01*
X110125812Y-114084482D01*
X110138072Y-113960000D01*
X110135000Y-111245750D01*
X109976250Y-111087000D01*
X108627000Y-111087000D01*
X108373000Y-111087000D01*
X106477000Y-111087000D01*
X106223000Y-111087000D01*
X106203000Y-111087000D01*
X106203000Y-110833000D01*
X106223000Y-110833000D01*
X106223000Y-107483750D01*
X106477000Y-107483750D01*
X106477000Y-110833000D01*
X108373000Y-110833000D01*
X108373000Y-107483750D01*
X108627000Y-107483750D01*
X108627000Y-110833000D01*
X109976250Y-110833000D01*
X110135000Y-110674250D01*
X110138072Y-107960000D01*
X110125812Y-107835518D01*
X110089502Y-107715820D01*
X110030537Y-107605506D01*
X109951185Y-107508815D01*
X109854494Y-107429463D01*
X109744180Y-107370498D01*
X109624482Y-107334188D01*
X109500000Y-107321928D01*
X108785750Y-107325000D01*
X108627000Y-107483750D01*
X108373000Y-107483750D01*
X108214250Y-107325000D01*
X107500000Y-107321928D01*
X107375518Y-107334188D01*
X107255820Y-107370498D01*
X107250000Y-107373609D01*
X107244180Y-107370498D01*
X107124482Y-107334188D01*
X107000000Y-107321928D01*
X106635750Y-107325000D01*
X106477000Y-107483750D01*
X106223000Y-107483750D01*
X106064250Y-107325000D01*
X105700000Y-107321928D01*
X105575518Y-107334188D01*
X105455820Y-107370498D01*
X105450000Y-107373609D01*
X105444180Y-107370498D01*
X105335000Y-107337379D01*
X105335000Y-105971411D01*
X105483989Y-105941775D01*
X105736043Y-105837371D01*
X105962886Y-105685799D01*
X106155799Y-105492886D01*
X106307371Y-105266043D01*
X106411775Y-105013989D01*
X106465000Y-104746411D01*
X106465000Y-104473589D01*
X106411775Y-104206011D01*
X106307371Y-103953957D01*
X106215000Y-103815714D01*
X106215000Y-102357454D01*
X106274180Y-102339502D01*
X106384494Y-102280537D01*
X106481185Y-102201185D01*
X106560537Y-102104494D01*
X106619502Y-101994180D01*
X106625630Y-101973978D01*
X106699854Y-101899754D01*
X106789579Y-102159042D01*
X107070671Y-102294935D01*
X107372873Y-102373379D01*
X107684573Y-102391359D01*
X107993791Y-102348184D01*
X108288644Y-102245513D01*
X108450421Y-102159042D01*
X108540147Y-101899752D01*
X107620000Y-100979605D01*
X107605858Y-100993748D01*
X107426253Y-100814143D01*
X107440395Y-100800000D01*
X107799605Y-100800000D01*
X108719752Y-101720147D01*
X108979042Y-101630421D01*
X109114935Y-101349329D01*
X109193379Y-101047127D01*
X109211359Y-100735427D01*
X109168184Y-100426209D01*
X109065513Y-100131356D01*
X108979042Y-99969579D01*
X108719752Y-99879853D01*
X107799605Y-100800000D01*
X107440395Y-100800000D01*
X107426253Y-100785858D01*
X107605858Y-100606253D01*
X107620000Y-100620395D01*
X108540147Y-99700248D01*
X108450421Y-99440958D01*
X108169329Y-99305065D01*
X107867127Y-99226621D01*
X107555427Y-99208641D01*
X107246209Y-99251816D01*
X106951356Y-99354487D01*
X106789579Y-99440958D01*
X106699854Y-99700246D01*
X106625630Y-99626022D01*
X106619502Y-99605820D01*
X106560537Y-99495506D01*
X106481185Y-99398815D01*
X106384494Y-99319463D01*
X106274180Y-99260498D01*
X106154482Y-99224188D01*
X106030000Y-99211928D01*
X104130000Y-99211928D01*
X104005518Y-99224188D01*
X103885820Y-99260498D01*
X103775506Y-99319463D01*
X103678815Y-99398815D01*
X103599463Y-99495506D01*
X103540498Y-99605820D01*
X103504188Y-99725518D01*
X103491928Y-99850000D01*
X103491928Y-101750000D01*
X103504188Y-101874482D01*
X103540498Y-101994180D01*
X103599463Y-102104494D01*
X103678815Y-102201185D01*
X103775506Y-102280537D01*
X103885820Y-102339502D01*
X103945000Y-102357454D01*
X103945001Y-103815713D01*
X103852629Y-103953957D01*
X103748225Y-104206011D01*
X103715788Y-104369080D01*
X103436860Y-104648009D01*
X103393552Y-104683551D01*
X103251717Y-104856377D01*
X103195384Y-104961770D01*
X103146324Y-105053554D01*
X103081423Y-105267502D01*
X103059509Y-105490000D01*
X103065001Y-105545761D01*
X103065001Y-107337378D01*
X102955820Y-107370498D01*
X102845506Y-107429463D01*
X102748815Y-107508815D01*
X102669463Y-107605506D01*
X102610498Y-107715820D01*
X102574188Y-107835518D01*
X102561928Y-107960000D01*
X100710000Y-107960000D01*
X100710000Y-99022000D01*
X111990001Y-99022000D01*
X111990001Y-121628000D01*
X111990001Y-121628000D01*
G37*
X111990001Y-121628000D02*
X100710000Y-121628000D01*
X100710000Y-107960000D01*
X102561928Y-107960000D01*
X102561928Y-113960000D01*
X102574188Y-114084482D01*
X102610498Y-114204180D01*
X102669463Y-114314494D01*
X102748815Y-114411185D01*
X102845506Y-114490537D01*
X102955820Y-114549502D01*
X103065000Y-114582621D01*
X103065000Y-115104248D01*
X103059509Y-115160000D01*
X103065000Y-115215751D01*
X103081423Y-115382498D01*
X103146324Y-115596446D01*
X103251716Y-115793623D01*
X103393551Y-115966449D01*
X103436864Y-116001995D01*
X103715788Y-116280920D01*
X103748225Y-116443989D01*
X103852629Y-116696043D01*
X103945001Y-116834287D01*
X103945000Y-118292546D01*
X103885820Y-118310498D01*
X103775506Y-118369463D01*
X103678815Y-118448815D01*
X103599463Y-118545506D01*
X103540498Y-118655820D01*
X103504188Y-118775518D01*
X103491928Y-118900000D01*
X103491928Y-120800000D01*
X103504188Y-120924482D01*
X103540498Y-121044180D01*
X103599463Y-121154494D01*
X103678815Y-121251185D01*
X103775506Y-121330537D01*
X103885820Y-121389502D01*
X104005518Y-121425812D01*
X104130000Y-121438072D01*
X106030000Y-121438072D01*
X106154482Y-121425812D01*
X106274180Y-121389502D01*
X106384494Y-121330537D01*
X106481185Y-121251185D01*
X106560537Y-121154494D01*
X106619502Y-121044180D01*
X106625630Y-121023978D01*
X106699854Y-120949754D01*
X106789579Y-121209042D01*
X107070671Y-121344935D01*
X107372873Y-121423379D01*
X107684573Y-121441359D01*
X107993791Y-121398184D01*
X108288644Y-121295513D01*
X108450421Y-121209042D01*
X108540147Y-120949752D01*
X107620000Y-120029605D01*
X107605858Y-120043748D01*
X107426253Y-119864143D01*
X107440395Y-119850000D01*
X107799605Y-119850000D01*
X108719752Y-120770147D01*
X108979042Y-120680421D01*
X109114935Y-120399329D01*
X109193379Y-120097127D01*
X109211359Y-119785427D01*
X109168184Y-119476209D01*
X109065513Y-119181356D01*
X108979042Y-119019579D01*
X108719752Y-118929853D01*
X107799605Y-119850000D01*
X107440395Y-119850000D01*
X107426253Y-119835858D01*
X107605858Y-119656253D01*
X107620000Y-119670395D01*
X108540147Y-118750248D01*
X108450421Y-118490958D01*
X108169329Y-118355065D01*
X107867127Y-118276621D01*
X107555427Y-118258641D01*
X107246209Y-118301816D01*
X106951356Y-118404487D01*
X106789579Y-118490958D01*
X106699854Y-118750246D01*
X106625630Y-118676022D01*
X106619502Y-118655820D01*
X106560537Y-118545506D01*
X106481185Y-118448815D01*
X106384494Y-118369463D01*
X106274180Y-118310498D01*
X106215000Y-118292546D01*
X106215000Y-116834286D01*
X106307371Y-116696043D01*
X106411775Y-116443989D01*
X106465000Y-116176411D01*
X106465000Y-115903589D01*
X106411775Y-115636011D01*
X106307371Y-115383957D01*
X106155799Y-115157114D01*
X105962886Y-114964201D01*
X105736043Y-114812629D01*
X105483989Y-114708225D01*
X105335000Y-114678589D01*
X105335000Y-114582621D01*
X105444180Y-114549502D01*
X105450000Y-114546391D01*
X105455820Y-114549502D01*
X105575518Y-114585812D01*
X105700000Y-114598072D01*
X106064250Y-114595000D01*
X106223000Y-114436250D01*
X106223000Y-111087000D01*
X106477000Y-111087000D01*
X106477000Y-114436250D01*
X106635750Y-114595000D01*
X107000000Y-114598072D01*
X107124482Y-114585812D01*
X107244180Y-114549502D01*
X107250000Y-114546391D01*
X107255820Y-114549502D01*
X107375518Y-114585812D01*
X107500000Y-114598072D01*
X108214250Y-114595000D01*
X108373000Y-114436250D01*
X108373000Y-111087000D01*
X108627000Y-111087000D01*
X108627000Y-114436250D01*
X108785750Y-114595000D01*
X109500000Y-114598072D01*
X109624482Y-114585812D01*
X109744180Y-114549502D01*
X109854494Y-114490537D01*
X109951185Y-114411185D01*
X110030537Y-114314494D01*
X110089502Y-114204180D01*
X110125812Y-114084482D01*
X110138072Y-113960000D01*
X110135000Y-111245750D01*
X109976250Y-111087000D01*
X108627000Y-111087000D01*
X108373000Y-111087000D01*
X106477000Y-111087000D01*
X106223000Y-111087000D01*
X106203000Y-111087000D01*
X106203000Y-110833000D01*
X106223000Y-110833000D01*
X106223000Y-107483750D01*
X106477000Y-107483750D01*
X106477000Y-110833000D01*
X108373000Y-110833000D01*
X108373000Y-107483750D01*
X108627000Y-107483750D01*
X108627000Y-110833000D01*
X109976250Y-110833000D01*
X110135000Y-110674250D01*
X110138072Y-107960000D01*
X110125812Y-107835518D01*
X110089502Y-107715820D01*
X110030537Y-107605506D01*
X109951185Y-107508815D01*
X109854494Y-107429463D01*
X109744180Y-107370498D01*
X109624482Y-107334188D01*
X109500000Y-107321928D01*
X108785750Y-107325000D01*
X108627000Y-107483750D01*
X108373000Y-107483750D01*
X108214250Y-107325000D01*
X107500000Y-107321928D01*
X107375518Y-107334188D01*
X107255820Y-107370498D01*
X107250000Y-107373609D01*
X107244180Y-107370498D01*
X107124482Y-107334188D01*
X107000000Y-107321928D01*
X106635750Y-107325000D01*
X106477000Y-107483750D01*
X106223000Y-107483750D01*
X106064250Y-107325000D01*
X105700000Y-107321928D01*
X105575518Y-107334188D01*
X105455820Y-107370498D01*
X105450000Y-107373609D01*
X105444180Y-107370498D01*
X105335000Y-107337379D01*
X105335000Y-105971411D01*
X105483989Y-105941775D01*
X105736043Y-105837371D01*
X105962886Y-105685799D01*
X106155799Y-105492886D01*
X106307371Y-105266043D01*
X106411775Y-105013989D01*
X106465000Y-104746411D01*
X106465000Y-104473589D01*
X106411775Y-104206011D01*
X106307371Y-103953957D01*
X106215000Y-103815714D01*
X106215000Y-102357454D01*
X106274180Y-102339502D01*
X106384494Y-102280537D01*
X106481185Y-102201185D01*
X106560537Y-102104494D01*
X106619502Y-101994180D01*
X106625630Y-101973978D01*
X106699854Y-101899754D01*
X106789579Y-102159042D01*
X107070671Y-102294935D01*
X107372873Y-102373379D01*
X107684573Y-102391359D01*
X107993791Y-102348184D01*
X108288644Y-102245513D01*
X108450421Y-102159042D01*
X108540147Y-101899752D01*
X107620000Y-100979605D01*
X107605858Y-100993748D01*
X107426253Y-100814143D01*
X107440395Y-100800000D01*
X107799605Y-100800000D01*
X108719752Y-101720147D01*
X108979042Y-101630421D01*
X109114935Y-101349329D01*
X109193379Y-101047127D01*
X109211359Y-100735427D01*
X109168184Y-100426209D01*
X109065513Y-100131356D01*
X108979042Y-99969579D01*
X108719752Y-99879853D01*
X107799605Y-100800000D01*
X107440395Y-100800000D01*
X107426253Y-100785858D01*
X107605858Y-100606253D01*
X107620000Y-100620395D01*
X108540147Y-99700248D01*
X108450421Y-99440958D01*
X108169329Y-99305065D01*
X107867127Y-99226621D01*
X107555427Y-99208641D01*
X107246209Y-99251816D01*
X106951356Y-99354487D01*
X106789579Y-99440958D01*
X106699854Y-99700246D01*
X106625630Y-99626022D01*
X106619502Y-99605820D01*
X106560537Y-99495506D01*
X106481185Y-99398815D01*
X106384494Y-99319463D01*
X106274180Y-99260498D01*
X106154482Y-99224188D01*
X106030000Y-99211928D01*
X104130000Y-99211928D01*
X104005518Y-99224188D01*
X103885820Y-99260498D01*
X103775506Y-99319463D01*
X103678815Y-99398815D01*
X103599463Y-99495506D01*
X103540498Y-99605820D01*
X103504188Y-99725518D01*
X103491928Y-99850000D01*
X103491928Y-101750000D01*
X103504188Y-101874482D01*
X103540498Y-101994180D01*
X103599463Y-102104494D01*
X103678815Y-102201185D01*
X103775506Y-102280537D01*
X103885820Y-102339502D01*
X103945000Y-102357454D01*
X103945001Y-103815713D01*
X103852629Y-103953957D01*
X103748225Y-104206011D01*
X103715788Y-104369080D01*
X103436860Y-104648009D01*
X103393552Y-104683551D01*
X103251717Y-104856377D01*
X103195384Y-104961770D01*
X103146324Y-105053554D01*
X103081423Y-105267502D01*
X103059509Y-105490000D01*
X103065001Y-105545761D01*
X103065001Y-107337378D01*
X102955820Y-107370498D01*
X102845506Y-107429463D01*
X102748815Y-107508815D01*
X102669463Y-107605506D01*
X102610498Y-107715820D01*
X102574188Y-107835518D01*
X102561928Y-107960000D01*
X100710000Y-107960000D01*
X100710000Y-99022000D01*
X111990001Y-99022000D01*
X111990001Y-121628000D01*
G36*
X111990001Y-145810000D02*
G01*
X100710000Y-145810000D01*
X100710000Y-132090000D01*
X102561928Y-132090000D01*
X102561928Y-138090000D01*
X102574188Y-138214482D01*
X102610498Y-138334180D01*
X102669463Y-138444494D01*
X102748815Y-138541185D01*
X102845506Y-138620537D01*
X102955820Y-138679502D01*
X103065001Y-138712622D01*
X103065001Y-140504239D01*
X103059509Y-140560000D01*
X103081423Y-140782498D01*
X103146324Y-140996446D01*
X103146325Y-140996447D01*
X103251717Y-141193623D01*
X103393552Y-141366449D01*
X103436860Y-141401991D01*
X103715788Y-141680920D01*
X103748225Y-141843989D01*
X103852629Y-142096043D01*
X103945001Y-142234287D01*
X103945001Y-142422546D01*
X103885820Y-142440498D01*
X103775506Y-142499463D01*
X103678815Y-142578815D01*
X103599463Y-142675506D01*
X103540498Y-142785820D01*
X103504188Y-142905518D01*
X103491928Y-143030000D01*
X103491928Y-144930000D01*
X103504188Y-145054482D01*
X103540498Y-145174180D01*
X103599463Y-145284494D01*
X103678815Y-145381185D01*
X103775506Y-145460537D01*
X103885820Y-145519502D01*
X104005518Y-145555812D01*
X104130000Y-145568072D01*
X106030000Y-145568072D01*
X106154482Y-145555812D01*
X106274180Y-145519502D01*
X106384494Y-145460537D01*
X106481185Y-145381185D01*
X106560537Y-145284494D01*
X106619502Y-145174180D01*
X106625630Y-145153978D01*
X106699854Y-145079754D01*
X106789579Y-145339042D01*
X107070671Y-145474935D01*
X107372873Y-145553379D01*
X107684573Y-145571359D01*
X107993791Y-145528184D01*
X108288644Y-145425513D01*
X108450421Y-145339042D01*
X108540147Y-145079752D01*
X107620000Y-144159605D01*
X107605858Y-144173748D01*
X107426253Y-143994143D01*
X107440395Y-143980000D01*
X107799605Y-143980000D01*
X108719752Y-144900147D01*
X108979042Y-144810421D01*
X109114935Y-144529329D01*
X109193379Y-144227127D01*
X109211359Y-143915427D01*
X109168184Y-143606209D01*
X109065513Y-143311356D01*
X108979042Y-143149579D01*
X108719752Y-143059853D01*
X107799605Y-143980000D01*
X107440395Y-143980000D01*
X107426253Y-143965858D01*
X107605858Y-143786253D01*
X107620000Y-143800395D01*
X108540147Y-142880248D01*
X108450421Y-142620958D01*
X108169329Y-142485065D01*
X107867127Y-142406621D01*
X107555427Y-142388641D01*
X107246209Y-142431816D01*
X106951356Y-142534487D01*
X106789579Y-142620958D01*
X106699854Y-142880246D01*
X106625630Y-142806022D01*
X106619502Y-142785820D01*
X106560537Y-142675506D01*
X106481185Y-142578815D01*
X106384494Y-142499463D01*
X106274180Y-142440498D01*
X106215000Y-142422546D01*
X106215000Y-142234286D01*
X106307371Y-142096043D01*
X106411775Y-141843989D01*
X106465000Y-141576411D01*
X106465000Y-141303589D01*
X106411775Y-141036011D01*
X106307371Y-140783957D01*
X106155799Y-140557114D01*
X105962886Y-140364201D01*
X105736043Y-140212629D01*
X105483989Y-140108225D01*
X105335000Y-140078589D01*
X105335000Y-138712621D01*
X105444180Y-138679502D01*
X105450000Y-138676391D01*
X105455820Y-138679502D01*
X105575518Y-138715812D01*
X105700000Y-138728072D01*
X106064250Y-138725000D01*
X106223000Y-138566250D01*
X106223000Y-135217000D01*
X106477000Y-135217000D01*
X106477000Y-138566250D01*
X106635750Y-138725000D01*
X107000000Y-138728072D01*
X107124482Y-138715812D01*
X107244180Y-138679502D01*
X107250000Y-138676391D01*
X107255820Y-138679502D01*
X107375518Y-138715812D01*
X107500000Y-138728072D01*
X108214250Y-138725000D01*
X108373000Y-138566250D01*
X108373000Y-135217000D01*
X108627000Y-135217000D01*
X108627000Y-138566250D01*
X108785750Y-138725000D01*
X109500000Y-138728072D01*
X109624482Y-138715812D01*
X109744180Y-138679502D01*
X109854494Y-138620537D01*
X109951185Y-138541185D01*
X110030537Y-138444494D01*
X110089502Y-138334180D01*
X110125812Y-138214482D01*
X110138072Y-138090000D01*
X110135000Y-135375750D01*
X109976250Y-135217000D01*
X108627000Y-135217000D01*
X108373000Y-135217000D01*
X106477000Y-135217000D01*
X106223000Y-135217000D01*
X106203000Y-135217000D01*
X106203000Y-134963000D01*
X106223000Y-134963000D01*
X106223000Y-131613750D01*
X106477000Y-131613750D01*
X106477000Y-134963000D01*
X108373000Y-134963000D01*
X108373000Y-131613750D01*
X108627000Y-131613750D01*
X108627000Y-134963000D01*
X109976250Y-134963000D01*
X110135000Y-134804250D01*
X110138072Y-132090000D01*
X110125812Y-131965518D01*
X110089502Y-131845820D01*
X110030537Y-131735506D01*
X109951185Y-131638815D01*
X109854494Y-131559463D01*
X109744180Y-131500498D01*
X109624482Y-131464188D01*
X109500000Y-131451928D01*
X108785750Y-131455000D01*
X108627000Y-131613750D01*
X108373000Y-131613750D01*
X108214250Y-131455000D01*
X107500000Y-131451928D01*
X107375518Y-131464188D01*
X107255820Y-131500498D01*
X107250000Y-131503609D01*
X107244180Y-131500498D01*
X107124482Y-131464188D01*
X107000000Y-131451928D01*
X106635750Y-131455000D01*
X106477000Y-131613750D01*
X106223000Y-131613750D01*
X106064250Y-131455000D01*
X105700000Y-131451928D01*
X105575518Y-131464188D01*
X105455820Y-131500498D01*
X105450000Y-131503609D01*
X105444180Y-131500498D01*
X105335000Y-131467379D01*
X105335000Y-130101411D01*
X105483989Y-130071775D01*
X105736043Y-129967371D01*
X105962886Y-129815799D01*
X106155799Y-129622886D01*
X106307371Y-129396043D01*
X106411775Y-129143989D01*
X106465000Y-128876411D01*
X106465000Y-128603589D01*
X106411775Y-128336011D01*
X106307371Y-128083957D01*
X106215000Y-127945714D01*
X106215000Y-127757454D01*
X106274180Y-127739502D01*
X106384494Y-127680537D01*
X106481185Y-127601185D01*
X106560537Y-127504494D01*
X106619502Y-127394180D01*
X106625630Y-127373978D01*
X106699854Y-127299754D01*
X106789579Y-127559042D01*
X107070671Y-127694935D01*
X107372873Y-127773379D01*
X107684573Y-127791359D01*
X107993791Y-127748184D01*
X108288644Y-127645513D01*
X108450421Y-127559042D01*
X108540147Y-127299752D01*
X107620000Y-126379605D01*
X107605858Y-126393748D01*
X107426253Y-126214143D01*
X107440395Y-126200000D01*
X107799605Y-126200000D01*
X108719752Y-127120147D01*
X108979042Y-127030421D01*
X109114935Y-126749329D01*
X109193379Y-126447127D01*
X109211359Y-126135427D01*
X109168184Y-125826209D01*
X109065513Y-125531356D01*
X108979042Y-125369579D01*
X108719752Y-125279853D01*
X107799605Y-126200000D01*
X107440395Y-126200000D01*
X107426253Y-126185858D01*
X107605858Y-126006253D01*
X107620000Y-126020395D01*
X108540147Y-125100248D01*
X108450421Y-124840958D01*
X108169329Y-124705065D01*
X107867127Y-124626621D01*
X107555427Y-124608641D01*
X107246209Y-124651816D01*
X106951356Y-124754487D01*
X106789579Y-124840958D01*
X106699854Y-125100246D01*
X106625630Y-125026022D01*
X106619502Y-125005820D01*
X106560537Y-124895506D01*
X106481185Y-124798815D01*
X106384494Y-124719463D01*
X106274180Y-124660498D01*
X106154482Y-124624188D01*
X106030000Y-124611928D01*
X104130000Y-124611928D01*
X104005518Y-124624188D01*
X103885820Y-124660498D01*
X103775506Y-124719463D01*
X103678815Y-124798815D01*
X103599463Y-124895506D01*
X103540498Y-125005820D01*
X103504188Y-125125518D01*
X103491928Y-125250000D01*
X103491928Y-127150000D01*
X103504188Y-127274482D01*
X103540498Y-127394180D01*
X103599463Y-127504494D01*
X103678815Y-127601185D01*
X103775506Y-127680537D01*
X103885820Y-127739502D01*
X103945001Y-127757454D01*
X103945001Y-127945713D01*
X103852629Y-128083957D01*
X103748225Y-128336011D01*
X103715788Y-128499080D01*
X103436860Y-128778009D01*
X103393552Y-128813551D01*
X103251717Y-128986377D01*
X103195384Y-129091770D01*
X103146324Y-129183554D01*
X103081423Y-129397502D01*
X103059509Y-129620000D01*
X103065001Y-129675761D01*
X103065001Y-131467378D01*
X102955820Y-131500498D01*
X102845506Y-131559463D01*
X102748815Y-131638815D01*
X102669463Y-131735506D01*
X102610498Y-131845820D01*
X102574188Y-131965518D01*
X102561928Y-132090000D01*
X100710000Y-132090000D01*
X100710000Y-124422000D01*
X111990001Y-124422000D01*
X111990001Y-145810000D01*
X111990001Y-145810000D01*
G37*
X111990001Y-145810000D02*
X100710000Y-145810000D01*
X100710000Y-132090000D01*
X102561928Y-132090000D01*
X102561928Y-138090000D01*
X102574188Y-138214482D01*
X102610498Y-138334180D01*
X102669463Y-138444494D01*
X102748815Y-138541185D01*
X102845506Y-138620537D01*
X102955820Y-138679502D01*
X103065001Y-138712622D01*
X103065001Y-140504239D01*
X103059509Y-140560000D01*
X103081423Y-140782498D01*
X103146324Y-140996446D01*
X103146325Y-140996447D01*
X103251717Y-141193623D01*
X103393552Y-141366449D01*
X103436860Y-141401991D01*
X103715788Y-141680920D01*
X103748225Y-141843989D01*
X103852629Y-142096043D01*
X103945001Y-142234287D01*
X103945001Y-142422546D01*
X103885820Y-142440498D01*
X103775506Y-142499463D01*
X103678815Y-142578815D01*
X103599463Y-142675506D01*
X103540498Y-142785820D01*
X103504188Y-142905518D01*
X103491928Y-143030000D01*
X103491928Y-144930000D01*
X103504188Y-145054482D01*
X103540498Y-145174180D01*
X103599463Y-145284494D01*
X103678815Y-145381185D01*
X103775506Y-145460537D01*
X103885820Y-145519502D01*
X104005518Y-145555812D01*
X104130000Y-145568072D01*
X106030000Y-145568072D01*
X106154482Y-145555812D01*
X106274180Y-145519502D01*
X106384494Y-145460537D01*
X106481185Y-145381185D01*
X106560537Y-145284494D01*
X106619502Y-145174180D01*
X106625630Y-145153978D01*
X106699854Y-145079754D01*
X106789579Y-145339042D01*
X107070671Y-145474935D01*
X107372873Y-145553379D01*
X107684573Y-145571359D01*
X107993791Y-145528184D01*
X108288644Y-145425513D01*
X108450421Y-145339042D01*
X108540147Y-145079752D01*
X107620000Y-144159605D01*
X107605858Y-144173748D01*
X107426253Y-143994143D01*
X107440395Y-143980000D01*
X107799605Y-143980000D01*
X108719752Y-144900147D01*
X108979042Y-144810421D01*
X109114935Y-144529329D01*
X109193379Y-144227127D01*
X109211359Y-143915427D01*
X109168184Y-143606209D01*
X109065513Y-143311356D01*
X108979042Y-143149579D01*
X108719752Y-143059853D01*
X107799605Y-143980000D01*
X107440395Y-143980000D01*
X107426253Y-143965858D01*
X107605858Y-143786253D01*
X107620000Y-143800395D01*
X108540147Y-142880248D01*
X108450421Y-142620958D01*
X108169329Y-142485065D01*
X107867127Y-142406621D01*
X107555427Y-142388641D01*
X107246209Y-142431816D01*
X106951356Y-142534487D01*
X106789579Y-142620958D01*
X106699854Y-142880246D01*
X106625630Y-142806022D01*
X106619502Y-142785820D01*
X106560537Y-142675506D01*
X106481185Y-142578815D01*
X106384494Y-142499463D01*
X106274180Y-142440498D01*
X106215000Y-142422546D01*
X106215000Y-142234286D01*
X106307371Y-142096043D01*
X106411775Y-141843989D01*
X106465000Y-141576411D01*
X106465000Y-141303589D01*
X106411775Y-141036011D01*
X106307371Y-140783957D01*
X106155799Y-140557114D01*
X105962886Y-140364201D01*
X105736043Y-140212629D01*
X105483989Y-140108225D01*
X105335000Y-140078589D01*
X105335000Y-138712621D01*
X105444180Y-138679502D01*
X105450000Y-138676391D01*
X105455820Y-138679502D01*
X105575518Y-138715812D01*
X105700000Y-138728072D01*
X106064250Y-138725000D01*
X106223000Y-138566250D01*
X106223000Y-135217000D01*
X106477000Y-135217000D01*
X106477000Y-138566250D01*
X106635750Y-138725000D01*
X107000000Y-138728072D01*
X107124482Y-138715812D01*
X107244180Y-138679502D01*
X107250000Y-138676391D01*
X107255820Y-138679502D01*
X107375518Y-138715812D01*
X107500000Y-138728072D01*
X108214250Y-138725000D01*
X108373000Y-138566250D01*
X108373000Y-135217000D01*
X108627000Y-135217000D01*
X108627000Y-138566250D01*
X108785750Y-138725000D01*
X109500000Y-138728072D01*
X109624482Y-138715812D01*
X109744180Y-138679502D01*
X109854494Y-138620537D01*
X109951185Y-138541185D01*
X110030537Y-138444494D01*
X110089502Y-138334180D01*
X110125812Y-138214482D01*
X110138072Y-138090000D01*
X110135000Y-135375750D01*
X109976250Y-135217000D01*
X108627000Y-135217000D01*
X108373000Y-135217000D01*
X106477000Y-135217000D01*
X106223000Y-135217000D01*
X106203000Y-135217000D01*
X106203000Y-134963000D01*
X106223000Y-134963000D01*
X106223000Y-131613750D01*
X106477000Y-131613750D01*
X106477000Y-134963000D01*
X108373000Y-134963000D01*
X108373000Y-131613750D01*
X108627000Y-131613750D01*
X108627000Y-134963000D01*
X109976250Y-134963000D01*
X110135000Y-134804250D01*
X110138072Y-132090000D01*
X110125812Y-131965518D01*
X110089502Y-131845820D01*
X110030537Y-131735506D01*
X109951185Y-131638815D01*
X109854494Y-131559463D01*
X109744180Y-131500498D01*
X109624482Y-131464188D01*
X109500000Y-131451928D01*
X108785750Y-131455000D01*
X108627000Y-131613750D01*
X108373000Y-131613750D01*
X108214250Y-131455000D01*
X107500000Y-131451928D01*
X107375518Y-131464188D01*
X107255820Y-131500498D01*
X107250000Y-131503609D01*
X107244180Y-131500498D01*
X107124482Y-131464188D01*
X107000000Y-131451928D01*
X106635750Y-131455000D01*
X106477000Y-131613750D01*
X106223000Y-131613750D01*
X106064250Y-131455000D01*
X105700000Y-131451928D01*
X105575518Y-131464188D01*
X105455820Y-131500498D01*
X105450000Y-131503609D01*
X105444180Y-131500498D01*
X105335000Y-131467379D01*
X105335000Y-130101411D01*
X105483989Y-130071775D01*
X105736043Y-129967371D01*
X105962886Y-129815799D01*
X106155799Y-129622886D01*
X106307371Y-129396043D01*
X106411775Y-129143989D01*
X106465000Y-128876411D01*
X106465000Y-128603589D01*
X106411775Y-128336011D01*
X106307371Y-128083957D01*
X106215000Y-127945714D01*
X106215000Y-127757454D01*
X106274180Y-127739502D01*
X106384494Y-127680537D01*
X106481185Y-127601185D01*
X106560537Y-127504494D01*
X106619502Y-127394180D01*
X106625630Y-127373978D01*
X106699854Y-127299754D01*
X106789579Y-127559042D01*
X107070671Y-127694935D01*
X107372873Y-127773379D01*
X107684573Y-127791359D01*
X107993791Y-127748184D01*
X108288644Y-127645513D01*
X108450421Y-127559042D01*
X108540147Y-127299752D01*
X107620000Y-126379605D01*
X107605858Y-126393748D01*
X107426253Y-126214143D01*
X107440395Y-126200000D01*
X107799605Y-126200000D01*
X108719752Y-127120147D01*
X108979042Y-127030421D01*
X109114935Y-126749329D01*
X109193379Y-126447127D01*
X109211359Y-126135427D01*
X109168184Y-125826209D01*
X109065513Y-125531356D01*
X108979042Y-125369579D01*
X108719752Y-125279853D01*
X107799605Y-126200000D01*
X107440395Y-126200000D01*
X107426253Y-126185858D01*
X107605858Y-126006253D01*
X107620000Y-126020395D01*
X108540147Y-125100248D01*
X108450421Y-124840958D01*
X108169329Y-124705065D01*
X107867127Y-124626621D01*
X107555427Y-124608641D01*
X107246209Y-124651816D01*
X106951356Y-124754487D01*
X106789579Y-124840958D01*
X106699854Y-125100246D01*
X106625630Y-125026022D01*
X106619502Y-125005820D01*
X106560537Y-124895506D01*
X106481185Y-124798815D01*
X106384494Y-124719463D01*
X106274180Y-124660498D01*
X106154482Y-124624188D01*
X106030000Y-124611928D01*
X104130000Y-124611928D01*
X104005518Y-124624188D01*
X103885820Y-124660498D01*
X103775506Y-124719463D01*
X103678815Y-124798815D01*
X103599463Y-124895506D01*
X103540498Y-125005820D01*
X103504188Y-125125518D01*
X103491928Y-125250000D01*
X103491928Y-127150000D01*
X103504188Y-127274482D01*
X103540498Y-127394180D01*
X103599463Y-127504494D01*
X103678815Y-127601185D01*
X103775506Y-127680537D01*
X103885820Y-127739502D01*
X103945001Y-127757454D01*
X103945001Y-127945713D01*
X103852629Y-128083957D01*
X103748225Y-128336011D01*
X103715788Y-128499080D01*
X103436860Y-128778009D01*
X103393552Y-128813551D01*
X103251717Y-128986377D01*
X103195384Y-129091770D01*
X103146324Y-129183554D01*
X103081423Y-129397502D01*
X103059509Y-129620000D01*
X103065001Y-129675761D01*
X103065001Y-131467378D01*
X102955820Y-131500498D01*
X102845506Y-131559463D01*
X102748815Y-131638815D01*
X102669463Y-131735506D01*
X102610498Y-131845820D01*
X102574188Y-131965518D01*
X102561928Y-132090000D01*
X100710000Y-132090000D01*
X100710000Y-124422000D01*
X111990001Y-124422000D01*
X111990001Y-145810000D01*
G36*
X103748225Y-128336011D02*
G01*
X103715788Y-128499080D01*
X103436860Y-128778009D01*
X103393552Y-128813551D01*
X103251717Y-128986377D01*
X103195384Y-129091770D01*
X103146324Y-129183554D01*
X103081423Y-129397502D01*
X103059509Y-129620000D01*
X103065001Y-129675761D01*
X103065001Y-131467378D01*
X102955820Y-131500498D01*
X102845506Y-131559463D01*
X102748815Y-131638815D01*
X102669463Y-131735506D01*
X102610498Y-131845820D01*
X102574188Y-131965518D01*
X102561928Y-132090000D01*
X102561928Y-138090000D01*
X102574188Y-138214482D01*
X102610498Y-138334180D01*
X102669463Y-138444494D01*
X102748815Y-138541185D01*
X102845506Y-138620537D01*
X102955820Y-138679502D01*
X103065001Y-138712622D01*
X103065001Y-140504239D01*
X103059509Y-140560000D01*
X103081423Y-140782498D01*
X103146324Y-140996446D01*
X103146325Y-140996447D01*
X103251717Y-141193623D01*
X103393552Y-141366449D01*
X103436860Y-141401991D01*
X103715788Y-141680920D01*
X103748225Y-141843989D01*
X103791308Y-141948000D01*
X100710000Y-141948000D01*
X100710000Y-128232000D01*
X103791308Y-128232000D01*
X103748225Y-128336011D01*
X103748225Y-128336011D01*
G37*
X103748225Y-128336011D02*
X103715788Y-128499080D01*
X103436860Y-128778009D01*
X103393552Y-128813551D01*
X103251717Y-128986377D01*
X103195384Y-129091770D01*
X103146324Y-129183554D01*
X103081423Y-129397502D01*
X103059509Y-129620000D01*
X103065001Y-129675761D01*
X103065001Y-131467378D01*
X102955820Y-131500498D01*
X102845506Y-131559463D01*
X102748815Y-131638815D01*
X102669463Y-131735506D01*
X102610498Y-131845820D01*
X102574188Y-131965518D01*
X102561928Y-132090000D01*
X102561928Y-138090000D01*
X102574188Y-138214482D01*
X102610498Y-138334180D01*
X102669463Y-138444494D01*
X102748815Y-138541185D01*
X102845506Y-138620537D01*
X102955820Y-138679502D01*
X103065001Y-138712622D01*
X103065001Y-140504239D01*
X103059509Y-140560000D01*
X103081423Y-140782498D01*
X103146324Y-140996446D01*
X103146325Y-140996447D01*
X103251717Y-141193623D01*
X103393552Y-141366449D01*
X103436860Y-141401991D01*
X103715788Y-141680920D01*
X103748225Y-141843989D01*
X103791308Y-141948000D01*
X100710000Y-141948000D01*
X100710000Y-128232000D01*
X103791308Y-128232000D01*
X103748225Y-128336011D01*
G36*
X111990001Y-141948000D02*
G01*
X106368692Y-141948000D01*
X106411775Y-141843989D01*
X106465000Y-141576411D01*
X106465000Y-141303589D01*
X106411775Y-141036011D01*
X106307371Y-140783957D01*
X106155799Y-140557114D01*
X105962886Y-140364201D01*
X105736043Y-140212629D01*
X105483989Y-140108225D01*
X105335000Y-140078589D01*
X105335000Y-138712621D01*
X105444180Y-138679502D01*
X105554494Y-138620537D01*
X105651185Y-138541185D01*
X105730537Y-138444494D01*
X105789502Y-138334180D01*
X105824909Y-138217458D01*
X106191250Y-138217000D01*
X106223000Y-138185250D01*
X106223000Y-135217000D01*
X106477000Y-135217000D01*
X106477000Y-138185250D01*
X106508750Y-138217000D01*
X107000000Y-138217614D01*
X107024896Y-138215162D01*
X107048836Y-138207900D01*
X107070899Y-138196107D01*
X107090237Y-138180237D01*
X107106107Y-138160899D01*
X107117900Y-138138836D01*
X107125162Y-138114896D01*
X107127614Y-138090000D01*
X107372386Y-138090000D01*
X107374838Y-138114896D01*
X107382100Y-138138836D01*
X107393893Y-138160899D01*
X107409763Y-138180237D01*
X107429101Y-138196107D01*
X107451164Y-138207900D01*
X107475104Y-138215162D01*
X107500000Y-138217614D01*
X108341250Y-138217000D01*
X108373000Y-138185250D01*
X108373000Y-135217000D01*
X108627000Y-135217000D01*
X108627000Y-138185250D01*
X108658750Y-138217000D01*
X109500000Y-138217614D01*
X109524896Y-138215162D01*
X109548836Y-138207900D01*
X109570899Y-138196107D01*
X109590237Y-138180237D01*
X109606107Y-138160899D01*
X109617900Y-138138836D01*
X109625162Y-138114896D01*
X109627614Y-138090000D01*
X109627000Y-135248750D01*
X109595250Y-135217000D01*
X108627000Y-135217000D01*
X108373000Y-135217000D01*
X107404750Y-135217000D01*
X107373000Y-135248750D01*
X107372386Y-138090000D01*
X107127614Y-138090000D01*
X107127000Y-135248750D01*
X107095250Y-135217000D01*
X106477000Y-135217000D01*
X106223000Y-135217000D01*
X106203000Y-135217000D01*
X106203000Y-134963000D01*
X106223000Y-134963000D01*
X106223000Y-131994750D01*
X106477000Y-131994750D01*
X106477000Y-134963000D01*
X107095250Y-134963000D01*
X107127000Y-134931250D01*
X107127614Y-132090000D01*
X107372386Y-132090000D01*
X107373000Y-134931250D01*
X107404750Y-134963000D01*
X108373000Y-134963000D01*
X108373000Y-131994750D01*
X108627000Y-131994750D01*
X108627000Y-134963000D01*
X109595250Y-134963000D01*
X109627000Y-134931250D01*
X109627614Y-132090000D01*
X109625162Y-132065104D01*
X109617900Y-132041164D01*
X109606107Y-132019101D01*
X109590237Y-131999763D01*
X109570899Y-131983893D01*
X109548836Y-131972100D01*
X109524896Y-131964838D01*
X109500000Y-131962386D01*
X108658750Y-131963000D01*
X108627000Y-131994750D01*
X108373000Y-131994750D01*
X108341250Y-131963000D01*
X107500000Y-131962386D01*
X107475104Y-131964838D01*
X107451164Y-131972100D01*
X107429101Y-131983893D01*
X107409763Y-131999763D01*
X107393893Y-132019101D01*
X107382100Y-132041164D01*
X107374838Y-132065104D01*
X107372386Y-132090000D01*
X107127614Y-132090000D01*
X107125162Y-132065104D01*
X107117900Y-132041164D01*
X107106107Y-132019101D01*
X107090237Y-131999763D01*
X107070899Y-131983893D01*
X107048836Y-131972100D01*
X107024896Y-131964838D01*
X107000000Y-131962386D01*
X106508750Y-131963000D01*
X106477000Y-131994750D01*
X106223000Y-131994750D01*
X106191250Y-131963000D01*
X105824909Y-131962542D01*
X105789502Y-131845820D01*
X105730537Y-131735506D01*
X105651185Y-131638815D01*
X105554494Y-131559463D01*
X105444180Y-131500498D01*
X105335000Y-131467379D01*
X105335000Y-130101411D01*
X105483989Y-130071775D01*
X105736043Y-129967371D01*
X105962886Y-129815799D01*
X106155799Y-129622886D01*
X106307371Y-129396043D01*
X106411775Y-129143989D01*
X106465000Y-128876411D01*
X106465000Y-128603589D01*
X106411775Y-128336011D01*
X106368692Y-128232000D01*
X111990001Y-128232000D01*
X111990001Y-141948000D01*
X111990001Y-141948000D01*
G37*
X111990001Y-141948000D02*
X106368692Y-141948000D01*
X106411775Y-141843989D01*
X106465000Y-141576411D01*
X106465000Y-141303589D01*
X106411775Y-141036011D01*
X106307371Y-140783957D01*
X106155799Y-140557114D01*
X105962886Y-140364201D01*
X105736043Y-140212629D01*
X105483989Y-140108225D01*
X105335000Y-140078589D01*
X105335000Y-138712621D01*
X105444180Y-138679502D01*
X105554494Y-138620537D01*
X105651185Y-138541185D01*
X105730537Y-138444494D01*
X105789502Y-138334180D01*
X105824909Y-138217458D01*
X106191250Y-138217000D01*
X106223000Y-138185250D01*
X106223000Y-135217000D01*
X106477000Y-135217000D01*
X106477000Y-138185250D01*
X106508750Y-138217000D01*
X107000000Y-138217614D01*
X107024896Y-138215162D01*
X107048836Y-138207900D01*
X107070899Y-138196107D01*
X107090237Y-138180237D01*
X107106107Y-138160899D01*
X107117900Y-138138836D01*
X107125162Y-138114896D01*
X107127614Y-138090000D01*
X107372386Y-138090000D01*
X107374838Y-138114896D01*
X107382100Y-138138836D01*
X107393893Y-138160899D01*
X107409763Y-138180237D01*
X107429101Y-138196107D01*
X107451164Y-138207900D01*
X107475104Y-138215162D01*
X107500000Y-138217614D01*
X108341250Y-138217000D01*
X108373000Y-138185250D01*
X108373000Y-135217000D01*
X108627000Y-135217000D01*
X108627000Y-138185250D01*
X108658750Y-138217000D01*
X109500000Y-138217614D01*
X109524896Y-138215162D01*
X109548836Y-138207900D01*
X109570899Y-138196107D01*
X109590237Y-138180237D01*
X109606107Y-138160899D01*
X109617900Y-138138836D01*
X109625162Y-138114896D01*
X109627614Y-138090000D01*
X109627000Y-135248750D01*
X109595250Y-135217000D01*
X108627000Y-135217000D01*
X108373000Y-135217000D01*
X107404750Y-135217000D01*
X107373000Y-135248750D01*
X107372386Y-138090000D01*
X107127614Y-138090000D01*
X107127000Y-135248750D01*
X107095250Y-135217000D01*
X106477000Y-135217000D01*
X106223000Y-135217000D01*
X106203000Y-135217000D01*
X106203000Y-134963000D01*
X106223000Y-134963000D01*
X106223000Y-131994750D01*
X106477000Y-131994750D01*
X106477000Y-134963000D01*
X107095250Y-134963000D01*
X107127000Y-134931250D01*
X107127614Y-132090000D01*
X107372386Y-132090000D01*
X107373000Y-134931250D01*
X107404750Y-134963000D01*
X108373000Y-134963000D01*
X108373000Y-131994750D01*
X108627000Y-131994750D01*
X108627000Y-134963000D01*
X109595250Y-134963000D01*
X109627000Y-134931250D01*
X109627614Y-132090000D01*
X109625162Y-132065104D01*
X109617900Y-132041164D01*
X109606107Y-132019101D01*
X109590237Y-131999763D01*
X109570899Y-131983893D01*
X109548836Y-131972100D01*
X109524896Y-131964838D01*
X109500000Y-131962386D01*
X108658750Y-131963000D01*
X108627000Y-131994750D01*
X108373000Y-131994750D01*
X108341250Y-131963000D01*
X107500000Y-131962386D01*
X107475104Y-131964838D01*
X107451164Y-131972100D01*
X107429101Y-131983893D01*
X107409763Y-131999763D01*
X107393893Y-132019101D01*
X107382100Y-132041164D01*
X107374838Y-132065104D01*
X107372386Y-132090000D01*
X107127614Y-132090000D01*
X107125162Y-132065104D01*
X107117900Y-132041164D01*
X107106107Y-132019101D01*
X107090237Y-131999763D01*
X107070899Y-131983893D01*
X107048836Y-131972100D01*
X107024896Y-131964838D01*
X107000000Y-131962386D01*
X106508750Y-131963000D01*
X106477000Y-131994750D01*
X106223000Y-131994750D01*
X106191250Y-131963000D01*
X105824909Y-131962542D01*
X105789502Y-131845820D01*
X105730537Y-131735506D01*
X105651185Y-131638815D01*
X105554494Y-131559463D01*
X105444180Y-131500498D01*
X105335000Y-131467379D01*
X105335000Y-130101411D01*
X105483989Y-130071775D01*
X105736043Y-129967371D01*
X105962886Y-129815799D01*
X106155799Y-129622886D01*
X106307371Y-129396043D01*
X106411775Y-129143989D01*
X106465000Y-128876411D01*
X106465000Y-128603589D01*
X106411775Y-128336011D01*
X106368692Y-128232000D01*
X111990001Y-128232000D01*
X111990001Y-141948000D01*
G36*
X111990000Y-58128000D02*
G01*
X110476028Y-58128000D01*
X110475000Y-57905750D01*
X110316250Y-57747000D01*
X109017000Y-57747000D01*
X109017000Y-57767000D01*
X108763000Y-57767000D01*
X108763000Y-57747000D01*
X107463750Y-57747000D01*
X107305000Y-57905750D01*
X107303972Y-58128000D01*
X105396028Y-58128000D01*
X105395000Y-57905750D01*
X105236250Y-57747000D01*
X103937000Y-57747000D01*
X103937000Y-57767000D01*
X103683000Y-57767000D01*
X103683000Y-57747000D01*
X102383750Y-57747000D01*
X102225000Y-57905750D01*
X102223972Y-58128000D01*
X100710000Y-58128000D01*
X100710000Y-56670000D01*
X102221928Y-56670000D01*
X102225000Y-57334250D01*
X102383750Y-57493000D01*
X103683000Y-57493000D01*
X103683000Y-56193750D01*
X103937000Y-56193750D01*
X103937000Y-57493000D01*
X105236250Y-57493000D01*
X105395000Y-57334250D01*
X105398072Y-56670000D01*
X107301928Y-56670000D01*
X107305000Y-57334250D01*
X107463750Y-57493000D01*
X108763000Y-57493000D01*
X108763000Y-56193750D01*
X109017000Y-56193750D01*
X109017000Y-57493000D01*
X110316250Y-57493000D01*
X110475000Y-57334250D01*
X110478072Y-56670000D01*
X110465812Y-56545518D01*
X110429502Y-56425820D01*
X110370537Y-56315506D01*
X110291185Y-56218815D01*
X110194494Y-56139463D01*
X110084180Y-56080498D01*
X109964482Y-56044188D01*
X109840000Y-56031928D01*
X109175750Y-56035000D01*
X109017000Y-56193750D01*
X108763000Y-56193750D01*
X108604250Y-56035000D01*
X107940000Y-56031928D01*
X107815518Y-56044188D01*
X107695820Y-56080498D01*
X107585506Y-56139463D01*
X107488815Y-56218815D01*
X107409463Y-56315506D01*
X107350498Y-56425820D01*
X107314188Y-56545518D01*
X107301928Y-56670000D01*
X105398072Y-56670000D01*
X105385812Y-56545518D01*
X105349502Y-56425820D01*
X105290537Y-56315506D01*
X105211185Y-56218815D01*
X105114494Y-56139463D01*
X105004180Y-56080498D01*
X104884482Y-56044188D01*
X104760000Y-56031928D01*
X104095750Y-56035000D01*
X103937000Y-56193750D01*
X103683000Y-56193750D01*
X103524250Y-56035000D01*
X102860000Y-56031928D01*
X102735518Y-56044188D01*
X102615820Y-56080498D01*
X102505506Y-56139463D01*
X102408815Y-56218815D01*
X102329463Y-56315506D01*
X102270498Y-56425820D01*
X102234188Y-56545518D01*
X102221928Y-56670000D01*
X100710000Y-56670000D01*
X100710000Y-54660000D01*
X103591928Y-54660000D01*
X103604188Y-54784482D01*
X103640498Y-54904180D01*
X103699463Y-55014494D01*
X103778815Y-55111185D01*
X103875506Y-55190537D01*
X103985820Y-55249502D01*
X104105518Y-55285812D01*
X104230000Y-55298072D01*
X104794250Y-55295000D01*
X104953000Y-55136250D01*
X104953000Y-53937000D01*
X103753750Y-53937000D01*
X103595000Y-54095750D01*
X103591928Y-54660000D01*
X100710000Y-54660000D01*
X100710000Y-52960000D01*
X103591928Y-52960000D01*
X103595000Y-53524250D01*
X103753750Y-53683000D01*
X104953000Y-53683000D01*
X104953000Y-52483750D01*
X105207000Y-52483750D01*
X105207000Y-53683000D01*
X105227000Y-53683000D01*
X105227000Y-53937000D01*
X105207000Y-53937000D01*
X105207000Y-55136250D01*
X105365750Y-55295000D01*
X105930000Y-55298072D01*
X106054482Y-55285812D01*
X106174180Y-55249502D01*
X106284494Y-55190537D01*
X106381185Y-55111185D01*
X106460537Y-55014494D01*
X106519502Y-54904180D01*
X106540393Y-54835313D01*
X106564866Y-54865134D01*
X106790986Y-55050706D01*
X107048966Y-55188599D01*
X107328889Y-55273513D01*
X107547050Y-55295000D01*
X107692950Y-55295000D01*
X107911111Y-55273513D01*
X108191034Y-55188599D01*
X108449014Y-55050706D01*
X108675134Y-54865134D01*
X108860706Y-54639014D01*
X108998599Y-54381034D01*
X109083513Y-54101111D01*
X109112185Y-53810000D01*
X109083513Y-53518889D01*
X108998599Y-53238966D01*
X108860706Y-52980986D01*
X108675134Y-52754866D01*
X108449014Y-52569294D01*
X108191034Y-52431401D01*
X107911111Y-52346487D01*
X107692950Y-52325000D01*
X107547050Y-52325000D01*
X107328889Y-52346487D01*
X107048966Y-52431401D01*
X106790986Y-52569294D01*
X106564866Y-52754866D01*
X106540393Y-52784687D01*
X106519502Y-52715820D01*
X106460537Y-52605506D01*
X106381185Y-52508815D01*
X106284494Y-52429463D01*
X106174180Y-52370498D01*
X106054482Y-52334188D01*
X105930000Y-52321928D01*
X105365750Y-52325000D01*
X105207000Y-52483750D01*
X104953000Y-52483750D01*
X104794250Y-52325000D01*
X104230000Y-52321928D01*
X104105518Y-52334188D01*
X103985820Y-52370498D01*
X103875506Y-52429463D01*
X103778815Y-52508815D01*
X103699463Y-52605506D01*
X103640498Y-52715820D01*
X103604188Y-52835518D01*
X103591928Y-52960000D01*
X100710000Y-52960000D01*
X100710000Y-50710000D01*
X111990000Y-50710000D01*
X111990000Y-58128000D01*
X111990000Y-58128000D01*
G37*
X111990000Y-58128000D02*
X110476028Y-58128000D01*
X110475000Y-57905750D01*
X110316250Y-57747000D01*
X109017000Y-57747000D01*
X109017000Y-57767000D01*
X108763000Y-57767000D01*
X108763000Y-57747000D01*
X107463750Y-57747000D01*
X107305000Y-57905750D01*
X107303972Y-58128000D01*
X105396028Y-58128000D01*
X105395000Y-57905750D01*
X105236250Y-57747000D01*
X103937000Y-57747000D01*
X103937000Y-57767000D01*
X103683000Y-57767000D01*
X103683000Y-57747000D01*
X102383750Y-57747000D01*
X102225000Y-57905750D01*
X102223972Y-58128000D01*
X100710000Y-58128000D01*
X100710000Y-56670000D01*
X102221928Y-56670000D01*
X102225000Y-57334250D01*
X102383750Y-57493000D01*
X103683000Y-57493000D01*
X103683000Y-56193750D01*
X103937000Y-56193750D01*
X103937000Y-57493000D01*
X105236250Y-57493000D01*
X105395000Y-57334250D01*
X105398072Y-56670000D01*
X107301928Y-56670000D01*
X107305000Y-57334250D01*
X107463750Y-57493000D01*
X108763000Y-57493000D01*
X108763000Y-56193750D01*
X109017000Y-56193750D01*
X109017000Y-57493000D01*
X110316250Y-57493000D01*
X110475000Y-57334250D01*
X110478072Y-56670000D01*
X110465812Y-56545518D01*
X110429502Y-56425820D01*
X110370537Y-56315506D01*
X110291185Y-56218815D01*
X110194494Y-56139463D01*
X110084180Y-56080498D01*
X109964482Y-56044188D01*
X109840000Y-56031928D01*
X109175750Y-56035000D01*
X109017000Y-56193750D01*
X108763000Y-56193750D01*
X108604250Y-56035000D01*
X107940000Y-56031928D01*
X107815518Y-56044188D01*
X107695820Y-56080498D01*
X107585506Y-56139463D01*
X107488815Y-56218815D01*
X107409463Y-56315506D01*
X107350498Y-56425820D01*
X107314188Y-56545518D01*
X107301928Y-56670000D01*
X105398072Y-56670000D01*
X105385812Y-56545518D01*
X105349502Y-56425820D01*
X105290537Y-56315506D01*
X105211185Y-56218815D01*
X105114494Y-56139463D01*
X105004180Y-56080498D01*
X104884482Y-56044188D01*
X104760000Y-56031928D01*
X104095750Y-56035000D01*
X103937000Y-56193750D01*
X103683000Y-56193750D01*
X103524250Y-56035000D01*
X102860000Y-56031928D01*
X102735518Y-56044188D01*
X102615820Y-56080498D01*
X102505506Y-56139463D01*
X102408815Y-56218815D01*
X102329463Y-56315506D01*
X102270498Y-56425820D01*
X102234188Y-56545518D01*
X102221928Y-56670000D01*
X100710000Y-56670000D01*
X100710000Y-54660000D01*
X103591928Y-54660000D01*
X103604188Y-54784482D01*
X103640498Y-54904180D01*
X103699463Y-55014494D01*
X103778815Y-55111185D01*
X103875506Y-55190537D01*
X103985820Y-55249502D01*
X104105518Y-55285812D01*
X104230000Y-55298072D01*
X104794250Y-55295000D01*
X104953000Y-55136250D01*
X104953000Y-53937000D01*
X103753750Y-53937000D01*
X103595000Y-54095750D01*
X103591928Y-54660000D01*
X100710000Y-54660000D01*
X100710000Y-52960000D01*
X103591928Y-52960000D01*
X103595000Y-53524250D01*
X103753750Y-53683000D01*
X104953000Y-53683000D01*
X104953000Y-52483750D01*
X105207000Y-52483750D01*
X105207000Y-53683000D01*
X105227000Y-53683000D01*
X105227000Y-53937000D01*
X105207000Y-53937000D01*
X105207000Y-55136250D01*
X105365750Y-55295000D01*
X105930000Y-55298072D01*
X106054482Y-55285812D01*
X106174180Y-55249502D01*
X106284494Y-55190537D01*
X106381185Y-55111185D01*
X106460537Y-55014494D01*
X106519502Y-54904180D01*
X106540393Y-54835313D01*
X106564866Y-54865134D01*
X106790986Y-55050706D01*
X107048966Y-55188599D01*
X107328889Y-55273513D01*
X107547050Y-55295000D01*
X107692950Y-55295000D01*
X107911111Y-55273513D01*
X108191034Y-55188599D01*
X108449014Y-55050706D01*
X108675134Y-54865134D01*
X108860706Y-54639014D01*
X108998599Y-54381034D01*
X109083513Y-54101111D01*
X109112185Y-53810000D01*
X109083513Y-53518889D01*
X108998599Y-53238966D01*
X108860706Y-52980986D01*
X108675134Y-52754866D01*
X108449014Y-52569294D01*
X108191034Y-52431401D01*
X107911111Y-52346487D01*
X107692950Y-52325000D01*
X107547050Y-52325000D01*
X107328889Y-52346487D01*
X107048966Y-52431401D01*
X106790986Y-52569294D01*
X106564866Y-52754866D01*
X106540393Y-52784687D01*
X106519502Y-52715820D01*
X106460537Y-52605506D01*
X106381185Y-52508815D01*
X106284494Y-52429463D01*
X106174180Y-52370498D01*
X106054482Y-52334188D01*
X105930000Y-52321928D01*
X105365750Y-52325000D01*
X105207000Y-52483750D01*
X104953000Y-52483750D01*
X104794250Y-52325000D01*
X104230000Y-52321928D01*
X104105518Y-52334188D01*
X103985820Y-52370498D01*
X103875506Y-52429463D01*
X103778815Y-52508815D01*
X103699463Y-52605506D01*
X103640498Y-52715820D01*
X103604188Y-52835518D01*
X103591928Y-52960000D01*
X100710000Y-52960000D01*
X100710000Y-50710000D01*
X111990000Y-50710000D01*
X111990000Y-58128000D01*
G36*
X102236621Y-59912873D02*
G01*
X102218641Y-60224573D01*
X102261816Y-60533791D01*
X102364487Y-60828644D01*
X102450958Y-60990421D01*
X102710248Y-61080147D01*
X103630395Y-60160000D01*
X103616253Y-60145858D01*
X103795858Y-59966253D01*
X103810000Y-59980395D01*
X103824143Y-59966253D01*
X104003748Y-60145858D01*
X103989605Y-60160000D01*
X104909752Y-61080147D01*
X105169042Y-60990421D01*
X105304935Y-60709329D01*
X105383379Y-60407127D01*
X105401359Y-60095427D01*
X105358184Y-59786209D01*
X105311451Y-59652000D01*
X107384337Y-59652000D01*
X107316621Y-59912873D01*
X107298641Y-60224573D01*
X107341816Y-60533791D01*
X107444487Y-60828644D01*
X107530958Y-60990421D01*
X107790248Y-61080147D01*
X108710395Y-60160000D01*
X108696253Y-60145858D01*
X108875858Y-59966253D01*
X108890000Y-59980395D01*
X108904143Y-59966253D01*
X109083748Y-60145858D01*
X109069605Y-60160000D01*
X109989752Y-61080147D01*
X110249042Y-60990421D01*
X110384935Y-60709329D01*
X110463379Y-60407127D01*
X110481359Y-60095427D01*
X110438184Y-59786209D01*
X110391451Y-59652000D01*
X111990000Y-59652000D01*
X111990000Y-75050000D01*
X111832986Y-75050000D01*
X111642686Y-75087853D01*
X111463428Y-75162104D01*
X111430000Y-75184440D01*
X111396572Y-75162104D01*
X111217314Y-75087853D01*
X111027014Y-75050000D01*
X110832986Y-75050000D01*
X110642686Y-75087853D01*
X110463428Y-75162104D01*
X110354500Y-75234888D01*
X110245572Y-75162104D01*
X110066314Y-75087853D01*
X109876014Y-75050000D01*
X109681986Y-75050000D01*
X109491686Y-75087853D01*
X109312428Y-75162104D01*
X109271000Y-75189785D01*
X109229572Y-75162104D01*
X109050314Y-75087853D01*
X108860014Y-75050000D01*
X108665986Y-75050000D01*
X108475686Y-75087853D01*
X108296428Y-75162104D01*
X108255000Y-75189785D01*
X108213572Y-75162104D01*
X108034314Y-75087853D01*
X107844014Y-75050000D01*
X107649986Y-75050000D01*
X107459686Y-75087853D01*
X107280428Y-75162104D01*
X107239000Y-75189785D01*
X107197572Y-75162104D01*
X107018314Y-75087853D01*
X106828014Y-75050000D01*
X106633986Y-75050000D01*
X106443686Y-75087853D01*
X106264428Y-75162104D01*
X106223000Y-75189785D01*
X106181572Y-75162104D01*
X106002314Y-75087853D01*
X105812014Y-75050000D01*
X105617986Y-75050000D01*
X105427686Y-75087853D01*
X105248428Y-75162104D01*
X105207000Y-75189785D01*
X105165572Y-75162104D01*
X104986314Y-75087853D01*
X104796014Y-75050000D01*
X104601986Y-75050000D01*
X104411686Y-75087853D01*
X104232428Y-75162104D01*
X104191000Y-75189785D01*
X104149572Y-75162104D01*
X103970314Y-75087853D01*
X103780014Y-75050000D01*
X103585986Y-75050000D01*
X103395686Y-75087853D01*
X103216428Y-75162104D01*
X103175000Y-75189785D01*
X103133572Y-75162104D01*
X102954314Y-75087853D01*
X102764014Y-75050000D01*
X102569986Y-75050000D01*
X102379686Y-75087853D01*
X102200428Y-75162104D01*
X102155000Y-75192458D01*
X102109572Y-75162104D01*
X101930314Y-75087853D01*
X101740014Y-75050000D01*
X101545986Y-75050000D01*
X101355686Y-75087853D01*
X101176428Y-75162104D01*
X101143000Y-75184440D01*
X101109572Y-75162104D01*
X100930314Y-75087853D01*
X100740014Y-75050000D01*
X100710000Y-75050000D01*
X100710000Y-72440000D01*
X103591928Y-72440000D01*
X103604188Y-72564482D01*
X103640498Y-72684180D01*
X103699463Y-72794494D01*
X103778815Y-72891185D01*
X103875506Y-72970537D01*
X103985820Y-73029502D01*
X104105518Y-73065812D01*
X104230000Y-73078072D01*
X104794250Y-73075000D01*
X104953000Y-72916250D01*
X104953000Y-71717000D01*
X103753750Y-71717000D01*
X103595000Y-71875750D01*
X103591928Y-72440000D01*
X100710000Y-72440000D01*
X100710000Y-70740000D01*
X103591928Y-70740000D01*
X103595000Y-71304250D01*
X103753750Y-71463000D01*
X104953000Y-71463000D01*
X104953000Y-70263750D01*
X105207000Y-70263750D01*
X105207000Y-71463000D01*
X105227000Y-71463000D01*
X105227000Y-71717000D01*
X105207000Y-71717000D01*
X105207000Y-72916250D01*
X105365750Y-73075000D01*
X105930000Y-73078072D01*
X106054482Y-73065812D01*
X106174180Y-73029502D01*
X106284494Y-72970537D01*
X106381185Y-72891185D01*
X106460537Y-72794494D01*
X106519502Y-72684180D01*
X106540393Y-72615313D01*
X106564866Y-72645134D01*
X106790986Y-72830706D01*
X107048966Y-72968599D01*
X107328889Y-73053513D01*
X107547050Y-73075000D01*
X107692950Y-73075000D01*
X107911111Y-73053513D01*
X108191034Y-72968599D01*
X108449014Y-72830706D01*
X108675134Y-72645134D01*
X108860706Y-72419014D01*
X108998599Y-72161034D01*
X109083513Y-71881111D01*
X109112185Y-71590000D01*
X109083513Y-71298889D01*
X108998599Y-71018966D01*
X108860706Y-70760986D01*
X108675134Y-70534866D01*
X108449014Y-70349294D01*
X108191034Y-70211401D01*
X107911111Y-70126487D01*
X107692950Y-70105000D01*
X107547050Y-70105000D01*
X107328889Y-70126487D01*
X107048966Y-70211401D01*
X106790986Y-70349294D01*
X106564866Y-70534866D01*
X106540393Y-70564687D01*
X106519502Y-70495820D01*
X106460537Y-70385506D01*
X106381185Y-70288815D01*
X106284494Y-70209463D01*
X106174180Y-70150498D01*
X106054482Y-70114188D01*
X105930000Y-70101928D01*
X105365750Y-70105000D01*
X105207000Y-70263750D01*
X104953000Y-70263750D01*
X104794250Y-70105000D01*
X104230000Y-70101928D01*
X104105518Y-70114188D01*
X103985820Y-70150498D01*
X103875506Y-70209463D01*
X103778815Y-70288815D01*
X103699463Y-70385506D01*
X103640498Y-70495820D01*
X103604188Y-70615518D01*
X103591928Y-70740000D01*
X100710000Y-70740000D01*
X100710000Y-64920000D01*
X103491928Y-64920000D01*
X103504188Y-65044482D01*
X103540498Y-65164180D01*
X103599463Y-65274494D01*
X103678815Y-65371185D01*
X103775506Y-65450537D01*
X103885820Y-65509502D01*
X104005518Y-65545812D01*
X104130000Y-65558072D01*
X104794250Y-65555000D01*
X104953000Y-65396250D01*
X104953000Y-64097000D01*
X103653750Y-64097000D01*
X103495000Y-64255750D01*
X103491928Y-64920000D01*
X100710000Y-64920000D01*
X100710000Y-63020000D01*
X103491928Y-63020000D01*
X103495000Y-63684250D01*
X103653750Y-63843000D01*
X104953000Y-63843000D01*
X104953000Y-62543750D01*
X105207000Y-62543750D01*
X105207000Y-63843000D01*
X105227000Y-63843000D01*
X105227000Y-64097000D01*
X105207000Y-64097000D01*
X105207000Y-65396250D01*
X105365750Y-65555000D01*
X106030000Y-65558072D01*
X106154482Y-65545812D01*
X106274180Y-65509502D01*
X106384494Y-65450537D01*
X106481185Y-65371185D01*
X106560537Y-65274494D01*
X106603182Y-65194711D01*
X106609621Y-65201150D01*
X106869221Y-65374609D01*
X107157673Y-65494089D01*
X107463891Y-65555000D01*
X107776109Y-65555000D01*
X108082327Y-65494089D01*
X108370779Y-65374609D01*
X108630379Y-65201150D01*
X108851150Y-64980379D01*
X109024609Y-64720779D01*
X109144089Y-64432327D01*
X109205000Y-64126109D01*
X109205000Y-63813891D01*
X109144089Y-63507673D01*
X109024609Y-63219221D01*
X108851150Y-62959621D01*
X108630379Y-62738850D01*
X108370779Y-62565391D01*
X108082327Y-62445911D01*
X107776109Y-62385000D01*
X107463891Y-62385000D01*
X107157673Y-62445911D01*
X106869221Y-62565391D01*
X106609621Y-62738850D01*
X106603182Y-62745289D01*
X106560537Y-62665506D01*
X106481185Y-62568815D01*
X106384494Y-62489463D01*
X106274180Y-62430498D01*
X106154482Y-62394188D01*
X106030000Y-62381928D01*
X105365750Y-62385000D01*
X105207000Y-62543750D01*
X104953000Y-62543750D01*
X104794250Y-62385000D01*
X104130000Y-62381928D01*
X104005518Y-62394188D01*
X103885820Y-62430498D01*
X103775506Y-62489463D01*
X103678815Y-62568815D01*
X103599463Y-62665506D01*
X103540498Y-62775820D01*
X103504188Y-62895518D01*
X103491928Y-63020000D01*
X100710000Y-63020000D01*
X100710000Y-61259752D01*
X102889853Y-61259752D01*
X102979579Y-61519042D01*
X103260671Y-61654935D01*
X103562873Y-61733379D01*
X103874573Y-61751359D01*
X104183791Y-61708184D01*
X104478644Y-61605513D01*
X104640421Y-61519042D01*
X104730147Y-61259752D01*
X107969853Y-61259752D01*
X108059579Y-61519042D01*
X108340671Y-61654935D01*
X108642873Y-61733379D01*
X108954573Y-61751359D01*
X109263791Y-61708184D01*
X109558644Y-61605513D01*
X109720421Y-61519042D01*
X109810147Y-61259752D01*
X108890000Y-60339605D01*
X107969853Y-61259752D01*
X104730147Y-61259752D01*
X103810000Y-60339605D01*
X102889853Y-61259752D01*
X100710000Y-61259752D01*
X100710000Y-59652000D01*
X102304337Y-59652000D01*
X102236621Y-59912873D01*
X102236621Y-59912873D01*
G37*
X102236621Y-59912873D02*
X102218641Y-60224573D01*
X102261816Y-60533791D01*
X102364487Y-60828644D01*
X102450958Y-60990421D01*
X102710248Y-61080147D01*
X103630395Y-60160000D01*
X103616253Y-60145858D01*
X103795858Y-59966253D01*
X103810000Y-59980395D01*
X103824143Y-59966253D01*
X104003748Y-60145858D01*
X103989605Y-60160000D01*
X104909752Y-61080147D01*
X105169042Y-60990421D01*
X105304935Y-60709329D01*
X105383379Y-60407127D01*
X105401359Y-60095427D01*
X105358184Y-59786209D01*
X105311451Y-59652000D01*
X107384337Y-59652000D01*
X107316621Y-59912873D01*
X107298641Y-60224573D01*
X107341816Y-60533791D01*
X107444487Y-60828644D01*
X107530958Y-60990421D01*
X107790248Y-61080147D01*
X108710395Y-60160000D01*
X108696253Y-60145858D01*
X108875858Y-59966253D01*
X108890000Y-59980395D01*
X108904143Y-59966253D01*
X109083748Y-60145858D01*
X109069605Y-60160000D01*
X109989752Y-61080147D01*
X110249042Y-60990421D01*
X110384935Y-60709329D01*
X110463379Y-60407127D01*
X110481359Y-60095427D01*
X110438184Y-59786209D01*
X110391451Y-59652000D01*
X111990000Y-59652000D01*
X111990000Y-75050000D01*
X111832986Y-75050000D01*
X111642686Y-75087853D01*
X111463428Y-75162104D01*
X111430000Y-75184440D01*
X111396572Y-75162104D01*
X111217314Y-75087853D01*
X111027014Y-75050000D01*
X110832986Y-75050000D01*
X110642686Y-75087853D01*
X110463428Y-75162104D01*
X110354500Y-75234888D01*
X110245572Y-75162104D01*
X110066314Y-75087853D01*
X109876014Y-75050000D01*
X109681986Y-75050000D01*
X109491686Y-75087853D01*
X109312428Y-75162104D01*
X109271000Y-75189785D01*
X109229572Y-75162104D01*
X109050314Y-75087853D01*
X108860014Y-75050000D01*
X108665986Y-75050000D01*
X108475686Y-75087853D01*
X108296428Y-75162104D01*
X108255000Y-75189785D01*
X108213572Y-75162104D01*
X108034314Y-75087853D01*
X107844014Y-75050000D01*
X107649986Y-75050000D01*
X107459686Y-75087853D01*
X107280428Y-75162104D01*
X107239000Y-75189785D01*
X107197572Y-75162104D01*
X107018314Y-75087853D01*
X106828014Y-75050000D01*
X106633986Y-75050000D01*
X106443686Y-75087853D01*
X106264428Y-75162104D01*
X106223000Y-75189785D01*
X106181572Y-75162104D01*
X106002314Y-75087853D01*
X105812014Y-75050000D01*
X105617986Y-75050000D01*
X105427686Y-75087853D01*
X105248428Y-75162104D01*
X105207000Y-75189785D01*
X105165572Y-75162104D01*
X104986314Y-75087853D01*
X104796014Y-75050000D01*
X104601986Y-75050000D01*
X104411686Y-75087853D01*
X104232428Y-75162104D01*
X104191000Y-75189785D01*
X104149572Y-75162104D01*
X103970314Y-75087853D01*
X103780014Y-75050000D01*
X103585986Y-75050000D01*
X103395686Y-75087853D01*
X103216428Y-75162104D01*
X103175000Y-75189785D01*
X103133572Y-75162104D01*
X102954314Y-75087853D01*
X102764014Y-75050000D01*
X102569986Y-75050000D01*
X102379686Y-75087853D01*
X102200428Y-75162104D01*
X102155000Y-75192458D01*
X102109572Y-75162104D01*
X101930314Y-75087853D01*
X101740014Y-75050000D01*
X101545986Y-75050000D01*
X101355686Y-75087853D01*
X101176428Y-75162104D01*
X101143000Y-75184440D01*
X101109572Y-75162104D01*
X100930314Y-75087853D01*
X100740014Y-75050000D01*
X100710000Y-75050000D01*
X100710000Y-72440000D01*
X103591928Y-72440000D01*
X103604188Y-72564482D01*
X103640498Y-72684180D01*
X103699463Y-72794494D01*
X103778815Y-72891185D01*
X103875506Y-72970537D01*
X103985820Y-73029502D01*
X104105518Y-73065812D01*
X104230000Y-73078072D01*
X104794250Y-73075000D01*
X104953000Y-72916250D01*
X104953000Y-71717000D01*
X103753750Y-71717000D01*
X103595000Y-71875750D01*
X103591928Y-72440000D01*
X100710000Y-72440000D01*
X100710000Y-70740000D01*
X103591928Y-70740000D01*
X103595000Y-71304250D01*
X103753750Y-71463000D01*
X104953000Y-71463000D01*
X104953000Y-70263750D01*
X105207000Y-70263750D01*
X105207000Y-71463000D01*
X105227000Y-71463000D01*
X105227000Y-71717000D01*
X105207000Y-71717000D01*
X105207000Y-72916250D01*
X105365750Y-73075000D01*
X105930000Y-73078072D01*
X106054482Y-73065812D01*
X106174180Y-73029502D01*
X106284494Y-72970537D01*
X106381185Y-72891185D01*
X106460537Y-72794494D01*
X106519502Y-72684180D01*
X106540393Y-72615313D01*
X106564866Y-72645134D01*
X106790986Y-72830706D01*
X107048966Y-72968599D01*
X107328889Y-73053513D01*
X107547050Y-73075000D01*
X107692950Y-73075000D01*
X107911111Y-73053513D01*
X108191034Y-72968599D01*
X108449014Y-72830706D01*
X108675134Y-72645134D01*
X108860706Y-72419014D01*
X108998599Y-72161034D01*
X109083513Y-71881111D01*
X109112185Y-71590000D01*
X109083513Y-71298889D01*
X108998599Y-71018966D01*
X108860706Y-70760986D01*
X108675134Y-70534866D01*
X108449014Y-70349294D01*
X108191034Y-70211401D01*
X107911111Y-70126487D01*
X107692950Y-70105000D01*
X107547050Y-70105000D01*
X107328889Y-70126487D01*
X107048966Y-70211401D01*
X106790986Y-70349294D01*
X106564866Y-70534866D01*
X106540393Y-70564687D01*
X106519502Y-70495820D01*
X106460537Y-70385506D01*
X106381185Y-70288815D01*
X106284494Y-70209463D01*
X106174180Y-70150498D01*
X106054482Y-70114188D01*
X105930000Y-70101928D01*
X105365750Y-70105000D01*
X105207000Y-70263750D01*
X104953000Y-70263750D01*
X104794250Y-70105000D01*
X104230000Y-70101928D01*
X104105518Y-70114188D01*
X103985820Y-70150498D01*
X103875506Y-70209463D01*
X103778815Y-70288815D01*
X103699463Y-70385506D01*
X103640498Y-70495820D01*
X103604188Y-70615518D01*
X103591928Y-70740000D01*
X100710000Y-70740000D01*
X100710000Y-64920000D01*
X103491928Y-64920000D01*
X103504188Y-65044482D01*
X103540498Y-65164180D01*
X103599463Y-65274494D01*
X103678815Y-65371185D01*
X103775506Y-65450537D01*
X103885820Y-65509502D01*
X104005518Y-65545812D01*
X104130000Y-65558072D01*
X104794250Y-65555000D01*
X104953000Y-65396250D01*
X104953000Y-64097000D01*
X103653750Y-64097000D01*
X103495000Y-64255750D01*
X103491928Y-64920000D01*
X100710000Y-64920000D01*
X100710000Y-63020000D01*
X103491928Y-63020000D01*
X103495000Y-63684250D01*
X103653750Y-63843000D01*
X104953000Y-63843000D01*
X104953000Y-62543750D01*
X105207000Y-62543750D01*
X105207000Y-63843000D01*
X105227000Y-63843000D01*
X105227000Y-64097000D01*
X105207000Y-64097000D01*
X105207000Y-65396250D01*
X105365750Y-65555000D01*
X106030000Y-65558072D01*
X106154482Y-65545812D01*
X106274180Y-65509502D01*
X106384494Y-65450537D01*
X106481185Y-65371185D01*
X106560537Y-65274494D01*
X106603182Y-65194711D01*
X106609621Y-65201150D01*
X106869221Y-65374609D01*
X107157673Y-65494089D01*
X107463891Y-65555000D01*
X107776109Y-65555000D01*
X108082327Y-65494089D01*
X108370779Y-65374609D01*
X108630379Y-65201150D01*
X108851150Y-64980379D01*
X109024609Y-64720779D01*
X109144089Y-64432327D01*
X109205000Y-64126109D01*
X109205000Y-63813891D01*
X109144089Y-63507673D01*
X109024609Y-63219221D01*
X108851150Y-62959621D01*
X108630379Y-62738850D01*
X108370779Y-62565391D01*
X108082327Y-62445911D01*
X107776109Y-62385000D01*
X107463891Y-62385000D01*
X107157673Y-62445911D01*
X106869221Y-62565391D01*
X106609621Y-62738850D01*
X106603182Y-62745289D01*
X106560537Y-62665506D01*
X106481185Y-62568815D01*
X106384494Y-62489463D01*
X106274180Y-62430498D01*
X106154482Y-62394188D01*
X106030000Y-62381928D01*
X105365750Y-62385000D01*
X105207000Y-62543750D01*
X104953000Y-62543750D01*
X104794250Y-62385000D01*
X104130000Y-62381928D01*
X104005518Y-62394188D01*
X103885820Y-62430498D01*
X103775506Y-62489463D01*
X103678815Y-62568815D01*
X103599463Y-62665506D01*
X103540498Y-62775820D01*
X103504188Y-62895518D01*
X103491928Y-63020000D01*
X100710000Y-63020000D01*
X100710000Y-61259752D01*
X102889853Y-61259752D01*
X102979579Y-61519042D01*
X103260671Y-61654935D01*
X103562873Y-61733379D01*
X103874573Y-61751359D01*
X104183791Y-61708184D01*
X104478644Y-61605513D01*
X104640421Y-61519042D01*
X104730147Y-61259752D01*
X107969853Y-61259752D01*
X108059579Y-61519042D01*
X108340671Y-61654935D01*
X108642873Y-61733379D01*
X108954573Y-61751359D01*
X109263791Y-61708184D01*
X109558644Y-61605513D01*
X109720421Y-61519042D01*
X109810147Y-61259752D01*
X108890000Y-60339605D01*
X107969853Y-61259752D01*
X104730147Y-61259752D01*
X103810000Y-60339605D01*
X102889853Y-61259752D01*
X100710000Y-61259752D01*
X100710000Y-59652000D01*
X102304337Y-59652000D01*
X102236621Y-59912873D01*
M02*
