M48
; DRILL file {KiCad (5.1.0)-1} date 24.06.2019 18:37:45
; FORMAT={-:-/ absolute / metric / decimal}
; #@! TF.CreationDate,2019-06-24T18:37:45+02:00
; #@! TF.GenerationSoftware,Kicad,Pcbnew,(5.1.0)-1
; #@! TF.FileFunction,NonPlated,1,2,NPTH
FMAT,2
METRIC
T1C0.700
%
G90
G05
T1
X100.643Y-123.025
X101.643Y-123.025
X102.667Y-123.025
X110.93Y-123.025
X111.93Y-123.025
X110.93Y-97.625
X111.93Y-97.625
X100.643Y-76.035
X101.643Y-76.035
X102.667Y-76.035
X103.683Y-76.035
X104.699Y-76.035
X105.715Y-76.035
X106.731Y-76.035
X107.747Y-76.035
X108.763Y-76.035
X109.779Y-76.035
X100.643Y-97.625
X101.643Y-97.625
X102.667Y-97.625
X103.683Y-97.625
X104.699Y-97.625
X105.715Y-97.625
X106.731Y-97.625
X107.747Y-97.625
X108.763Y-97.625
X109.779Y-97.625
X103.683Y-123.025
X104.699Y-123.025
X105.715Y-123.025
X106.731Y-123.025
X107.747Y-123.025
X108.763Y-123.025
X109.779Y-123.025
X110.93Y-76.035
X111.93Y-76.035
T0
M30
