G04 #@! TF.GenerationSoftware,KiCad,Pcbnew,(5.1.0)-1*
G04 #@! TF.CreationDate,2019-06-15T12:37:24+02:00*
G04 #@! TF.ProjectId,DiodeAdapter,44696f64-6541-4646-9170-7465722e6b69,2*
G04 #@! TF.SameCoordinates,Original*
G04 #@! TF.FileFunction,Soldermask,Top*
G04 #@! TF.FilePolarity,Negative*
%FSLAX46Y46*%
G04 Gerber Fmt 4.6, Leading zero omitted, Abs format (unit mm)*
G04 Created by KiCad (PCBNEW (5.1.0)-1) date 2019-06-15 12:37:24*
%MOMM*%
%LPD*%
G04 APERTURE LIST*
%ADD10C,1.000000*%
%ADD11C,0.900000*%
%ADD12C,1.100000*%
%ADD13R,2.400000X6.400000*%
%ADD14R,1.700000X6.400000*%
%ADD15R,2.100000X2.100000*%
%ADD16O,2.100000X2.100000*%
%ADD17C,2.300000*%
%ADD18R,2.300000X2.300000*%
G04 APERTURE END LIST*
D10*
X76167000Y-65448000D03*
D11*
X74643000Y-65448000D03*
D12*
X75405000Y-53756000D03*
X75405000Y-52740000D03*
X75405000Y-51724000D03*
X75405000Y-50708000D03*
X75405000Y-49692000D03*
X75405000Y-48676000D03*
X75405000Y-47660000D03*
X75405000Y-46644000D03*
X75405000Y-45620000D03*
X75405000Y-44620000D03*
X75405000Y-54788000D03*
X75405000Y-55788000D03*
X75405000Y-56812000D03*
X75405000Y-57828000D03*
X75405000Y-58844000D03*
X75405000Y-59860000D03*
X75405000Y-60876000D03*
X75405000Y-61892000D03*
X75405000Y-62908000D03*
X75405000Y-63924000D03*
X75405000Y-105588000D03*
X75405000Y-106588000D03*
X75405000Y-107612000D03*
X75405000Y-108628000D03*
X75405000Y-109644000D03*
X75405000Y-110660000D03*
X75405000Y-111676000D03*
X75405000Y-112692000D03*
X75405000Y-113708000D03*
X75405000Y-114724000D03*
X75405000Y-104572000D03*
X75405000Y-103556000D03*
X75405000Y-102540000D03*
X75405000Y-101524000D03*
X75405000Y-100508000D03*
X75405000Y-99492000D03*
X75405000Y-98476000D03*
X75405000Y-97460000D03*
X75405000Y-96436000D03*
X75405000Y-95436000D03*
X85557000Y-90975000D03*
X84557000Y-90975000D03*
X83533000Y-90975000D03*
X82517000Y-90975000D03*
X81501000Y-90975000D03*
X80485000Y-90975000D03*
X79469000Y-90975000D03*
X78453000Y-90975000D03*
X77437000Y-90975000D03*
X76421000Y-90975000D03*
X74389000Y-90975000D03*
X73373000Y-90975000D03*
X72357000Y-90975000D03*
X71341000Y-90975000D03*
X70325000Y-90975000D03*
X69309000Y-90975000D03*
X68293000Y-90975000D03*
X67277000Y-90975000D03*
X66253000Y-90975000D03*
X65253000Y-90975000D03*
X75405000Y-85260000D03*
X75405000Y-86260000D03*
X75405000Y-87284000D03*
X75405000Y-88300000D03*
X75405000Y-89316000D03*
X75405000Y-90332000D03*
X75405000Y-91348000D03*
X75405000Y-92364000D03*
X75405000Y-93380000D03*
X75405000Y-94396000D03*
X75405000Y-84252000D03*
X75405000Y-83236000D03*
X75405000Y-82220000D03*
X75405000Y-81204000D03*
X75405000Y-80188000D03*
X75405000Y-79172000D03*
X75405000Y-78156000D03*
X75405000Y-77140000D03*
X75405000Y-76116000D03*
X75405000Y-75116000D03*
X75405000Y-64956000D03*
X75405000Y-65956000D03*
X75405000Y-66980000D03*
X75405000Y-67996000D03*
X75405000Y-69012000D03*
X75405000Y-70028000D03*
X75405000Y-71044000D03*
X75405000Y-72060000D03*
X75405000Y-73076000D03*
X75405000Y-74092000D03*
X77064000Y-65575000D03*
X78080000Y-65575000D03*
X79096000Y-65575000D03*
X80112000Y-65575000D03*
X81128000Y-65575000D03*
X82144000Y-65575000D03*
X83160000Y-65575000D03*
X84176000Y-65575000D03*
X85200000Y-65575000D03*
X86200000Y-65575000D03*
X64618000Y-65575000D03*
X65618000Y-65575000D03*
X66642000Y-65575000D03*
X67658000Y-65575000D03*
X68674000Y-65575000D03*
X69690000Y-65575000D03*
X70706000Y-65575000D03*
X71722000Y-65575000D03*
X72738000Y-65575000D03*
X73754000Y-65575000D03*
D13*
X78970000Y-78910000D03*
X83270000Y-78910000D03*
D14*
X81120000Y-78910000D03*
X81120000Y-103040000D03*
D13*
X83270000Y-103040000D03*
X78970000Y-103040000D03*
D14*
X69690000Y-78910000D03*
D13*
X71840000Y-78910000D03*
X67540000Y-78910000D03*
X67540000Y-103040000D03*
X71840000Y-103040000D03*
D14*
X69690000Y-103040000D03*
D15*
X79850000Y-48430000D03*
D16*
X82390000Y-48430000D03*
D17*
X82390000Y-62400000D03*
D18*
X79850000Y-62400000D03*
D17*
X82390000Y-87800000D03*
D18*
X79850000Y-87800000D03*
X79850000Y-68750000D03*
D17*
X82390000Y-68750000D03*
X82390000Y-94150000D03*
D18*
X79850000Y-94150000D03*
X79850000Y-111930000D03*
D17*
X82390000Y-111930000D03*
D16*
X70960000Y-48430000D03*
D15*
X68420000Y-48430000D03*
D18*
X68420000Y-62400000D03*
D17*
X70960000Y-62400000D03*
D18*
X68420000Y-68750000D03*
D17*
X70960000Y-68750000D03*
D18*
X68420000Y-87800000D03*
D17*
X70960000Y-87800000D03*
D18*
X68420000Y-94150000D03*
D17*
X70960000Y-94150000D03*
X70960000Y-111930000D03*
D18*
X68420000Y-111930000D03*
M02*
