M48
; DRILL file {KiCad (5.1.0)-1} date 15.06.2019 12:37:27
; FORMAT={-:-/ absolute / metric / decimal}
; #@! TF.CreationDate,2019-06-15T12:37:27+02:00
; #@! TF.GenerationSoftware,Kicad,Pcbnew,(5.1.0)-1
; #@! TF.FileFunction,Plated,1,2,PTH
FMAT,2
METRIC
T1C0.800
T2C1.000
T3C1.100
%
G90
G05
T1
X68.42Y-72.56
X68.42Y-83.99
X68.42Y-96.69
X68.42Y-109.39
X70.96Y-72.56
X70.96Y-83.99
X70.96Y-96.69
X70.96Y-109.39
X79.85Y-72.56
X79.85Y-83.99
X79.85Y-96.69
X79.85Y-109.39
X82.39Y-72.56
X82.39Y-83.99
X82.39Y-96.69
X82.39Y-109.39
T2
X68.42Y-48.43
X70.96Y-48.43
X79.85Y-48.43
X82.39Y-48.43
T3
X79.85Y-68.75
X82.39Y-68.75
X68.42Y-62.4
X70.96Y-62.4
X79.85Y-94.15
X82.39Y-94.15
X79.85Y-62.4
X82.39Y-62.4
X79.85Y-87.8
X82.39Y-87.8
X68.42Y-68.75
X70.96Y-68.75
X79.85Y-111.93
X82.39Y-111.93
X68.42Y-111.93
X70.96Y-111.93
X68.42Y-94.15
X70.96Y-94.15
X68.42Y-87.8
X70.96Y-87.8
T0
M30
