G04 #@! TF.FileFunction,Legend,Top*
%FSLAX46Y46*%
G04 Gerber Fmt 4.6, Leading zero omitted, Abs format (unit mm)*
G04 Created by KiCad (PCBNEW 4.0.5) date 08/19/18 14:23:04*
%MOMM*%
%LPD*%
G01*
G04 APERTURE LIST*
%ADD10C,0.100000*%
%ADD11C,0.250000*%
%ADD12C,0.300000*%
%ADD13C,0.120000*%
%ADD14C,0.150000*%
G04 APERTURE END LIST*
D10*
D11*
X60619047Y-117577381D02*
X60142856Y-117577381D01*
X60142856Y-116577381D01*
X61333333Y-117529762D02*
X61238095Y-117577381D01*
X61047618Y-117577381D01*
X60952380Y-117529762D01*
X60904761Y-117434524D01*
X60904761Y-117053571D01*
X60952380Y-116958333D01*
X61047618Y-116910714D01*
X61238095Y-116910714D01*
X61333333Y-116958333D01*
X61380952Y-117053571D01*
X61380952Y-117148810D01*
X60904761Y-117244048D01*
X62238095Y-117577381D02*
X62238095Y-116577381D01*
X62238095Y-117529762D02*
X62142857Y-117577381D01*
X61952380Y-117577381D01*
X61857142Y-117529762D01*
X61809523Y-117482143D01*
X61761904Y-117386905D01*
X61761904Y-117101190D01*
X61809523Y-117005952D01*
X61857142Y-116958333D01*
X61952380Y-116910714D01*
X62142857Y-116910714D01*
X62238095Y-116958333D01*
X62666666Y-117291667D02*
X63142857Y-117291667D01*
X62571428Y-117577381D02*
X62904761Y-116577381D01*
X63238095Y-117577381D01*
X64000000Y-117577381D02*
X64000000Y-116577381D01*
X64000000Y-117529762D02*
X63904762Y-117577381D01*
X63714285Y-117577381D01*
X63619047Y-117529762D01*
X63571428Y-117482143D01*
X63523809Y-117386905D01*
X63523809Y-117101190D01*
X63571428Y-117005952D01*
X63619047Y-116958333D01*
X63714285Y-116910714D01*
X63904762Y-116910714D01*
X64000000Y-116958333D01*
X64904762Y-117577381D02*
X64904762Y-117053571D01*
X64857143Y-116958333D01*
X64761905Y-116910714D01*
X64571428Y-116910714D01*
X64476190Y-116958333D01*
X64904762Y-117529762D02*
X64809524Y-117577381D01*
X64571428Y-117577381D01*
X64476190Y-117529762D01*
X64428571Y-117434524D01*
X64428571Y-117339286D01*
X64476190Y-117244048D01*
X64571428Y-117196429D01*
X64809524Y-117196429D01*
X64904762Y-117148810D01*
X65380952Y-116910714D02*
X65380952Y-117910714D01*
X65380952Y-116958333D02*
X65476190Y-116910714D01*
X65666667Y-116910714D01*
X65761905Y-116958333D01*
X65809524Y-117005952D01*
X65857143Y-117101190D01*
X65857143Y-117386905D01*
X65809524Y-117482143D01*
X65761905Y-117529762D01*
X65666667Y-117577381D01*
X65476190Y-117577381D01*
X65380952Y-117529762D01*
X66142857Y-116910714D02*
X66523809Y-116910714D01*
X66285714Y-116577381D02*
X66285714Y-117434524D01*
X66333333Y-117529762D01*
X66428571Y-117577381D01*
X66523809Y-117577381D01*
X67238096Y-117529762D02*
X67142858Y-117577381D01*
X66952381Y-117577381D01*
X66857143Y-117529762D01*
X66809524Y-117434524D01*
X66809524Y-117053571D01*
X66857143Y-116958333D01*
X66952381Y-116910714D01*
X67142858Y-116910714D01*
X67238096Y-116958333D01*
X67285715Y-117053571D01*
X67285715Y-117148810D01*
X66809524Y-117244048D01*
X67714286Y-117577381D02*
X67714286Y-116910714D01*
X67714286Y-117101190D02*
X67761905Y-117005952D01*
X67809524Y-116958333D01*
X67904762Y-116910714D01*
X68000001Y-116910714D01*
X58952381Y-118327381D02*
X59285714Y-119327381D01*
X59619048Y-118327381D01*
X60476191Y-119327381D02*
X59904762Y-119327381D01*
X60190476Y-119327381D02*
X60190476Y-118327381D01*
X60095238Y-118470238D01*
X60000000Y-118565476D01*
X59904762Y-118613095D01*
X61666667Y-118946429D02*
X62428572Y-118946429D01*
X64190477Y-119327381D02*
X63619048Y-119327381D01*
X63904762Y-119327381D02*
X63904762Y-118327381D01*
X63809524Y-118470238D01*
X63714286Y-118565476D01*
X63619048Y-118613095D01*
X64666667Y-119327381D02*
X64857143Y-119327381D01*
X64952382Y-119279762D01*
X65000001Y-119232143D01*
X65095239Y-119089286D01*
X65142858Y-118898810D01*
X65142858Y-118517857D01*
X65095239Y-118422619D01*
X65047620Y-118375000D01*
X64952382Y-118327381D01*
X64761905Y-118327381D01*
X64666667Y-118375000D01*
X64619048Y-118422619D01*
X64571429Y-118517857D01*
X64571429Y-118755952D01*
X64619048Y-118851190D01*
X64666667Y-118898810D01*
X64761905Y-118946429D01*
X64952382Y-118946429D01*
X65047620Y-118898810D01*
X65095239Y-118851190D01*
X65142858Y-118755952D01*
X65761905Y-118327381D02*
X65857144Y-118327381D01*
X65952382Y-118375000D01*
X66000001Y-118422619D01*
X66047620Y-118517857D01*
X66095239Y-118708333D01*
X66095239Y-118946429D01*
X66047620Y-119136905D01*
X66000001Y-119232143D01*
X65952382Y-119279762D01*
X65857144Y-119327381D01*
X65761905Y-119327381D01*
X65666667Y-119279762D01*
X65619048Y-119232143D01*
X65571429Y-119136905D01*
X65523810Y-118946429D01*
X65523810Y-118708333D01*
X65571429Y-118517857D01*
X65619048Y-118422619D01*
X65666667Y-118375000D01*
X65761905Y-118327381D01*
X66666667Y-118755952D02*
X66571429Y-118708333D01*
X66523810Y-118660714D01*
X66476191Y-118565476D01*
X66476191Y-118517857D01*
X66523810Y-118422619D01*
X66571429Y-118375000D01*
X66666667Y-118327381D01*
X66857144Y-118327381D01*
X66952382Y-118375000D01*
X67000001Y-118422619D01*
X67047620Y-118517857D01*
X67047620Y-118565476D01*
X67000001Y-118660714D01*
X66952382Y-118708333D01*
X66857144Y-118755952D01*
X66666667Y-118755952D01*
X66571429Y-118803571D01*
X66523810Y-118851190D01*
X66476191Y-118946429D01*
X66476191Y-119136905D01*
X66523810Y-119232143D01*
X66571429Y-119279762D01*
X66666667Y-119327381D01*
X66857144Y-119327381D01*
X66952382Y-119279762D01*
X67000001Y-119232143D01*
X67047620Y-119136905D01*
X67047620Y-118946429D01*
X67000001Y-118851190D01*
X66952382Y-118803571D01*
X66857144Y-118755952D01*
X68000001Y-119327381D02*
X67428572Y-119327381D01*
X67714286Y-119327381D02*
X67714286Y-118327381D01*
X67619048Y-118470238D01*
X67523810Y-118565476D01*
X67428572Y-118613095D01*
X68571429Y-118755952D02*
X68476191Y-118708333D01*
X68428572Y-118660714D01*
X68380953Y-118565476D01*
X68380953Y-118517857D01*
X68428572Y-118422619D01*
X68476191Y-118375000D01*
X68571429Y-118327381D01*
X68761906Y-118327381D01*
X68857144Y-118375000D01*
X68904763Y-118422619D01*
X68952382Y-118517857D01*
X68952382Y-118565476D01*
X68904763Y-118660714D01*
X68857144Y-118708333D01*
X68761906Y-118755952D01*
X68571429Y-118755952D01*
X68476191Y-118803571D01*
X68428572Y-118851190D01*
X68380953Y-118946429D01*
X68380953Y-119136905D01*
X68428572Y-119232143D01*
X68476191Y-119279762D01*
X68571429Y-119327381D01*
X68761906Y-119327381D01*
X68857144Y-119279762D01*
X68904763Y-119232143D01*
X68952382Y-119136905D01*
X68952382Y-118946429D01*
X68904763Y-118851190D01*
X68857144Y-118803571D01*
X68761906Y-118755952D01*
X81619047Y-117577381D02*
X81142856Y-117577381D01*
X81142856Y-116577381D01*
X82333333Y-117529762D02*
X82238095Y-117577381D01*
X82047618Y-117577381D01*
X81952380Y-117529762D01*
X81904761Y-117434524D01*
X81904761Y-117053571D01*
X81952380Y-116958333D01*
X82047618Y-116910714D01*
X82238095Y-116910714D01*
X82333333Y-116958333D01*
X82380952Y-117053571D01*
X82380952Y-117148810D01*
X81904761Y-117244048D01*
X83238095Y-117577381D02*
X83238095Y-116577381D01*
X83238095Y-117529762D02*
X83142857Y-117577381D01*
X82952380Y-117577381D01*
X82857142Y-117529762D01*
X82809523Y-117482143D01*
X82761904Y-117386905D01*
X82761904Y-117101190D01*
X82809523Y-117005952D01*
X82857142Y-116958333D01*
X82952380Y-116910714D01*
X83142857Y-116910714D01*
X83238095Y-116958333D01*
X83666666Y-117291667D02*
X84142857Y-117291667D01*
X83571428Y-117577381D02*
X83904761Y-116577381D01*
X84238095Y-117577381D01*
X85000000Y-117577381D02*
X85000000Y-116577381D01*
X85000000Y-117529762D02*
X84904762Y-117577381D01*
X84714285Y-117577381D01*
X84619047Y-117529762D01*
X84571428Y-117482143D01*
X84523809Y-117386905D01*
X84523809Y-117101190D01*
X84571428Y-117005952D01*
X84619047Y-116958333D01*
X84714285Y-116910714D01*
X84904762Y-116910714D01*
X85000000Y-116958333D01*
X85904762Y-117577381D02*
X85904762Y-117053571D01*
X85857143Y-116958333D01*
X85761905Y-116910714D01*
X85571428Y-116910714D01*
X85476190Y-116958333D01*
X85904762Y-117529762D02*
X85809524Y-117577381D01*
X85571428Y-117577381D01*
X85476190Y-117529762D01*
X85428571Y-117434524D01*
X85428571Y-117339286D01*
X85476190Y-117244048D01*
X85571428Y-117196429D01*
X85809524Y-117196429D01*
X85904762Y-117148810D01*
X86380952Y-116910714D02*
X86380952Y-117910714D01*
X86380952Y-116958333D02*
X86476190Y-116910714D01*
X86666667Y-116910714D01*
X86761905Y-116958333D01*
X86809524Y-117005952D01*
X86857143Y-117101190D01*
X86857143Y-117386905D01*
X86809524Y-117482143D01*
X86761905Y-117529762D01*
X86666667Y-117577381D01*
X86476190Y-117577381D01*
X86380952Y-117529762D01*
X87142857Y-116910714D02*
X87523809Y-116910714D01*
X87285714Y-116577381D02*
X87285714Y-117434524D01*
X87333333Y-117529762D01*
X87428571Y-117577381D01*
X87523809Y-117577381D01*
X88238096Y-117529762D02*
X88142858Y-117577381D01*
X87952381Y-117577381D01*
X87857143Y-117529762D01*
X87809524Y-117434524D01*
X87809524Y-117053571D01*
X87857143Y-116958333D01*
X87952381Y-116910714D01*
X88142858Y-116910714D01*
X88238096Y-116958333D01*
X88285715Y-117053571D01*
X88285715Y-117148810D01*
X87809524Y-117244048D01*
X88714286Y-117577381D02*
X88714286Y-116910714D01*
X88714286Y-117101190D02*
X88761905Y-117005952D01*
X88809524Y-116958333D01*
X88904762Y-116910714D01*
X89000001Y-116910714D01*
X79952381Y-118327381D02*
X80285714Y-119327381D01*
X80619048Y-118327381D01*
X81476191Y-119327381D02*
X80904762Y-119327381D01*
X81190476Y-119327381D02*
X81190476Y-118327381D01*
X81095238Y-118470238D01*
X81000000Y-118565476D01*
X80904762Y-118613095D01*
X82666667Y-118946429D02*
X83428572Y-118946429D01*
X85190477Y-119327381D02*
X84619048Y-119327381D01*
X84904762Y-119327381D02*
X84904762Y-118327381D01*
X84809524Y-118470238D01*
X84714286Y-118565476D01*
X84619048Y-118613095D01*
X85666667Y-119327381D02*
X85857143Y-119327381D01*
X85952382Y-119279762D01*
X86000001Y-119232143D01*
X86095239Y-119089286D01*
X86142858Y-118898810D01*
X86142858Y-118517857D01*
X86095239Y-118422619D01*
X86047620Y-118375000D01*
X85952382Y-118327381D01*
X85761905Y-118327381D01*
X85666667Y-118375000D01*
X85619048Y-118422619D01*
X85571429Y-118517857D01*
X85571429Y-118755952D01*
X85619048Y-118851190D01*
X85666667Y-118898810D01*
X85761905Y-118946429D01*
X85952382Y-118946429D01*
X86047620Y-118898810D01*
X86095239Y-118851190D01*
X86142858Y-118755952D01*
X86761905Y-118327381D02*
X86857144Y-118327381D01*
X86952382Y-118375000D01*
X87000001Y-118422619D01*
X87047620Y-118517857D01*
X87095239Y-118708333D01*
X87095239Y-118946429D01*
X87047620Y-119136905D01*
X87000001Y-119232143D01*
X86952382Y-119279762D01*
X86857144Y-119327381D01*
X86761905Y-119327381D01*
X86666667Y-119279762D01*
X86619048Y-119232143D01*
X86571429Y-119136905D01*
X86523810Y-118946429D01*
X86523810Y-118708333D01*
X86571429Y-118517857D01*
X86619048Y-118422619D01*
X86666667Y-118375000D01*
X86761905Y-118327381D01*
X87666667Y-118755952D02*
X87571429Y-118708333D01*
X87523810Y-118660714D01*
X87476191Y-118565476D01*
X87476191Y-118517857D01*
X87523810Y-118422619D01*
X87571429Y-118375000D01*
X87666667Y-118327381D01*
X87857144Y-118327381D01*
X87952382Y-118375000D01*
X88000001Y-118422619D01*
X88047620Y-118517857D01*
X88047620Y-118565476D01*
X88000001Y-118660714D01*
X87952382Y-118708333D01*
X87857144Y-118755952D01*
X87666667Y-118755952D01*
X87571429Y-118803571D01*
X87523810Y-118851190D01*
X87476191Y-118946429D01*
X87476191Y-119136905D01*
X87523810Y-119232143D01*
X87571429Y-119279762D01*
X87666667Y-119327381D01*
X87857144Y-119327381D01*
X87952382Y-119279762D01*
X88000001Y-119232143D01*
X88047620Y-119136905D01*
X88047620Y-118946429D01*
X88000001Y-118851190D01*
X87952382Y-118803571D01*
X87857144Y-118755952D01*
X89000001Y-119327381D02*
X88428572Y-119327381D01*
X88714286Y-119327381D02*
X88714286Y-118327381D01*
X88619048Y-118470238D01*
X88523810Y-118565476D01*
X88428572Y-118613095D01*
X89571429Y-118755952D02*
X89476191Y-118708333D01*
X89428572Y-118660714D01*
X89380953Y-118565476D01*
X89380953Y-118517857D01*
X89428572Y-118422619D01*
X89476191Y-118375000D01*
X89571429Y-118327381D01*
X89761906Y-118327381D01*
X89857144Y-118375000D01*
X89904763Y-118422619D01*
X89952382Y-118517857D01*
X89952382Y-118565476D01*
X89904763Y-118660714D01*
X89857144Y-118708333D01*
X89761906Y-118755952D01*
X89571429Y-118755952D01*
X89476191Y-118803571D01*
X89428572Y-118851190D01*
X89380953Y-118946429D01*
X89380953Y-119136905D01*
X89428572Y-119232143D01*
X89476191Y-119279762D01*
X89571429Y-119327381D01*
X89761906Y-119327381D01*
X89857144Y-119279762D01*
X89904763Y-119232143D01*
X89952382Y-119136905D01*
X89952382Y-118946429D01*
X89904763Y-118851190D01*
X89857144Y-118803571D01*
X89761906Y-118755952D01*
X102619047Y-117577381D02*
X102142856Y-117577381D01*
X102142856Y-116577381D01*
X103333333Y-117529762D02*
X103238095Y-117577381D01*
X103047618Y-117577381D01*
X102952380Y-117529762D01*
X102904761Y-117434524D01*
X102904761Y-117053571D01*
X102952380Y-116958333D01*
X103047618Y-116910714D01*
X103238095Y-116910714D01*
X103333333Y-116958333D01*
X103380952Y-117053571D01*
X103380952Y-117148810D01*
X102904761Y-117244048D01*
X104238095Y-117577381D02*
X104238095Y-116577381D01*
X104238095Y-117529762D02*
X104142857Y-117577381D01*
X103952380Y-117577381D01*
X103857142Y-117529762D01*
X103809523Y-117482143D01*
X103761904Y-117386905D01*
X103761904Y-117101190D01*
X103809523Y-117005952D01*
X103857142Y-116958333D01*
X103952380Y-116910714D01*
X104142857Y-116910714D01*
X104238095Y-116958333D01*
X104666666Y-117291667D02*
X105142857Y-117291667D01*
X104571428Y-117577381D02*
X104904761Y-116577381D01*
X105238095Y-117577381D01*
X106000000Y-117577381D02*
X106000000Y-116577381D01*
X106000000Y-117529762D02*
X105904762Y-117577381D01*
X105714285Y-117577381D01*
X105619047Y-117529762D01*
X105571428Y-117482143D01*
X105523809Y-117386905D01*
X105523809Y-117101190D01*
X105571428Y-117005952D01*
X105619047Y-116958333D01*
X105714285Y-116910714D01*
X105904762Y-116910714D01*
X106000000Y-116958333D01*
X106904762Y-117577381D02*
X106904762Y-117053571D01*
X106857143Y-116958333D01*
X106761905Y-116910714D01*
X106571428Y-116910714D01*
X106476190Y-116958333D01*
X106904762Y-117529762D02*
X106809524Y-117577381D01*
X106571428Y-117577381D01*
X106476190Y-117529762D01*
X106428571Y-117434524D01*
X106428571Y-117339286D01*
X106476190Y-117244048D01*
X106571428Y-117196429D01*
X106809524Y-117196429D01*
X106904762Y-117148810D01*
X107380952Y-116910714D02*
X107380952Y-117910714D01*
X107380952Y-116958333D02*
X107476190Y-116910714D01*
X107666667Y-116910714D01*
X107761905Y-116958333D01*
X107809524Y-117005952D01*
X107857143Y-117101190D01*
X107857143Y-117386905D01*
X107809524Y-117482143D01*
X107761905Y-117529762D01*
X107666667Y-117577381D01*
X107476190Y-117577381D01*
X107380952Y-117529762D01*
X108142857Y-116910714D02*
X108523809Y-116910714D01*
X108285714Y-116577381D02*
X108285714Y-117434524D01*
X108333333Y-117529762D01*
X108428571Y-117577381D01*
X108523809Y-117577381D01*
X109238096Y-117529762D02*
X109142858Y-117577381D01*
X108952381Y-117577381D01*
X108857143Y-117529762D01*
X108809524Y-117434524D01*
X108809524Y-117053571D01*
X108857143Y-116958333D01*
X108952381Y-116910714D01*
X109142858Y-116910714D01*
X109238096Y-116958333D01*
X109285715Y-117053571D01*
X109285715Y-117148810D01*
X108809524Y-117244048D01*
X109714286Y-117577381D02*
X109714286Y-116910714D01*
X109714286Y-117101190D02*
X109761905Y-117005952D01*
X109809524Y-116958333D01*
X109904762Y-116910714D01*
X110000001Y-116910714D01*
X100952381Y-118327381D02*
X101285714Y-119327381D01*
X101619048Y-118327381D01*
X102476191Y-119327381D02*
X101904762Y-119327381D01*
X102190476Y-119327381D02*
X102190476Y-118327381D01*
X102095238Y-118470238D01*
X102000000Y-118565476D01*
X101904762Y-118613095D01*
X103666667Y-118946429D02*
X104428572Y-118946429D01*
X106190477Y-119327381D02*
X105619048Y-119327381D01*
X105904762Y-119327381D02*
X105904762Y-118327381D01*
X105809524Y-118470238D01*
X105714286Y-118565476D01*
X105619048Y-118613095D01*
X106666667Y-119327381D02*
X106857143Y-119327381D01*
X106952382Y-119279762D01*
X107000001Y-119232143D01*
X107095239Y-119089286D01*
X107142858Y-118898810D01*
X107142858Y-118517857D01*
X107095239Y-118422619D01*
X107047620Y-118375000D01*
X106952382Y-118327381D01*
X106761905Y-118327381D01*
X106666667Y-118375000D01*
X106619048Y-118422619D01*
X106571429Y-118517857D01*
X106571429Y-118755952D01*
X106619048Y-118851190D01*
X106666667Y-118898810D01*
X106761905Y-118946429D01*
X106952382Y-118946429D01*
X107047620Y-118898810D01*
X107095239Y-118851190D01*
X107142858Y-118755952D01*
X107761905Y-118327381D02*
X107857144Y-118327381D01*
X107952382Y-118375000D01*
X108000001Y-118422619D01*
X108047620Y-118517857D01*
X108095239Y-118708333D01*
X108095239Y-118946429D01*
X108047620Y-119136905D01*
X108000001Y-119232143D01*
X107952382Y-119279762D01*
X107857144Y-119327381D01*
X107761905Y-119327381D01*
X107666667Y-119279762D01*
X107619048Y-119232143D01*
X107571429Y-119136905D01*
X107523810Y-118946429D01*
X107523810Y-118708333D01*
X107571429Y-118517857D01*
X107619048Y-118422619D01*
X107666667Y-118375000D01*
X107761905Y-118327381D01*
X108666667Y-118755952D02*
X108571429Y-118708333D01*
X108523810Y-118660714D01*
X108476191Y-118565476D01*
X108476191Y-118517857D01*
X108523810Y-118422619D01*
X108571429Y-118375000D01*
X108666667Y-118327381D01*
X108857144Y-118327381D01*
X108952382Y-118375000D01*
X109000001Y-118422619D01*
X109047620Y-118517857D01*
X109047620Y-118565476D01*
X109000001Y-118660714D01*
X108952382Y-118708333D01*
X108857144Y-118755952D01*
X108666667Y-118755952D01*
X108571429Y-118803571D01*
X108523810Y-118851190D01*
X108476191Y-118946429D01*
X108476191Y-119136905D01*
X108523810Y-119232143D01*
X108571429Y-119279762D01*
X108666667Y-119327381D01*
X108857144Y-119327381D01*
X108952382Y-119279762D01*
X109000001Y-119232143D01*
X109047620Y-119136905D01*
X109047620Y-118946429D01*
X109000001Y-118851190D01*
X108952382Y-118803571D01*
X108857144Y-118755952D01*
X110000001Y-119327381D02*
X109428572Y-119327381D01*
X109714286Y-119327381D02*
X109714286Y-118327381D01*
X109619048Y-118470238D01*
X109523810Y-118565476D01*
X109428572Y-118613095D01*
X110571429Y-118755952D02*
X110476191Y-118708333D01*
X110428572Y-118660714D01*
X110380953Y-118565476D01*
X110380953Y-118517857D01*
X110428572Y-118422619D01*
X110476191Y-118375000D01*
X110571429Y-118327381D01*
X110761906Y-118327381D01*
X110857144Y-118375000D01*
X110904763Y-118422619D01*
X110952382Y-118517857D01*
X110952382Y-118565476D01*
X110904763Y-118660714D01*
X110857144Y-118708333D01*
X110761906Y-118755952D01*
X110571429Y-118755952D01*
X110476191Y-118803571D01*
X110428572Y-118851190D01*
X110380953Y-118946429D01*
X110380953Y-119136905D01*
X110428572Y-119232143D01*
X110476191Y-119279762D01*
X110571429Y-119327381D01*
X110761906Y-119327381D01*
X110857144Y-119279762D01*
X110904763Y-119232143D01*
X110952382Y-119136905D01*
X110952382Y-118946429D01*
X110904763Y-118851190D01*
X110857144Y-118803571D01*
X110761906Y-118755952D01*
X123619047Y-117577381D02*
X123142856Y-117577381D01*
X123142856Y-116577381D01*
X124333333Y-117529762D02*
X124238095Y-117577381D01*
X124047618Y-117577381D01*
X123952380Y-117529762D01*
X123904761Y-117434524D01*
X123904761Y-117053571D01*
X123952380Y-116958333D01*
X124047618Y-116910714D01*
X124238095Y-116910714D01*
X124333333Y-116958333D01*
X124380952Y-117053571D01*
X124380952Y-117148810D01*
X123904761Y-117244048D01*
X125238095Y-117577381D02*
X125238095Y-116577381D01*
X125238095Y-117529762D02*
X125142857Y-117577381D01*
X124952380Y-117577381D01*
X124857142Y-117529762D01*
X124809523Y-117482143D01*
X124761904Y-117386905D01*
X124761904Y-117101190D01*
X124809523Y-117005952D01*
X124857142Y-116958333D01*
X124952380Y-116910714D01*
X125142857Y-116910714D01*
X125238095Y-116958333D01*
X125666666Y-117291667D02*
X126142857Y-117291667D01*
X125571428Y-117577381D02*
X125904761Y-116577381D01*
X126238095Y-117577381D01*
X127000000Y-117577381D02*
X127000000Y-116577381D01*
X127000000Y-117529762D02*
X126904762Y-117577381D01*
X126714285Y-117577381D01*
X126619047Y-117529762D01*
X126571428Y-117482143D01*
X126523809Y-117386905D01*
X126523809Y-117101190D01*
X126571428Y-117005952D01*
X126619047Y-116958333D01*
X126714285Y-116910714D01*
X126904762Y-116910714D01*
X127000000Y-116958333D01*
X127904762Y-117577381D02*
X127904762Y-117053571D01*
X127857143Y-116958333D01*
X127761905Y-116910714D01*
X127571428Y-116910714D01*
X127476190Y-116958333D01*
X127904762Y-117529762D02*
X127809524Y-117577381D01*
X127571428Y-117577381D01*
X127476190Y-117529762D01*
X127428571Y-117434524D01*
X127428571Y-117339286D01*
X127476190Y-117244048D01*
X127571428Y-117196429D01*
X127809524Y-117196429D01*
X127904762Y-117148810D01*
X128380952Y-116910714D02*
X128380952Y-117910714D01*
X128380952Y-116958333D02*
X128476190Y-116910714D01*
X128666667Y-116910714D01*
X128761905Y-116958333D01*
X128809524Y-117005952D01*
X128857143Y-117101190D01*
X128857143Y-117386905D01*
X128809524Y-117482143D01*
X128761905Y-117529762D01*
X128666667Y-117577381D01*
X128476190Y-117577381D01*
X128380952Y-117529762D01*
X129142857Y-116910714D02*
X129523809Y-116910714D01*
X129285714Y-116577381D02*
X129285714Y-117434524D01*
X129333333Y-117529762D01*
X129428571Y-117577381D01*
X129523809Y-117577381D01*
X130238096Y-117529762D02*
X130142858Y-117577381D01*
X129952381Y-117577381D01*
X129857143Y-117529762D01*
X129809524Y-117434524D01*
X129809524Y-117053571D01*
X129857143Y-116958333D01*
X129952381Y-116910714D01*
X130142858Y-116910714D01*
X130238096Y-116958333D01*
X130285715Y-117053571D01*
X130285715Y-117148810D01*
X129809524Y-117244048D01*
X130714286Y-117577381D02*
X130714286Y-116910714D01*
X130714286Y-117101190D02*
X130761905Y-117005952D01*
X130809524Y-116958333D01*
X130904762Y-116910714D01*
X131000001Y-116910714D01*
X121952381Y-118327381D02*
X122285714Y-119327381D01*
X122619048Y-118327381D01*
X123476191Y-119327381D02*
X122904762Y-119327381D01*
X123190476Y-119327381D02*
X123190476Y-118327381D01*
X123095238Y-118470238D01*
X123000000Y-118565476D01*
X122904762Y-118613095D01*
X124666667Y-118946429D02*
X125428572Y-118946429D01*
X127190477Y-119327381D02*
X126619048Y-119327381D01*
X126904762Y-119327381D02*
X126904762Y-118327381D01*
X126809524Y-118470238D01*
X126714286Y-118565476D01*
X126619048Y-118613095D01*
X127666667Y-119327381D02*
X127857143Y-119327381D01*
X127952382Y-119279762D01*
X128000001Y-119232143D01*
X128095239Y-119089286D01*
X128142858Y-118898810D01*
X128142858Y-118517857D01*
X128095239Y-118422619D01*
X128047620Y-118375000D01*
X127952382Y-118327381D01*
X127761905Y-118327381D01*
X127666667Y-118375000D01*
X127619048Y-118422619D01*
X127571429Y-118517857D01*
X127571429Y-118755952D01*
X127619048Y-118851190D01*
X127666667Y-118898810D01*
X127761905Y-118946429D01*
X127952382Y-118946429D01*
X128047620Y-118898810D01*
X128095239Y-118851190D01*
X128142858Y-118755952D01*
X128761905Y-118327381D02*
X128857144Y-118327381D01*
X128952382Y-118375000D01*
X129000001Y-118422619D01*
X129047620Y-118517857D01*
X129095239Y-118708333D01*
X129095239Y-118946429D01*
X129047620Y-119136905D01*
X129000001Y-119232143D01*
X128952382Y-119279762D01*
X128857144Y-119327381D01*
X128761905Y-119327381D01*
X128666667Y-119279762D01*
X128619048Y-119232143D01*
X128571429Y-119136905D01*
X128523810Y-118946429D01*
X128523810Y-118708333D01*
X128571429Y-118517857D01*
X128619048Y-118422619D01*
X128666667Y-118375000D01*
X128761905Y-118327381D01*
X129666667Y-118755952D02*
X129571429Y-118708333D01*
X129523810Y-118660714D01*
X129476191Y-118565476D01*
X129476191Y-118517857D01*
X129523810Y-118422619D01*
X129571429Y-118375000D01*
X129666667Y-118327381D01*
X129857144Y-118327381D01*
X129952382Y-118375000D01*
X130000001Y-118422619D01*
X130047620Y-118517857D01*
X130047620Y-118565476D01*
X130000001Y-118660714D01*
X129952382Y-118708333D01*
X129857144Y-118755952D01*
X129666667Y-118755952D01*
X129571429Y-118803571D01*
X129523810Y-118851190D01*
X129476191Y-118946429D01*
X129476191Y-119136905D01*
X129523810Y-119232143D01*
X129571429Y-119279762D01*
X129666667Y-119327381D01*
X129857144Y-119327381D01*
X129952382Y-119279762D01*
X130000001Y-119232143D01*
X130047620Y-119136905D01*
X130047620Y-118946429D01*
X130000001Y-118851190D01*
X129952382Y-118803571D01*
X129857144Y-118755952D01*
X131000001Y-119327381D02*
X130428572Y-119327381D01*
X130714286Y-119327381D02*
X130714286Y-118327381D01*
X130619048Y-118470238D01*
X130523810Y-118565476D01*
X130428572Y-118613095D01*
X131571429Y-118755952D02*
X131476191Y-118708333D01*
X131428572Y-118660714D01*
X131380953Y-118565476D01*
X131380953Y-118517857D01*
X131428572Y-118422619D01*
X131476191Y-118375000D01*
X131571429Y-118327381D01*
X131761906Y-118327381D01*
X131857144Y-118375000D01*
X131904763Y-118422619D01*
X131952382Y-118517857D01*
X131952382Y-118565476D01*
X131904763Y-118660714D01*
X131857144Y-118708333D01*
X131761906Y-118755952D01*
X131571429Y-118755952D01*
X131476191Y-118803571D01*
X131428572Y-118851190D01*
X131380953Y-118946429D01*
X131380953Y-119136905D01*
X131428572Y-119232143D01*
X131476191Y-119279762D01*
X131571429Y-119327381D01*
X131761906Y-119327381D01*
X131857144Y-119279762D01*
X131904763Y-119232143D01*
X131952382Y-119136905D01*
X131952382Y-118946429D01*
X131904763Y-118851190D01*
X131857144Y-118803571D01*
X131761906Y-118755952D01*
X123619047Y-92077381D02*
X123142856Y-92077381D01*
X123142856Y-91077381D01*
X124333333Y-92029762D02*
X124238095Y-92077381D01*
X124047618Y-92077381D01*
X123952380Y-92029762D01*
X123904761Y-91934524D01*
X123904761Y-91553571D01*
X123952380Y-91458333D01*
X124047618Y-91410714D01*
X124238095Y-91410714D01*
X124333333Y-91458333D01*
X124380952Y-91553571D01*
X124380952Y-91648810D01*
X123904761Y-91744048D01*
X125238095Y-92077381D02*
X125238095Y-91077381D01*
X125238095Y-92029762D02*
X125142857Y-92077381D01*
X124952380Y-92077381D01*
X124857142Y-92029762D01*
X124809523Y-91982143D01*
X124761904Y-91886905D01*
X124761904Y-91601190D01*
X124809523Y-91505952D01*
X124857142Y-91458333D01*
X124952380Y-91410714D01*
X125142857Y-91410714D01*
X125238095Y-91458333D01*
X125666666Y-91791667D02*
X126142857Y-91791667D01*
X125571428Y-92077381D02*
X125904761Y-91077381D01*
X126238095Y-92077381D01*
X127000000Y-92077381D02*
X127000000Y-91077381D01*
X127000000Y-92029762D02*
X126904762Y-92077381D01*
X126714285Y-92077381D01*
X126619047Y-92029762D01*
X126571428Y-91982143D01*
X126523809Y-91886905D01*
X126523809Y-91601190D01*
X126571428Y-91505952D01*
X126619047Y-91458333D01*
X126714285Y-91410714D01*
X126904762Y-91410714D01*
X127000000Y-91458333D01*
X127904762Y-92077381D02*
X127904762Y-91553571D01*
X127857143Y-91458333D01*
X127761905Y-91410714D01*
X127571428Y-91410714D01*
X127476190Y-91458333D01*
X127904762Y-92029762D02*
X127809524Y-92077381D01*
X127571428Y-92077381D01*
X127476190Y-92029762D01*
X127428571Y-91934524D01*
X127428571Y-91839286D01*
X127476190Y-91744048D01*
X127571428Y-91696429D01*
X127809524Y-91696429D01*
X127904762Y-91648810D01*
X128380952Y-91410714D02*
X128380952Y-92410714D01*
X128380952Y-91458333D02*
X128476190Y-91410714D01*
X128666667Y-91410714D01*
X128761905Y-91458333D01*
X128809524Y-91505952D01*
X128857143Y-91601190D01*
X128857143Y-91886905D01*
X128809524Y-91982143D01*
X128761905Y-92029762D01*
X128666667Y-92077381D01*
X128476190Y-92077381D01*
X128380952Y-92029762D01*
X129142857Y-91410714D02*
X129523809Y-91410714D01*
X129285714Y-91077381D02*
X129285714Y-91934524D01*
X129333333Y-92029762D01*
X129428571Y-92077381D01*
X129523809Y-92077381D01*
X130238096Y-92029762D02*
X130142858Y-92077381D01*
X129952381Y-92077381D01*
X129857143Y-92029762D01*
X129809524Y-91934524D01*
X129809524Y-91553571D01*
X129857143Y-91458333D01*
X129952381Y-91410714D01*
X130142858Y-91410714D01*
X130238096Y-91458333D01*
X130285715Y-91553571D01*
X130285715Y-91648810D01*
X129809524Y-91744048D01*
X130714286Y-92077381D02*
X130714286Y-91410714D01*
X130714286Y-91601190D02*
X130761905Y-91505952D01*
X130809524Y-91458333D01*
X130904762Y-91410714D01*
X131000001Y-91410714D01*
X121952381Y-92827381D02*
X122285714Y-93827381D01*
X122619048Y-92827381D01*
X123476191Y-93827381D02*
X122904762Y-93827381D01*
X123190476Y-93827381D02*
X123190476Y-92827381D01*
X123095238Y-92970238D01*
X123000000Y-93065476D01*
X122904762Y-93113095D01*
X124666667Y-93446429D02*
X125428572Y-93446429D01*
X127190477Y-93827381D02*
X126619048Y-93827381D01*
X126904762Y-93827381D02*
X126904762Y-92827381D01*
X126809524Y-92970238D01*
X126714286Y-93065476D01*
X126619048Y-93113095D01*
X127666667Y-93827381D02*
X127857143Y-93827381D01*
X127952382Y-93779762D01*
X128000001Y-93732143D01*
X128095239Y-93589286D01*
X128142858Y-93398810D01*
X128142858Y-93017857D01*
X128095239Y-92922619D01*
X128047620Y-92875000D01*
X127952382Y-92827381D01*
X127761905Y-92827381D01*
X127666667Y-92875000D01*
X127619048Y-92922619D01*
X127571429Y-93017857D01*
X127571429Y-93255952D01*
X127619048Y-93351190D01*
X127666667Y-93398810D01*
X127761905Y-93446429D01*
X127952382Y-93446429D01*
X128047620Y-93398810D01*
X128095239Y-93351190D01*
X128142858Y-93255952D01*
X128761905Y-92827381D02*
X128857144Y-92827381D01*
X128952382Y-92875000D01*
X129000001Y-92922619D01*
X129047620Y-93017857D01*
X129095239Y-93208333D01*
X129095239Y-93446429D01*
X129047620Y-93636905D01*
X129000001Y-93732143D01*
X128952382Y-93779762D01*
X128857144Y-93827381D01*
X128761905Y-93827381D01*
X128666667Y-93779762D01*
X128619048Y-93732143D01*
X128571429Y-93636905D01*
X128523810Y-93446429D01*
X128523810Y-93208333D01*
X128571429Y-93017857D01*
X128619048Y-92922619D01*
X128666667Y-92875000D01*
X128761905Y-92827381D01*
X129666667Y-93255952D02*
X129571429Y-93208333D01*
X129523810Y-93160714D01*
X129476191Y-93065476D01*
X129476191Y-93017857D01*
X129523810Y-92922619D01*
X129571429Y-92875000D01*
X129666667Y-92827381D01*
X129857144Y-92827381D01*
X129952382Y-92875000D01*
X130000001Y-92922619D01*
X130047620Y-93017857D01*
X130047620Y-93065476D01*
X130000001Y-93160714D01*
X129952382Y-93208333D01*
X129857144Y-93255952D01*
X129666667Y-93255952D01*
X129571429Y-93303571D01*
X129523810Y-93351190D01*
X129476191Y-93446429D01*
X129476191Y-93636905D01*
X129523810Y-93732143D01*
X129571429Y-93779762D01*
X129666667Y-93827381D01*
X129857144Y-93827381D01*
X129952382Y-93779762D01*
X130000001Y-93732143D01*
X130047620Y-93636905D01*
X130047620Y-93446429D01*
X130000001Y-93351190D01*
X129952382Y-93303571D01*
X129857144Y-93255952D01*
X131000001Y-93827381D02*
X130428572Y-93827381D01*
X130714286Y-93827381D02*
X130714286Y-92827381D01*
X130619048Y-92970238D01*
X130523810Y-93065476D01*
X130428572Y-93113095D01*
X131571429Y-93255952D02*
X131476191Y-93208333D01*
X131428572Y-93160714D01*
X131380953Y-93065476D01*
X131380953Y-93017857D01*
X131428572Y-92922619D01*
X131476191Y-92875000D01*
X131571429Y-92827381D01*
X131761906Y-92827381D01*
X131857144Y-92875000D01*
X131904763Y-92922619D01*
X131952382Y-93017857D01*
X131952382Y-93065476D01*
X131904763Y-93160714D01*
X131857144Y-93208333D01*
X131761906Y-93255952D01*
X131571429Y-93255952D01*
X131476191Y-93303571D01*
X131428572Y-93351190D01*
X131380953Y-93446429D01*
X131380953Y-93636905D01*
X131428572Y-93732143D01*
X131476191Y-93779762D01*
X131571429Y-93827381D01*
X131761906Y-93827381D01*
X131857144Y-93779762D01*
X131904763Y-93732143D01*
X131952382Y-93636905D01*
X131952382Y-93446429D01*
X131904763Y-93351190D01*
X131857144Y-93303571D01*
X131761906Y-93255952D01*
X102619047Y-92077381D02*
X102142856Y-92077381D01*
X102142856Y-91077381D01*
X103333333Y-92029762D02*
X103238095Y-92077381D01*
X103047618Y-92077381D01*
X102952380Y-92029762D01*
X102904761Y-91934524D01*
X102904761Y-91553571D01*
X102952380Y-91458333D01*
X103047618Y-91410714D01*
X103238095Y-91410714D01*
X103333333Y-91458333D01*
X103380952Y-91553571D01*
X103380952Y-91648810D01*
X102904761Y-91744048D01*
X104238095Y-92077381D02*
X104238095Y-91077381D01*
X104238095Y-92029762D02*
X104142857Y-92077381D01*
X103952380Y-92077381D01*
X103857142Y-92029762D01*
X103809523Y-91982143D01*
X103761904Y-91886905D01*
X103761904Y-91601190D01*
X103809523Y-91505952D01*
X103857142Y-91458333D01*
X103952380Y-91410714D01*
X104142857Y-91410714D01*
X104238095Y-91458333D01*
X104666666Y-91791667D02*
X105142857Y-91791667D01*
X104571428Y-92077381D02*
X104904761Y-91077381D01*
X105238095Y-92077381D01*
X106000000Y-92077381D02*
X106000000Y-91077381D01*
X106000000Y-92029762D02*
X105904762Y-92077381D01*
X105714285Y-92077381D01*
X105619047Y-92029762D01*
X105571428Y-91982143D01*
X105523809Y-91886905D01*
X105523809Y-91601190D01*
X105571428Y-91505952D01*
X105619047Y-91458333D01*
X105714285Y-91410714D01*
X105904762Y-91410714D01*
X106000000Y-91458333D01*
X106904762Y-92077381D02*
X106904762Y-91553571D01*
X106857143Y-91458333D01*
X106761905Y-91410714D01*
X106571428Y-91410714D01*
X106476190Y-91458333D01*
X106904762Y-92029762D02*
X106809524Y-92077381D01*
X106571428Y-92077381D01*
X106476190Y-92029762D01*
X106428571Y-91934524D01*
X106428571Y-91839286D01*
X106476190Y-91744048D01*
X106571428Y-91696429D01*
X106809524Y-91696429D01*
X106904762Y-91648810D01*
X107380952Y-91410714D02*
X107380952Y-92410714D01*
X107380952Y-91458333D02*
X107476190Y-91410714D01*
X107666667Y-91410714D01*
X107761905Y-91458333D01*
X107809524Y-91505952D01*
X107857143Y-91601190D01*
X107857143Y-91886905D01*
X107809524Y-91982143D01*
X107761905Y-92029762D01*
X107666667Y-92077381D01*
X107476190Y-92077381D01*
X107380952Y-92029762D01*
X108142857Y-91410714D02*
X108523809Y-91410714D01*
X108285714Y-91077381D02*
X108285714Y-91934524D01*
X108333333Y-92029762D01*
X108428571Y-92077381D01*
X108523809Y-92077381D01*
X109238096Y-92029762D02*
X109142858Y-92077381D01*
X108952381Y-92077381D01*
X108857143Y-92029762D01*
X108809524Y-91934524D01*
X108809524Y-91553571D01*
X108857143Y-91458333D01*
X108952381Y-91410714D01*
X109142858Y-91410714D01*
X109238096Y-91458333D01*
X109285715Y-91553571D01*
X109285715Y-91648810D01*
X108809524Y-91744048D01*
X109714286Y-92077381D02*
X109714286Y-91410714D01*
X109714286Y-91601190D02*
X109761905Y-91505952D01*
X109809524Y-91458333D01*
X109904762Y-91410714D01*
X110000001Y-91410714D01*
X100952381Y-92827381D02*
X101285714Y-93827381D01*
X101619048Y-92827381D01*
X102476191Y-93827381D02*
X101904762Y-93827381D01*
X102190476Y-93827381D02*
X102190476Y-92827381D01*
X102095238Y-92970238D01*
X102000000Y-93065476D01*
X101904762Y-93113095D01*
X103666667Y-93446429D02*
X104428572Y-93446429D01*
X106190477Y-93827381D02*
X105619048Y-93827381D01*
X105904762Y-93827381D02*
X105904762Y-92827381D01*
X105809524Y-92970238D01*
X105714286Y-93065476D01*
X105619048Y-93113095D01*
X106666667Y-93827381D02*
X106857143Y-93827381D01*
X106952382Y-93779762D01*
X107000001Y-93732143D01*
X107095239Y-93589286D01*
X107142858Y-93398810D01*
X107142858Y-93017857D01*
X107095239Y-92922619D01*
X107047620Y-92875000D01*
X106952382Y-92827381D01*
X106761905Y-92827381D01*
X106666667Y-92875000D01*
X106619048Y-92922619D01*
X106571429Y-93017857D01*
X106571429Y-93255952D01*
X106619048Y-93351190D01*
X106666667Y-93398810D01*
X106761905Y-93446429D01*
X106952382Y-93446429D01*
X107047620Y-93398810D01*
X107095239Y-93351190D01*
X107142858Y-93255952D01*
X107761905Y-92827381D02*
X107857144Y-92827381D01*
X107952382Y-92875000D01*
X108000001Y-92922619D01*
X108047620Y-93017857D01*
X108095239Y-93208333D01*
X108095239Y-93446429D01*
X108047620Y-93636905D01*
X108000001Y-93732143D01*
X107952382Y-93779762D01*
X107857144Y-93827381D01*
X107761905Y-93827381D01*
X107666667Y-93779762D01*
X107619048Y-93732143D01*
X107571429Y-93636905D01*
X107523810Y-93446429D01*
X107523810Y-93208333D01*
X107571429Y-93017857D01*
X107619048Y-92922619D01*
X107666667Y-92875000D01*
X107761905Y-92827381D01*
X108666667Y-93255952D02*
X108571429Y-93208333D01*
X108523810Y-93160714D01*
X108476191Y-93065476D01*
X108476191Y-93017857D01*
X108523810Y-92922619D01*
X108571429Y-92875000D01*
X108666667Y-92827381D01*
X108857144Y-92827381D01*
X108952382Y-92875000D01*
X109000001Y-92922619D01*
X109047620Y-93017857D01*
X109047620Y-93065476D01*
X109000001Y-93160714D01*
X108952382Y-93208333D01*
X108857144Y-93255952D01*
X108666667Y-93255952D01*
X108571429Y-93303571D01*
X108523810Y-93351190D01*
X108476191Y-93446429D01*
X108476191Y-93636905D01*
X108523810Y-93732143D01*
X108571429Y-93779762D01*
X108666667Y-93827381D01*
X108857144Y-93827381D01*
X108952382Y-93779762D01*
X109000001Y-93732143D01*
X109047620Y-93636905D01*
X109047620Y-93446429D01*
X109000001Y-93351190D01*
X108952382Y-93303571D01*
X108857144Y-93255952D01*
X110000001Y-93827381D02*
X109428572Y-93827381D01*
X109714286Y-93827381D02*
X109714286Y-92827381D01*
X109619048Y-92970238D01*
X109523810Y-93065476D01*
X109428572Y-93113095D01*
X110571429Y-93255952D02*
X110476191Y-93208333D01*
X110428572Y-93160714D01*
X110380953Y-93065476D01*
X110380953Y-93017857D01*
X110428572Y-92922619D01*
X110476191Y-92875000D01*
X110571429Y-92827381D01*
X110761906Y-92827381D01*
X110857144Y-92875000D01*
X110904763Y-92922619D01*
X110952382Y-93017857D01*
X110952382Y-93065476D01*
X110904763Y-93160714D01*
X110857144Y-93208333D01*
X110761906Y-93255952D01*
X110571429Y-93255952D01*
X110476191Y-93303571D01*
X110428572Y-93351190D01*
X110380953Y-93446429D01*
X110380953Y-93636905D01*
X110428572Y-93732143D01*
X110476191Y-93779762D01*
X110571429Y-93827381D01*
X110761906Y-93827381D01*
X110857144Y-93779762D01*
X110904763Y-93732143D01*
X110952382Y-93636905D01*
X110952382Y-93446429D01*
X110904763Y-93351190D01*
X110857144Y-93303571D01*
X110761906Y-93255952D01*
X81619047Y-92077381D02*
X81142856Y-92077381D01*
X81142856Y-91077381D01*
X82333333Y-92029762D02*
X82238095Y-92077381D01*
X82047618Y-92077381D01*
X81952380Y-92029762D01*
X81904761Y-91934524D01*
X81904761Y-91553571D01*
X81952380Y-91458333D01*
X82047618Y-91410714D01*
X82238095Y-91410714D01*
X82333333Y-91458333D01*
X82380952Y-91553571D01*
X82380952Y-91648810D01*
X81904761Y-91744048D01*
X83238095Y-92077381D02*
X83238095Y-91077381D01*
X83238095Y-92029762D02*
X83142857Y-92077381D01*
X82952380Y-92077381D01*
X82857142Y-92029762D01*
X82809523Y-91982143D01*
X82761904Y-91886905D01*
X82761904Y-91601190D01*
X82809523Y-91505952D01*
X82857142Y-91458333D01*
X82952380Y-91410714D01*
X83142857Y-91410714D01*
X83238095Y-91458333D01*
X83666666Y-91791667D02*
X84142857Y-91791667D01*
X83571428Y-92077381D02*
X83904761Y-91077381D01*
X84238095Y-92077381D01*
X85000000Y-92077381D02*
X85000000Y-91077381D01*
X85000000Y-92029762D02*
X84904762Y-92077381D01*
X84714285Y-92077381D01*
X84619047Y-92029762D01*
X84571428Y-91982143D01*
X84523809Y-91886905D01*
X84523809Y-91601190D01*
X84571428Y-91505952D01*
X84619047Y-91458333D01*
X84714285Y-91410714D01*
X84904762Y-91410714D01*
X85000000Y-91458333D01*
X85904762Y-92077381D02*
X85904762Y-91553571D01*
X85857143Y-91458333D01*
X85761905Y-91410714D01*
X85571428Y-91410714D01*
X85476190Y-91458333D01*
X85904762Y-92029762D02*
X85809524Y-92077381D01*
X85571428Y-92077381D01*
X85476190Y-92029762D01*
X85428571Y-91934524D01*
X85428571Y-91839286D01*
X85476190Y-91744048D01*
X85571428Y-91696429D01*
X85809524Y-91696429D01*
X85904762Y-91648810D01*
X86380952Y-91410714D02*
X86380952Y-92410714D01*
X86380952Y-91458333D02*
X86476190Y-91410714D01*
X86666667Y-91410714D01*
X86761905Y-91458333D01*
X86809524Y-91505952D01*
X86857143Y-91601190D01*
X86857143Y-91886905D01*
X86809524Y-91982143D01*
X86761905Y-92029762D01*
X86666667Y-92077381D01*
X86476190Y-92077381D01*
X86380952Y-92029762D01*
X87142857Y-91410714D02*
X87523809Y-91410714D01*
X87285714Y-91077381D02*
X87285714Y-91934524D01*
X87333333Y-92029762D01*
X87428571Y-92077381D01*
X87523809Y-92077381D01*
X88238096Y-92029762D02*
X88142858Y-92077381D01*
X87952381Y-92077381D01*
X87857143Y-92029762D01*
X87809524Y-91934524D01*
X87809524Y-91553571D01*
X87857143Y-91458333D01*
X87952381Y-91410714D01*
X88142858Y-91410714D01*
X88238096Y-91458333D01*
X88285715Y-91553571D01*
X88285715Y-91648810D01*
X87809524Y-91744048D01*
X88714286Y-92077381D02*
X88714286Y-91410714D01*
X88714286Y-91601190D02*
X88761905Y-91505952D01*
X88809524Y-91458333D01*
X88904762Y-91410714D01*
X89000001Y-91410714D01*
X79952381Y-92827381D02*
X80285714Y-93827381D01*
X80619048Y-92827381D01*
X81476191Y-93827381D02*
X80904762Y-93827381D01*
X81190476Y-93827381D02*
X81190476Y-92827381D01*
X81095238Y-92970238D01*
X81000000Y-93065476D01*
X80904762Y-93113095D01*
X82666667Y-93446429D02*
X83428572Y-93446429D01*
X85190477Y-93827381D02*
X84619048Y-93827381D01*
X84904762Y-93827381D02*
X84904762Y-92827381D01*
X84809524Y-92970238D01*
X84714286Y-93065476D01*
X84619048Y-93113095D01*
X85666667Y-93827381D02*
X85857143Y-93827381D01*
X85952382Y-93779762D01*
X86000001Y-93732143D01*
X86095239Y-93589286D01*
X86142858Y-93398810D01*
X86142858Y-93017857D01*
X86095239Y-92922619D01*
X86047620Y-92875000D01*
X85952382Y-92827381D01*
X85761905Y-92827381D01*
X85666667Y-92875000D01*
X85619048Y-92922619D01*
X85571429Y-93017857D01*
X85571429Y-93255952D01*
X85619048Y-93351190D01*
X85666667Y-93398810D01*
X85761905Y-93446429D01*
X85952382Y-93446429D01*
X86047620Y-93398810D01*
X86095239Y-93351190D01*
X86142858Y-93255952D01*
X86761905Y-92827381D02*
X86857144Y-92827381D01*
X86952382Y-92875000D01*
X87000001Y-92922619D01*
X87047620Y-93017857D01*
X87095239Y-93208333D01*
X87095239Y-93446429D01*
X87047620Y-93636905D01*
X87000001Y-93732143D01*
X86952382Y-93779762D01*
X86857144Y-93827381D01*
X86761905Y-93827381D01*
X86666667Y-93779762D01*
X86619048Y-93732143D01*
X86571429Y-93636905D01*
X86523810Y-93446429D01*
X86523810Y-93208333D01*
X86571429Y-93017857D01*
X86619048Y-92922619D01*
X86666667Y-92875000D01*
X86761905Y-92827381D01*
X87666667Y-93255952D02*
X87571429Y-93208333D01*
X87523810Y-93160714D01*
X87476191Y-93065476D01*
X87476191Y-93017857D01*
X87523810Y-92922619D01*
X87571429Y-92875000D01*
X87666667Y-92827381D01*
X87857144Y-92827381D01*
X87952382Y-92875000D01*
X88000001Y-92922619D01*
X88047620Y-93017857D01*
X88047620Y-93065476D01*
X88000001Y-93160714D01*
X87952382Y-93208333D01*
X87857144Y-93255952D01*
X87666667Y-93255952D01*
X87571429Y-93303571D01*
X87523810Y-93351190D01*
X87476191Y-93446429D01*
X87476191Y-93636905D01*
X87523810Y-93732143D01*
X87571429Y-93779762D01*
X87666667Y-93827381D01*
X87857144Y-93827381D01*
X87952382Y-93779762D01*
X88000001Y-93732143D01*
X88047620Y-93636905D01*
X88047620Y-93446429D01*
X88000001Y-93351190D01*
X87952382Y-93303571D01*
X87857144Y-93255952D01*
X89000001Y-93827381D02*
X88428572Y-93827381D01*
X88714286Y-93827381D02*
X88714286Y-92827381D01*
X88619048Y-92970238D01*
X88523810Y-93065476D01*
X88428572Y-93113095D01*
X89571429Y-93255952D02*
X89476191Y-93208333D01*
X89428572Y-93160714D01*
X89380953Y-93065476D01*
X89380953Y-93017857D01*
X89428572Y-92922619D01*
X89476191Y-92875000D01*
X89571429Y-92827381D01*
X89761906Y-92827381D01*
X89857144Y-92875000D01*
X89904763Y-92922619D01*
X89952382Y-93017857D01*
X89952382Y-93065476D01*
X89904763Y-93160714D01*
X89857144Y-93208333D01*
X89761906Y-93255952D01*
X89571429Y-93255952D01*
X89476191Y-93303571D01*
X89428572Y-93351190D01*
X89380953Y-93446429D01*
X89380953Y-93636905D01*
X89428572Y-93732143D01*
X89476191Y-93779762D01*
X89571429Y-93827381D01*
X89761906Y-93827381D01*
X89857144Y-93779762D01*
X89904763Y-93732143D01*
X89952382Y-93636905D01*
X89952382Y-93446429D01*
X89904763Y-93351190D01*
X89857144Y-93303571D01*
X89761906Y-93255952D01*
X60619047Y-92077381D02*
X60142856Y-92077381D01*
X60142856Y-91077381D01*
X61333333Y-92029762D02*
X61238095Y-92077381D01*
X61047618Y-92077381D01*
X60952380Y-92029762D01*
X60904761Y-91934524D01*
X60904761Y-91553571D01*
X60952380Y-91458333D01*
X61047618Y-91410714D01*
X61238095Y-91410714D01*
X61333333Y-91458333D01*
X61380952Y-91553571D01*
X61380952Y-91648810D01*
X60904761Y-91744048D01*
X62238095Y-92077381D02*
X62238095Y-91077381D01*
X62238095Y-92029762D02*
X62142857Y-92077381D01*
X61952380Y-92077381D01*
X61857142Y-92029762D01*
X61809523Y-91982143D01*
X61761904Y-91886905D01*
X61761904Y-91601190D01*
X61809523Y-91505952D01*
X61857142Y-91458333D01*
X61952380Y-91410714D01*
X62142857Y-91410714D01*
X62238095Y-91458333D01*
X62666666Y-91791667D02*
X63142857Y-91791667D01*
X62571428Y-92077381D02*
X62904761Y-91077381D01*
X63238095Y-92077381D01*
X64000000Y-92077381D02*
X64000000Y-91077381D01*
X64000000Y-92029762D02*
X63904762Y-92077381D01*
X63714285Y-92077381D01*
X63619047Y-92029762D01*
X63571428Y-91982143D01*
X63523809Y-91886905D01*
X63523809Y-91601190D01*
X63571428Y-91505952D01*
X63619047Y-91458333D01*
X63714285Y-91410714D01*
X63904762Y-91410714D01*
X64000000Y-91458333D01*
X64904762Y-92077381D02*
X64904762Y-91553571D01*
X64857143Y-91458333D01*
X64761905Y-91410714D01*
X64571428Y-91410714D01*
X64476190Y-91458333D01*
X64904762Y-92029762D02*
X64809524Y-92077381D01*
X64571428Y-92077381D01*
X64476190Y-92029762D01*
X64428571Y-91934524D01*
X64428571Y-91839286D01*
X64476190Y-91744048D01*
X64571428Y-91696429D01*
X64809524Y-91696429D01*
X64904762Y-91648810D01*
X65380952Y-91410714D02*
X65380952Y-92410714D01*
X65380952Y-91458333D02*
X65476190Y-91410714D01*
X65666667Y-91410714D01*
X65761905Y-91458333D01*
X65809524Y-91505952D01*
X65857143Y-91601190D01*
X65857143Y-91886905D01*
X65809524Y-91982143D01*
X65761905Y-92029762D01*
X65666667Y-92077381D01*
X65476190Y-92077381D01*
X65380952Y-92029762D01*
X66142857Y-91410714D02*
X66523809Y-91410714D01*
X66285714Y-91077381D02*
X66285714Y-91934524D01*
X66333333Y-92029762D01*
X66428571Y-92077381D01*
X66523809Y-92077381D01*
X67238096Y-92029762D02*
X67142858Y-92077381D01*
X66952381Y-92077381D01*
X66857143Y-92029762D01*
X66809524Y-91934524D01*
X66809524Y-91553571D01*
X66857143Y-91458333D01*
X66952381Y-91410714D01*
X67142858Y-91410714D01*
X67238096Y-91458333D01*
X67285715Y-91553571D01*
X67285715Y-91648810D01*
X66809524Y-91744048D01*
X67714286Y-92077381D02*
X67714286Y-91410714D01*
X67714286Y-91601190D02*
X67761905Y-91505952D01*
X67809524Y-91458333D01*
X67904762Y-91410714D01*
X68000001Y-91410714D01*
X58952381Y-92827381D02*
X59285714Y-93827381D01*
X59619048Y-92827381D01*
X60476191Y-93827381D02*
X59904762Y-93827381D01*
X60190476Y-93827381D02*
X60190476Y-92827381D01*
X60095238Y-92970238D01*
X60000000Y-93065476D01*
X59904762Y-93113095D01*
X61666667Y-93446429D02*
X62428572Y-93446429D01*
X64190477Y-93827381D02*
X63619048Y-93827381D01*
X63904762Y-93827381D02*
X63904762Y-92827381D01*
X63809524Y-92970238D01*
X63714286Y-93065476D01*
X63619048Y-93113095D01*
X64666667Y-93827381D02*
X64857143Y-93827381D01*
X64952382Y-93779762D01*
X65000001Y-93732143D01*
X65095239Y-93589286D01*
X65142858Y-93398810D01*
X65142858Y-93017857D01*
X65095239Y-92922619D01*
X65047620Y-92875000D01*
X64952382Y-92827381D01*
X64761905Y-92827381D01*
X64666667Y-92875000D01*
X64619048Y-92922619D01*
X64571429Y-93017857D01*
X64571429Y-93255952D01*
X64619048Y-93351190D01*
X64666667Y-93398810D01*
X64761905Y-93446429D01*
X64952382Y-93446429D01*
X65047620Y-93398810D01*
X65095239Y-93351190D01*
X65142858Y-93255952D01*
X65761905Y-92827381D02*
X65857144Y-92827381D01*
X65952382Y-92875000D01*
X66000001Y-92922619D01*
X66047620Y-93017857D01*
X66095239Y-93208333D01*
X66095239Y-93446429D01*
X66047620Y-93636905D01*
X66000001Y-93732143D01*
X65952382Y-93779762D01*
X65857144Y-93827381D01*
X65761905Y-93827381D01*
X65666667Y-93779762D01*
X65619048Y-93732143D01*
X65571429Y-93636905D01*
X65523810Y-93446429D01*
X65523810Y-93208333D01*
X65571429Y-93017857D01*
X65619048Y-92922619D01*
X65666667Y-92875000D01*
X65761905Y-92827381D01*
X66666667Y-93255952D02*
X66571429Y-93208333D01*
X66523810Y-93160714D01*
X66476191Y-93065476D01*
X66476191Y-93017857D01*
X66523810Y-92922619D01*
X66571429Y-92875000D01*
X66666667Y-92827381D01*
X66857144Y-92827381D01*
X66952382Y-92875000D01*
X67000001Y-92922619D01*
X67047620Y-93017857D01*
X67047620Y-93065476D01*
X67000001Y-93160714D01*
X66952382Y-93208333D01*
X66857144Y-93255952D01*
X66666667Y-93255952D01*
X66571429Y-93303571D01*
X66523810Y-93351190D01*
X66476191Y-93446429D01*
X66476191Y-93636905D01*
X66523810Y-93732143D01*
X66571429Y-93779762D01*
X66666667Y-93827381D01*
X66857144Y-93827381D01*
X66952382Y-93779762D01*
X67000001Y-93732143D01*
X67047620Y-93636905D01*
X67047620Y-93446429D01*
X67000001Y-93351190D01*
X66952382Y-93303571D01*
X66857144Y-93255952D01*
X68000001Y-93827381D02*
X67428572Y-93827381D01*
X67714286Y-93827381D02*
X67714286Y-92827381D01*
X67619048Y-92970238D01*
X67523810Y-93065476D01*
X67428572Y-93113095D01*
X68571429Y-93255952D02*
X68476191Y-93208333D01*
X68428572Y-93160714D01*
X68380953Y-93065476D01*
X68380953Y-93017857D01*
X68428572Y-92922619D01*
X68476191Y-92875000D01*
X68571429Y-92827381D01*
X68761906Y-92827381D01*
X68857144Y-92875000D01*
X68904763Y-92922619D01*
X68952382Y-93017857D01*
X68952382Y-93065476D01*
X68904763Y-93160714D01*
X68857144Y-93208333D01*
X68761906Y-93255952D01*
X68571429Y-93255952D01*
X68476191Y-93303571D01*
X68428572Y-93351190D01*
X68380953Y-93446429D01*
X68380953Y-93636905D01*
X68428572Y-93732143D01*
X68476191Y-93779762D01*
X68571429Y-93827381D01*
X68761906Y-93827381D01*
X68857144Y-93779762D01*
X68904763Y-93732143D01*
X68952382Y-93636905D01*
X68952382Y-93446429D01*
X68904763Y-93351190D01*
X68857144Y-93303571D01*
X68761906Y-93255952D01*
X132922619Y-56619047D02*
X132922619Y-56142856D01*
X133922619Y-56142856D01*
X132970238Y-57333333D02*
X132922619Y-57238095D01*
X132922619Y-57047618D01*
X132970238Y-56952380D01*
X133065476Y-56904761D01*
X133446429Y-56904761D01*
X133541667Y-56952380D01*
X133589286Y-57047618D01*
X133589286Y-57238095D01*
X133541667Y-57333333D01*
X133446429Y-57380952D01*
X133351190Y-57380952D01*
X133255952Y-56904761D01*
X132922619Y-58238095D02*
X133922619Y-58238095D01*
X132970238Y-58238095D02*
X132922619Y-58142857D01*
X132922619Y-57952380D01*
X132970238Y-57857142D01*
X133017857Y-57809523D01*
X133113095Y-57761904D01*
X133398810Y-57761904D01*
X133494048Y-57809523D01*
X133541667Y-57857142D01*
X133589286Y-57952380D01*
X133589286Y-58142857D01*
X133541667Y-58238095D01*
X133208333Y-58666666D02*
X133208333Y-59142857D01*
X132922619Y-58571428D02*
X133922619Y-58904761D01*
X132922619Y-59238095D01*
X132922619Y-60000000D02*
X133922619Y-60000000D01*
X132970238Y-60000000D02*
X132922619Y-59904762D01*
X132922619Y-59714285D01*
X132970238Y-59619047D01*
X133017857Y-59571428D01*
X133113095Y-59523809D01*
X133398810Y-59523809D01*
X133494048Y-59571428D01*
X133541667Y-59619047D01*
X133589286Y-59714285D01*
X133589286Y-59904762D01*
X133541667Y-60000000D01*
X132922619Y-60904762D02*
X133446429Y-60904762D01*
X133541667Y-60857143D01*
X133589286Y-60761905D01*
X133589286Y-60571428D01*
X133541667Y-60476190D01*
X132970238Y-60904762D02*
X132922619Y-60809524D01*
X132922619Y-60571428D01*
X132970238Y-60476190D01*
X133065476Y-60428571D01*
X133160714Y-60428571D01*
X133255952Y-60476190D01*
X133303571Y-60571428D01*
X133303571Y-60809524D01*
X133351190Y-60904762D01*
X133589286Y-61380952D02*
X132589286Y-61380952D01*
X133541667Y-61380952D02*
X133589286Y-61476190D01*
X133589286Y-61666667D01*
X133541667Y-61761905D01*
X133494048Y-61809524D01*
X133398810Y-61857143D01*
X133113095Y-61857143D01*
X133017857Y-61809524D01*
X132970238Y-61761905D01*
X132922619Y-61666667D01*
X132922619Y-61476190D01*
X132970238Y-61380952D01*
X133589286Y-62142857D02*
X133589286Y-62523809D01*
X133922619Y-62285714D02*
X133065476Y-62285714D01*
X132970238Y-62333333D01*
X132922619Y-62428571D01*
X132922619Y-62523809D01*
X132970238Y-63238096D02*
X132922619Y-63142858D01*
X132922619Y-62952381D01*
X132970238Y-62857143D01*
X133065476Y-62809524D01*
X133446429Y-62809524D01*
X133541667Y-62857143D01*
X133589286Y-62952381D01*
X133589286Y-63142858D01*
X133541667Y-63238096D01*
X133446429Y-63285715D01*
X133351190Y-63285715D01*
X133255952Y-62809524D01*
X132922619Y-63714286D02*
X133589286Y-63714286D01*
X133398810Y-63714286D02*
X133494048Y-63761905D01*
X133541667Y-63809524D01*
X133589286Y-63904762D01*
X133589286Y-64000001D01*
X132172619Y-54952381D02*
X131172619Y-55285714D01*
X132172619Y-55619048D01*
X131172619Y-56476191D02*
X131172619Y-55904762D01*
X131172619Y-56190476D02*
X132172619Y-56190476D01*
X132029762Y-56095238D01*
X131934524Y-56000000D01*
X131886905Y-55904762D01*
X131553571Y-57666667D02*
X131553571Y-58428572D01*
X131172619Y-60190477D02*
X131172619Y-59619048D01*
X131172619Y-59904762D02*
X132172619Y-59904762D01*
X132029762Y-59809524D01*
X131934524Y-59714286D01*
X131886905Y-59619048D01*
X131172619Y-60666667D02*
X131172619Y-60857143D01*
X131220238Y-60952382D01*
X131267857Y-61000001D01*
X131410714Y-61095239D01*
X131601190Y-61142858D01*
X131982143Y-61142858D01*
X132077381Y-61095239D01*
X132125000Y-61047620D01*
X132172619Y-60952382D01*
X132172619Y-60761905D01*
X132125000Y-60666667D01*
X132077381Y-60619048D01*
X131982143Y-60571429D01*
X131744048Y-60571429D01*
X131648810Y-60619048D01*
X131601190Y-60666667D01*
X131553571Y-60761905D01*
X131553571Y-60952382D01*
X131601190Y-61047620D01*
X131648810Y-61095239D01*
X131744048Y-61142858D01*
X132172619Y-61761905D02*
X132172619Y-61857144D01*
X132125000Y-61952382D01*
X132077381Y-62000001D01*
X131982143Y-62047620D01*
X131791667Y-62095239D01*
X131553571Y-62095239D01*
X131363095Y-62047620D01*
X131267857Y-62000001D01*
X131220238Y-61952382D01*
X131172619Y-61857144D01*
X131172619Y-61761905D01*
X131220238Y-61666667D01*
X131267857Y-61619048D01*
X131363095Y-61571429D01*
X131553571Y-61523810D01*
X131791667Y-61523810D01*
X131982143Y-61571429D01*
X132077381Y-61619048D01*
X132125000Y-61666667D01*
X132172619Y-61761905D01*
X131744048Y-62666667D02*
X131791667Y-62571429D01*
X131839286Y-62523810D01*
X131934524Y-62476191D01*
X131982143Y-62476191D01*
X132077381Y-62523810D01*
X132125000Y-62571429D01*
X132172619Y-62666667D01*
X132172619Y-62857144D01*
X132125000Y-62952382D01*
X132077381Y-63000001D01*
X131982143Y-63047620D01*
X131934524Y-63047620D01*
X131839286Y-63000001D01*
X131791667Y-62952382D01*
X131744048Y-62857144D01*
X131744048Y-62666667D01*
X131696429Y-62571429D01*
X131648810Y-62523810D01*
X131553571Y-62476191D01*
X131363095Y-62476191D01*
X131267857Y-62523810D01*
X131220238Y-62571429D01*
X131172619Y-62666667D01*
X131172619Y-62857144D01*
X131220238Y-62952382D01*
X131267857Y-63000001D01*
X131363095Y-63047620D01*
X131553571Y-63047620D01*
X131648810Y-63000001D01*
X131696429Y-62952382D01*
X131744048Y-62857144D01*
X131172619Y-64000001D02*
X131172619Y-63428572D01*
X131172619Y-63714286D02*
X132172619Y-63714286D01*
X132029762Y-63619048D01*
X131934524Y-63523810D01*
X131886905Y-63428572D01*
X131744048Y-64571429D02*
X131791667Y-64476191D01*
X131839286Y-64428572D01*
X131934524Y-64380953D01*
X131982143Y-64380953D01*
X132077381Y-64428572D01*
X132125000Y-64476191D01*
X132172619Y-64571429D01*
X132172619Y-64761906D01*
X132125000Y-64857144D01*
X132077381Y-64904763D01*
X131982143Y-64952382D01*
X131934524Y-64952382D01*
X131839286Y-64904763D01*
X131791667Y-64857144D01*
X131744048Y-64761906D01*
X131744048Y-64571429D01*
X131696429Y-64476191D01*
X131648810Y-64428572D01*
X131553571Y-64380953D01*
X131363095Y-64380953D01*
X131267857Y-64428572D01*
X131220238Y-64476191D01*
X131172619Y-64571429D01*
X131172619Y-64761906D01*
X131220238Y-64857144D01*
X131267857Y-64904763D01*
X131363095Y-64952382D01*
X131553571Y-64952382D01*
X131648810Y-64904763D01*
X131696429Y-64857144D01*
X131744048Y-64761906D01*
X111922619Y-56619047D02*
X111922619Y-56142856D01*
X112922619Y-56142856D01*
X111970238Y-57333333D02*
X111922619Y-57238095D01*
X111922619Y-57047618D01*
X111970238Y-56952380D01*
X112065476Y-56904761D01*
X112446429Y-56904761D01*
X112541667Y-56952380D01*
X112589286Y-57047618D01*
X112589286Y-57238095D01*
X112541667Y-57333333D01*
X112446429Y-57380952D01*
X112351190Y-57380952D01*
X112255952Y-56904761D01*
X111922619Y-58238095D02*
X112922619Y-58238095D01*
X111970238Y-58238095D02*
X111922619Y-58142857D01*
X111922619Y-57952380D01*
X111970238Y-57857142D01*
X112017857Y-57809523D01*
X112113095Y-57761904D01*
X112398810Y-57761904D01*
X112494048Y-57809523D01*
X112541667Y-57857142D01*
X112589286Y-57952380D01*
X112589286Y-58142857D01*
X112541667Y-58238095D01*
X112208333Y-58666666D02*
X112208333Y-59142857D01*
X111922619Y-58571428D02*
X112922619Y-58904761D01*
X111922619Y-59238095D01*
X111922619Y-60000000D02*
X112922619Y-60000000D01*
X111970238Y-60000000D02*
X111922619Y-59904762D01*
X111922619Y-59714285D01*
X111970238Y-59619047D01*
X112017857Y-59571428D01*
X112113095Y-59523809D01*
X112398810Y-59523809D01*
X112494048Y-59571428D01*
X112541667Y-59619047D01*
X112589286Y-59714285D01*
X112589286Y-59904762D01*
X112541667Y-60000000D01*
X111922619Y-60904762D02*
X112446429Y-60904762D01*
X112541667Y-60857143D01*
X112589286Y-60761905D01*
X112589286Y-60571428D01*
X112541667Y-60476190D01*
X111970238Y-60904762D02*
X111922619Y-60809524D01*
X111922619Y-60571428D01*
X111970238Y-60476190D01*
X112065476Y-60428571D01*
X112160714Y-60428571D01*
X112255952Y-60476190D01*
X112303571Y-60571428D01*
X112303571Y-60809524D01*
X112351190Y-60904762D01*
X112589286Y-61380952D02*
X111589286Y-61380952D01*
X112541667Y-61380952D02*
X112589286Y-61476190D01*
X112589286Y-61666667D01*
X112541667Y-61761905D01*
X112494048Y-61809524D01*
X112398810Y-61857143D01*
X112113095Y-61857143D01*
X112017857Y-61809524D01*
X111970238Y-61761905D01*
X111922619Y-61666667D01*
X111922619Y-61476190D01*
X111970238Y-61380952D01*
X112589286Y-62142857D02*
X112589286Y-62523809D01*
X112922619Y-62285714D02*
X112065476Y-62285714D01*
X111970238Y-62333333D01*
X111922619Y-62428571D01*
X111922619Y-62523809D01*
X111970238Y-63238096D02*
X111922619Y-63142858D01*
X111922619Y-62952381D01*
X111970238Y-62857143D01*
X112065476Y-62809524D01*
X112446429Y-62809524D01*
X112541667Y-62857143D01*
X112589286Y-62952381D01*
X112589286Y-63142858D01*
X112541667Y-63238096D01*
X112446429Y-63285715D01*
X112351190Y-63285715D01*
X112255952Y-62809524D01*
X111922619Y-63714286D02*
X112589286Y-63714286D01*
X112398810Y-63714286D02*
X112494048Y-63761905D01*
X112541667Y-63809524D01*
X112589286Y-63904762D01*
X112589286Y-64000001D01*
X111172619Y-54952381D02*
X110172619Y-55285714D01*
X111172619Y-55619048D01*
X110172619Y-56476191D02*
X110172619Y-55904762D01*
X110172619Y-56190476D02*
X111172619Y-56190476D01*
X111029762Y-56095238D01*
X110934524Y-56000000D01*
X110886905Y-55904762D01*
X110553571Y-57666667D02*
X110553571Y-58428572D01*
X110172619Y-60190477D02*
X110172619Y-59619048D01*
X110172619Y-59904762D02*
X111172619Y-59904762D01*
X111029762Y-59809524D01*
X110934524Y-59714286D01*
X110886905Y-59619048D01*
X110172619Y-60666667D02*
X110172619Y-60857143D01*
X110220238Y-60952382D01*
X110267857Y-61000001D01*
X110410714Y-61095239D01*
X110601190Y-61142858D01*
X110982143Y-61142858D01*
X111077381Y-61095239D01*
X111125000Y-61047620D01*
X111172619Y-60952382D01*
X111172619Y-60761905D01*
X111125000Y-60666667D01*
X111077381Y-60619048D01*
X110982143Y-60571429D01*
X110744048Y-60571429D01*
X110648810Y-60619048D01*
X110601190Y-60666667D01*
X110553571Y-60761905D01*
X110553571Y-60952382D01*
X110601190Y-61047620D01*
X110648810Y-61095239D01*
X110744048Y-61142858D01*
X111172619Y-61761905D02*
X111172619Y-61857144D01*
X111125000Y-61952382D01*
X111077381Y-62000001D01*
X110982143Y-62047620D01*
X110791667Y-62095239D01*
X110553571Y-62095239D01*
X110363095Y-62047620D01*
X110267857Y-62000001D01*
X110220238Y-61952382D01*
X110172619Y-61857144D01*
X110172619Y-61761905D01*
X110220238Y-61666667D01*
X110267857Y-61619048D01*
X110363095Y-61571429D01*
X110553571Y-61523810D01*
X110791667Y-61523810D01*
X110982143Y-61571429D01*
X111077381Y-61619048D01*
X111125000Y-61666667D01*
X111172619Y-61761905D01*
X110744048Y-62666667D02*
X110791667Y-62571429D01*
X110839286Y-62523810D01*
X110934524Y-62476191D01*
X110982143Y-62476191D01*
X111077381Y-62523810D01*
X111125000Y-62571429D01*
X111172619Y-62666667D01*
X111172619Y-62857144D01*
X111125000Y-62952382D01*
X111077381Y-63000001D01*
X110982143Y-63047620D01*
X110934524Y-63047620D01*
X110839286Y-63000001D01*
X110791667Y-62952382D01*
X110744048Y-62857144D01*
X110744048Y-62666667D01*
X110696429Y-62571429D01*
X110648810Y-62523810D01*
X110553571Y-62476191D01*
X110363095Y-62476191D01*
X110267857Y-62523810D01*
X110220238Y-62571429D01*
X110172619Y-62666667D01*
X110172619Y-62857144D01*
X110220238Y-62952382D01*
X110267857Y-63000001D01*
X110363095Y-63047620D01*
X110553571Y-63047620D01*
X110648810Y-63000001D01*
X110696429Y-62952382D01*
X110744048Y-62857144D01*
X110172619Y-64000001D02*
X110172619Y-63428572D01*
X110172619Y-63714286D02*
X111172619Y-63714286D01*
X111029762Y-63619048D01*
X110934524Y-63523810D01*
X110886905Y-63428572D01*
X110744048Y-64571429D02*
X110791667Y-64476191D01*
X110839286Y-64428572D01*
X110934524Y-64380953D01*
X110982143Y-64380953D01*
X111077381Y-64428572D01*
X111125000Y-64476191D01*
X111172619Y-64571429D01*
X111172619Y-64761906D01*
X111125000Y-64857144D01*
X111077381Y-64904763D01*
X110982143Y-64952382D01*
X110934524Y-64952382D01*
X110839286Y-64904763D01*
X110791667Y-64857144D01*
X110744048Y-64761906D01*
X110744048Y-64571429D01*
X110696429Y-64476191D01*
X110648810Y-64428572D01*
X110553571Y-64380953D01*
X110363095Y-64380953D01*
X110267857Y-64428572D01*
X110220238Y-64476191D01*
X110172619Y-64571429D01*
X110172619Y-64761906D01*
X110220238Y-64857144D01*
X110267857Y-64904763D01*
X110363095Y-64952382D01*
X110553571Y-64952382D01*
X110648810Y-64904763D01*
X110696429Y-64857144D01*
X110744048Y-64761906D01*
X90922619Y-56619047D02*
X90922619Y-56142856D01*
X91922619Y-56142856D01*
X90970238Y-57333333D02*
X90922619Y-57238095D01*
X90922619Y-57047618D01*
X90970238Y-56952380D01*
X91065476Y-56904761D01*
X91446429Y-56904761D01*
X91541667Y-56952380D01*
X91589286Y-57047618D01*
X91589286Y-57238095D01*
X91541667Y-57333333D01*
X91446429Y-57380952D01*
X91351190Y-57380952D01*
X91255952Y-56904761D01*
X90922619Y-58238095D02*
X91922619Y-58238095D01*
X90970238Y-58238095D02*
X90922619Y-58142857D01*
X90922619Y-57952380D01*
X90970238Y-57857142D01*
X91017857Y-57809523D01*
X91113095Y-57761904D01*
X91398810Y-57761904D01*
X91494048Y-57809523D01*
X91541667Y-57857142D01*
X91589286Y-57952380D01*
X91589286Y-58142857D01*
X91541667Y-58238095D01*
X91208333Y-58666666D02*
X91208333Y-59142857D01*
X90922619Y-58571428D02*
X91922619Y-58904761D01*
X90922619Y-59238095D01*
X90922619Y-60000000D02*
X91922619Y-60000000D01*
X90970238Y-60000000D02*
X90922619Y-59904762D01*
X90922619Y-59714285D01*
X90970238Y-59619047D01*
X91017857Y-59571428D01*
X91113095Y-59523809D01*
X91398810Y-59523809D01*
X91494048Y-59571428D01*
X91541667Y-59619047D01*
X91589286Y-59714285D01*
X91589286Y-59904762D01*
X91541667Y-60000000D01*
X90922619Y-60904762D02*
X91446429Y-60904762D01*
X91541667Y-60857143D01*
X91589286Y-60761905D01*
X91589286Y-60571428D01*
X91541667Y-60476190D01*
X90970238Y-60904762D02*
X90922619Y-60809524D01*
X90922619Y-60571428D01*
X90970238Y-60476190D01*
X91065476Y-60428571D01*
X91160714Y-60428571D01*
X91255952Y-60476190D01*
X91303571Y-60571428D01*
X91303571Y-60809524D01*
X91351190Y-60904762D01*
X91589286Y-61380952D02*
X90589286Y-61380952D01*
X91541667Y-61380952D02*
X91589286Y-61476190D01*
X91589286Y-61666667D01*
X91541667Y-61761905D01*
X91494048Y-61809524D01*
X91398810Y-61857143D01*
X91113095Y-61857143D01*
X91017857Y-61809524D01*
X90970238Y-61761905D01*
X90922619Y-61666667D01*
X90922619Y-61476190D01*
X90970238Y-61380952D01*
X91589286Y-62142857D02*
X91589286Y-62523809D01*
X91922619Y-62285714D02*
X91065476Y-62285714D01*
X90970238Y-62333333D01*
X90922619Y-62428571D01*
X90922619Y-62523809D01*
X90970238Y-63238096D02*
X90922619Y-63142858D01*
X90922619Y-62952381D01*
X90970238Y-62857143D01*
X91065476Y-62809524D01*
X91446429Y-62809524D01*
X91541667Y-62857143D01*
X91589286Y-62952381D01*
X91589286Y-63142858D01*
X91541667Y-63238096D01*
X91446429Y-63285715D01*
X91351190Y-63285715D01*
X91255952Y-62809524D01*
X90922619Y-63714286D02*
X91589286Y-63714286D01*
X91398810Y-63714286D02*
X91494048Y-63761905D01*
X91541667Y-63809524D01*
X91589286Y-63904762D01*
X91589286Y-64000001D01*
X90172619Y-54952381D02*
X89172619Y-55285714D01*
X90172619Y-55619048D01*
X89172619Y-56476191D02*
X89172619Y-55904762D01*
X89172619Y-56190476D02*
X90172619Y-56190476D01*
X90029762Y-56095238D01*
X89934524Y-56000000D01*
X89886905Y-55904762D01*
X89553571Y-57666667D02*
X89553571Y-58428572D01*
X89172619Y-60190477D02*
X89172619Y-59619048D01*
X89172619Y-59904762D02*
X90172619Y-59904762D01*
X90029762Y-59809524D01*
X89934524Y-59714286D01*
X89886905Y-59619048D01*
X89172619Y-60666667D02*
X89172619Y-60857143D01*
X89220238Y-60952382D01*
X89267857Y-61000001D01*
X89410714Y-61095239D01*
X89601190Y-61142858D01*
X89982143Y-61142858D01*
X90077381Y-61095239D01*
X90125000Y-61047620D01*
X90172619Y-60952382D01*
X90172619Y-60761905D01*
X90125000Y-60666667D01*
X90077381Y-60619048D01*
X89982143Y-60571429D01*
X89744048Y-60571429D01*
X89648810Y-60619048D01*
X89601190Y-60666667D01*
X89553571Y-60761905D01*
X89553571Y-60952382D01*
X89601190Y-61047620D01*
X89648810Y-61095239D01*
X89744048Y-61142858D01*
X90172619Y-61761905D02*
X90172619Y-61857144D01*
X90125000Y-61952382D01*
X90077381Y-62000001D01*
X89982143Y-62047620D01*
X89791667Y-62095239D01*
X89553571Y-62095239D01*
X89363095Y-62047620D01*
X89267857Y-62000001D01*
X89220238Y-61952382D01*
X89172619Y-61857144D01*
X89172619Y-61761905D01*
X89220238Y-61666667D01*
X89267857Y-61619048D01*
X89363095Y-61571429D01*
X89553571Y-61523810D01*
X89791667Y-61523810D01*
X89982143Y-61571429D01*
X90077381Y-61619048D01*
X90125000Y-61666667D01*
X90172619Y-61761905D01*
X89744048Y-62666667D02*
X89791667Y-62571429D01*
X89839286Y-62523810D01*
X89934524Y-62476191D01*
X89982143Y-62476191D01*
X90077381Y-62523810D01*
X90125000Y-62571429D01*
X90172619Y-62666667D01*
X90172619Y-62857144D01*
X90125000Y-62952382D01*
X90077381Y-63000001D01*
X89982143Y-63047620D01*
X89934524Y-63047620D01*
X89839286Y-63000001D01*
X89791667Y-62952382D01*
X89744048Y-62857144D01*
X89744048Y-62666667D01*
X89696429Y-62571429D01*
X89648810Y-62523810D01*
X89553571Y-62476191D01*
X89363095Y-62476191D01*
X89267857Y-62523810D01*
X89220238Y-62571429D01*
X89172619Y-62666667D01*
X89172619Y-62857144D01*
X89220238Y-62952382D01*
X89267857Y-63000001D01*
X89363095Y-63047620D01*
X89553571Y-63047620D01*
X89648810Y-63000001D01*
X89696429Y-62952382D01*
X89744048Y-62857144D01*
X89172619Y-64000001D02*
X89172619Y-63428572D01*
X89172619Y-63714286D02*
X90172619Y-63714286D01*
X90029762Y-63619048D01*
X89934524Y-63523810D01*
X89886905Y-63428572D01*
X89744048Y-64571429D02*
X89791667Y-64476191D01*
X89839286Y-64428572D01*
X89934524Y-64380953D01*
X89982143Y-64380953D01*
X90077381Y-64428572D01*
X90125000Y-64476191D01*
X90172619Y-64571429D01*
X90172619Y-64761906D01*
X90125000Y-64857144D01*
X90077381Y-64904763D01*
X89982143Y-64952382D01*
X89934524Y-64952382D01*
X89839286Y-64904763D01*
X89791667Y-64857144D01*
X89744048Y-64761906D01*
X89744048Y-64571429D01*
X89696429Y-64476191D01*
X89648810Y-64428572D01*
X89553571Y-64380953D01*
X89363095Y-64380953D01*
X89267857Y-64428572D01*
X89220238Y-64476191D01*
X89172619Y-64571429D01*
X89172619Y-64761906D01*
X89220238Y-64857144D01*
X89267857Y-64904763D01*
X89363095Y-64952382D01*
X89553571Y-64952382D01*
X89648810Y-64904763D01*
X89696429Y-64857144D01*
X89744048Y-64761906D01*
X69922619Y-56619047D02*
X69922619Y-56142856D01*
X70922619Y-56142856D01*
X69970238Y-57333333D02*
X69922619Y-57238095D01*
X69922619Y-57047618D01*
X69970238Y-56952380D01*
X70065476Y-56904761D01*
X70446429Y-56904761D01*
X70541667Y-56952380D01*
X70589286Y-57047618D01*
X70589286Y-57238095D01*
X70541667Y-57333333D01*
X70446429Y-57380952D01*
X70351190Y-57380952D01*
X70255952Y-56904761D01*
X69922619Y-58238095D02*
X70922619Y-58238095D01*
X69970238Y-58238095D02*
X69922619Y-58142857D01*
X69922619Y-57952380D01*
X69970238Y-57857142D01*
X70017857Y-57809523D01*
X70113095Y-57761904D01*
X70398810Y-57761904D01*
X70494048Y-57809523D01*
X70541667Y-57857142D01*
X70589286Y-57952380D01*
X70589286Y-58142857D01*
X70541667Y-58238095D01*
X70208333Y-58666666D02*
X70208333Y-59142857D01*
X69922619Y-58571428D02*
X70922619Y-58904761D01*
X69922619Y-59238095D01*
X69922619Y-60000000D02*
X70922619Y-60000000D01*
X69970238Y-60000000D02*
X69922619Y-59904762D01*
X69922619Y-59714285D01*
X69970238Y-59619047D01*
X70017857Y-59571428D01*
X70113095Y-59523809D01*
X70398810Y-59523809D01*
X70494048Y-59571428D01*
X70541667Y-59619047D01*
X70589286Y-59714285D01*
X70589286Y-59904762D01*
X70541667Y-60000000D01*
X69922619Y-60904762D02*
X70446429Y-60904762D01*
X70541667Y-60857143D01*
X70589286Y-60761905D01*
X70589286Y-60571428D01*
X70541667Y-60476190D01*
X69970238Y-60904762D02*
X69922619Y-60809524D01*
X69922619Y-60571428D01*
X69970238Y-60476190D01*
X70065476Y-60428571D01*
X70160714Y-60428571D01*
X70255952Y-60476190D01*
X70303571Y-60571428D01*
X70303571Y-60809524D01*
X70351190Y-60904762D01*
X70589286Y-61380952D02*
X69589286Y-61380952D01*
X70541667Y-61380952D02*
X70589286Y-61476190D01*
X70589286Y-61666667D01*
X70541667Y-61761905D01*
X70494048Y-61809524D01*
X70398810Y-61857143D01*
X70113095Y-61857143D01*
X70017857Y-61809524D01*
X69970238Y-61761905D01*
X69922619Y-61666667D01*
X69922619Y-61476190D01*
X69970238Y-61380952D01*
X70589286Y-62142857D02*
X70589286Y-62523809D01*
X70922619Y-62285714D02*
X70065476Y-62285714D01*
X69970238Y-62333333D01*
X69922619Y-62428571D01*
X69922619Y-62523809D01*
X69970238Y-63238096D02*
X69922619Y-63142858D01*
X69922619Y-62952381D01*
X69970238Y-62857143D01*
X70065476Y-62809524D01*
X70446429Y-62809524D01*
X70541667Y-62857143D01*
X70589286Y-62952381D01*
X70589286Y-63142858D01*
X70541667Y-63238096D01*
X70446429Y-63285715D01*
X70351190Y-63285715D01*
X70255952Y-62809524D01*
X69922619Y-63714286D02*
X70589286Y-63714286D01*
X70398810Y-63714286D02*
X70494048Y-63761905D01*
X70541667Y-63809524D01*
X70589286Y-63904762D01*
X70589286Y-64000001D01*
X69172619Y-54952381D02*
X68172619Y-55285714D01*
X69172619Y-55619048D01*
X68172619Y-56476191D02*
X68172619Y-55904762D01*
X68172619Y-56190476D02*
X69172619Y-56190476D01*
X69029762Y-56095238D01*
X68934524Y-56000000D01*
X68886905Y-55904762D01*
X68553571Y-57666667D02*
X68553571Y-58428572D01*
X68172619Y-60190477D02*
X68172619Y-59619048D01*
X68172619Y-59904762D02*
X69172619Y-59904762D01*
X69029762Y-59809524D01*
X68934524Y-59714286D01*
X68886905Y-59619048D01*
X68172619Y-60666667D02*
X68172619Y-60857143D01*
X68220238Y-60952382D01*
X68267857Y-61000001D01*
X68410714Y-61095239D01*
X68601190Y-61142858D01*
X68982143Y-61142858D01*
X69077381Y-61095239D01*
X69125000Y-61047620D01*
X69172619Y-60952382D01*
X69172619Y-60761905D01*
X69125000Y-60666667D01*
X69077381Y-60619048D01*
X68982143Y-60571429D01*
X68744048Y-60571429D01*
X68648810Y-60619048D01*
X68601190Y-60666667D01*
X68553571Y-60761905D01*
X68553571Y-60952382D01*
X68601190Y-61047620D01*
X68648810Y-61095239D01*
X68744048Y-61142858D01*
X69172619Y-61761905D02*
X69172619Y-61857144D01*
X69125000Y-61952382D01*
X69077381Y-62000001D01*
X68982143Y-62047620D01*
X68791667Y-62095239D01*
X68553571Y-62095239D01*
X68363095Y-62047620D01*
X68267857Y-62000001D01*
X68220238Y-61952382D01*
X68172619Y-61857144D01*
X68172619Y-61761905D01*
X68220238Y-61666667D01*
X68267857Y-61619048D01*
X68363095Y-61571429D01*
X68553571Y-61523810D01*
X68791667Y-61523810D01*
X68982143Y-61571429D01*
X69077381Y-61619048D01*
X69125000Y-61666667D01*
X69172619Y-61761905D01*
X68744048Y-62666667D02*
X68791667Y-62571429D01*
X68839286Y-62523810D01*
X68934524Y-62476191D01*
X68982143Y-62476191D01*
X69077381Y-62523810D01*
X69125000Y-62571429D01*
X69172619Y-62666667D01*
X69172619Y-62857144D01*
X69125000Y-62952382D01*
X69077381Y-63000001D01*
X68982143Y-63047620D01*
X68934524Y-63047620D01*
X68839286Y-63000001D01*
X68791667Y-62952382D01*
X68744048Y-62857144D01*
X68744048Y-62666667D01*
X68696429Y-62571429D01*
X68648810Y-62523810D01*
X68553571Y-62476191D01*
X68363095Y-62476191D01*
X68267857Y-62523810D01*
X68220238Y-62571429D01*
X68172619Y-62666667D01*
X68172619Y-62857144D01*
X68220238Y-62952382D01*
X68267857Y-63000001D01*
X68363095Y-63047620D01*
X68553571Y-63047620D01*
X68648810Y-63000001D01*
X68696429Y-62952382D01*
X68744048Y-62857144D01*
X68172619Y-64000001D02*
X68172619Y-63428572D01*
X68172619Y-63714286D02*
X69172619Y-63714286D01*
X69029762Y-63619048D01*
X68934524Y-63523810D01*
X68886905Y-63428572D01*
X68744048Y-64571429D02*
X68791667Y-64476191D01*
X68839286Y-64428572D01*
X68934524Y-64380953D01*
X68982143Y-64380953D01*
X69077381Y-64428572D01*
X69125000Y-64476191D01*
X69172619Y-64571429D01*
X69172619Y-64761906D01*
X69125000Y-64857144D01*
X69077381Y-64904763D01*
X68982143Y-64952382D01*
X68934524Y-64952382D01*
X68839286Y-64904763D01*
X68791667Y-64857144D01*
X68744048Y-64761906D01*
X68744048Y-64571429D01*
X68696429Y-64476191D01*
X68648810Y-64428572D01*
X68553571Y-64380953D01*
X68363095Y-64380953D01*
X68267857Y-64428572D01*
X68220238Y-64476191D01*
X68172619Y-64571429D01*
X68172619Y-64761906D01*
X68220238Y-64857144D01*
X68267857Y-64904763D01*
X68363095Y-64952382D01*
X68553571Y-64952382D01*
X68648810Y-64904763D01*
X68696429Y-64857144D01*
X68744048Y-64761906D01*
D12*
X134428572Y-87107143D02*
X135571429Y-87107143D01*
X118428572Y-87107143D02*
X119571429Y-87107143D01*
X119000000Y-87678571D02*
X119000000Y-86535714D01*
X118428572Y-113107143D02*
X119571429Y-113107143D01*
X119000000Y-113678571D02*
X119000000Y-112535714D01*
X134428572Y-113107143D02*
X135571429Y-113107143D01*
X134428572Y-60107143D02*
X135571429Y-60107143D01*
X118428572Y-60107143D02*
X119571429Y-60107143D01*
X119000000Y-60678571D02*
X119000000Y-59535714D01*
X97428572Y-60107143D02*
X98571429Y-60107143D01*
X98000000Y-60678571D02*
X98000000Y-59535714D01*
X113428572Y-60107143D02*
X114571429Y-60107143D01*
X113428572Y-113107143D02*
X114571429Y-113107143D01*
X97428572Y-113107143D02*
X98571429Y-113107143D01*
X98000000Y-113678571D02*
X98000000Y-112535714D01*
X97428572Y-87107143D02*
X98571429Y-87107143D01*
X98000000Y-87678571D02*
X98000000Y-86535714D01*
X113428572Y-87107143D02*
X114571429Y-87107143D01*
X92428572Y-87107143D02*
X93571429Y-87107143D01*
X76428572Y-87107143D02*
X77571429Y-87107143D01*
X77000000Y-87678571D02*
X77000000Y-86535714D01*
X76428572Y-113107143D02*
X77571429Y-113107143D01*
X77000000Y-113678571D02*
X77000000Y-112535714D01*
X92428572Y-113107143D02*
X93571429Y-113107143D01*
X92428572Y-60107143D02*
X93571429Y-60107143D01*
X76428572Y-60107143D02*
X77571429Y-60107143D01*
X77000000Y-60678571D02*
X77000000Y-59535714D01*
X55428572Y-60107143D02*
X56571429Y-60107143D01*
X56000000Y-60678571D02*
X56000000Y-59535714D01*
X71428572Y-60107143D02*
X72571429Y-60107143D01*
X71428572Y-113107143D02*
X72571429Y-113107143D01*
X55428572Y-113107143D02*
X56571429Y-113107143D01*
X56000000Y-113678571D02*
X56000000Y-112535714D01*
X55428572Y-87107143D02*
X56571429Y-87107143D01*
X56000000Y-87678571D02*
X56000000Y-86535714D01*
X71428572Y-87107143D02*
X72571429Y-87107143D01*
D13*
X124600000Y-79330000D02*
X124600000Y-76670000D01*
X122000000Y-79330000D02*
X124600000Y-79330000D01*
X122000000Y-76670000D02*
X124600000Y-76670000D01*
X122000000Y-79330000D02*
X122000000Y-76670000D01*
X120730000Y-79330000D02*
X119400000Y-79330000D01*
X119400000Y-79330000D02*
X119400000Y-78000000D01*
X124600000Y-104330000D02*
X124600000Y-101670000D01*
X122000000Y-104330000D02*
X124600000Y-104330000D01*
X122000000Y-101670000D02*
X124600000Y-101670000D01*
X122000000Y-104330000D02*
X122000000Y-101670000D01*
X120730000Y-104330000D02*
X119400000Y-104330000D01*
X119400000Y-104330000D02*
X119400000Y-103000000D01*
X134600000Y-104330000D02*
X134600000Y-101670000D01*
X132000000Y-104330000D02*
X134600000Y-104330000D01*
X132000000Y-101670000D02*
X134600000Y-101670000D01*
X132000000Y-104330000D02*
X132000000Y-101670000D01*
X130730000Y-104330000D02*
X129400000Y-104330000D01*
X129400000Y-104330000D02*
X129400000Y-103000000D01*
X124600000Y-72330000D02*
X124600000Y-69670000D01*
X122000000Y-72330000D02*
X124600000Y-72330000D01*
X122000000Y-69670000D02*
X124600000Y-69670000D01*
X122000000Y-72330000D02*
X122000000Y-69670000D01*
X120730000Y-72330000D02*
X119400000Y-72330000D01*
X119400000Y-72330000D02*
X119400000Y-71000000D01*
X134600000Y-72330000D02*
X134600000Y-69670000D01*
X132000000Y-72330000D02*
X134600000Y-72330000D01*
X132000000Y-69670000D02*
X134600000Y-69670000D01*
X132000000Y-72330000D02*
X132000000Y-69670000D01*
X130730000Y-72330000D02*
X129400000Y-72330000D01*
X129400000Y-72330000D02*
X129400000Y-71000000D01*
X129400000Y-49560000D02*
X134600000Y-49560000D01*
X134600000Y-49560000D02*
X134600000Y-46900000D01*
X134600000Y-46900000D02*
X129400000Y-46900000D01*
X129400000Y-46900000D02*
X129400000Y-49560000D01*
X130350000Y-46900000D02*
X130350000Y-40900000D01*
X130350000Y-40900000D02*
X131110000Y-40900000D01*
X131110000Y-40900000D02*
X131110000Y-46900000D01*
X130410000Y-46900000D02*
X130410000Y-40900000D01*
X130530000Y-46900000D02*
X130530000Y-40900000D01*
X130650000Y-46900000D02*
X130650000Y-40900000D01*
X130770000Y-46900000D02*
X130770000Y-40900000D01*
X130890000Y-46900000D02*
X130890000Y-40900000D01*
X131010000Y-46900000D02*
X131010000Y-40900000D01*
X130350000Y-49890000D02*
X130350000Y-49560000D01*
X131110000Y-49890000D02*
X131110000Y-49560000D01*
X132000000Y-49560000D02*
X132000000Y-46900000D01*
X132890000Y-46900000D02*
X132890000Y-40900000D01*
X132890000Y-40900000D02*
X133650000Y-40900000D01*
X133650000Y-40900000D02*
X133650000Y-46900000D01*
X132890000Y-49957071D02*
X132890000Y-49560000D01*
X133650000Y-49957071D02*
X133650000Y-49560000D01*
X130730000Y-52270000D02*
X129460000Y-52270000D01*
X129460000Y-52270000D02*
X129460000Y-51000000D01*
X119400000Y-49560000D02*
X124600000Y-49560000D01*
X124600000Y-49560000D02*
X124600000Y-46900000D01*
X124600000Y-46900000D02*
X119400000Y-46900000D01*
X119400000Y-46900000D02*
X119400000Y-49560000D01*
X120350000Y-46900000D02*
X120350000Y-40900000D01*
X120350000Y-40900000D02*
X121110000Y-40900000D01*
X121110000Y-40900000D02*
X121110000Y-46900000D01*
X120410000Y-46900000D02*
X120410000Y-40900000D01*
X120530000Y-46900000D02*
X120530000Y-40900000D01*
X120650000Y-46900000D02*
X120650000Y-40900000D01*
X120770000Y-46900000D02*
X120770000Y-40900000D01*
X120890000Y-46900000D02*
X120890000Y-40900000D01*
X121010000Y-46900000D02*
X121010000Y-40900000D01*
X120350000Y-49890000D02*
X120350000Y-49560000D01*
X121110000Y-49890000D02*
X121110000Y-49560000D01*
X122000000Y-49560000D02*
X122000000Y-46900000D01*
X122890000Y-46900000D02*
X122890000Y-40900000D01*
X122890000Y-40900000D02*
X123650000Y-40900000D01*
X123650000Y-40900000D02*
X123650000Y-46900000D01*
X122890000Y-49957071D02*
X122890000Y-49560000D01*
X123650000Y-49957071D02*
X123650000Y-49560000D01*
X120730000Y-52270000D02*
X119460000Y-52270000D01*
X119460000Y-52270000D02*
X119460000Y-51000000D01*
X134600000Y-79330000D02*
X134600000Y-76670000D01*
X132000000Y-79330000D02*
X134600000Y-79330000D01*
X132000000Y-76670000D02*
X134600000Y-76670000D01*
X132000000Y-79330000D02*
X132000000Y-76670000D01*
X130730000Y-79330000D02*
X129400000Y-79330000D01*
X129400000Y-79330000D02*
X129400000Y-78000000D01*
X124600000Y-97330000D02*
X124600000Y-94670000D01*
X122000000Y-97330000D02*
X124600000Y-97330000D01*
X122000000Y-94670000D02*
X124600000Y-94670000D01*
X122000000Y-97330000D02*
X122000000Y-94670000D01*
X120730000Y-97330000D02*
X119400000Y-97330000D01*
X119400000Y-97330000D02*
X119400000Y-96000000D01*
X134600000Y-97330000D02*
X134600000Y-94670000D01*
X132000000Y-97330000D02*
X134600000Y-97330000D01*
X132000000Y-94670000D02*
X134600000Y-94670000D01*
X132000000Y-97330000D02*
X132000000Y-94670000D01*
X130730000Y-97330000D02*
X129400000Y-97330000D01*
X129400000Y-97330000D02*
X129400000Y-96000000D01*
X124600000Y-122330000D02*
X124600000Y-119670000D01*
X122000000Y-122330000D02*
X124600000Y-122330000D01*
X122000000Y-119670000D02*
X124600000Y-119670000D01*
X122000000Y-122330000D02*
X122000000Y-119670000D01*
X120730000Y-122330000D02*
X119400000Y-122330000D01*
X119400000Y-122330000D02*
X119400000Y-121000000D01*
X134600000Y-122330000D02*
X134600000Y-119670000D01*
X132000000Y-122330000D02*
X134600000Y-122330000D01*
X132000000Y-119670000D02*
X134600000Y-119670000D01*
X132000000Y-122330000D02*
X132000000Y-119670000D01*
X130730000Y-122330000D02*
X129400000Y-122330000D01*
X129400000Y-122330000D02*
X129400000Y-121000000D01*
X113600000Y-122330000D02*
X113600000Y-119670000D01*
X111000000Y-122330000D02*
X113600000Y-122330000D01*
X111000000Y-119670000D02*
X113600000Y-119670000D01*
X111000000Y-122330000D02*
X111000000Y-119670000D01*
X109730000Y-122330000D02*
X108400000Y-122330000D01*
X108400000Y-122330000D02*
X108400000Y-121000000D01*
X103600000Y-122330000D02*
X103600000Y-119670000D01*
X101000000Y-122330000D02*
X103600000Y-122330000D01*
X101000000Y-119670000D02*
X103600000Y-119670000D01*
X101000000Y-122330000D02*
X101000000Y-119670000D01*
X99730000Y-122330000D02*
X98400000Y-122330000D01*
X98400000Y-122330000D02*
X98400000Y-121000000D01*
X113600000Y-97330000D02*
X113600000Y-94670000D01*
X111000000Y-97330000D02*
X113600000Y-97330000D01*
X111000000Y-94670000D02*
X113600000Y-94670000D01*
X111000000Y-97330000D02*
X111000000Y-94670000D01*
X109730000Y-97330000D02*
X108400000Y-97330000D01*
X108400000Y-97330000D02*
X108400000Y-96000000D01*
X103600000Y-97330000D02*
X103600000Y-94670000D01*
X101000000Y-97330000D02*
X103600000Y-97330000D01*
X101000000Y-94670000D02*
X103600000Y-94670000D01*
X101000000Y-97330000D02*
X101000000Y-94670000D01*
X99730000Y-97330000D02*
X98400000Y-97330000D01*
X98400000Y-97330000D02*
X98400000Y-96000000D01*
X113600000Y-79330000D02*
X113600000Y-76670000D01*
X111000000Y-79330000D02*
X113600000Y-79330000D01*
X111000000Y-76670000D02*
X113600000Y-76670000D01*
X111000000Y-79330000D02*
X111000000Y-76670000D01*
X109730000Y-79330000D02*
X108400000Y-79330000D01*
X108400000Y-79330000D02*
X108400000Y-78000000D01*
X98400000Y-49560000D02*
X103600000Y-49560000D01*
X103600000Y-49560000D02*
X103600000Y-46900000D01*
X103600000Y-46900000D02*
X98400000Y-46900000D01*
X98400000Y-46900000D02*
X98400000Y-49560000D01*
X99350000Y-46900000D02*
X99350000Y-40900000D01*
X99350000Y-40900000D02*
X100110000Y-40900000D01*
X100110000Y-40900000D02*
X100110000Y-46900000D01*
X99410000Y-46900000D02*
X99410000Y-40900000D01*
X99530000Y-46900000D02*
X99530000Y-40900000D01*
X99650000Y-46900000D02*
X99650000Y-40900000D01*
X99770000Y-46900000D02*
X99770000Y-40900000D01*
X99890000Y-46900000D02*
X99890000Y-40900000D01*
X100010000Y-46900000D02*
X100010000Y-40900000D01*
X99350000Y-49890000D02*
X99350000Y-49560000D01*
X100110000Y-49890000D02*
X100110000Y-49560000D01*
X101000000Y-49560000D02*
X101000000Y-46900000D01*
X101890000Y-46900000D02*
X101890000Y-40900000D01*
X101890000Y-40900000D02*
X102650000Y-40900000D01*
X102650000Y-40900000D02*
X102650000Y-46900000D01*
X101890000Y-49957071D02*
X101890000Y-49560000D01*
X102650000Y-49957071D02*
X102650000Y-49560000D01*
X99730000Y-52270000D02*
X98460000Y-52270000D01*
X98460000Y-52270000D02*
X98460000Y-51000000D01*
X108400000Y-49560000D02*
X113600000Y-49560000D01*
X113600000Y-49560000D02*
X113600000Y-46900000D01*
X113600000Y-46900000D02*
X108400000Y-46900000D01*
X108400000Y-46900000D02*
X108400000Y-49560000D01*
X109350000Y-46900000D02*
X109350000Y-40900000D01*
X109350000Y-40900000D02*
X110110000Y-40900000D01*
X110110000Y-40900000D02*
X110110000Y-46900000D01*
X109410000Y-46900000D02*
X109410000Y-40900000D01*
X109530000Y-46900000D02*
X109530000Y-40900000D01*
X109650000Y-46900000D02*
X109650000Y-40900000D01*
X109770000Y-46900000D02*
X109770000Y-40900000D01*
X109890000Y-46900000D02*
X109890000Y-40900000D01*
X110010000Y-46900000D02*
X110010000Y-40900000D01*
X109350000Y-49890000D02*
X109350000Y-49560000D01*
X110110000Y-49890000D02*
X110110000Y-49560000D01*
X111000000Y-49560000D02*
X111000000Y-46900000D01*
X111890000Y-46900000D02*
X111890000Y-40900000D01*
X111890000Y-40900000D02*
X112650000Y-40900000D01*
X112650000Y-40900000D02*
X112650000Y-46900000D01*
X111890000Y-49957071D02*
X111890000Y-49560000D01*
X112650000Y-49957071D02*
X112650000Y-49560000D01*
X109730000Y-52270000D02*
X108460000Y-52270000D01*
X108460000Y-52270000D02*
X108460000Y-51000000D01*
X113600000Y-72330000D02*
X113600000Y-69670000D01*
X111000000Y-72330000D02*
X113600000Y-72330000D01*
X111000000Y-69670000D02*
X113600000Y-69670000D01*
X111000000Y-72330000D02*
X111000000Y-69670000D01*
X109730000Y-72330000D02*
X108400000Y-72330000D01*
X108400000Y-72330000D02*
X108400000Y-71000000D01*
X103600000Y-72330000D02*
X103600000Y-69670000D01*
X101000000Y-72330000D02*
X103600000Y-72330000D01*
X101000000Y-69670000D02*
X103600000Y-69670000D01*
X101000000Y-72330000D02*
X101000000Y-69670000D01*
X99730000Y-72330000D02*
X98400000Y-72330000D01*
X98400000Y-72330000D02*
X98400000Y-71000000D01*
X113600000Y-104330000D02*
X113600000Y-101670000D01*
X111000000Y-104330000D02*
X113600000Y-104330000D01*
X111000000Y-101670000D02*
X113600000Y-101670000D01*
X111000000Y-104330000D02*
X111000000Y-101670000D01*
X109730000Y-104330000D02*
X108400000Y-104330000D01*
X108400000Y-104330000D02*
X108400000Y-103000000D01*
X103600000Y-104330000D02*
X103600000Y-101670000D01*
X101000000Y-104330000D02*
X103600000Y-104330000D01*
X101000000Y-101670000D02*
X103600000Y-101670000D01*
X101000000Y-104330000D02*
X101000000Y-101670000D01*
X99730000Y-104330000D02*
X98400000Y-104330000D01*
X98400000Y-104330000D02*
X98400000Y-103000000D01*
X103600000Y-79330000D02*
X103600000Y-76670000D01*
X101000000Y-79330000D02*
X103600000Y-79330000D01*
X101000000Y-76670000D02*
X103600000Y-76670000D01*
X101000000Y-79330000D02*
X101000000Y-76670000D01*
X99730000Y-79330000D02*
X98400000Y-79330000D01*
X98400000Y-79330000D02*
X98400000Y-78000000D01*
X82600000Y-79330000D02*
X82600000Y-76670000D01*
X80000000Y-79330000D02*
X82600000Y-79330000D01*
X80000000Y-76670000D02*
X82600000Y-76670000D01*
X80000000Y-79330000D02*
X80000000Y-76670000D01*
X78730000Y-79330000D02*
X77400000Y-79330000D01*
X77400000Y-79330000D02*
X77400000Y-78000000D01*
X82600000Y-104330000D02*
X82600000Y-101670000D01*
X80000000Y-104330000D02*
X82600000Y-104330000D01*
X80000000Y-101670000D02*
X82600000Y-101670000D01*
X80000000Y-104330000D02*
X80000000Y-101670000D01*
X78730000Y-104330000D02*
X77400000Y-104330000D01*
X77400000Y-104330000D02*
X77400000Y-103000000D01*
X92600000Y-104330000D02*
X92600000Y-101670000D01*
X90000000Y-104330000D02*
X92600000Y-104330000D01*
X90000000Y-101670000D02*
X92600000Y-101670000D01*
X90000000Y-104330000D02*
X90000000Y-101670000D01*
X88730000Y-104330000D02*
X87400000Y-104330000D01*
X87400000Y-104330000D02*
X87400000Y-103000000D01*
X82600000Y-72330000D02*
X82600000Y-69670000D01*
X80000000Y-72330000D02*
X82600000Y-72330000D01*
X80000000Y-69670000D02*
X82600000Y-69670000D01*
X80000000Y-72330000D02*
X80000000Y-69670000D01*
X78730000Y-72330000D02*
X77400000Y-72330000D01*
X77400000Y-72330000D02*
X77400000Y-71000000D01*
X92600000Y-72330000D02*
X92600000Y-69670000D01*
X90000000Y-72330000D02*
X92600000Y-72330000D01*
X90000000Y-69670000D02*
X92600000Y-69670000D01*
X90000000Y-72330000D02*
X90000000Y-69670000D01*
X88730000Y-72330000D02*
X87400000Y-72330000D01*
X87400000Y-72330000D02*
X87400000Y-71000000D01*
X87400000Y-49560000D02*
X92600000Y-49560000D01*
X92600000Y-49560000D02*
X92600000Y-46900000D01*
X92600000Y-46900000D02*
X87400000Y-46900000D01*
X87400000Y-46900000D02*
X87400000Y-49560000D01*
X88350000Y-46900000D02*
X88350000Y-40900000D01*
X88350000Y-40900000D02*
X89110000Y-40900000D01*
X89110000Y-40900000D02*
X89110000Y-46900000D01*
X88410000Y-46900000D02*
X88410000Y-40900000D01*
X88530000Y-46900000D02*
X88530000Y-40900000D01*
X88650000Y-46900000D02*
X88650000Y-40900000D01*
X88770000Y-46900000D02*
X88770000Y-40900000D01*
X88890000Y-46900000D02*
X88890000Y-40900000D01*
X89010000Y-46900000D02*
X89010000Y-40900000D01*
X88350000Y-49890000D02*
X88350000Y-49560000D01*
X89110000Y-49890000D02*
X89110000Y-49560000D01*
X90000000Y-49560000D02*
X90000000Y-46900000D01*
X90890000Y-46900000D02*
X90890000Y-40900000D01*
X90890000Y-40900000D02*
X91650000Y-40900000D01*
X91650000Y-40900000D02*
X91650000Y-46900000D01*
X90890000Y-49957071D02*
X90890000Y-49560000D01*
X91650000Y-49957071D02*
X91650000Y-49560000D01*
X88730000Y-52270000D02*
X87460000Y-52270000D01*
X87460000Y-52270000D02*
X87460000Y-51000000D01*
X77400000Y-49560000D02*
X82600000Y-49560000D01*
X82600000Y-49560000D02*
X82600000Y-46900000D01*
X82600000Y-46900000D02*
X77400000Y-46900000D01*
X77400000Y-46900000D02*
X77400000Y-49560000D01*
X78350000Y-46900000D02*
X78350000Y-40900000D01*
X78350000Y-40900000D02*
X79110000Y-40900000D01*
X79110000Y-40900000D02*
X79110000Y-46900000D01*
X78410000Y-46900000D02*
X78410000Y-40900000D01*
X78530000Y-46900000D02*
X78530000Y-40900000D01*
X78650000Y-46900000D02*
X78650000Y-40900000D01*
X78770000Y-46900000D02*
X78770000Y-40900000D01*
X78890000Y-46900000D02*
X78890000Y-40900000D01*
X79010000Y-46900000D02*
X79010000Y-40900000D01*
X78350000Y-49890000D02*
X78350000Y-49560000D01*
X79110000Y-49890000D02*
X79110000Y-49560000D01*
X80000000Y-49560000D02*
X80000000Y-46900000D01*
X80890000Y-46900000D02*
X80890000Y-40900000D01*
X80890000Y-40900000D02*
X81650000Y-40900000D01*
X81650000Y-40900000D02*
X81650000Y-46900000D01*
X80890000Y-49957071D02*
X80890000Y-49560000D01*
X81650000Y-49957071D02*
X81650000Y-49560000D01*
X78730000Y-52270000D02*
X77460000Y-52270000D01*
X77460000Y-52270000D02*
X77460000Y-51000000D01*
X92600000Y-79330000D02*
X92600000Y-76670000D01*
X90000000Y-79330000D02*
X92600000Y-79330000D01*
X90000000Y-76670000D02*
X92600000Y-76670000D01*
X90000000Y-79330000D02*
X90000000Y-76670000D01*
X88730000Y-79330000D02*
X87400000Y-79330000D01*
X87400000Y-79330000D02*
X87400000Y-78000000D01*
X82600000Y-97330000D02*
X82600000Y-94670000D01*
X80000000Y-97330000D02*
X82600000Y-97330000D01*
X80000000Y-94670000D02*
X82600000Y-94670000D01*
X80000000Y-97330000D02*
X80000000Y-94670000D01*
X78730000Y-97330000D02*
X77400000Y-97330000D01*
X77400000Y-97330000D02*
X77400000Y-96000000D01*
X92600000Y-97330000D02*
X92600000Y-94670000D01*
X90000000Y-97330000D02*
X92600000Y-97330000D01*
X90000000Y-94670000D02*
X92600000Y-94670000D01*
X90000000Y-97330000D02*
X90000000Y-94670000D01*
X88730000Y-97330000D02*
X87400000Y-97330000D01*
X87400000Y-97330000D02*
X87400000Y-96000000D01*
X82600000Y-122330000D02*
X82600000Y-119670000D01*
X80000000Y-122330000D02*
X82600000Y-122330000D01*
X80000000Y-119670000D02*
X82600000Y-119670000D01*
X80000000Y-122330000D02*
X80000000Y-119670000D01*
X78730000Y-122330000D02*
X77400000Y-122330000D01*
X77400000Y-122330000D02*
X77400000Y-121000000D01*
X92600000Y-122330000D02*
X92600000Y-119670000D01*
X90000000Y-122330000D02*
X92600000Y-122330000D01*
X90000000Y-119670000D02*
X92600000Y-119670000D01*
X90000000Y-122330000D02*
X90000000Y-119670000D01*
X88730000Y-122330000D02*
X87400000Y-122330000D01*
X87400000Y-122330000D02*
X87400000Y-121000000D01*
X71600000Y-122330000D02*
X71600000Y-119670000D01*
X69000000Y-122330000D02*
X71600000Y-122330000D01*
X69000000Y-119670000D02*
X71600000Y-119670000D01*
X69000000Y-122330000D02*
X69000000Y-119670000D01*
X67730000Y-122330000D02*
X66400000Y-122330000D01*
X66400000Y-122330000D02*
X66400000Y-121000000D01*
X61600000Y-122330000D02*
X61600000Y-119670000D01*
X59000000Y-122330000D02*
X61600000Y-122330000D01*
X59000000Y-119670000D02*
X61600000Y-119670000D01*
X59000000Y-122330000D02*
X59000000Y-119670000D01*
X57730000Y-122330000D02*
X56400000Y-122330000D01*
X56400000Y-122330000D02*
X56400000Y-121000000D01*
X71600000Y-97330000D02*
X71600000Y-94670000D01*
X69000000Y-97330000D02*
X71600000Y-97330000D01*
X69000000Y-94670000D02*
X71600000Y-94670000D01*
X69000000Y-97330000D02*
X69000000Y-94670000D01*
X67730000Y-97330000D02*
X66400000Y-97330000D01*
X66400000Y-97330000D02*
X66400000Y-96000000D01*
X61600000Y-97330000D02*
X61600000Y-94670000D01*
X59000000Y-97330000D02*
X61600000Y-97330000D01*
X59000000Y-94670000D02*
X61600000Y-94670000D01*
X59000000Y-97330000D02*
X59000000Y-94670000D01*
X57730000Y-97330000D02*
X56400000Y-97330000D01*
X56400000Y-97330000D02*
X56400000Y-96000000D01*
X71600000Y-79330000D02*
X71600000Y-76670000D01*
X69000000Y-79330000D02*
X71600000Y-79330000D01*
X69000000Y-76670000D02*
X71600000Y-76670000D01*
X69000000Y-79330000D02*
X69000000Y-76670000D01*
X67730000Y-79330000D02*
X66400000Y-79330000D01*
X66400000Y-79330000D02*
X66400000Y-78000000D01*
X56400000Y-49560000D02*
X61600000Y-49560000D01*
X61600000Y-49560000D02*
X61600000Y-46900000D01*
X61600000Y-46900000D02*
X56400000Y-46900000D01*
X56400000Y-46900000D02*
X56400000Y-49560000D01*
X57350000Y-46900000D02*
X57350000Y-40900000D01*
X57350000Y-40900000D02*
X58110000Y-40900000D01*
X58110000Y-40900000D02*
X58110000Y-46900000D01*
X57410000Y-46900000D02*
X57410000Y-40900000D01*
X57530000Y-46900000D02*
X57530000Y-40900000D01*
X57650000Y-46900000D02*
X57650000Y-40900000D01*
X57770000Y-46900000D02*
X57770000Y-40900000D01*
X57890000Y-46900000D02*
X57890000Y-40900000D01*
X58010000Y-46900000D02*
X58010000Y-40900000D01*
X57350000Y-49890000D02*
X57350000Y-49560000D01*
X58110000Y-49890000D02*
X58110000Y-49560000D01*
X59000000Y-49560000D02*
X59000000Y-46900000D01*
X59890000Y-46900000D02*
X59890000Y-40900000D01*
X59890000Y-40900000D02*
X60650000Y-40900000D01*
X60650000Y-40900000D02*
X60650000Y-46900000D01*
X59890000Y-49957071D02*
X59890000Y-49560000D01*
X60650000Y-49957071D02*
X60650000Y-49560000D01*
X57730000Y-52270000D02*
X56460000Y-52270000D01*
X56460000Y-52270000D02*
X56460000Y-51000000D01*
X66400000Y-49560000D02*
X71600000Y-49560000D01*
X71600000Y-49560000D02*
X71600000Y-46900000D01*
X71600000Y-46900000D02*
X66400000Y-46900000D01*
X66400000Y-46900000D02*
X66400000Y-49560000D01*
X67350000Y-46900000D02*
X67350000Y-40900000D01*
X67350000Y-40900000D02*
X68110000Y-40900000D01*
X68110000Y-40900000D02*
X68110000Y-46900000D01*
X67410000Y-46900000D02*
X67410000Y-40900000D01*
X67530000Y-46900000D02*
X67530000Y-40900000D01*
X67650000Y-46900000D02*
X67650000Y-40900000D01*
X67770000Y-46900000D02*
X67770000Y-40900000D01*
X67890000Y-46900000D02*
X67890000Y-40900000D01*
X68010000Y-46900000D02*
X68010000Y-40900000D01*
X67350000Y-49890000D02*
X67350000Y-49560000D01*
X68110000Y-49890000D02*
X68110000Y-49560000D01*
X69000000Y-49560000D02*
X69000000Y-46900000D01*
X69890000Y-46900000D02*
X69890000Y-40900000D01*
X69890000Y-40900000D02*
X70650000Y-40900000D01*
X70650000Y-40900000D02*
X70650000Y-46900000D01*
X69890000Y-49957071D02*
X69890000Y-49560000D01*
X70650000Y-49957071D02*
X70650000Y-49560000D01*
X67730000Y-52270000D02*
X66460000Y-52270000D01*
X66460000Y-52270000D02*
X66460000Y-51000000D01*
X71600000Y-72330000D02*
X71600000Y-69670000D01*
X69000000Y-72330000D02*
X71600000Y-72330000D01*
X69000000Y-69670000D02*
X71600000Y-69670000D01*
X69000000Y-72330000D02*
X69000000Y-69670000D01*
X67730000Y-72330000D02*
X66400000Y-72330000D01*
X66400000Y-72330000D02*
X66400000Y-71000000D01*
X61600000Y-72330000D02*
X61600000Y-69670000D01*
X59000000Y-72330000D02*
X61600000Y-72330000D01*
X59000000Y-69670000D02*
X61600000Y-69670000D01*
X59000000Y-72330000D02*
X59000000Y-69670000D01*
X57730000Y-72330000D02*
X56400000Y-72330000D01*
X56400000Y-72330000D02*
X56400000Y-71000000D01*
X71600000Y-104330000D02*
X71600000Y-101670000D01*
X69000000Y-104330000D02*
X71600000Y-104330000D01*
X69000000Y-101670000D02*
X71600000Y-101670000D01*
X69000000Y-104330000D02*
X69000000Y-101670000D01*
X67730000Y-104330000D02*
X66400000Y-104330000D01*
X66400000Y-104330000D02*
X66400000Y-103000000D01*
X61600000Y-104330000D02*
X61600000Y-101670000D01*
X59000000Y-104330000D02*
X61600000Y-104330000D01*
X59000000Y-101670000D02*
X61600000Y-101670000D01*
X59000000Y-104330000D02*
X59000000Y-101670000D01*
X57730000Y-104330000D02*
X56400000Y-104330000D01*
X56400000Y-104330000D02*
X56400000Y-103000000D01*
X61600000Y-79330000D02*
X61600000Y-76670000D01*
X59000000Y-79330000D02*
X61600000Y-79330000D01*
X59000000Y-76670000D02*
X61600000Y-76670000D01*
X59000000Y-79330000D02*
X59000000Y-76670000D01*
X57730000Y-79330000D02*
X56400000Y-79330000D01*
X56400000Y-79330000D02*
X56400000Y-78000000D01*
D14*
X127912381Y-47900714D02*
X128912381Y-47234047D01*
X127912381Y-47234047D02*
X128912381Y-47900714D01*
X127912381Y-46662619D02*
X127912381Y-46567380D01*
X127960000Y-46472142D01*
X128007619Y-46424523D01*
X128102857Y-46376904D01*
X128293333Y-46329285D01*
X128531429Y-46329285D01*
X128721905Y-46376904D01*
X128817143Y-46424523D01*
X128864762Y-46472142D01*
X128912381Y-46567380D01*
X128912381Y-46662619D01*
X128864762Y-46757857D01*
X128817143Y-46805476D01*
X128721905Y-46853095D01*
X128531429Y-46900714D01*
X128293333Y-46900714D01*
X128102857Y-46853095D01*
X128007619Y-46805476D01*
X127960000Y-46757857D01*
X127912381Y-46662619D01*
X128007619Y-45948333D02*
X127960000Y-45900714D01*
X127912381Y-45805476D01*
X127912381Y-45567380D01*
X127960000Y-45472142D01*
X128007619Y-45424523D01*
X128102857Y-45376904D01*
X128198095Y-45376904D01*
X128340952Y-45424523D01*
X128912381Y-45995952D01*
X128912381Y-45376904D01*
X117912381Y-47900714D02*
X118912381Y-47234047D01*
X117912381Y-47234047D02*
X118912381Y-47900714D01*
X117912381Y-46662619D02*
X117912381Y-46567380D01*
X117960000Y-46472142D01*
X118007619Y-46424523D01*
X118102857Y-46376904D01*
X118293333Y-46329285D01*
X118531429Y-46329285D01*
X118721905Y-46376904D01*
X118817143Y-46424523D01*
X118864762Y-46472142D01*
X118912381Y-46567380D01*
X118912381Y-46662619D01*
X118864762Y-46757857D01*
X118817143Y-46805476D01*
X118721905Y-46853095D01*
X118531429Y-46900714D01*
X118293333Y-46900714D01*
X118102857Y-46853095D01*
X118007619Y-46805476D01*
X117960000Y-46757857D01*
X117912381Y-46662619D01*
X118912381Y-45376904D02*
X118912381Y-45948333D01*
X118912381Y-45662619D02*
X117912381Y-45662619D01*
X118055238Y-45757857D01*
X118150476Y-45853095D01*
X118198095Y-45948333D01*
X96912381Y-47900714D02*
X97912381Y-47234047D01*
X96912381Y-47234047D02*
X97912381Y-47900714D01*
X96912381Y-46662619D02*
X96912381Y-46567380D01*
X96960000Y-46472142D01*
X97007619Y-46424523D01*
X97102857Y-46376904D01*
X97293333Y-46329285D01*
X97531429Y-46329285D01*
X97721905Y-46376904D01*
X97817143Y-46424523D01*
X97864762Y-46472142D01*
X97912381Y-46567380D01*
X97912381Y-46662619D01*
X97864762Y-46757857D01*
X97817143Y-46805476D01*
X97721905Y-46853095D01*
X97531429Y-46900714D01*
X97293333Y-46900714D01*
X97102857Y-46853095D01*
X97007619Y-46805476D01*
X96960000Y-46757857D01*
X96912381Y-46662619D01*
X97912381Y-45376904D02*
X97912381Y-45948333D01*
X97912381Y-45662619D02*
X96912381Y-45662619D01*
X97055238Y-45757857D01*
X97150476Y-45853095D01*
X97198095Y-45948333D01*
X106912381Y-47900714D02*
X107912381Y-47234047D01*
X106912381Y-47234047D02*
X107912381Y-47900714D01*
X106912381Y-46662619D02*
X106912381Y-46567380D01*
X106960000Y-46472142D01*
X107007619Y-46424523D01*
X107102857Y-46376904D01*
X107293333Y-46329285D01*
X107531429Y-46329285D01*
X107721905Y-46376904D01*
X107817143Y-46424523D01*
X107864762Y-46472142D01*
X107912381Y-46567380D01*
X107912381Y-46662619D01*
X107864762Y-46757857D01*
X107817143Y-46805476D01*
X107721905Y-46853095D01*
X107531429Y-46900714D01*
X107293333Y-46900714D01*
X107102857Y-46853095D01*
X107007619Y-46805476D01*
X106960000Y-46757857D01*
X106912381Y-46662619D01*
X107007619Y-45948333D02*
X106960000Y-45900714D01*
X106912381Y-45805476D01*
X106912381Y-45567380D01*
X106960000Y-45472142D01*
X107007619Y-45424523D01*
X107102857Y-45376904D01*
X107198095Y-45376904D01*
X107340952Y-45424523D01*
X107912381Y-45995952D01*
X107912381Y-45376904D01*
X85912381Y-47900714D02*
X86912381Y-47234047D01*
X85912381Y-47234047D02*
X86912381Y-47900714D01*
X85912381Y-46662619D02*
X85912381Y-46567380D01*
X85960000Y-46472142D01*
X86007619Y-46424523D01*
X86102857Y-46376904D01*
X86293333Y-46329285D01*
X86531429Y-46329285D01*
X86721905Y-46376904D01*
X86817143Y-46424523D01*
X86864762Y-46472142D01*
X86912381Y-46567380D01*
X86912381Y-46662619D01*
X86864762Y-46757857D01*
X86817143Y-46805476D01*
X86721905Y-46853095D01*
X86531429Y-46900714D01*
X86293333Y-46900714D01*
X86102857Y-46853095D01*
X86007619Y-46805476D01*
X85960000Y-46757857D01*
X85912381Y-46662619D01*
X86007619Y-45948333D02*
X85960000Y-45900714D01*
X85912381Y-45805476D01*
X85912381Y-45567380D01*
X85960000Y-45472142D01*
X86007619Y-45424523D01*
X86102857Y-45376904D01*
X86198095Y-45376904D01*
X86340952Y-45424523D01*
X86912381Y-45995952D01*
X86912381Y-45376904D01*
X75912381Y-47900714D02*
X76912381Y-47234047D01*
X75912381Y-47234047D02*
X76912381Y-47900714D01*
X75912381Y-46662619D02*
X75912381Y-46567380D01*
X75960000Y-46472142D01*
X76007619Y-46424523D01*
X76102857Y-46376904D01*
X76293333Y-46329285D01*
X76531429Y-46329285D01*
X76721905Y-46376904D01*
X76817143Y-46424523D01*
X76864762Y-46472142D01*
X76912381Y-46567380D01*
X76912381Y-46662619D01*
X76864762Y-46757857D01*
X76817143Y-46805476D01*
X76721905Y-46853095D01*
X76531429Y-46900714D01*
X76293333Y-46900714D01*
X76102857Y-46853095D01*
X76007619Y-46805476D01*
X75960000Y-46757857D01*
X75912381Y-46662619D01*
X76912381Y-45376904D02*
X76912381Y-45948333D01*
X76912381Y-45662619D02*
X75912381Y-45662619D01*
X76055238Y-45757857D01*
X76150476Y-45853095D01*
X76198095Y-45948333D01*
X54912381Y-47900714D02*
X55912381Y-47234047D01*
X54912381Y-47234047D02*
X55912381Y-47900714D01*
X54912381Y-46662619D02*
X54912381Y-46567380D01*
X54960000Y-46472142D01*
X55007619Y-46424523D01*
X55102857Y-46376904D01*
X55293333Y-46329285D01*
X55531429Y-46329285D01*
X55721905Y-46376904D01*
X55817143Y-46424523D01*
X55864762Y-46472142D01*
X55912381Y-46567380D01*
X55912381Y-46662619D01*
X55864762Y-46757857D01*
X55817143Y-46805476D01*
X55721905Y-46853095D01*
X55531429Y-46900714D01*
X55293333Y-46900714D01*
X55102857Y-46853095D01*
X55007619Y-46805476D01*
X54960000Y-46757857D01*
X54912381Y-46662619D01*
X55912381Y-45376904D02*
X55912381Y-45948333D01*
X55912381Y-45662619D02*
X54912381Y-45662619D01*
X55055238Y-45757857D01*
X55150476Y-45853095D01*
X55198095Y-45948333D01*
X64912381Y-47900714D02*
X65912381Y-47234047D01*
X64912381Y-47234047D02*
X65912381Y-47900714D01*
X64912381Y-46662619D02*
X64912381Y-46567380D01*
X64960000Y-46472142D01*
X65007619Y-46424523D01*
X65102857Y-46376904D01*
X65293333Y-46329285D01*
X65531429Y-46329285D01*
X65721905Y-46376904D01*
X65817143Y-46424523D01*
X65864762Y-46472142D01*
X65912381Y-46567380D01*
X65912381Y-46662619D01*
X65864762Y-46757857D01*
X65817143Y-46805476D01*
X65721905Y-46853095D01*
X65531429Y-46900714D01*
X65293333Y-46900714D01*
X65102857Y-46853095D01*
X65007619Y-46805476D01*
X64960000Y-46757857D01*
X64912381Y-46662619D01*
X65007619Y-45948333D02*
X64960000Y-45900714D01*
X64912381Y-45805476D01*
X64912381Y-45567380D01*
X64960000Y-45472142D01*
X65007619Y-45424523D01*
X65102857Y-45376904D01*
X65198095Y-45376904D01*
X65340952Y-45424523D01*
X65912381Y-45995952D01*
X65912381Y-45376904D01*
M02*
