M48
; DRILL file {KiCad (5.1.0)-1} date 15.06.2019 12:37:27
; FORMAT={-:-/ absolute / metric / decimal}
; #@! TF.CreationDate,2019-06-15T12:37:27+02:00
; #@! TF.GenerationSoftware,Kicad,Pcbnew,(5.1.0)-1
; #@! TF.FileFunction,NonPlated,1,2,NPTH
FMAT,2
METRIC
T1C0.500
T2C0.600
T3C0.700
%
G90
G05
T1
X74.643Y-65.448
T2
X76.167Y-65.448
T3
X77.064Y-65.575
X78.08Y-65.575
X79.096Y-65.575
X80.112Y-65.575
X81.128Y-65.575
X82.144Y-65.575
X83.16Y-65.575
X84.176Y-65.575
X85.2Y-65.575
X86.2Y-65.575
X75.405Y-75.116
X75.405Y-76.116
X75.405Y-77.14
X75.405Y-78.156
X75.405Y-79.172
X75.405Y-80.188
X75.405Y-81.204
X75.405Y-82.22
X75.405Y-83.236
X75.405Y-84.252
X76.421Y-90.975
X77.437Y-90.975
X78.453Y-90.975
X79.469Y-90.975
X80.485Y-90.975
X81.501Y-90.975
X82.517Y-90.975
X83.533Y-90.975
X84.557Y-90.975
X85.557Y-90.975
X64.618Y-65.575
X65.618Y-65.575
X66.642Y-65.575
X67.658Y-65.575
X68.674Y-65.575
X69.69Y-65.575
X70.706Y-65.575
X71.722Y-65.575
X72.738Y-65.575
X73.754Y-65.575
X75.405Y-44.62
X75.405Y-45.62
X75.405Y-46.644
X75.405Y-47.66
X75.405Y-48.676
X75.405Y-49.692
X75.405Y-50.708
X75.405Y-51.724
X75.405Y-52.74
X75.405Y-53.756
X65.253Y-90.975
X66.253Y-90.975
X67.277Y-90.975
X68.293Y-90.975
X69.309Y-90.975
X70.325Y-90.975
X71.341Y-90.975
X72.357Y-90.975
X73.373Y-90.975
X74.389Y-90.975
X75.405Y-64.956
X75.405Y-65.956
X75.405Y-66.98
X75.405Y-67.996
X75.405Y-69.012
X75.405Y-70.028
X75.405Y-71.044
X75.405Y-72.06
X75.405Y-73.076
X75.405Y-74.092
X75.405Y-95.436
X75.405Y-96.436
X75.405Y-97.46
X75.405Y-98.476
X75.405Y-99.492
X75.405Y-100.508
X75.405Y-101.524
X75.405Y-102.54
X75.405Y-103.556
X75.405Y-104.572
X75.405Y-85.26
X75.405Y-86.26
X75.405Y-87.284
X75.405Y-88.3
X75.405Y-89.316
X75.405Y-90.332
X75.405Y-91.348
X75.405Y-92.364
X75.405Y-93.38
X75.405Y-94.396
X75.405Y-54.788
X75.405Y-55.788
X75.405Y-56.812
X75.405Y-57.828
X75.405Y-58.844
X75.405Y-59.86
X75.405Y-60.876
X75.405Y-61.892
X75.405Y-62.908
X75.405Y-63.924
X75.405Y-105.588
X75.405Y-106.588
X75.405Y-107.612
X75.405Y-108.628
X75.405Y-109.644
X75.405Y-110.66
X75.405Y-111.676
X75.405Y-112.692
X75.405Y-113.708
X75.405Y-114.724
T0
M30
