M48
; DRILL file {KiCad (5.1.0)-1} date 24.06.2019 18:37:45
; FORMAT={-:-/ absolute / metric / decimal}
; #@! TF.CreationDate,2019-06-24T18:37:45+02:00
; #@! TF.GenerationSoftware,Kicad,Pcbnew,(5.1.0)-1
; #@! TF.FileFunction,Plated,1,2,PTH
FMAT,2
METRIC
T1C0.800
T2C1.000
T3C1.100
%
G90
G05
T1
X105.08Y-104.61
X105.08Y-116.04
X105.08Y-128.74
X105.08Y-141.44
X107.62Y-104.61
X107.62Y-116.04
X107.62Y-128.74
X107.62Y-141.44
T2
X105.08Y-71.59
X107.62Y-71.59
X105.08Y-80.48
X107.62Y-80.48
X105.08Y-53.81
X107.62Y-53.81
T3
X103.81Y-57.62
X103.81Y-60.16
X105.08Y-63.97
X107.62Y-63.97
X105.08Y-100.8
X107.62Y-100.8
X105.08Y-94.45
X107.62Y-94.45
X108.89Y-57.62
X108.89Y-60.16
X105.08Y-126.2
X107.62Y-126.2
X105.08Y-119.85
X107.62Y-119.85
X105.08Y-143.98
X107.62Y-143.98
T0
M30
