G04 #@! TF.GenerationSoftware,KiCad,Pcbnew,(5.1.0)-1*
G04 #@! TF.CreationDate,2019-06-15T12:37:24+02:00*
G04 #@! TF.ProjectId,DiodeAdapter,44696f64-6541-4646-9170-7465722e6b69,2*
G04 #@! TF.SameCoordinates,Original*
G04 #@! TF.FileFunction,Copper,L2,Bot*
G04 #@! TF.FilePolarity,Positive*
%FSLAX46Y46*%
G04 Gerber Fmt 4.6, Leading zero omitted, Abs format (unit mm)*
G04 Created by KiCad (PCBNEW (5.1.0)-1) date 2019-06-15 12:37:24*
%MOMM*%
%LPD*%
G04 APERTURE LIST*
%ADD10R,4.000000X5.200000*%
%ADD11R,3.000000X5.200000*%
%ADD12R,1.500000X1.650000*%
%ADD13R,1.700000X1.700000*%
%ADD14O,1.700000X1.700000*%
%ADD15C,1.900000*%
%ADD16R,1.900000X1.900000*%
%ADD17C,1.500000*%
%ADD18C,1.000000*%
%ADD19C,0.254000*%
G04 APERTURE END LIST*
D10*
X78620000Y-78910000D03*
D11*
X84120000Y-78910000D03*
D12*
X82020000Y-103040000D03*
X80220000Y-103040000D03*
D11*
X72690000Y-78910000D03*
D10*
X67190000Y-78910000D03*
D12*
X68790000Y-103040000D03*
X70590000Y-103040000D03*
D13*
X79850000Y-48430000D03*
D14*
X82390000Y-48430000D03*
D15*
X82390000Y-62400000D03*
D16*
X79850000Y-62400000D03*
D15*
X82390000Y-87800000D03*
D16*
X79850000Y-87800000D03*
X79850000Y-68750000D03*
D15*
X82390000Y-68750000D03*
X82390000Y-94150000D03*
D16*
X79850000Y-94150000D03*
X79850000Y-111930000D03*
D15*
X82390000Y-111930000D03*
D14*
X70960000Y-48430000D03*
D13*
X68420000Y-48430000D03*
D16*
X68420000Y-62400000D03*
D15*
X70960000Y-62400000D03*
D16*
X68420000Y-68750000D03*
D15*
X70960000Y-68750000D03*
D16*
X68420000Y-87800000D03*
D15*
X70960000Y-87800000D03*
D16*
X68420000Y-94150000D03*
D15*
X70960000Y-94150000D03*
X70960000Y-111930000D03*
D16*
X68420000Y-111930000D03*
D17*
X79850000Y-72560000D03*
X79850000Y-83990000D03*
X82390000Y-83990000D03*
X82390000Y-72560000D03*
X79850000Y-96690000D03*
X79850000Y-109390000D03*
X82390000Y-96690000D03*
X82390000Y-109390000D03*
X70960000Y-83990000D03*
X70960000Y-72560000D03*
X68420000Y-72560000D03*
X68420000Y-83990000D03*
X68420000Y-109390000D03*
X68420000Y-96690000D03*
X70960000Y-109390000D03*
X70960000Y-96690000D03*
D18*
X78620000Y-73790000D02*
X79850000Y-72560000D01*
X78620000Y-78910000D02*
X78620000Y-73790000D01*
X78620000Y-82760000D02*
X79850000Y-83990000D01*
X78620000Y-78910000D02*
X78620000Y-82760000D01*
X84120000Y-74290000D02*
X82390000Y-72560000D01*
X84120000Y-78910000D02*
X84120000Y-74290000D01*
X84120000Y-82260000D02*
X82390000Y-83990000D01*
X84120000Y-78910000D02*
X84120000Y-82260000D01*
X80220000Y-103040000D02*
X80220000Y-105210000D01*
X79850000Y-105580000D02*
X79850000Y-109390000D01*
X80220000Y-105210000D02*
X79850000Y-105580000D01*
X80220000Y-103040000D02*
X80220000Y-100870000D01*
X79850000Y-100500000D02*
X79850000Y-96690000D01*
X80220000Y-100870000D02*
X79850000Y-100500000D01*
X82020000Y-103040000D02*
X82020000Y-105210000D01*
X82390000Y-105580000D02*
X82390000Y-109390000D01*
X82020000Y-105210000D02*
X82390000Y-105580000D01*
X82020000Y-103040000D02*
X82020000Y-100870000D01*
X82390000Y-100500000D02*
X82390000Y-96690000D01*
X82020000Y-100870000D02*
X82390000Y-100500000D01*
X70960000Y-83990000D02*
X72690000Y-82260000D01*
X72690000Y-82260000D02*
X72690000Y-78910000D01*
X72690000Y-74290000D02*
X70960000Y-72560000D01*
X72690000Y-78910000D02*
X72690000Y-74290000D01*
X67190000Y-78910000D02*
X67190000Y-73790000D01*
X68420000Y-72560000D02*
X67190000Y-73790000D01*
X67190000Y-82760000D02*
X68420000Y-83990000D01*
X67190000Y-78910000D02*
X67190000Y-82760000D01*
X68790000Y-103040000D02*
X68790000Y-100870000D01*
X68420000Y-100500000D02*
X68420000Y-96690000D01*
X68790000Y-100870000D02*
X68420000Y-100500000D01*
X68790000Y-103040000D02*
X68790000Y-105210000D01*
X68420000Y-108329340D02*
X68420000Y-109390000D01*
X68420000Y-105580000D02*
X68420000Y-108329340D01*
X68790000Y-105210000D02*
X68420000Y-105580000D01*
X70590000Y-103040000D02*
X70590000Y-100870000D01*
X70960000Y-100500000D02*
X70960000Y-96690000D01*
X70590000Y-100870000D02*
X70960000Y-100500000D01*
X70590000Y-105210000D02*
X70960000Y-105580000D01*
X70590000Y-103040000D02*
X70590000Y-105210000D01*
X70960000Y-105580000D02*
X70960000Y-109390000D01*
X82390000Y-48430000D02*
X82390000Y-62400000D01*
X70960000Y-48430000D02*
X70960000Y-62400000D01*
D19*
G36*
X74008000Y-64178000D02*
G01*
X65320000Y-64178000D01*
X65320000Y-61450000D01*
X66831928Y-61450000D01*
X66831928Y-63350000D01*
X66844188Y-63474482D01*
X66880498Y-63594180D01*
X66939463Y-63704494D01*
X67018815Y-63801185D01*
X67115506Y-63880537D01*
X67225820Y-63939502D01*
X67345518Y-63975812D01*
X67470000Y-63988072D01*
X69370000Y-63988072D01*
X69494482Y-63975812D01*
X69614180Y-63939502D01*
X69724494Y-63880537D01*
X69821185Y-63801185D01*
X69900537Y-63704494D01*
X69959502Y-63594180D01*
X69965630Y-63573978D01*
X70039854Y-63499754D01*
X70129579Y-63759042D01*
X70410671Y-63894935D01*
X70712873Y-63973379D01*
X71024573Y-63991359D01*
X71333791Y-63948184D01*
X71628644Y-63845513D01*
X71790421Y-63759042D01*
X71880147Y-63499752D01*
X70960000Y-62579605D01*
X70945858Y-62593748D01*
X70766253Y-62414143D01*
X70780395Y-62400000D01*
X71139605Y-62400000D01*
X72059752Y-63320147D01*
X72319042Y-63230421D01*
X72454935Y-62949329D01*
X72533379Y-62647127D01*
X72551359Y-62335427D01*
X72508184Y-62026209D01*
X72405513Y-61731356D01*
X72319042Y-61569579D01*
X72059752Y-61479853D01*
X71139605Y-62400000D01*
X70780395Y-62400000D01*
X70766253Y-62385858D01*
X70945858Y-62206253D01*
X70960000Y-62220395D01*
X71880147Y-61300248D01*
X71790421Y-61040958D01*
X71509329Y-60905065D01*
X71207127Y-60826621D01*
X70895427Y-60808641D01*
X70586209Y-60851816D01*
X70291356Y-60954487D01*
X70129579Y-61040958D01*
X70039854Y-61300246D01*
X69965630Y-61226022D01*
X69959502Y-61205820D01*
X69900537Y-61095506D01*
X69821185Y-60998815D01*
X69724494Y-60919463D01*
X69614180Y-60860498D01*
X69494482Y-60824188D01*
X69370000Y-60811928D01*
X67470000Y-60811928D01*
X67345518Y-60824188D01*
X67225820Y-60860498D01*
X67115506Y-60919463D01*
X67018815Y-60998815D01*
X66939463Y-61095506D01*
X66880498Y-61205820D01*
X66844188Y-61325518D01*
X66831928Y-61450000D01*
X65320000Y-61450000D01*
X65320000Y-47580000D01*
X66931928Y-47580000D01*
X66931928Y-49280000D01*
X66944188Y-49404482D01*
X66980498Y-49524180D01*
X67039463Y-49634494D01*
X67118815Y-49731185D01*
X67215506Y-49810537D01*
X67325820Y-49869502D01*
X67445518Y-49905812D01*
X67570000Y-49918072D01*
X69270000Y-49918072D01*
X69394482Y-49905812D01*
X69514180Y-49869502D01*
X69624494Y-49810537D01*
X69721185Y-49731185D01*
X69800537Y-49634494D01*
X69859502Y-49524180D01*
X69883966Y-49443534D01*
X69959731Y-49527588D01*
X70193080Y-49701641D01*
X70455901Y-49826825D01*
X70603110Y-49871476D01*
X70833000Y-49750155D01*
X70833000Y-48557000D01*
X71087000Y-48557000D01*
X71087000Y-49750155D01*
X71316890Y-49871476D01*
X71464099Y-49826825D01*
X71726920Y-49701641D01*
X71960269Y-49527588D01*
X72155178Y-49311355D01*
X72304157Y-49061252D01*
X72401481Y-48786891D01*
X72280814Y-48557000D01*
X71087000Y-48557000D01*
X70833000Y-48557000D01*
X70813000Y-48557000D01*
X70813000Y-48303000D01*
X70833000Y-48303000D01*
X70833000Y-47109845D01*
X71087000Y-47109845D01*
X71087000Y-48303000D01*
X72280814Y-48303000D01*
X72401481Y-48073109D01*
X72304157Y-47798748D01*
X72155178Y-47548645D01*
X71960269Y-47332412D01*
X71726920Y-47158359D01*
X71464099Y-47033175D01*
X71316890Y-46988524D01*
X71087000Y-47109845D01*
X70833000Y-47109845D01*
X70603110Y-46988524D01*
X70455901Y-47033175D01*
X70193080Y-47158359D01*
X69959731Y-47332412D01*
X69883966Y-47416466D01*
X69859502Y-47335820D01*
X69800537Y-47225506D01*
X69721185Y-47128815D01*
X69624494Y-47049463D01*
X69514180Y-46990498D01*
X69394482Y-46954188D01*
X69270000Y-46941928D01*
X67570000Y-46941928D01*
X67445518Y-46954188D01*
X67325820Y-46990498D01*
X67215506Y-47049463D01*
X67118815Y-47128815D01*
X67039463Y-47225506D01*
X66980498Y-47335820D01*
X66944188Y-47455518D01*
X66931928Y-47580000D01*
X65320000Y-47580000D01*
X65320000Y-45330000D01*
X74008000Y-45330000D01*
X74008000Y-64178000D01*
X74008000Y-64178000D01*
G37*
X74008000Y-64178000D02*
X65320000Y-64178000D01*
X65320000Y-61450000D01*
X66831928Y-61450000D01*
X66831928Y-63350000D01*
X66844188Y-63474482D01*
X66880498Y-63594180D01*
X66939463Y-63704494D01*
X67018815Y-63801185D01*
X67115506Y-63880537D01*
X67225820Y-63939502D01*
X67345518Y-63975812D01*
X67470000Y-63988072D01*
X69370000Y-63988072D01*
X69494482Y-63975812D01*
X69614180Y-63939502D01*
X69724494Y-63880537D01*
X69821185Y-63801185D01*
X69900537Y-63704494D01*
X69959502Y-63594180D01*
X69965630Y-63573978D01*
X70039854Y-63499754D01*
X70129579Y-63759042D01*
X70410671Y-63894935D01*
X70712873Y-63973379D01*
X71024573Y-63991359D01*
X71333791Y-63948184D01*
X71628644Y-63845513D01*
X71790421Y-63759042D01*
X71880147Y-63499752D01*
X70960000Y-62579605D01*
X70945858Y-62593748D01*
X70766253Y-62414143D01*
X70780395Y-62400000D01*
X71139605Y-62400000D01*
X72059752Y-63320147D01*
X72319042Y-63230421D01*
X72454935Y-62949329D01*
X72533379Y-62647127D01*
X72551359Y-62335427D01*
X72508184Y-62026209D01*
X72405513Y-61731356D01*
X72319042Y-61569579D01*
X72059752Y-61479853D01*
X71139605Y-62400000D01*
X70780395Y-62400000D01*
X70766253Y-62385858D01*
X70945858Y-62206253D01*
X70960000Y-62220395D01*
X71880147Y-61300248D01*
X71790421Y-61040958D01*
X71509329Y-60905065D01*
X71207127Y-60826621D01*
X70895427Y-60808641D01*
X70586209Y-60851816D01*
X70291356Y-60954487D01*
X70129579Y-61040958D01*
X70039854Y-61300246D01*
X69965630Y-61226022D01*
X69959502Y-61205820D01*
X69900537Y-61095506D01*
X69821185Y-60998815D01*
X69724494Y-60919463D01*
X69614180Y-60860498D01*
X69494482Y-60824188D01*
X69370000Y-60811928D01*
X67470000Y-60811928D01*
X67345518Y-60824188D01*
X67225820Y-60860498D01*
X67115506Y-60919463D01*
X67018815Y-60998815D01*
X66939463Y-61095506D01*
X66880498Y-61205820D01*
X66844188Y-61325518D01*
X66831928Y-61450000D01*
X65320000Y-61450000D01*
X65320000Y-47580000D01*
X66931928Y-47580000D01*
X66931928Y-49280000D01*
X66944188Y-49404482D01*
X66980498Y-49524180D01*
X67039463Y-49634494D01*
X67118815Y-49731185D01*
X67215506Y-49810537D01*
X67325820Y-49869502D01*
X67445518Y-49905812D01*
X67570000Y-49918072D01*
X69270000Y-49918072D01*
X69394482Y-49905812D01*
X69514180Y-49869502D01*
X69624494Y-49810537D01*
X69721185Y-49731185D01*
X69800537Y-49634494D01*
X69859502Y-49524180D01*
X69883966Y-49443534D01*
X69959731Y-49527588D01*
X70193080Y-49701641D01*
X70455901Y-49826825D01*
X70603110Y-49871476D01*
X70833000Y-49750155D01*
X70833000Y-48557000D01*
X71087000Y-48557000D01*
X71087000Y-49750155D01*
X71316890Y-49871476D01*
X71464099Y-49826825D01*
X71726920Y-49701641D01*
X71960269Y-49527588D01*
X72155178Y-49311355D01*
X72304157Y-49061252D01*
X72401481Y-48786891D01*
X72280814Y-48557000D01*
X71087000Y-48557000D01*
X70833000Y-48557000D01*
X70813000Y-48557000D01*
X70813000Y-48303000D01*
X70833000Y-48303000D01*
X70833000Y-47109845D01*
X71087000Y-47109845D01*
X71087000Y-48303000D01*
X72280814Y-48303000D01*
X72401481Y-48073109D01*
X72304157Y-47798748D01*
X72155178Y-47548645D01*
X71960269Y-47332412D01*
X71726920Y-47158359D01*
X71464099Y-47033175D01*
X71316890Y-46988524D01*
X71087000Y-47109845D01*
X70833000Y-47109845D01*
X70603110Y-46988524D01*
X70455901Y-47033175D01*
X70193080Y-47158359D01*
X69959731Y-47332412D01*
X69883966Y-47416466D01*
X69859502Y-47335820D01*
X69800537Y-47225506D01*
X69721185Y-47128815D01*
X69624494Y-47049463D01*
X69514180Y-46990498D01*
X69394482Y-46954188D01*
X69270000Y-46941928D01*
X67570000Y-46941928D01*
X67445518Y-46954188D01*
X67325820Y-46990498D01*
X67215506Y-47049463D01*
X67118815Y-47128815D01*
X67039463Y-47225506D01*
X66980498Y-47335820D01*
X66944188Y-47455518D01*
X66931928Y-47580000D01*
X65320000Y-47580000D01*
X65320000Y-45330000D01*
X74008000Y-45330000D01*
X74008000Y-64178000D01*
G36*
X85490001Y-64178000D02*
G01*
X76802000Y-64178000D01*
X76802000Y-61450000D01*
X78261928Y-61450000D01*
X78261928Y-63350000D01*
X78274188Y-63474482D01*
X78310498Y-63594180D01*
X78369463Y-63704494D01*
X78448815Y-63801185D01*
X78545506Y-63880537D01*
X78655820Y-63939502D01*
X78775518Y-63975812D01*
X78900000Y-63988072D01*
X80800000Y-63988072D01*
X80924482Y-63975812D01*
X81044180Y-63939502D01*
X81154494Y-63880537D01*
X81251185Y-63801185D01*
X81330537Y-63704494D01*
X81389502Y-63594180D01*
X81395630Y-63573978D01*
X81469854Y-63499754D01*
X81559579Y-63759042D01*
X81840671Y-63894935D01*
X82142873Y-63973379D01*
X82454573Y-63991359D01*
X82763791Y-63948184D01*
X83058644Y-63845513D01*
X83220421Y-63759042D01*
X83310147Y-63499752D01*
X82390000Y-62579605D01*
X82375858Y-62593748D01*
X82196253Y-62414143D01*
X82210395Y-62400000D01*
X82569605Y-62400000D01*
X83489752Y-63320147D01*
X83749042Y-63230421D01*
X83884935Y-62949329D01*
X83963379Y-62647127D01*
X83981359Y-62335427D01*
X83938184Y-62026209D01*
X83835513Y-61731356D01*
X83749042Y-61569579D01*
X83489752Y-61479853D01*
X82569605Y-62400000D01*
X82210395Y-62400000D01*
X82196253Y-62385858D01*
X82375858Y-62206253D01*
X82390000Y-62220395D01*
X83310147Y-61300248D01*
X83220421Y-61040958D01*
X82939329Y-60905065D01*
X82637127Y-60826621D01*
X82325427Y-60808641D01*
X82016209Y-60851816D01*
X81721356Y-60954487D01*
X81559579Y-61040958D01*
X81469854Y-61300246D01*
X81395630Y-61226022D01*
X81389502Y-61205820D01*
X81330537Y-61095506D01*
X81251185Y-60998815D01*
X81154494Y-60919463D01*
X81044180Y-60860498D01*
X80924482Y-60824188D01*
X80800000Y-60811928D01*
X78900000Y-60811928D01*
X78775518Y-60824188D01*
X78655820Y-60860498D01*
X78545506Y-60919463D01*
X78448815Y-60998815D01*
X78369463Y-61095506D01*
X78310498Y-61205820D01*
X78274188Y-61325518D01*
X78261928Y-61450000D01*
X76802000Y-61450000D01*
X76802000Y-47580000D01*
X78361928Y-47580000D01*
X78361928Y-49280000D01*
X78374188Y-49404482D01*
X78410498Y-49524180D01*
X78469463Y-49634494D01*
X78548815Y-49731185D01*
X78645506Y-49810537D01*
X78755820Y-49869502D01*
X78875518Y-49905812D01*
X79000000Y-49918072D01*
X80700000Y-49918072D01*
X80824482Y-49905812D01*
X80944180Y-49869502D01*
X81054494Y-49810537D01*
X81151185Y-49731185D01*
X81230537Y-49634494D01*
X81289502Y-49524180D01*
X81313966Y-49443534D01*
X81389731Y-49527588D01*
X81623080Y-49701641D01*
X81885901Y-49826825D01*
X82033110Y-49871476D01*
X82263000Y-49750155D01*
X82263000Y-48557000D01*
X82517000Y-48557000D01*
X82517000Y-49750155D01*
X82746890Y-49871476D01*
X82894099Y-49826825D01*
X83156920Y-49701641D01*
X83390269Y-49527588D01*
X83585178Y-49311355D01*
X83734157Y-49061252D01*
X83831481Y-48786891D01*
X83710814Y-48557000D01*
X82517000Y-48557000D01*
X82263000Y-48557000D01*
X82243000Y-48557000D01*
X82243000Y-48303000D01*
X82263000Y-48303000D01*
X82263000Y-47109845D01*
X82517000Y-47109845D01*
X82517000Y-48303000D01*
X83710814Y-48303000D01*
X83831481Y-48073109D01*
X83734157Y-47798748D01*
X83585178Y-47548645D01*
X83390269Y-47332412D01*
X83156920Y-47158359D01*
X82894099Y-47033175D01*
X82746890Y-46988524D01*
X82517000Y-47109845D01*
X82263000Y-47109845D01*
X82033110Y-46988524D01*
X81885901Y-47033175D01*
X81623080Y-47158359D01*
X81389731Y-47332412D01*
X81313966Y-47416466D01*
X81289502Y-47335820D01*
X81230537Y-47225506D01*
X81151185Y-47128815D01*
X81054494Y-47049463D01*
X80944180Y-46990498D01*
X80824482Y-46954188D01*
X80700000Y-46941928D01*
X79000000Y-46941928D01*
X78875518Y-46954188D01*
X78755820Y-46990498D01*
X78645506Y-47049463D01*
X78548815Y-47128815D01*
X78469463Y-47225506D01*
X78410498Y-47335820D01*
X78374188Y-47455518D01*
X78361928Y-47580000D01*
X76802000Y-47580000D01*
X76802000Y-45330000D01*
X85490000Y-45330000D01*
X85490001Y-64178000D01*
X85490001Y-64178000D01*
G37*
X85490001Y-64178000D02*
X76802000Y-64178000D01*
X76802000Y-61450000D01*
X78261928Y-61450000D01*
X78261928Y-63350000D01*
X78274188Y-63474482D01*
X78310498Y-63594180D01*
X78369463Y-63704494D01*
X78448815Y-63801185D01*
X78545506Y-63880537D01*
X78655820Y-63939502D01*
X78775518Y-63975812D01*
X78900000Y-63988072D01*
X80800000Y-63988072D01*
X80924482Y-63975812D01*
X81044180Y-63939502D01*
X81154494Y-63880537D01*
X81251185Y-63801185D01*
X81330537Y-63704494D01*
X81389502Y-63594180D01*
X81395630Y-63573978D01*
X81469854Y-63499754D01*
X81559579Y-63759042D01*
X81840671Y-63894935D01*
X82142873Y-63973379D01*
X82454573Y-63991359D01*
X82763791Y-63948184D01*
X83058644Y-63845513D01*
X83220421Y-63759042D01*
X83310147Y-63499752D01*
X82390000Y-62579605D01*
X82375858Y-62593748D01*
X82196253Y-62414143D01*
X82210395Y-62400000D01*
X82569605Y-62400000D01*
X83489752Y-63320147D01*
X83749042Y-63230421D01*
X83884935Y-62949329D01*
X83963379Y-62647127D01*
X83981359Y-62335427D01*
X83938184Y-62026209D01*
X83835513Y-61731356D01*
X83749042Y-61569579D01*
X83489752Y-61479853D01*
X82569605Y-62400000D01*
X82210395Y-62400000D01*
X82196253Y-62385858D01*
X82375858Y-62206253D01*
X82390000Y-62220395D01*
X83310147Y-61300248D01*
X83220421Y-61040958D01*
X82939329Y-60905065D01*
X82637127Y-60826621D01*
X82325427Y-60808641D01*
X82016209Y-60851816D01*
X81721356Y-60954487D01*
X81559579Y-61040958D01*
X81469854Y-61300246D01*
X81395630Y-61226022D01*
X81389502Y-61205820D01*
X81330537Y-61095506D01*
X81251185Y-60998815D01*
X81154494Y-60919463D01*
X81044180Y-60860498D01*
X80924482Y-60824188D01*
X80800000Y-60811928D01*
X78900000Y-60811928D01*
X78775518Y-60824188D01*
X78655820Y-60860498D01*
X78545506Y-60919463D01*
X78448815Y-60998815D01*
X78369463Y-61095506D01*
X78310498Y-61205820D01*
X78274188Y-61325518D01*
X78261928Y-61450000D01*
X76802000Y-61450000D01*
X76802000Y-47580000D01*
X78361928Y-47580000D01*
X78361928Y-49280000D01*
X78374188Y-49404482D01*
X78410498Y-49524180D01*
X78469463Y-49634494D01*
X78548815Y-49731185D01*
X78645506Y-49810537D01*
X78755820Y-49869502D01*
X78875518Y-49905812D01*
X79000000Y-49918072D01*
X80700000Y-49918072D01*
X80824482Y-49905812D01*
X80944180Y-49869502D01*
X81054494Y-49810537D01*
X81151185Y-49731185D01*
X81230537Y-49634494D01*
X81289502Y-49524180D01*
X81313966Y-49443534D01*
X81389731Y-49527588D01*
X81623080Y-49701641D01*
X81885901Y-49826825D01*
X82033110Y-49871476D01*
X82263000Y-49750155D01*
X82263000Y-48557000D01*
X82517000Y-48557000D01*
X82517000Y-49750155D01*
X82746890Y-49871476D01*
X82894099Y-49826825D01*
X83156920Y-49701641D01*
X83390269Y-49527588D01*
X83585178Y-49311355D01*
X83734157Y-49061252D01*
X83831481Y-48786891D01*
X83710814Y-48557000D01*
X82517000Y-48557000D01*
X82263000Y-48557000D01*
X82243000Y-48557000D01*
X82243000Y-48303000D01*
X82263000Y-48303000D01*
X82263000Y-47109845D01*
X82517000Y-47109845D01*
X82517000Y-48303000D01*
X83710814Y-48303000D01*
X83831481Y-48073109D01*
X83734157Y-47798748D01*
X83585178Y-47548645D01*
X83390269Y-47332412D01*
X83156920Y-47158359D01*
X82894099Y-47033175D01*
X82746890Y-46988524D01*
X82517000Y-47109845D01*
X82263000Y-47109845D01*
X82033110Y-46988524D01*
X81885901Y-47033175D01*
X81623080Y-47158359D01*
X81389731Y-47332412D01*
X81313966Y-47416466D01*
X81289502Y-47335820D01*
X81230537Y-47225506D01*
X81151185Y-47128815D01*
X81054494Y-47049463D01*
X80944180Y-46990498D01*
X80824482Y-46954188D01*
X80700000Y-46941928D01*
X79000000Y-46941928D01*
X78875518Y-46954188D01*
X78755820Y-46990498D01*
X78645506Y-47049463D01*
X78548815Y-47128815D01*
X78469463Y-47225506D01*
X78410498Y-47335820D01*
X78374188Y-47455518D01*
X78361928Y-47580000D01*
X76802000Y-47580000D01*
X76802000Y-45330000D01*
X85490000Y-45330000D01*
X85490001Y-64178000D01*
G36*
X74008000Y-75672388D02*
G01*
X72975750Y-75675000D01*
X72817000Y-75833750D01*
X72817000Y-78783000D01*
X72837000Y-78783000D01*
X72837000Y-79037000D01*
X72817000Y-79037000D01*
X72817000Y-81986250D01*
X72975750Y-82145000D01*
X74008000Y-82147612D01*
X74008000Y-89578000D01*
X65320000Y-89578000D01*
X65320000Y-86850000D01*
X66831928Y-86850000D01*
X66831928Y-88750000D01*
X66844188Y-88874482D01*
X66880498Y-88994180D01*
X66939463Y-89104494D01*
X67018815Y-89201185D01*
X67115506Y-89280537D01*
X67225820Y-89339502D01*
X67345518Y-89375812D01*
X67470000Y-89388072D01*
X69370000Y-89388072D01*
X69494482Y-89375812D01*
X69614180Y-89339502D01*
X69724494Y-89280537D01*
X69821185Y-89201185D01*
X69900537Y-89104494D01*
X69959502Y-88994180D01*
X69965630Y-88973978D01*
X70039854Y-88899754D01*
X70129579Y-89159042D01*
X70410671Y-89294935D01*
X70712873Y-89373379D01*
X71024573Y-89391359D01*
X71333791Y-89348184D01*
X71628644Y-89245513D01*
X71790421Y-89159042D01*
X71880147Y-88899752D01*
X70960000Y-87979605D01*
X70945858Y-87993748D01*
X70766253Y-87814143D01*
X70780395Y-87800000D01*
X71139605Y-87800000D01*
X72059752Y-88720147D01*
X72319042Y-88630421D01*
X72454935Y-88349329D01*
X72533379Y-88047127D01*
X72551359Y-87735427D01*
X72508184Y-87426209D01*
X72405513Y-87131356D01*
X72319042Y-86969579D01*
X72059752Y-86879853D01*
X71139605Y-87800000D01*
X70780395Y-87800000D01*
X70766253Y-87785858D01*
X70945858Y-87606253D01*
X70960000Y-87620395D01*
X71880147Y-86700248D01*
X71790421Y-86440958D01*
X71509329Y-86305065D01*
X71207127Y-86226621D01*
X70895427Y-86208641D01*
X70586209Y-86251816D01*
X70291356Y-86354487D01*
X70129579Y-86440958D01*
X70039854Y-86700246D01*
X69965630Y-86626022D01*
X69959502Y-86605820D01*
X69900537Y-86495506D01*
X69821185Y-86398815D01*
X69724494Y-86319463D01*
X69614180Y-86260498D01*
X69494482Y-86224188D01*
X69370000Y-86211928D01*
X67470000Y-86211928D01*
X67345518Y-86224188D01*
X67225820Y-86260498D01*
X67115506Y-86319463D01*
X67018815Y-86398815D01*
X66939463Y-86495506D01*
X66880498Y-86605820D01*
X66844188Y-86725518D01*
X66831928Y-86850000D01*
X65320000Y-86850000D01*
X65320000Y-82148072D01*
X66055001Y-82148072D01*
X66055001Y-82704239D01*
X66049509Y-82760000D01*
X66071423Y-82982498D01*
X66136324Y-83196446D01*
X66152579Y-83226856D01*
X66241717Y-83393623D01*
X66383552Y-83566449D01*
X66426860Y-83601991D01*
X67055788Y-84230920D01*
X67088225Y-84393989D01*
X67192629Y-84646043D01*
X67344201Y-84872886D01*
X67537114Y-85065799D01*
X67763957Y-85217371D01*
X68016011Y-85321775D01*
X68283589Y-85375000D01*
X68556411Y-85375000D01*
X68823989Y-85321775D01*
X69076043Y-85217371D01*
X69302886Y-85065799D01*
X69495799Y-84872886D01*
X69647371Y-84646043D01*
X69751775Y-84393989D01*
X69805000Y-84126411D01*
X69805000Y-83853589D01*
X69751775Y-83586011D01*
X69647371Y-83333957D01*
X69495799Y-83107114D01*
X69302886Y-82914201D01*
X69076043Y-82762629D01*
X68823989Y-82658225D01*
X68660920Y-82625788D01*
X68325000Y-82289868D01*
X68325000Y-82148072D01*
X69190000Y-82148072D01*
X69314482Y-82135812D01*
X69434180Y-82099502D01*
X69544494Y-82040537D01*
X69641185Y-81961185D01*
X69720537Y-81864494D01*
X69779502Y-81754180D01*
X69815812Y-81634482D01*
X69828072Y-81510000D01*
X70551928Y-81510000D01*
X70564188Y-81634482D01*
X70600498Y-81754180D01*
X70659463Y-81864494D01*
X70738815Y-81961185D01*
X70835506Y-82040537D01*
X70945820Y-82099502D01*
X71065518Y-82135812D01*
X71190000Y-82148072D01*
X72404250Y-82145000D01*
X72563000Y-81986250D01*
X72563000Y-79037000D01*
X70713750Y-79037000D01*
X70555000Y-79195750D01*
X70551928Y-81510000D01*
X69828072Y-81510000D01*
X69828072Y-76310000D01*
X70551928Y-76310000D01*
X70555000Y-78624250D01*
X70713750Y-78783000D01*
X72563000Y-78783000D01*
X72563000Y-75833750D01*
X72404250Y-75675000D01*
X71190000Y-75671928D01*
X71065518Y-75684188D01*
X70945820Y-75720498D01*
X70835506Y-75779463D01*
X70738815Y-75858815D01*
X70659463Y-75955506D01*
X70600498Y-76065820D01*
X70564188Y-76185518D01*
X70551928Y-76310000D01*
X69828072Y-76310000D01*
X69815812Y-76185518D01*
X69779502Y-76065820D01*
X69720537Y-75955506D01*
X69641185Y-75858815D01*
X69544494Y-75779463D01*
X69434180Y-75720498D01*
X69314482Y-75684188D01*
X69190000Y-75671928D01*
X68325000Y-75671928D01*
X68325000Y-74260132D01*
X68660920Y-73924212D01*
X68823989Y-73891775D01*
X69076043Y-73787371D01*
X69302886Y-73635799D01*
X69495799Y-73442886D01*
X69647371Y-73216043D01*
X69751775Y-72963989D01*
X69805000Y-72696411D01*
X69805000Y-72423589D01*
X69751775Y-72156011D01*
X69647371Y-71903957D01*
X69495799Y-71677114D01*
X69302886Y-71484201D01*
X69076043Y-71332629D01*
X68823989Y-71228225D01*
X68556411Y-71175000D01*
X68283589Y-71175000D01*
X68016011Y-71228225D01*
X67763957Y-71332629D01*
X67537114Y-71484201D01*
X67344201Y-71677114D01*
X67192629Y-71903957D01*
X67088225Y-72156011D01*
X67055788Y-72319080D01*
X66426860Y-72948009D01*
X66383552Y-72983551D01*
X66241717Y-73156377D01*
X66221809Y-73193623D01*
X66136324Y-73353554D01*
X66071423Y-73567502D01*
X66049509Y-73790000D01*
X66055001Y-73845761D01*
X66055001Y-75671928D01*
X65320000Y-75671928D01*
X65320000Y-67800000D01*
X66831928Y-67800000D01*
X66831928Y-69700000D01*
X66844188Y-69824482D01*
X66880498Y-69944180D01*
X66939463Y-70054494D01*
X67018815Y-70151185D01*
X67115506Y-70230537D01*
X67225820Y-70289502D01*
X67345518Y-70325812D01*
X67470000Y-70338072D01*
X69370000Y-70338072D01*
X69494482Y-70325812D01*
X69614180Y-70289502D01*
X69724494Y-70230537D01*
X69821185Y-70151185D01*
X69900537Y-70054494D01*
X69959502Y-69944180D01*
X69965630Y-69923978D01*
X70039854Y-69849754D01*
X70129579Y-70109042D01*
X70410671Y-70244935D01*
X70712873Y-70323379D01*
X71024573Y-70341359D01*
X71333791Y-70298184D01*
X71628644Y-70195513D01*
X71790421Y-70109042D01*
X71880147Y-69849752D01*
X70960000Y-68929605D01*
X70945858Y-68943748D01*
X70766253Y-68764143D01*
X70780395Y-68750000D01*
X71139605Y-68750000D01*
X72059752Y-69670147D01*
X72319042Y-69580421D01*
X72454935Y-69299329D01*
X72533379Y-68997127D01*
X72551359Y-68685427D01*
X72508184Y-68376209D01*
X72405513Y-68081356D01*
X72319042Y-67919579D01*
X72059752Y-67829853D01*
X71139605Y-68750000D01*
X70780395Y-68750000D01*
X70766253Y-68735858D01*
X70945858Y-68556253D01*
X70960000Y-68570395D01*
X71880147Y-67650248D01*
X71790421Y-67390958D01*
X71509329Y-67255065D01*
X71207127Y-67176621D01*
X70895427Y-67158641D01*
X70586209Y-67201816D01*
X70291356Y-67304487D01*
X70129579Y-67390958D01*
X70039854Y-67650246D01*
X69965630Y-67576022D01*
X69959502Y-67555820D01*
X69900537Y-67445506D01*
X69821185Y-67348815D01*
X69724494Y-67269463D01*
X69614180Y-67210498D01*
X69494482Y-67174188D01*
X69370000Y-67161928D01*
X67470000Y-67161928D01*
X67345518Y-67174188D01*
X67225820Y-67210498D01*
X67115506Y-67269463D01*
X67018815Y-67348815D01*
X66939463Y-67445506D01*
X66880498Y-67555820D01*
X66844188Y-67675518D01*
X66831928Y-67800000D01*
X65320000Y-67800000D01*
X65320000Y-66972000D01*
X74008000Y-66972000D01*
X74008000Y-75672388D01*
X74008000Y-75672388D01*
G37*
X74008000Y-75672388D02*
X72975750Y-75675000D01*
X72817000Y-75833750D01*
X72817000Y-78783000D01*
X72837000Y-78783000D01*
X72837000Y-79037000D01*
X72817000Y-79037000D01*
X72817000Y-81986250D01*
X72975750Y-82145000D01*
X74008000Y-82147612D01*
X74008000Y-89578000D01*
X65320000Y-89578000D01*
X65320000Y-86850000D01*
X66831928Y-86850000D01*
X66831928Y-88750000D01*
X66844188Y-88874482D01*
X66880498Y-88994180D01*
X66939463Y-89104494D01*
X67018815Y-89201185D01*
X67115506Y-89280537D01*
X67225820Y-89339502D01*
X67345518Y-89375812D01*
X67470000Y-89388072D01*
X69370000Y-89388072D01*
X69494482Y-89375812D01*
X69614180Y-89339502D01*
X69724494Y-89280537D01*
X69821185Y-89201185D01*
X69900537Y-89104494D01*
X69959502Y-88994180D01*
X69965630Y-88973978D01*
X70039854Y-88899754D01*
X70129579Y-89159042D01*
X70410671Y-89294935D01*
X70712873Y-89373379D01*
X71024573Y-89391359D01*
X71333791Y-89348184D01*
X71628644Y-89245513D01*
X71790421Y-89159042D01*
X71880147Y-88899752D01*
X70960000Y-87979605D01*
X70945858Y-87993748D01*
X70766253Y-87814143D01*
X70780395Y-87800000D01*
X71139605Y-87800000D01*
X72059752Y-88720147D01*
X72319042Y-88630421D01*
X72454935Y-88349329D01*
X72533379Y-88047127D01*
X72551359Y-87735427D01*
X72508184Y-87426209D01*
X72405513Y-87131356D01*
X72319042Y-86969579D01*
X72059752Y-86879853D01*
X71139605Y-87800000D01*
X70780395Y-87800000D01*
X70766253Y-87785858D01*
X70945858Y-87606253D01*
X70960000Y-87620395D01*
X71880147Y-86700248D01*
X71790421Y-86440958D01*
X71509329Y-86305065D01*
X71207127Y-86226621D01*
X70895427Y-86208641D01*
X70586209Y-86251816D01*
X70291356Y-86354487D01*
X70129579Y-86440958D01*
X70039854Y-86700246D01*
X69965630Y-86626022D01*
X69959502Y-86605820D01*
X69900537Y-86495506D01*
X69821185Y-86398815D01*
X69724494Y-86319463D01*
X69614180Y-86260498D01*
X69494482Y-86224188D01*
X69370000Y-86211928D01*
X67470000Y-86211928D01*
X67345518Y-86224188D01*
X67225820Y-86260498D01*
X67115506Y-86319463D01*
X67018815Y-86398815D01*
X66939463Y-86495506D01*
X66880498Y-86605820D01*
X66844188Y-86725518D01*
X66831928Y-86850000D01*
X65320000Y-86850000D01*
X65320000Y-82148072D01*
X66055001Y-82148072D01*
X66055001Y-82704239D01*
X66049509Y-82760000D01*
X66071423Y-82982498D01*
X66136324Y-83196446D01*
X66152579Y-83226856D01*
X66241717Y-83393623D01*
X66383552Y-83566449D01*
X66426860Y-83601991D01*
X67055788Y-84230920D01*
X67088225Y-84393989D01*
X67192629Y-84646043D01*
X67344201Y-84872886D01*
X67537114Y-85065799D01*
X67763957Y-85217371D01*
X68016011Y-85321775D01*
X68283589Y-85375000D01*
X68556411Y-85375000D01*
X68823989Y-85321775D01*
X69076043Y-85217371D01*
X69302886Y-85065799D01*
X69495799Y-84872886D01*
X69647371Y-84646043D01*
X69751775Y-84393989D01*
X69805000Y-84126411D01*
X69805000Y-83853589D01*
X69751775Y-83586011D01*
X69647371Y-83333957D01*
X69495799Y-83107114D01*
X69302886Y-82914201D01*
X69076043Y-82762629D01*
X68823989Y-82658225D01*
X68660920Y-82625788D01*
X68325000Y-82289868D01*
X68325000Y-82148072D01*
X69190000Y-82148072D01*
X69314482Y-82135812D01*
X69434180Y-82099502D01*
X69544494Y-82040537D01*
X69641185Y-81961185D01*
X69720537Y-81864494D01*
X69779502Y-81754180D01*
X69815812Y-81634482D01*
X69828072Y-81510000D01*
X70551928Y-81510000D01*
X70564188Y-81634482D01*
X70600498Y-81754180D01*
X70659463Y-81864494D01*
X70738815Y-81961185D01*
X70835506Y-82040537D01*
X70945820Y-82099502D01*
X71065518Y-82135812D01*
X71190000Y-82148072D01*
X72404250Y-82145000D01*
X72563000Y-81986250D01*
X72563000Y-79037000D01*
X70713750Y-79037000D01*
X70555000Y-79195750D01*
X70551928Y-81510000D01*
X69828072Y-81510000D01*
X69828072Y-76310000D01*
X70551928Y-76310000D01*
X70555000Y-78624250D01*
X70713750Y-78783000D01*
X72563000Y-78783000D01*
X72563000Y-75833750D01*
X72404250Y-75675000D01*
X71190000Y-75671928D01*
X71065518Y-75684188D01*
X70945820Y-75720498D01*
X70835506Y-75779463D01*
X70738815Y-75858815D01*
X70659463Y-75955506D01*
X70600498Y-76065820D01*
X70564188Y-76185518D01*
X70551928Y-76310000D01*
X69828072Y-76310000D01*
X69815812Y-76185518D01*
X69779502Y-76065820D01*
X69720537Y-75955506D01*
X69641185Y-75858815D01*
X69544494Y-75779463D01*
X69434180Y-75720498D01*
X69314482Y-75684188D01*
X69190000Y-75671928D01*
X68325000Y-75671928D01*
X68325000Y-74260132D01*
X68660920Y-73924212D01*
X68823989Y-73891775D01*
X69076043Y-73787371D01*
X69302886Y-73635799D01*
X69495799Y-73442886D01*
X69647371Y-73216043D01*
X69751775Y-72963989D01*
X69805000Y-72696411D01*
X69805000Y-72423589D01*
X69751775Y-72156011D01*
X69647371Y-71903957D01*
X69495799Y-71677114D01*
X69302886Y-71484201D01*
X69076043Y-71332629D01*
X68823989Y-71228225D01*
X68556411Y-71175000D01*
X68283589Y-71175000D01*
X68016011Y-71228225D01*
X67763957Y-71332629D01*
X67537114Y-71484201D01*
X67344201Y-71677114D01*
X67192629Y-71903957D01*
X67088225Y-72156011D01*
X67055788Y-72319080D01*
X66426860Y-72948009D01*
X66383552Y-72983551D01*
X66241717Y-73156377D01*
X66221809Y-73193623D01*
X66136324Y-73353554D01*
X66071423Y-73567502D01*
X66049509Y-73790000D01*
X66055001Y-73845761D01*
X66055001Y-75671928D01*
X65320000Y-75671928D01*
X65320000Y-67800000D01*
X66831928Y-67800000D01*
X66831928Y-69700000D01*
X66844188Y-69824482D01*
X66880498Y-69944180D01*
X66939463Y-70054494D01*
X67018815Y-70151185D01*
X67115506Y-70230537D01*
X67225820Y-70289502D01*
X67345518Y-70325812D01*
X67470000Y-70338072D01*
X69370000Y-70338072D01*
X69494482Y-70325812D01*
X69614180Y-70289502D01*
X69724494Y-70230537D01*
X69821185Y-70151185D01*
X69900537Y-70054494D01*
X69959502Y-69944180D01*
X69965630Y-69923978D01*
X70039854Y-69849754D01*
X70129579Y-70109042D01*
X70410671Y-70244935D01*
X70712873Y-70323379D01*
X71024573Y-70341359D01*
X71333791Y-70298184D01*
X71628644Y-70195513D01*
X71790421Y-70109042D01*
X71880147Y-69849752D01*
X70960000Y-68929605D01*
X70945858Y-68943748D01*
X70766253Y-68764143D01*
X70780395Y-68750000D01*
X71139605Y-68750000D01*
X72059752Y-69670147D01*
X72319042Y-69580421D01*
X72454935Y-69299329D01*
X72533379Y-68997127D01*
X72551359Y-68685427D01*
X72508184Y-68376209D01*
X72405513Y-68081356D01*
X72319042Y-67919579D01*
X72059752Y-67829853D01*
X71139605Y-68750000D01*
X70780395Y-68750000D01*
X70766253Y-68735858D01*
X70945858Y-68556253D01*
X70960000Y-68570395D01*
X71880147Y-67650248D01*
X71790421Y-67390958D01*
X71509329Y-67255065D01*
X71207127Y-67176621D01*
X70895427Y-67158641D01*
X70586209Y-67201816D01*
X70291356Y-67304487D01*
X70129579Y-67390958D01*
X70039854Y-67650246D01*
X69965630Y-67576022D01*
X69959502Y-67555820D01*
X69900537Y-67445506D01*
X69821185Y-67348815D01*
X69724494Y-67269463D01*
X69614180Y-67210498D01*
X69494482Y-67174188D01*
X69370000Y-67161928D01*
X67470000Y-67161928D01*
X67345518Y-67174188D01*
X67225820Y-67210498D01*
X67115506Y-67269463D01*
X67018815Y-67348815D01*
X66939463Y-67445506D01*
X66880498Y-67555820D01*
X66844188Y-67675518D01*
X66831928Y-67800000D01*
X65320000Y-67800000D01*
X65320000Y-66972000D01*
X74008000Y-66972000D01*
X74008000Y-75672388D01*
G36*
X66055001Y-82704239D02*
G01*
X66049509Y-82760000D01*
X66071423Y-82982498D01*
X66136324Y-83196446D01*
X66152579Y-83226856D01*
X66241717Y-83393623D01*
X66383552Y-83566449D01*
X66426860Y-83601991D01*
X67055788Y-84230920D01*
X67088225Y-84393989D01*
X67192629Y-84646043D01*
X67344201Y-84872886D01*
X67537114Y-85065799D01*
X67637687Y-85133000D01*
X65320000Y-85133000D01*
X65320000Y-82148072D01*
X66055001Y-82148072D01*
X66055001Y-82704239D01*
X66055001Y-82704239D01*
G37*
X66055001Y-82704239D02*
X66049509Y-82760000D01*
X66071423Y-82982498D01*
X66136324Y-83196446D01*
X66152579Y-83226856D01*
X66241717Y-83393623D01*
X66383552Y-83566449D01*
X66426860Y-83601991D01*
X67055788Y-84230920D01*
X67088225Y-84393989D01*
X67192629Y-84646043D01*
X67344201Y-84872886D01*
X67537114Y-85065799D01*
X67637687Y-85133000D01*
X65320000Y-85133000D01*
X65320000Y-82148072D01*
X66055001Y-82148072D01*
X66055001Y-82704239D01*
G36*
X74008000Y-76182469D02*
G01*
X72848750Y-76183000D01*
X72817000Y-76214750D01*
X72817000Y-78783000D01*
X72837000Y-78783000D01*
X72837000Y-79037000D01*
X72817000Y-79037000D01*
X72817000Y-81605250D01*
X72848750Y-81637000D01*
X74008000Y-81637531D01*
X74008000Y-85133000D01*
X69202313Y-85133000D01*
X69302886Y-85065799D01*
X69495799Y-84872886D01*
X69647371Y-84646043D01*
X69751775Y-84393989D01*
X69805000Y-84126411D01*
X69805000Y-83853589D01*
X69751775Y-83586011D01*
X69647371Y-83333957D01*
X69495799Y-83107114D01*
X69302886Y-82914201D01*
X69076043Y-82762629D01*
X68823989Y-82658225D01*
X68660920Y-82625788D01*
X68325000Y-82289868D01*
X68325000Y-82148072D01*
X69190000Y-82148072D01*
X69314482Y-82135812D01*
X69434180Y-82099502D01*
X69544494Y-82040537D01*
X69641185Y-81961185D01*
X69720537Y-81864494D01*
X69779502Y-81754180D01*
X69815812Y-81634482D01*
X69828072Y-81510000D01*
X71062386Y-81510000D01*
X71064838Y-81534896D01*
X71072100Y-81558836D01*
X71083893Y-81580899D01*
X71099763Y-81600237D01*
X71119101Y-81616107D01*
X71141164Y-81627900D01*
X71165104Y-81635162D01*
X71190000Y-81637614D01*
X72531250Y-81637000D01*
X72563000Y-81605250D01*
X72563000Y-79037000D01*
X71094750Y-79037000D01*
X71063000Y-79068750D01*
X71062386Y-81510000D01*
X69828072Y-81510000D01*
X69828072Y-76310000D01*
X71062386Y-76310000D01*
X71063000Y-78751250D01*
X71094750Y-78783000D01*
X72563000Y-78783000D01*
X72563000Y-76214750D01*
X72531250Y-76183000D01*
X71190000Y-76182386D01*
X71165104Y-76184838D01*
X71141164Y-76192100D01*
X71119101Y-76203893D01*
X71099763Y-76219763D01*
X71083893Y-76239101D01*
X71072100Y-76261164D01*
X71064838Y-76285104D01*
X71062386Y-76310000D01*
X69828072Y-76310000D01*
X69815812Y-76185518D01*
X69779502Y-76065820D01*
X69720537Y-75955506D01*
X69641185Y-75858815D01*
X69544494Y-75779463D01*
X69434180Y-75720498D01*
X69314482Y-75684188D01*
X69190000Y-75671928D01*
X68325000Y-75671928D01*
X68325000Y-74260132D01*
X68660920Y-73924212D01*
X68823989Y-73891775D01*
X69076043Y-73787371D01*
X69302886Y-73635799D01*
X69495799Y-73442886D01*
X69647371Y-73216043D01*
X69751775Y-72963989D01*
X69805000Y-72696411D01*
X69805000Y-72423589D01*
X69751775Y-72156011D01*
X69647371Y-71903957D01*
X69495799Y-71677114D01*
X69302886Y-71484201D01*
X69202313Y-71417000D01*
X74008000Y-71417000D01*
X74008000Y-76182469D01*
X74008000Y-76182469D01*
G37*
X74008000Y-76182469D02*
X72848750Y-76183000D01*
X72817000Y-76214750D01*
X72817000Y-78783000D01*
X72837000Y-78783000D01*
X72837000Y-79037000D01*
X72817000Y-79037000D01*
X72817000Y-81605250D01*
X72848750Y-81637000D01*
X74008000Y-81637531D01*
X74008000Y-85133000D01*
X69202313Y-85133000D01*
X69302886Y-85065799D01*
X69495799Y-84872886D01*
X69647371Y-84646043D01*
X69751775Y-84393989D01*
X69805000Y-84126411D01*
X69805000Y-83853589D01*
X69751775Y-83586011D01*
X69647371Y-83333957D01*
X69495799Y-83107114D01*
X69302886Y-82914201D01*
X69076043Y-82762629D01*
X68823989Y-82658225D01*
X68660920Y-82625788D01*
X68325000Y-82289868D01*
X68325000Y-82148072D01*
X69190000Y-82148072D01*
X69314482Y-82135812D01*
X69434180Y-82099502D01*
X69544494Y-82040537D01*
X69641185Y-81961185D01*
X69720537Y-81864494D01*
X69779502Y-81754180D01*
X69815812Y-81634482D01*
X69828072Y-81510000D01*
X71062386Y-81510000D01*
X71064838Y-81534896D01*
X71072100Y-81558836D01*
X71083893Y-81580899D01*
X71099763Y-81600237D01*
X71119101Y-81616107D01*
X71141164Y-81627900D01*
X71165104Y-81635162D01*
X71190000Y-81637614D01*
X72531250Y-81637000D01*
X72563000Y-81605250D01*
X72563000Y-79037000D01*
X71094750Y-79037000D01*
X71063000Y-79068750D01*
X71062386Y-81510000D01*
X69828072Y-81510000D01*
X69828072Y-76310000D01*
X71062386Y-76310000D01*
X71063000Y-78751250D01*
X71094750Y-78783000D01*
X72563000Y-78783000D01*
X72563000Y-76214750D01*
X72531250Y-76183000D01*
X71190000Y-76182386D01*
X71165104Y-76184838D01*
X71141164Y-76192100D01*
X71119101Y-76203893D01*
X71099763Y-76219763D01*
X71083893Y-76239101D01*
X71072100Y-76261164D01*
X71064838Y-76285104D01*
X71062386Y-76310000D01*
X69828072Y-76310000D01*
X69815812Y-76185518D01*
X69779502Y-76065820D01*
X69720537Y-75955506D01*
X69641185Y-75858815D01*
X69544494Y-75779463D01*
X69434180Y-75720498D01*
X69314482Y-75684188D01*
X69190000Y-75671928D01*
X68325000Y-75671928D01*
X68325000Y-74260132D01*
X68660920Y-73924212D01*
X68823989Y-73891775D01*
X69076043Y-73787371D01*
X69302886Y-73635799D01*
X69495799Y-73442886D01*
X69647371Y-73216043D01*
X69751775Y-72963989D01*
X69805000Y-72696411D01*
X69805000Y-72423589D01*
X69751775Y-72156011D01*
X69647371Y-71903957D01*
X69495799Y-71677114D01*
X69302886Y-71484201D01*
X69202313Y-71417000D01*
X74008000Y-71417000D01*
X74008000Y-76182469D01*
G36*
X67537114Y-71484201D02*
G01*
X67344201Y-71677114D01*
X67192629Y-71903957D01*
X67088225Y-72156011D01*
X67055788Y-72319080D01*
X66426860Y-72948009D01*
X66383552Y-72983551D01*
X66241717Y-73156377D01*
X66221809Y-73193623D01*
X66136324Y-73353554D01*
X66071423Y-73567502D01*
X66049509Y-73790000D01*
X66055001Y-73845761D01*
X66055001Y-75671928D01*
X65320000Y-75671928D01*
X65320000Y-71417000D01*
X67637687Y-71417000D01*
X67537114Y-71484201D01*
X67537114Y-71484201D01*
G37*
X67537114Y-71484201D02*
X67344201Y-71677114D01*
X67192629Y-71903957D01*
X67088225Y-72156011D01*
X67055788Y-72319080D01*
X66426860Y-72948009D01*
X66383552Y-72983551D01*
X66241717Y-73156377D01*
X66221809Y-73193623D01*
X66136324Y-73353554D01*
X66071423Y-73567502D01*
X66049509Y-73790000D01*
X66055001Y-73845761D01*
X66055001Y-75671928D01*
X65320000Y-75671928D01*
X65320000Y-71417000D01*
X67637687Y-71417000D01*
X67537114Y-71484201D01*
G36*
X77485001Y-82704239D02*
G01*
X77479509Y-82760000D01*
X77501423Y-82982498D01*
X77566324Y-83196446D01*
X77582579Y-83226856D01*
X77671717Y-83393623D01*
X77813552Y-83566449D01*
X77856860Y-83601991D01*
X78485788Y-84230920D01*
X78518225Y-84393989D01*
X78622629Y-84646043D01*
X78774201Y-84872886D01*
X78967114Y-85065799D01*
X79067687Y-85133000D01*
X76802000Y-85133000D01*
X76802000Y-82148072D01*
X77485001Y-82148072D01*
X77485001Y-82704239D01*
X77485001Y-82704239D01*
G37*
X77485001Y-82704239D02*
X77479509Y-82760000D01*
X77501423Y-82982498D01*
X77566324Y-83196446D01*
X77582579Y-83226856D01*
X77671717Y-83393623D01*
X77813552Y-83566449D01*
X77856860Y-83601991D01*
X78485788Y-84230920D01*
X78518225Y-84393989D01*
X78622629Y-84646043D01*
X78774201Y-84872886D01*
X78967114Y-85065799D01*
X79067687Y-85133000D01*
X76802000Y-85133000D01*
X76802000Y-82148072D01*
X77485001Y-82148072D01*
X77485001Y-82704239D01*
G36*
X85490001Y-76182446D02*
G01*
X84278750Y-76183000D01*
X84247000Y-76214750D01*
X84247000Y-78783000D01*
X84267000Y-78783000D01*
X84267000Y-79037000D01*
X84247000Y-79037000D01*
X84247000Y-81605250D01*
X84278750Y-81637000D01*
X85490000Y-81637554D01*
X85490000Y-85133000D01*
X80632313Y-85133000D01*
X80732886Y-85065799D01*
X80925799Y-84872886D01*
X81077371Y-84646043D01*
X81181775Y-84393989D01*
X81235000Y-84126411D01*
X81235000Y-83853589D01*
X81181775Y-83586011D01*
X81077371Y-83333957D01*
X80925799Y-83107114D01*
X80732886Y-82914201D01*
X80506043Y-82762629D01*
X80253989Y-82658225D01*
X80090920Y-82625788D01*
X79755000Y-82289868D01*
X79755000Y-82148072D01*
X80620000Y-82148072D01*
X80744482Y-82135812D01*
X80864180Y-82099502D01*
X80974494Y-82040537D01*
X81071185Y-81961185D01*
X81150537Y-81864494D01*
X81209502Y-81754180D01*
X81245812Y-81634482D01*
X81258072Y-81510000D01*
X82492386Y-81510000D01*
X82494838Y-81534896D01*
X82502100Y-81558836D01*
X82513893Y-81580899D01*
X82529763Y-81600237D01*
X82549101Y-81616107D01*
X82571164Y-81627900D01*
X82595104Y-81635162D01*
X82620000Y-81637614D01*
X83961250Y-81637000D01*
X83993000Y-81605250D01*
X83993000Y-79037000D01*
X82524750Y-79037000D01*
X82493000Y-79068750D01*
X82492386Y-81510000D01*
X81258072Y-81510000D01*
X81258072Y-76310000D01*
X82492386Y-76310000D01*
X82493000Y-78751250D01*
X82524750Y-78783000D01*
X83993000Y-78783000D01*
X83993000Y-76214750D01*
X83961250Y-76183000D01*
X82620000Y-76182386D01*
X82595104Y-76184838D01*
X82571164Y-76192100D01*
X82549101Y-76203893D01*
X82529763Y-76219763D01*
X82513893Y-76239101D01*
X82502100Y-76261164D01*
X82494838Y-76285104D01*
X82492386Y-76310000D01*
X81258072Y-76310000D01*
X81245812Y-76185518D01*
X81209502Y-76065820D01*
X81150537Y-75955506D01*
X81071185Y-75858815D01*
X80974494Y-75779463D01*
X80864180Y-75720498D01*
X80744482Y-75684188D01*
X80620000Y-75671928D01*
X79755000Y-75671928D01*
X79755000Y-74260132D01*
X80090920Y-73924212D01*
X80253989Y-73891775D01*
X80506043Y-73787371D01*
X80732886Y-73635799D01*
X80925799Y-73442886D01*
X81077371Y-73216043D01*
X81181775Y-72963989D01*
X81235000Y-72696411D01*
X81235000Y-72423589D01*
X81181775Y-72156011D01*
X81077371Y-71903957D01*
X80925799Y-71677114D01*
X80732886Y-71484201D01*
X80632313Y-71417000D01*
X85490001Y-71417000D01*
X85490001Y-76182446D01*
X85490001Y-76182446D01*
G37*
X85490001Y-76182446D02*
X84278750Y-76183000D01*
X84247000Y-76214750D01*
X84247000Y-78783000D01*
X84267000Y-78783000D01*
X84267000Y-79037000D01*
X84247000Y-79037000D01*
X84247000Y-81605250D01*
X84278750Y-81637000D01*
X85490000Y-81637554D01*
X85490000Y-85133000D01*
X80632313Y-85133000D01*
X80732886Y-85065799D01*
X80925799Y-84872886D01*
X81077371Y-84646043D01*
X81181775Y-84393989D01*
X81235000Y-84126411D01*
X81235000Y-83853589D01*
X81181775Y-83586011D01*
X81077371Y-83333957D01*
X80925799Y-83107114D01*
X80732886Y-82914201D01*
X80506043Y-82762629D01*
X80253989Y-82658225D01*
X80090920Y-82625788D01*
X79755000Y-82289868D01*
X79755000Y-82148072D01*
X80620000Y-82148072D01*
X80744482Y-82135812D01*
X80864180Y-82099502D01*
X80974494Y-82040537D01*
X81071185Y-81961185D01*
X81150537Y-81864494D01*
X81209502Y-81754180D01*
X81245812Y-81634482D01*
X81258072Y-81510000D01*
X82492386Y-81510000D01*
X82494838Y-81534896D01*
X82502100Y-81558836D01*
X82513893Y-81580899D01*
X82529763Y-81600237D01*
X82549101Y-81616107D01*
X82571164Y-81627900D01*
X82595104Y-81635162D01*
X82620000Y-81637614D01*
X83961250Y-81637000D01*
X83993000Y-81605250D01*
X83993000Y-79037000D01*
X82524750Y-79037000D01*
X82493000Y-79068750D01*
X82492386Y-81510000D01*
X81258072Y-81510000D01*
X81258072Y-76310000D01*
X82492386Y-76310000D01*
X82493000Y-78751250D01*
X82524750Y-78783000D01*
X83993000Y-78783000D01*
X83993000Y-76214750D01*
X83961250Y-76183000D01*
X82620000Y-76182386D01*
X82595104Y-76184838D01*
X82571164Y-76192100D01*
X82549101Y-76203893D01*
X82529763Y-76219763D01*
X82513893Y-76239101D01*
X82502100Y-76261164D01*
X82494838Y-76285104D01*
X82492386Y-76310000D01*
X81258072Y-76310000D01*
X81245812Y-76185518D01*
X81209502Y-76065820D01*
X81150537Y-75955506D01*
X81071185Y-75858815D01*
X80974494Y-75779463D01*
X80864180Y-75720498D01*
X80744482Y-75684188D01*
X80620000Y-75671928D01*
X79755000Y-75671928D01*
X79755000Y-74260132D01*
X80090920Y-73924212D01*
X80253989Y-73891775D01*
X80506043Y-73787371D01*
X80732886Y-73635799D01*
X80925799Y-73442886D01*
X81077371Y-73216043D01*
X81181775Y-72963989D01*
X81235000Y-72696411D01*
X81235000Y-72423589D01*
X81181775Y-72156011D01*
X81077371Y-71903957D01*
X80925799Y-71677114D01*
X80732886Y-71484201D01*
X80632313Y-71417000D01*
X85490001Y-71417000D01*
X85490001Y-76182446D01*
G36*
X78967114Y-71484201D02*
G01*
X78774201Y-71677114D01*
X78622629Y-71903957D01*
X78518225Y-72156011D01*
X78485788Y-72319080D01*
X77856860Y-72948009D01*
X77813552Y-72983551D01*
X77671717Y-73156377D01*
X77651809Y-73193623D01*
X77566324Y-73353554D01*
X77501423Y-73567502D01*
X77479509Y-73790000D01*
X77485001Y-73845761D01*
X77485001Y-75671928D01*
X76802000Y-75671928D01*
X76802000Y-71417000D01*
X79067687Y-71417000D01*
X78967114Y-71484201D01*
X78967114Y-71484201D01*
G37*
X78967114Y-71484201D02*
X78774201Y-71677114D01*
X78622629Y-71903957D01*
X78518225Y-72156011D01*
X78485788Y-72319080D01*
X77856860Y-72948009D01*
X77813552Y-72983551D01*
X77671717Y-73156377D01*
X77651809Y-73193623D01*
X77566324Y-73353554D01*
X77501423Y-73567502D01*
X77479509Y-73790000D01*
X77485001Y-73845761D01*
X77485001Y-75671928D01*
X76802000Y-75671928D01*
X76802000Y-71417000D01*
X79067687Y-71417000D01*
X78967114Y-71484201D01*
G36*
X85490001Y-75672257D02*
G01*
X84405750Y-75675000D01*
X84247000Y-75833750D01*
X84247000Y-78783000D01*
X84267000Y-78783000D01*
X84267000Y-79037000D01*
X84247000Y-79037000D01*
X84247000Y-81986250D01*
X84405750Y-82145000D01*
X85490000Y-82147743D01*
X85490000Y-89578000D01*
X76802000Y-89578000D01*
X76802000Y-86850000D01*
X78261928Y-86850000D01*
X78261928Y-88750000D01*
X78274188Y-88874482D01*
X78310498Y-88994180D01*
X78369463Y-89104494D01*
X78448815Y-89201185D01*
X78545506Y-89280537D01*
X78655820Y-89339502D01*
X78775518Y-89375812D01*
X78900000Y-89388072D01*
X80800000Y-89388072D01*
X80924482Y-89375812D01*
X81044180Y-89339502D01*
X81154494Y-89280537D01*
X81251185Y-89201185D01*
X81330537Y-89104494D01*
X81389502Y-88994180D01*
X81395630Y-88973978D01*
X81469854Y-88899754D01*
X81559579Y-89159042D01*
X81840671Y-89294935D01*
X82142873Y-89373379D01*
X82454573Y-89391359D01*
X82763791Y-89348184D01*
X83058644Y-89245513D01*
X83220421Y-89159042D01*
X83310147Y-88899752D01*
X82390000Y-87979605D01*
X82375858Y-87993748D01*
X82196253Y-87814143D01*
X82210395Y-87800000D01*
X82569605Y-87800000D01*
X83489752Y-88720147D01*
X83749042Y-88630421D01*
X83884935Y-88349329D01*
X83963379Y-88047127D01*
X83981359Y-87735427D01*
X83938184Y-87426209D01*
X83835513Y-87131356D01*
X83749042Y-86969579D01*
X83489752Y-86879853D01*
X82569605Y-87800000D01*
X82210395Y-87800000D01*
X82196253Y-87785858D01*
X82375858Y-87606253D01*
X82390000Y-87620395D01*
X83310147Y-86700248D01*
X83220421Y-86440958D01*
X82939329Y-86305065D01*
X82637127Y-86226621D01*
X82325427Y-86208641D01*
X82016209Y-86251816D01*
X81721356Y-86354487D01*
X81559579Y-86440958D01*
X81469854Y-86700246D01*
X81395630Y-86626022D01*
X81389502Y-86605820D01*
X81330537Y-86495506D01*
X81251185Y-86398815D01*
X81154494Y-86319463D01*
X81044180Y-86260498D01*
X80924482Y-86224188D01*
X80800000Y-86211928D01*
X78900000Y-86211928D01*
X78775518Y-86224188D01*
X78655820Y-86260498D01*
X78545506Y-86319463D01*
X78448815Y-86398815D01*
X78369463Y-86495506D01*
X78310498Y-86605820D01*
X78274188Y-86725518D01*
X78261928Y-86850000D01*
X76802000Y-86850000D01*
X76802000Y-82148072D01*
X77485001Y-82148072D01*
X77485001Y-82704239D01*
X77479509Y-82760000D01*
X77501423Y-82982498D01*
X77566324Y-83196446D01*
X77582579Y-83226856D01*
X77671717Y-83393623D01*
X77813552Y-83566449D01*
X77856860Y-83601991D01*
X78485788Y-84230920D01*
X78518225Y-84393989D01*
X78622629Y-84646043D01*
X78774201Y-84872886D01*
X78967114Y-85065799D01*
X79193957Y-85217371D01*
X79446011Y-85321775D01*
X79713589Y-85375000D01*
X79986411Y-85375000D01*
X80253989Y-85321775D01*
X80506043Y-85217371D01*
X80732886Y-85065799D01*
X80925799Y-84872886D01*
X81077371Y-84646043D01*
X81181775Y-84393989D01*
X81235000Y-84126411D01*
X81235000Y-83853589D01*
X81181775Y-83586011D01*
X81077371Y-83333957D01*
X80925799Y-83107114D01*
X80732886Y-82914201D01*
X80506043Y-82762629D01*
X80253989Y-82658225D01*
X80090920Y-82625788D01*
X79755000Y-82289868D01*
X79755000Y-82148072D01*
X80620000Y-82148072D01*
X80744482Y-82135812D01*
X80864180Y-82099502D01*
X80974494Y-82040537D01*
X81071185Y-81961185D01*
X81150537Y-81864494D01*
X81209502Y-81754180D01*
X81245812Y-81634482D01*
X81258072Y-81510000D01*
X81981928Y-81510000D01*
X81994188Y-81634482D01*
X82030498Y-81754180D01*
X82089463Y-81864494D01*
X82168815Y-81961185D01*
X82265506Y-82040537D01*
X82375820Y-82099502D01*
X82495518Y-82135812D01*
X82620000Y-82148072D01*
X83834250Y-82145000D01*
X83993000Y-81986250D01*
X83993000Y-79037000D01*
X82143750Y-79037000D01*
X81985000Y-79195750D01*
X81981928Y-81510000D01*
X81258072Y-81510000D01*
X81258072Y-76310000D01*
X81981928Y-76310000D01*
X81985000Y-78624250D01*
X82143750Y-78783000D01*
X83993000Y-78783000D01*
X83993000Y-75833750D01*
X83834250Y-75675000D01*
X82620000Y-75671928D01*
X82495518Y-75684188D01*
X82375820Y-75720498D01*
X82265506Y-75779463D01*
X82168815Y-75858815D01*
X82089463Y-75955506D01*
X82030498Y-76065820D01*
X81994188Y-76185518D01*
X81981928Y-76310000D01*
X81258072Y-76310000D01*
X81245812Y-76185518D01*
X81209502Y-76065820D01*
X81150537Y-75955506D01*
X81071185Y-75858815D01*
X80974494Y-75779463D01*
X80864180Y-75720498D01*
X80744482Y-75684188D01*
X80620000Y-75671928D01*
X79755000Y-75671928D01*
X79755000Y-74260132D01*
X80090920Y-73924212D01*
X80253989Y-73891775D01*
X80506043Y-73787371D01*
X80732886Y-73635799D01*
X80925799Y-73442886D01*
X81077371Y-73216043D01*
X81181775Y-72963989D01*
X81235000Y-72696411D01*
X81235000Y-72423589D01*
X81181775Y-72156011D01*
X81077371Y-71903957D01*
X80925799Y-71677114D01*
X80732886Y-71484201D01*
X80506043Y-71332629D01*
X80253989Y-71228225D01*
X79986411Y-71175000D01*
X79713589Y-71175000D01*
X79446011Y-71228225D01*
X79193957Y-71332629D01*
X78967114Y-71484201D01*
X78774201Y-71677114D01*
X78622629Y-71903957D01*
X78518225Y-72156011D01*
X78485788Y-72319080D01*
X77856860Y-72948009D01*
X77813552Y-72983551D01*
X77671717Y-73156377D01*
X77651809Y-73193623D01*
X77566324Y-73353554D01*
X77501423Y-73567502D01*
X77479509Y-73790000D01*
X77485001Y-73845761D01*
X77485001Y-75671928D01*
X76802000Y-75671928D01*
X76802000Y-67800000D01*
X78261928Y-67800000D01*
X78261928Y-69700000D01*
X78274188Y-69824482D01*
X78310498Y-69944180D01*
X78369463Y-70054494D01*
X78448815Y-70151185D01*
X78545506Y-70230537D01*
X78655820Y-70289502D01*
X78775518Y-70325812D01*
X78900000Y-70338072D01*
X80800000Y-70338072D01*
X80924482Y-70325812D01*
X81044180Y-70289502D01*
X81154494Y-70230537D01*
X81251185Y-70151185D01*
X81330537Y-70054494D01*
X81389502Y-69944180D01*
X81395630Y-69923978D01*
X81469854Y-69849754D01*
X81559579Y-70109042D01*
X81840671Y-70244935D01*
X82142873Y-70323379D01*
X82454573Y-70341359D01*
X82763791Y-70298184D01*
X83058644Y-70195513D01*
X83220421Y-70109042D01*
X83310147Y-69849752D01*
X82390000Y-68929605D01*
X82375858Y-68943748D01*
X82196253Y-68764143D01*
X82210395Y-68750000D01*
X82569605Y-68750000D01*
X83489752Y-69670147D01*
X83749042Y-69580421D01*
X83884935Y-69299329D01*
X83963379Y-68997127D01*
X83981359Y-68685427D01*
X83938184Y-68376209D01*
X83835513Y-68081356D01*
X83749042Y-67919579D01*
X83489752Y-67829853D01*
X82569605Y-68750000D01*
X82210395Y-68750000D01*
X82196253Y-68735858D01*
X82375858Y-68556253D01*
X82390000Y-68570395D01*
X83310147Y-67650248D01*
X83220421Y-67390958D01*
X82939329Y-67255065D01*
X82637127Y-67176621D01*
X82325427Y-67158641D01*
X82016209Y-67201816D01*
X81721356Y-67304487D01*
X81559579Y-67390958D01*
X81469854Y-67650246D01*
X81395630Y-67576022D01*
X81389502Y-67555820D01*
X81330537Y-67445506D01*
X81251185Y-67348815D01*
X81154494Y-67269463D01*
X81044180Y-67210498D01*
X80924482Y-67174188D01*
X80800000Y-67161928D01*
X78900000Y-67161928D01*
X78775518Y-67174188D01*
X78655820Y-67210498D01*
X78545506Y-67269463D01*
X78448815Y-67348815D01*
X78369463Y-67445506D01*
X78310498Y-67555820D01*
X78274188Y-67675518D01*
X78261928Y-67800000D01*
X76802000Y-67800000D01*
X76802000Y-66972000D01*
X85490001Y-66972000D01*
X85490001Y-75672257D01*
X85490001Y-75672257D01*
G37*
X85490001Y-75672257D02*
X84405750Y-75675000D01*
X84247000Y-75833750D01*
X84247000Y-78783000D01*
X84267000Y-78783000D01*
X84267000Y-79037000D01*
X84247000Y-79037000D01*
X84247000Y-81986250D01*
X84405750Y-82145000D01*
X85490000Y-82147743D01*
X85490000Y-89578000D01*
X76802000Y-89578000D01*
X76802000Y-86850000D01*
X78261928Y-86850000D01*
X78261928Y-88750000D01*
X78274188Y-88874482D01*
X78310498Y-88994180D01*
X78369463Y-89104494D01*
X78448815Y-89201185D01*
X78545506Y-89280537D01*
X78655820Y-89339502D01*
X78775518Y-89375812D01*
X78900000Y-89388072D01*
X80800000Y-89388072D01*
X80924482Y-89375812D01*
X81044180Y-89339502D01*
X81154494Y-89280537D01*
X81251185Y-89201185D01*
X81330537Y-89104494D01*
X81389502Y-88994180D01*
X81395630Y-88973978D01*
X81469854Y-88899754D01*
X81559579Y-89159042D01*
X81840671Y-89294935D01*
X82142873Y-89373379D01*
X82454573Y-89391359D01*
X82763791Y-89348184D01*
X83058644Y-89245513D01*
X83220421Y-89159042D01*
X83310147Y-88899752D01*
X82390000Y-87979605D01*
X82375858Y-87993748D01*
X82196253Y-87814143D01*
X82210395Y-87800000D01*
X82569605Y-87800000D01*
X83489752Y-88720147D01*
X83749042Y-88630421D01*
X83884935Y-88349329D01*
X83963379Y-88047127D01*
X83981359Y-87735427D01*
X83938184Y-87426209D01*
X83835513Y-87131356D01*
X83749042Y-86969579D01*
X83489752Y-86879853D01*
X82569605Y-87800000D01*
X82210395Y-87800000D01*
X82196253Y-87785858D01*
X82375858Y-87606253D01*
X82390000Y-87620395D01*
X83310147Y-86700248D01*
X83220421Y-86440958D01*
X82939329Y-86305065D01*
X82637127Y-86226621D01*
X82325427Y-86208641D01*
X82016209Y-86251816D01*
X81721356Y-86354487D01*
X81559579Y-86440958D01*
X81469854Y-86700246D01*
X81395630Y-86626022D01*
X81389502Y-86605820D01*
X81330537Y-86495506D01*
X81251185Y-86398815D01*
X81154494Y-86319463D01*
X81044180Y-86260498D01*
X80924482Y-86224188D01*
X80800000Y-86211928D01*
X78900000Y-86211928D01*
X78775518Y-86224188D01*
X78655820Y-86260498D01*
X78545506Y-86319463D01*
X78448815Y-86398815D01*
X78369463Y-86495506D01*
X78310498Y-86605820D01*
X78274188Y-86725518D01*
X78261928Y-86850000D01*
X76802000Y-86850000D01*
X76802000Y-82148072D01*
X77485001Y-82148072D01*
X77485001Y-82704239D01*
X77479509Y-82760000D01*
X77501423Y-82982498D01*
X77566324Y-83196446D01*
X77582579Y-83226856D01*
X77671717Y-83393623D01*
X77813552Y-83566449D01*
X77856860Y-83601991D01*
X78485788Y-84230920D01*
X78518225Y-84393989D01*
X78622629Y-84646043D01*
X78774201Y-84872886D01*
X78967114Y-85065799D01*
X79193957Y-85217371D01*
X79446011Y-85321775D01*
X79713589Y-85375000D01*
X79986411Y-85375000D01*
X80253989Y-85321775D01*
X80506043Y-85217371D01*
X80732886Y-85065799D01*
X80925799Y-84872886D01*
X81077371Y-84646043D01*
X81181775Y-84393989D01*
X81235000Y-84126411D01*
X81235000Y-83853589D01*
X81181775Y-83586011D01*
X81077371Y-83333957D01*
X80925799Y-83107114D01*
X80732886Y-82914201D01*
X80506043Y-82762629D01*
X80253989Y-82658225D01*
X80090920Y-82625788D01*
X79755000Y-82289868D01*
X79755000Y-82148072D01*
X80620000Y-82148072D01*
X80744482Y-82135812D01*
X80864180Y-82099502D01*
X80974494Y-82040537D01*
X81071185Y-81961185D01*
X81150537Y-81864494D01*
X81209502Y-81754180D01*
X81245812Y-81634482D01*
X81258072Y-81510000D01*
X81981928Y-81510000D01*
X81994188Y-81634482D01*
X82030498Y-81754180D01*
X82089463Y-81864494D01*
X82168815Y-81961185D01*
X82265506Y-82040537D01*
X82375820Y-82099502D01*
X82495518Y-82135812D01*
X82620000Y-82148072D01*
X83834250Y-82145000D01*
X83993000Y-81986250D01*
X83993000Y-79037000D01*
X82143750Y-79037000D01*
X81985000Y-79195750D01*
X81981928Y-81510000D01*
X81258072Y-81510000D01*
X81258072Y-76310000D01*
X81981928Y-76310000D01*
X81985000Y-78624250D01*
X82143750Y-78783000D01*
X83993000Y-78783000D01*
X83993000Y-75833750D01*
X83834250Y-75675000D01*
X82620000Y-75671928D01*
X82495518Y-75684188D01*
X82375820Y-75720498D01*
X82265506Y-75779463D01*
X82168815Y-75858815D01*
X82089463Y-75955506D01*
X82030498Y-76065820D01*
X81994188Y-76185518D01*
X81981928Y-76310000D01*
X81258072Y-76310000D01*
X81245812Y-76185518D01*
X81209502Y-76065820D01*
X81150537Y-75955506D01*
X81071185Y-75858815D01*
X80974494Y-75779463D01*
X80864180Y-75720498D01*
X80744482Y-75684188D01*
X80620000Y-75671928D01*
X79755000Y-75671928D01*
X79755000Y-74260132D01*
X80090920Y-73924212D01*
X80253989Y-73891775D01*
X80506043Y-73787371D01*
X80732886Y-73635799D01*
X80925799Y-73442886D01*
X81077371Y-73216043D01*
X81181775Y-72963989D01*
X81235000Y-72696411D01*
X81235000Y-72423589D01*
X81181775Y-72156011D01*
X81077371Y-71903957D01*
X80925799Y-71677114D01*
X80732886Y-71484201D01*
X80506043Y-71332629D01*
X80253989Y-71228225D01*
X79986411Y-71175000D01*
X79713589Y-71175000D01*
X79446011Y-71228225D01*
X79193957Y-71332629D01*
X78967114Y-71484201D01*
X78774201Y-71677114D01*
X78622629Y-71903957D01*
X78518225Y-72156011D01*
X78485788Y-72319080D01*
X77856860Y-72948009D01*
X77813552Y-72983551D01*
X77671717Y-73156377D01*
X77651809Y-73193623D01*
X77566324Y-73353554D01*
X77501423Y-73567502D01*
X77479509Y-73790000D01*
X77485001Y-73845761D01*
X77485001Y-75671928D01*
X76802000Y-75671928D01*
X76802000Y-67800000D01*
X78261928Y-67800000D01*
X78261928Y-69700000D01*
X78274188Y-69824482D01*
X78310498Y-69944180D01*
X78369463Y-70054494D01*
X78448815Y-70151185D01*
X78545506Y-70230537D01*
X78655820Y-70289502D01*
X78775518Y-70325812D01*
X78900000Y-70338072D01*
X80800000Y-70338072D01*
X80924482Y-70325812D01*
X81044180Y-70289502D01*
X81154494Y-70230537D01*
X81251185Y-70151185D01*
X81330537Y-70054494D01*
X81389502Y-69944180D01*
X81395630Y-69923978D01*
X81469854Y-69849754D01*
X81559579Y-70109042D01*
X81840671Y-70244935D01*
X82142873Y-70323379D01*
X82454573Y-70341359D01*
X82763791Y-70298184D01*
X83058644Y-70195513D01*
X83220421Y-70109042D01*
X83310147Y-69849752D01*
X82390000Y-68929605D01*
X82375858Y-68943748D01*
X82196253Y-68764143D01*
X82210395Y-68750000D01*
X82569605Y-68750000D01*
X83489752Y-69670147D01*
X83749042Y-69580421D01*
X83884935Y-69299329D01*
X83963379Y-68997127D01*
X83981359Y-68685427D01*
X83938184Y-68376209D01*
X83835513Y-68081356D01*
X83749042Y-67919579D01*
X83489752Y-67829853D01*
X82569605Y-68750000D01*
X82210395Y-68750000D01*
X82196253Y-68735858D01*
X82375858Y-68556253D01*
X82390000Y-68570395D01*
X83310147Y-67650248D01*
X83220421Y-67390958D01*
X82939329Y-67255065D01*
X82637127Y-67176621D01*
X82325427Y-67158641D01*
X82016209Y-67201816D01*
X81721356Y-67304487D01*
X81559579Y-67390958D01*
X81469854Y-67650246D01*
X81395630Y-67576022D01*
X81389502Y-67555820D01*
X81330537Y-67445506D01*
X81251185Y-67348815D01*
X81154494Y-67269463D01*
X81044180Y-67210498D01*
X80924482Y-67174188D01*
X80800000Y-67161928D01*
X78900000Y-67161928D01*
X78775518Y-67174188D01*
X78655820Y-67210498D01*
X78545506Y-67269463D01*
X78448815Y-67348815D01*
X78369463Y-67445506D01*
X78310498Y-67555820D01*
X78274188Y-67675518D01*
X78261928Y-67800000D01*
X76802000Y-67800000D01*
X76802000Y-66972000D01*
X85490001Y-66972000D01*
X85490001Y-75672257D01*
G36*
X74008000Y-113760000D02*
G01*
X65320000Y-113760000D01*
X65320000Y-93200000D01*
X66831928Y-93200000D01*
X66831928Y-95100000D01*
X66844188Y-95224482D01*
X66880498Y-95344180D01*
X66939463Y-95454494D01*
X67018815Y-95551185D01*
X67115506Y-95630537D01*
X67225820Y-95689502D01*
X67345518Y-95725812D01*
X67418332Y-95732983D01*
X67344201Y-95807114D01*
X67192629Y-96033957D01*
X67088225Y-96286011D01*
X67035000Y-96553589D01*
X67035000Y-96826411D01*
X67088225Y-97093989D01*
X67192629Y-97346043D01*
X67285001Y-97484287D01*
X67285000Y-100444248D01*
X67279509Y-100500000D01*
X67294391Y-100651104D01*
X67301423Y-100722498D01*
X67366324Y-100936446D01*
X67471716Y-101133623D01*
X67613551Y-101306449D01*
X67655001Y-101340466D01*
X67655001Y-101709498D01*
X67588815Y-101763815D01*
X67509463Y-101860506D01*
X67450498Y-101970820D01*
X67414188Y-102090518D01*
X67401928Y-102215000D01*
X67401928Y-103865000D01*
X67414188Y-103989482D01*
X67450498Y-104109180D01*
X67509463Y-104219494D01*
X67588815Y-104316185D01*
X67655001Y-104370502D01*
X67655001Y-104739534D01*
X67613551Y-104773551D01*
X67471716Y-104946377D01*
X67366325Y-105143553D01*
X67366324Y-105143554D01*
X67301423Y-105357502D01*
X67279509Y-105580000D01*
X67285000Y-105635752D01*
X67285001Y-108273579D01*
X67285000Y-108273589D01*
X67285000Y-108595714D01*
X67192629Y-108733957D01*
X67088225Y-108986011D01*
X67035000Y-109253589D01*
X67035000Y-109526411D01*
X67088225Y-109793989D01*
X67192629Y-110046043D01*
X67344201Y-110272886D01*
X67418332Y-110347017D01*
X67345518Y-110354188D01*
X67225820Y-110390498D01*
X67115506Y-110449463D01*
X67018815Y-110528815D01*
X66939463Y-110625506D01*
X66880498Y-110735820D01*
X66844188Y-110855518D01*
X66831928Y-110980000D01*
X66831928Y-112880000D01*
X66844188Y-113004482D01*
X66880498Y-113124180D01*
X66939463Y-113234494D01*
X67018815Y-113331185D01*
X67115506Y-113410537D01*
X67225820Y-113469502D01*
X67345518Y-113505812D01*
X67470000Y-113518072D01*
X69370000Y-113518072D01*
X69494482Y-113505812D01*
X69614180Y-113469502D01*
X69724494Y-113410537D01*
X69821185Y-113331185D01*
X69900537Y-113234494D01*
X69959502Y-113124180D01*
X69965630Y-113103978D01*
X70039854Y-113029754D01*
X70129579Y-113289042D01*
X70410671Y-113424935D01*
X70712873Y-113503379D01*
X71024573Y-113521359D01*
X71333791Y-113478184D01*
X71628644Y-113375513D01*
X71790421Y-113289042D01*
X71880147Y-113029752D01*
X70960000Y-112109605D01*
X70945858Y-112123748D01*
X70766253Y-111944143D01*
X70780395Y-111930000D01*
X71139605Y-111930000D01*
X72059752Y-112850147D01*
X72319042Y-112760421D01*
X72454935Y-112479329D01*
X72533379Y-112177127D01*
X72551359Y-111865427D01*
X72508184Y-111556209D01*
X72405513Y-111261356D01*
X72319042Y-111099579D01*
X72059752Y-111009853D01*
X71139605Y-111930000D01*
X70780395Y-111930000D01*
X70766253Y-111915858D01*
X70945858Y-111736253D01*
X70960000Y-111750395D01*
X71880147Y-110830248D01*
X71790421Y-110570958D01*
X71509329Y-110435065D01*
X71207127Y-110356621D01*
X70895427Y-110338641D01*
X70586209Y-110381816D01*
X70291356Y-110484487D01*
X70129579Y-110570958D01*
X70039854Y-110830246D01*
X69965630Y-110756022D01*
X69959502Y-110735820D01*
X69900537Y-110625506D01*
X69821185Y-110528815D01*
X69724494Y-110449463D01*
X69614180Y-110390498D01*
X69494482Y-110354188D01*
X69421668Y-110347017D01*
X69495799Y-110272886D01*
X69647371Y-110046043D01*
X69751775Y-109793989D01*
X69805000Y-109526411D01*
X69805000Y-109253589D01*
X69751775Y-108986011D01*
X69647371Y-108733957D01*
X69555000Y-108595714D01*
X69555000Y-106050465D01*
X69596449Y-106016449D01*
X69738284Y-105843623D01*
X69843676Y-105646447D01*
X69908577Y-105432499D01*
X69930491Y-105210001D01*
X69925000Y-105154249D01*
X69925000Y-104502510D01*
X70304250Y-104500000D01*
X70463000Y-104341250D01*
X70463000Y-103167000D01*
X70717000Y-103167000D01*
X70717000Y-104341250D01*
X70875750Y-104500000D01*
X71340000Y-104503072D01*
X71464482Y-104490812D01*
X71584180Y-104454502D01*
X71694494Y-104395537D01*
X71791185Y-104316185D01*
X71870537Y-104219494D01*
X71929502Y-104109180D01*
X71965812Y-103989482D01*
X71978072Y-103865000D01*
X71975000Y-103325750D01*
X71816250Y-103167000D01*
X70717000Y-103167000D01*
X70463000Y-103167000D01*
X70443000Y-103167000D01*
X70443000Y-102913000D01*
X70463000Y-102913000D01*
X70463000Y-101738750D01*
X70717000Y-101738750D01*
X70717000Y-102913000D01*
X71816250Y-102913000D01*
X71975000Y-102754250D01*
X71978072Y-102215000D01*
X71965812Y-102090518D01*
X71929502Y-101970820D01*
X71870537Y-101860506D01*
X71791185Y-101763815D01*
X71694494Y-101684463D01*
X71584180Y-101625498D01*
X71464482Y-101589188D01*
X71340000Y-101576928D01*
X70875750Y-101580000D01*
X70717000Y-101738750D01*
X70463000Y-101738750D01*
X70304250Y-101580000D01*
X69925000Y-101577490D01*
X69925000Y-100925751D01*
X69930491Y-100869999D01*
X69908577Y-100647501D01*
X69875663Y-100539000D01*
X69843676Y-100433553D01*
X69738284Y-100236377D01*
X69596449Y-100063551D01*
X69555000Y-100029535D01*
X69555000Y-97484286D01*
X69647371Y-97346043D01*
X69751775Y-97093989D01*
X69805000Y-96826411D01*
X69805000Y-96553589D01*
X69751775Y-96286011D01*
X69647371Y-96033957D01*
X69495799Y-95807114D01*
X69421668Y-95732983D01*
X69494482Y-95725812D01*
X69614180Y-95689502D01*
X69724494Y-95630537D01*
X69821185Y-95551185D01*
X69900537Y-95454494D01*
X69959502Y-95344180D01*
X69965630Y-95323978D01*
X70039854Y-95249754D01*
X70129579Y-95509042D01*
X70410671Y-95644935D01*
X70712873Y-95723379D01*
X71024573Y-95741359D01*
X71333791Y-95698184D01*
X71628644Y-95595513D01*
X71790421Y-95509042D01*
X71880147Y-95249752D01*
X70960000Y-94329605D01*
X70945858Y-94343748D01*
X70766253Y-94164143D01*
X70780395Y-94150000D01*
X71139605Y-94150000D01*
X72059752Y-95070147D01*
X72319042Y-94980421D01*
X72454935Y-94699329D01*
X72533379Y-94397127D01*
X72551359Y-94085427D01*
X72508184Y-93776209D01*
X72405513Y-93481356D01*
X72319042Y-93319579D01*
X72059752Y-93229853D01*
X71139605Y-94150000D01*
X70780395Y-94150000D01*
X70766253Y-94135858D01*
X70945858Y-93956253D01*
X70960000Y-93970395D01*
X71880147Y-93050248D01*
X71790421Y-92790958D01*
X71509329Y-92655065D01*
X71207127Y-92576621D01*
X70895427Y-92558641D01*
X70586209Y-92601816D01*
X70291356Y-92704487D01*
X70129579Y-92790958D01*
X70039854Y-93050246D01*
X69965630Y-92976022D01*
X69959502Y-92955820D01*
X69900537Y-92845506D01*
X69821185Y-92748815D01*
X69724494Y-92669463D01*
X69614180Y-92610498D01*
X69494482Y-92574188D01*
X69370000Y-92561928D01*
X67470000Y-92561928D01*
X67345518Y-92574188D01*
X67225820Y-92610498D01*
X67115506Y-92669463D01*
X67018815Y-92748815D01*
X66939463Y-92845506D01*
X66880498Y-92955820D01*
X66844188Y-93075518D01*
X66831928Y-93200000D01*
X65320000Y-93200000D01*
X65320000Y-92372000D01*
X74008000Y-92372000D01*
X74008000Y-113760000D01*
X74008000Y-113760000D01*
G37*
X74008000Y-113760000D02*
X65320000Y-113760000D01*
X65320000Y-93200000D01*
X66831928Y-93200000D01*
X66831928Y-95100000D01*
X66844188Y-95224482D01*
X66880498Y-95344180D01*
X66939463Y-95454494D01*
X67018815Y-95551185D01*
X67115506Y-95630537D01*
X67225820Y-95689502D01*
X67345518Y-95725812D01*
X67418332Y-95732983D01*
X67344201Y-95807114D01*
X67192629Y-96033957D01*
X67088225Y-96286011D01*
X67035000Y-96553589D01*
X67035000Y-96826411D01*
X67088225Y-97093989D01*
X67192629Y-97346043D01*
X67285001Y-97484287D01*
X67285000Y-100444248D01*
X67279509Y-100500000D01*
X67294391Y-100651104D01*
X67301423Y-100722498D01*
X67366324Y-100936446D01*
X67471716Y-101133623D01*
X67613551Y-101306449D01*
X67655001Y-101340466D01*
X67655001Y-101709498D01*
X67588815Y-101763815D01*
X67509463Y-101860506D01*
X67450498Y-101970820D01*
X67414188Y-102090518D01*
X67401928Y-102215000D01*
X67401928Y-103865000D01*
X67414188Y-103989482D01*
X67450498Y-104109180D01*
X67509463Y-104219494D01*
X67588815Y-104316185D01*
X67655001Y-104370502D01*
X67655001Y-104739534D01*
X67613551Y-104773551D01*
X67471716Y-104946377D01*
X67366325Y-105143553D01*
X67366324Y-105143554D01*
X67301423Y-105357502D01*
X67279509Y-105580000D01*
X67285000Y-105635752D01*
X67285001Y-108273579D01*
X67285000Y-108273589D01*
X67285000Y-108595714D01*
X67192629Y-108733957D01*
X67088225Y-108986011D01*
X67035000Y-109253589D01*
X67035000Y-109526411D01*
X67088225Y-109793989D01*
X67192629Y-110046043D01*
X67344201Y-110272886D01*
X67418332Y-110347017D01*
X67345518Y-110354188D01*
X67225820Y-110390498D01*
X67115506Y-110449463D01*
X67018815Y-110528815D01*
X66939463Y-110625506D01*
X66880498Y-110735820D01*
X66844188Y-110855518D01*
X66831928Y-110980000D01*
X66831928Y-112880000D01*
X66844188Y-113004482D01*
X66880498Y-113124180D01*
X66939463Y-113234494D01*
X67018815Y-113331185D01*
X67115506Y-113410537D01*
X67225820Y-113469502D01*
X67345518Y-113505812D01*
X67470000Y-113518072D01*
X69370000Y-113518072D01*
X69494482Y-113505812D01*
X69614180Y-113469502D01*
X69724494Y-113410537D01*
X69821185Y-113331185D01*
X69900537Y-113234494D01*
X69959502Y-113124180D01*
X69965630Y-113103978D01*
X70039854Y-113029754D01*
X70129579Y-113289042D01*
X70410671Y-113424935D01*
X70712873Y-113503379D01*
X71024573Y-113521359D01*
X71333791Y-113478184D01*
X71628644Y-113375513D01*
X71790421Y-113289042D01*
X71880147Y-113029752D01*
X70960000Y-112109605D01*
X70945858Y-112123748D01*
X70766253Y-111944143D01*
X70780395Y-111930000D01*
X71139605Y-111930000D01*
X72059752Y-112850147D01*
X72319042Y-112760421D01*
X72454935Y-112479329D01*
X72533379Y-112177127D01*
X72551359Y-111865427D01*
X72508184Y-111556209D01*
X72405513Y-111261356D01*
X72319042Y-111099579D01*
X72059752Y-111009853D01*
X71139605Y-111930000D01*
X70780395Y-111930000D01*
X70766253Y-111915858D01*
X70945858Y-111736253D01*
X70960000Y-111750395D01*
X71880147Y-110830248D01*
X71790421Y-110570958D01*
X71509329Y-110435065D01*
X71207127Y-110356621D01*
X70895427Y-110338641D01*
X70586209Y-110381816D01*
X70291356Y-110484487D01*
X70129579Y-110570958D01*
X70039854Y-110830246D01*
X69965630Y-110756022D01*
X69959502Y-110735820D01*
X69900537Y-110625506D01*
X69821185Y-110528815D01*
X69724494Y-110449463D01*
X69614180Y-110390498D01*
X69494482Y-110354188D01*
X69421668Y-110347017D01*
X69495799Y-110272886D01*
X69647371Y-110046043D01*
X69751775Y-109793989D01*
X69805000Y-109526411D01*
X69805000Y-109253589D01*
X69751775Y-108986011D01*
X69647371Y-108733957D01*
X69555000Y-108595714D01*
X69555000Y-106050465D01*
X69596449Y-106016449D01*
X69738284Y-105843623D01*
X69843676Y-105646447D01*
X69908577Y-105432499D01*
X69930491Y-105210001D01*
X69925000Y-105154249D01*
X69925000Y-104502510D01*
X70304250Y-104500000D01*
X70463000Y-104341250D01*
X70463000Y-103167000D01*
X70717000Y-103167000D01*
X70717000Y-104341250D01*
X70875750Y-104500000D01*
X71340000Y-104503072D01*
X71464482Y-104490812D01*
X71584180Y-104454502D01*
X71694494Y-104395537D01*
X71791185Y-104316185D01*
X71870537Y-104219494D01*
X71929502Y-104109180D01*
X71965812Y-103989482D01*
X71978072Y-103865000D01*
X71975000Y-103325750D01*
X71816250Y-103167000D01*
X70717000Y-103167000D01*
X70463000Y-103167000D01*
X70443000Y-103167000D01*
X70443000Y-102913000D01*
X70463000Y-102913000D01*
X70463000Y-101738750D01*
X70717000Y-101738750D01*
X70717000Y-102913000D01*
X71816250Y-102913000D01*
X71975000Y-102754250D01*
X71978072Y-102215000D01*
X71965812Y-102090518D01*
X71929502Y-101970820D01*
X71870537Y-101860506D01*
X71791185Y-101763815D01*
X71694494Y-101684463D01*
X71584180Y-101625498D01*
X71464482Y-101589188D01*
X71340000Y-101576928D01*
X70875750Y-101580000D01*
X70717000Y-101738750D01*
X70463000Y-101738750D01*
X70304250Y-101580000D01*
X69925000Y-101577490D01*
X69925000Y-100925751D01*
X69930491Y-100869999D01*
X69908577Y-100647501D01*
X69875663Y-100539000D01*
X69843676Y-100433553D01*
X69738284Y-100236377D01*
X69596449Y-100063551D01*
X69555000Y-100029535D01*
X69555000Y-97484286D01*
X69647371Y-97346043D01*
X69751775Y-97093989D01*
X69805000Y-96826411D01*
X69805000Y-96553589D01*
X69751775Y-96286011D01*
X69647371Y-96033957D01*
X69495799Y-95807114D01*
X69421668Y-95732983D01*
X69494482Y-95725812D01*
X69614180Y-95689502D01*
X69724494Y-95630537D01*
X69821185Y-95551185D01*
X69900537Y-95454494D01*
X69959502Y-95344180D01*
X69965630Y-95323978D01*
X70039854Y-95249754D01*
X70129579Y-95509042D01*
X70410671Y-95644935D01*
X70712873Y-95723379D01*
X71024573Y-95741359D01*
X71333791Y-95698184D01*
X71628644Y-95595513D01*
X71790421Y-95509042D01*
X71880147Y-95249752D01*
X70960000Y-94329605D01*
X70945858Y-94343748D01*
X70766253Y-94164143D01*
X70780395Y-94150000D01*
X71139605Y-94150000D01*
X72059752Y-95070147D01*
X72319042Y-94980421D01*
X72454935Y-94699329D01*
X72533379Y-94397127D01*
X72551359Y-94085427D01*
X72508184Y-93776209D01*
X72405513Y-93481356D01*
X72319042Y-93319579D01*
X72059752Y-93229853D01*
X71139605Y-94150000D01*
X70780395Y-94150000D01*
X70766253Y-94135858D01*
X70945858Y-93956253D01*
X70960000Y-93970395D01*
X71880147Y-93050248D01*
X71790421Y-92790958D01*
X71509329Y-92655065D01*
X71207127Y-92576621D01*
X70895427Y-92558641D01*
X70586209Y-92601816D01*
X70291356Y-92704487D01*
X70129579Y-92790958D01*
X70039854Y-93050246D01*
X69965630Y-92976022D01*
X69959502Y-92955820D01*
X69900537Y-92845506D01*
X69821185Y-92748815D01*
X69724494Y-92669463D01*
X69614180Y-92610498D01*
X69494482Y-92574188D01*
X69370000Y-92561928D01*
X67470000Y-92561928D01*
X67345518Y-92574188D01*
X67225820Y-92610498D01*
X67115506Y-92669463D01*
X67018815Y-92748815D01*
X66939463Y-92845506D01*
X66880498Y-92955820D01*
X66844188Y-93075518D01*
X66831928Y-93200000D01*
X65320000Y-93200000D01*
X65320000Y-92372000D01*
X74008000Y-92372000D01*
X74008000Y-113760000D01*
G36*
X85490000Y-113760000D02*
G01*
X76802000Y-113760000D01*
X76802000Y-93200000D01*
X78261928Y-93200000D01*
X78261928Y-95100000D01*
X78274188Y-95224482D01*
X78310498Y-95344180D01*
X78369463Y-95454494D01*
X78448815Y-95551185D01*
X78545506Y-95630537D01*
X78655820Y-95689502D01*
X78775518Y-95725812D01*
X78848332Y-95732983D01*
X78774201Y-95807114D01*
X78622629Y-96033957D01*
X78518225Y-96286011D01*
X78465000Y-96553589D01*
X78465000Y-96826411D01*
X78518225Y-97093989D01*
X78622629Y-97346043D01*
X78715001Y-97484287D01*
X78715000Y-100444248D01*
X78709509Y-100500000D01*
X78724391Y-100651104D01*
X78731423Y-100722498D01*
X78796324Y-100936446D01*
X78901716Y-101133623D01*
X79043551Y-101306449D01*
X79085001Y-101340466D01*
X79085001Y-101709498D01*
X79018815Y-101763815D01*
X78939463Y-101860506D01*
X78880498Y-101970820D01*
X78844188Y-102090518D01*
X78831928Y-102215000D01*
X78831928Y-103865000D01*
X78844188Y-103989482D01*
X78880498Y-104109180D01*
X78939463Y-104219494D01*
X79018815Y-104316185D01*
X79085001Y-104370502D01*
X79085001Y-104739534D01*
X79043551Y-104773551D01*
X78901716Y-104946377D01*
X78796325Y-105143553D01*
X78796324Y-105143554D01*
X78731423Y-105357502D01*
X78709509Y-105580000D01*
X78715000Y-105635752D01*
X78715001Y-108595713D01*
X78622629Y-108733957D01*
X78518225Y-108986011D01*
X78465000Y-109253589D01*
X78465000Y-109526411D01*
X78518225Y-109793989D01*
X78622629Y-110046043D01*
X78774201Y-110272886D01*
X78848332Y-110347017D01*
X78775518Y-110354188D01*
X78655820Y-110390498D01*
X78545506Y-110449463D01*
X78448815Y-110528815D01*
X78369463Y-110625506D01*
X78310498Y-110735820D01*
X78274188Y-110855518D01*
X78261928Y-110980000D01*
X78261928Y-112880000D01*
X78274188Y-113004482D01*
X78310498Y-113124180D01*
X78369463Y-113234494D01*
X78448815Y-113331185D01*
X78545506Y-113410537D01*
X78655820Y-113469502D01*
X78775518Y-113505812D01*
X78900000Y-113518072D01*
X80800000Y-113518072D01*
X80924482Y-113505812D01*
X81044180Y-113469502D01*
X81154494Y-113410537D01*
X81251185Y-113331185D01*
X81330537Y-113234494D01*
X81389502Y-113124180D01*
X81395630Y-113103978D01*
X81469854Y-113029754D01*
X81559579Y-113289042D01*
X81840671Y-113424935D01*
X82142873Y-113503379D01*
X82454573Y-113521359D01*
X82763791Y-113478184D01*
X83058644Y-113375513D01*
X83220421Y-113289042D01*
X83310147Y-113029752D01*
X82390000Y-112109605D01*
X82375858Y-112123748D01*
X82196253Y-111944143D01*
X82210395Y-111930000D01*
X82569605Y-111930000D01*
X83489752Y-112850147D01*
X83749042Y-112760421D01*
X83884935Y-112479329D01*
X83963379Y-112177127D01*
X83981359Y-111865427D01*
X83938184Y-111556209D01*
X83835513Y-111261356D01*
X83749042Y-111099579D01*
X83489752Y-111009853D01*
X82569605Y-111930000D01*
X82210395Y-111930000D01*
X82196253Y-111915858D01*
X82375858Y-111736253D01*
X82390000Y-111750395D01*
X83310147Y-110830248D01*
X83220421Y-110570958D01*
X82939329Y-110435065D01*
X82637127Y-110356621D01*
X82325427Y-110338641D01*
X82016209Y-110381816D01*
X81721356Y-110484487D01*
X81559579Y-110570958D01*
X81469854Y-110830246D01*
X81395630Y-110756022D01*
X81389502Y-110735820D01*
X81330537Y-110625506D01*
X81251185Y-110528815D01*
X81154494Y-110449463D01*
X81044180Y-110390498D01*
X80924482Y-110354188D01*
X80851668Y-110347017D01*
X80925799Y-110272886D01*
X81077371Y-110046043D01*
X81181775Y-109793989D01*
X81235000Y-109526411D01*
X81235000Y-109253589D01*
X81181775Y-108986011D01*
X81077371Y-108733957D01*
X80985000Y-108595714D01*
X80985000Y-106050465D01*
X81026449Y-106016449D01*
X81168284Y-105843623D01*
X81273676Y-105646447D01*
X81338577Y-105432499D01*
X81360491Y-105210001D01*
X81355000Y-105154249D01*
X81355000Y-104502510D01*
X81734250Y-104500000D01*
X81893000Y-104341250D01*
X81893000Y-103167000D01*
X82147000Y-103167000D01*
X82147000Y-104341250D01*
X82305750Y-104500000D01*
X82770000Y-104503072D01*
X82894482Y-104490812D01*
X83014180Y-104454502D01*
X83124494Y-104395537D01*
X83221185Y-104316185D01*
X83300537Y-104219494D01*
X83359502Y-104109180D01*
X83395812Y-103989482D01*
X83408072Y-103865000D01*
X83405000Y-103325750D01*
X83246250Y-103167000D01*
X82147000Y-103167000D01*
X81893000Y-103167000D01*
X81873000Y-103167000D01*
X81873000Y-102913000D01*
X81893000Y-102913000D01*
X81893000Y-101738750D01*
X82147000Y-101738750D01*
X82147000Y-102913000D01*
X83246250Y-102913000D01*
X83405000Y-102754250D01*
X83408072Y-102215000D01*
X83395812Y-102090518D01*
X83359502Y-101970820D01*
X83300537Y-101860506D01*
X83221185Y-101763815D01*
X83124494Y-101684463D01*
X83014180Y-101625498D01*
X82894482Y-101589188D01*
X82770000Y-101576928D01*
X82305750Y-101580000D01*
X82147000Y-101738750D01*
X81893000Y-101738750D01*
X81734250Y-101580000D01*
X81355000Y-101577490D01*
X81355000Y-100925751D01*
X81360491Y-100869999D01*
X81338577Y-100647501D01*
X81305663Y-100539000D01*
X81273676Y-100433553D01*
X81168284Y-100236377D01*
X81026449Y-100063551D01*
X80985000Y-100029535D01*
X80985000Y-97484286D01*
X81077371Y-97346043D01*
X81181775Y-97093989D01*
X81235000Y-96826411D01*
X81235000Y-96553589D01*
X81181775Y-96286011D01*
X81077371Y-96033957D01*
X80925799Y-95807114D01*
X80851668Y-95732983D01*
X80924482Y-95725812D01*
X81044180Y-95689502D01*
X81154494Y-95630537D01*
X81251185Y-95551185D01*
X81330537Y-95454494D01*
X81389502Y-95344180D01*
X81395630Y-95323978D01*
X81469854Y-95249754D01*
X81559579Y-95509042D01*
X81840671Y-95644935D01*
X82142873Y-95723379D01*
X82454573Y-95741359D01*
X82763791Y-95698184D01*
X83058644Y-95595513D01*
X83220421Y-95509042D01*
X83310147Y-95249752D01*
X82390000Y-94329605D01*
X82375858Y-94343748D01*
X82196253Y-94164143D01*
X82210395Y-94150000D01*
X82569605Y-94150000D01*
X83489752Y-95070147D01*
X83749042Y-94980421D01*
X83884935Y-94699329D01*
X83963379Y-94397127D01*
X83981359Y-94085427D01*
X83938184Y-93776209D01*
X83835513Y-93481356D01*
X83749042Y-93319579D01*
X83489752Y-93229853D01*
X82569605Y-94150000D01*
X82210395Y-94150000D01*
X82196253Y-94135858D01*
X82375858Y-93956253D01*
X82390000Y-93970395D01*
X83310147Y-93050248D01*
X83220421Y-92790958D01*
X82939329Y-92655065D01*
X82637127Y-92576621D01*
X82325427Y-92558641D01*
X82016209Y-92601816D01*
X81721356Y-92704487D01*
X81559579Y-92790958D01*
X81469854Y-93050246D01*
X81395630Y-92976022D01*
X81389502Y-92955820D01*
X81330537Y-92845506D01*
X81251185Y-92748815D01*
X81154494Y-92669463D01*
X81044180Y-92610498D01*
X80924482Y-92574188D01*
X80800000Y-92561928D01*
X78900000Y-92561928D01*
X78775518Y-92574188D01*
X78655820Y-92610498D01*
X78545506Y-92669463D01*
X78448815Y-92748815D01*
X78369463Y-92845506D01*
X78310498Y-92955820D01*
X78274188Y-93075518D01*
X78261928Y-93200000D01*
X76802000Y-93200000D01*
X76802000Y-92372000D01*
X85490001Y-92372000D01*
X85490000Y-113760000D01*
X85490000Y-113760000D01*
G37*
X85490000Y-113760000D02*
X76802000Y-113760000D01*
X76802000Y-93200000D01*
X78261928Y-93200000D01*
X78261928Y-95100000D01*
X78274188Y-95224482D01*
X78310498Y-95344180D01*
X78369463Y-95454494D01*
X78448815Y-95551185D01*
X78545506Y-95630537D01*
X78655820Y-95689502D01*
X78775518Y-95725812D01*
X78848332Y-95732983D01*
X78774201Y-95807114D01*
X78622629Y-96033957D01*
X78518225Y-96286011D01*
X78465000Y-96553589D01*
X78465000Y-96826411D01*
X78518225Y-97093989D01*
X78622629Y-97346043D01*
X78715001Y-97484287D01*
X78715000Y-100444248D01*
X78709509Y-100500000D01*
X78724391Y-100651104D01*
X78731423Y-100722498D01*
X78796324Y-100936446D01*
X78901716Y-101133623D01*
X79043551Y-101306449D01*
X79085001Y-101340466D01*
X79085001Y-101709498D01*
X79018815Y-101763815D01*
X78939463Y-101860506D01*
X78880498Y-101970820D01*
X78844188Y-102090518D01*
X78831928Y-102215000D01*
X78831928Y-103865000D01*
X78844188Y-103989482D01*
X78880498Y-104109180D01*
X78939463Y-104219494D01*
X79018815Y-104316185D01*
X79085001Y-104370502D01*
X79085001Y-104739534D01*
X79043551Y-104773551D01*
X78901716Y-104946377D01*
X78796325Y-105143553D01*
X78796324Y-105143554D01*
X78731423Y-105357502D01*
X78709509Y-105580000D01*
X78715000Y-105635752D01*
X78715001Y-108595713D01*
X78622629Y-108733957D01*
X78518225Y-108986011D01*
X78465000Y-109253589D01*
X78465000Y-109526411D01*
X78518225Y-109793989D01*
X78622629Y-110046043D01*
X78774201Y-110272886D01*
X78848332Y-110347017D01*
X78775518Y-110354188D01*
X78655820Y-110390498D01*
X78545506Y-110449463D01*
X78448815Y-110528815D01*
X78369463Y-110625506D01*
X78310498Y-110735820D01*
X78274188Y-110855518D01*
X78261928Y-110980000D01*
X78261928Y-112880000D01*
X78274188Y-113004482D01*
X78310498Y-113124180D01*
X78369463Y-113234494D01*
X78448815Y-113331185D01*
X78545506Y-113410537D01*
X78655820Y-113469502D01*
X78775518Y-113505812D01*
X78900000Y-113518072D01*
X80800000Y-113518072D01*
X80924482Y-113505812D01*
X81044180Y-113469502D01*
X81154494Y-113410537D01*
X81251185Y-113331185D01*
X81330537Y-113234494D01*
X81389502Y-113124180D01*
X81395630Y-113103978D01*
X81469854Y-113029754D01*
X81559579Y-113289042D01*
X81840671Y-113424935D01*
X82142873Y-113503379D01*
X82454573Y-113521359D01*
X82763791Y-113478184D01*
X83058644Y-113375513D01*
X83220421Y-113289042D01*
X83310147Y-113029752D01*
X82390000Y-112109605D01*
X82375858Y-112123748D01*
X82196253Y-111944143D01*
X82210395Y-111930000D01*
X82569605Y-111930000D01*
X83489752Y-112850147D01*
X83749042Y-112760421D01*
X83884935Y-112479329D01*
X83963379Y-112177127D01*
X83981359Y-111865427D01*
X83938184Y-111556209D01*
X83835513Y-111261356D01*
X83749042Y-111099579D01*
X83489752Y-111009853D01*
X82569605Y-111930000D01*
X82210395Y-111930000D01*
X82196253Y-111915858D01*
X82375858Y-111736253D01*
X82390000Y-111750395D01*
X83310147Y-110830248D01*
X83220421Y-110570958D01*
X82939329Y-110435065D01*
X82637127Y-110356621D01*
X82325427Y-110338641D01*
X82016209Y-110381816D01*
X81721356Y-110484487D01*
X81559579Y-110570958D01*
X81469854Y-110830246D01*
X81395630Y-110756022D01*
X81389502Y-110735820D01*
X81330537Y-110625506D01*
X81251185Y-110528815D01*
X81154494Y-110449463D01*
X81044180Y-110390498D01*
X80924482Y-110354188D01*
X80851668Y-110347017D01*
X80925799Y-110272886D01*
X81077371Y-110046043D01*
X81181775Y-109793989D01*
X81235000Y-109526411D01*
X81235000Y-109253589D01*
X81181775Y-108986011D01*
X81077371Y-108733957D01*
X80985000Y-108595714D01*
X80985000Y-106050465D01*
X81026449Y-106016449D01*
X81168284Y-105843623D01*
X81273676Y-105646447D01*
X81338577Y-105432499D01*
X81360491Y-105210001D01*
X81355000Y-105154249D01*
X81355000Y-104502510D01*
X81734250Y-104500000D01*
X81893000Y-104341250D01*
X81893000Y-103167000D01*
X82147000Y-103167000D01*
X82147000Y-104341250D01*
X82305750Y-104500000D01*
X82770000Y-104503072D01*
X82894482Y-104490812D01*
X83014180Y-104454502D01*
X83124494Y-104395537D01*
X83221185Y-104316185D01*
X83300537Y-104219494D01*
X83359502Y-104109180D01*
X83395812Y-103989482D01*
X83408072Y-103865000D01*
X83405000Y-103325750D01*
X83246250Y-103167000D01*
X82147000Y-103167000D01*
X81893000Y-103167000D01*
X81873000Y-103167000D01*
X81873000Y-102913000D01*
X81893000Y-102913000D01*
X81893000Y-101738750D01*
X82147000Y-101738750D01*
X82147000Y-102913000D01*
X83246250Y-102913000D01*
X83405000Y-102754250D01*
X83408072Y-102215000D01*
X83395812Y-102090518D01*
X83359502Y-101970820D01*
X83300537Y-101860506D01*
X83221185Y-101763815D01*
X83124494Y-101684463D01*
X83014180Y-101625498D01*
X82894482Y-101589188D01*
X82770000Y-101576928D01*
X82305750Y-101580000D01*
X82147000Y-101738750D01*
X81893000Y-101738750D01*
X81734250Y-101580000D01*
X81355000Y-101577490D01*
X81355000Y-100925751D01*
X81360491Y-100869999D01*
X81338577Y-100647501D01*
X81305663Y-100539000D01*
X81273676Y-100433553D01*
X81168284Y-100236377D01*
X81026449Y-100063551D01*
X80985000Y-100029535D01*
X80985000Y-97484286D01*
X81077371Y-97346043D01*
X81181775Y-97093989D01*
X81235000Y-96826411D01*
X81235000Y-96553589D01*
X81181775Y-96286011D01*
X81077371Y-96033957D01*
X80925799Y-95807114D01*
X80851668Y-95732983D01*
X80924482Y-95725812D01*
X81044180Y-95689502D01*
X81154494Y-95630537D01*
X81251185Y-95551185D01*
X81330537Y-95454494D01*
X81389502Y-95344180D01*
X81395630Y-95323978D01*
X81469854Y-95249754D01*
X81559579Y-95509042D01*
X81840671Y-95644935D01*
X82142873Y-95723379D01*
X82454573Y-95741359D01*
X82763791Y-95698184D01*
X83058644Y-95595513D01*
X83220421Y-95509042D01*
X83310147Y-95249752D01*
X82390000Y-94329605D01*
X82375858Y-94343748D01*
X82196253Y-94164143D01*
X82210395Y-94150000D01*
X82569605Y-94150000D01*
X83489752Y-95070147D01*
X83749042Y-94980421D01*
X83884935Y-94699329D01*
X83963379Y-94397127D01*
X83981359Y-94085427D01*
X83938184Y-93776209D01*
X83835513Y-93481356D01*
X83749042Y-93319579D01*
X83489752Y-93229853D01*
X82569605Y-94150000D01*
X82210395Y-94150000D01*
X82196253Y-94135858D01*
X82375858Y-93956253D01*
X82390000Y-93970395D01*
X83310147Y-93050248D01*
X83220421Y-92790958D01*
X82939329Y-92655065D01*
X82637127Y-92576621D01*
X82325427Y-92558641D01*
X82016209Y-92601816D01*
X81721356Y-92704487D01*
X81559579Y-92790958D01*
X81469854Y-93050246D01*
X81395630Y-92976022D01*
X81389502Y-92955820D01*
X81330537Y-92845506D01*
X81251185Y-92748815D01*
X81154494Y-92669463D01*
X81044180Y-92610498D01*
X80924482Y-92574188D01*
X80800000Y-92561928D01*
X78900000Y-92561928D01*
X78775518Y-92574188D01*
X78655820Y-92610498D01*
X78545506Y-92669463D01*
X78448815Y-92748815D01*
X78369463Y-92845506D01*
X78310498Y-92955820D01*
X78274188Y-93075518D01*
X78261928Y-93200000D01*
X76802000Y-93200000D01*
X76802000Y-92372000D01*
X85490001Y-92372000D01*
X85490000Y-113760000D01*
G36*
X78518225Y-96286011D02*
G01*
X78465000Y-96553589D01*
X78465000Y-96826411D01*
X78518225Y-97093989D01*
X78622629Y-97346043D01*
X78715001Y-97484287D01*
X78715000Y-100444248D01*
X78709509Y-100500000D01*
X78724391Y-100651104D01*
X78731423Y-100722498D01*
X78796324Y-100936446D01*
X78901716Y-101133623D01*
X79043551Y-101306449D01*
X79085001Y-101340466D01*
X79085001Y-101709498D01*
X79018815Y-101763815D01*
X78939463Y-101860506D01*
X78880498Y-101970820D01*
X78844188Y-102090518D01*
X78831928Y-102215000D01*
X78831928Y-103865000D01*
X78844188Y-103989482D01*
X78880498Y-104109180D01*
X78939463Y-104219494D01*
X79018815Y-104316185D01*
X79085001Y-104370502D01*
X79085001Y-104739534D01*
X79043551Y-104773551D01*
X78901716Y-104946377D01*
X78796325Y-105143553D01*
X78796324Y-105143554D01*
X78731423Y-105357502D01*
X78709509Y-105580000D01*
X78715000Y-105635752D01*
X78715001Y-108595713D01*
X78622629Y-108733957D01*
X78518225Y-108986011D01*
X78465000Y-109253589D01*
X78465000Y-109526411D01*
X78518225Y-109793989D01*
X78561308Y-109898000D01*
X76802000Y-109898000D01*
X76802000Y-96182000D01*
X78561308Y-96182000D01*
X78518225Y-96286011D01*
X78518225Y-96286011D01*
G37*
X78518225Y-96286011D02*
X78465000Y-96553589D01*
X78465000Y-96826411D01*
X78518225Y-97093989D01*
X78622629Y-97346043D01*
X78715001Y-97484287D01*
X78715000Y-100444248D01*
X78709509Y-100500000D01*
X78724391Y-100651104D01*
X78731423Y-100722498D01*
X78796324Y-100936446D01*
X78901716Y-101133623D01*
X79043551Y-101306449D01*
X79085001Y-101340466D01*
X79085001Y-101709498D01*
X79018815Y-101763815D01*
X78939463Y-101860506D01*
X78880498Y-101970820D01*
X78844188Y-102090518D01*
X78831928Y-102215000D01*
X78831928Y-103865000D01*
X78844188Y-103989482D01*
X78880498Y-104109180D01*
X78939463Y-104219494D01*
X79018815Y-104316185D01*
X79085001Y-104370502D01*
X79085001Y-104739534D01*
X79043551Y-104773551D01*
X78901716Y-104946377D01*
X78796325Y-105143553D01*
X78796324Y-105143554D01*
X78731423Y-105357502D01*
X78709509Y-105580000D01*
X78715000Y-105635752D01*
X78715001Y-108595713D01*
X78622629Y-108733957D01*
X78518225Y-108986011D01*
X78465000Y-109253589D01*
X78465000Y-109526411D01*
X78518225Y-109793989D01*
X78561308Y-109898000D01*
X76802000Y-109898000D01*
X76802000Y-96182000D01*
X78561308Y-96182000D01*
X78518225Y-96286011D01*
G36*
X85490000Y-109898000D02*
G01*
X81138692Y-109898000D01*
X81181775Y-109793989D01*
X81235000Y-109526411D01*
X81235000Y-109253589D01*
X81181775Y-108986011D01*
X81077371Y-108733957D01*
X80985000Y-108595714D01*
X80985000Y-106050465D01*
X81026449Y-106016449D01*
X81168284Y-105843623D01*
X81273676Y-105646447D01*
X81338577Y-105432499D01*
X81360491Y-105210001D01*
X81355000Y-105154249D01*
X81355000Y-104370501D01*
X81421185Y-104316185D01*
X81500537Y-104219494D01*
X81559502Y-104109180D01*
X81594964Y-103992277D01*
X81861250Y-103992000D01*
X81893000Y-103960250D01*
X81893000Y-103167000D01*
X82147000Y-103167000D01*
X82147000Y-103960250D01*
X82178750Y-103992000D01*
X82770000Y-103992614D01*
X82794896Y-103990162D01*
X82818836Y-103982900D01*
X82840899Y-103971107D01*
X82860237Y-103955237D01*
X82876107Y-103935899D01*
X82887900Y-103913836D01*
X82895162Y-103889896D01*
X82897614Y-103865000D01*
X82897000Y-103198750D01*
X82865250Y-103167000D01*
X82147000Y-103167000D01*
X81893000Y-103167000D01*
X81873000Y-103167000D01*
X81873000Y-102913000D01*
X81893000Y-102913000D01*
X81893000Y-102119750D01*
X82147000Y-102119750D01*
X82147000Y-102913000D01*
X82865250Y-102913000D01*
X82897000Y-102881250D01*
X82897614Y-102215000D01*
X82895162Y-102190104D01*
X82887900Y-102166164D01*
X82876107Y-102144101D01*
X82860237Y-102124763D01*
X82840899Y-102108893D01*
X82818836Y-102097100D01*
X82794896Y-102089838D01*
X82770000Y-102087386D01*
X82178750Y-102088000D01*
X82147000Y-102119750D01*
X81893000Y-102119750D01*
X81861250Y-102088000D01*
X81594964Y-102087723D01*
X81559502Y-101970820D01*
X81500537Y-101860506D01*
X81421185Y-101763815D01*
X81355000Y-101709499D01*
X81355000Y-100925751D01*
X81360491Y-100869999D01*
X81338577Y-100647501D01*
X81305663Y-100539000D01*
X81273676Y-100433553D01*
X81168284Y-100236377D01*
X81026449Y-100063551D01*
X80985000Y-100029535D01*
X80985000Y-97484286D01*
X81077371Y-97346043D01*
X81181775Y-97093989D01*
X81235000Y-96826411D01*
X81235000Y-96553589D01*
X81181775Y-96286011D01*
X81138692Y-96182000D01*
X85490001Y-96182000D01*
X85490000Y-109898000D01*
X85490000Y-109898000D01*
G37*
X85490000Y-109898000D02*
X81138692Y-109898000D01*
X81181775Y-109793989D01*
X81235000Y-109526411D01*
X81235000Y-109253589D01*
X81181775Y-108986011D01*
X81077371Y-108733957D01*
X80985000Y-108595714D01*
X80985000Y-106050465D01*
X81026449Y-106016449D01*
X81168284Y-105843623D01*
X81273676Y-105646447D01*
X81338577Y-105432499D01*
X81360491Y-105210001D01*
X81355000Y-105154249D01*
X81355000Y-104370501D01*
X81421185Y-104316185D01*
X81500537Y-104219494D01*
X81559502Y-104109180D01*
X81594964Y-103992277D01*
X81861250Y-103992000D01*
X81893000Y-103960250D01*
X81893000Y-103167000D01*
X82147000Y-103167000D01*
X82147000Y-103960250D01*
X82178750Y-103992000D01*
X82770000Y-103992614D01*
X82794896Y-103990162D01*
X82818836Y-103982900D01*
X82840899Y-103971107D01*
X82860237Y-103955237D01*
X82876107Y-103935899D01*
X82887900Y-103913836D01*
X82895162Y-103889896D01*
X82897614Y-103865000D01*
X82897000Y-103198750D01*
X82865250Y-103167000D01*
X82147000Y-103167000D01*
X81893000Y-103167000D01*
X81873000Y-103167000D01*
X81873000Y-102913000D01*
X81893000Y-102913000D01*
X81893000Y-102119750D01*
X82147000Y-102119750D01*
X82147000Y-102913000D01*
X82865250Y-102913000D01*
X82897000Y-102881250D01*
X82897614Y-102215000D01*
X82895162Y-102190104D01*
X82887900Y-102166164D01*
X82876107Y-102144101D01*
X82860237Y-102124763D01*
X82840899Y-102108893D01*
X82818836Y-102097100D01*
X82794896Y-102089838D01*
X82770000Y-102087386D01*
X82178750Y-102088000D01*
X82147000Y-102119750D01*
X81893000Y-102119750D01*
X81861250Y-102088000D01*
X81594964Y-102087723D01*
X81559502Y-101970820D01*
X81500537Y-101860506D01*
X81421185Y-101763815D01*
X81355000Y-101709499D01*
X81355000Y-100925751D01*
X81360491Y-100869999D01*
X81338577Y-100647501D01*
X81305663Y-100539000D01*
X81273676Y-100433553D01*
X81168284Y-100236377D01*
X81026449Y-100063551D01*
X80985000Y-100029535D01*
X80985000Y-97484286D01*
X81077371Y-97346043D01*
X81181775Y-97093989D01*
X81235000Y-96826411D01*
X81235000Y-96553589D01*
X81181775Y-96286011D01*
X81138692Y-96182000D01*
X85490001Y-96182000D01*
X85490000Y-109898000D01*
G36*
X67088225Y-96286011D02*
G01*
X67035000Y-96553589D01*
X67035000Y-96826411D01*
X67088225Y-97093989D01*
X67192629Y-97346043D01*
X67285001Y-97484287D01*
X67285000Y-100444248D01*
X67279509Y-100500000D01*
X67294391Y-100651104D01*
X67301423Y-100722498D01*
X67366324Y-100936446D01*
X67471716Y-101133623D01*
X67613551Y-101306449D01*
X67655001Y-101340466D01*
X67655001Y-101709498D01*
X67588815Y-101763815D01*
X67509463Y-101860506D01*
X67450498Y-101970820D01*
X67414188Y-102090518D01*
X67401928Y-102215000D01*
X67401928Y-103865000D01*
X67414188Y-103989482D01*
X67450498Y-104109180D01*
X67509463Y-104219494D01*
X67588815Y-104316185D01*
X67655001Y-104370502D01*
X67655001Y-104739534D01*
X67613551Y-104773551D01*
X67471716Y-104946377D01*
X67366325Y-105143553D01*
X67366324Y-105143554D01*
X67301423Y-105357502D01*
X67279509Y-105580000D01*
X67285000Y-105635752D01*
X67285001Y-108273579D01*
X67285000Y-108273589D01*
X67285000Y-108595714D01*
X67192629Y-108733957D01*
X67088225Y-108986011D01*
X67035000Y-109253589D01*
X67035000Y-109526411D01*
X67088225Y-109793989D01*
X67116159Y-109861428D01*
X65320000Y-109861428D01*
X65320000Y-96145428D01*
X67146456Y-96145428D01*
X67088225Y-96286011D01*
X67088225Y-96286011D01*
G37*
X67088225Y-96286011D02*
X67035000Y-96553589D01*
X67035000Y-96826411D01*
X67088225Y-97093989D01*
X67192629Y-97346043D01*
X67285001Y-97484287D01*
X67285000Y-100444248D01*
X67279509Y-100500000D01*
X67294391Y-100651104D01*
X67301423Y-100722498D01*
X67366324Y-100936446D01*
X67471716Y-101133623D01*
X67613551Y-101306449D01*
X67655001Y-101340466D01*
X67655001Y-101709498D01*
X67588815Y-101763815D01*
X67509463Y-101860506D01*
X67450498Y-101970820D01*
X67414188Y-102090518D01*
X67401928Y-102215000D01*
X67401928Y-103865000D01*
X67414188Y-103989482D01*
X67450498Y-104109180D01*
X67509463Y-104219494D01*
X67588815Y-104316185D01*
X67655001Y-104370502D01*
X67655001Y-104739534D01*
X67613551Y-104773551D01*
X67471716Y-104946377D01*
X67366325Y-105143553D01*
X67366324Y-105143554D01*
X67301423Y-105357502D01*
X67279509Y-105580000D01*
X67285000Y-105635752D01*
X67285001Y-108273579D01*
X67285000Y-108273589D01*
X67285000Y-108595714D01*
X67192629Y-108733957D01*
X67088225Y-108986011D01*
X67035000Y-109253589D01*
X67035000Y-109526411D01*
X67088225Y-109793989D01*
X67116159Y-109861428D01*
X65320000Y-109861428D01*
X65320000Y-96145428D01*
X67146456Y-96145428D01*
X67088225Y-96286011D01*
G36*
X74008000Y-109861428D02*
G01*
X69723841Y-109861428D01*
X69751775Y-109793989D01*
X69805000Y-109526411D01*
X69805000Y-109253589D01*
X69751775Y-108986011D01*
X69647371Y-108733957D01*
X69555000Y-108595714D01*
X69555000Y-106050465D01*
X69596449Y-106016449D01*
X69738284Y-105843623D01*
X69843676Y-105646447D01*
X69908577Y-105432499D01*
X69930491Y-105210001D01*
X69925000Y-105154249D01*
X69925000Y-104370501D01*
X69991185Y-104316185D01*
X70070537Y-104219494D01*
X70129502Y-104109180D01*
X70164964Y-103992277D01*
X70431250Y-103992000D01*
X70463000Y-103960250D01*
X70463000Y-103167000D01*
X70717000Y-103167000D01*
X70717000Y-103960250D01*
X70748750Y-103992000D01*
X71340000Y-103992614D01*
X71364896Y-103990162D01*
X71388836Y-103982900D01*
X71410899Y-103971107D01*
X71430237Y-103955237D01*
X71446107Y-103935899D01*
X71457900Y-103913836D01*
X71465162Y-103889896D01*
X71467614Y-103865000D01*
X71467000Y-103198750D01*
X71435250Y-103167000D01*
X70717000Y-103167000D01*
X70463000Y-103167000D01*
X70443000Y-103167000D01*
X70443000Y-102913000D01*
X70463000Y-102913000D01*
X70463000Y-102119750D01*
X70717000Y-102119750D01*
X70717000Y-102913000D01*
X71435250Y-102913000D01*
X71467000Y-102881250D01*
X71467614Y-102215000D01*
X71465162Y-102190104D01*
X71457900Y-102166164D01*
X71446107Y-102144101D01*
X71430237Y-102124763D01*
X71410899Y-102108893D01*
X71388836Y-102097100D01*
X71364896Y-102089838D01*
X71340000Y-102087386D01*
X70748750Y-102088000D01*
X70717000Y-102119750D01*
X70463000Y-102119750D01*
X70431250Y-102088000D01*
X70164964Y-102087723D01*
X70129502Y-101970820D01*
X70070537Y-101860506D01*
X69991185Y-101763815D01*
X69925000Y-101709499D01*
X69925000Y-100925751D01*
X69930491Y-100869999D01*
X69908577Y-100647501D01*
X69875663Y-100539000D01*
X69843676Y-100433553D01*
X69738284Y-100236377D01*
X69596449Y-100063551D01*
X69555000Y-100029535D01*
X69555000Y-97484286D01*
X69647371Y-97346043D01*
X69751775Y-97093989D01*
X69805000Y-96826411D01*
X69805000Y-96553589D01*
X69751775Y-96286011D01*
X69693544Y-96145428D01*
X74008000Y-96145428D01*
X74008000Y-109861428D01*
X74008000Y-109861428D01*
G37*
X74008000Y-109861428D02*
X69723841Y-109861428D01*
X69751775Y-109793989D01*
X69805000Y-109526411D01*
X69805000Y-109253589D01*
X69751775Y-108986011D01*
X69647371Y-108733957D01*
X69555000Y-108595714D01*
X69555000Y-106050465D01*
X69596449Y-106016449D01*
X69738284Y-105843623D01*
X69843676Y-105646447D01*
X69908577Y-105432499D01*
X69930491Y-105210001D01*
X69925000Y-105154249D01*
X69925000Y-104370501D01*
X69991185Y-104316185D01*
X70070537Y-104219494D01*
X70129502Y-104109180D01*
X70164964Y-103992277D01*
X70431250Y-103992000D01*
X70463000Y-103960250D01*
X70463000Y-103167000D01*
X70717000Y-103167000D01*
X70717000Y-103960250D01*
X70748750Y-103992000D01*
X71340000Y-103992614D01*
X71364896Y-103990162D01*
X71388836Y-103982900D01*
X71410899Y-103971107D01*
X71430237Y-103955237D01*
X71446107Y-103935899D01*
X71457900Y-103913836D01*
X71465162Y-103889896D01*
X71467614Y-103865000D01*
X71467000Y-103198750D01*
X71435250Y-103167000D01*
X70717000Y-103167000D01*
X70463000Y-103167000D01*
X70443000Y-103167000D01*
X70443000Y-102913000D01*
X70463000Y-102913000D01*
X70463000Y-102119750D01*
X70717000Y-102119750D01*
X70717000Y-102913000D01*
X71435250Y-102913000D01*
X71467000Y-102881250D01*
X71467614Y-102215000D01*
X71465162Y-102190104D01*
X71457900Y-102166164D01*
X71446107Y-102144101D01*
X71430237Y-102124763D01*
X71410899Y-102108893D01*
X71388836Y-102097100D01*
X71364896Y-102089838D01*
X71340000Y-102087386D01*
X70748750Y-102088000D01*
X70717000Y-102119750D01*
X70463000Y-102119750D01*
X70431250Y-102088000D01*
X70164964Y-102087723D01*
X70129502Y-101970820D01*
X70070537Y-101860506D01*
X69991185Y-101763815D01*
X69925000Y-101709499D01*
X69925000Y-100925751D01*
X69930491Y-100869999D01*
X69908577Y-100647501D01*
X69875663Y-100539000D01*
X69843676Y-100433553D01*
X69738284Y-100236377D01*
X69596449Y-100063551D01*
X69555000Y-100029535D01*
X69555000Y-97484286D01*
X69647371Y-97346043D01*
X69751775Y-97093989D01*
X69805000Y-96826411D01*
X69805000Y-96553589D01*
X69751775Y-96286011D01*
X69693544Y-96145428D01*
X74008000Y-96145428D01*
X74008000Y-109861428D01*
M02*
