G04 #@! TF.GenerationSoftware,KiCad,Pcbnew,(5.1.0)-1*
G04 #@! TF.CreationDate,2019-06-24T21:59:01+02:00*
G04 #@! TF.ProjectId,LampeSolaire,4c616d70-6553-46f6-9c61-6972652e6b69,6.2*
G04 #@! TF.SameCoordinates,Original*
G04 #@! TF.FileFunction,Copper,L2,Bot*
G04 #@! TF.FilePolarity,Positive*
%FSLAX46Y46*%
G04 Gerber Fmt 4.6, Leading zero omitted, Abs format (unit mm)*
G04 Created by KiCad (PCBNEW (5.1.0)-1) date 2019-06-24 21:59:01*
%MOMM*%
%LPD*%
G04 APERTURE LIST*
%ADD10C,0.250000*%
%ADD11R,1.500000X1.300000*%
%ADD12R,1.700000X0.800000*%
%ADD13R,1.600000X0.700000*%
%ADD14R,0.800000X1.700000*%
%ADD15C,1.900000*%
%ADD16R,1.900000X1.900000*%
%ADD17R,1.300000X1.500000*%
%ADD18R,2.650000X2.030000*%
%ADD19R,1.250000X1.500000*%
%ADD20R,1.500000X1.250000*%
%ADD21C,1.800000*%
%ADD22O,1.700000X1.700000*%
%ADD23R,1.700000X1.700000*%
%ADD24R,1.400000X1.000000*%
%ADD25C,1.000000*%
%ADD26C,0.800000*%
%ADD27C,0.700000*%
%ADD28C,0.450000*%
%ADD29C,0.600000*%
%ADD30C,0.300000*%
G04 APERTURE END LIST*
D10*
X69689047Y-110808571D02*
X69546190Y-110856190D01*
X69498571Y-110903809D01*
X69450952Y-110999047D01*
X69450952Y-111141904D01*
X69498571Y-111237142D01*
X69546190Y-111284761D01*
X69641428Y-111332380D01*
X70022380Y-111332380D01*
X70022380Y-110332380D01*
X69689047Y-110332380D01*
X69593809Y-110380000D01*
X69546190Y-110427619D01*
X69498571Y-110522857D01*
X69498571Y-110618095D01*
X69546190Y-110713333D01*
X69593809Y-110760952D01*
X69689047Y-110808571D01*
X70022380Y-110808571D01*
X69022380Y-111237142D02*
X68974761Y-111284761D01*
X69022380Y-111332380D01*
X69070000Y-111284761D01*
X69022380Y-111237142D01*
X69022380Y-111332380D01*
X67974761Y-111237142D02*
X68022380Y-111284761D01*
X68165238Y-111332380D01*
X68260476Y-111332380D01*
X68403333Y-111284761D01*
X68498571Y-111189523D01*
X68546190Y-111094285D01*
X68593809Y-110903809D01*
X68593809Y-110760952D01*
X68546190Y-110570476D01*
X68498571Y-110475238D01*
X68403333Y-110380000D01*
X68260476Y-110332380D01*
X68165238Y-110332380D01*
X68022380Y-110380000D01*
X67974761Y-110427619D01*
X67117619Y-110665714D02*
X67117619Y-111332380D01*
X67546190Y-110665714D02*
X67546190Y-111189523D01*
X67498571Y-111284761D01*
X67403333Y-111332380D01*
X67260476Y-111332380D01*
X67165238Y-111284761D01*
X67117619Y-111237142D01*
X65879523Y-110951428D02*
X65117619Y-110951428D01*
X64022380Y-110332380D02*
X63689047Y-111332380D01*
X63355714Y-110332380D01*
X62593809Y-110332380D02*
X62784285Y-110332380D01*
X62879523Y-110380000D01*
X62927142Y-110427619D01*
X63022380Y-110570476D01*
X63070000Y-110760952D01*
X63070000Y-111141904D01*
X63022380Y-111237142D01*
X62974761Y-111284761D01*
X62879523Y-111332380D01*
X62689047Y-111332380D01*
X62593809Y-111284761D01*
X62546190Y-111237142D01*
X62498571Y-111141904D01*
X62498571Y-110903809D01*
X62546190Y-110808571D01*
X62593809Y-110760952D01*
X62689047Y-110713333D01*
X62879523Y-110713333D01*
X62974761Y-110760952D01*
X63022380Y-110808571D01*
X63070000Y-110903809D01*
X62070000Y-111237142D02*
X62022380Y-111284761D01*
X62070000Y-111332380D01*
X62117619Y-111284761D01*
X62070000Y-111237142D01*
X62070000Y-111332380D01*
X61641428Y-110427619D02*
X61593809Y-110380000D01*
X61498571Y-110332380D01*
X61260476Y-110332380D01*
X61165238Y-110380000D01*
X61117619Y-110427619D01*
X61070000Y-110522857D01*
X61070000Y-110618095D01*
X61117619Y-110760952D01*
X61689047Y-111332380D01*
X61070000Y-111332380D01*
D11*
X102460000Y-66980000D03*
X105160000Y-66980000D03*
D12*
X100130000Y-58090000D03*
X97330000Y-57140000D03*
X97330000Y-59040000D03*
D13*
X111200000Y-52060000D03*
X111200000Y-53960000D03*
X114200000Y-53960000D03*
X114200000Y-53010000D03*
X114200000Y-52060000D03*
D14*
X101270000Y-53140000D03*
X102220000Y-50340000D03*
X100320000Y-50340000D03*
D12*
X120190000Y-50470000D03*
X122990000Y-51420000D03*
X122990000Y-49520000D03*
D15*
X86030000Y-58090000D03*
D16*
X83490000Y-58090000D03*
D15*
X125990000Y-57200000D03*
D16*
X125990000Y-54660000D03*
D15*
X113970000Y-58090000D03*
D16*
X111430000Y-58090000D03*
D11*
X78490000Y-50470000D03*
X75790000Y-50470000D03*
X93570000Y-53010000D03*
X96270000Y-53010000D03*
X106350000Y-55550000D03*
X103650000Y-55550000D03*
D17*
X100000000Y-80950000D03*
X100000000Y-78250000D03*
D11*
X71980000Y-84760000D03*
X74680000Y-84760000D03*
X92380000Y-64440000D03*
X89680000Y-64440000D03*
X102780000Y-91110000D03*
X100080000Y-91110000D03*
D17*
X69520000Y-72140000D03*
X69520000Y-69440000D03*
D18*
X86480000Y-53010000D03*
X90660000Y-53010000D03*
D19*
X68250000Y-53010000D03*
X68250000Y-50510000D03*
D20*
X106985000Y-91110000D03*
X109485000Y-91110000D03*
D21*
X105588000Y-112700000D03*
X103048000Y-107620000D03*
X105588000Y-100000000D03*
X97968000Y-100000000D03*
X95428000Y-107620000D03*
X97968000Y-112700000D03*
D20*
X120300000Y-58090000D03*
X117800000Y-58090000D03*
X74580000Y-75870000D03*
X72080000Y-75870000D03*
X92360000Y-66980000D03*
X89860000Y-66980000D03*
X65730000Y-63170000D03*
X68230000Y-63170000D03*
D19*
X102540000Y-80930000D03*
X102540000Y-78430000D03*
D22*
X60630000Y-72060000D03*
X60630000Y-74600000D03*
X60630000Y-77140000D03*
X60630000Y-79680000D03*
D23*
X60630000Y-82220000D03*
D24*
X82365000Y-50470000D03*
X84615000Y-50470000D03*
D15*
X51740000Y-72060000D03*
X51740000Y-82220000D03*
X51740000Y-84760000D03*
X51740000Y-87300000D03*
X51740000Y-79680000D03*
X51740000Y-77140000D03*
X51740000Y-74600000D03*
D25*
X74092000Y-53264000D03*
D26*
X95460000Y-72854000D03*
X95460000Y-94190000D03*
X63932000Y-77140000D03*
X99746000Y-94158000D03*
X63932000Y-72822000D03*
X71552000Y-78410000D03*
X97460000Y-62678000D03*
X95460000Y-87667000D03*
X107588000Y-94190000D03*
X72060000Y-72822000D03*
X70536000Y-63170000D03*
X57455000Y-72060000D03*
X57455000Y-77140000D03*
D25*
X116510000Y-60392000D03*
X87427000Y-60392000D03*
X88951000Y-94920000D03*
D26*
X79934000Y-56312000D03*
X116002000Y-54026000D03*
X112700000Y-49200000D03*
X100254000Y-47438000D03*
X100254000Y-55566000D03*
X66472000Y-82220000D03*
X66472000Y-77902000D03*
X64948000Y-77902000D03*
X62916000Y-87554000D03*
X62916000Y-74600000D03*
X80696000Y-79680000D03*
X80696000Y-87554000D03*
X62916000Y-84760000D03*
X62154000Y-88316000D03*
X62154000Y-72060000D03*
X79934000Y-80442000D03*
X79934000Y-88316000D03*
D25*
X80950000Y-58090000D03*
X84760000Y-56090000D03*
X102032000Y-58090000D03*
X115748000Y-50724000D03*
X117272000Y-53060000D03*
X119354000Y-53060000D03*
X103810000Y-54042000D03*
X71425000Y-56058000D03*
X109700000Y-52060000D03*
X114732000Y-55550000D03*
X123114000Y-53264000D03*
X98730000Y-49708000D03*
X98730000Y-55550000D03*
X87300000Y-50470000D03*
D26*
X89078000Y-69266000D03*
X86527000Y-69277000D03*
X86538000Y-80950000D03*
X65710000Y-84760000D03*
X65710000Y-75870000D03*
X100000000Y-84760000D03*
X100000000Y-86538000D03*
X82982000Y-75616000D03*
X82982000Y-84760000D03*
X105080000Y-72822000D03*
X102540000Y-86538000D03*
X102540000Y-82982000D03*
X84887000Y-69266000D03*
X84887000Y-75362000D03*
X102540000Y-74600000D03*
X102540000Y-72822000D03*
X67234000Y-78664000D03*
X67234000Y-69266000D03*
X83998000Y-70790000D03*
X67996000Y-80950000D03*
X67996000Y-70790000D03*
X100000000Y-74600000D03*
X100000000Y-72822000D03*
X83998000Y-74600000D03*
X54915000Y-79680000D03*
X54915000Y-70790000D03*
X67234000Y-80188000D03*
X67234000Y-89840000D03*
X55677000Y-77140000D03*
X55677000Y-89840000D03*
X97460000Y-76124000D03*
X85776000Y-76124000D03*
X97460000Y-72822000D03*
X85776000Y-81966000D03*
X54915000Y-82220000D03*
X54915000Y-90602000D03*
X85776000Y-90602000D03*
X79045000Y-77521000D03*
X77013000Y-67488000D03*
X97460000Y-79680000D03*
X64694000Y-86665000D03*
X71996500Y-86665000D03*
X64694000Y-79680000D03*
X100000000Y-66980000D03*
X91735000Y-71806000D03*
X71536000Y-71806000D03*
X113970000Y-61662000D03*
X102413000Y-61662000D03*
X65628000Y-65963000D03*
X81630000Y-68503000D03*
X81631000Y-71806000D03*
X105080000Y-93015000D03*
X91735000Y-69012000D03*
X74600000Y-71806000D03*
X74600000Y-65964000D03*
X74600000Y-78410000D03*
X105080000Y-80950000D03*
X91745000Y-80950000D03*
X62916000Y-63170000D03*
X56566000Y-74600000D03*
X56566000Y-79680000D03*
D25*
X76100000Y-93190000D03*
X80950000Y-100000000D03*
D26*
X82220000Y-77156000D03*
X83426500Y-95190000D03*
X82220000Y-87635000D03*
X66472000Y-76759000D03*
X66472000Y-70028000D03*
X80950000Y-107620000D03*
X87046000Y-107620000D03*
X83490000Y-107620000D03*
X76632000Y-84760000D03*
D27*
X74092000Y-49200000D02*
X74854000Y-48438000D01*
X74052000Y-50510000D02*
X74092000Y-50470000D01*
X68250000Y-50510000D02*
X74052000Y-50510000D01*
X74092000Y-53264000D02*
X74092000Y-50470000D01*
X74092000Y-50470000D02*
X74092000Y-49200000D01*
X84615000Y-50470000D02*
X84615000Y-49182000D01*
X83871000Y-48438000D02*
X74854000Y-48438000D01*
X84615000Y-49182000D02*
X83871000Y-48438000D01*
D28*
X63932000Y-72822000D02*
X63932000Y-77140000D01*
X95428000Y-72822000D02*
X95460000Y-72854000D01*
X95428000Y-72822000D02*
X95460000Y-72854000D01*
X95460000Y-72854000D02*
X95460000Y-65488000D01*
X95460000Y-65488000D02*
X95460000Y-64472000D01*
X97460000Y-62678000D02*
X97460000Y-64202000D01*
X97190000Y-64472000D02*
X95460000Y-64472000D01*
X97460000Y-64202000D02*
X97190000Y-64472000D01*
X92412000Y-64472000D02*
X95460000Y-64472000D01*
X92380000Y-64440000D02*
X92412000Y-64472000D01*
X95460000Y-87667000D02*
X95460000Y-94190000D01*
X109485000Y-91110000D02*
X109485000Y-93309000D01*
X109485000Y-93309000D02*
X108604000Y-94190000D01*
X108604000Y-94190000D02*
X107588000Y-94190000D01*
X72080000Y-72842000D02*
X72060000Y-72822000D01*
X72080000Y-75870000D02*
X72080000Y-72842000D01*
X72080000Y-77882000D02*
X71552000Y-78410000D01*
X72080000Y-75870000D02*
X72080000Y-77882000D01*
X95461000Y-78250000D02*
X95460000Y-78251000D01*
X100000000Y-78250000D02*
X95461000Y-78250000D01*
X95460000Y-72854000D02*
X95460000Y-78251000D01*
X95460000Y-78251000D02*
X95460000Y-87667000D01*
X70536000Y-63170000D02*
X68230000Y-63170000D01*
X63932000Y-69398103D02*
X63932000Y-72822000D01*
X63932000Y-69266000D02*
X63932000Y-69398103D01*
X68230000Y-63170000D02*
X68230000Y-64968000D01*
X68230000Y-64968000D02*
X63932000Y-69266000D01*
X57455000Y-72060000D02*
X57455000Y-77140000D01*
D27*
X118286000Y-52060000D02*
X118320000Y-52026000D01*
X114200000Y-52060000D02*
X118286000Y-52060000D01*
X118640000Y-50470000D02*
X120190000Y-50470000D01*
X118320000Y-50790000D02*
X118640000Y-50470000D01*
X118320000Y-52026000D02*
X118320000Y-50790000D01*
X117518000Y-60392000D02*
X116510000Y-60392000D01*
X117800000Y-60110000D02*
X117518000Y-60392000D01*
X117800000Y-58090000D02*
X117800000Y-60110000D01*
X117800000Y-56419000D02*
X117800000Y-58090000D01*
X118320000Y-52026000D02*
X118320000Y-55899000D01*
X118320000Y-55899000D02*
X117800000Y-56419000D01*
X87427000Y-71679000D02*
X87427000Y-60392000D01*
X88951000Y-73203000D02*
X87427000Y-71679000D01*
X88951000Y-94920000D02*
X88951000Y-73203000D01*
D10*
X76632000Y-56312000D02*
X79934000Y-56312000D01*
X75790000Y-55470000D02*
X76632000Y-56312000D01*
X75790000Y-50470000D02*
X75790000Y-55470000D01*
X97330000Y-59040000D02*
X95362000Y-59040000D01*
X96270000Y-53946000D02*
X96270000Y-53010000D01*
X94666000Y-55550000D02*
X96270000Y-53946000D01*
X94666000Y-58344000D02*
X94666000Y-55550000D01*
X95362000Y-59040000D02*
X94666000Y-58344000D01*
X99368000Y-50340000D02*
X100320000Y-50340000D01*
X98730000Y-50978000D02*
X99368000Y-50340000D01*
X98730000Y-52380000D02*
X98730000Y-50978000D01*
X96270000Y-53010000D02*
X98100000Y-53010000D01*
X98100000Y-53010000D02*
X98730000Y-52380000D01*
X114200000Y-53960000D02*
X115936000Y-53960000D01*
X115936000Y-53960000D02*
X116002000Y-54026000D01*
X112084010Y-48584010D02*
X112700000Y-49200000D01*
X105093907Y-48584010D02*
X112084010Y-48584010D01*
X104068887Y-47558990D02*
X105093907Y-48584010D01*
X102001010Y-47558990D02*
X104068887Y-47558990D01*
X100320000Y-50340000D02*
X100320000Y-49240000D01*
X100320000Y-49240000D02*
X102001010Y-47558990D01*
X123114000Y-49396000D02*
X122990000Y-49520000D01*
X123114000Y-48692000D02*
X123114000Y-49396000D01*
X122606000Y-48184000D02*
X123114000Y-48692000D01*
X105588000Y-48184000D02*
X122606000Y-48184000D01*
X104318000Y-46914000D02*
X104326000Y-46922000D01*
X104326000Y-46922000D02*
X105588000Y-48184000D01*
X103650000Y-55550000D02*
X101270000Y-55550000D01*
X101270000Y-55550000D02*
X100270000Y-55550000D01*
X100770000Y-46922000D02*
X104326000Y-46922000D01*
X100254000Y-47438000D02*
X100770000Y-46922000D01*
X100270000Y-55550000D02*
X100254000Y-55566000D01*
X101270000Y-53140000D02*
X101270000Y-55550000D01*
X66472000Y-82220000D02*
X66472000Y-77902000D01*
X69520000Y-69440000D02*
X69520000Y-68504000D01*
X64948000Y-75616000D02*
X64948000Y-77902000D01*
X65710000Y-74854000D02*
X64948000Y-75616000D01*
X65710000Y-68504000D02*
X65710000Y-74854000D01*
X66218000Y-67996000D02*
X65710000Y-68504000D01*
X69012000Y-67996000D02*
X66218000Y-67996000D01*
X69520000Y-68504000D02*
X69012000Y-67996000D01*
X80696000Y-79680000D02*
X80696000Y-87554000D01*
X62916000Y-74600000D02*
X62916000Y-84760000D01*
X62916000Y-84760000D02*
X62916000Y-87554000D01*
X62154000Y-88316000D02*
X62154000Y-72060000D01*
X79934000Y-80442000D02*
X79934000Y-88316000D01*
D27*
X73584000Y-56058000D02*
X75616000Y-58090000D01*
X75616000Y-58090000D02*
X80950000Y-58090000D01*
X84760000Y-56090000D02*
X81426000Y-56090000D01*
X80950000Y-56566000D02*
X80950000Y-58090000D01*
X81426000Y-56090000D02*
X80950000Y-56566000D01*
X102032000Y-58090000D02*
X100130000Y-58090000D01*
X115651000Y-50627000D02*
X115748000Y-50724000D01*
X114200000Y-53010000D02*
X117222000Y-53010000D01*
X117222000Y-53010000D02*
X117272000Y-53060000D01*
X115748000Y-50724000D02*
X108128000Y-50724000D01*
X108128000Y-50724000D02*
X106350011Y-50724000D01*
X102220000Y-50340000D02*
X102220000Y-48774000D01*
X103810000Y-48454000D02*
X102540000Y-48454000D01*
X105096000Y-49740000D02*
X103810000Y-48454000D01*
X105096000Y-49740000D02*
X105096000Y-50724000D01*
X102540000Y-48454000D02*
X102220000Y-48774000D01*
X105096000Y-50724000D02*
X105334000Y-50724000D01*
X105334000Y-50724000D02*
X106350011Y-50724000D01*
X103810000Y-52010000D02*
X105096000Y-50724000D01*
X103810000Y-54042000D02*
X103810000Y-52010000D01*
X111200000Y-53960000D02*
X109316000Y-53960000D01*
X108128000Y-52772000D02*
X108128000Y-50724000D01*
X109316000Y-53960000D02*
X108128000Y-52772000D01*
X68250000Y-53010000D02*
X68250000Y-55169000D01*
X69139000Y-56058000D02*
X70282000Y-56058000D01*
X68250000Y-55169000D02*
X69139000Y-56058000D01*
X120300000Y-54006000D02*
X119354000Y-53060000D01*
X120319000Y-54660000D02*
X120300000Y-54641000D01*
X125990000Y-54660000D02*
X120319000Y-54660000D01*
X120300000Y-58090000D02*
X120300000Y-54641000D01*
X120300000Y-54641000D02*
X120300000Y-54006000D01*
X70282000Y-56058000D02*
X71425000Y-56058000D01*
X71425000Y-56058000D02*
X73584000Y-56058000D01*
X86030000Y-58090000D02*
X86030000Y-56566000D01*
X86480000Y-56116000D02*
X86480000Y-53010000D01*
X86030000Y-56566000D02*
X86480000Y-56116000D01*
X111200000Y-52060000D02*
X109700000Y-52060000D01*
X97330000Y-57140000D02*
X96002000Y-57140000D01*
X96190000Y-55550000D02*
X98730000Y-55550000D01*
X95682000Y-56058000D02*
X96190000Y-55550000D01*
X95682000Y-56820000D02*
X95682000Y-56058000D01*
X96002000Y-57140000D02*
X95682000Y-56820000D01*
X106350000Y-56312000D02*
X105842000Y-56820000D01*
X106350000Y-55550000D02*
X106350000Y-56312000D01*
X100000000Y-56820000D02*
X98730000Y-55550000D01*
X105842000Y-56820000D02*
X100000000Y-56820000D01*
X106350000Y-55550000D02*
X114732000Y-55550000D01*
X123114000Y-51544000D02*
X122990000Y-51420000D01*
X123114000Y-53264000D02*
X123114000Y-51544000D01*
X94920000Y-49708000D02*
X93570000Y-51058000D01*
X93570000Y-53010000D02*
X93570000Y-51058000D01*
X98730000Y-49708000D02*
X94920000Y-49708000D01*
X90660000Y-51036000D02*
X90660000Y-53010000D01*
X90094000Y-50470000D02*
X90660000Y-51036000D01*
X87300000Y-50470000D02*
X90094000Y-50470000D01*
D10*
X89110000Y-69234000D02*
X89078000Y-69266000D01*
X89860000Y-68484000D02*
X89078000Y-69266000D01*
X89860000Y-66980000D02*
X89860000Y-68484000D01*
X89680000Y-66800000D02*
X89860000Y-66980000D01*
X89680000Y-64440000D02*
X89680000Y-66800000D01*
X86538000Y-69277000D02*
X86527000Y-69266000D01*
X86538000Y-69277000D02*
X86527000Y-69277000D01*
X86538000Y-80950000D02*
X86538000Y-69277000D01*
X65710000Y-75870000D02*
X65710000Y-84760000D01*
X100000000Y-86538000D02*
X100000000Y-84760000D01*
X82982000Y-75616000D02*
X82982000Y-84760000D01*
X100080000Y-86618000D02*
X100000000Y-86538000D01*
X100080000Y-91110000D02*
X100080000Y-86618000D01*
X105080000Y-67060000D02*
X105160000Y-66980000D01*
X105080000Y-72822000D02*
X105080000Y-67060000D01*
X102540000Y-86538000D02*
X102540000Y-83998000D01*
X102540000Y-82982000D02*
X102540000Y-83998000D01*
X84887000Y-69266000D02*
X84887000Y-75362000D01*
X102540000Y-72822000D02*
X102540000Y-74600000D01*
X67234000Y-78664000D02*
X67234000Y-69266000D01*
X67996000Y-80950000D02*
X67996000Y-70790000D01*
X100000000Y-72822000D02*
X100000000Y-74600000D01*
X83998000Y-70790000D02*
X83998000Y-74600000D01*
X54915000Y-79680000D02*
X54915000Y-70790000D01*
X67234000Y-80188000D02*
X67234000Y-89840000D01*
X55677000Y-77140000D02*
X55677000Y-89840000D01*
X97460000Y-72822000D02*
X97460000Y-76124000D01*
X85776000Y-81400315D02*
X85776000Y-76124000D01*
X85776000Y-81966000D02*
X85776000Y-81400315D01*
X54915000Y-82220000D02*
X54915000Y-90602000D01*
X85776000Y-90602000D02*
X85776000Y-81966000D01*
X79045000Y-77521000D02*
X79045000Y-71044000D01*
X79045000Y-71044000D02*
X77013000Y-69012000D01*
X77013000Y-69012000D02*
X77013000Y-67488000D01*
X102520000Y-80950000D02*
X102540000Y-80930000D01*
X100000000Y-80950000D02*
X102520000Y-80950000D01*
X100000000Y-80950000D02*
X97968000Y-80950000D01*
X97968000Y-80950000D02*
X97460000Y-80442000D01*
X97460000Y-80442000D02*
X97460000Y-79680000D01*
D28*
X71996500Y-84776500D02*
X71980000Y-84760000D01*
X71996500Y-86665000D02*
X71996500Y-84776500D01*
X64694000Y-79680000D02*
X64694000Y-86665000D01*
X71980000Y-84760000D02*
X71980000Y-79950500D01*
X71980000Y-79950500D02*
X73520500Y-78410000D01*
X69520000Y-72140000D02*
X69854000Y-71806000D01*
X104230000Y-91110000D02*
X105080000Y-91110000D01*
X102780000Y-91110000D02*
X104230000Y-91110000D01*
X69854000Y-71806000D02*
X71536000Y-71806000D01*
X113970000Y-58090000D02*
X113970000Y-61662000D01*
X102413000Y-66933000D02*
X102460000Y-66980000D01*
X102413000Y-61662000D02*
X102413000Y-66933000D01*
X102460000Y-66980000D02*
X100000000Y-66980000D01*
X81630000Y-71805000D02*
X81631000Y-71806000D01*
X81630000Y-68503000D02*
X81630000Y-71805000D01*
X105785000Y-91110000D02*
X105080000Y-91110000D01*
X106985000Y-91110000D02*
X105785000Y-91110000D01*
X105080000Y-93015000D02*
X105080000Y-91110000D01*
X105080000Y-82220000D02*
X105080000Y-91110000D01*
X91618000Y-69012000D02*
X91735000Y-69012000D01*
X92360000Y-68387000D02*
X91735000Y-69012000D01*
X92360000Y-66980000D02*
X92360000Y-68387000D01*
X74580000Y-71826000D02*
X74600000Y-71806000D01*
X74580000Y-75870000D02*
X74580000Y-71826000D01*
X74600000Y-71806000D02*
X74600000Y-65964000D01*
X74580000Y-75870000D02*
X74580000Y-78390000D01*
X74580000Y-78390000D02*
X74600000Y-78410000D01*
X74600000Y-78410000D02*
X73520500Y-78410000D01*
X102540000Y-78430000D02*
X103830000Y-78430000D01*
X103830000Y-78430000D02*
X105080000Y-79680000D01*
X105080000Y-79680000D02*
X105080000Y-80950000D01*
X105080000Y-80950000D02*
X105080000Y-82220000D01*
X91735000Y-71806000D02*
X91735000Y-80940000D01*
X91735000Y-80940000D02*
X91745000Y-80950000D01*
X65628000Y-63272000D02*
X65730000Y-63170000D01*
X65628000Y-65963000D02*
X65628000Y-63272000D01*
X65730000Y-63170000D02*
X62916000Y-63170000D01*
X56566000Y-74600000D02*
X56566000Y-79680000D01*
D27*
X99240792Y-100000000D02*
X105588000Y-100000000D01*
X97968000Y-100000000D02*
X99240792Y-100000000D01*
X76100000Y-93190000D02*
X76100000Y-97603000D01*
X76100000Y-97603000D02*
X78497000Y-100000000D01*
X78497000Y-100000000D02*
X80950000Y-100000000D01*
X80950000Y-100000000D02*
X97968000Y-100000000D01*
D10*
X82220000Y-77156000D02*
X82220000Y-87635000D01*
X83426500Y-95190000D02*
X83426500Y-93983500D01*
X83426500Y-93983500D02*
X82220000Y-92777000D01*
X82220000Y-87635000D02*
X82220000Y-92777000D01*
X66472000Y-76759000D02*
X66472000Y-70028000D01*
X82365000Y-50470000D02*
X78490000Y-50470000D01*
X105588000Y-112700000D02*
X105588000Y-108128000D01*
X105080000Y-107620000D02*
X103048000Y-107620000D01*
X105588000Y-108128000D02*
X105080000Y-107620000D01*
X80950000Y-107620000D02*
X80950000Y-106731000D01*
X80950000Y-106731000D02*
X82093000Y-105588000D01*
X82093000Y-105588000D02*
X102286000Y-105588000D01*
X103048000Y-106350000D02*
X103048000Y-107620000D01*
X102286000Y-105588000D02*
X103048000Y-106350000D01*
X87046000Y-107620000D02*
X95428000Y-107620000D01*
X97968000Y-112700000D02*
X97968000Y-108636000D01*
X96952000Y-107620000D02*
X95428000Y-107620000D01*
X97968000Y-108636000D02*
X96952000Y-107620000D01*
X83490000Y-107620000D02*
X87046000Y-107620000D01*
X76632000Y-84760000D02*
X74680000Y-84760000D01*
D29*
G36*
X109593023Y-56963569D02*
G01*
X109575646Y-57140000D01*
X109575646Y-59040000D01*
X109591405Y-59200000D01*
X101365739Y-59200000D01*
X101431073Y-59165078D01*
X101554107Y-59064107D01*
X101655078Y-58941073D01*
X101730107Y-58800705D01*
X101776309Y-58648396D01*
X101791910Y-58490000D01*
X101788000Y-58342000D01*
X101586000Y-58140000D01*
X100180000Y-58140000D01*
X100180000Y-58160000D01*
X100080000Y-58160000D01*
X100080000Y-58140000D01*
X100060000Y-58140000D01*
X100060000Y-58070138D01*
X100061397Y-58070000D01*
X105780602Y-58070000D01*
X105842000Y-58076047D01*
X105903398Y-58070000D01*
X105903405Y-58070000D01*
X106087043Y-58051913D01*
X106322669Y-57980437D01*
X106539823Y-57864366D01*
X106730160Y-57708160D01*
X106769309Y-57660457D01*
X107190457Y-57239309D01*
X107238160Y-57200160D01*
X107349151Y-57064918D01*
X107446081Y-57035514D01*
X107602432Y-56951943D01*
X107739475Y-56839475D01*
X107771871Y-56800000D01*
X109642641Y-56800000D01*
X109593023Y-56963569D01*
X109593023Y-56963569D01*
G37*
X109593023Y-56963569D02*
X109575646Y-57140000D01*
X109575646Y-59040000D01*
X109591405Y-59200000D01*
X101365739Y-59200000D01*
X101431073Y-59165078D01*
X101554107Y-59064107D01*
X101655078Y-58941073D01*
X101730107Y-58800705D01*
X101776309Y-58648396D01*
X101791910Y-58490000D01*
X101788000Y-58342000D01*
X101586000Y-58140000D01*
X100180000Y-58140000D01*
X100180000Y-58160000D01*
X100080000Y-58160000D01*
X100080000Y-58140000D01*
X100060000Y-58140000D01*
X100060000Y-58070138D01*
X100061397Y-58070000D01*
X105780602Y-58070000D01*
X105842000Y-58076047D01*
X105903398Y-58070000D01*
X105903405Y-58070000D01*
X106087043Y-58051913D01*
X106322669Y-57980437D01*
X106539823Y-57864366D01*
X106730160Y-57708160D01*
X106769309Y-57660457D01*
X107190457Y-57239309D01*
X107238160Y-57200160D01*
X107349151Y-57064918D01*
X107446081Y-57035514D01*
X107602432Y-56951943D01*
X107739475Y-56839475D01*
X107771871Y-56800000D01*
X109642641Y-56800000D01*
X109593023Y-56963569D01*
G36*
X129025001Y-59200000D02*
G01*
X121697235Y-59200000D01*
X121725078Y-59166073D01*
X121800107Y-59025705D01*
X121846309Y-58873396D01*
X121861910Y-58715000D01*
X121858000Y-58342000D01*
X121656000Y-58140000D01*
X120350000Y-58140000D01*
X120350000Y-58160000D01*
X120250000Y-58160000D01*
X120250000Y-58140000D01*
X120230000Y-58140000D01*
X120230000Y-58040000D01*
X120250000Y-58040000D01*
X120250000Y-56859000D01*
X120350000Y-56859000D01*
X120350000Y-58040000D01*
X121656000Y-58040000D01*
X121858000Y-57838000D01*
X121861910Y-57465000D01*
X121846309Y-57306604D01*
X121800107Y-57154295D01*
X121727144Y-57017791D01*
X124140000Y-57017791D01*
X124140000Y-57382209D01*
X124211095Y-57739625D01*
X124350552Y-58076303D01*
X124553011Y-58379306D01*
X124810694Y-58636989D01*
X125113697Y-58839448D01*
X125450375Y-58978905D01*
X125807791Y-59050000D01*
X126172209Y-59050000D01*
X126529625Y-58978905D01*
X126866303Y-58839448D01*
X127169306Y-58636989D01*
X127426989Y-58379306D01*
X127629448Y-58076303D01*
X127768905Y-57739625D01*
X127840000Y-57382209D01*
X127840000Y-57017791D01*
X127768905Y-56660375D01*
X127629448Y-56323697D01*
X127526273Y-56169283D01*
X127615078Y-56061073D01*
X127690107Y-55920705D01*
X127736309Y-55768396D01*
X127751910Y-55610000D01*
X127748000Y-54912000D01*
X127546000Y-54710000D01*
X126040000Y-54710000D01*
X126040000Y-54730000D01*
X125940000Y-54730000D01*
X125940000Y-54710000D01*
X124434000Y-54710000D01*
X124232000Y-54912000D01*
X124228090Y-55610000D01*
X124243691Y-55768396D01*
X124289893Y-55920705D01*
X124364922Y-56061073D01*
X124453727Y-56169283D01*
X124350552Y-56323697D01*
X124211095Y-56660375D01*
X124140000Y-57017791D01*
X121727144Y-57017791D01*
X121725078Y-57013927D01*
X121624107Y-56890893D01*
X121501073Y-56789922D01*
X121360705Y-56714893D01*
X121208396Y-56668691D01*
X121050000Y-56653090D01*
X120552000Y-56657000D01*
X120350000Y-56859000D01*
X120250000Y-56859000D01*
X120048000Y-56657000D01*
X119550000Y-56653090D01*
X119391604Y-56668691D01*
X119276807Y-56703514D01*
X119364366Y-56596823D01*
X119480437Y-56379669D01*
X119551913Y-56144043D01*
X119570000Y-55960405D01*
X119570000Y-55960399D01*
X119576047Y-55899001D01*
X119570000Y-55837603D01*
X119570000Y-52087399D01*
X119576047Y-52026001D01*
X119570000Y-51964603D01*
X119570000Y-51774354D01*
X121040000Y-51774354D01*
X121216431Y-51756977D01*
X121235646Y-51751148D01*
X121235646Y-51820000D01*
X121253023Y-51996431D01*
X121304486Y-52166081D01*
X121388057Y-52322432D01*
X121500525Y-52459475D01*
X121637568Y-52571943D01*
X121793919Y-52655514D01*
X121844356Y-52670814D01*
X121767801Y-52855635D01*
X121714000Y-53126112D01*
X121714000Y-53401888D01*
X121767801Y-53672365D01*
X121873336Y-53927149D01*
X122026549Y-54156448D01*
X122221552Y-54351451D01*
X122450851Y-54504664D01*
X122705635Y-54610199D01*
X122976112Y-54664000D01*
X123251888Y-54664000D01*
X123522365Y-54610199D01*
X123777149Y-54504664D01*
X124006448Y-54351451D01*
X124201451Y-54156448D01*
X124230349Y-54113200D01*
X124232000Y-54408000D01*
X124434000Y-54610000D01*
X125940000Y-54610000D01*
X125940000Y-53104000D01*
X126040000Y-53104000D01*
X126040000Y-54610000D01*
X127546000Y-54610000D01*
X127748000Y-54408000D01*
X127751910Y-53710000D01*
X127736309Y-53551604D01*
X127690107Y-53399295D01*
X127615078Y-53258927D01*
X127514107Y-53135893D01*
X127391073Y-53034922D01*
X127250705Y-52959893D01*
X127098396Y-52913691D01*
X126940000Y-52898090D01*
X126242000Y-52902000D01*
X126040000Y-53104000D01*
X125940000Y-53104000D01*
X125738000Y-52902000D01*
X125040000Y-52898090D01*
X124881604Y-52913691D01*
X124729295Y-52959893D01*
X124588927Y-53034922D01*
X124508922Y-53100581D01*
X124460199Y-52855635D01*
X124364000Y-52623390D01*
X124364000Y-52554243D01*
X124479475Y-52459475D01*
X124591943Y-52322432D01*
X124675514Y-52166081D01*
X124726977Y-51996431D01*
X124744354Y-51820000D01*
X124744354Y-51020000D01*
X124726977Y-50843569D01*
X124675514Y-50673919D01*
X124591943Y-50517568D01*
X124552905Y-50470000D01*
X124591943Y-50422432D01*
X124675514Y-50266081D01*
X124726977Y-50096431D01*
X124744354Y-49920000D01*
X124744354Y-49120000D01*
X124726977Y-48943569D01*
X124675514Y-48773919D01*
X124591943Y-48617568D01*
X124479475Y-48480525D01*
X124342432Y-48368057D01*
X124186081Y-48284486D01*
X124033708Y-48238264D01*
X123970380Y-48119785D01*
X123842291Y-47963709D01*
X123803175Y-47931607D01*
X123366396Y-47494829D01*
X123334291Y-47455709D01*
X123178215Y-47327620D01*
X123000148Y-47232442D01*
X122806935Y-47173831D01*
X122656351Y-47159000D01*
X122656350Y-47159000D01*
X122606000Y-47154041D01*
X122555650Y-47159000D01*
X106012568Y-47159000D01*
X105086396Y-46232829D01*
X105054291Y-46193709D01*
X105015171Y-46161604D01*
X105007180Y-46153613D01*
X104890214Y-46057621D01*
X104712148Y-45962443D01*
X104518934Y-45903831D01*
X104318000Y-45884041D01*
X104186423Y-45897000D01*
X100820342Y-45897000D01*
X100769999Y-45892042D01*
X100719656Y-45897000D01*
X100719649Y-45897000D01*
X100587665Y-45909999D01*
X100569064Y-45911831D01*
X100510453Y-45929611D01*
X100375852Y-45970442D01*
X100197785Y-46065620D01*
X100104353Y-46142298D01*
X99874804Y-46187958D01*
X99638219Y-46285955D01*
X99425298Y-46428224D01*
X99244224Y-46609298D01*
X99101955Y-46822219D01*
X99003958Y-47058804D01*
X98954000Y-47309961D01*
X98954000Y-47566039D01*
X99003958Y-47817196D01*
X99101955Y-48053781D01*
X99244224Y-48266702D01*
X99425298Y-48447776D01*
X99566661Y-48542231D01*
X99544907Y-48568738D01*
X99393149Y-48467336D01*
X99138365Y-48361801D01*
X98867888Y-48308000D01*
X98592112Y-48308000D01*
X98321635Y-48361801D01*
X98089390Y-48458000D01*
X94981397Y-48458000D01*
X94919999Y-48451953D01*
X94858601Y-48458000D01*
X94858595Y-48458000D01*
X94700538Y-48473567D01*
X94674956Y-48476087D01*
X94625584Y-48491064D01*
X94439331Y-48547563D01*
X94222177Y-48663634D01*
X94031840Y-48819840D01*
X93992696Y-48867538D01*
X92729538Y-50130696D01*
X92681841Y-50169840D01*
X92525635Y-50360177D01*
X92484013Y-50438047D01*
X92409563Y-50577332D01*
X92338087Y-50812958D01*
X92313953Y-51058000D01*
X92320001Y-51119407D01*
X92320001Y-51156125D01*
X92161431Y-51108023D01*
X91985000Y-51090646D01*
X91910666Y-51090646D01*
X91916048Y-51036000D01*
X91891913Y-50790957D01*
X91820437Y-50555331D01*
X91817566Y-50549959D01*
X91704366Y-50338177D01*
X91548160Y-50147840D01*
X91500458Y-50108692D01*
X91021309Y-49629543D01*
X90982160Y-49581840D01*
X90791823Y-49425634D01*
X90574669Y-49309563D01*
X90339043Y-49238087D01*
X90155405Y-49220000D01*
X90155398Y-49220000D01*
X90094000Y-49213953D01*
X90032602Y-49220000D01*
X87940610Y-49220000D01*
X87708365Y-49123801D01*
X87437888Y-49070000D01*
X87162112Y-49070000D01*
X86891635Y-49123801D01*
X86636851Y-49229336D01*
X86407552Y-49382549D01*
X86212549Y-49577552D01*
X86160210Y-49655883D01*
X86150514Y-49623919D01*
X86066943Y-49467568D01*
X85954475Y-49330525D01*
X85865000Y-49257095D01*
X85865000Y-49243398D01*
X85871047Y-49182000D01*
X85865000Y-49120602D01*
X85865000Y-49120595D01*
X85846913Y-48936957D01*
X85775437Y-48701331D01*
X85659366Y-48484177D01*
X85503160Y-48293840D01*
X85455457Y-48254691D01*
X84798309Y-47597543D01*
X84759160Y-47549840D01*
X84568823Y-47393634D01*
X84351669Y-47277563D01*
X84116043Y-47206087D01*
X83932405Y-47188000D01*
X83932398Y-47188000D01*
X83871000Y-47181953D01*
X83809602Y-47188000D01*
X74915405Y-47188000D01*
X74854000Y-47181952D01*
X74792595Y-47188000D01*
X74608957Y-47206087D01*
X74373331Y-47277563D01*
X74156177Y-47393634D01*
X73965840Y-47549840D01*
X73926691Y-47597543D01*
X73251538Y-48272696D01*
X73203841Y-48311840D01*
X73047635Y-48502177D01*
X72931563Y-48719331D01*
X72860087Y-48954957D01*
X72842000Y-49138595D01*
X72842000Y-49138602D01*
X72835953Y-49200000D01*
X72841862Y-49260000D01*
X69628243Y-49260000D01*
X69626943Y-49257568D01*
X69514475Y-49120525D01*
X69377432Y-49008057D01*
X69221081Y-48924486D01*
X69051431Y-48873023D01*
X68875000Y-48855646D01*
X67625000Y-48855646D01*
X67448569Y-48873023D01*
X67278919Y-48924486D01*
X67122568Y-49008057D01*
X66985525Y-49120525D01*
X66873057Y-49257568D01*
X66789486Y-49413919D01*
X66738023Y-49583569D01*
X66720646Y-49760000D01*
X66720646Y-51260000D01*
X66738023Y-51436431D01*
X66789486Y-51606081D01*
X66873057Y-51762432D01*
X66934655Y-51837489D01*
X66874893Y-51949295D01*
X66828691Y-52101604D01*
X66813090Y-52260000D01*
X66817000Y-52758000D01*
X67019000Y-52960000D01*
X68200000Y-52960000D01*
X68200000Y-52940000D01*
X68300000Y-52940000D01*
X68300000Y-52960000D01*
X69481000Y-52960000D01*
X69683000Y-52758000D01*
X69686910Y-52260000D01*
X69671309Y-52101604D01*
X69625107Y-51949295D01*
X69565345Y-51837489D01*
X69626943Y-51762432D01*
X69628243Y-51760000D01*
X72842001Y-51760000D01*
X72842000Y-52623390D01*
X72745801Y-52855635D01*
X72692000Y-53126112D01*
X72692000Y-53401888D01*
X72745801Y-53672365D01*
X72851336Y-53927149D01*
X73004549Y-54156448D01*
X73199552Y-54351451D01*
X73428851Y-54504664D01*
X73683635Y-54610199D01*
X73954112Y-54664000D01*
X74229888Y-54664000D01*
X74500365Y-54610199D01*
X74755149Y-54504664D01*
X74765001Y-54498081D01*
X74765001Y-55419640D01*
X74760041Y-55470000D01*
X74779831Y-55670934D01*
X74828488Y-55831332D01*
X74838443Y-55864148D01*
X74933621Y-56042215D01*
X75061710Y-56198291D01*
X75100824Y-56230391D01*
X75871612Y-57001181D01*
X75903709Y-57040291D01*
X76059785Y-57168380D01*
X76237852Y-57263558D01*
X76404271Y-57314041D01*
X76431065Y-57322169D01*
X76632000Y-57341959D01*
X76682351Y-57337000D01*
X79128082Y-57337000D01*
X79318219Y-57464045D01*
X79554804Y-57562042D01*
X79805961Y-57612000D01*
X80062039Y-57612000D01*
X80313196Y-57562042D01*
X80549781Y-57464045D01*
X80762702Y-57321776D01*
X80943776Y-57140702D01*
X81086045Y-56927781D01*
X81184042Y-56691196D01*
X81234000Y-56440039D01*
X81234000Y-56183961D01*
X81184042Y-55932804D01*
X81086045Y-55696219D01*
X80943776Y-55483298D01*
X80762702Y-55302224D01*
X80549781Y-55159955D01*
X80313196Y-55061958D01*
X80062039Y-55012000D01*
X79805961Y-55012000D01*
X79554804Y-55061958D01*
X79318219Y-55159955D01*
X79128082Y-55287000D01*
X77056568Y-55287000D01*
X76815000Y-55045432D01*
X76815000Y-51977076D01*
X76886081Y-51955514D01*
X77042432Y-51871943D01*
X77140000Y-51791871D01*
X77237568Y-51871943D01*
X77393919Y-51955514D01*
X77563569Y-52006977D01*
X77740000Y-52024354D01*
X79240000Y-52024354D01*
X79416431Y-52006977D01*
X79586081Y-51955514D01*
X79742432Y-51871943D01*
X79879475Y-51759475D01*
X79991943Y-51622432D01*
X80060057Y-51495000D01*
X80931578Y-51495000D01*
X81025525Y-51609475D01*
X81162568Y-51721943D01*
X81318919Y-51805514D01*
X81488569Y-51856977D01*
X81665000Y-51874354D01*
X83065000Y-51874354D01*
X83241431Y-51856977D01*
X83411081Y-51805514D01*
X83490000Y-51763331D01*
X83568919Y-51805514D01*
X83738569Y-51856977D01*
X83915000Y-51874354D01*
X84262529Y-51874354D01*
X84250646Y-51995000D01*
X84250646Y-54025000D01*
X84268023Y-54201431D01*
X84319486Y-54371081D01*
X84403057Y-54527432D01*
X84515525Y-54664475D01*
X84652568Y-54776943D01*
X84808919Y-54860514D01*
X84978569Y-54911977D01*
X85155000Y-54929354D01*
X85230000Y-54929354D01*
X85230000Y-55598234D01*
X85189538Y-55638696D01*
X85141841Y-55677840D01*
X84985635Y-55868177D01*
X84926112Y-55979537D01*
X84869563Y-56085332D01*
X84823966Y-56235646D01*
X84800711Y-56312306D01*
X84786081Y-56304486D01*
X84616431Y-56253023D01*
X84440000Y-56235646D01*
X82540000Y-56235646D01*
X82363569Y-56253023D01*
X82193919Y-56304486D01*
X82037568Y-56388057D01*
X81900525Y-56500525D01*
X81788057Y-56637568D01*
X81704486Y-56793919D01*
X81653023Y-56963569D01*
X81635646Y-57140000D01*
X81635646Y-59040000D01*
X81651405Y-59200000D01*
X58475000Y-59200000D01*
X58475000Y-53760000D01*
X66813090Y-53760000D01*
X66828691Y-53918396D01*
X66874893Y-54070705D01*
X66949922Y-54211073D01*
X67050893Y-54334107D01*
X67173927Y-54435078D01*
X67314295Y-54510107D01*
X67466604Y-54556309D01*
X67625000Y-54571910D01*
X67998000Y-54568000D01*
X68200000Y-54366000D01*
X68200000Y-53060000D01*
X68300000Y-53060000D01*
X68300000Y-54366000D01*
X68502000Y-54568000D01*
X68875000Y-54571910D01*
X69033396Y-54556309D01*
X69185705Y-54510107D01*
X69326073Y-54435078D01*
X69449107Y-54334107D01*
X69550078Y-54211073D01*
X69625107Y-54070705D01*
X69671309Y-53918396D01*
X69686910Y-53760000D01*
X69683000Y-53262000D01*
X69481000Y-53060000D01*
X68300000Y-53060000D01*
X68200000Y-53060000D01*
X67019000Y-53060000D01*
X66817000Y-53262000D01*
X66813090Y-53760000D01*
X58475000Y-53760000D01*
X58475000Y-45475000D01*
X129025000Y-45475000D01*
X129025001Y-59200000D01*
X129025001Y-59200000D01*
G37*
X129025001Y-59200000D02*
X121697235Y-59200000D01*
X121725078Y-59166073D01*
X121800107Y-59025705D01*
X121846309Y-58873396D01*
X121861910Y-58715000D01*
X121858000Y-58342000D01*
X121656000Y-58140000D01*
X120350000Y-58140000D01*
X120350000Y-58160000D01*
X120250000Y-58160000D01*
X120250000Y-58140000D01*
X120230000Y-58140000D01*
X120230000Y-58040000D01*
X120250000Y-58040000D01*
X120250000Y-56859000D01*
X120350000Y-56859000D01*
X120350000Y-58040000D01*
X121656000Y-58040000D01*
X121858000Y-57838000D01*
X121861910Y-57465000D01*
X121846309Y-57306604D01*
X121800107Y-57154295D01*
X121727144Y-57017791D01*
X124140000Y-57017791D01*
X124140000Y-57382209D01*
X124211095Y-57739625D01*
X124350552Y-58076303D01*
X124553011Y-58379306D01*
X124810694Y-58636989D01*
X125113697Y-58839448D01*
X125450375Y-58978905D01*
X125807791Y-59050000D01*
X126172209Y-59050000D01*
X126529625Y-58978905D01*
X126866303Y-58839448D01*
X127169306Y-58636989D01*
X127426989Y-58379306D01*
X127629448Y-58076303D01*
X127768905Y-57739625D01*
X127840000Y-57382209D01*
X127840000Y-57017791D01*
X127768905Y-56660375D01*
X127629448Y-56323697D01*
X127526273Y-56169283D01*
X127615078Y-56061073D01*
X127690107Y-55920705D01*
X127736309Y-55768396D01*
X127751910Y-55610000D01*
X127748000Y-54912000D01*
X127546000Y-54710000D01*
X126040000Y-54710000D01*
X126040000Y-54730000D01*
X125940000Y-54730000D01*
X125940000Y-54710000D01*
X124434000Y-54710000D01*
X124232000Y-54912000D01*
X124228090Y-55610000D01*
X124243691Y-55768396D01*
X124289893Y-55920705D01*
X124364922Y-56061073D01*
X124453727Y-56169283D01*
X124350552Y-56323697D01*
X124211095Y-56660375D01*
X124140000Y-57017791D01*
X121727144Y-57017791D01*
X121725078Y-57013927D01*
X121624107Y-56890893D01*
X121501073Y-56789922D01*
X121360705Y-56714893D01*
X121208396Y-56668691D01*
X121050000Y-56653090D01*
X120552000Y-56657000D01*
X120350000Y-56859000D01*
X120250000Y-56859000D01*
X120048000Y-56657000D01*
X119550000Y-56653090D01*
X119391604Y-56668691D01*
X119276807Y-56703514D01*
X119364366Y-56596823D01*
X119480437Y-56379669D01*
X119551913Y-56144043D01*
X119570000Y-55960405D01*
X119570000Y-55960399D01*
X119576047Y-55899001D01*
X119570000Y-55837603D01*
X119570000Y-52087399D01*
X119576047Y-52026001D01*
X119570000Y-51964603D01*
X119570000Y-51774354D01*
X121040000Y-51774354D01*
X121216431Y-51756977D01*
X121235646Y-51751148D01*
X121235646Y-51820000D01*
X121253023Y-51996431D01*
X121304486Y-52166081D01*
X121388057Y-52322432D01*
X121500525Y-52459475D01*
X121637568Y-52571943D01*
X121793919Y-52655514D01*
X121844356Y-52670814D01*
X121767801Y-52855635D01*
X121714000Y-53126112D01*
X121714000Y-53401888D01*
X121767801Y-53672365D01*
X121873336Y-53927149D01*
X122026549Y-54156448D01*
X122221552Y-54351451D01*
X122450851Y-54504664D01*
X122705635Y-54610199D01*
X122976112Y-54664000D01*
X123251888Y-54664000D01*
X123522365Y-54610199D01*
X123777149Y-54504664D01*
X124006448Y-54351451D01*
X124201451Y-54156448D01*
X124230349Y-54113200D01*
X124232000Y-54408000D01*
X124434000Y-54610000D01*
X125940000Y-54610000D01*
X125940000Y-53104000D01*
X126040000Y-53104000D01*
X126040000Y-54610000D01*
X127546000Y-54610000D01*
X127748000Y-54408000D01*
X127751910Y-53710000D01*
X127736309Y-53551604D01*
X127690107Y-53399295D01*
X127615078Y-53258927D01*
X127514107Y-53135893D01*
X127391073Y-53034922D01*
X127250705Y-52959893D01*
X127098396Y-52913691D01*
X126940000Y-52898090D01*
X126242000Y-52902000D01*
X126040000Y-53104000D01*
X125940000Y-53104000D01*
X125738000Y-52902000D01*
X125040000Y-52898090D01*
X124881604Y-52913691D01*
X124729295Y-52959893D01*
X124588927Y-53034922D01*
X124508922Y-53100581D01*
X124460199Y-52855635D01*
X124364000Y-52623390D01*
X124364000Y-52554243D01*
X124479475Y-52459475D01*
X124591943Y-52322432D01*
X124675514Y-52166081D01*
X124726977Y-51996431D01*
X124744354Y-51820000D01*
X124744354Y-51020000D01*
X124726977Y-50843569D01*
X124675514Y-50673919D01*
X124591943Y-50517568D01*
X124552905Y-50470000D01*
X124591943Y-50422432D01*
X124675514Y-50266081D01*
X124726977Y-50096431D01*
X124744354Y-49920000D01*
X124744354Y-49120000D01*
X124726977Y-48943569D01*
X124675514Y-48773919D01*
X124591943Y-48617568D01*
X124479475Y-48480525D01*
X124342432Y-48368057D01*
X124186081Y-48284486D01*
X124033708Y-48238264D01*
X123970380Y-48119785D01*
X123842291Y-47963709D01*
X123803175Y-47931607D01*
X123366396Y-47494829D01*
X123334291Y-47455709D01*
X123178215Y-47327620D01*
X123000148Y-47232442D01*
X122806935Y-47173831D01*
X122656351Y-47159000D01*
X122656350Y-47159000D01*
X122606000Y-47154041D01*
X122555650Y-47159000D01*
X106012568Y-47159000D01*
X105086396Y-46232829D01*
X105054291Y-46193709D01*
X105015171Y-46161604D01*
X105007180Y-46153613D01*
X104890214Y-46057621D01*
X104712148Y-45962443D01*
X104518934Y-45903831D01*
X104318000Y-45884041D01*
X104186423Y-45897000D01*
X100820342Y-45897000D01*
X100769999Y-45892042D01*
X100719656Y-45897000D01*
X100719649Y-45897000D01*
X100587665Y-45909999D01*
X100569064Y-45911831D01*
X100510453Y-45929611D01*
X100375852Y-45970442D01*
X100197785Y-46065620D01*
X100104353Y-46142298D01*
X99874804Y-46187958D01*
X99638219Y-46285955D01*
X99425298Y-46428224D01*
X99244224Y-46609298D01*
X99101955Y-46822219D01*
X99003958Y-47058804D01*
X98954000Y-47309961D01*
X98954000Y-47566039D01*
X99003958Y-47817196D01*
X99101955Y-48053781D01*
X99244224Y-48266702D01*
X99425298Y-48447776D01*
X99566661Y-48542231D01*
X99544907Y-48568738D01*
X99393149Y-48467336D01*
X99138365Y-48361801D01*
X98867888Y-48308000D01*
X98592112Y-48308000D01*
X98321635Y-48361801D01*
X98089390Y-48458000D01*
X94981397Y-48458000D01*
X94919999Y-48451953D01*
X94858601Y-48458000D01*
X94858595Y-48458000D01*
X94700538Y-48473567D01*
X94674956Y-48476087D01*
X94625584Y-48491064D01*
X94439331Y-48547563D01*
X94222177Y-48663634D01*
X94031840Y-48819840D01*
X93992696Y-48867538D01*
X92729538Y-50130696D01*
X92681841Y-50169840D01*
X92525635Y-50360177D01*
X92484013Y-50438047D01*
X92409563Y-50577332D01*
X92338087Y-50812958D01*
X92313953Y-51058000D01*
X92320001Y-51119407D01*
X92320001Y-51156125D01*
X92161431Y-51108023D01*
X91985000Y-51090646D01*
X91910666Y-51090646D01*
X91916048Y-51036000D01*
X91891913Y-50790957D01*
X91820437Y-50555331D01*
X91817566Y-50549959D01*
X91704366Y-50338177D01*
X91548160Y-50147840D01*
X91500458Y-50108692D01*
X91021309Y-49629543D01*
X90982160Y-49581840D01*
X90791823Y-49425634D01*
X90574669Y-49309563D01*
X90339043Y-49238087D01*
X90155405Y-49220000D01*
X90155398Y-49220000D01*
X90094000Y-49213953D01*
X90032602Y-49220000D01*
X87940610Y-49220000D01*
X87708365Y-49123801D01*
X87437888Y-49070000D01*
X87162112Y-49070000D01*
X86891635Y-49123801D01*
X86636851Y-49229336D01*
X86407552Y-49382549D01*
X86212549Y-49577552D01*
X86160210Y-49655883D01*
X86150514Y-49623919D01*
X86066943Y-49467568D01*
X85954475Y-49330525D01*
X85865000Y-49257095D01*
X85865000Y-49243398D01*
X85871047Y-49182000D01*
X85865000Y-49120602D01*
X85865000Y-49120595D01*
X85846913Y-48936957D01*
X85775437Y-48701331D01*
X85659366Y-48484177D01*
X85503160Y-48293840D01*
X85455457Y-48254691D01*
X84798309Y-47597543D01*
X84759160Y-47549840D01*
X84568823Y-47393634D01*
X84351669Y-47277563D01*
X84116043Y-47206087D01*
X83932405Y-47188000D01*
X83932398Y-47188000D01*
X83871000Y-47181953D01*
X83809602Y-47188000D01*
X74915405Y-47188000D01*
X74854000Y-47181952D01*
X74792595Y-47188000D01*
X74608957Y-47206087D01*
X74373331Y-47277563D01*
X74156177Y-47393634D01*
X73965840Y-47549840D01*
X73926691Y-47597543D01*
X73251538Y-48272696D01*
X73203841Y-48311840D01*
X73047635Y-48502177D01*
X72931563Y-48719331D01*
X72860087Y-48954957D01*
X72842000Y-49138595D01*
X72842000Y-49138602D01*
X72835953Y-49200000D01*
X72841862Y-49260000D01*
X69628243Y-49260000D01*
X69626943Y-49257568D01*
X69514475Y-49120525D01*
X69377432Y-49008057D01*
X69221081Y-48924486D01*
X69051431Y-48873023D01*
X68875000Y-48855646D01*
X67625000Y-48855646D01*
X67448569Y-48873023D01*
X67278919Y-48924486D01*
X67122568Y-49008057D01*
X66985525Y-49120525D01*
X66873057Y-49257568D01*
X66789486Y-49413919D01*
X66738023Y-49583569D01*
X66720646Y-49760000D01*
X66720646Y-51260000D01*
X66738023Y-51436431D01*
X66789486Y-51606081D01*
X66873057Y-51762432D01*
X66934655Y-51837489D01*
X66874893Y-51949295D01*
X66828691Y-52101604D01*
X66813090Y-52260000D01*
X66817000Y-52758000D01*
X67019000Y-52960000D01*
X68200000Y-52960000D01*
X68200000Y-52940000D01*
X68300000Y-52940000D01*
X68300000Y-52960000D01*
X69481000Y-52960000D01*
X69683000Y-52758000D01*
X69686910Y-52260000D01*
X69671309Y-52101604D01*
X69625107Y-51949295D01*
X69565345Y-51837489D01*
X69626943Y-51762432D01*
X69628243Y-51760000D01*
X72842001Y-51760000D01*
X72842000Y-52623390D01*
X72745801Y-52855635D01*
X72692000Y-53126112D01*
X72692000Y-53401888D01*
X72745801Y-53672365D01*
X72851336Y-53927149D01*
X73004549Y-54156448D01*
X73199552Y-54351451D01*
X73428851Y-54504664D01*
X73683635Y-54610199D01*
X73954112Y-54664000D01*
X74229888Y-54664000D01*
X74500365Y-54610199D01*
X74755149Y-54504664D01*
X74765001Y-54498081D01*
X74765001Y-55419640D01*
X74760041Y-55470000D01*
X74779831Y-55670934D01*
X74828488Y-55831332D01*
X74838443Y-55864148D01*
X74933621Y-56042215D01*
X75061710Y-56198291D01*
X75100824Y-56230391D01*
X75871612Y-57001181D01*
X75903709Y-57040291D01*
X76059785Y-57168380D01*
X76237852Y-57263558D01*
X76404271Y-57314041D01*
X76431065Y-57322169D01*
X76632000Y-57341959D01*
X76682351Y-57337000D01*
X79128082Y-57337000D01*
X79318219Y-57464045D01*
X79554804Y-57562042D01*
X79805961Y-57612000D01*
X80062039Y-57612000D01*
X80313196Y-57562042D01*
X80549781Y-57464045D01*
X80762702Y-57321776D01*
X80943776Y-57140702D01*
X81086045Y-56927781D01*
X81184042Y-56691196D01*
X81234000Y-56440039D01*
X81234000Y-56183961D01*
X81184042Y-55932804D01*
X81086045Y-55696219D01*
X80943776Y-55483298D01*
X80762702Y-55302224D01*
X80549781Y-55159955D01*
X80313196Y-55061958D01*
X80062039Y-55012000D01*
X79805961Y-55012000D01*
X79554804Y-55061958D01*
X79318219Y-55159955D01*
X79128082Y-55287000D01*
X77056568Y-55287000D01*
X76815000Y-55045432D01*
X76815000Y-51977076D01*
X76886081Y-51955514D01*
X77042432Y-51871943D01*
X77140000Y-51791871D01*
X77237568Y-51871943D01*
X77393919Y-51955514D01*
X77563569Y-52006977D01*
X77740000Y-52024354D01*
X79240000Y-52024354D01*
X79416431Y-52006977D01*
X79586081Y-51955514D01*
X79742432Y-51871943D01*
X79879475Y-51759475D01*
X79991943Y-51622432D01*
X80060057Y-51495000D01*
X80931578Y-51495000D01*
X81025525Y-51609475D01*
X81162568Y-51721943D01*
X81318919Y-51805514D01*
X81488569Y-51856977D01*
X81665000Y-51874354D01*
X83065000Y-51874354D01*
X83241431Y-51856977D01*
X83411081Y-51805514D01*
X83490000Y-51763331D01*
X83568919Y-51805514D01*
X83738569Y-51856977D01*
X83915000Y-51874354D01*
X84262529Y-51874354D01*
X84250646Y-51995000D01*
X84250646Y-54025000D01*
X84268023Y-54201431D01*
X84319486Y-54371081D01*
X84403057Y-54527432D01*
X84515525Y-54664475D01*
X84652568Y-54776943D01*
X84808919Y-54860514D01*
X84978569Y-54911977D01*
X85155000Y-54929354D01*
X85230000Y-54929354D01*
X85230000Y-55598234D01*
X85189538Y-55638696D01*
X85141841Y-55677840D01*
X84985635Y-55868177D01*
X84926112Y-55979537D01*
X84869563Y-56085332D01*
X84823966Y-56235646D01*
X84800711Y-56312306D01*
X84786081Y-56304486D01*
X84616431Y-56253023D01*
X84440000Y-56235646D01*
X82540000Y-56235646D01*
X82363569Y-56253023D01*
X82193919Y-56304486D01*
X82037568Y-56388057D01*
X81900525Y-56500525D01*
X81788057Y-56637568D01*
X81704486Y-56793919D01*
X81653023Y-56963569D01*
X81635646Y-57140000D01*
X81635646Y-59040000D01*
X81651405Y-59200000D01*
X58475000Y-59200000D01*
X58475000Y-53760000D01*
X66813090Y-53760000D01*
X66828691Y-53918396D01*
X66874893Y-54070705D01*
X66949922Y-54211073D01*
X67050893Y-54334107D01*
X67173927Y-54435078D01*
X67314295Y-54510107D01*
X67466604Y-54556309D01*
X67625000Y-54571910D01*
X67998000Y-54568000D01*
X68200000Y-54366000D01*
X68200000Y-53060000D01*
X68300000Y-53060000D01*
X68300000Y-54366000D01*
X68502000Y-54568000D01*
X68875000Y-54571910D01*
X69033396Y-54556309D01*
X69185705Y-54510107D01*
X69326073Y-54435078D01*
X69449107Y-54334107D01*
X69550078Y-54211073D01*
X69625107Y-54070705D01*
X69671309Y-53918396D01*
X69686910Y-53760000D01*
X69683000Y-53262000D01*
X69481000Y-53060000D01*
X68300000Y-53060000D01*
X68200000Y-53060000D01*
X67019000Y-53060000D01*
X66817000Y-53262000D01*
X66813090Y-53760000D01*
X58475000Y-53760000D01*
X58475000Y-45475000D01*
X129025000Y-45475000D01*
X129025001Y-59200000D01*
G36*
X104333518Y-49273190D02*
G01*
X104365616Y-49312301D01*
X104521692Y-49440390D01*
X104699759Y-49535568D01*
X104834360Y-49576399D01*
X104892971Y-49594179D01*
X104911572Y-49596011D01*
X105043556Y-49609010D01*
X105043563Y-49609010D01*
X105093906Y-49613968D01*
X105144249Y-49609010D01*
X111462307Y-49609010D01*
X111547955Y-49815781D01*
X111690224Y-50028702D01*
X111871298Y-50209776D01*
X112084219Y-50352045D01*
X112320804Y-50450042D01*
X112571961Y-50500000D01*
X112828039Y-50500000D01*
X113079196Y-50450042D01*
X113315781Y-50352045D01*
X113528702Y-50209776D01*
X113709776Y-50028702D01*
X113852045Y-49815781D01*
X113950042Y-49579196D01*
X114000000Y-49328039D01*
X114000000Y-49209000D01*
X119077935Y-49209000D01*
X119041673Y-49220000D01*
X118701397Y-49220000D01*
X118639999Y-49213953D01*
X118578601Y-49220000D01*
X118578595Y-49220000D01*
X118420538Y-49235567D01*
X118394956Y-49238087D01*
X118350470Y-49251582D01*
X118159331Y-49309563D01*
X117942177Y-49425634D01*
X117751840Y-49581840D01*
X117712691Y-49629543D01*
X117479538Y-49862696D01*
X117431841Y-49901840D01*
X117275635Y-50092177D01*
X117159563Y-50309331D01*
X117088087Y-50544957D01*
X117070000Y-50728595D01*
X117070000Y-50728602D01*
X117063953Y-50790000D01*
X117065923Y-50810000D01*
X115044207Y-50810000D01*
X115000000Y-50805646D01*
X113400000Y-50805646D01*
X113223569Y-50823023D01*
X113053919Y-50874486D01*
X112897568Y-50958057D01*
X112760525Y-51070525D01*
X112700000Y-51144275D01*
X112639475Y-51070525D01*
X112502432Y-50958057D01*
X112346081Y-50874486D01*
X112176431Y-50823023D01*
X112000000Y-50805646D01*
X110400000Y-50805646D01*
X110355793Y-50810000D01*
X110340610Y-50810000D01*
X110108365Y-50713801D01*
X109837888Y-50660000D01*
X109562112Y-50660000D01*
X109291635Y-50713801D01*
X109036851Y-50819336D01*
X108807552Y-50972549D01*
X108612549Y-51167552D01*
X108459336Y-51396851D01*
X108353801Y-51651635D01*
X108300000Y-51922112D01*
X108300000Y-52197888D01*
X108353801Y-52468365D01*
X108459336Y-52723149D01*
X108612549Y-52952448D01*
X108807552Y-53147451D01*
X109036851Y-53300664D01*
X109291635Y-53406199D01*
X109562112Y-53460000D01*
X109602864Y-53460000D01*
X109588090Y-53610000D01*
X109592000Y-53708000D01*
X109794000Y-53910000D01*
X111150000Y-53910000D01*
X111150000Y-53890000D01*
X111250000Y-53890000D01*
X111250000Y-53910000D01*
X111270000Y-53910000D01*
X111270000Y-54010000D01*
X111250000Y-54010000D01*
X111250000Y-54030000D01*
X111150000Y-54030000D01*
X111150000Y-54010000D01*
X109794000Y-54010000D01*
X109592000Y-54212000D01*
X109588489Y-54300000D01*
X107771871Y-54300000D01*
X107739475Y-54260525D01*
X107602432Y-54148057D01*
X107446081Y-54064486D01*
X107276431Y-54013023D01*
X107100000Y-53995646D01*
X105600000Y-53995646D01*
X105423569Y-54013023D01*
X105253919Y-54064486D01*
X105097568Y-54148057D01*
X105000000Y-54228129D01*
X104902432Y-54148057D01*
X104746081Y-54064486D01*
X104576431Y-54013023D01*
X104400000Y-53995646D01*
X102900000Y-53995646D01*
X102723569Y-54013023D01*
X102567421Y-54060390D01*
X102574354Y-53990000D01*
X102574354Y-52290000D01*
X102556977Y-52113569D01*
X102522323Y-51999329D01*
X102620000Y-52001910D01*
X102778396Y-51986309D01*
X102930705Y-51940107D01*
X103071073Y-51865078D01*
X103194107Y-51764107D01*
X103295078Y-51641073D01*
X103370107Y-51500705D01*
X103416309Y-51348396D01*
X103431910Y-51190000D01*
X103428000Y-50592000D01*
X103226000Y-50390000D01*
X102270000Y-50390000D01*
X102270000Y-50410000D01*
X102170000Y-50410000D01*
X102170000Y-50390000D01*
X102150000Y-50390000D01*
X102150000Y-50290000D01*
X102170000Y-50290000D01*
X102170000Y-50270000D01*
X102270000Y-50270000D01*
X102270000Y-50290000D01*
X103226000Y-50290000D01*
X103428000Y-50088000D01*
X103431910Y-49490000D01*
X103416309Y-49331604D01*
X103370107Y-49179295D01*
X103295078Y-49038927D01*
X103194107Y-48915893D01*
X103071073Y-48814922D01*
X102930705Y-48739893D01*
X102778396Y-48693691D01*
X102620000Y-48678090D01*
X102472000Y-48682000D01*
X102270002Y-48883998D01*
X102270002Y-48739566D01*
X102425579Y-48583990D01*
X103644319Y-48583990D01*
X104333518Y-49273190D01*
X104333518Y-49273190D01*
G37*
X104333518Y-49273190D02*
X104365616Y-49312301D01*
X104521692Y-49440390D01*
X104699759Y-49535568D01*
X104834360Y-49576399D01*
X104892971Y-49594179D01*
X104911572Y-49596011D01*
X105043556Y-49609010D01*
X105043563Y-49609010D01*
X105093906Y-49613968D01*
X105144249Y-49609010D01*
X111462307Y-49609010D01*
X111547955Y-49815781D01*
X111690224Y-50028702D01*
X111871298Y-50209776D01*
X112084219Y-50352045D01*
X112320804Y-50450042D01*
X112571961Y-50500000D01*
X112828039Y-50500000D01*
X113079196Y-50450042D01*
X113315781Y-50352045D01*
X113528702Y-50209776D01*
X113709776Y-50028702D01*
X113852045Y-49815781D01*
X113950042Y-49579196D01*
X114000000Y-49328039D01*
X114000000Y-49209000D01*
X119077935Y-49209000D01*
X119041673Y-49220000D01*
X118701397Y-49220000D01*
X118639999Y-49213953D01*
X118578601Y-49220000D01*
X118578595Y-49220000D01*
X118420538Y-49235567D01*
X118394956Y-49238087D01*
X118350470Y-49251582D01*
X118159331Y-49309563D01*
X117942177Y-49425634D01*
X117751840Y-49581840D01*
X117712691Y-49629543D01*
X117479538Y-49862696D01*
X117431841Y-49901840D01*
X117275635Y-50092177D01*
X117159563Y-50309331D01*
X117088087Y-50544957D01*
X117070000Y-50728595D01*
X117070000Y-50728602D01*
X117063953Y-50790000D01*
X117065923Y-50810000D01*
X115044207Y-50810000D01*
X115000000Y-50805646D01*
X113400000Y-50805646D01*
X113223569Y-50823023D01*
X113053919Y-50874486D01*
X112897568Y-50958057D01*
X112760525Y-51070525D01*
X112700000Y-51144275D01*
X112639475Y-51070525D01*
X112502432Y-50958057D01*
X112346081Y-50874486D01*
X112176431Y-50823023D01*
X112000000Y-50805646D01*
X110400000Y-50805646D01*
X110355793Y-50810000D01*
X110340610Y-50810000D01*
X110108365Y-50713801D01*
X109837888Y-50660000D01*
X109562112Y-50660000D01*
X109291635Y-50713801D01*
X109036851Y-50819336D01*
X108807552Y-50972549D01*
X108612549Y-51167552D01*
X108459336Y-51396851D01*
X108353801Y-51651635D01*
X108300000Y-51922112D01*
X108300000Y-52197888D01*
X108353801Y-52468365D01*
X108459336Y-52723149D01*
X108612549Y-52952448D01*
X108807552Y-53147451D01*
X109036851Y-53300664D01*
X109291635Y-53406199D01*
X109562112Y-53460000D01*
X109602864Y-53460000D01*
X109588090Y-53610000D01*
X109592000Y-53708000D01*
X109794000Y-53910000D01*
X111150000Y-53910000D01*
X111150000Y-53890000D01*
X111250000Y-53890000D01*
X111250000Y-53910000D01*
X111270000Y-53910000D01*
X111270000Y-54010000D01*
X111250000Y-54010000D01*
X111250000Y-54030000D01*
X111150000Y-54030000D01*
X111150000Y-54010000D01*
X109794000Y-54010000D01*
X109592000Y-54212000D01*
X109588489Y-54300000D01*
X107771871Y-54300000D01*
X107739475Y-54260525D01*
X107602432Y-54148057D01*
X107446081Y-54064486D01*
X107276431Y-54013023D01*
X107100000Y-53995646D01*
X105600000Y-53995646D01*
X105423569Y-54013023D01*
X105253919Y-54064486D01*
X105097568Y-54148057D01*
X105000000Y-54228129D01*
X104902432Y-54148057D01*
X104746081Y-54064486D01*
X104576431Y-54013023D01*
X104400000Y-53995646D01*
X102900000Y-53995646D01*
X102723569Y-54013023D01*
X102567421Y-54060390D01*
X102574354Y-53990000D01*
X102574354Y-52290000D01*
X102556977Y-52113569D01*
X102522323Y-51999329D01*
X102620000Y-52001910D01*
X102778396Y-51986309D01*
X102930705Y-51940107D01*
X103071073Y-51865078D01*
X103194107Y-51764107D01*
X103295078Y-51641073D01*
X103370107Y-51500705D01*
X103416309Y-51348396D01*
X103431910Y-51190000D01*
X103428000Y-50592000D01*
X103226000Y-50390000D01*
X102270000Y-50390000D01*
X102270000Y-50410000D01*
X102170000Y-50410000D01*
X102170000Y-50390000D01*
X102150000Y-50390000D01*
X102150000Y-50290000D01*
X102170000Y-50290000D01*
X102170000Y-50270000D01*
X102270000Y-50270000D01*
X102270000Y-50290000D01*
X103226000Y-50290000D01*
X103428000Y-50088000D01*
X103431910Y-49490000D01*
X103416309Y-49331604D01*
X103370107Y-49179295D01*
X103295078Y-49038927D01*
X103194107Y-48915893D01*
X103071073Y-48814922D01*
X102930705Y-48739893D01*
X102778396Y-48693691D01*
X102620000Y-48678090D01*
X102472000Y-48682000D01*
X102270002Y-48883998D01*
X102270002Y-48739566D01*
X102425579Y-48583990D01*
X103644319Y-48583990D01*
X104333518Y-49273190D01*
G36*
X102169998Y-48883998D02*
G01*
X102147784Y-48861784D01*
X102169998Y-48839570D01*
X102169998Y-48883998D01*
X102169998Y-48883998D01*
G37*
X102169998Y-48883998D02*
X102147784Y-48861784D01*
X102169998Y-48839570D01*
X102169998Y-48883998D01*
D30*
G36*
X86313501Y-60729776D02*
G01*
X86400794Y-60940519D01*
X86419001Y-60967768D01*
X86419000Y-68219755D01*
X86218393Y-68259659D01*
X86025849Y-68339413D01*
X85852564Y-68455198D01*
X85711764Y-68595998D01*
X85708802Y-68591564D01*
X85561436Y-68444198D01*
X85388151Y-68328413D01*
X85195607Y-68248659D01*
X84991204Y-68208000D01*
X84782796Y-68208000D01*
X84578393Y-68248659D01*
X84385849Y-68328413D01*
X84212564Y-68444198D01*
X84065198Y-68591564D01*
X83949413Y-68764849D01*
X83869659Y-68957393D01*
X83829000Y-69161796D01*
X83829000Y-69370204D01*
X83869659Y-69574607D01*
X83934853Y-69732000D01*
X83893796Y-69732000D01*
X83689393Y-69772659D01*
X83496849Y-69852413D01*
X83323564Y-69968198D01*
X83176198Y-70115564D01*
X83060413Y-70288849D01*
X82980659Y-70481393D01*
X82940000Y-70685796D01*
X82940000Y-70894204D01*
X82980659Y-71098607D01*
X83060413Y-71291151D01*
X83176198Y-71464436D01*
X83215000Y-71503238D01*
X83215001Y-73886761D01*
X83176198Y-73925564D01*
X83060413Y-74098849D01*
X82980659Y-74291393D01*
X82940000Y-74495796D01*
X82940000Y-74558000D01*
X82877796Y-74558000D01*
X82673393Y-74598659D01*
X82480849Y-74678413D01*
X82307564Y-74794198D01*
X82160198Y-74941564D01*
X82044413Y-75114849D01*
X81964659Y-75307393D01*
X81924000Y-75511796D01*
X81924000Y-75720204D01*
X81964659Y-75924607D01*
X82042518Y-76112576D01*
X81911393Y-76138659D01*
X81718849Y-76218413D01*
X81545564Y-76334198D01*
X81398198Y-76481564D01*
X81282413Y-76654849D01*
X81202659Y-76847393D01*
X81162000Y-77051796D01*
X81162000Y-77260204D01*
X81202659Y-77464607D01*
X81282413Y-77657151D01*
X81398198Y-77830436D01*
X81437000Y-77869238D01*
X81437000Y-78924762D01*
X81370436Y-78858198D01*
X81197151Y-78742413D01*
X81004607Y-78662659D01*
X80800204Y-78622000D01*
X80591796Y-78622000D01*
X80387393Y-78662659D01*
X80194849Y-78742413D01*
X80021564Y-78858198D01*
X79874198Y-79005564D01*
X79758413Y-79178849D01*
X79678659Y-79371393D01*
X79669821Y-79415821D01*
X79625393Y-79424659D01*
X79432849Y-79504413D01*
X79259564Y-79620198D01*
X79112198Y-79767564D01*
X78996413Y-79940849D01*
X78916659Y-80133393D01*
X78876000Y-80337796D01*
X78876000Y-80546204D01*
X78916659Y-80750607D01*
X78996413Y-80943151D01*
X79112198Y-81116436D01*
X79151000Y-81155238D01*
X79151001Y-87602761D01*
X79112198Y-87641564D01*
X78996413Y-87814849D01*
X78916659Y-88007393D01*
X78876000Y-88211796D01*
X78876000Y-88420204D01*
X78916659Y-88624607D01*
X78996413Y-88817151D01*
X79112198Y-88990436D01*
X79259564Y-89137802D01*
X79432849Y-89253587D01*
X79625393Y-89333341D01*
X79829796Y-89374000D01*
X80038204Y-89374000D01*
X80242607Y-89333341D01*
X80435151Y-89253587D01*
X80608436Y-89137802D01*
X80755802Y-88990436D01*
X80871587Y-88817151D01*
X80951341Y-88624607D01*
X80960179Y-88580179D01*
X81004607Y-88571341D01*
X81197151Y-88491587D01*
X81370436Y-88375802D01*
X81417500Y-88328738D01*
X81437000Y-88348238D01*
X81437000Y-89435000D01*
X68211414Y-89435000D01*
X68171587Y-89338849D01*
X68055802Y-89165564D01*
X68017000Y-89126762D01*
X68017000Y-85410000D01*
X70568816Y-85410000D01*
X70581520Y-85538991D01*
X70619146Y-85663024D01*
X70680246Y-85777334D01*
X70762472Y-85877528D01*
X70862666Y-85959754D01*
X70976976Y-86020854D01*
X71101009Y-86058480D01*
X71230000Y-86071184D01*
X71711500Y-86068000D01*
X71876000Y-85903500D01*
X71876000Y-84864000D01*
X70736500Y-84864000D01*
X70572000Y-85028500D01*
X70568816Y-85410000D01*
X68017000Y-85410000D01*
X68017000Y-84110000D01*
X70568816Y-84110000D01*
X70572000Y-84491500D01*
X70736500Y-84656000D01*
X71876000Y-84656000D01*
X71876000Y-83616500D01*
X72084000Y-83616500D01*
X72084000Y-84656000D01*
X72104000Y-84656000D01*
X72104000Y-84864000D01*
X72084000Y-84864000D01*
X72084000Y-85903500D01*
X72248500Y-86068000D01*
X72730000Y-86071184D01*
X72858991Y-86058480D01*
X72983024Y-86020854D01*
X73097334Y-85959754D01*
X73197528Y-85877528D01*
X73279754Y-85777334D01*
X73330000Y-85683330D01*
X73380246Y-85777334D01*
X73462473Y-85877527D01*
X73562666Y-85959754D01*
X73676976Y-86020853D01*
X73801010Y-86058479D01*
X73930000Y-86071183D01*
X75430000Y-86071183D01*
X75558990Y-86058479D01*
X75683024Y-86020853D01*
X75797334Y-85959754D01*
X75897527Y-85877527D01*
X75979754Y-85777334D01*
X76040853Y-85663024D01*
X76047303Y-85641763D01*
X76130849Y-85697587D01*
X76323393Y-85777341D01*
X76527796Y-85818000D01*
X76736204Y-85818000D01*
X76940607Y-85777341D01*
X77133151Y-85697587D01*
X77306436Y-85581802D01*
X77453802Y-85434436D01*
X77569587Y-85261151D01*
X77649341Y-85068607D01*
X77690000Y-84864204D01*
X77690000Y-84655796D01*
X77649341Y-84451393D01*
X77569587Y-84258849D01*
X77453802Y-84085564D01*
X77306436Y-83938198D01*
X77133151Y-83822413D01*
X76940607Y-83742659D01*
X76736204Y-83702000D01*
X76527796Y-83702000D01*
X76323393Y-83742659D01*
X76130849Y-83822413D01*
X76047303Y-83878237D01*
X76040853Y-83856976D01*
X75979754Y-83742666D01*
X75897527Y-83642473D01*
X75797334Y-83560246D01*
X75683024Y-83499147D01*
X75558990Y-83461521D01*
X75430000Y-83448817D01*
X73930000Y-83448817D01*
X73801010Y-83461521D01*
X73676976Y-83499147D01*
X73562666Y-83560246D01*
X73462473Y-83642473D01*
X73380246Y-83742666D01*
X73330000Y-83836670D01*
X73279754Y-83742666D01*
X73197528Y-83642472D01*
X73097334Y-83560246D01*
X72983024Y-83499146D01*
X72858991Y-83461520D01*
X72730000Y-83448816D01*
X72248500Y-83452000D01*
X72084000Y-83616500D01*
X71876000Y-83616500D01*
X71711500Y-83452000D01*
X71230000Y-83448816D01*
X71101009Y-83461520D01*
X70976976Y-83499146D01*
X70862666Y-83560246D01*
X70762472Y-83642472D01*
X70680246Y-83742666D01*
X70619146Y-83856976D01*
X70581520Y-83981009D01*
X70568816Y-84110000D01*
X68017000Y-84110000D01*
X68017000Y-82008000D01*
X68100204Y-82008000D01*
X68304607Y-81967341D01*
X68497151Y-81887587D01*
X68670436Y-81771802D01*
X68817802Y-81624436D01*
X68933587Y-81451151D01*
X69013341Y-81258607D01*
X69054000Y-81054204D01*
X69054000Y-80845796D01*
X69013341Y-80641393D01*
X68933587Y-80448849D01*
X68817802Y-80275564D01*
X68779000Y-80236762D01*
X68779000Y-78305796D01*
X70494000Y-78305796D01*
X70494000Y-78514204D01*
X70534659Y-78718607D01*
X70614413Y-78911151D01*
X70730198Y-79084436D01*
X70877564Y-79231802D01*
X71050849Y-79347587D01*
X71243393Y-79427341D01*
X71447796Y-79468000D01*
X71656204Y-79468000D01*
X71860607Y-79427341D01*
X72053151Y-79347587D01*
X72226436Y-79231802D01*
X72373802Y-79084436D01*
X72489587Y-78911151D01*
X72569341Y-78718607D01*
X72588510Y-78622239D01*
X72673696Y-78537053D01*
X72707396Y-78509396D01*
X72817740Y-78374942D01*
X72891523Y-78236902D01*
X72899732Y-78221545D01*
X72950223Y-78055099D01*
X72967272Y-77882000D01*
X72963000Y-77838627D01*
X72963000Y-77142263D01*
X73083024Y-77105853D01*
X73197334Y-77044754D01*
X73297527Y-76962527D01*
X73329999Y-76922960D01*
X73362472Y-76962528D01*
X73462666Y-77044754D01*
X73576976Y-77105854D01*
X73701009Y-77143480D01*
X73830000Y-77156184D01*
X74311500Y-77153000D01*
X74476000Y-76988500D01*
X74476000Y-75974000D01*
X74684000Y-75974000D01*
X74684000Y-76988500D01*
X74848500Y-77153000D01*
X75330000Y-77156184D01*
X75458991Y-77143480D01*
X75583024Y-77105854D01*
X75697334Y-77044754D01*
X75797528Y-76962528D01*
X75879754Y-76862334D01*
X75940854Y-76748024D01*
X75978480Y-76623991D01*
X75991184Y-76495000D01*
X75988000Y-76138500D01*
X75823500Y-75974000D01*
X74684000Y-75974000D01*
X74476000Y-75974000D01*
X74456000Y-75974000D01*
X74456000Y-75766000D01*
X74476000Y-75766000D01*
X74476000Y-74751500D01*
X74684000Y-74751500D01*
X74684000Y-75766000D01*
X75823500Y-75766000D01*
X75988000Y-75601500D01*
X75991184Y-75245000D01*
X75978480Y-75116009D01*
X75940854Y-74991976D01*
X75879754Y-74877666D01*
X75797528Y-74777472D01*
X75697334Y-74695246D01*
X75583024Y-74634146D01*
X75458991Y-74596520D01*
X75330000Y-74583816D01*
X74848500Y-74587000D01*
X74684000Y-74751500D01*
X74476000Y-74751500D01*
X74311500Y-74587000D01*
X73830000Y-74583816D01*
X73701009Y-74596520D01*
X73576976Y-74634146D01*
X73462666Y-74695246D01*
X73362472Y-74777472D01*
X73329999Y-74817040D01*
X73297527Y-74777473D01*
X73197334Y-74695246D01*
X73083024Y-74634147D01*
X72963000Y-74597737D01*
X72963000Y-73374914D01*
X72997587Y-73323151D01*
X73077341Y-73130607D01*
X73118000Y-72926204D01*
X73118000Y-72717796D01*
X73077341Y-72513393D01*
X72997587Y-72320849D01*
X72881802Y-72147564D01*
X72734436Y-72000198D01*
X72561151Y-71884413D01*
X72368607Y-71804659D01*
X72164204Y-71764000D01*
X71955796Y-71764000D01*
X71751393Y-71804659D01*
X71558849Y-71884413D01*
X71385564Y-72000198D01*
X71238198Y-72147564D01*
X71122413Y-72320849D01*
X71042659Y-72513393D01*
X71002000Y-72717796D01*
X71002000Y-72926204D01*
X71042659Y-73130607D01*
X71122413Y-73323151D01*
X71197001Y-73434780D01*
X71197000Y-74597737D01*
X71076976Y-74634147D01*
X70962666Y-74695246D01*
X70862473Y-74777473D01*
X70780246Y-74877666D01*
X70719147Y-74991976D01*
X70681521Y-75116010D01*
X70668817Y-75245000D01*
X70668817Y-76495000D01*
X70681521Y-76623990D01*
X70719147Y-76748024D01*
X70780246Y-76862334D01*
X70862473Y-76962527D01*
X70962666Y-77044754D01*
X71076976Y-77105853D01*
X71197001Y-77142263D01*
X71197001Y-77411875D01*
X71050849Y-77472413D01*
X70877564Y-77588198D01*
X70730198Y-77735564D01*
X70614413Y-77908849D01*
X70534659Y-78101393D01*
X70494000Y-78305796D01*
X68779000Y-78305796D01*
X68779000Y-73542222D01*
X68870000Y-73551184D01*
X69251500Y-73548000D01*
X69416000Y-73383500D01*
X69416000Y-72244000D01*
X69624000Y-72244000D01*
X69624000Y-73383500D01*
X69788500Y-73548000D01*
X70170000Y-73551184D01*
X70298991Y-73538480D01*
X70423024Y-73500854D01*
X70537334Y-73439754D01*
X70637528Y-73357528D01*
X70719754Y-73257334D01*
X70780854Y-73143024D01*
X70818480Y-73018991D01*
X70831184Y-72890000D01*
X70828000Y-72408500D01*
X70663500Y-72244000D01*
X69624000Y-72244000D01*
X69416000Y-72244000D01*
X69396000Y-72244000D01*
X69396000Y-72036000D01*
X69416000Y-72036000D01*
X69416000Y-72016000D01*
X69624000Y-72016000D01*
X69624000Y-72036000D01*
X70663500Y-72036000D01*
X70828000Y-71871500D01*
X70831184Y-71390000D01*
X70818480Y-71261009D01*
X70780854Y-71136976D01*
X70719754Y-71022666D01*
X70637528Y-70922472D01*
X70537334Y-70840246D01*
X70443330Y-70790000D01*
X70537334Y-70739754D01*
X70637527Y-70657527D01*
X70719754Y-70557334D01*
X70780853Y-70443024D01*
X70818479Y-70318990D01*
X70831183Y-70190000D01*
X70831183Y-68690000D01*
X70818479Y-68561010D01*
X70780853Y-68436976D01*
X70719754Y-68322666D01*
X70637527Y-68222473D01*
X70537334Y-68140246D01*
X70423024Y-68079147D01*
X70298990Y-68041521D01*
X70170000Y-68028817D01*
X70142949Y-68028817D01*
X70140021Y-68025249D01*
X70076343Y-67947657D01*
X70046464Y-67923136D01*
X69592864Y-67469536D01*
X69568343Y-67439657D01*
X69500277Y-67383796D01*
X75955000Y-67383796D01*
X75955000Y-67592204D01*
X75995659Y-67796607D01*
X76075413Y-67989151D01*
X76191198Y-68162436D01*
X76230001Y-68201239D01*
X76230000Y-68973550D01*
X76226213Y-69012000D01*
X76230000Y-69050450D01*
X76230000Y-69050459D01*
X76241330Y-69165494D01*
X76286103Y-69313090D01*
X76358810Y-69449115D01*
X76456657Y-69568343D01*
X76486536Y-69592864D01*
X78262001Y-71368330D01*
X78262000Y-76807762D01*
X78223198Y-76846564D01*
X78107413Y-77019849D01*
X78027659Y-77212393D01*
X77987000Y-77416796D01*
X77987000Y-77625204D01*
X78027659Y-77829607D01*
X78107413Y-78022151D01*
X78223198Y-78195436D01*
X78370564Y-78342802D01*
X78543849Y-78458587D01*
X78736393Y-78538341D01*
X78940796Y-78579000D01*
X79149204Y-78579000D01*
X79353607Y-78538341D01*
X79546151Y-78458587D01*
X79719436Y-78342802D01*
X79866802Y-78195436D01*
X79982587Y-78022151D01*
X80062341Y-77829607D01*
X80103000Y-77625204D01*
X80103000Y-77416796D01*
X80062341Y-77212393D01*
X79982587Y-77019849D01*
X79866802Y-76846564D01*
X79828000Y-76807762D01*
X79828000Y-71082450D01*
X79831787Y-71044000D01*
X79828000Y-71005550D01*
X79828000Y-71005540D01*
X79816670Y-70890505D01*
X79771897Y-70742909D01*
X79699190Y-70606884D01*
X79601343Y-70487657D01*
X79571469Y-70463140D01*
X77796000Y-68687672D01*
X77796000Y-68201238D01*
X77834802Y-68162436D01*
X77950587Y-67989151D01*
X78030341Y-67796607D01*
X78071000Y-67592204D01*
X78071000Y-67383796D01*
X78030341Y-67179393D01*
X77950587Y-66986849D01*
X77834802Y-66813564D01*
X77687436Y-66666198D01*
X77514151Y-66550413D01*
X77321607Y-66470659D01*
X77117204Y-66430000D01*
X76908796Y-66430000D01*
X76704393Y-66470659D01*
X76511849Y-66550413D01*
X76338564Y-66666198D01*
X76191198Y-66813564D01*
X76075413Y-66986849D01*
X75995659Y-67179393D01*
X75955000Y-67383796D01*
X69500277Y-67383796D01*
X69449116Y-67341810D01*
X69313091Y-67269103D01*
X69165495Y-67224330D01*
X69050460Y-67213000D01*
X69050450Y-67213000D01*
X69012000Y-67209213D01*
X68973550Y-67213000D01*
X67233750Y-67213000D01*
X68823702Y-65623048D01*
X68857396Y-65595396D01*
X68967740Y-65460942D01*
X69049732Y-65307544D01*
X69100223Y-65141098D01*
X69105328Y-65089272D01*
X69117272Y-64968000D01*
X69113000Y-64924627D01*
X69113000Y-64442263D01*
X69233024Y-64405853D01*
X69347334Y-64344754D01*
X69447527Y-64262527D01*
X69529754Y-64162334D01*
X69588193Y-64053000D01*
X69953154Y-64053000D01*
X70034849Y-64107587D01*
X70227393Y-64187341D01*
X70431796Y-64228000D01*
X70640204Y-64228000D01*
X70844607Y-64187341D01*
X71037151Y-64107587D01*
X71210436Y-63991802D01*
X71357802Y-63844436D01*
X71473587Y-63671151D01*
X71553341Y-63478607D01*
X71594000Y-63274204D01*
X71594000Y-63065796D01*
X71553341Y-62861393D01*
X71473587Y-62668849D01*
X71357802Y-62495564D01*
X71210436Y-62348198D01*
X71037151Y-62232413D01*
X70844607Y-62152659D01*
X70640204Y-62112000D01*
X70431796Y-62112000D01*
X70227393Y-62152659D01*
X70034849Y-62232413D01*
X69953154Y-62287000D01*
X69588193Y-62287000D01*
X69529754Y-62177666D01*
X69447527Y-62077473D01*
X69347334Y-61995246D01*
X69233024Y-61934147D01*
X69108990Y-61896521D01*
X68980000Y-61883817D01*
X67480000Y-61883817D01*
X67351010Y-61896521D01*
X67226976Y-61934147D01*
X67112666Y-61995246D01*
X67012473Y-62077473D01*
X66980001Y-62117040D01*
X66947528Y-62077472D01*
X66847334Y-61995246D01*
X66733024Y-61934146D01*
X66608991Y-61896520D01*
X66480000Y-61883816D01*
X65998500Y-61887000D01*
X65834000Y-62051500D01*
X65834000Y-63066000D01*
X65854000Y-63066000D01*
X65854000Y-63274000D01*
X65834000Y-63274000D01*
X65834000Y-64288500D01*
X65998500Y-64453000D01*
X66480000Y-64456184D01*
X66608991Y-64443480D01*
X66733024Y-64405854D01*
X66847334Y-64344754D01*
X66947528Y-64262528D01*
X66980001Y-64222960D01*
X67012473Y-64262527D01*
X67112666Y-64344754D01*
X67226976Y-64405853D01*
X67347001Y-64442263D01*
X67347001Y-64602249D01*
X63338304Y-68610947D01*
X63304604Y-68638604D01*
X63194260Y-68773059D01*
X63112268Y-68926457D01*
X63097267Y-68975909D01*
X63065538Y-69080506D01*
X63061777Y-69092903D01*
X63049000Y-69222628D01*
X63049000Y-69222634D01*
X63044729Y-69266000D01*
X63049000Y-69309366D01*
X63049000Y-69354731D01*
X63049001Y-71495114D01*
X62975802Y-71385564D01*
X62828436Y-71238198D01*
X62655151Y-71122413D01*
X62462607Y-71042659D01*
X62258204Y-71002000D01*
X62049796Y-71002000D01*
X61845393Y-71042659D01*
X61771144Y-71073414D01*
X61701476Y-70988524D01*
X61471853Y-70800077D01*
X61209879Y-70660049D01*
X60925620Y-70573820D01*
X60704078Y-70552000D01*
X60555922Y-70552000D01*
X60334380Y-70573820D01*
X60050121Y-70660049D01*
X59788147Y-70800077D01*
X59558524Y-70988524D01*
X59370077Y-71218147D01*
X59230049Y-71480121D01*
X59143820Y-71764380D01*
X59114704Y-72060000D01*
X59143820Y-72355620D01*
X59230049Y-72639879D01*
X59370077Y-72901853D01*
X59558524Y-73131476D01*
X59788147Y-73319923D01*
X59807000Y-73330000D01*
X59788147Y-73340077D01*
X59558524Y-73528524D01*
X59370077Y-73758147D01*
X59230049Y-74020121D01*
X59143820Y-74304380D01*
X59114704Y-74600000D01*
X59143820Y-74895620D01*
X59230049Y-75179879D01*
X59370077Y-75441853D01*
X59558524Y-75671476D01*
X59788147Y-75859923D01*
X59807000Y-75870000D01*
X59788147Y-75880077D01*
X59558524Y-76068524D01*
X59370077Y-76298147D01*
X59230049Y-76560121D01*
X59143820Y-76844380D01*
X59114704Y-77140000D01*
X59143820Y-77435620D01*
X59230049Y-77719879D01*
X59370077Y-77981853D01*
X59558524Y-78211476D01*
X59788147Y-78399923D01*
X59817792Y-78415769D01*
X59755272Y-78451617D01*
X59532434Y-78645871D01*
X59351775Y-78879866D01*
X59220237Y-79144610D01*
X59160381Y-79341939D01*
X59290531Y-79576000D01*
X60526000Y-79576000D01*
X60526000Y-79556000D01*
X60734000Y-79556000D01*
X60734000Y-79576000D01*
X60754000Y-79576000D01*
X60754000Y-79784000D01*
X60734000Y-79784000D01*
X60734000Y-79804000D01*
X60526000Y-79804000D01*
X60526000Y-79784000D01*
X59290531Y-79784000D01*
X59160381Y-80018061D01*
X59220237Y-80215390D01*
X59351775Y-80480134D01*
X59532434Y-80714129D01*
X59569336Y-80746297D01*
X59526976Y-80759147D01*
X59412666Y-80820246D01*
X59312473Y-80902473D01*
X59230246Y-81002666D01*
X59169147Y-81116976D01*
X59131521Y-81241010D01*
X59118817Y-81370000D01*
X59118817Y-83070000D01*
X59131521Y-83198990D01*
X59169147Y-83323024D01*
X59230246Y-83437334D01*
X59312473Y-83537527D01*
X59412666Y-83619754D01*
X59526976Y-83680853D01*
X59651010Y-83718479D01*
X59780000Y-83731183D01*
X61371000Y-83731183D01*
X61371000Y-87602762D01*
X61332198Y-87641564D01*
X61216413Y-87814849D01*
X61136659Y-88007393D01*
X61096000Y-88211796D01*
X61096000Y-88420204D01*
X61136659Y-88624607D01*
X61216413Y-88817151D01*
X61332198Y-88990436D01*
X61479564Y-89137802D01*
X61652849Y-89253587D01*
X61845393Y-89333341D01*
X62049796Y-89374000D01*
X62258204Y-89374000D01*
X62462607Y-89333341D01*
X62655151Y-89253587D01*
X62828436Y-89137802D01*
X62975802Y-88990436D01*
X63091587Y-88817151D01*
X63171341Y-88624607D01*
X63180179Y-88580179D01*
X63224607Y-88571341D01*
X63417151Y-88491587D01*
X63590436Y-88375802D01*
X63737802Y-88228436D01*
X63853587Y-88055151D01*
X63933341Y-87862607D01*
X63974000Y-87658204D01*
X63974000Y-87449796D01*
X63933341Y-87245393D01*
X63853587Y-87052849D01*
X63737802Y-86879564D01*
X63699000Y-86840762D01*
X63699000Y-85473238D01*
X63737802Y-85434436D01*
X63853587Y-85261151D01*
X63933341Y-85068607D01*
X63974000Y-84864204D01*
X63974000Y-84655796D01*
X63933341Y-84451393D01*
X63853587Y-84258849D01*
X63737802Y-84085564D01*
X63699000Y-84046762D01*
X63699000Y-78172380D01*
X63827796Y-78198000D01*
X63928151Y-78198000D01*
X63930659Y-78210607D01*
X64010413Y-78403151D01*
X64126198Y-78576436D01*
X64273564Y-78723802D01*
X64446849Y-78839587D01*
X64639393Y-78919341D01*
X64843796Y-78960000D01*
X64927000Y-78960000D01*
X64927001Y-84046761D01*
X64888198Y-84085564D01*
X64772413Y-84258849D01*
X64692659Y-84451393D01*
X64652000Y-84655796D01*
X64652000Y-84864204D01*
X64692659Y-85068607D01*
X64772413Y-85261151D01*
X64888198Y-85434436D01*
X65035564Y-85581802D01*
X65208849Y-85697587D01*
X65401393Y-85777341D01*
X65605796Y-85818000D01*
X65814204Y-85818000D01*
X66018607Y-85777341D01*
X66211151Y-85697587D01*
X66384436Y-85581802D01*
X66451001Y-85515237D01*
X66451001Y-89126761D01*
X66412198Y-89165564D01*
X66296413Y-89338849D01*
X66256586Y-89435000D01*
X57499850Y-89435000D01*
X56654764Y-89435845D01*
X56614587Y-89338849D01*
X56498802Y-89165564D01*
X56460000Y-89126762D01*
X56460000Y-77853238D01*
X56498802Y-77814436D01*
X56566000Y-77713867D01*
X56633198Y-77814436D01*
X56780564Y-77961802D01*
X56953849Y-78077587D01*
X57146393Y-78157341D01*
X57350796Y-78198000D01*
X57559204Y-78198000D01*
X57763607Y-78157341D01*
X57956151Y-78077587D01*
X58129436Y-77961802D01*
X58276802Y-77814436D01*
X58392587Y-77641151D01*
X58472341Y-77448607D01*
X58513000Y-77244204D01*
X58513000Y-77035796D01*
X58472341Y-76831393D01*
X58392587Y-76638849D01*
X58338000Y-76557154D01*
X58338000Y-72642846D01*
X58392587Y-72561151D01*
X58472341Y-72368607D01*
X58513000Y-72164204D01*
X58513000Y-71955796D01*
X58472341Y-71751393D01*
X58392587Y-71558849D01*
X58276802Y-71385564D01*
X58129436Y-71238198D01*
X57956151Y-71122413D01*
X57763607Y-71042659D01*
X57559204Y-71002000D01*
X57350796Y-71002000D01*
X57146393Y-71042659D01*
X56953849Y-71122413D01*
X56780564Y-71238198D01*
X56633198Y-71385564D01*
X56517413Y-71558849D01*
X56437659Y-71751393D01*
X56397000Y-71955796D01*
X56397000Y-72164204D01*
X56437659Y-72368607D01*
X56517413Y-72561151D01*
X56572000Y-72642847D01*
X56572001Y-76557152D01*
X56566000Y-76566133D01*
X56498802Y-76465564D01*
X56351436Y-76318198D01*
X56178151Y-76202413D01*
X55985607Y-76122659D01*
X55781204Y-76082000D01*
X55698000Y-76082000D01*
X55698000Y-71503238D01*
X55736802Y-71464436D01*
X55852587Y-71291151D01*
X55932341Y-71098607D01*
X55973000Y-70894204D01*
X55973000Y-70685796D01*
X55932341Y-70481393D01*
X55852587Y-70288849D01*
X55736802Y-70115564D01*
X55589436Y-69968198D01*
X55416151Y-69852413D01*
X55223607Y-69772659D01*
X55019204Y-69732000D01*
X54810796Y-69732000D01*
X54606393Y-69772659D01*
X54413849Y-69852413D01*
X54240564Y-69968198D01*
X54093198Y-70115564D01*
X53977413Y-70288849D01*
X53897659Y-70481393D01*
X53857000Y-70685796D01*
X53857000Y-70894204D01*
X53897659Y-71098607D01*
X53977413Y-71291151D01*
X54093198Y-71464436D01*
X54132001Y-71503239D01*
X54132000Y-78966762D01*
X54093198Y-79005564D01*
X53977413Y-79178849D01*
X53897659Y-79371393D01*
X53857000Y-79575796D01*
X53857000Y-79784204D01*
X53897659Y-79988607D01*
X53977413Y-80181151D01*
X54093198Y-80354436D01*
X54240564Y-80501802D01*
X54413849Y-80617587D01*
X54606393Y-80697341D01*
X54810796Y-80738000D01*
X54894000Y-80738000D01*
X54894000Y-81162000D01*
X54810796Y-81162000D01*
X54606393Y-81202659D01*
X54413849Y-81282413D01*
X54240564Y-81398198D01*
X54093198Y-81545564D01*
X53977413Y-81718849D01*
X53897659Y-81911393D01*
X53857000Y-82115796D01*
X53857000Y-82324204D01*
X53897659Y-82528607D01*
X53977413Y-82721151D01*
X54093198Y-82894436D01*
X54132000Y-82933238D01*
X54132001Y-89888761D01*
X54093198Y-89927564D01*
X53977413Y-90100849D01*
X53897659Y-90293393D01*
X53857000Y-90497796D01*
X53857000Y-90706204D01*
X53897659Y-90910607D01*
X53977413Y-91103151D01*
X54093198Y-91276436D01*
X54240564Y-91423802D01*
X54413849Y-91539587D01*
X54606393Y-91619341D01*
X54810796Y-91660000D01*
X55019204Y-91660000D01*
X55223607Y-91619341D01*
X55416151Y-91539587D01*
X55589436Y-91423802D01*
X55736802Y-91276436D01*
X55852587Y-91103151D01*
X55932341Y-90910607D01*
X55941179Y-90866179D01*
X55985607Y-90857341D01*
X56178151Y-90777587D01*
X56350000Y-90662762D01*
X56350000Y-91767000D01*
X49233000Y-91767000D01*
X49233000Y-76981626D01*
X50132000Y-76981626D01*
X50132000Y-77298374D01*
X50193795Y-77609036D01*
X50315009Y-77901673D01*
X50490985Y-78165040D01*
X50714960Y-78389015D01*
X50746366Y-78410000D01*
X50714960Y-78430985D01*
X50490985Y-78654960D01*
X50315009Y-78918327D01*
X50193795Y-79210964D01*
X50132000Y-79521626D01*
X50132000Y-79838374D01*
X50193795Y-80149036D01*
X50315009Y-80441673D01*
X50490985Y-80705040D01*
X50714960Y-80929015D01*
X50746366Y-80950000D01*
X50714960Y-80970985D01*
X50490985Y-81194960D01*
X50315009Y-81458327D01*
X50193795Y-81750964D01*
X50132000Y-82061626D01*
X50132000Y-82378374D01*
X50193795Y-82689036D01*
X50315009Y-82981673D01*
X50490985Y-83245040D01*
X50714960Y-83469015D01*
X50746366Y-83490000D01*
X50714960Y-83510985D01*
X50490985Y-83734960D01*
X50315009Y-83998327D01*
X50193795Y-84290964D01*
X50132000Y-84601626D01*
X50132000Y-84918374D01*
X50193795Y-85229036D01*
X50315009Y-85521673D01*
X50490985Y-85785040D01*
X50714960Y-86009015D01*
X50746366Y-86030000D01*
X50714960Y-86050985D01*
X50490985Y-86274960D01*
X50315009Y-86538327D01*
X50193795Y-86830964D01*
X50132000Y-87141626D01*
X50132000Y-87458374D01*
X50193795Y-87769036D01*
X50315009Y-88061673D01*
X50490985Y-88325040D01*
X50714960Y-88549015D01*
X50978327Y-88724991D01*
X51270964Y-88846205D01*
X51581626Y-88908000D01*
X51898374Y-88908000D01*
X52209036Y-88846205D01*
X52501673Y-88724991D01*
X52765040Y-88549015D01*
X52989015Y-88325040D01*
X53164991Y-88061673D01*
X53286205Y-87769036D01*
X53348000Y-87458374D01*
X53348000Y-87141626D01*
X53286205Y-86830964D01*
X53164991Y-86538327D01*
X52989015Y-86274960D01*
X52765040Y-86050985D01*
X52733634Y-86030000D01*
X52765040Y-86009015D01*
X52989015Y-85785040D01*
X53164991Y-85521673D01*
X53286205Y-85229036D01*
X53348000Y-84918374D01*
X53348000Y-84601626D01*
X53286205Y-84290964D01*
X53164991Y-83998327D01*
X52989015Y-83734960D01*
X52765040Y-83510985D01*
X52733634Y-83490000D01*
X52765040Y-83469015D01*
X52989015Y-83245040D01*
X53164991Y-82981673D01*
X53286205Y-82689036D01*
X53348000Y-82378374D01*
X53348000Y-82061626D01*
X53286205Y-81750964D01*
X53164991Y-81458327D01*
X52989015Y-81194960D01*
X52765040Y-80970985D01*
X52733634Y-80950000D01*
X52765040Y-80929015D01*
X52989015Y-80705040D01*
X53164991Y-80441673D01*
X53286205Y-80149036D01*
X53348000Y-79838374D01*
X53348000Y-79521626D01*
X53286205Y-79210964D01*
X53164991Y-78918327D01*
X52989015Y-78654960D01*
X52765040Y-78430985D01*
X52733634Y-78410000D01*
X52765040Y-78389015D01*
X52989015Y-78165040D01*
X53164991Y-77901673D01*
X53286205Y-77609036D01*
X53348000Y-77298374D01*
X53348000Y-76981626D01*
X53286205Y-76670964D01*
X53164991Y-76378327D01*
X52989015Y-76114960D01*
X52765040Y-75890985D01*
X52651958Y-75815426D01*
X52690033Y-75697111D01*
X51740000Y-74747078D01*
X50789967Y-75697111D01*
X50828042Y-75815426D01*
X50714960Y-75890985D01*
X50490985Y-76114960D01*
X50315009Y-76378327D01*
X50193795Y-76670964D01*
X50132000Y-76981626D01*
X49233000Y-76981626D01*
X49233000Y-74640616D01*
X50124730Y-74640616D01*
X50163691Y-74954959D01*
X50263228Y-75255661D01*
X50374387Y-75463625D01*
X50642889Y-75550033D01*
X51592922Y-74600000D01*
X51887078Y-74600000D01*
X52837111Y-75550033D01*
X53105613Y-75463625D01*
X53247858Y-75180613D01*
X53332157Y-74875288D01*
X53355270Y-74559384D01*
X53316309Y-74245041D01*
X53216772Y-73944339D01*
X53105613Y-73736375D01*
X52837111Y-73649967D01*
X51887078Y-74600000D01*
X51592922Y-74600000D01*
X50642889Y-73649967D01*
X50374387Y-73736375D01*
X50232142Y-74019387D01*
X50147843Y-74324712D01*
X50124730Y-74640616D01*
X49233000Y-74640616D01*
X49233000Y-71901626D01*
X50132000Y-71901626D01*
X50132000Y-72218374D01*
X50193795Y-72529036D01*
X50315009Y-72821673D01*
X50490985Y-73085040D01*
X50714960Y-73309015D01*
X50828042Y-73384574D01*
X50789967Y-73502889D01*
X51740000Y-74452922D01*
X52690033Y-73502889D01*
X52651958Y-73384574D01*
X52765040Y-73309015D01*
X52989015Y-73085040D01*
X53164991Y-72821673D01*
X53286205Y-72529036D01*
X53348000Y-72218374D01*
X53348000Y-71901626D01*
X53286205Y-71590964D01*
X53164991Y-71298327D01*
X52989015Y-71034960D01*
X52765040Y-70810985D01*
X52501673Y-70635009D01*
X52209036Y-70513795D01*
X51898374Y-70452000D01*
X51581626Y-70452000D01*
X51270964Y-70513795D01*
X50978327Y-70635009D01*
X50714960Y-70810985D01*
X50490985Y-71034960D01*
X50315009Y-71298327D01*
X50193795Y-71590964D01*
X50132000Y-71901626D01*
X49233000Y-71901626D01*
X49233000Y-69233000D01*
X57463998Y-69233000D01*
X57500000Y-69236546D01*
X57557364Y-69230896D01*
X57643693Y-69222393D01*
X57781864Y-69180480D01*
X57909203Y-69112416D01*
X58020817Y-69020817D01*
X58112416Y-68909203D01*
X58180480Y-68781864D01*
X58222393Y-68643693D01*
X58236546Y-68500000D01*
X58233000Y-68463998D01*
X58233000Y-63795000D01*
X64318816Y-63795000D01*
X64331520Y-63923991D01*
X64369146Y-64048024D01*
X64430246Y-64162334D01*
X64512472Y-64262528D01*
X64612666Y-64344754D01*
X64726976Y-64405854D01*
X64851009Y-64443480D01*
X64980000Y-64456184D01*
X65461500Y-64453000D01*
X65626000Y-64288500D01*
X65626000Y-63274000D01*
X64486500Y-63274000D01*
X64322000Y-63438500D01*
X64318816Y-63795000D01*
X58233000Y-63795000D01*
X58233000Y-62545000D01*
X64318816Y-62545000D01*
X64322000Y-62901500D01*
X64486500Y-63066000D01*
X65626000Y-63066000D01*
X65626000Y-62051500D01*
X65461500Y-61887000D01*
X64980000Y-61883816D01*
X64851009Y-61896520D01*
X64726976Y-61934146D01*
X64612666Y-61995246D01*
X64512472Y-62077472D01*
X64430246Y-62177666D01*
X64369146Y-62291976D01*
X64331520Y-62416009D01*
X64318816Y-62545000D01*
X58233000Y-62545000D01*
X58233000Y-60650000D01*
X86297633Y-60650000D01*
X86313501Y-60729776D01*
X86313501Y-60729776D01*
G37*
X86313501Y-60729776D02*
X86400794Y-60940519D01*
X86419001Y-60967768D01*
X86419000Y-68219755D01*
X86218393Y-68259659D01*
X86025849Y-68339413D01*
X85852564Y-68455198D01*
X85711764Y-68595998D01*
X85708802Y-68591564D01*
X85561436Y-68444198D01*
X85388151Y-68328413D01*
X85195607Y-68248659D01*
X84991204Y-68208000D01*
X84782796Y-68208000D01*
X84578393Y-68248659D01*
X84385849Y-68328413D01*
X84212564Y-68444198D01*
X84065198Y-68591564D01*
X83949413Y-68764849D01*
X83869659Y-68957393D01*
X83829000Y-69161796D01*
X83829000Y-69370204D01*
X83869659Y-69574607D01*
X83934853Y-69732000D01*
X83893796Y-69732000D01*
X83689393Y-69772659D01*
X83496849Y-69852413D01*
X83323564Y-69968198D01*
X83176198Y-70115564D01*
X83060413Y-70288849D01*
X82980659Y-70481393D01*
X82940000Y-70685796D01*
X82940000Y-70894204D01*
X82980659Y-71098607D01*
X83060413Y-71291151D01*
X83176198Y-71464436D01*
X83215000Y-71503238D01*
X83215001Y-73886761D01*
X83176198Y-73925564D01*
X83060413Y-74098849D01*
X82980659Y-74291393D01*
X82940000Y-74495796D01*
X82940000Y-74558000D01*
X82877796Y-74558000D01*
X82673393Y-74598659D01*
X82480849Y-74678413D01*
X82307564Y-74794198D01*
X82160198Y-74941564D01*
X82044413Y-75114849D01*
X81964659Y-75307393D01*
X81924000Y-75511796D01*
X81924000Y-75720204D01*
X81964659Y-75924607D01*
X82042518Y-76112576D01*
X81911393Y-76138659D01*
X81718849Y-76218413D01*
X81545564Y-76334198D01*
X81398198Y-76481564D01*
X81282413Y-76654849D01*
X81202659Y-76847393D01*
X81162000Y-77051796D01*
X81162000Y-77260204D01*
X81202659Y-77464607D01*
X81282413Y-77657151D01*
X81398198Y-77830436D01*
X81437000Y-77869238D01*
X81437000Y-78924762D01*
X81370436Y-78858198D01*
X81197151Y-78742413D01*
X81004607Y-78662659D01*
X80800204Y-78622000D01*
X80591796Y-78622000D01*
X80387393Y-78662659D01*
X80194849Y-78742413D01*
X80021564Y-78858198D01*
X79874198Y-79005564D01*
X79758413Y-79178849D01*
X79678659Y-79371393D01*
X79669821Y-79415821D01*
X79625393Y-79424659D01*
X79432849Y-79504413D01*
X79259564Y-79620198D01*
X79112198Y-79767564D01*
X78996413Y-79940849D01*
X78916659Y-80133393D01*
X78876000Y-80337796D01*
X78876000Y-80546204D01*
X78916659Y-80750607D01*
X78996413Y-80943151D01*
X79112198Y-81116436D01*
X79151000Y-81155238D01*
X79151001Y-87602761D01*
X79112198Y-87641564D01*
X78996413Y-87814849D01*
X78916659Y-88007393D01*
X78876000Y-88211796D01*
X78876000Y-88420204D01*
X78916659Y-88624607D01*
X78996413Y-88817151D01*
X79112198Y-88990436D01*
X79259564Y-89137802D01*
X79432849Y-89253587D01*
X79625393Y-89333341D01*
X79829796Y-89374000D01*
X80038204Y-89374000D01*
X80242607Y-89333341D01*
X80435151Y-89253587D01*
X80608436Y-89137802D01*
X80755802Y-88990436D01*
X80871587Y-88817151D01*
X80951341Y-88624607D01*
X80960179Y-88580179D01*
X81004607Y-88571341D01*
X81197151Y-88491587D01*
X81370436Y-88375802D01*
X81417500Y-88328738D01*
X81437000Y-88348238D01*
X81437000Y-89435000D01*
X68211414Y-89435000D01*
X68171587Y-89338849D01*
X68055802Y-89165564D01*
X68017000Y-89126762D01*
X68017000Y-85410000D01*
X70568816Y-85410000D01*
X70581520Y-85538991D01*
X70619146Y-85663024D01*
X70680246Y-85777334D01*
X70762472Y-85877528D01*
X70862666Y-85959754D01*
X70976976Y-86020854D01*
X71101009Y-86058480D01*
X71230000Y-86071184D01*
X71711500Y-86068000D01*
X71876000Y-85903500D01*
X71876000Y-84864000D01*
X70736500Y-84864000D01*
X70572000Y-85028500D01*
X70568816Y-85410000D01*
X68017000Y-85410000D01*
X68017000Y-84110000D01*
X70568816Y-84110000D01*
X70572000Y-84491500D01*
X70736500Y-84656000D01*
X71876000Y-84656000D01*
X71876000Y-83616500D01*
X72084000Y-83616500D01*
X72084000Y-84656000D01*
X72104000Y-84656000D01*
X72104000Y-84864000D01*
X72084000Y-84864000D01*
X72084000Y-85903500D01*
X72248500Y-86068000D01*
X72730000Y-86071184D01*
X72858991Y-86058480D01*
X72983024Y-86020854D01*
X73097334Y-85959754D01*
X73197528Y-85877528D01*
X73279754Y-85777334D01*
X73330000Y-85683330D01*
X73380246Y-85777334D01*
X73462473Y-85877527D01*
X73562666Y-85959754D01*
X73676976Y-86020853D01*
X73801010Y-86058479D01*
X73930000Y-86071183D01*
X75430000Y-86071183D01*
X75558990Y-86058479D01*
X75683024Y-86020853D01*
X75797334Y-85959754D01*
X75897527Y-85877527D01*
X75979754Y-85777334D01*
X76040853Y-85663024D01*
X76047303Y-85641763D01*
X76130849Y-85697587D01*
X76323393Y-85777341D01*
X76527796Y-85818000D01*
X76736204Y-85818000D01*
X76940607Y-85777341D01*
X77133151Y-85697587D01*
X77306436Y-85581802D01*
X77453802Y-85434436D01*
X77569587Y-85261151D01*
X77649341Y-85068607D01*
X77690000Y-84864204D01*
X77690000Y-84655796D01*
X77649341Y-84451393D01*
X77569587Y-84258849D01*
X77453802Y-84085564D01*
X77306436Y-83938198D01*
X77133151Y-83822413D01*
X76940607Y-83742659D01*
X76736204Y-83702000D01*
X76527796Y-83702000D01*
X76323393Y-83742659D01*
X76130849Y-83822413D01*
X76047303Y-83878237D01*
X76040853Y-83856976D01*
X75979754Y-83742666D01*
X75897527Y-83642473D01*
X75797334Y-83560246D01*
X75683024Y-83499147D01*
X75558990Y-83461521D01*
X75430000Y-83448817D01*
X73930000Y-83448817D01*
X73801010Y-83461521D01*
X73676976Y-83499147D01*
X73562666Y-83560246D01*
X73462473Y-83642473D01*
X73380246Y-83742666D01*
X73330000Y-83836670D01*
X73279754Y-83742666D01*
X73197528Y-83642472D01*
X73097334Y-83560246D01*
X72983024Y-83499146D01*
X72858991Y-83461520D01*
X72730000Y-83448816D01*
X72248500Y-83452000D01*
X72084000Y-83616500D01*
X71876000Y-83616500D01*
X71711500Y-83452000D01*
X71230000Y-83448816D01*
X71101009Y-83461520D01*
X70976976Y-83499146D01*
X70862666Y-83560246D01*
X70762472Y-83642472D01*
X70680246Y-83742666D01*
X70619146Y-83856976D01*
X70581520Y-83981009D01*
X70568816Y-84110000D01*
X68017000Y-84110000D01*
X68017000Y-82008000D01*
X68100204Y-82008000D01*
X68304607Y-81967341D01*
X68497151Y-81887587D01*
X68670436Y-81771802D01*
X68817802Y-81624436D01*
X68933587Y-81451151D01*
X69013341Y-81258607D01*
X69054000Y-81054204D01*
X69054000Y-80845796D01*
X69013341Y-80641393D01*
X68933587Y-80448849D01*
X68817802Y-80275564D01*
X68779000Y-80236762D01*
X68779000Y-78305796D01*
X70494000Y-78305796D01*
X70494000Y-78514204D01*
X70534659Y-78718607D01*
X70614413Y-78911151D01*
X70730198Y-79084436D01*
X70877564Y-79231802D01*
X71050849Y-79347587D01*
X71243393Y-79427341D01*
X71447796Y-79468000D01*
X71656204Y-79468000D01*
X71860607Y-79427341D01*
X72053151Y-79347587D01*
X72226436Y-79231802D01*
X72373802Y-79084436D01*
X72489587Y-78911151D01*
X72569341Y-78718607D01*
X72588510Y-78622239D01*
X72673696Y-78537053D01*
X72707396Y-78509396D01*
X72817740Y-78374942D01*
X72891523Y-78236902D01*
X72899732Y-78221545D01*
X72950223Y-78055099D01*
X72967272Y-77882000D01*
X72963000Y-77838627D01*
X72963000Y-77142263D01*
X73083024Y-77105853D01*
X73197334Y-77044754D01*
X73297527Y-76962527D01*
X73329999Y-76922960D01*
X73362472Y-76962528D01*
X73462666Y-77044754D01*
X73576976Y-77105854D01*
X73701009Y-77143480D01*
X73830000Y-77156184D01*
X74311500Y-77153000D01*
X74476000Y-76988500D01*
X74476000Y-75974000D01*
X74684000Y-75974000D01*
X74684000Y-76988500D01*
X74848500Y-77153000D01*
X75330000Y-77156184D01*
X75458991Y-77143480D01*
X75583024Y-77105854D01*
X75697334Y-77044754D01*
X75797528Y-76962528D01*
X75879754Y-76862334D01*
X75940854Y-76748024D01*
X75978480Y-76623991D01*
X75991184Y-76495000D01*
X75988000Y-76138500D01*
X75823500Y-75974000D01*
X74684000Y-75974000D01*
X74476000Y-75974000D01*
X74456000Y-75974000D01*
X74456000Y-75766000D01*
X74476000Y-75766000D01*
X74476000Y-74751500D01*
X74684000Y-74751500D01*
X74684000Y-75766000D01*
X75823500Y-75766000D01*
X75988000Y-75601500D01*
X75991184Y-75245000D01*
X75978480Y-75116009D01*
X75940854Y-74991976D01*
X75879754Y-74877666D01*
X75797528Y-74777472D01*
X75697334Y-74695246D01*
X75583024Y-74634146D01*
X75458991Y-74596520D01*
X75330000Y-74583816D01*
X74848500Y-74587000D01*
X74684000Y-74751500D01*
X74476000Y-74751500D01*
X74311500Y-74587000D01*
X73830000Y-74583816D01*
X73701009Y-74596520D01*
X73576976Y-74634146D01*
X73462666Y-74695246D01*
X73362472Y-74777472D01*
X73329999Y-74817040D01*
X73297527Y-74777473D01*
X73197334Y-74695246D01*
X73083024Y-74634147D01*
X72963000Y-74597737D01*
X72963000Y-73374914D01*
X72997587Y-73323151D01*
X73077341Y-73130607D01*
X73118000Y-72926204D01*
X73118000Y-72717796D01*
X73077341Y-72513393D01*
X72997587Y-72320849D01*
X72881802Y-72147564D01*
X72734436Y-72000198D01*
X72561151Y-71884413D01*
X72368607Y-71804659D01*
X72164204Y-71764000D01*
X71955796Y-71764000D01*
X71751393Y-71804659D01*
X71558849Y-71884413D01*
X71385564Y-72000198D01*
X71238198Y-72147564D01*
X71122413Y-72320849D01*
X71042659Y-72513393D01*
X71002000Y-72717796D01*
X71002000Y-72926204D01*
X71042659Y-73130607D01*
X71122413Y-73323151D01*
X71197001Y-73434780D01*
X71197000Y-74597737D01*
X71076976Y-74634147D01*
X70962666Y-74695246D01*
X70862473Y-74777473D01*
X70780246Y-74877666D01*
X70719147Y-74991976D01*
X70681521Y-75116010D01*
X70668817Y-75245000D01*
X70668817Y-76495000D01*
X70681521Y-76623990D01*
X70719147Y-76748024D01*
X70780246Y-76862334D01*
X70862473Y-76962527D01*
X70962666Y-77044754D01*
X71076976Y-77105853D01*
X71197001Y-77142263D01*
X71197001Y-77411875D01*
X71050849Y-77472413D01*
X70877564Y-77588198D01*
X70730198Y-77735564D01*
X70614413Y-77908849D01*
X70534659Y-78101393D01*
X70494000Y-78305796D01*
X68779000Y-78305796D01*
X68779000Y-73542222D01*
X68870000Y-73551184D01*
X69251500Y-73548000D01*
X69416000Y-73383500D01*
X69416000Y-72244000D01*
X69624000Y-72244000D01*
X69624000Y-73383500D01*
X69788500Y-73548000D01*
X70170000Y-73551184D01*
X70298991Y-73538480D01*
X70423024Y-73500854D01*
X70537334Y-73439754D01*
X70637528Y-73357528D01*
X70719754Y-73257334D01*
X70780854Y-73143024D01*
X70818480Y-73018991D01*
X70831184Y-72890000D01*
X70828000Y-72408500D01*
X70663500Y-72244000D01*
X69624000Y-72244000D01*
X69416000Y-72244000D01*
X69396000Y-72244000D01*
X69396000Y-72036000D01*
X69416000Y-72036000D01*
X69416000Y-72016000D01*
X69624000Y-72016000D01*
X69624000Y-72036000D01*
X70663500Y-72036000D01*
X70828000Y-71871500D01*
X70831184Y-71390000D01*
X70818480Y-71261009D01*
X70780854Y-71136976D01*
X70719754Y-71022666D01*
X70637528Y-70922472D01*
X70537334Y-70840246D01*
X70443330Y-70790000D01*
X70537334Y-70739754D01*
X70637527Y-70657527D01*
X70719754Y-70557334D01*
X70780853Y-70443024D01*
X70818479Y-70318990D01*
X70831183Y-70190000D01*
X70831183Y-68690000D01*
X70818479Y-68561010D01*
X70780853Y-68436976D01*
X70719754Y-68322666D01*
X70637527Y-68222473D01*
X70537334Y-68140246D01*
X70423024Y-68079147D01*
X70298990Y-68041521D01*
X70170000Y-68028817D01*
X70142949Y-68028817D01*
X70140021Y-68025249D01*
X70076343Y-67947657D01*
X70046464Y-67923136D01*
X69592864Y-67469536D01*
X69568343Y-67439657D01*
X69500277Y-67383796D01*
X75955000Y-67383796D01*
X75955000Y-67592204D01*
X75995659Y-67796607D01*
X76075413Y-67989151D01*
X76191198Y-68162436D01*
X76230001Y-68201239D01*
X76230000Y-68973550D01*
X76226213Y-69012000D01*
X76230000Y-69050450D01*
X76230000Y-69050459D01*
X76241330Y-69165494D01*
X76286103Y-69313090D01*
X76358810Y-69449115D01*
X76456657Y-69568343D01*
X76486536Y-69592864D01*
X78262001Y-71368330D01*
X78262000Y-76807762D01*
X78223198Y-76846564D01*
X78107413Y-77019849D01*
X78027659Y-77212393D01*
X77987000Y-77416796D01*
X77987000Y-77625204D01*
X78027659Y-77829607D01*
X78107413Y-78022151D01*
X78223198Y-78195436D01*
X78370564Y-78342802D01*
X78543849Y-78458587D01*
X78736393Y-78538341D01*
X78940796Y-78579000D01*
X79149204Y-78579000D01*
X79353607Y-78538341D01*
X79546151Y-78458587D01*
X79719436Y-78342802D01*
X79866802Y-78195436D01*
X79982587Y-78022151D01*
X80062341Y-77829607D01*
X80103000Y-77625204D01*
X80103000Y-77416796D01*
X80062341Y-77212393D01*
X79982587Y-77019849D01*
X79866802Y-76846564D01*
X79828000Y-76807762D01*
X79828000Y-71082450D01*
X79831787Y-71044000D01*
X79828000Y-71005550D01*
X79828000Y-71005540D01*
X79816670Y-70890505D01*
X79771897Y-70742909D01*
X79699190Y-70606884D01*
X79601343Y-70487657D01*
X79571469Y-70463140D01*
X77796000Y-68687672D01*
X77796000Y-68201238D01*
X77834802Y-68162436D01*
X77950587Y-67989151D01*
X78030341Y-67796607D01*
X78071000Y-67592204D01*
X78071000Y-67383796D01*
X78030341Y-67179393D01*
X77950587Y-66986849D01*
X77834802Y-66813564D01*
X77687436Y-66666198D01*
X77514151Y-66550413D01*
X77321607Y-66470659D01*
X77117204Y-66430000D01*
X76908796Y-66430000D01*
X76704393Y-66470659D01*
X76511849Y-66550413D01*
X76338564Y-66666198D01*
X76191198Y-66813564D01*
X76075413Y-66986849D01*
X75995659Y-67179393D01*
X75955000Y-67383796D01*
X69500277Y-67383796D01*
X69449116Y-67341810D01*
X69313091Y-67269103D01*
X69165495Y-67224330D01*
X69050460Y-67213000D01*
X69050450Y-67213000D01*
X69012000Y-67209213D01*
X68973550Y-67213000D01*
X67233750Y-67213000D01*
X68823702Y-65623048D01*
X68857396Y-65595396D01*
X68967740Y-65460942D01*
X69049732Y-65307544D01*
X69100223Y-65141098D01*
X69105328Y-65089272D01*
X69117272Y-64968000D01*
X69113000Y-64924627D01*
X69113000Y-64442263D01*
X69233024Y-64405853D01*
X69347334Y-64344754D01*
X69447527Y-64262527D01*
X69529754Y-64162334D01*
X69588193Y-64053000D01*
X69953154Y-64053000D01*
X70034849Y-64107587D01*
X70227393Y-64187341D01*
X70431796Y-64228000D01*
X70640204Y-64228000D01*
X70844607Y-64187341D01*
X71037151Y-64107587D01*
X71210436Y-63991802D01*
X71357802Y-63844436D01*
X71473587Y-63671151D01*
X71553341Y-63478607D01*
X71594000Y-63274204D01*
X71594000Y-63065796D01*
X71553341Y-62861393D01*
X71473587Y-62668849D01*
X71357802Y-62495564D01*
X71210436Y-62348198D01*
X71037151Y-62232413D01*
X70844607Y-62152659D01*
X70640204Y-62112000D01*
X70431796Y-62112000D01*
X70227393Y-62152659D01*
X70034849Y-62232413D01*
X69953154Y-62287000D01*
X69588193Y-62287000D01*
X69529754Y-62177666D01*
X69447527Y-62077473D01*
X69347334Y-61995246D01*
X69233024Y-61934147D01*
X69108990Y-61896521D01*
X68980000Y-61883817D01*
X67480000Y-61883817D01*
X67351010Y-61896521D01*
X67226976Y-61934147D01*
X67112666Y-61995246D01*
X67012473Y-62077473D01*
X66980001Y-62117040D01*
X66947528Y-62077472D01*
X66847334Y-61995246D01*
X66733024Y-61934146D01*
X66608991Y-61896520D01*
X66480000Y-61883816D01*
X65998500Y-61887000D01*
X65834000Y-62051500D01*
X65834000Y-63066000D01*
X65854000Y-63066000D01*
X65854000Y-63274000D01*
X65834000Y-63274000D01*
X65834000Y-64288500D01*
X65998500Y-64453000D01*
X66480000Y-64456184D01*
X66608991Y-64443480D01*
X66733024Y-64405854D01*
X66847334Y-64344754D01*
X66947528Y-64262528D01*
X66980001Y-64222960D01*
X67012473Y-64262527D01*
X67112666Y-64344754D01*
X67226976Y-64405853D01*
X67347001Y-64442263D01*
X67347001Y-64602249D01*
X63338304Y-68610947D01*
X63304604Y-68638604D01*
X63194260Y-68773059D01*
X63112268Y-68926457D01*
X63097267Y-68975909D01*
X63065538Y-69080506D01*
X63061777Y-69092903D01*
X63049000Y-69222628D01*
X63049000Y-69222634D01*
X63044729Y-69266000D01*
X63049000Y-69309366D01*
X63049000Y-69354731D01*
X63049001Y-71495114D01*
X62975802Y-71385564D01*
X62828436Y-71238198D01*
X62655151Y-71122413D01*
X62462607Y-71042659D01*
X62258204Y-71002000D01*
X62049796Y-71002000D01*
X61845393Y-71042659D01*
X61771144Y-71073414D01*
X61701476Y-70988524D01*
X61471853Y-70800077D01*
X61209879Y-70660049D01*
X60925620Y-70573820D01*
X60704078Y-70552000D01*
X60555922Y-70552000D01*
X60334380Y-70573820D01*
X60050121Y-70660049D01*
X59788147Y-70800077D01*
X59558524Y-70988524D01*
X59370077Y-71218147D01*
X59230049Y-71480121D01*
X59143820Y-71764380D01*
X59114704Y-72060000D01*
X59143820Y-72355620D01*
X59230049Y-72639879D01*
X59370077Y-72901853D01*
X59558524Y-73131476D01*
X59788147Y-73319923D01*
X59807000Y-73330000D01*
X59788147Y-73340077D01*
X59558524Y-73528524D01*
X59370077Y-73758147D01*
X59230049Y-74020121D01*
X59143820Y-74304380D01*
X59114704Y-74600000D01*
X59143820Y-74895620D01*
X59230049Y-75179879D01*
X59370077Y-75441853D01*
X59558524Y-75671476D01*
X59788147Y-75859923D01*
X59807000Y-75870000D01*
X59788147Y-75880077D01*
X59558524Y-76068524D01*
X59370077Y-76298147D01*
X59230049Y-76560121D01*
X59143820Y-76844380D01*
X59114704Y-77140000D01*
X59143820Y-77435620D01*
X59230049Y-77719879D01*
X59370077Y-77981853D01*
X59558524Y-78211476D01*
X59788147Y-78399923D01*
X59817792Y-78415769D01*
X59755272Y-78451617D01*
X59532434Y-78645871D01*
X59351775Y-78879866D01*
X59220237Y-79144610D01*
X59160381Y-79341939D01*
X59290531Y-79576000D01*
X60526000Y-79576000D01*
X60526000Y-79556000D01*
X60734000Y-79556000D01*
X60734000Y-79576000D01*
X60754000Y-79576000D01*
X60754000Y-79784000D01*
X60734000Y-79784000D01*
X60734000Y-79804000D01*
X60526000Y-79804000D01*
X60526000Y-79784000D01*
X59290531Y-79784000D01*
X59160381Y-80018061D01*
X59220237Y-80215390D01*
X59351775Y-80480134D01*
X59532434Y-80714129D01*
X59569336Y-80746297D01*
X59526976Y-80759147D01*
X59412666Y-80820246D01*
X59312473Y-80902473D01*
X59230246Y-81002666D01*
X59169147Y-81116976D01*
X59131521Y-81241010D01*
X59118817Y-81370000D01*
X59118817Y-83070000D01*
X59131521Y-83198990D01*
X59169147Y-83323024D01*
X59230246Y-83437334D01*
X59312473Y-83537527D01*
X59412666Y-83619754D01*
X59526976Y-83680853D01*
X59651010Y-83718479D01*
X59780000Y-83731183D01*
X61371000Y-83731183D01*
X61371000Y-87602762D01*
X61332198Y-87641564D01*
X61216413Y-87814849D01*
X61136659Y-88007393D01*
X61096000Y-88211796D01*
X61096000Y-88420204D01*
X61136659Y-88624607D01*
X61216413Y-88817151D01*
X61332198Y-88990436D01*
X61479564Y-89137802D01*
X61652849Y-89253587D01*
X61845393Y-89333341D01*
X62049796Y-89374000D01*
X62258204Y-89374000D01*
X62462607Y-89333341D01*
X62655151Y-89253587D01*
X62828436Y-89137802D01*
X62975802Y-88990436D01*
X63091587Y-88817151D01*
X63171341Y-88624607D01*
X63180179Y-88580179D01*
X63224607Y-88571341D01*
X63417151Y-88491587D01*
X63590436Y-88375802D01*
X63737802Y-88228436D01*
X63853587Y-88055151D01*
X63933341Y-87862607D01*
X63974000Y-87658204D01*
X63974000Y-87449796D01*
X63933341Y-87245393D01*
X63853587Y-87052849D01*
X63737802Y-86879564D01*
X63699000Y-86840762D01*
X63699000Y-85473238D01*
X63737802Y-85434436D01*
X63853587Y-85261151D01*
X63933341Y-85068607D01*
X63974000Y-84864204D01*
X63974000Y-84655796D01*
X63933341Y-84451393D01*
X63853587Y-84258849D01*
X63737802Y-84085564D01*
X63699000Y-84046762D01*
X63699000Y-78172380D01*
X63827796Y-78198000D01*
X63928151Y-78198000D01*
X63930659Y-78210607D01*
X64010413Y-78403151D01*
X64126198Y-78576436D01*
X64273564Y-78723802D01*
X64446849Y-78839587D01*
X64639393Y-78919341D01*
X64843796Y-78960000D01*
X64927000Y-78960000D01*
X64927001Y-84046761D01*
X64888198Y-84085564D01*
X64772413Y-84258849D01*
X64692659Y-84451393D01*
X64652000Y-84655796D01*
X64652000Y-84864204D01*
X64692659Y-85068607D01*
X64772413Y-85261151D01*
X64888198Y-85434436D01*
X65035564Y-85581802D01*
X65208849Y-85697587D01*
X65401393Y-85777341D01*
X65605796Y-85818000D01*
X65814204Y-85818000D01*
X66018607Y-85777341D01*
X66211151Y-85697587D01*
X66384436Y-85581802D01*
X66451001Y-85515237D01*
X66451001Y-89126761D01*
X66412198Y-89165564D01*
X66296413Y-89338849D01*
X66256586Y-89435000D01*
X57499850Y-89435000D01*
X56654764Y-89435845D01*
X56614587Y-89338849D01*
X56498802Y-89165564D01*
X56460000Y-89126762D01*
X56460000Y-77853238D01*
X56498802Y-77814436D01*
X56566000Y-77713867D01*
X56633198Y-77814436D01*
X56780564Y-77961802D01*
X56953849Y-78077587D01*
X57146393Y-78157341D01*
X57350796Y-78198000D01*
X57559204Y-78198000D01*
X57763607Y-78157341D01*
X57956151Y-78077587D01*
X58129436Y-77961802D01*
X58276802Y-77814436D01*
X58392587Y-77641151D01*
X58472341Y-77448607D01*
X58513000Y-77244204D01*
X58513000Y-77035796D01*
X58472341Y-76831393D01*
X58392587Y-76638849D01*
X58338000Y-76557154D01*
X58338000Y-72642846D01*
X58392587Y-72561151D01*
X58472341Y-72368607D01*
X58513000Y-72164204D01*
X58513000Y-71955796D01*
X58472341Y-71751393D01*
X58392587Y-71558849D01*
X58276802Y-71385564D01*
X58129436Y-71238198D01*
X57956151Y-71122413D01*
X57763607Y-71042659D01*
X57559204Y-71002000D01*
X57350796Y-71002000D01*
X57146393Y-71042659D01*
X56953849Y-71122413D01*
X56780564Y-71238198D01*
X56633198Y-71385564D01*
X56517413Y-71558849D01*
X56437659Y-71751393D01*
X56397000Y-71955796D01*
X56397000Y-72164204D01*
X56437659Y-72368607D01*
X56517413Y-72561151D01*
X56572000Y-72642847D01*
X56572001Y-76557152D01*
X56566000Y-76566133D01*
X56498802Y-76465564D01*
X56351436Y-76318198D01*
X56178151Y-76202413D01*
X55985607Y-76122659D01*
X55781204Y-76082000D01*
X55698000Y-76082000D01*
X55698000Y-71503238D01*
X55736802Y-71464436D01*
X55852587Y-71291151D01*
X55932341Y-71098607D01*
X55973000Y-70894204D01*
X55973000Y-70685796D01*
X55932341Y-70481393D01*
X55852587Y-70288849D01*
X55736802Y-70115564D01*
X55589436Y-69968198D01*
X55416151Y-69852413D01*
X55223607Y-69772659D01*
X55019204Y-69732000D01*
X54810796Y-69732000D01*
X54606393Y-69772659D01*
X54413849Y-69852413D01*
X54240564Y-69968198D01*
X54093198Y-70115564D01*
X53977413Y-70288849D01*
X53897659Y-70481393D01*
X53857000Y-70685796D01*
X53857000Y-70894204D01*
X53897659Y-71098607D01*
X53977413Y-71291151D01*
X54093198Y-71464436D01*
X54132001Y-71503239D01*
X54132000Y-78966762D01*
X54093198Y-79005564D01*
X53977413Y-79178849D01*
X53897659Y-79371393D01*
X53857000Y-79575796D01*
X53857000Y-79784204D01*
X53897659Y-79988607D01*
X53977413Y-80181151D01*
X54093198Y-80354436D01*
X54240564Y-80501802D01*
X54413849Y-80617587D01*
X54606393Y-80697341D01*
X54810796Y-80738000D01*
X54894000Y-80738000D01*
X54894000Y-81162000D01*
X54810796Y-81162000D01*
X54606393Y-81202659D01*
X54413849Y-81282413D01*
X54240564Y-81398198D01*
X54093198Y-81545564D01*
X53977413Y-81718849D01*
X53897659Y-81911393D01*
X53857000Y-82115796D01*
X53857000Y-82324204D01*
X53897659Y-82528607D01*
X53977413Y-82721151D01*
X54093198Y-82894436D01*
X54132000Y-82933238D01*
X54132001Y-89888761D01*
X54093198Y-89927564D01*
X53977413Y-90100849D01*
X53897659Y-90293393D01*
X53857000Y-90497796D01*
X53857000Y-90706204D01*
X53897659Y-90910607D01*
X53977413Y-91103151D01*
X54093198Y-91276436D01*
X54240564Y-91423802D01*
X54413849Y-91539587D01*
X54606393Y-91619341D01*
X54810796Y-91660000D01*
X55019204Y-91660000D01*
X55223607Y-91619341D01*
X55416151Y-91539587D01*
X55589436Y-91423802D01*
X55736802Y-91276436D01*
X55852587Y-91103151D01*
X55932341Y-90910607D01*
X55941179Y-90866179D01*
X55985607Y-90857341D01*
X56178151Y-90777587D01*
X56350000Y-90662762D01*
X56350000Y-91767000D01*
X49233000Y-91767000D01*
X49233000Y-76981626D01*
X50132000Y-76981626D01*
X50132000Y-77298374D01*
X50193795Y-77609036D01*
X50315009Y-77901673D01*
X50490985Y-78165040D01*
X50714960Y-78389015D01*
X50746366Y-78410000D01*
X50714960Y-78430985D01*
X50490985Y-78654960D01*
X50315009Y-78918327D01*
X50193795Y-79210964D01*
X50132000Y-79521626D01*
X50132000Y-79838374D01*
X50193795Y-80149036D01*
X50315009Y-80441673D01*
X50490985Y-80705040D01*
X50714960Y-80929015D01*
X50746366Y-80950000D01*
X50714960Y-80970985D01*
X50490985Y-81194960D01*
X50315009Y-81458327D01*
X50193795Y-81750964D01*
X50132000Y-82061626D01*
X50132000Y-82378374D01*
X50193795Y-82689036D01*
X50315009Y-82981673D01*
X50490985Y-83245040D01*
X50714960Y-83469015D01*
X50746366Y-83490000D01*
X50714960Y-83510985D01*
X50490985Y-83734960D01*
X50315009Y-83998327D01*
X50193795Y-84290964D01*
X50132000Y-84601626D01*
X50132000Y-84918374D01*
X50193795Y-85229036D01*
X50315009Y-85521673D01*
X50490985Y-85785040D01*
X50714960Y-86009015D01*
X50746366Y-86030000D01*
X50714960Y-86050985D01*
X50490985Y-86274960D01*
X50315009Y-86538327D01*
X50193795Y-86830964D01*
X50132000Y-87141626D01*
X50132000Y-87458374D01*
X50193795Y-87769036D01*
X50315009Y-88061673D01*
X50490985Y-88325040D01*
X50714960Y-88549015D01*
X50978327Y-88724991D01*
X51270964Y-88846205D01*
X51581626Y-88908000D01*
X51898374Y-88908000D01*
X52209036Y-88846205D01*
X52501673Y-88724991D01*
X52765040Y-88549015D01*
X52989015Y-88325040D01*
X53164991Y-88061673D01*
X53286205Y-87769036D01*
X53348000Y-87458374D01*
X53348000Y-87141626D01*
X53286205Y-86830964D01*
X53164991Y-86538327D01*
X52989015Y-86274960D01*
X52765040Y-86050985D01*
X52733634Y-86030000D01*
X52765040Y-86009015D01*
X52989015Y-85785040D01*
X53164991Y-85521673D01*
X53286205Y-85229036D01*
X53348000Y-84918374D01*
X53348000Y-84601626D01*
X53286205Y-84290964D01*
X53164991Y-83998327D01*
X52989015Y-83734960D01*
X52765040Y-83510985D01*
X52733634Y-83490000D01*
X52765040Y-83469015D01*
X52989015Y-83245040D01*
X53164991Y-82981673D01*
X53286205Y-82689036D01*
X53348000Y-82378374D01*
X53348000Y-82061626D01*
X53286205Y-81750964D01*
X53164991Y-81458327D01*
X52989015Y-81194960D01*
X52765040Y-80970985D01*
X52733634Y-80950000D01*
X52765040Y-80929015D01*
X52989015Y-80705040D01*
X53164991Y-80441673D01*
X53286205Y-80149036D01*
X53348000Y-79838374D01*
X53348000Y-79521626D01*
X53286205Y-79210964D01*
X53164991Y-78918327D01*
X52989015Y-78654960D01*
X52765040Y-78430985D01*
X52733634Y-78410000D01*
X52765040Y-78389015D01*
X52989015Y-78165040D01*
X53164991Y-77901673D01*
X53286205Y-77609036D01*
X53348000Y-77298374D01*
X53348000Y-76981626D01*
X53286205Y-76670964D01*
X53164991Y-76378327D01*
X52989015Y-76114960D01*
X52765040Y-75890985D01*
X52651958Y-75815426D01*
X52690033Y-75697111D01*
X51740000Y-74747078D01*
X50789967Y-75697111D01*
X50828042Y-75815426D01*
X50714960Y-75890985D01*
X50490985Y-76114960D01*
X50315009Y-76378327D01*
X50193795Y-76670964D01*
X50132000Y-76981626D01*
X49233000Y-76981626D01*
X49233000Y-74640616D01*
X50124730Y-74640616D01*
X50163691Y-74954959D01*
X50263228Y-75255661D01*
X50374387Y-75463625D01*
X50642889Y-75550033D01*
X51592922Y-74600000D01*
X51887078Y-74600000D01*
X52837111Y-75550033D01*
X53105613Y-75463625D01*
X53247858Y-75180613D01*
X53332157Y-74875288D01*
X53355270Y-74559384D01*
X53316309Y-74245041D01*
X53216772Y-73944339D01*
X53105613Y-73736375D01*
X52837111Y-73649967D01*
X51887078Y-74600000D01*
X51592922Y-74600000D01*
X50642889Y-73649967D01*
X50374387Y-73736375D01*
X50232142Y-74019387D01*
X50147843Y-74324712D01*
X50124730Y-74640616D01*
X49233000Y-74640616D01*
X49233000Y-71901626D01*
X50132000Y-71901626D01*
X50132000Y-72218374D01*
X50193795Y-72529036D01*
X50315009Y-72821673D01*
X50490985Y-73085040D01*
X50714960Y-73309015D01*
X50828042Y-73384574D01*
X50789967Y-73502889D01*
X51740000Y-74452922D01*
X52690033Y-73502889D01*
X52651958Y-73384574D01*
X52765040Y-73309015D01*
X52989015Y-73085040D01*
X53164991Y-72821673D01*
X53286205Y-72529036D01*
X53348000Y-72218374D01*
X53348000Y-71901626D01*
X53286205Y-71590964D01*
X53164991Y-71298327D01*
X52989015Y-71034960D01*
X52765040Y-70810985D01*
X52501673Y-70635009D01*
X52209036Y-70513795D01*
X51898374Y-70452000D01*
X51581626Y-70452000D01*
X51270964Y-70513795D01*
X50978327Y-70635009D01*
X50714960Y-70810985D01*
X50490985Y-71034960D01*
X50315009Y-71298327D01*
X50193795Y-71590964D01*
X50132000Y-71901626D01*
X49233000Y-71901626D01*
X49233000Y-69233000D01*
X57463998Y-69233000D01*
X57500000Y-69236546D01*
X57557364Y-69230896D01*
X57643693Y-69222393D01*
X57781864Y-69180480D01*
X57909203Y-69112416D01*
X58020817Y-69020817D01*
X58112416Y-68909203D01*
X58180480Y-68781864D01*
X58222393Y-68643693D01*
X58236546Y-68500000D01*
X58233000Y-68463998D01*
X58233000Y-63795000D01*
X64318816Y-63795000D01*
X64331520Y-63923991D01*
X64369146Y-64048024D01*
X64430246Y-64162334D01*
X64512472Y-64262528D01*
X64612666Y-64344754D01*
X64726976Y-64405854D01*
X64851009Y-64443480D01*
X64980000Y-64456184D01*
X65461500Y-64453000D01*
X65626000Y-64288500D01*
X65626000Y-63274000D01*
X64486500Y-63274000D01*
X64322000Y-63438500D01*
X64318816Y-63795000D01*
X58233000Y-63795000D01*
X58233000Y-62545000D01*
X64318816Y-62545000D01*
X64322000Y-62901500D01*
X64486500Y-63066000D01*
X65626000Y-63066000D01*
X65626000Y-62051500D01*
X65461500Y-61887000D01*
X64980000Y-61883816D01*
X64851009Y-61896520D01*
X64726976Y-61934146D01*
X64612666Y-61995246D01*
X64512472Y-62077472D01*
X64430246Y-62177666D01*
X64369146Y-62291976D01*
X64331520Y-62416009D01*
X64318816Y-62545000D01*
X58233000Y-62545000D01*
X58233000Y-60650000D01*
X86297633Y-60650000D01*
X86313501Y-60729776D01*
G36*
X112350000Y-63779520D02*
G01*
X112218136Y-63819520D01*
X112090797Y-63887584D01*
X111979183Y-63979183D01*
X111887584Y-64090797D01*
X111819520Y-64218136D01*
X111777607Y-64356307D01*
X111763454Y-64500000D01*
X111767001Y-64536012D01*
X111767001Y-74830000D01*
X107775000Y-74830000D01*
X107745736Y-74832882D01*
X107717597Y-74841418D01*
X107691664Y-74855280D01*
X107668934Y-74873934D01*
X107650280Y-74896664D01*
X107636418Y-74922597D01*
X107627882Y-74950736D01*
X107625000Y-74980000D01*
X107625000Y-81965000D01*
X107627882Y-81994264D01*
X107636418Y-82022403D01*
X107650280Y-82048336D01*
X107668934Y-82071066D01*
X107691664Y-82089720D01*
X107717597Y-82103582D01*
X107745736Y-82112118D01*
X107775000Y-82115000D01*
X111767000Y-82115000D01*
X111767000Y-89435000D01*
X100863000Y-89435000D01*
X100863000Y-87150779D01*
X100937587Y-87039151D01*
X101017341Y-86846607D01*
X101058000Y-86642204D01*
X101058000Y-86433796D01*
X101017341Y-86229393D01*
X100937587Y-86036849D01*
X100821802Y-85863564D01*
X100783000Y-85824762D01*
X100783000Y-85473238D01*
X100821802Y-85434436D01*
X100937587Y-85261151D01*
X101017341Y-85068607D01*
X101058000Y-84864204D01*
X101058000Y-84655796D01*
X101017341Y-84451393D01*
X100937587Y-84258849D01*
X100821802Y-84085564D01*
X100674436Y-83938198D01*
X100501151Y-83822413D01*
X100308607Y-83742659D01*
X100104204Y-83702000D01*
X99895796Y-83702000D01*
X99691393Y-83742659D01*
X99498849Y-83822413D01*
X99325564Y-83938198D01*
X99178198Y-84085564D01*
X99062413Y-84258849D01*
X98982659Y-84451393D01*
X98942000Y-84655796D01*
X98942000Y-84864204D01*
X98982659Y-85068607D01*
X99062413Y-85261151D01*
X99178198Y-85434436D01*
X99217001Y-85473239D01*
X99217000Y-85824762D01*
X99178198Y-85863564D01*
X99062413Y-86036849D01*
X98982659Y-86229393D01*
X98942000Y-86433796D01*
X98942000Y-86642204D01*
X98982659Y-86846607D01*
X99062413Y-87039151D01*
X99178198Y-87212436D01*
X99297001Y-87331239D01*
X99297000Y-89435000D01*
X96343000Y-89435000D01*
X96343000Y-88249846D01*
X96397587Y-88168151D01*
X96477341Y-87975607D01*
X96518000Y-87771204D01*
X96518000Y-87562796D01*
X96477341Y-87358393D01*
X96397587Y-87165849D01*
X96343000Y-87084154D01*
X96343000Y-79133000D01*
X96553048Y-79133000D01*
X96522413Y-79178849D01*
X96442659Y-79371393D01*
X96402000Y-79575796D01*
X96402000Y-79784204D01*
X96442659Y-79988607D01*
X96522413Y-80181151D01*
X96638198Y-80354436D01*
X96677000Y-80393238D01*
X96677000Y-80403550D01*
X96673213Y-80442000D01*
X96677000Y-80480450D01*
X96677000Y-80480459D01*
X96688330Y-80595494D01*
X96733103Y-80743090D01*
X96805810Y-80879115D01*
X96903657Y-80998343D01*
X96933536Y-81022864D01*
X97387136Y-81476464D01*
X97411657Y-81506343D01*
X97469495Y-81553809D01*
X97530883Y-81604190D01*
X97578265Y-81629515D01*
X97666909Y-81676897D01*
X97814505Y-81721670D01*
X97929540Y-81733000D01*
X97929549Y-81733000D01*
X97967999Y-81736787D01*
X98006449Y-81733000D01*
X98692067Y-81733000D01*
X98701521Y-81828990D01*
X98739147Y-81953024D01*
X98800246Y-82067334D01*
X98882473Y-82167527D01*
X98982666Y-82249754D01*
X99096976Y-82310853D01*
X99221010Y-82348479D01*
X99350000Y-82361183D01*
X100650000Y-82361183D01*
X100778990Y-82348479D01*
X100903024Y-82310853D01*
X101017334Y-82249754D01*
X101117527Y-82167527D01*
X101199754Y-82067334D01*
X101260853Y-81953024D01*
X101285534Y-81871665D01*
X101304147Y-81933024D01*
X101365246Y-82047334D01*
X101447473Y-82147527D01*
X101547666Y-82229754D01*
X101661976Y-82290853D01*
X101718007Y-82307850D01*
X101602413Y-82480849D01*
X101522659Y-82673393D01*
X101482000Y-82877796D01*
X101482000Y-83086204D01*
X101522659Y-83290607D01*
X101602413Y-83483151D01*
X101718198Y-83656436D01*
X101757001Y-83695239D01*
X101757001Y-83959540D01*
X101757000Y-85824762D01*
X101718198Y-85863564D01*
X101602413Y-86036849D01*
X101522659Y-86229393D01*
X101482000Y-86433796D01*
X101482000Y-86642204D01*
X101522659Y-86846607D01*
X101602413Y-87039151D01*
X101718198Y-87212436D01*
X101865564Y-87359802D01*
X102038849Y-87475587D01*
X102231393Y-87555341D01*
X102435796Y-87596000D01*
X102644204Y-87596000D01*
X102848607Y-87555341D01*
X103041151Y-87475587D01*
X103214436Y-87359802D01*
X103361802Y-87212436D01*
X103477587Y-87039151D01*
X103557341Y-86846607D01*
X103598000Y-86642204D01*
X103598000Y-86433796D01*
X103557341Y-86229393D01*
X103477587Y-86036849D01*
X103361802Y-85863564D01*
X103323000Y-85824762D01*
X103323000Y-83695238D01*
X103361802Y-83656436D01*
X103477587Y-83483151D01*
X103557341Y-83290607D01*
X103598000Y-83086204D01*
X103598000Y-82877796D01*
X103557341Y-82673393D01*
X103477587Y-82480849D01*
X103361993Y-82307850D01*
X103418024Y-82290853D01*
X103532334Y-82229754D01*
X103632527Y-82147527D01*
X103714754Y-82047334D01*
X103775853Y-81933024D01*
X103813479Y-81808990D01*
X103826183Y-81680000D01*
X103826183Y-80180000D01*
X103813479Y-80051010D01*
X103775853Y-79926976D01*
X103714754Y-79812666D01*
X103632527Y-79712473D01*
X103592960Y-79680001D01*
X103632528Y-79647528D01*
X103714754Y-79547334D01*
X103775854Y-79433024D01*
X103813480Y-79308991D01*
X103826184Y-79180000D01*
X103823000Y-78698500D01*
X103658500Y-78534000D01*
X102644000Y-78534000D01*
X102644000Y-78554000D01*
X102436000Y-78554000D01*
X102436000Y-78534000D01*
X102416000Y-78534000D01*
X102416000Y-78326000D01*
X102436000Y-78326000D01*
X102436000Y-77186500D01*
X102644000Y-77186500D01*
X102644000Y-78326000D01*
X103658500Y-78326000D01*
X103823000Y-78161500D01*
X103826184Y-77680000D01*
X103813480Y-77551009D01*
X103775854Y-77426976D01*
X103714754Y-77312666D01*
X103632528Y-77212472D01*
X103532334Y-77130246D01*
X103418024Y-77069146D01*
X103293991Y-77031520D01*
X103165000Y-77018816D01*
X102808500Y-77022000D01*
X102644000Y-77186500D01*
X102436000Y-77186500D01*
X102271500Y-77022000D01*
X101915000Y-77018816D01*
X101786009Y-77031520D01*
X101661976Y-77069146D01*
X101547666Y-77130246D01*
X101447472Y-77212472D01*
X101365246Y-77312666D01*
X101304146Y-77426976D01*
X101304029Y-77427362D01*
X101298479Y-77371010D01*
X101260853Y-77246976D01*
X101199754Y-77132666D01*
X101117527Y-77032473D01*
X101017334Y-76950246D01*
X100903024Y-76889147D01*
X100778990Y-76851521D01*
X100650000Y-76838817D01*
X99350000Y-76838817D01*
X99221010Y-76851521D01*
X99096976Y-76889147D01*
X98982666Y-76950246D01*
X98882473Y-77032473D01*
X98800246Y-77132666D01*
X98739147Y-77246976D01*
X98702737Y-77367000D01*
X96343000Y-77367000D01*
X96343000Y-73436846D01*
X96397587Y-73355151D01*
X96466627Y-73188472D01*
X96522413Y-73323151D01*
X96638198Y-73496436D01*
X96677000Y-73535238D01*
X96677001Y-75410761D01*
X96638198Y-75449564D01*
X96522413Y-75622849D01*
X96442659Y-75815393D01*
X96402000Y-76019796D01*
X96402000Y-76228204D01*
X96442659Y-76432607D01*
X96522413Y-76625151D01*
X96638198Y-76798436D01*
X96785564Y-76945802D01*
X96958849Y-77061587D01*
X97151393Y-77141341D01*
X97355796Y-77182000D01*
X97564204Y-77182000D01*
X97768607Y-77141341D01*
X97961151Y-77061587D01*
X98134436Y-76945802D01*
X98281802Y-76798436D01*
X98397587Y-76625151D01*
X98477341Y-76432607D01*
X98518000Y-76228204D01*
X98518000Y-76019796D01*
X98477341Y-75815393D01*
X98397587Y-75622849D01*
X98281802Y-75449564D01*
X98243000Y-75410762D01*
X98243000Y-73535238D01*
X98281802Y-73496436D01*
X98397587Y-73323151D01*
X98477341Y-73130607D01*
X98518000Y-72926204D01*
X98518000Y-72717796D01*
X98942000Y-72717796D01*
X98942000Y-72926204D01*
X98982659Y-73130607D01*
X99062413Y-73323151D01*
X99178198Y-73496436D01*
X99217000Y-73535238D01*
X99217001Y-73886761D01*
X99178198Y-73925564D01*
X99062413Y-74098849D01*
X98982659Y-74291393D01*
X98942000Y-74495796D01*
X98942000Y-74704204D01*
X98982659Y-74908607D01*
X99062413Y-75101151D01*
X99178198Y-75274436D01*
X99325564Y-75421802D01*
X99498849Y-75537587D01*
X99691393Y-75617341D01*
X99895796Y-75658000D01*
X100104204Y-75658000D01*
X100308607Y-75617341D01*
X100501151Y-75537587D01*
X100674436Y-75421802D01*
X100821802Y-75274436D01*
X100937587Y-75101151D01*
X101017341Y-74908607D01*
X101058000Y-74704204D01*
X101058000Y-74495796D01*
X101017341Y-74291393D01*
X100937587Y-74098849D01*
X100821802Y-73925564D01*
X100783000Y-73886762D01*
X100783000Y-73535238D01*
X100821802Y-73496436D01*
X100937587Y-73323151D01*
X101017341Y-73130607D01*
X101058000Y-72926204D01*
X101058000Y-72717796D01*
X101482000Y-72717796D01*
X101482000Y-72926204D01*
X101522659Y-73130607D01*
X101602413Y-73323151D01*
X101718198Y-73496436D01*
X101757000Y-73535238D01*
X101757001Y-73886761D01*
X101718198Y-73925564D01*
X101602413Y-74098849D01*
X101522659Y-74291393D01*
X101482000Y-74495796D01*
X101482000Y-74704204D01*
X101522659Y-74908607D01*
X101602413Y-75101151D01*
X101718198Y-75274436D01*
X101865564Y-75421802D01*
X102038849Y-75537587D01*
X102231393Y-75617341D01*
X102435796Y-75658000D01*
X102644204Y-75658000D01*
X102848607Y-75617341D01*
X103041151Y-75537587D01*
X103214436Y-75421802D01*
X103361802Y-75274436D01*
X103477587Y-75101151D01*
X103557341Y-74908607D01*
X103598000Y-74704204D01*
X103598000Y-74495796D01*
X103557341Y-74291393D01*
X103477587Y-74098849D01*
X103361802Y-73925564D01*
X103323000Y-73886762D01*
X103323000Y-73535238D01*
X103361802Y-73496436D01*
X103477587Y-73323151D01*
X103557341Y-73130607D01*
X103598000Y-72926204D01*
X103598000Y-72717796D01*
X103557341Y-72513393D01*
X103477587Y-72320849D01*
X103361802Y-72147564D01*
X103214436Y-72000198D01*
X103041151Y-71884413D01*
X102848607Y-71804659D01*
X102644204Y-71764000D01*
X102435796Y-71764000D01*
X102231393Y-71804659D01*
X102038849Y-71884413D01*
X101865564Y-72000198D01*
X101718198Y-72147564D01*
X101602413Y-72320849D01*
X101522659Y-72513393D01*
X101482000Y-72717796D01*
X101058000Y-72717796D01*
X101017341Y-72513393D01*
X100937587Y-72320849D01*
X100821802Y-72147564D01*
X100674436Y-72000198D01*
X100501151Y-71884413D01*
X100308607Y-71804659D01*
X100104204Y-71764000D01*
X99895796Y-71764000D01*
X99691393Y-71804659D01*
X99498849Y-71884413D01*
X99325564Y-72000198D01*
X99178198Y-72147564D01*
X99062413Y-72320849D01*
X98982659Y-72513393D01*
X98942000Y-72717796D01*
X98518000Y-72717796D01*
X98477341Y-72513393D01*
X98397587Y-72320849D01*
X98281802Y-72147564D01*
X98134436Y-72000198D01*
X97961151Y-71884413D01*
X97768607Y-71804659D01*
X97564204Y-71764000D01*
X97355796Y-71764000D01*
X97151393Y-71804659D01*
X96958849Y-71884413D01*
X96785564Y-72000198D01*
X96638198Y-72147564D01*
X96522413Y-72320849D01*
X96453373Y-72487528D01*
X96397587Y-72352849D01*
X96343000Y-72271154D01*
X96343000Y-67630000D01*
X101048816Y-67630000D01*
X101061520Y-67758991D01*
X101099146Y-67883024D01*
X101160246Y-67997334D01*
X101242472Y-68097528D01*
X101342666Y-68179754D01*
X101456976Y-68240854D01*
X101581009Y-68278480D01*
X101710000Y-68291184D01*
X102191500Y-68288000D01*
X102356000Y-68123500D01*
X102356000Y-67084000D01*
X101216500Y-67084000D01*
X101052000Y-67248500D01*
X101048816Y-67630000D01*
X96343000Y-67630000D01*
X96343000Y-66330000D01*
X101048816Y-66330000D01*
X101052000Y-66711500D01*
X101216500Y-66876000D01*
X102356000Y-66876000D01*
X102356000Y-65836500D01*
X102564000Y-65836500D01*
X102564000Y-66876000D01*
X102584000Y-66876000D01*
X102584000Y-67084000D01*
X102564000Y-67084000D01*
X102564000Y-68123500D01*
X102728500Y-68288000D01*
X103210000Y-68291184D01*
X103338991Y-68278480D01*
X103463024Y-68240854D01*
X103577334Y-68179754D01*
X103677528Y-68097528D01*
X103759754Y-67997334D01*
X103810000Y-67903330D01*
X103860246Y-67997334D01*
X103942473Y-68097527D01*
X104042666Y-68179754D01*
X104156976Y-68240853D01*
X104281010Y-68278479D01*
X104297001Y-68280054D01*
X104297000Y-72108762D01*
X104258198Y-72147564D01*
X104142413Y-72320849D01*
X104062659Y-72513393D01*
X104022000Y-72717796D01*
X104022000Y-72926204D01*
X104062659Y-73130607D01*
X104142413Y-73323151D01*
X104258198Y-73496436D01*
X104405564Y-73643802D01*
X104578849Y-73759587D01*
X104771393Y-73839341D01*
X104975796Y-73880000D01*
X105184204Y-73880000D01*
X105388607Y-73839341D01*
X105581151Y-73759587D01*
X105754436Y-73643802D01*
X105901802Y-73496436D01*
X106017587Y-73323151D01*
X106097341Y-73130607D01*
X106138000Y-72926204D01*
X106138000Y-72717796D01*
X106097341Y-72513393D01*
X106017587Y-72320849D01*
X105901802Y-72147564D01*
X105863000Y-72108762D01*
X105863000Y-68291183D01*
X105910000Y-68291183D01*
X106038990Y-68278479D01*
X106163024Y-68240853D01*
X106277334Y-68179754D01*
X106377527Y-68097527D01*
X106459754Y-67997334D01*
X106520853Y-67883024D01*
X106558479Y-67758990D01*
X106571183Y-67630000D01*
X106571183Y-66330000D01*
X106558479Y-66201010D01*
X106520853Y-66076976D01*
X106459754Y-65962666D01*
X106377527Y-65862473D01*
X106277334Y-65780246D01*
X106163024Y-65719147D01*
X106038990Y-65681521D01*
X105910000Y-65668817D01*
X104410000Y-65668817D01*
X104281010Y-65681521D01*
X104156976Y-65719147D01*
X104042666Y-65780246D01*
X103942473Y-65862473D01*
X103860246Y-65962666D01*
X103810000Y-66056670D01*
X103759754Y-65962666D01*
X103677528Y-65862472D01*
X103577334Y-65780246D01*
X103463024Y-65719146D01*
X103338991Y-65681520D01*
X103210000Y-65668816D01*
X102728500Y-65672000D01*
X102564000Y-65836500D01*
X102356000Y-65836500D01*
X102191500Y-65672000D01*
X101710000Y-65668816D01*
X101581009Y-65681520D01*
X101456976Y-65719146D01*
X101342666Y-65780246D01*
X101242472Y-65862472D01*
X101160246Y-65962666D01*
X101099146Y-66076976D01*
X101061520Y-66201009D01*
X101048816Y-66330000D01*
X96343000Y-66330000D01*
X96343000Y-65355000D01*
X97146634Y-65355000D01*
X97190000Y-65359271D01*
X97233366Y-65355000D01*
X97233373Y-65355000D01*
X97363098Y-65342223D01*
X97529544Y-65291732D01*
X97682942Y-65209740D01*
X97817396Y-65099396D01*
X97845053Y-65065696D01*
X98053696Y-64857053D01*
X98087396Y-64829396D01*
X98197740Y-64694942D01*
X98279732Y-64541544D01*
X98306592Y-64453000D01*
X98330223Y-64375099D01*
X98347272Y-64202000D01*
X98343000Y-64158627D01*
X98343000Y-63260846D01*
X98397587Y-63179151D01*
X98477341Y-62986607D01*
X98518000Y-62782204D01*
X98518000Y-62573796D01*
X98477341Y-62369393D01*
X98397587Y-62176849D01*
X98281802Y-62003564D01*
X98134436Y-61856198D01*
X97961151Y-61740413D01*
X97768607Y-61660659D01*
X97564204Y-61620000D01*
X97355796Y-61620000D01*
X97151393Y-61660659D01*
X96958849Y-61740413D01*
X96785564Y-61856198D01*
X96638198Y-62003564D01*
X96522413Y-62176849D01*
X96442659Y-62369393D01*
X96402000Y-62573796D01*
X96402000Y-62782204D01*
X96442659Y-62986607D01*
X96522413Y-63179151D01*
X96577000Y-63260847D01*
X96577001Y-63589000D01*
X95503373Y-63589000D01*
X95460000Y-63584728D01*
X95416627Y-63589000D01*
X93756635Y-63589000D01*
X93740853Y-63536976D01*
X93679754Y-63422666D01*
X93597527Y-63322473D01*
X93497334Y-63240246D01*
X93383024Y-63179147D01*
X93258990Y-63141521D01*
X93130000Y-63128817D01*
X91630000Y-63128817D01*
X91501010Y-63141521D01*
X91376976Y-63179147D01*
X91262666Y-63240246D01*
X91162473Y-63322473D01*
X91080246Y-63422666D01*
X91030000Y-63516671D01*
X90979754Y-63422666D01*
X90897527Y-63322473D01*
X90797334Y-63240246D01*
X90683024Y-63179147D01*
X90558990Y-63141521D01*
X90430000Y-63128817D01*
X88930000Y-63128817D01*
X88801010Y-63141521D01*
X88676976Y-63179147D01*
X88562666Y-63240246D01*
X88462473Y-63322473D01*
X88435000Y-63355949D01*
X88435000Y-60967766D01*
X88453206Y-60940519D01*
X88540499Y-60729776D01*
X88556367Y-60650000D01*
X112350000Y-60650000D01*
X112350000Y-63779520D01*
X112350000Y-63779520D01*
G37*
X112350000Y-63779520D02*
X112218136Y-63819520D01*
X112090797Y-63887584D01*
X111979183Y-63979183D01*
X111887584Y-64090797D01*
X111819520Y-64218136D01*
X111777607Y-64356307D01*
X111763454Y-64500000D01*
X111767001Y-64536012D01*
X111767001Y-74830000D01*
X107775000Y-74830000D01*
X107745736Y-74832882D01*
X107717597Y-74841418D01*
X107691664Y-74855280D01*
X107668934Y-74873934D01*
X107650280Y-74896664D01*
X107636418Y-74922597D01*
X107627882Y-74950736D01*
X107625000Y-74980000D01*
X107625000Y-81965000D01*
X107627882Y-81994264D01*
X107636418Y-82022403D01*
X107650280Y-82048336D01*
X107668934Y-82071066D01*
X107691664Y-82089720D01*
X107717597Y-82103582D01*
X107745736Y-82112118D01*
X107775000Y-82115000D01*
X111767000Y-82115000D01*
X111767000Y-89435000D01*
X100863000Y-89435000D01*
X100863000Y-87150779D01*
X100937587Y-87039151D01*
X101017341Y-86846607D01*
X101058000Y-86642204D01*
X101058000Y-86433796D01*
X101017341Y-86229393D01*
X100937587Y-86036849D01*
X100821802Y-85863564D01*
X100783000Y-85824762D01*
X100783000Y-85473238D01*
X100821802Y-85434436D01*
X100937587Y-85261151D01*
X101017341Y-85068607D01*
X101058000Y-84864204D01*
X101058000Y-84655796D01*
X101017341Y-84451393D01*
X100937587Y-84258849D01*
X100821802Y-84085564D01*
X100674436Y-83938198D01*
X100501151Y-83822413D01*
X100308607Y-83742659D01*
X100104204Y-83702000D01*
X99895796Y-83702000D01*
X99691393Y-83742659D01*
X99498849Y-83822413D01*
X99325564Y-83938198D01*
X99178198Y-84085564D01*
X99062413Y-84258849D01*
X98982659Y-84451393D01*
X98942000Y-84655796D01*
X98942000Y-84864204D01*
X98982659Y-85068607D01*
X99062413Y-85261151D01*
X99178198Y-85434436D01*
X99217001Y-85473239D01*
X99217000Y-85824762D01*
X99178198Y-85863564D01*
X99062413Y-86036849D01*
X98982659Y-86229393D01*
X98942000Y-86433796D01*
X98942000Y-86642204D01*
X98982659Y-86846607D01*
X99062413Y-87039151D01*
X99178198Y-87212436D01*
X99297001Y-87331239D01*
X99297000Y-89435000D01*
X96343000Y-89435000D01*
X96343000Y-88249846D01*
X96397587Y-88168151D01*
X96477341Y-87975607D01*
X96518000Y-87771204D01*
X96518000Y-87562796D01*
X96477341Y-87358393D01*
X96397587Y-87165849D01*
X96343000Y-87084154D01*
X96343000Y-79133000D01*
X96553048Y-79133000D01*
X96522413Y-79178849D01*
X96442659Y-79371393D01*
X96402000Y-79575796D01*
X96402000Y-79784204D01*
X96442659Y-79988607D01*
X96522413Y-80181151D01*
X96638198Y-80354436D01*
X96677000Y-80393238D01*
X96677000Y-80403550D01*
X96673213Y-80442000D01*
X96677000Y-80480450D01*
X96677000Y-80480459D01*
X96688330Y-80595494D01*
X96733103Y-80743090D01*
X96805810Y-80879115D01*
X96903657Y-80998343D01*
X96933536Y-81022864D01*
X97387136Y-81476464D01*
X97411657Y-81506343D01*
X97469495Y-81553809D01*
X97530883Y-81604190D01*
X97578265Y-81629515D01*
X97666909Y-81676897D01*
X97814505Y-81721670D01*
X97929540Y-81733000D01*
X97929549Y-81733000D01*
X97967999Y-81736787D01*
X98006449Y-81733000D01*
X98692067Y-81733000D01*
X98701521Y-81828990D01*
X98739147Y-81953024D01*
X98800246Y-82067334D01*
X98882473Y-82167527D01*
X98982666Y-82249754D01*
X99096976Y-82310853D01*
X99221010Y-82348479D01*
X99350000Y-82361183D01*
X100650000Y-82361183D01*
X100778990Y-82348479D01*
X100903024Y-82310853D01*
X101017334Y-82249754D01*
X101117527Y-82167527D01*
X101199754Y-82067334D01*
X101260853Y-81953024D01*
X101285534Y-81871665D01*
X101304147Y-81933024D01*
X101365246Y-82047334D01*
X101447473Y-82147527D01*
X101547666Y-82229754D01*
X101661976Y-82290853D01*
X101718007Y-82307850D01*
X101602413Y-82480849D01*
X101522659Y-82673393D01*
X101482000Y-82877796D01*
X101482000Y-83086204D01*
X101522659Y-83290607D01*
X101602413Y-83483151D01*
X101718198Y-83656436D01*
X101757001Y-83695239D01*
X101757001Y-83959540D01*
X101757000Y-85824762D01*
X101718198Y-85863564D01*
X101602413Y-86036849D01*
X101522659Y-86229393D01*
X101482000Y-86433796D01*
X101482000Y-86642204D01*
X101522659Y-86846607D01*
X101602413Y-87039151D01*
X101718198Y-87212436D01*
X101865564Y-87359802D01*
X102038849Y-87475587D01*
X102231393Y-87555341D01*
X102435796Y-87596000D01*
X102644204Y-87596000D01*
X102848607Y-87555341D01*
X103041151Y-87475587D01*
X103214436Y-87359802D01*
X103361802Y-87212436D01*
X103477587Y-87039151D01*
X103557341Y-86846607D01*
X103598000Y-86642204D01*
X103598000Y-86433796D01*
X103557341Y-86229393D01*
X103477587Y-86036849D01*
X103361802Y-85863564D01*
X103323000Y-85824762D01*
X103323000Y-83695238D01*
X103361802Y-83656436D01*
X103477587Y-83483151D01*
X103557341Y-83290607D01*
X103598000Y-83086204D01*
X103598000Y-82877796D01*
X103557341Y-82673393D01*
X103477587Y-82480849D01*
X103361993Y-82307850D01*
X103418024Y-82290853D01*
X103532334Y-82229754D01*
X103632527Y-82147527D01*
X103714754Y-82047334D01*
X103775853Y-81933024D01*
X103813479Y-81808990D01*
X103826183Y-81680000D01*
X103826183Y-80180000D01*
X103813479Y-80051010D01*
X103775853Y-79926976D01*
X103714754Y-79812666D01*
X103632527Y-79712473D01*
X103592960Y-79680001D01*
X103632528Y-79647528D01*
X103714754Y-79547334D01*
X103775854Y-79433024D01*
X103813480Y-79308991D01*
X103826184Y-79180000D01*
X103823000Y-78698500D01*
X103658500Y-78534000D01*
X102644000Y-78534000D01*
X102644000Y-78554000D01*
X102436000Y-78554000D01*
X102436000Y-78534000D01*
X102416000Y-78534000D01*
X102416000Y-78326000D01*
X102436000Y-78326000D01*
X102436000Y-77186500D01*
X102644000Y-77186500D01*
X102644000Y-78326000D01*
X103658500Y-78326000D01*
X103823000Y-78161500D01*
X103826184Y-77680000D01*
X103813480Y-77551009D01*
X103775854Y-77426976D01*
X103714754Y-77312666D01*
X103632528Y-77212472D01*
X103532334Y-77130246D01*
X103418024Y-77069146D01*
X103293991Y-77031520D01*
X103165000Y-77018816D01*
X102808500Y-77022000D01*
X102644000Y-77186500D01*
X102436000Y-77186500D01*
X102271500Y-77022000D01*
X101915000Y-77018816D01*
X101786009Y-77031520D01*
X101661976Y-77069146D01*
X101547666Y-77130246D01*
X101447472Y-77212472D01*
X101365246Y-77312666D01*
X101304146Y-77426976D01*
X101304029Y-77427362D01*
X101298479Y-77371010D01*
X101260853Y-77246976D01*
X101199754Y-77132666D01*
X101117527Y-77032473D01*
X101017334Y-76950246D01*
X100903024Y-76889147D01*
X100778990Y-76851521D01*
X100650000Y-76838817D01*
X99350000Y-76838817D01*
X99221010Y-76851521D01*
X99096976Y-76889147D01*
X98982666Y-76950246D01*
X98882473Y-77032473D01*
X98800246Y-77132666D01*
X98739147Y-77246976D01*
X98702737Y-77367000D01*
X96343000Y-77367000D01*
X96343000Y-73436846D01*
X96397587Y-73355151D01*
X96466627Y-73188472D01*
X96522413Y-73323151D01*
X96638198Y-73496436D01*
X96677000Y-73535238D01*
X96677001Y-75410761D01*
X96638198Y-75449564D01*
X96522413Y-75622849D01*
X96442659Y-75815393D01*
X96402000Y-76019796D01*
X96402000Y-76228204D01*
X96442659Y-76432607D01*
X96522413Y-76625151D01*
X96638198Y-76798436D01*
X96785564Y-76945802D01*
X96958849Y-77061587D01*
X97151393Y-77141341D01*
X97355796Y-77182000D01*
X97564204Y-77182000D01*
X97768607Y-77141341D01*
X97961151Y-77061587D01*
X98134436Y-76945802D01*
X98281802Y-76798436D01*
X98397587Y-76625151D01*
X98477341Y-76432607D01*
X98518000Y-76228204D01*
X98518000Y-76019796D01*
X98477341Y-75815393D01*
X98397587Y-75622849D01*
X98281802Y-75449564D01*
X98243000Y-75410762D01*
X98243000Y-73535238D01*
X98281802Y-73496436D01*
X98397587Y-73323151D01*
X98477341Y-73130607D01*
X98518000Y-72926204D01*
X98518000Y-72717796D01*
X98942000Y-72717796D01*
X98942000Y-72926204D01*
X98982659Y-73130607D01*
X99062413Y-73323151D01*
X99178198Y-73496436D01*
X99217000Y-73535238D01*
X99217001Y-73886761D01*
X99178198Y-73925564D01*
X99062413Y-74098849D01*
X98982659Y-74291393D01*
X98942000Y-74495796D01*
X98942000Y-74704204D01*
X98982659Y-74908607D01*
X99062413Y-75101151D01*
X99178198Y-75274436D01*
X99325564Y-75421802D01*
X99498849Y-75537587D01*
X99691393Y-75617341D01*
X99895796Y-75658000D01*
X100104204Y-75658000D01*
X100308607Y-75617341D01*
X100501151Y-75537587D01*
X100674436Y-75421802D01*
X100821802Y-75274436D01*
X100937587Y-75101151D01*
X101017341Y-74908607D01*
X101058000Y-74704204D01*
X101058000Y-74495796D01*
X101017341Y-74291393D01*
X100937587Y-74098849D01*
X100821802Y-73925564D01*
X100783000Y-73886762D01*
X100783000Y-73535238D01*
X100821802Y-73496436D01*
X100937587Y-73323151D01*
X101017341Y-73130607D01*
X101058000Y-72926204D01*
X101058000Y-72717796D01*
X101482000Y-72717796D01*
X101482000Y-72926204D01*
X101522659Y-73130607D01*
X101602413Y-73323151D01*
X101718198Y-73496436D01*
X101757000Y-73535238D01*
X101757001Y-73886761D01*
X101718198Y-73925564D01*
X101602413Y-74098849D01*
X101522659Y-74291393D01*
X101482000Y-74495796D01*
X101482000Y-74704204D01*
X101522659Y-74908607D01*
X101602413Y-75101151D01*
X101718198Y-75274436D01*
X101865564Y-75421802D01*
X102038849Y-75537587D01*
X102231393Y-75617341D01*
X102435796Y-75658000D01*
X102644204Y-75658000D01*
X102848607Y-75617341D01*
X103041151Y-75537587D01*
X103214436Y-75421802D01*
X103361802Y-75274436D01*
X103477587Y-75101151D01*
X103557341Y-74908607D01*
X103598000Y-74704204D01*
X103598000Y-74495796D01*
X103557341Y-74291393D01*
X103477587Y-74098849D01*
X103361802Y-73925564D01*
X103323000Y-73886762D01*
X103323000Y-73535238D01*
X103361802Y-73496436D01*
X103477587Y-73323151D01*
X103557341Y-73130607D01*
X103598000Y-72926204D01*
X103598000Y-72717796D01*
X103557341Y-72513393D01*
X103477587Y-72320849D01*
X103361802Y-72147564D01*
X103214436Y-72000198D01*
X103041151Y-71884413D01*
X102848607Y-71804659D01*
X102644204Y-71764000D01*
X102435796Y-71764000D01*
X102231393Y-71804659D01*
X102038849Y-71884413D01*
X101865564Y-72000198D01*
X101718198Y-72147564D01*
X101602413Y-72320849D01*
X101522659Y-72513393D01*
X101482000Y-72717796D01*
X101058000Y-72717796D01*
X101017341Y-72513393D01*
X100937587Y-72320849D01*
X100821802Y-72147564D01*
X100674436Y-72000198D01*
X100501151Y-71884413D01*
X100308607Y-71804659D01*
X100104204Y-71764000D01*
X99895796Y-71764000D01*
X99691393Y-71804659D01*
X99498849Y-71884413D01*
X99325564Y-72000198D01*
X99178198Y-72147564D01*
X99062413Y-72320849D01*
X98982659Y-72513393D01*
X98942000Y-72717796D01*
X98518000Y-72717796D01*
X98477341Y-72513393D01*
X98397587Y-72320849D01*
X98281802Y-72147564D01*
X98134436Y-72000198D01*
X97961151Y-71884413D01*
X97768607Y-71804659D01*
X97564204Y-71764000D01*
X97355796Y-71764000D01*
X97151393Y-71804659D01*
X96958849Y-71884413D01*
X96785564Y-72000198D01*
X96638198Y-72147564D01*
X96522413Y-72320849D01*
X96453373Y-72487528D01*
X96397587Y-72352849D01*
X96343000Y-72271154D01*
X96343000Y-67630000D01*
X101048816Y-67630000D01*
X101061520Y-67758991D01*
X101099146Y-67883024D01*
X101160246Y-67997334D01*
X101242472Y-68097528D01*
X101342666Y-68179754D01*
X101456976Y-68240854D01*
X101581009Y-68278480D01*
X101710000Y-68291184D01*
X102191500Y-68288000D01*
X102356000Y-68123500D01*
X102356000Y-67084000D01*
X101216500Y-67084000D01*
X101052000Y-67248500D01*
X101048816Y-67630000D01*
X96343000Y-67630000D01*
X96343000Y-66330000D01*
X101048816Y-66330000D01*
X101052000Y-66711500D01*
X101216500Y-66876000D01*
X102356000Y-66876000D01*
X102356000Y-65836500D01*
X102564000Y-65836500D01*
X102564000Y-66876000D01*
X102584000Y-66876000D01*
X102584000Y-67084000D01*
X102564000Y-67084000D01*
X102564000Y-68123500D01*
X102728500Y-68288000D01*
X103210000Y-68291184D01*
X103338991Y-68278480D01*
X103463024Y-68240854D01*
X103577334Y-68179754D01*
X103677528Y-68097528D01*
X103759754Y-67997334D01*
X103810000Y-67903330D01*
X103860246Y-67997334D01*
X103942473Y-68097527D01*
X104042666Y-68179754D01*
X104156976Y-68240853D01*
X104281010Y-68278479D01*
X104297001Y-68280054D01*
X104297000Y-72108762D01*
X104258198Y-72147564D01*
X104142413Y-72320849D01*
X104062659Y-72513393D01*
X104022000Y-72717796D01*
X104022000Y-72926204D01*
X104062659Y-73130607D01*
X104142413Y-73323151D01*
X104258198Y-73496436D01*
X104405564Y-73643802D01*
X104578849Y-73759587D01*
X104771393Y-73839341D01*
X104975796Y-73880000D01*
X105184204Y-73880000D01*
X105388607Y-73839341D01*
X105581151Y-73759587D01*
X105754436Y-73643802D01*
X105901802Y-73496436D01*
X106017587Y-73323151D01*
X106097341Y-73130607D01*
X106138000Y-72926204D01*
X106138000Y-72717796D01*
X106097341Y-72513393D01*
X106017587Y-72320849D01*
X105901802Y-72147564D01*
X105863000Y-72108762D01*
X105863000Y-68291183D01*
X105910000Y-68291183D01*
X106038990Y-68278479D01*
X106163024Y-68240853D01*
X106277334Y-68179754D01*
X106377527Y-68097527D01*
X106459754Y-67997334D01*
X106520853Y-67883024D01*
X106558479Y-67758990D01*
X106571183Y-67630000D01*
X106571183Y-66330000D01*
X106558479Y-66201010D01*
X106520853Y-66076976D01*
X106459754Y-65962666D01*
X106377527Y-65862473D01*
X106277334Y-65780246D01*
X106163024Y-65719147D01*
X106038990Y-65681521D01*
X105910000Y-65668817D01*
X104410000Y-65668817D01*
X104281010Y-65681521D01*
X104156976Y-65719147D01*
X104042666Y-65780246D01*
X103942473Y-65862473D01*
X103860246Y-65962666D01*
X103810000Y-66056670D01*
X103759754Y-65962666D01*
X103677528Y-65862472D01*
X103577334Y-65780246D01*
X103463024Y-65719146D01*
X103338991Y-65681520D01*
X103210000Y-65668816D01*
X102728500Y-65672000D01*
X102564000Y-65836500D01*
X102356000Y-65836500D01*
X102191500Y-65672000D01*
X101710000Y-65668816D01*
X101581009Y-65681520D01*
X101456976Y-65719146D01*
X101342666Y-65780246D01*
X101242472Y-65862472D01*
X101160246Y-65962666D01*
X101099146Y-66076976D01*
X101061520Y-66201009D01*
X101048816Y-66330000D01*
X96343000Y-66330000D01*
X96343000Y-65355000D01*
X97146634Y-65355000D01*
X97190000Y-65359271D01*
X97233366Y-65355000D01*
X97233373Y-65355000D01*
X97363098Y-65342223D01*
X97529544Y-65291732D01*
X97682942Y-65209740D01*
X97817396Y-65099396D01*
X97845053Y-65065696D01*
X98053696Y-64857053D01*
X98087396Y-64829396D01*
X98197740Y-64694942D01*
X98279732Y-64541544D01*
X98306592Y-64453000D01*
X98330223Y-64375099D01*
X98347272Y-64202000D01*
X98343000Y-64158627D01*
X98343000Y-63260846D01*
X98397587Y-63179151D01*
X98477341Y-62986607D01*
X98518000Y-62782204D01*
X98518000Y-62573796D01*
X98477341Y-62369393D01*
X98397587Y-62176849D01*
X98281802Y-62003564D01*
X98134436Y-61856198D01*
X97961151Y-61740413D01*
X97768607Y-61660659D01*
X97564204Y-61620000D01*
X97355796Y-61620000D01*
X97151393Y-61660659D01*
X96958849Y-61740413D01*
X96785564Y-61856198D01*
X96638198Y-62003564D01*
X96522413Y-62176849D01*
X96442659Y-62369393D01*
X96402000Y-62573796D01*
X96402000Y-62782204D01*
X96442659Y-62986607D01*
X96522413Y-63179151D01*
X96577000Y-63260847D01*
X96577001Y-63589000D01*
X95503373Y-63589000D01*
X95460000Y-63584728D01*
X95416627Y-63589000D01*
X93756635Y-63589000D01*
X93740853Y-63536976D01*
X93679754Y-63422666D01*
X93597527Y-63322473D01*
X93497334Y-63240246D01*
X93383024Y-63179147D01*
X93258990Y-63141521D01*
X93130000Y-63128817D01*
X91630000Y-63128817D01*
X91501010Y-63141521D01*
X91376976Y-63179147D01*
X91262666Y-63240246D01*
X91162473Y-63322473D01*
X91080246Y-63422666D01*
X91030000Y-63516671D01*
X90979754Y-63422666D01*
X90897527Y-63322473D01*
X90797334Y-63240246D01*
X90683024Y-63179147D01*
X90558990Y-63141521D01*
X90430000Y-63128817D01*
X88930000Y-63128817D01*
X88801010Y-63141521D01*
X88676976Y-63179147D01*
X88562666Y-63240246D01*
X88462473Y-63322473D01*
X88435000Y-63355949D01*
X88435000Y-60967766D01*
X88453206Y-60940519D01*
X88540499Y-60729776D01*
X88556367Y-60650000D01*
X112350000Y-60650000D01*
X112350000Y-63779520D01*
G36*
X94577000Y-65531372D02*
G01*
X94577001Y-65531382D01*
X94577000Y-72271153D01*
X94522413Y-72352849D01*
X94442659Y-72545393D01*
X94402000Y-72749796D01*
X94402000Y-72958204D01*
X94442659Y-73162607D01*
X94522413Y-73355151D01*
X94577000Y-73436847D01*
X94577001Y-78207618D01*
X94577000Y-78207628D01*
X94577000Y-78207634D01*
X94572729Y-78251000D01*
X94577000Y-78294366D01*
X94577001Y-87084152D01*
X94522413Y-87165849D01*
X94442659Y-87358393D01*
X94402000Y-87562796D01*
X94402000Y-87771204D01*
X94442659Y-87975607D01*
X94522413Y-88168151D01*
X94577000Y-88249847D01*
X94577000Y-89435000D01*
X89959000Y-89435000D01*
X89959000Y-73252504D01*
X89963876Y-73202999D01*
X89959000Y-73153494D01*
X89959000Y-73153482D01*
X89944415Y-73005397D01*
X89886776Y-72815389D01*
X89834611Y-72717796D01*
X89793176Y-72640275D01*
X89698777Y-72525250D01*
X89698776Y-72525249D01*
X89667212Y-72486788D01*
X89628751Y-72455224D01*
X88435000Y-71261473D01*
X88435000Y-70108807D01*
X88576849Y-70203587D01*
X88769393Y-70283341D01*
X88973796Y-70324000D01*
X89182204Y-70324000D01*
X89386607Y-70283341D01*
X89579151Y-70203587D01*
X89752436Y-70087802D01*
X89899802Y-69940436D01*
X90015587Y-69767151D01*
X90095341Y-69574607D01*
X90136000Y-69370204D01*
X90136000Y-69315329D01*
X90386469Y-69064860D01*
X90416343Y-69040343D01*
X90514190Y-68921116D01*
X90586897Y-68785091D01*
X90631670Y-68637495D01*
X90643000Y-68522460D01*
X90643000Y-68522451D01*
X90646787Y-68484001D01*
X90643000Y-68445551D01*
X90643000Y-68262933D01*
X90738990Y-68253479D01*
X90863024Y-68215853D01*
X90977334Y-68154754D01*
X91077527Y-68072527D01*
X91109999Y-68032960D01*
X91142472Y-68072528D01*
X91242666Y-68154754D01*
X91356976Y-68215854D01*
X91481009Y-68253480D01*
X91610000Y-68266184D01*
X92091500Y-68263000D01*
X92256000Y-68098500D01*
X92256000Y-67084000D01*
X92464000Y-67084000D01*
X92464000Y-68098500D01*
X92628500Y-68263000D01*
X93110000Y-68266184D01*
X93238991Y-68253480D01*
X93363024Y-68215854D01*
X93477334Y-68154754D01*
X93577528Y-68072528D01*
X93659754Y-67972334D01*
X93720854Y-67858024D01*
X93758480Y-67733991D01*
X93771184Y-67605000D01*
X93768000Y-67248500D01*
X93603500Y-67084000D01*
X92464000Y-67084000D01*
X92256000Y-67084000D01*
X92236000Y-67084000D01*
X92236000Y-66876000D01*
X92256000Y-66876000D01*
X92256000Y-66856000D01*
X92464000Y-66856000D01*
X92464000Y-66876000D01*
X93603500Y-66876000D01*
X93768000Y-66711500D01*
X93771184Y-66355000D01*
X93758480Y-66226009D01*
X93720854Y-66101976D01*
X93659754Y-65987666D01*
X93577528Y-65887472D01*
X93477334Y-65805246D01*
X93363024Y-65744146D01*
X93301667Y-65725533D01*
X93383024Y-65700853D01*
X93497334Y-65639754D01*
X93597527Y-65557527D01*
X93679754Y-65457334D01*
X93734452Y-65355000D01*
X94577000Y-65355000D01*
X94577000Y-65531372D01*
X94577000Y-65531372D01*
G37*
X94577000Y-65531372D02*
X94577001Y-65531382D01*
X94577000Y-72271153D01*
X94522413Y-72352849D01*
X94442659Y-72545393D01*
X94402000Y-72749796D01*
X94402000Y-72958204D01*
X94442659Y-73162607D01*
X94522413Y-73355151D01*
X94577000Y-73436847D01*
X94577001Y-78207618D01*
X94577000Y-78207628D01*
X94577000Y-78207634D01*
X94572729Y-78251000D01*
X94577000Y-78294366D01*
X94577001Y-87084152D01*
X94522413Y-87165849D01*
X94442659Y-87358393D01*
X94402000Y-87562796D01*
X94402000Y-87771204D01*
X94442659Y-87975607D01*
X94522413Y-88168151D01*
X94577000Y-88249847D01*
X94577000Y-89435000D01*
X89959000Y-89435000D01*
X89959000Y-73252504D01*
X89963876Y-73202999D01*
X89959000Y-73153494D01*
X89959000Y-73153482D01*
X89944415Y-73005397D01*
X89886776Y-72815389D01*
X89834611Y-72717796D01*
X89793176Y-72640275D01*
X89698777Y-72525250D01*
X89698776Y-72525249D01*
X89667212Y-72486788D01*
X89628751Y-72455224D01*
X88435000Y-71261473D01*
X88435000Y-70108807D01*
X88576849Y-70203587D01*
X88769393Y-70283341D01*
X88973796Y-70324000D01*
X89182204Y-70324000D01*
X89386607Y-70283341D01*
X89579151Y-70203587D01*
X89752436Y-70087802D01*
X89899802Y-69940436D01*
X90015587Y-69767151D01*
X90095341Y-69574607D01*
X90136000Y-69370204D01*
X90136000Y-69315329D01*
X90386469Y-69064860D01*
X90416343Y-69040343D01*
X90514190Y-68921116D01*
X90586897Y-68785091D01*
X90631670Y-68637495D01*
X90643000Y-68522460D01*
X90643000Y-68522451D01*
X90646787Y-68484001D01*
X90643000Y-68445551D01*
X90643000Y-68262933D01*
X90738990Y-68253479D01*
X90863024Y-68215853D01*
X90977334Y-68154754D01*
X91077527Y-68072527D01*
X91109999Y-68032960D01*
X91142472Y-68072528D01*
X91242666Y-68154754D01*
X91356976Y-68215854D01*
X91481009Y-68253480D01*
X91610000Y-68266184D01*
X92091500Y-68263000D01*
X92256000Y-68098500D01*
X92256000Y-67084000D01*
X92464000Y-67084000D01*
X92464000Y-68098500D01*
X92628500Y-68263000D01*
X93110000Y-68266184D01*
X93238991Y-68253480D01*
X93363024Y-68215854D01*
X93477334Y-68154754D01*
X93577528Y-68072528D01*
X93659754Y-67972334D01*
X93720854Y-67858024D01*
X93758480Y-67733991D01*
X93771184Y-67605000D01*
X93768000Y-67248500D01*
X93603500Y-67084000D01*
X92464000Y-67084000D01*
X92256000Y-67084000D01*
X92236000Y-67084000D01*
X92236000Y-66876000D01*
X92256000Y-66876000D01*
X92256000Y-66856000D01*
X92464000Y-66856000D01*
X92464000Y-66876000D01*
X93603500Y-66876000D01*
X93768000Y-66711500D01*
X93771184Y-66355000D01*
X93758480Y-66226009D01*
X93720854Y-66101976D01*
X93659754Y-65987666D01*
X93577528Y-65887472D01*
X93477334Y-65805246D01*
X93363024Y-65744146D01*
X93301667Y-65725533D01*
X93383024Y-65700853D01*
X93497334Y-65639754D01*
X93597527Y-65557527D01*
X93679754Y-65457334D01*
X93734452Y-65355000D01*
X94577000Y-65355000D01*
X94577000Y-65531372D01*
D29*
G36*
X66661797Y-90910516D02*
G01*
X66881639Y-91001577D01*
X67115022Y-91048000D01*
X67352978Y-91048000D01*
X67586361Y-91001577D01*
X67806203Y-90910516D01*
X67971601Y-90800000D01*
X81287001Y-90800000D01*
X81287001Y-92731161D01*
X81282486Y-92777000D01*
X81298806Y-92942695D01*
X81300501Y-92959900D01*
X81332609Y-93065745D01*
X81353851Y-93135771D01*
X81408355Y-93237740D01*
X81440487Y-93297855D01*
X81557078Y-93439923D01*
X81592683Y-93469143D01*
X82493501Y-94369961D01*
X82493501Y-94414629D01*
X82488185Y-94419945D01*
X82355984Y-94617797D01*
X82264923Y-94837639D01*
X82218500Y-95071022D01*
X82218500Y-95308978D01*
X82264923Y-95542361D01*
X82355984Y-95762203D01*
X82488185Y-95960055D01*
X82656445Y-96128315D01*
X82854297Y-96260516D01*
X83074139Y-96351577D01*
X83307522Y-96398000D01*
X83545478Y-96398000D01*
X83778861Y-96351577D01*
X83998703Y-96260516D01*
X84196555Y-96128315D01*
X84364815Y-95960055D01*
X84497016Y-95762203D01*
X84588077Y-95542361D01*
X84634500Y-95308978D01*
X84634500Y-95071022D01*
X84588077Y-94837639D01*
X84497016Y-94617797D01*
X84364815Y-94419945D01*
X84359500Y-94414630D01*
X84359500Y-94029329D01*
X84364014Y-93983500D01*
X84356185Y-93904010D01*
X84346000Y-93800600D01*
X84292650Y-93624729D01*
X84206014Y-93462645D01*
X84089423Y-93320577D01*
X84053818Y-93291357D01*
X83153000Y-92390540D01*
X83153000Y-90800000D01*
X84583719Y-90800000D01*
X84614423Y-90954361D01*
X84705484Y-91174203D01*
X84837685Y-91372055D01*
X85005945Y-91540315D01*
X85203797Y-91672516D01*
X85423639Y-91763577D01*
X85657022Y-91810000D01*
X85894978Y-91810000D01*
X86128361Y-91763577D01*
X86348203Y-91672516D01*
X86546055Y-91540315D01*
X86714315Y-91372055D01*
X86846516Y-91174203D01*
X86937577Y-90954361D01*
X86968281Y-90800000D01*
X87793000Y-90800000D01*
X87793000Y-94298731D01*
X87791865Y-94300430D01*
X87693266Y-94538470D01*
X87643000Y-94791173D01*
X87643000Y-95048827D01*
X87693266Y-95301530D01*
X87791865Y-95539570D01*
X87935010Y-95753801D01*
X88117199Y-95935990D01*
X88331430Y-96079135D01*
X88569470Y-96177734D01*
X88822173Y-96228000D01*
X89079827Y-96228000D01*
X89332530Y-96177734D01*
X89570570Y-96079135D01*
X89784801Y-95935990D01*
X89966990Y-95753801D01*
X90110135Y-95539570D01*
X90208734Y-95301530D01*
X90259000Y-95048827D01*
X90259000Y-94791173D01*
X90208734Y-94538470D01*
X90110135Y-94300430D01*
X90109000Y-94298731D01*
X90109000Y-90800000D01*
X98518091Y-90800000D01*
X98518091Y-91760000D01*
X98533692Y-91918396D01*
X98579894Y-92070704D01*
X98654922Y-92211072D01*
X98755894Y-92334106D01*
X98878928Y-92435078D01*
X99019296Y-92510106D01*
X99171604Y-92556308D01*
X99330000Y-92571909D01*
X100830000Y-92571909D01*
X100988396Y-92556308D01*
X101140704Y-92510106D01*
X101281072Y-92435078D01*
X101404106Y-92334106D01*
X101430000Y-92302554D01*
X101455894Y-92334106D01*
X101578928Y-92435078D01*
X101719296Y-92510106D01*
X101871604Y-92556308D01*
X102030000Y-92571909D01*
X103530000Y-92571909D01*
X103688396Y-92556308D01*
X103840704Y-92510106D01*
X103981072Y-92435078D01*
X104047000Y-92380972D01*
X104047000Y-92386650D01*
X104009484Y-92442797D01*
X103918423Y-92662639D01*
X103872000Y-92896022D01*
X103872000Y-93133978D01*
X103918423Y-93367361D01*
X104009484Y-93587203D01*
X104141685Y-93785055D01*
X104309945Y-93953315D01*
X104507797Y-94085516D01*
X104727639Y-94176577D01*
X104961022Y-94223000D01*
X105198978Y-94223000D01*
X105432361Y-94176577D01*
X105652203Y-94085516D01*
X105850055Y-93953315D01*
X106018315Y-93785055D01*
X106150516Y-93587203D01*
X106241577Y-93367361D01*
X106288000Y-93133978D01*
X106288000Y-92896022D01*
X106241577Y-92662639D01*
X106191881Y-92542662D01*
X106235000Y-92546909D01*
X107735000Y-92546909D01*
X107893396Y-92531308D01*
X108045704Y-92485106D01*
X108186072Y-92410078D01*
X108234999Y-92369924D01*
X108283927Y-92410078D01*
X108424295Y-92485107D01*
X108576604Y-92531309D01*
X108735000Y-92546910D01*
X109233000Y-92543000D01*
X109435000Y-92341000D01*
X109435000Y-91160000D01*
X109535000Y-91160000D01*
X109535000Y-92341000D01*
X109737000Y-92543000D01*
X110235000Y-92546910D01*
X110393396Y-92531309D01*
X110545705Y-92485107D01*
X110686073Y-92410078D01*
X110809107Y-92309107D01*
X110910078Y-92186073D01*
X110985107Y-92045705D01*
X111031309Y-91893396D01*
X111046910Y-91735000D01*
X111043000Y-91362000D01*
X110841000Y-91160000D01*
X109535000Y-91160000D01*
X109435000Y-91160000D01*
X109415000Y-91160000D01*
X109415000Y-91060000D01*
X109435000Y-91060000D01*
X109435000Y-91040000D01*
X109535000Y-91040000D01*
X109535000Y-91060000D01*
X110841000Y-91060000D01*
X111043000Y-90858000D01*
X111043608Y-90800000D01*
X111617000Y-90800000D01*
X111617000Y-94456626D01*
X111612728Y-94500000D01*
X111629777Y-94673098D01*
X111680268Y-94839544D01*
X111700000Y-94876460D01*
X111700000Y-117617000D01*
X58383000Y-117617000D01*
X58383000Y-109289500D01*
X59946524Y-109289500D01*
X59946524Y-112655500D01*
X71193476Y-112655500D01*
X71193476Y-109289500D01*
X59946524Y-109289500D01*
X58383000Y-109289500D01*
X58383000Y-107501022D01*
X79742000Y-107501022D01*
X79742000Y-107738978D01*
X79788423Y-107972361D01*
X79879484Y-108192203D01*
X80011685Y-108390055D01*
X80179945Y-108558315D01*
X80377797Y-108690516D01*
X80597639Y-108781577D01*
X80831022Y-108828000D01*
X81068978Y-108828000D01*
X81302361Y-108781577D01*
X81522203Y-108690516D01*
X81720055Y-108558315D01*
X81888315Y-108390055D01*
X82020516Y-108192203D01*
X82111577Y-107972361D01*
X82158000Y-107738978D01*
X82158000Y-107501022D01*
X82111577Y-107267639D01*
X82020516Y-107047797D01*
X81993338Y-107007122D01*
X82479461Y-106521000D01*
X82986564Y-106521000D01*
X82917797Y-106549484D01*
X82719945Y-106681685D01*
X82551685Y-106849945D01*
X82419484Y-107047797D01*
X82328423Y-107267639D01*
X82282000Y-107501022D01*
X82282000Y-107738978D01*
X82328423Y-107972361D01*
X82419484Y-108192203D01*
X82551685Y-108390055D01*
X82719945Y-108558315D01*
X82917797Y-108690516D01*
X83137639Y-108781577D01*
X83371022Y-108828000D01*
X83608978Y-108828000D01*
X83842361Y-108781577D01*
X84062203Y-108690516D01*
X84260055Y-108558315D01*
X84265370Y-108553000D01*
X86270630Y-108553000D01*
X86275945Y-108558315D01*
X86473797Y-108690516D01*
X86693639Y-108781577D01*
X86927022Y-108828000D01*
X87164978Y-108828000D01*
X87398361Y-108781577D01*
X87618203Y-108690516D01*
X87816055Y-108558315D01*
X87821370Y-108553000D01*
X93997217Y-108553000D01*
X94101310Y-108708786D01*
X94339214Y-108946690D01*
X94618959Y-109133610D01*
X94929795Y-109262362D01*
X95259777Y-109328000D01*
X95596223Y-109328000D01*
X95926205Y-109262362D01*
X96237041Y-109133610D01*
X96516786Y-108946690D01*
X96738008Y-108725468D01*
X97035001Y-109022462D01*
X97035000Y-111269217D01*
X96879214Y-111373310D01*
X96641310Y-111611214D01*
X96454390Y-111890959D01*
X96325638Y-112201795D01*
X96260000Y-112531777D01*
X96260000Y-112868223D01*
X96325638Y-113198205D01*
X96454390Y-113509041D01*
X96641310Y-113788786D01*
X96879214Y-114026690D01*
X97158959Y-114213610D01*
X97469795Y-114342362D01*
X97799777Y-114408000D01*
X98136223Y-114408000D01*
X98466205Y-114342362D01*
X98777041Y-114213610D01*
X99056786Y-114026690D01*
X99294690Y-113788786D01*
X99481610Y-113509041D01*
X99610362Y-113198205D01*
X99676000Y-112868223D01*
X99676000Y-112531777D01*
X99610362Y-112201795D01*
X99481610Y-111890959D01*
X99294690Y-111611214D01*
X99056786Y-111373310D01*
X98901000Y-111269217D01*
X98901000Y-108681829D01*
X98905514Y-108636000D01*
X98901000Y-108590168D01*
X98887500Y-108453100D01*
X98834150Y-108277229D01*
X98747514Y-108115145D01*
X98630923Y-107973077D01*
X98595318Y-107943857D01*
X97644147Y-106992687D01*
X97614923Y-106957077D01*
X97472855Y-106840486D01*
X97310771Y-106753850D01*
X97134900Y-106700500D01*
X96997832Y-106687000D01*
X96997829Y-106687000D01*
X96952000Y-106682486D01*
X96906171Y-106687000D01*
X96858783Y-106687000D01*
X96754690Y-106531214D01*
X96744476Y-106521000D01*
X101731524Y-106521000D01*
X101721310Y-106531214D01*
X101534390Y-106810959D01*
X101405638Y-107121795D01*
X101340000Y-107451777D01*
X101340000Y-107788223D01*
X101405638Y-108118205D01*
X101534390Y-108429041D01*
X101721310Y-108708786D01*
X101959214Y-108946690D01*
X102238959Y-109133610D01*
X102549795Y-109262362D01*
X102879777Y-109328000D01*
X103216223Y-109328000D01*
X103546205Y-109262362D01*
X103857041Y-109133610D01*
X104136786Y-108946690D01*
X104374690Y-108708786D01*
X104478783Y-108553000D01*
X104655001Y-108553000D01*
X104655000Y-111269217D01*
X104499214Y-111373310D01*
X104261310Y-111611214D01*
X104074390Y-111890959D01*
X103945638Y-112201795D01*
X103880000Y-112531777D01*
X103880000Y-112868223D01*
X103945638Y-113198205D01*
X104074390Y-113509041D01*
X104261310Y-113788786D01*
X104499214Y-114026690D01*
X104778959Y-114213610D01*
X105089795Y-114342362D01*
X105419777Y-114408000D01*
X105756223Y-114408000D01*
X106086205Y-114342362D01*
X106397041Y-114213610D01*
X106676786Y-114026690D01*
X106914690Y-113788786D01*
X107101610Y-113509041D01*
X107230362Y-113198205D01*
X107296000Y-112868223D01*
X107296000Y-112531777D01*
X107230362Y-112201795D01*
X107101610Y-111890959D01*
X106914690Y-111611214D01*
X106676786Y-111373310D01*
X106521000Y-111269217D01*
X106521000Y-108173828D01*
X106525514Y-108127999D01*
X106521000Y-108082168D01*
X106507500Y-107945100D01*
X106454150Y-107769229D01*
X106367514Y-107607145D01*
X106250923Y-107465077D01*
X106215313Y-107435853D01*
X105772147Y-106992687D01*
X105742923Y-106957077D01*
X105600855Y-106840486D01*
X105438771Y-106753850D01*
X105262900Y-106700500D01*
X105125832Y-106687000D01*
X105125829Y-106687000D01*
X105080000Y-106682486D01*
X105034171Y-106687000D01*
X104478783Y-106687000D01*
X104374690Y-106531214D01*
X104136786Y-106293310D01*
X103968881Y-106181119D01*
X103967500Y-106167100D01*
X103914150Y-105991229D01*
X103827514Y-105829145D01*
X103710923Y-105687077D01*
X103675319Y-105657858D01*
X102978147Y-104960687D01*
X102948923Y-104925077D01*
X102806855Y-104808486D01*
X102644771Y-104721850D01*
X102468900Y-104668500D01*
X102331832Y-104655000D01*
X102331829Y-104655000D01*
X102286000Y-104650486D01*
X102240171Y-104655000D01*
X82138828Y-104655000D01*
X82092999Y-104650486D01*
X82047170Y-104655000D01*
X82047168Y-104655000D01*
X81910100Y-104668500D01*
X81734229Y-104721850D01*
X81572145Y-104808486D01*
X81430077Y-104925077D01*
X81400857Y-104960682D01*
X80322683Y-106038857D01*
X80287078Y-106068077D01*
X80255636Y-106106390D01*
X80170486Y-106210146D01*
X80126034Y-106293310D01*
X80083851Y-106372229D01*
X80035624Y-106531214D01*
X80030501Y-106548101D01*
X80012486Y-106731000D01*
X80017000Y-106776829D01*
X80017000Y-106844630D01*
X80011685Y-106849945D01*
X79879484Y-107047797D01*
X79788423Y-107267639D01*
X79742000Y-107501022D01*
X58383000Y-107501022D01*
X58383000Y-99698813D01*
X61842000Y-99698813D01*
X61842000Y-100301187D01*
X61959518Y-100891986D01*
X62190036Y-101448506D01*
X62524697Y-101949361D01*
X62950639Y-102375303D01*
X63451494Y-102709964D01*
X64008014Y-102940482D01*
X64598813Y-103058000D01*
X65201187Y-103058000D01*
X65791986Y-102940482D01*
X66348506Y-102709964D01*
X66849361Y-102375303D01*
X67275303Y-101949361D01*
X67609964Y-101448506D01*
X67840482Y-100891986D01*
X67958000Y-100301187D01*
X67958000Y-99698813D01*
X67840482Y-99108014D01*
X67609964Y-98551494D01*
X67275303Y-98050639D01*
X66849361Y-97624697D01*
X66348506Y-97290036D01*
X65791986Y-97059518D01*
X65201187Y-96942000D01*
X64598813Y-96942000D01*
X64008014Y-97059518D01*
X63451494Y-97290036D01*
X62950639Y-97624697D01*
X62524697Y-98050639D01*
X62190036Y-98551494D01*
X61959518Y-99108014D01*
X61842000Y-99698813D01*
X58383000Y-99698813D01*
X58383000Y-93061173D01*
X74792000Y-93061173D01*
X74792000Y-93318827D01*
X74842266Y-93571530D01*
X74940865Y-93809570D01*
X74942000Y-93811269D01*
X74942001Y-97546104D01*
X74936397Y-97603000D01*
X74958756Y-97830008D01*
X75024971Y-98048291D01*
X75024972Y-98048292D01*
X75132500Y-98249463D01*
X75277209Y-98425792D01*
X75321397Y-98462056D01*
X77637939Y-100778598D01*
X77674208Y-100822792D01*
X77785904Y-100914458D01*
X77850536Y-100967501D01*
X78051708Y-101075029D01*
X78269992Y-101141245D01*
X78440111Y-101158000D01*
X78440113Y-101158000D01*
X78497000Y-101163603D01*
X78553887Y-101158000D01*
X80328731Y-101158000D01*
X80330430Y-101159135D01*
X80568470Y-101257734D01*
X80821173Y-101308000D01*
X81078827Y-101308000D01*
X81331530Y-101257734D01*
X81569570Y-101159135D01*
X81571269Y-101158000D01*
X96710524Y-101158000D01*
X96879214Y-101326690D01*
X97158959Y-101513610D01*
X97469795Y-101642362D01*
X97799777Y-101708000D01*
X98136223Y-101708000D01*
X98466205Y-101642362D01*
X98777041Y-101513610D01*
X99056786Y-101326690D01*
X99225476Y-101158000D01*
X104330524Y-101158000D01*
X104499214Y-101326690D01*
X104778959Y-101513610D01*
X105089795Y-101642362D01*
X105419777Y-101708000D01*
X105756223Y-101708000D01*
X106086205Y-101642362D01*
X106397041Y-101513610D01*
X106676786Y-101326690D01*
X106914690Y-101088786D01*
X107101610Y-100809041D01*
X107230362Y-100498205D01*
X107296000Y-100168223D01*
X107296000Y-99831777D01*
X107230362Y-99501795D01*
X107101610Y-99190959D01*
X106914690Y-98911214D01*
X106676786Y-98673310D01*
X106397041Y-98486390D01*
X106086205Y-98357638D01*
X105756223Y-98292000D01*
X105419777Y-98292000D01*
X105089795Y-98357638D01*
X104778959Y-98486390D01*
X104499214Y-98673310D01*
X104330524Y-98842000D01*
X99225476Y-98842000D01*
X99056786Y-98673310D01*
X98777041Y-98486390D01*
X98466205Y-98357638D01*
X98136223Y-98292000D01*
X97799777Y-98292000D01*
X97469795Y-98357638D01*
X97158959Y-98486390D01*
X96879214Y-98673310D01*
X96710524Y-98842000D01*
X81571269Y-98842000D01*
X81569570Y-98840865D01*
X81331530Y-98742266D01*
X81078827Y-98692000D01*
X80821173Y-98692000D01*
X80568470Y-98742266D01*
X80330430Y-98840865D01*
X80328731Y-98842000D01*
X78976659Y-98842000D01*
X77258000Y-97123341D01*
X77258000Y-93811269D01*
X77259135Y-93809570D01*
X77357734Y-93571530D01*
X77408000Y-93318827D01*
X77408000Y-93061173D01*
X77357734Y-92808470D01*
X77259135Y-92570430D01*
X77115990Y-92356199D01*
X76933801Y-92174010D01*
X76719570Y-92030865D01*
X76481530Y-91932266D01*
X76228827Y-91882000D01*
X75971173Y-91882000D01*
X75718470Y-91932266D01*
X75480430Y-92030865D01*
X75266199Y-92174010D01*
X75084010Y-92356199D01*
X74940865Y-92570430D01*
X74842266Y-92808470D01*
X74792000Y-93061173D01*
X58383000Y-93061173D01*
X58383000Y-92543373D01*
X58387272Y-92500000D01*
X58370223Y-92326902D01*
X58319732Y-92160456D01*
X58237740Y-92007058D01*
X58127396Y-91872604D01*
X57992942Y-91762260D01*
X57839544Y-91680268D01*
X57800000Y-91668272D01*
X57800000Y-90800000D01*
X66496399Y-90800000D01*
X66661797Y-90910516D01*
X66661797Y-90910516D01*
G37*
X66661797Y-90910516D02*
X66881639Y-91001577D01*
X67115022Y-91048000D01*
X67352978Y-91048000D01*
X67586361Y-91001577D01*
X67806203Y-90910516D01*
X67971601Y-90800000D01*
X81287001Y-90800000D01*
X81287001Y-92731161D01*
X81282486Y-92777000D01*
X81298806Y-92942695D01*
X81300501Y-92959900D01*
X81332609Y-93065745D01*
X81353851Y-93135771D01*
X81408355Y-93237740D01*
X81440487Y-93297855D01*
X81557078Y-93439923D01*
X81592683Y-93469143D01*
X82493501Y-94369961D01*
X82493501Y-94414629D01*
X82488185Y-94419945D01*
X82355984Y-94617797D01*
X82264923Y-94837639D01*
X82218500Y-95071022D01*
X82218500Y-95308978D01*
X82264923Y-95542361D01*
X82355984Y-95762203D01*
X82488185Y-95960055D01*
X82656445Y-96128315D01*
X82854297Y-96260516D01*
X83074139Y-96351577D01*
X83307522Y-96398000D01*
X83545478Y-96398000D01*
X83778861Y-96351577D01*
X83998703Y-96260516D01*
X84196555Y-96128315D01*
X84364815Y-95960055D01*
X84497016Y-95762203D01*
X84588077Y-95542361D01*
X84634500Y-95308978D01*
X84634500Y-95071022D01*
X84588077Y-94837639D01*
X84497016Y-94617797D01*
X84364815Y-94419945D01*
X84359500Y-94414630D01*
X84359500Y-94029329D01*
X84364014Y-93983500D01*
X84356185Y-93904010D01*
X84346000Y-93800600D01*
X84292650Y-93624729D01*
X84206014Y-93462645D01*
X84089423Y-93320577D01*
X84053818Y-93291357D01*
X83153000Y-92390540D01*
X83153000Y-90800000D01*
X84583719Y-90800000D01*
X84614423Y-90954361D01*
X84705484Y-91174203D01*
X84837685Y-91372055D01*
X85005945Y-91540315D01*
X85203797Y-91672516D01*
X85423639Y-91763577D01*
X85657022Y-91810000D01*
X85894978Y-91810000D01*
X86128361Y-91763577D01*
X86348203Y-91672516D01*
X86546055Y-91540315D01*
X86714315Y-91372055D01*
X86846516Y-91174203D01*
X86937577Y-90954361D01*
X86968281Y-90800000D01*
X87793000Y-90800000D01*
X87793000Y-94298731D01*
X87791865Y-94300430D01*
X87693266Y-94538470D01*
X87643000Y-94791173D01*
X87643000Y-95048827D01*
X87693266Y-95301530D01*
X87791865Y-95539570D01*
X87935010Y-95753801D01*
X88117199Y-95935990D01*
X88331430Y-96079135D01*
X88569470Y-96177734D01*
X88822173Y-96228000D01*
X89079827Y-96228000D01*
X89332530Y-96177734D01*
X89570570Y-96079135D01*
X89784801Y-95935990D01*
X89966990Y-95753801D01*
X90110135Y-95539570D01*
X90208734Y-95301530D01*
X90259000Y-95048827D01*
X90259000Y-94791173D01*
X90208734Y-94538470D01*
X90110135Y-94300430D01*
X90109000Y-94298731D01*
X90109000Y-90800000D01*
X98518091Y-90800000D01*
X98518091Y-91760000D01*
X98533692Y-91918396D01*
X98579894Y-92070704D01*
X98654922Y-92211072D01*
X98755894Y-92334106D01*
X98878928Y-92435078D01*
X99019296Y-92510106D01*
X99171604Y-92556308D01*
X99330000Y-92571909D01*
X100830000Y-92571909D01*
X100988396Y-92556308D01*
X101140704Y-92510106D01*
X101281072Y-92435078D01*
X101404106Y-92334106D01*
X101430000Y-92302554D01*
X101455894Y-92334106D01*
X101578928Y-92435078D01*
X101719296Y-92510106D01*
X101871604Y-92556308D01*
X102030000Y-92571909D01*
X103530000Y-92571909D01*
X103688396Y-92556308D01*
X103840704Y-92510106D01*
X103981072Y-92435078D01*
X104047000Y-92380972D01*
X104047000Y-92386650D01*
X104009484Y-92442797D01*
X103918423Y-92662639D01*
X103872000Y-92896022D01*
X103872000Y-93133978D01*
X103918423Y-93367361D01*
X104009484Y-93587203D01*
X104141685Y-93785055D01*
X104309945Y-93953315D01*
X104507797Y-94085516D01*
X104727639Y-94176577D01*
X104961022Y-94223000D01*
X105198978Y-94223000D01*
X105432361Y-94176577D01*
X105652203Y-94085516D01*
X105850055Y-93953315D01*
X106018315Y-93785055D01*
X106150516Y-93587203D01*
X106241577Y-93367361D01*
X106288000Y-93133978D01*
X106288000Y-92896022D01*
X106241577Y-92662639D01*
X106191881Y-92542662D01*
X106235000Y-92546909D01*
X107735000Y-92546909D01*
X107893396Y-92531308D01*
X108045704Y-92485106D01*
X108186072Y-92410078D01*
X108234999Y-92369924D01*
X108283927Y-92410078D01*
X108424295Y-92485107D01*
X108576604Y-92531309D01*
X108735000Y-92546910D01*
X109233000Y-92543000D01*
X109435000Y-92341000D01*
X109435000Y-91160000D01*
X109535000Y-91160000D01*
X109535000Y-92341000D01*
X109737000Y-92543000D01*
X110235000Y-92546910D01*
X110393396Y-92531309D01*
X110545705Y-92485107D01*
X110686073Y-92410078D01*
X110809107Y-92309107D01*
X110910078Y-92186073D01*
X110985107Y-92045705D01*
X111031309Y-91893396D01*
X111046910Y-91735000D01*
X111043000Y-91362000D01*
X110841000Y-91160000D01*
X109535000Y-91160000D01*
X109435000Y-91160000D01*
X109415000Y-91160000D01*
X109415000Y-91060000D01*
X109435000Y-91060000D01*
X109435000Y-91040000D01*
X109535000Y-91040000D01*
X109535000Y-91060000D01*
X110841000Y-91060000D01*
X111043000Y-90858000D01*
X111043608Y-90800000D01*
X111617000Y-90800000D01*
X111617000Y-94456626D01*
X111612728Y-94500000D01*
X111629777Y-94673098D01*
X111680268Y-94839544D01*
X111700000Y-94876460D01*
X111700000Y-117617000D01*
X58383000Y-117617000D01*
X58383000Y-109289500D01*
X59946524Y-109289500D01*
X59946524Y-112655500D01*
X71193476Y-112655500D01*
X71193476Y-109289500D01*
X59946524Y-109289500D01*
X58383000Y-109289500D01*
X58383000Y-107501022D01*
X79742000Y-107501022D01*
X79742000Y-107738978D01*
X79788423Y-107972361D01*
X79879484Y-108192203D01*
X80011685Y-108390055D01*
X80179945Y-108558315D01*
X80377797Y-108690516D01*
X80597639Y-108781577D01*
X80831022Y-108828000D01*
X81068978Y-108828000D01*
X81302361Y-108781577D01*
X81522203Y-108690516D01*
X81720055Y-108558315D01*
X81888315Y-108390055D01*
X82020516Y-108192203D01*
X82111577Y-107972361D01*
X82158000Y-107738978D01*
X82158000Y-107501022D01*
X82111577Y-107267639D01*
X82020516Y-107047797D01*
X81993338Y-107007122D01*
X82479461Y-106521000D01*
X82986564Y-106521000D01*
X82917797Y-106549484D01*
X82719945Y-106681685D01*
X82551685Y-106849945D01*
X82419484Y-107047797D01*
X82328423Y-107267639D01*
X82282000Y-107501022D01*
X82282000Y-107738978D01*
X82328423Y-107972361D01*
X82419484Y-108192203D01*
X82551685Y-108390055D01*
X82719945Y-108558315D01*
X82917797Y-108690516D01*
X83137639Y-108781577D01*
X83371022Y-108828000D01*
X83608978Y-108828000D01*
X83842361Y-108781577D01*
X84062203Y-108690516D01*
X84260055Y-108558315D01*
X84265370Y-108553000D01*
X86270630Y-108553000D01*
X86275945Y-108558315D01*
X86473797Y-108690516D01*
X86693639Y-108781577D01*
X86927022Y-108828000D01*
X87164978Y-108828000D01*
X87398361Y-108781577D01*
X87618203Y-108690516D01*
X87816055Y-108558315D01*
X87821370Y-108553000D01*
X93997217Y-108553000D01*
X94101310Y-108708786D01*
X94339214Y-108946690D01*
X94618959Y-109133610D01*
X94929795Y-109262362D01*
X95259777Y-109328000D01*
X95596223Y-109328000D01*
X95926205Y-109262362D01*
X96237041Y-109133610D01*
X96516786Y-108946690D01*
X96738008Y-108725468D01*
X97035001Y-109022462D01*
X97035000Y-111269217D01*
X96879214Y-111373310D01*
X96641310Y-111611214D01*
X96454390Y-111890959D01*
X96325638Y-112201795D01*
X96260000Y-112531777D01*
X96260000Y-112868223D01*
X96325638Y-113198205D01*
X96454390Y-113509041D01*
X96641310Y-113788786D01*
X96879214Y-114026690D01*
X97158959Y-114213610D01*
X97469795Y-114342362D01*
X97799777Y-114408000D01*
X98136223Y-114408000D01*
X98466205Y-114342362D01*
X98777041Y-114213610D01*
X99056786Y-114026690D01*
X99294690Y-113788786D01*
X99481610Y-113509041D01*
X99610362Y-113198205D01*
X99676000Y-112868223D01*
X99676000Y-112531777D01*
X99610362Y-112201795D01*
X99481610Y-111890959D01*
X99294690Y-111611214D01*
X99056786Y-111373310D01*
X98901000Y-111269217D01*
X98901000Y-108681829D01*
X98905514Y-108636000D01*
X98901000Y-108590168D01*
X98887500Y-108453100D01*
X98834150Y-108277229D01*
X98747514Y-108115145D01*
X98630923Y-107973077D01*
X98595318Y-107943857D01*
X97644147Y-106992687D01*
X97614923Y-106957077D01*
X97472855Y-106840486D01*
X97310771Y-106753850D01*
X97134900Y-106700500D01*
X96997832Y-106687000D01*
X96997829Y-106687000D01*
X96952000Y-106682486D01*
X96906171Y-106687000D01*
X96858783Y-106687000D01*
X96754690Y-106531214D01*
X96744476Y-106521000D01*
X101731524Y-106521000D01*
X101721310Y-106531214D01*
X101534390Y-106810959D01*
X101405638Y-107121795D01*
X101340000Y-107451777D01*
X101340000Y-107788223D01*
X101405638Y-108118205D01*
X101534390Y-108429041D01*
X101721310Y-108708786D01*
X101959214Y-108946690D01*
X102238959Y-109133610D01*
X102549795Y-109262362D01*
X102879777Y-109328000D01*
X103216223Y-109328000D01*
X103546205Y-109262362D01*
X103857041Y-109133610D01*
X104136786Y-108946690D01*
X104374690Y-108708786D01*
X104478783Y-108553000D01*
X104655001Y-108553000D01*
X104655000Y-111269217D01*
X104499214Y-111373310D01*
X104261310Y-111611214D01*
X104074390Y-111890959D01*
X103945638Y-112201795D01*
X103880000Y-112531777D01*
X103880000Y-112868223D01*
X103945638Y-113198205D01*
X104074390Y-113509041D01*
X104261310Y-113788786D01*
X104499214Y-114026690D01*
X104778959Y-114213610D01*
X105089795Y-114342362D01*
X105419777Y-114408000D01*
X105756223Y-114408000D01*
X106086205Y-114342362D01*
X106397041Y-114213610D01*
X106676786Y-114026690D01*
X106914690Y-113788786D01*
X107101610Y-113509041D01*
X107230362Y-113198205D01*
X107296000Y-112868223D01*
X107296000Y-112531777D01*
X107230362Y-112201795D01*
X107101610Y-111890959D01*
X106914690Y-111611214D01*
X106676786Y-111373310D01*
X106521000Y-111269217D01*
X106521000Y-108173828D01*
X106525514Y-108127999D01*
X106521000Y-108082168D01*
X106507500Y-107945100D01*
X106454150Y-107769229D01*
X106367514Y-107607145D01*
X106250923Y-107465077D01*
X106215313Y-107435853D01*
X105772147Y-106992687D01*
X105742923Y-106957077D01*
X105600855Y-106840486D01*
X105438771Y-106753850D01*
X105262900Y-106700500D01*
X105125832Y-106687000D01*
X105125829Y-106687000D01*
X105080000Y-106682486D01*
X105034171Y-106687000D01*
X104478783Y-106687000D01*
X104374690Y-106531214D01*
X104136786Y-106293310D01*
X103968881Y-106181119D01*
X103967500Y-106167100D01*
X103914150Y-105991229D01*
X103827514Y-105829145D01*
X103710923Y-105687077D01*
X103675319Y-105657858D01*
X102978147Y-104960687D01*
X102948923Y-104925077D01*
X102806855Y-104808486D01*
X102644771Y-104721850D01*
X102468900Y-104668500D01*
X102331832Y-104655000D01*
X102331829Y-104655000D01*
X102286000Y-104650486D01*
X102240171Y-104655000D01*
X82138828Y-104655000D01*
X82092999Y-104650486D01*
X82047170Y-104655000D01*
X82047168Y-104655000D01*
X81910100Y-104668500D01*
X81734229Y-104721850D01*
X81572145Y-104808486D01*
X81430077Y-104925077D01*
X81400857Y-104960682D01*
X80322683Y-106038857D01*
X80287078Y-106068077D01*
X80255636Y-106106390D01*
X80170486Y-106210146D01*
X80126034Y-106293310D01*
X80083851Y-106372229D01*
X80035624Y-106531214D01*
X80030501Y-106548101D01*
X80012486Y-106731000D01*
X80017000Y-106776829D01*
X80017000Y-106844630D01*
X80011685Y-106849945D01*
X79879484Y-107047797D01*
X79788423Y-107267639D01*
X79742000Y-107501022D01*
X58383000Y-107501022D01*
X58383000Y-99698813D01*
X61842000Y-99698813D01*
X61842000Y-100301187D01*
X61959518Y-100891986D01*
X62190036Y-101448506D01*
X62524697Y-101949361D01*
X62950639Y-102375303D01*
X63451494Y-102709964D01*
X64008014Y-102940482D01*
X64598813Y-103058000D01*
X65201187Y-103058000D01*
X65791986Y-102940482D01*
X66348506Y-102709964D01*
X66849361Y-102375303D01*
X67275303Y-101949361D01*
X67609964Y-101448506D01*
X67840482Y-100891986D01*
X67958000Y-100301187D01*
X67958000Y-99698813D01*
X67840482Y-99108014D01*
X67609964Y-98551494D01*
X67275303Y-98050639D01*
X66849361Y-97624697D01*
X66348506Y-97290036D01*
X65791986Y-97059518D01*
X65201187Y-96942000D01*
X64598813Y-96942000D01*
X64008014Y-97059518D01*
X63451494Y-97290036D01*
X62950639Y-97624697D01*
X62524697Y-98050639D01*
X62190036Y-98551494D01*
X61959518Y-99108014D01*
X61842000Y-99698813D01*
X58383000Y-99698813D01*
X58383000Y-93061173D01*
X74792000Y-93061173D01*
X74792000Y-93318827D01*
X74842266Y-93571530D01*
X74940865Y-93809570D01*
X74942000Y-93811269D01*
X74942001Y-97546104D01*
X74936397Y-97603000D01*
X74958756Y-97830008D01*
X75024971Y-98048291D01*
X75024972Y-98048292D01*
X75132500Y-98249463D01*
X75277209Y-98425792D01*
X75321397Y-98462056D01*
X77637939Y-100778598D01*
X77674208Y-100822792D01*
X77785904Y-100914458D01*
X77850536Y-100967501D01*
X78051708Y-101075029D01*
X78269992Y-101141245D01*
X78440111Y-101158000D01*
X78440113Y-101158000D01*
X78497000Y-101163603D01*
X78553887Y-101158000D01*
X80328731Y-101158000D01*
X80330430Y-101159135D01*
X80568470Y-101257734D01*
X80821173Y-101308000D01*
X81078827Y-101308000D01*
X81331530Y-101257734D01*
X81569570Y-101159135D01*
X81571269Y-101158000D01*
X96710524Y-101158000D01*
X96879214Y-101326690D01*
X97158959Y-101513610D01*
X97469795Y-101642362D01*
X97799777Y-101708000D01*
X98136223Y-101708000D01*
X98466205Y-101642362D01*
X98777041Y-101513610D01*
X99056786Y-101326690D01*
X99225476Y-101158000D01*
X104330524Y-101158000D01*
X104499214Y-101326690D01*
X104778959Y-101513610D01*
X105089795Y-101642362D01*
X105419777Y-101708000D01*
X105756223Y-101708000D01*
X106086205Y-101642362D01*
X106397041Y-101513610D01*
X106676786Y-101326690D01*
X106914690Y-101088786D01*
X107101610Y-100809041D01*
X107230362Y-100498205D01*
X107296000Y-100168223D01*
X107296000Y-99831777D01*
X107230362Y-99501795D01*
X107101610Y-99190959D01*
X106914690Y-98911214D01*
X106676786Y-98673310D01*
X106397041Y-98486390D01*
X106086205Y-98357638D01*
X105756223Y-98292000D01*
X105419777Y-98292000D01*
X105089795Y-98357638D01*
X104778959Y-98486390D01*
X104499214Y-98673310D01*
X104330524Y-98842000D01*
X99225476Y-98842000D01*
X99056786Y-98673310D01*
X98777041Y-98486390D01*
X98466205Y-98357638D01*
X98136223Y-98292000D01*
X97799777Y-98292000D01*
X97469795Y-98357638D01*
X97158959Y-98486390D01*
X96879214Y-98673310D01*
X96710524Y-98842000D01*
X81571269Y-98842000D01*
X81569570Y-98840865D01*
X81331530Y-98742266D01*
X81078827Y-98692000D01*
X80821173Y-98692000D01*
X80568470Y-98742266D01*
X80330430Y-98840865D01*
X80328731Y-98842000D01*
X78976659Y-98842000D01*
X77258000Y-97123341D01*
X77258000Y-93811269D01*
X77259135Y-93809570D01*
X77357734Y-93571530D01*
X77408000Y-93318827D01*
X77408000Y-93061173D01*
X77357734Y-92808470D01*
X77259135Y-92570430D01*
X77115990Y-92356199D01*
X76933801Y-92174010D01*
X76719570Y-92030865D01*
X76481530Y-91932266D01*
X76228827Y-91882000D01*
X75971173Y-91882000D01*
X75718470Y-91932266D01*
X75480430Y-92030865D01*
X75266199Y-92174010D01*
X75084010Y-92356199D01*
X74940865Y-92570430D01*
X74842266Y-92808470D01*
X74792000Y-93061173D01*
X58383000Y-93061173D01*
X58383000Y-92543373D01*
X58387272Y-92500000D01*
X58370223Y-92326902D01*
X58319732Y-92160456D01*
X58237740Y-92007058D01*
X58127396Y-91872604D01*
X57992942Y-91762260D01*
X57839544Y-91680268D01*
X57800000Y-91668272D01*
X57800000Y-90800000D01*
X66496399Y-90800000D01*
X66661797Y-90910516D01*
M02*
