G04 #@! TF.GenerationSoftware,KiCad,Pcbnew,(5.1.0)-1*
G04 #@! TF.CreationDate,2019-04-28T18:18:51+02:00*
G04 #@! TF.ProjectId,LampeSolaire,4c616d70-6553-46f6-9c61-6972652e6b69,5*
G04 #@! TF.SameCoordinates,Original*
G04 #@! TF.FileFunction,Copper,L2,Bot*
G04 #@! TF.FilePolarity,Positive*
%FSLAX46Y46*%
G04 Gerber Fmt 4.6, Leading zero omitted, Abs format (unit mm)*
G04 Created by KiCad (PCBNEW (5.1.0)-1) date 2019-04-28 18:18:51*
%MOMM*%
%LPD*%
G04 APERTURE LIST*
%ADD10C,0.250000*%
%ADD11C,1.600000*%
%ADD12R,1.600000X1.600000*%
%ADD13R,1.700000X0.800000*%
%ADD14R,1.600000X0.700000*%
%ADD15R,0.800000X1.700000*%
%ADD16C,1.900000*%
%ADD17R,1.900000X1.900000*%
%ADD18R,2.000000X1.600000*%
%ADD19C,1.800000*%
%ADD20R,1.800000X1.800000*%
%ADD21R,1.500000X1.300000*%
%ADD22R,1.300000X1.500000*%
%ADD23R,2.000000X1.700000*%
%ADD24R,1.700000X1.700000*%
%ADD25O,1.700000X1.700000*%
%ADD26R,2.650000X2.030000*%
%ADD27C,1.000000*%
%ADD28C,0.800000*%
%ADD29C,0.700000*%
%ADD30C,0.600000*%
G04 APERTURE END LIST*
D10*
X68098761Y-91418571D02*
X67955904Y-91466190D01*
X67908285Y-91513809D01*
X67860666Y-91609047D01*
X67860666Y-91751904D01*
X67908285Y-91847142D01*
X67955904Y-91894761D01*
X68051142Y-91942380D01*
X68432095Y-91942380D01*
X68432095Y-90942380D01*
X68098761Y-90942380D01*
X68003523Y-90990000D01*
X67955904Y-91037619D01*
X67908285Y-91132857D01*
X67908285Y-91228095D01*
X67955904Y-91323333D01*
X68003523Y-91370952D01*
X68098761Y-91418571D01*
X68432095Y-91418571D01*
X67432095Y-91847142D02*
X67384476Y-91894761D01*
X67432095Y-91942380D01*
X67479714Y-91894761D01*
X67432095Y-91847142D01*
X67432095Y-91942380D01*
X66384476Y-91847142D02*
X66432095Y-91894761D01*
X66574952Y-91942380D01*
X66670190Y-91942380D01*
X66813047Y-91894761D01*
X66908285Y-91799523D01*
X66955904Y-91704285D01*
X67003523Y-91513809D01*
X67003523Y-91370952D01*
X66955904Y-91180476D01*
X66908285Y-91085238D01*
X66813047Y-90990000D01*
X66670190Y-90942380D01*
X66574952Y-90942380D01*
X66432095Y-90990000D01*
X66384476Y-91037619D01*
X65527333Y-91275714D02*
X65527333Y-91942380D01*
X65955904Y-91275714D02*
X65955904Y-91799523D01*
X65908285Y-91894761D01*
X65813047Y-91942380D01*
X65670190Y-91942380D01*
X65574952Y-91894761D01*
X65527333Y-91847142D01*
X64289238Y-91561428D02*
X63527333Y-91561428D01*
X62432095Y-90942380D02*
X62098761Y-91942380D01*
X61765428Y-90942380D01*
X60955904Y-90942380D02*
X61432095Y-90942380D01*
X61479714Y-91418571D01*
X61432095Y-91370952D01*
X61336857Y-91323333D01*
X61098761Y-91323333D01*
X61003523Y-91370952D01*
X60955904Y-91418571D01*
X60908285Y-91513809D01*
X60908285Y-91751904D01*
X60955904Y-91847142D01*
X61003523Y-91894761D01*
X61098761Y-91942380D01*
X61336857Y-91942380D01*
X61432095Y-91894761D01*
X61479714Y-91847142D01*
D11*
X63170000Y-56090000D03*
D12*
X63170000Y-58090000D03*
D11*
X101810000Y-100000000D03*
D12*
X103810000Y-100000000D03*
D11*
X92380000Y-56090000D03*
D12*
X92380000Y-58090000D03*
D13*
X100130000Y-58090000D03*
X97330000Y-57140000D03*
X97330000Y-59040000D03*
D14*
X111200000Y-52060000D03*
X111200000Y-53960000D03*
X114200000Y-53960000D03*
X114200000Y-53010000D03*
X114200000Y-52060000D03*
D15*
X101270000Y-53140000D03*
X102220000Y-50340000D03*
X100320000Y-50340000D03*
X80950000Y-111300000D03*
X80000000Y-114100000D03*
X81900000Y-114100000D03*
D13*
X77270000Y-111430000D03*
X74470000Y-110480000D03*
X74470000Y-112380000D03*
X120190000Y-50470000D03*
X122990000Y-51420000D03*
X122990000Y-49520000D03*
D16*
X69520000Y-58090000D03*
D17*
X72060000Y-58090000D03*
D16*
X86030000Y-58090000D03*
D17*
X83490000Y-58090000D03*
D16*
X125990000Y-57200000D03*
D17*
X125990000Y-54660000D03*
D16*
X113970000Y-58090000D03*
D17*
X111430000Y-58090000D03*
D18*
X118320000Y-58090000D03*
X122320000Y-58090000D03*
X75330000Y-75870000D03*
X71330000Y-75870000D03*
X93110000Y-66980000D03*
X89110000Y-66980000D03*
D19*
X80950000Y-50470000D03*
D20*
X83490000Y-50470000D03*
D21*
X78490000Y-50470000D03*
X75790000Y-50470000D03*
X93570000Y-53010000D03*
X96270000Y-53010000D03*
X106350000Y-55550000D03*
X103650000Y-55550000D03*
D22*
X100000000Y-80950000D03*
X100000000Y-78250000D03*
D21*
X71980000Y-84760000D03*
X74680000Y-84760000D03*
X92380000Y-64440000D03*
X89680000Y-64440000D03*
X102780000Y-91110000D03*
X100080000Y-91110000D03*
D22*
X69520000Y-72140000D03*
X69520000Y-69440000D03*
D23*
X92348000Y-113970000D03*
X88348000Y-113970000D03*
X101238000Y-113970000D03*
X97238000Y-113970000D03*
D21*
X102460000Y-66980000D03*
X105160000Y-66980000D03*
D24*
X60630000Y-82220000D03*
D25*
X60630000Y-79680000D03*
X60630000Y-77140000D03*
X60630000Y-74600000D03*
X60630000Y-72060000D03*
X60630000Y-69520000D03*
D26*
X86480000Y-53010000D03*
X90660000Y-53010000D03*
D27*
X74092000Y-53264000D03*
X66726000Y-58090000D03*
X67488000Y-53264000D03*
X80950000Y-107874000D03*
X95460000Y-72854000D03*
X95460000Y-94190000D03*
X63932000Y-77140000D03*
X68250000Y-116256000D03*
X69520000Y-116256000D03*
X69520000Y-110414000D03*
X99746000Y-107874000D03*
X99746000Y-94158000D03*
X63932000Y-72822000D03*
D28*
X71552000Y-72822000D03*
D27*
X71552000Y-78410000D03*
X97460000Y-62678000D03*
X118288000Y-60630000D03*
X83744000Y-97206000D03*
X86030000Y-97206000D03*
X87300000Y-60630000D03*
X113970000Y-61646000D03*
X87427000Y-71806000D03*
X74981000Y-71806000D03*
X74981000Y-78410000D03*
X80442000Y-68491000D03*
X80442000Y-71806000D03*
X73838000Y-106350000D03*
X60630000Y-106350000D03*
X64694000Y-86665000D03*
X71996500Y-86665000D03*
X64694000Y-79680000D03*
X91735000Y-69012000D03*
X105080000Y-92380000D03*
X102286000Y-61646000D03*
X100000000Y-66980000D03*
X91735000Y-71806000D03*
X91872000Y-80950000D03*
X98222000Y-80950000D03*
X97206000Y-99492000D03*
X72822000Y-104826000D03*
X72822000Y-101778000D03*
X91872000Y-101778000D03*
X91872000Y-91872000D03*
X71552000Y-116256000D03*
X71552000Y-104826000D03*
X71552000Y-91872000D03*
D28*
X79934000Y-56312000D03*
X116002000Y-54026000D03*
X112700000Y-49200000D03*
X100254000Y-47438000D03*
X100254000Y-55566000D03*
D27*
X72060000Y-54534000D03*
X65964000Y-54534000D03*
D28*
X83744000Y-111176000D03*
X61900000Y-117272000D03*
X86284000Y-106858000D03*
X93650000Y-106858000D03*
X86284000Y-111176000D03*
X93650000Y-77902000D03*
X81458000Y-77648000D03*
X70536000Y-90856000D03*
X65710000Y-116256000D03*
X70501997Y-104826000D03*
X70536000Y-107620000D03*
X78664000Y-90856000D03*
X66472000Y-82220000D03*
X66472000Y-77902000D03*
X64948000Y-77902000D03*
X62916000Y-87554000D03*
X62916000Y-74600000D03*
X80696000Y-79680000D03*
X80696000Y-87554000D03*
X62154000Y-88316000D03*
X62154000Y-72060000D03*
X79934000Y-80442000D03*
X79934000Y-88316000D03*
D27*
X70282000Y-56058000D03*
X80950000Y-58090000D03*
X84760000Y-56090000D03*
X102032000Y-58090000D03*
X115748000Y-50724000D03*
X117272000Y-53060000D03*
X119354000Y-53060000D03*
X103810000Y-54042000D03*
D28*
X76378000Y-113970000D03*
X70536000Y-112446000D03*
D27*
X109700000Y-52060000D03*
X98730000Y-49708000D03*
X98730000Y-55550000D03*
X114732000Y-55550000D03*
X123114000Y-53264000D03*
X87300000Y-50470000D03*
X85014000Y-106350000D03*
X85014000Y-113970000D03*
X74854000Y-99492000D03*
X74854000Y-103048000D03*
X88316000Y-103048000D03*
D28*
X68250000Y-82220000D03*
X68250000Y-89078000D03*
X86538000Y-89078000D03*
X89078000Y-69266000D03*
X86284000Y-69266000D03*
X89586000Y-109398000D03*
X98476000Y-109398000D03*
X65710000Y-84760000D03*
X65710000Y-75870000D03*
X76124000Y-84760000D03*
X100000000Y-84760000D03*
X100000000Y-86538000D03*
X82982000Y-75616000D03*
X82982000Y-84760000D03*
X105080000Y-72822000D03*
X102540000Y-86538000D03*
X102540000Y-83998000D03*
X79172000Y-83998000D03*
X79200449Y-81185034D03*
X84887000Y-69266000D03*
X84887000Y-75362000D03*
X102540000Y-74600000D03*
X102540000Y-72822000D03*
X67234000Y-78664000D03*
X67234000Y-69266000D03*
X83998000Y-70790000D03*
X67996000Y-80950000D03*
X67996000Y-70790000D03*
X100000000Y-74600000D03*
X100000000Y-72822000D03*
X83998000Y-74600000D03*
X67234000Y-80188000D03*
X67234000Y-89840000D03*
X97460000Y-76124000D03*
X85776000Y-76124000D03*
X97460000Y-72822000D03*
X85776000Y-81966000D03*
X66443551Y-68739034D03*
X66472000Y-76632000D03*
X100000000Y-76886000D03*
D29*
X83490000Y-50470000D02*
X83490000Y-49200000D01*
X83490000Y-49200000D02*
X82728000Y-48438000D01*
X82728000Y-48438000D02*
X74854000Y-48438000D01*
X74854000Y-48438000D02*
X74092000Y-49200000D01*
X74092000Y-49200000D02*
X74092000Y-53264000D01*
X67488000Y-53264000D02*
X74092000Y-53264000D01*
X69586000Y-110480000D02*
X69520000Y-110414000D01*
X74470000Y-110480000D02*
X69586000Y-110480000D01*
X74470000Y-110480000D02*
X74470000Y-108512000D01*
X74470000Y-108512000D02*
X75108000Y-107874000D01*
X75108000Y-107874000D02*
X80950000Y-107874000D01*
X68250000Y-116256000D02*
X69520000Y-116256000D01*
X95460000Y-72854000D02*
X95460000Y-94190000D01*
X63932000Y-72822000D02*
X63932000Y-77140000D01*
X71330000Y-75870000D02*
X71552000Y-75648000D01*
X71552000Y-75648000D02*
X71552000Y-72822000D01*
X71330000Y-75870000D02*
X71552000Y-76092000D01*
X71552000Y-76092000D02*
X71552000Y-78410000D01*
X95428000Y-72822000D02*
X95460000Y-72854000D01*
X95428000Y-72822000D02*
X95460000Y-72854000D01*
X100678630Y-100000000D02*
X99746000Y-100000000D01*
X101810000Y-100000000D02*
X100678630Y-100000000D01*
X99746000Y-107874000D02*
X99746000Y-100000000D01*
X99746000Y-100000000D02*
X99746000Y-94158000D01*
X95460000Y-72854000D02*
X95460000Y-65488000D01*
X95460000Y-65488000D02*
X95460000Y-64472000D01*
X97460000Y-62678000D02*
X97460000Y-64202000D01*
X97190000Y-64472000D02*
X95460000Y-64472000D01*
X97460000Y-64202000D02*
X97190000Y-64472000D01*
X92412000Y-64472000D02*
X95460000Y-64472000D01*
X92380000Y-64440000D02*
X92412000Y-64472000D01*
X118286000Y-52060000D02*
X118320000Y-52026000D01*
X114200000Y-52060000D02*
X118286000Y-52060000D01*
X118320000Y-58090000D02*
X118320000Y-52026000D01*
X118640000Y-50470000D02*
X120190000Y-50470000D01*
X118320000Y-50790000D02*
X118640000Y-50470000D01*
X118320000Y-52026000D02*
X118320000Y-50790000D01*
X118320000Y-58090000D02*
X118320000Y-60598000D01*
X118320000Y-60598000D02*
X118288000Y-60630000D01*
X88570000Y-91872000D02*
X84506000Y-91872000D01*
X83744000Y-92634000D02*
X84506000Y-91872000D01*
X83744000Y-97206000D02*
X83744000Y-92634000D01*
X88570000Y-91872000D02*
X88570000Y-95936000D01*
X87300000Y-97206000D02*
X88570000Y-95936000D01*
X86030000Y-97206000D02*
X87300000Y-97206000D01*
X88570000Y-91872000D02*
X88570000Y-73584000D01*
X88570000Y-71468998D02*
X87554000Y-70452998D01*
X88570000Y-73584000D02*
X88570000Y-71468998D01*
X87554000Y-70452998D02*
X87300000Y-70198998D01*
X87300000Y-70198998D02*
X87300000Y-60630000D01*
X113970000Y-61646000D02*
X113970000Y-58090000D01*
X73838000Y-106350000D02*
X60630000Y-106350000D01*
X103810000Y-80950000D02*
X100000000Y-80950000D01*
X105080000Y-82220000D02*
X103810000Y-80950000D01*
X75330000Y-75870000D02*
X74981000Y-75521000D01*
X74981000Y-75521000D02*
X74981000Y-71806000D01*
X75330000Y-75870000D02*
X74981000Y-76219000D01*
X74981000Y-76219000D02*
X74981000Y-78410000D01*
X80442000Y-68491000D02*
X80442000Y-71806000D01*
X71996500Y-84776500D02*
X71980000Y-84760000D01*
X71996500Y-86665000D02*
X71996500Y-84776500D01*
X64694000Y-79680000D02*
X64694000Y-86665000D01*
X71980000Y-84760000D02*
X71980000Y-79950500D01*
X73520500Y-78410000D02*
X74981000Y-78410000D01*
X71980000Y-79950500D02*
X73520500Y-78410000D01*
X93110000Y-66980000D02*
X93110000Y-68536000D01*
X92634000Y-69012000D02*
X93110000Y-68536000D01*
X91618000Y-69012000D02*
X92634000Y-69012000D01*
X91618000Y-69012000D02*
X91735000Y-69012000D01*
X69520000Y-72140000D02*
X69854000Y-71806000D01*
X69854000Y-71806000D02*
X74981000Y-71806000D01*
X104230000Y-91110000D02*
X105080000Y-91110000D01*
X102780000Y-91110000D02*
X104230000Y-91110000D01*
X105080000Y-91110000D02*
X105080000Y-82220000D01*
X105080000Y-92380000D02*
X105080000Y-91110000D01*
X105080000Y-92380000D02*
X105080000Y-96444000D01*
X103810000Y-97714000D02*
X103810000Y-100000000D01*
X105080000Y-96444000D02*
X103810000Y-97714000D01*
X102286000Y-66806000D02*
X102460000Y-66980000D01*
X102286000Y-61646000D02*
X102286000Y-66806000D01*
X100000000Y-66980000D02*
X102460000Y-66980000D01*
X91735000Y-71806000D02*
X91735000Y-80813000D01*
X91735000Y-80813000D02*
X91872000Y-80950000D01*
X98222000Y-80950000D02*
X100000000Y-80950000D01*
X73853999Y-106334001D02*
X73853999Y-87315999D01*
X73838000Y-106350000D02*
X73853999Y-106334001D01*
X73203000Y-86665000D02*
X71996500Y-86665000D01*
X73853999Y-87315999D02*
X73203000Y-86665000D01*
X97206000Y-113938000D02*
X97238000Y-113970000D01*
X97238000Y-113970000D02*
X97238000Y-99524000D01*
X97238000Y-99524000D02*
X97206000Y-99492000D01*
X72822000Y-104826000D02*
X72822000Y-101778000D01*
X91872000Y-101778000D02*
X91872000Y-91872000D01*
X77270000Y-111430000D02*
X79426000Y-111430000D01*
X80000000Y-112004000D02*
X80000000Y-114100000D01*
X79426000Y-111430000D02*
X80000000Y-112004000D01*
X80000000Y-114100000D02*
X80000000Y-115682000D01*
X80000000Y-115682000D02*
X79426000Y-116256000D01*
X79426000Y-116256000D02*
X71552000Y-116256000D01*
X71552000Y-104826000D02*
X71552000Y-91872000D01*
D10*
X76632000Y-56312000D02*
X79934000Y-56312000D01*
X75790000Y-55470000D02*
X76632000Y-56312000D01*
X75790000Y-50470000D02*
X75790000Y-55470000D01*
X97330000Y-59040000D02*
X95362000Y-59040000D01*
X96270000Y-53946000D02*
X96270000Y-53010000D01*
X94666000Y-55550000D02*
X96270000Y-53946000D01*
X94666000Y-58344000D02*
X94666000Y-55550000D01*
X95362000Y-59040000D02*
X94666000Y-58344000D01*
X99368000Y-50340000D02*
X100320000Y-50340000D01*
X98730000Y-50978000D02*
X99368000Y-50340000D01*
X98730000Y-52380000D02*
X98730000Y-50978000D01*
X96270000Y-53010000D02*
X98100000Y-53010000D01*
X98100000Y-53010000D02*
X98730000Y-52380000D01*
X114200000Y-53960000D02*
X115936000Y-53960000D01*
X115936000Y-53960000D02*
X116002000Y-54026000D01*
X112084010Y-48584010D02*
X112700000Y-49200000D01*
X105093907Y-48584010D02*
X112084010Y-48584010D01*
X104068887Y-47558990D02*
X105093907Y-48584010D01*
X102001010Y-47558990D02*
X104068887Y-47558990D01*
X100320000Y-50340000D02*
X100320000Y-49240000D01*
X100320000Y-49240000D02*
X102001010Y-47558990D01*
X123114000Y-49396000D02*
X122990000Y-49520000D01*
X123114000Y-48692000D02*
X123114000Y-49396000D01*
X122606000Y-48184000D02*
X123114000Y-48692000D01*
X105588000Y-48184000D02*
X122606000Y-48184000D01*
X104318000Y-46914000D02*
X104326000Y-46922000D01*
X104326000Y-46922000D02*
X105588000Y-48184000D01*
X103650000Y-55550000D02*
X101270000Y-55550000D01*
X101270000Y-55550000D02*
X100270000Y-55550000D01*
X100770000Y-46922000D02*
X104326000Y-46922000D01*
X100254000Y-47438000D02*
X100770000Y-46922000D01*
X100270000Y-55550000D02*
X100254000Y-55566000D01*
X101270000Y-53140000D02*
X101270000Y-55550000D01*
D29*
X65964000Y-54534000D02*
X72060000Y-54534000D01*
D10*
X83744000Y-111176000D02*
X82474000Y-111176000D01*
X81900000Y-111750000D02*
X81900000Y-114100000D01*
X82474000Y-111176000D02*
X81900000Y-111750000D01*
X61900000Y-117272000D02*
X80950000Y-117272000D01*
X81900000Y-116322000D02*
X81900000Y-114100000D01*
X80950000Y-117272000D02*
X81900000Y-116322000D01*
X86284000Y-106858000D02*
X86284000Y-111176000D01*
X93650000Y-106858000D02*
X93650000Y-77902000D01*
X81458000Y-77648000D02*
X81458000Y-89840000D01*
X70536000Y-90856000D02*
X70536000Y-103810000D01*
X70536000Y-103810000D02*
X70536000Y-104791997D01*
X70536000Y-104791997D02*
X70501997Y-104826000D01*
X65710000Y-108636000D02*
X65710000Y-116256000D01*
X70536000Y-107620000D02*
X66726000Y-107620000D01*
X66726000Y-107620000D02*
X65710000Y-108636000D01*
X78664000Y-90856000D02*
X80950000Y-90856000D01*
X81458000Y-90348000D02*
X81458000Y-89840000D01*
X80950000Y-90856000D02*
X81458000Y-90348000D01*
X66472000Y-82220000D02*
X66472000Y-77902000D01*
X69520000Y-69440000D02*
X69520000Y-68504000D01*
X64948000Y-75616000D02*
X64948000Y-77902000D01*
X65710000Y-74854000D02*
X64948000Y-75616000D01*
X65710000Y-68504000D02*
X65710000Y-74854000D01*
X66218000Y-67996000D02*
X65710000Y-68504000D01*
X69012000Y-67996000D02*
X66218000Y-67996000D01*
X69520000Y-68504000D02*
X69012000Y-67996000D01*
X62916000Y-74600000D02*
X62916000Y-87554000D01*
X80696000Y-79680000D02*
X80696000Y-87554000D01*
X62154000Y-88316000D02*
X62154000Y-72060000D01*
X79934000Y-80442000D02*
X79934000Y-88316000D01*
D29*
X70282000Y-56058000D02*
X73584000Y-56058000D01*
X73584000Y-56058000D02*
X75616000Y-58090000D01*
X75616000Y-58090000D02*
X80950000Y-58090000D01*
X70282000Y-56058000D02*
X63202000Y-56058000D01*
X63202000Y-56058000D02*
X63170000Y-56090000D01*
X84760000Y-56090000D02*
X81426000Y-56090000D01*
X80950000Y-56566000D02*
X80950000Y-58090000D01*
X81426000Y-56090000D02*
X80950000Y-56566000D01*
X102032000Y-58090000D02*
X100130000Y-58090000D01*
X115651000Y-50627000D02*
X115748000Y-50724000D01*
X114200000Y-53010000D02*
X117222000Y-53010000D01*
X117222000Y-53010000D02*
X117272000Y-53060000D01*
X119354000Y-53060000D02*
X120624000Y-53060000D01*
X122320000Y-54756000D02*
X122320000Y-58090000D01*
X120624000Y-53060000D02*
X122320000Y-54756000D01*
X122320000Y-54756000D02*
X125894000Y-54756000D01*
X125894000Y-54756000D02*
X125990000Y-54660000D01*
X115748000Y-50724000D02*
X108128000Y-50724000D01*
X108128000Y-50724000D02*
X106350011Y-50724000D01*
X102220000Y-50340000D02*
X102220000Y-48774000D01*
X103810000Y-48454000D02*
X102540000Y-48454000D01*
X105096000Y-49740000D02*
X103810000Y-48454000D01*
X105096000Y-49740000D02*
X105096000Y-50724000D01*
X102540000Y-48454000D02*
X102220000Y-48774000D01*
X105096000Y-50724000D02*
X105334000Y-50724000D01*
X105334000Y-50724000D02*
X106350011Y-50724000D01*
X103810000Y-52010000D02*
X105096000Y-50724000D01*
X103810000Y-54042000D02*
X103810000Y-52010000D01*
X111200000Y-53960000D02*
X109316000Y-53960000D01*
X108128000Y-52772000D02*
X108128000Y-50724000D01*
X109316000Y-53960000D02*
X108128000Y-52772000D01*
D10*
X76378000Y-113970000D02*
X74854000Y-113970000D01*
X74470000Y-113586000D02*
X74470000Y-112380000D01*
X74854000Y-113970000D02*
X74470000Y-113586000D01*
X74404000Y-112446000D02*
X74470000Y-112380000D01*
X70536000Y-112446000D02*
X74404000Y-112446000D01*
D29*
X86030000Y-58090000D02*
X86030000Y-56566000D01*
X86480000Y-56116000D02*
X86480000Y-53010000D01*
X86030000Y-56566000D02*
X86480000Y-56116000D01*
X111200000Y-52060000D02*
X109700000Y-52060000D01*
X93570000Y-53010000D02*
X93570000Y-51058000D01*
X94920000Y-49708000D02*
X93570000Y-51058000D01*
X98730000Y-49708000D02*
X94920000Y-49708000D01*
X97330000Y-57140000D02*
X96002000Y-57140000D01*
X96190000Y-55550000D02*
X98730000Y-55550000D01*
X95682000Y-56058000D02*
X96190000Y-55550000D01*
X95682000Y-56820000D02*
X95682000Y-56058000D01*
X96002000Y-57140000D02*
X95682000Y-56820000D01*
X106350000Y-56312000D02*
X105842000Y-56820000D01*
X106350000Y-55550000D02*
X106350000Y-56312000D01*
X100000000Y-56820000D02*
X98730000Y-55550000D01*
X105842000Y-56820000D02*
X100000000Y-56820000D01*
X106350000Y-55550000D02*
X114732000Y-55550000D01*
X123114000Y-51544000D02*
X122990000Y-51420000D01*
X123114000Y-53264000D02*
X123114000Y-51544000D01*
X90660000Y-51036000D02*
X90660000Y-53010000D01*
X90094000Y-50470000D02*
X90660000Y-51036000D01*
X87300000Y-50470000D02*
X90094000Y-50470000D01*
X80950000Y-111300000D02*
X80950000Y-109906000D01*
X81712000Y-109144000D02*
X85014000Y-109144000D01*
X80950000Y-109906000D02*
X81712000Y-109144000D01*
X85014000Y-106350000D02*
X85014000Y-109144000D01*
X85014000Y-109144000D02*
X85014000Y-113970000D01*
X74854000Y-99492000D02*
X74854000Y-103048000D01*
X88316000Y-113938000D02*
X88348000Y-113970000D01*
X88348000Y-103080000D02*
X88316000Y-103048000D01*
X88348000Y-113970000D02*
X88348000Y-103080000D01*
D10*
X68250000Y-89078000D02*
X68250000Y-82220000D01*
X89680000Y-64440000D02*
X89680000Y-66410000D01*
X89680000Y-66410000D02*
X89110000Y-66980000D01*
X89110000Y-66980000D02*
X89110000Y-69234000D01*
X89110000Y-69234000D02*
X89078000Y-69266000D01*
X86284000Y-69266000D02*
X86284000Y-75108000D01*
X86284000Y-75108000D02*
X86538000Y-75362000D01*
X86538000Y-75362000D02*
X86538000Y-89078000D01*
X78490000Y-50470000D02*
X80950000Y-50470000D01*
X92348000Y-112160000D02*
X92348000Y-113970000D01*
X89586000Y-109398000D02*
X92348000Y-112160000D01*
X101238000Y-112160000D02*
X101238000Y-113970000D01*
X98476000Y-109398000D02*
X101238000Y-112160000D01*
X65710000Y-75870000D02*
X65710000Y-84760000D01*
X76124000Y-84760000D02*
X74680000Y-84760000D01*
X100000000Y-86538000D02*
X100000000Y-84760000D01*
X82982000Y-75616000D02*
X82982000Y-84760000D01*
X100080000Y-86618000D02*
X100000000Y-86538000D01*
X100080000Y-91110000D02*
X100080000Y-86618000D01*
X105080000Y-67060000D02*
X105160000Y-66980000D01*
X105080000Y-72822000D02*
X105080000Y-67060000D01*
X102540000Y-86538000D02*
X102540000Y-83998000D01*
X79200449Y-83969551D02*
X79172000Y-83998000D01*
X79200449Y-81185034D02*
X79200449Y-83969551D01*
X84887000Y-69266000D02*
X84887000Y-75362000D01*
X102540000Y-72822000D02*
X102540000Y-74600000D01*
X67234000Y-78664000D02*
X67234000Y-69266000D01*
X67996000Y-80950000D02*
X67996000Y-70790000D01*
X100000000Y-72822000D02*
X100000000Y-74600000D01*
X83998000Y-70790000D02*
X83998000Y-74600000D01*
X67234000Y-80188000D02*
X67234000Y-89840000D01*
X97460000Y-72822000D02*
X97460000Y-76124000D01*
X85776000Y-81400315D02*
X85776000Y-76124000D01*
X85776000Y-81966000D02*
X85776000Y-81400315D01*
X66472000Y-68767483D02*
X66443551Y-68739034D01*
X66472000Y-76632000D02*
X66472000Y-68767483D01*
X100000000Y-76886000D02*
X100000000Y-78250000D01*
D30*
G36*
X129117001Y-59200000D02*
G01*
X124070321Y-59200000D01*
X124116309Y-59048396D01*
X124131910Y-58890000D01*
X124128000Y-58342000D01*
X123926000Y-58140000D01*
X122370000Y-58140000D01*
X122370000Y-58160000D01*
X122270000Y-58160000D01*
X122270000Y-58140000D01*
X120714000Y-58140000D01*
X120512000Y-58342000D01*
X120508090Y-58890000D01*
X120523691Y-59048396D01*
X120569679Y-59200000D01*
X120070320Y-59200000D01*
X120116308Y-59048396D01*
X120131909Y-58890000D01*
X120131909Y-57290000D01*
X120508090Y-57290000D01*
X120512000Y-57838000D01*
X120714000Y-58040000D01*
X122270000Y-58040000D01*
X122270000Y-56684000D01*
X122370000Y-56684000D01*
X122370000Y-58040000D01*
X123926000Y-58040000D01*
X124128000Y-57838000D01*
X124131910Y-57290000D01*
X124116309Y-57131604D01*
X124070107Y-56979295D01*
X123995078Y-56838927D01*
X123894107Y-56715893D01*
X123771073Y-56614922D01*
X123630705Y-56539893D01*
X123478396Y-56493691D01*
X123320000Y-56478090D01*
X122572000Y-56482000D01*
X122370000Y-56684000D01*
X122270000Y-56684000D01*
X122068000Y-56482000D01*
X121320000Y-56478090D01*
X121161604Y-56493691D01*
X121009295Y-56539893D01*
X120868927Y-56614922D01*
X120745893Y-56715893D01*
X120644922Y-56838927D01*
X120569893Y-56979295D01*
X120523691Y-57131604D01*
X120508090Y-57290000D01*
X120131909Y-57290000D01*
X120116308Y-57131604D01*
X120070106Y-56979296D01*
X119995078Y-56838928D01*
X119894106Y-56715894D01*
X119771072Y-56614922D01*
X119630704Y-56539894D01*
X119478396Y-56493692D01*
X119478000Y-56493653D01*
X119478000Y-55610000D01*
X124228090Y-55610000D01*
X124243691Y-55768396D01*
X124289893Y-55920705D01*
X124364922Y-56061073D01*
X124465893Y-56184107D01*
X124523100Y-56231055D01*
X124432081Y-56367275D01*
X124299559Y-56687210D01*
X124232000Y-57026852D01*
X124232000Y-57373148D01*
X124299559Y-57712790D01*
X124432081Y-58032725D01*
X124624472Y-58320660D01*
X124869340Y-58565528D01*
X125157275Y-58757919D01*
X125477210Y-58890441D01*
X125816852Y-58958000D01*
X126163148Y-58958000D01*
X126502790Y-58890441D01*
X126822725Y-58757919D01*
X127110660Y-58565528D01*
X127355528Y-58320660D01*
X127547919Y-58032725D01*
X127680441Y-57712790D01*
X127748000Y-57373148D01*
X127748000Y-57026852D01*
X127680441Y-56687210D01*
X127547919Y-56367275D01*
X127456900Y-56231055D01*
X127514107Y-56184107D01*
X127615078Y-56061073D01*
X127690107Y-55920705D01*
X127736309Y-55768396D01*
X127751910Y-55610000D01*
X127748000Y-54912000D01*
X127546000Y-54710000D01*
X126040000Y-54710000D01*
X126040000Y-54730000D01*
X125940000Y-54730000D01*
X125940000Y-54710000D01*
X124434000Y-54710000D01*
X124232000Y-54912000D01*
X124228090Y-55610000D01*
X119478000Y-55610000D01*
X119478000Y-52082887D01*
X119483603Y-52026001D01*
X119478000Y-51969111D01*
X119478000Y-51681909D01*
X121040000Y-51681909D01*
X121198396Y-51666308D01*
X121328091Y-51626966D01*
X121328091Y-51820000D01*
X121343692Y-51978396D01*
X121389894Y-52130704D01*
X121464922Y-52271072D01*
X121565894Y-52394106D01*
X121688928Y-52495078D01*
X121829296Y-52570106D01*
X121956000Y-52608541D01*
X121956000Y-52642731D01*
X121954865Y-52644430D01*
X121856266Y-52882470D01*
X121806000Y-53135173D01*
X121806000Y-53392827D01*
X121856266Y-53645530D01*
X121954865Y-53883570D01*
X122098010Y-54097801D01*
X122280199Y-54279990D01*
X122494430Y-54423135D01*
X122732470Y-54521734D01*
X122985173Y-54572000D01*
X123242827Y-54572000D01*
X123495530Y-54521734D01*
X123733570Y-54423135D01*
X123947801Y-54279990D01*
X124129990Y-54097801D01*
X124229429Y-53948981D01*
X124232000Y-54408000D01*
X124434000Y-54610000D01*
X125940000Y-54610000D01*
X125940000Y-53104000D01*
X126040000Y-53104000D01*
X126040000Y-54610000D01*
X127546000Y-54610000D01*
X127748000Y-54408000D01*
X127751910Y-53710000D01*
X127736309Y-53551604D01*
X127690107Y-53399295D01*
X127615078Y-53258927D01*
X127514107Y-53135893D01*
X127391073Y-53034922D01*
X127250705Y-52959893D01*
X127098396Y-52913691D01*
X126940000Y-52898090D01*
X126242000Y-52902000D01*
X126040000Y-53104000D01*
X125940000Y-53104000D01*
X125738000Y-52902000D01*
X125040000Y-52898090D01*
X124881604Y-52913691D01*
X124729295Y-52959893D01*
X124588927Y-53034922D01*
X124465893Y-53135893D01*
X124422000Y-53189377D01*
X124422000Y-53135173D01*
X124371734Y-52882470D01*
X124273135Y-52644430D01*
X124272000Y-52642731D01*
X124272000Y-52505272D01*
X124291072Y-52495078D01*
X124414106Y-52394106D01*
X124515078Y-52271072D01*
X124590106Y-52130704D01*
X124636308Y-51978396D01*
X124651909Y-51820000D01*
X124651909Y-51020000D01*
X124636308Y-50861604D01*
X124590106Y-50709296D01*
X124515078Y-50568928D01*
X124433889Y-50470000D01*
X124515078Y-50371072D01*
X124590106Y-50230704D01*
X124636308Y-50078396D01*
X124651909Y-49920000D01*
X124651909Y-49120000D01*
X124636308Y-48961604D01*
X124590106Y-48809296D01*
X124515078Y-48668928D01*
X124414106Y-48545894D01*
X124291072Y-48444922D01*
X124150704Y-48369894D01*
X123998396Y-48323692D01*
X123973755Y-48321265D01*
X123893514Y-48171145D01*
X123776923Y-48029077D01*
X123741314Y-47999854D01*
X123298147Y-47556687D01*
X123268923Y-47521077D01*
X123126855Y-47404486D01*
X122964771Y-47317850D01*
X122788900Y-47264500D01*
X122651832Y-47251000D01*
X122651829Y-47251000D01*
X122606000Y-47246486D01*
X122560171Y-47251000D01*
X105974462Y-47251000D01*
X105018147Y-46294687D01*
X104988923Y-46259077D01*
X104953313Y-46229853D01*
X104945322Y-46221862D01*
X104838854Y-46134486D01*
X104676771Y-46047851D01*
X104500899Y-45994501D01*
X104318000Y-45976486D01*
X104190950Y-45989000D01*
X100815828Y-45989000D01*
X100769999Y-45984486D01*
X100724170Y-45989000D01*
X100724168Y-45989000D01*
X100587100Y-46002500D01*
X100411229Y-46055850D01*
X100249145Y-46142486D01*
X100142508Y-46230000D01*
X100135022Y-46230000D01*
X99901639Y-46276423D01*
X99681797Y-46367484D01*
X99483945Y-46499685D01*
X99315685Y-46667945D01*
X99183484Y-46865797D01*
X99092423Y-47085639D01*
X99046000Y-47319022D01*
X99046000Y-47556978D01*
X99092423Y-47790361D01*
X99183484Y-48010203D01*
X99315685Y-48208055D01*
X99483945Y-48376315D01*
X99681797Y-48508516D01*
X99717313Y-48523227D01*
X99692683Y-48547857D01*
X99657078Y-48577077D01*
X99584916Y-48665008D01*
X99563126Y-48691559D01*
X99349570Y-48548865D01*
X99111530Y-48450266D01*
X98858827Y-48400000D01*
X98601173Y-48400000D01*
X98348470Y-48450266D01*
X98110430Y-48548865D01*
X98108731Y-48550000D01*
X94976886Y-48550000D01*
X94919999Y-48544397D01*
X94863112Y-48550000D01*
X94863111Y-48550000D01*
X94692992Y-48566755D01*
X94474708Y-48632971D01*
X94273537Y-48740499D01*
X94097208Y-48885208D01*
X94060944Y-48929397D01*
X92791397Y-50198944D01*
X92747209Y-50235208D01*
X92710945Y-50279396D01*
X92710944Y-50279397D01*
X92602500Y-50411537D01*
X92494971Y-50612709D01*
X92428756Y-50830992D01*
X92406397Y-51058000D01*
X92412001Y-51114896D01*
X92412001Y-51307056D01*
X92295704Y-51244894D01*
X92143396Y-51198692D01*
X91985000Y-51183091D01*
X91818000Y-51183091D01*
X91818000Y-51092887D01*
X91823603Y-51036000D01*
X91818000Y-50979111D01*
X91801245Y-50808992D01*
X91735029Y-50590708D01*
X91627501Y-50389537D01*
X91482792Y-50213208D01*
X91438594Y-50176936D01*
X90953061Y-49691402D01*
X90916792Y-49647208D01*
X90740463Y-49502499D01*
X90539292Y-49394971D01*
X90321008Y-49328755D01*
X90150889Y-49312000D01*
X90150887Y-49312000D01*
X90094000Y-49306397D01*
X90037113Y-49312000D01*
X87921269Y-49312000D01*
X87919570Y-49310865D01*
X87681530Y-49212266D01*
X87428827Y-49162000D01*
X87171173Y-49162000D01*
X86918470Y-49212266D01*
X86680430Y-49310865D01*
X86466199Y-49454010D01*
X86284010Y-49636199D01*
X86140865Y-49850430D01*
X86042266Y-50088470D01*
X85992000Y-50341173D01*
X85992000Y-50598827D01*
X86042266Y-50851530D01*
X86140865Y-51089570D01*
X86203354Y-51183091D01*
X85201909Y-51183091D01*
X85201909Y-49570000D01*
X85186308Y-49411604D01*
X85140106Y-49259296D01*
X85065078Y-49118928D01*
X84964106Y-48995894D01*
X84841072Y-48894922D01*
X84700704Y-48819894D01*
X84573057Y-48781173D01*
X84565029Y-48754708D01*
X84457501Y-48553537D01*
X84453667Y-48548865D01*
X84312792Y-48377208D01*
X84268593Y-48340935D01*
X83587061Y-47659402D01*
X83550792Y-47615208D01*
X83374463Y-47470499D01*
X83173292Y-47362971D01*
X82955008Y-47296755D01*
X82784889Y-47280000D01*
X82784887Y-47280000D01*
X82728000Y-47274397D01*
X82671113Y-47280000D01*
X74910889Y-47280000D01*
X74854000Y-47274397D01*
X74797111Y-47280000D01*
X74626992Y-47296755D01*
X74408708Y-47362971D01*
X74207537Y-47470499D01*
X74031208Y-47615208D01*
X73994935Y-47659407D01*
X73313402Y-48340939D01*
X73269208Y-48377208D01*
X73124499Y-48553538D01*
X73016971Y-48754709D01*
X72950755Y-48972993D01*
X72936127Y-49121515D01*
X72928397Y-49200000D01*
X72934000Y-49256887D01*
X72934001Y-52106000D01*
X68109269Y-52106000D01*
X68107570Y-52104865D01*
X67869530Y-52006266D01*
X67616827Y-51956000D01*
X67359173Y-51956000D01*
X67106470Y-52006266D01*
X66868430Y-52104865D01*
X66654199Y-52248010D01*
X66472010Y-52430199D01*
X66328865Y-52644430D01*
X66230266Y-52882470D01*
X66180000Y-53135173D01*
X66180000Y-53243340D01*
X66092827Y-53226000D01*
X65835173Y-53226000D01*
X65582470Y-53276266D01*
X65344430Y-53374865D01*
X65130199Y-53518010D01*
X64948010Y-53700199D01*
X64804865Y-53914430D01*
X64706266Y-54152470D01*
X64656000Y-54405173D01*
X64656000Y-54662827D01*
X64706266Y-54915530D01*
X64804865Y-55153570D01*
X64948010Y-55367801D01*
X65130199Y-55549990D01*
X65344430Y-55693135D01*
X65582470Y-55791734D01*
X65835173Y-55842000D01*
X66092827Y-55842000D01*
X66345530Y-55791734D01*
X66583570Y-55693135D01*
X66585269Y-55692000D01*
X71438731Y-55692000D01*
X71440430Y-55693135D01*
X71678470Y-55791734D01*
X71931173Y-55842000D01*
X72188827Y-55842000D01*
X72441530Y-55791734D01*
X72679570Y-55693135D01*
X72893801Y-55549990D01*
X73075990Y-55367801D01*
X73219135Y-55153570D01*
X73317734Y-54915530D01*
X73368000Y-54662827D01*
X73368000Y-54422000D01*
X73470731Y-54422000D01*
X73472430Y-54423135D01*
X73710470Y-54521734D01*
X73963173Y-54572000D01*
X74220827Y-54572000D01*
X74473530Y-54521734D01*
X74711570Y-54423135D01*
X74857001Y-54325961D01*
X74857001Y-55424161D01*
X74852486Y-55470000D01*
X74868806Y-55635695D01*
X74870501Y-55652900D01*
X74908149Y-55777008D01*
X74923851Y-55828771D01*
X75010486Y-55990854D01*
X75016970Y-55998755D01*
X75127078Y-56132923D01*
X75162682Y-56162142D01*
X75939857Y-56939318D01*
X75969077Y-56974923D01*
X76056913Y-57047007D01*
X76111145Y-57091514D01*
X76273228Y-57178150D01*
X76314161Y-57190567D01*
X76449100Y-57231500D01*
X76586168Y-57245000D01*
X76586171Y-57245000D01*
X76632000Y-57249514D01*
X76677829Y-57245000D01*
X79158630Y-57245000D01*
X79163945Y-57250315D01*
X79361797Y-57382516D01*
X79581639Y-57473577D01*
X79815022Y-57520000D01*
X80052978Y-57520000D01*
X80286361Y-57473577D01*
X80506203Y-57382516D01*
X80704055Y-57250315D01*
X80872315Y-57082055D01*
X81004516Y-56884203D01*
X81095577Y-56664361D01*
X81142000Y-56430978D01*
X81142000Y-56193022D01*
X81095577Y-55959639D01*
X81004516Y-55739797D01*
X80872315Y-55541945D01*
X80704055Y-55373685D01*
X80506203Y-55241484D01*
X80286361Y-55150423D01*
X80052978Y-55104000D01*
X79815022Y-55104000D01*
X79581639Y-55150423D01*
X79361797Y-55241484D01*
X79163945Y-55373685D01*
X79158630Y-55379000D01*
X77018461Y-55379000D01*
X76723000Y-55083540D01*
X76723000Y-51908844D01*
X76850704Y-51870106D01*
X76991072Y-51795078D01*
X77114106Y-51694106D01*
X77140000Y-51662554D01*
X77165894Y-51694106D01*
X77288928Y-51795078D01*
X77429296Y-51870106D01*
X77581604Y-51916308D01*
X77740000Y-51931909D01*
X79240000Y-51931909D01*
X79398396Y-51916308D01*
X79550704Y-51870106D01*
X79691072Y-51795078D01*
X79783636Y-51719112D01*
X79861214Y-51796690D01*
X80140959Y-51983610D01*
X80451795Y-52112362D01*
X80781777Y-52178000D01*
X81118223Y-52178000D01*
X81448205Y-52112362D01*
X81759041Y-51983610D01*
X81945866Y-51858777D01*
X82015894Y-51944106D01*
X82138928Y-52045078D01*
X82279296Y-52120106D01*
X82431604Y-52166308D01*
X82590000Y-52181909D01*
X84343091Y-52181909D01*
X84343091Y-54025000D01*
X84358692Y-54183396D01*
X84404894Y-54335704D01*
X84479922Y-54476072D01*
X84580894Y-54599106D01*
X84703928Y-54700078D01*
X84844296Y-54775106D01*
X84996604Y-54821308D01*
X85155000Y-54836909D01*
X85322000Y-54836909D01*
X85322000Y-55636341D01*
X85251397Y-55706944D01*
X85207209Y-55743208D01*
X85170945Y-55787396D01*
X85170944Y-55787397D01*
X85062500Y-55919537D01*
X84954971Y-56120709D01*
X84927783Y-56210337D01*
X84888755Y-56338992D01*
X84877088Y-56457448D01*
X84750704Y-56389894D01*
X84598396Y-56343692D01*
X84440000Y-56328091D01*
X82540000Y-56328091D01*
X82381604Y-56343692D01*
X82229296Y-56389894D01*
X82088928Y-56464922D01*
X81965894Y-56565894D01*
X81864922Y-56688928D01*
X81789894Y-56829296D01*
X81743692Y-56981604D01*
X81728091Y-57140000D01*
X81728091Y-59040000D01*
X81743692Y-59198396D01*
X81744179Y-59200000D01*
X73805821Y-59200000D01*
X73806308Y-59198396D01*
X73821909Y-59040000D01*
X73821909Y-57140000D01*
X73806308Y-56981604D01*
X73760106Y-56829296D01*
X73685078Y-56688928D01*
X73584106Y-56565894D01*
X73461072Y-56464922D01*
X73320704Y-56389894D01*
X73168396Y-56343692D01*
X73010000Y-56328091D01*
X71110000Y-56328091D01*
X70951604Y-56343692D01*
X70799296Y-56389894D01*
X70658928Y-56464922D01*
X70535894Y-56565894D01*
X70488946Y-56623100D01*
X70352725Y-56532081D01*
X70032790Y-56399559D01*
X69693148Y-56332000D01*
X69346852Y-56332000D01*
X69007210Y-56399559D01*
X68687275Y-56532081D01*
X68399340Y-56724472D01*
X68154472Y-56969340D01*
X67962081Y-57257275D01*
X67878131Y-57459948D01*
X67741990Y-57256199D01*
X67559801Y-57074010D01*
X67345570Y-56930865D01*
X67107530Y-56832266D01*
X66854827Y-56782000D01*
X66597173Y-56782000D01*
X66344470Y-56832266D01*
X66106430Y-56930865D01*
X65892199Y-57074010D01*
X65710010Y-57256199D01*
X65566865Y-57470430D01*
X65468266Y-57708470D01*
X65418000Y-57961173D01*
X65418000Y-58218827D01*
X65468266Y-58471530D01*
X65566865Y-58709570D01*
X65710010Y-58923801D01*
X65892199Y-59105990D01*
X66032894Y-59200000D01*
X64720320Y-59200000D01*
X64766308Y-59048396D01*
X64781909Y-58890000D01*
X64781909Y-57290000D01*
X64766308Y-57131604D01*
X64720106Y-56979296D01*
X64645078Y-56838928D01*
X64613874Y-56800906D01*
X64657590Y-56720731D01*
X64752056Y-56418397D01*
X64785724Y-56103443D01*
X64757301Y-55787973D01*
X64667879Y-55484109D01*
X64520894Y-55203529D01*
X64505957Y-55181174D01*
X64204424Y-55126287D01*
X63240711Y-56090000D01*
X63254853Y-56104142D01*
X63184142Y-56174853D01*
X63170000Y-56160711D01*
X63155858Y-56174853D01*
X63085147Y-56104142D01*
X63099289Y-56090000D01*
X62135576Y-55126287D01*
X61834043Y-55181174D01*
X61682410Y-55459269D01*
X61587944Y-55761603D01*
X61554276Y-56076557D01*
X61582699Y-56392027D01*
X61672121Y-56695891D01*
X61726741Y-56800156D01*
X61694922Y-56838928D01*
X61619894Y-56979296D01*
X61573692Y-57131604D01*
X61558091Y-57290000D01*
X61558091Y-58890000D01*
X61573692Y-59048396D01*
X61619680Y-59200000D01*
X58383000Y-59200000D01*
X58383000Y-55055576D01*
X62206287Y-55055576D01*
X63170000Y-56019289D01*
X64133713Y-55055576D01*
X64078826Y-54754043D01*
X63800731Y-54602410D01*
X63498397Y-54507944D01*
X63183443Y-54474276D01*
X62867973Y-54502699D01*
X62564109Y-54592121D01*
X62283529Y-54739106D01*
X62261174Y-54754043D01*
X62206287Y-55055576D01*
X58383000Y-55055576D01*
X58383000Y-45383000D01*
X129117000Y-45383000D01*
X129117001Y-59200000D01*
X129117001Y-59200000D01*
G37*
X129117001Y-59200000D02*
X124070321Y-59200000D01*
X124116309Y-59048396D01*
X124131910Y-58890000D01*
X124128000Y-58342000D01*
X123926000Y-58140000D01*
X122370000Y-58140000D01*
X122370000Y-58160000D01*
X122270000Y-58160000D01*
X122270000Y-58140000D01*
X120714000Y-58140000D01*
X120512000Y-58342000D01*
X120508090Y-58890000D01*
X120523691Y-59048396D01*
X120569679Y-59200000D01*
X120070320Y-59200000D01*
X120116308Y-59048396D01*
X120131909Y-58890000D01*
X120131909Y-57290000D01*
X120508090Y-57290000D01*
X120512000Y-57838000D01*
X120714000Y-58040000D01*
X122270000Y-58040000D01*
X122270000Y-56684000D01*
X122370000Y-56684000D01*
X122370000Y-58040000D01*
X123926000Y-58040000D01*
X124128000Y-57838000D01*
X124131910Y-57290000D01*
X124116309Y-57131604D01*
X124070107Y-56979295D01*
X123995078Y-56838927D01*
X123894107Y-56715893D01*
X123771073Y-56614922D01*
X123630705Y-56539893D01*
X123478396Y-56493691D01*
X123320000Y-56478090D01*
X122572000Y-56482000D01*
X122370000Y-56684000D01*
X122270000Y-56684000D01*
X122068000Y-56482000D01*
X121320000Y-56478090D01*
X121161604Y-56493691D01*
X121009295Y-56539893D01*
X120868927Y-56614922D01*
X120745893Y-56715893D01*
X120644922Y-56838927D01*
X120569893Y-56979295D01*
X120523691Y-57131604D01*
X120508090Y-57290000D01*
X120131909Y-57290000D01*
X120116308Y-57131604D01*
X120070106Y-56979296D01*
X119995078Y-56838928D01*
X119894106Y-56715894D01*
X119771072Y-56614922D01*
X119630704Y-56539894D01*
X119478396Y-56493692D01*
X119478000Y-56493653D01*
X119478000Y-55610000D01*
X124228090Y-55610000D01*
X124243691Y-55768396D01*
X124289893Y-55920705D01*
X124364922Y-56061073D01*
X124465893Y-56184107D01*
X124523100Y-56231055D01*
X124432081Y-56367275D01*
X124299559Y-56687210D01*
X124232000Y-57026852D01*
X124232000Y-57373148D01*
X124299559Y-57712790D01*
X124432081Y-58032725D01*
X124624472Y-58320660D01*
X124869340Y-58565528D01*
X125157275Y-58757919D01*
X125477210Y-58890441D01*
X125816852Y-58958000D01*
X126163148Y-58958000D01*
X126502790Y-58890441D01*
X126822725Y-58757919D01*
X127110660Y-58565528D01*
X127355528Y-58320660D01*
X127547919Y-58032725D01*
X127680441Y-57712790D01*
X127748000Y-57373148D01*
X127748000Y-57026852D01*
X127680441Y-56687210D01*
X127547919Y-56367275D01*
X127456900Y-56231055D01*
X127514107Y-56184107D01*
X127615078Y-56061073D01*
X127690107Y-55920705D01*
X127736309Y-55768396D01*
X127751910Y-55610000D01*
X127748000Y-54912000D01*
X127546000Y-54710000D01*
X126040000Y-54710000D01*
X126040000Y-54730000D01*
X125940000Y-54730000D01*
X125940000Y-54710000D01*
X124434000Y-54710000D01*
X124232000Y-54912000D01*
X124228090Y-55610000D01*
X119478000Y-55610000D01*
X119478000Y-52082887D01*
X119483603Y-52026001D01*
X119478000Y-51969111D01*
X119478000Y-51681909D01*
X121040000Y-51681909D01*
X121198396Y-51666308D01*
X121328091Y-51626966D01*
X121328091Y-51820000D01*
X121343692Y-51978396D01*
X121389894Y-52130704D01*
X121464922Y-52271072D01*
X121565894Y-52394106D01*
X121688928Y-52495078D01*
X121829296Y-52570106D01*
X121956000Y-52608541D01*
X121956000Y-52642731D01*
X121954865Y-52644430D01*
X121856266Y-52882470D01*
X121806000Y-53135173D01*
X121806000Y-53392827D01*
X121856266Y-53645530D01*
X121954865Y-53883570D01*
X122098010Y-54097801D01*
X122280199Y-54279990D01*
X122494430Y-54423135D01*
X122732470Y-54521734D01*
X122985173Y-54572000D01*
X123242827Y-54572000D01*
X123495530Y-54521734D01*
X123733570Y-54423135D01*
X123947801Y-54279990D01*
X124129990Y-54097801D01*
X124229429Y-53948981D01*
X124232000Y-54408000D01*
X124434000Y-54610000D01*
X125940000Y-54610000D01*
X125940000Y-53104000D01*
X126040000Y-53104000D01*
X126040000Y-54610000D01*
X127546000Y-54610000D01*
X127748000Y-54408000D01*
X127751910Y-53710000D01*
X127736309Y-53551604D01*
X127690107Y-53399295D01*
X127615078Y-53258927D01*
X127514107Y-53135893D01*
X127391073Y-53034922D01*
X127250705Y-52959893D01*
X127098396Y-52913691D01*
X126940000Y-52898090D01*
X126242000Y-52902000D01*
X126040000Y-53104000D01*
X125940000Y-53104000D01*
X125738000Y-52902000D01*
X125040000Y-52898090D01*
X124881604Y-52913691D01*
X124729295Y-52959893D01*
X124588927Y-53034922D01*
X124465893Y-53135893D01*
X124422000Y-53189377D01*
X124422000Y-53135173D01*
X124371734Y-52882470D01*
X124273135Y-52644430D01*
X124272000Y-52642731D01*
X124272000Y-52505272D01*
X124291072Y-52495078D01*
X124414106Y-52394106D01*
X124515078Y-52271072D01*
X124590106Y-52130704D01*
X124636308Y-51978396D01*
X124651909Y-51820000D01*
X124651909Y-51020000D01*
X124636308Y-50861604D01*
X124590106Y-50709296D01*
X124515078Y-50568928D01*
X124433889Y-50470000D01*
X124515078Y-50371072D01*
X124590106Y-50230704D01*
X124636308Y-50078396D01*
X124651909Y-49920000D01*
X124651909Y-49120000D01*
X124636308Y-48961604D01*
X124590106Y-48809296D01*
X124515078Y-48668928D01*
X124414106Y-48545894D01*
X124291072Y-48444922D01*
X124150704Y-48369894D01*
X123998396Y-48323692D01*
X123973755Y-48321265D01*
X123893514Y-48171145D01*
X123776923Y-48029077D01*
X123741314Y-47999854D01*
X123298147Y-47556687D01*
X123268923Y-47521077D01*
X123126855Y-47404486D01*
X122964771Y-47317850D01*
X122788900Y-47264500D01*
X122651832Y-47251000D01*
X122651829Y-47251000D01*
X122606000Y-47246486D01*
X122560171Y-47251000D01*
X105974462Y-47251000D01*
X105018147Y-46294687D01*
X104988923Y-46259077D01*
X104953313Y-46229853D01*
X104945322Y-46221862D01*
X104838854Y-46134486D01*
X104676771Y-46047851D01*
X104500899Y-45994501D01*
X104318000Y-45976486D01*
X104190950Y-45989000D01*
X100815828Y-45989000D01*
X100769999Y-45984486D01*
X100724170Y-45989000D01*
X100724168Y-45989000D01*
X100587100Y-46002500D01*
X100411229Y-46055850D01*
X100249145Y-46142486D01*
X100142508Y-46230000D01*
X100135022Y-46230000D01*
X99901639Y-46276423D01*
X99681797Y-46367484D01*
X99483945Y-46499685D01*
X99315685Y-46667945D01*
X99183484Y-46865797D01*
X99092423Y-47085639D01*
X99046000Y-47319022D01*
X99046000Y-47556978D01*
X99092423Y-47790361D01*
X99183484Y-48010203D01*
X99315685Y-48208055D01*
X99483945Y-48376315D01*
X99681797Y-48508516D01*
X99717313Y-48523227D01*
X99692683Y-48547857D01*
X99657078Y-48577077D01*
X99584916Y-48665008D01*
X99563126Y-48691559D01*
X99349570Y-48548865D01*
X99111530Y-48450266D01*
X98858827Y-48400000D01*
X98601173Y-48400000D01*
X98348470Y-48450266D01*
X98110430Y-48548865D01*
X98108731Y-48550000D01*
X94976886Y-48550000D01*
X94919999Y-48544397D01*
X94863112Y-48550000D01*
X94863111Y-48550000D01*
X94692992Y-48566755D01*
X94474708Y-48632971D01*
X94273537Y-48740499D01*
X94097208Y-48885208D01*
X94060944Y-48929397D01*
X92791397Y-50198944D01*
X92747209Y-50235208D01*
X92710945Y-50279396D01*
X92710944Y-50279397D01*
X92602500Y-50411537D01*
X92494971Y-50612709D01*
X92428756Y-50830992D01*
X92406397Y-51058000D01*
X92412001Y-51114896D01*
X92412001Y-51307056D01*
X92295704Y-51244894D01*
X92143396Y-51198692D01*
X91985000Y-51183091D01*
X91818000Y-51183091D01*
X91818000Y-51092887D01*
X91823603Y-51036000D01*
X91818000Y-50979111D01*
X91801245Y-50808992D01*
X91735029Y-50590708D01*
X91627501Y-50389537D01*
X91482792Y-50213208D01*
X91438594Y-50176936D01*
X90953061Y-49691402D01*
X90916792Y-49647208D01*
X90740463Y-49502499D01*
X90539292Y-49394971D01*
X90321008Y-49328755D01*
X90150889Y-49312000D01*
X90150887Y-49312000D01*
X90094000Y-49306397D01*
X90037113Y-49312000D01*
X87921269Y-49312000D01*
X87919570Y-49310865D01*
X87681530Y-49212266D01*
X87428827Y-49162000D01*
X87171173Y-49162000D01*
X86918470Y-49212266D01*
X86680430Y-49310865D01*
X86466199Y-49454010D01*
X86284010Y-49636199D01*
X86140865Y-49850430D01*
X86042266Y-50088470D01*
X85992000Y-50341173D01*
X85992000Y-50598827D01*
X86042266Y-50851530D01*
X86140865Y-51089570D01*
X86203354Y-51183091D01*
X85201909Y-51183091D01*
X85201909Y-49570000D01*
X85186308Y-49411604D01*
X85140106Y-49259296D01*
X85065078Y-49118928D01*
X84964106Y-48995894D01*
X84841072Y-48894922D01*
X84700704Y-48819894D01*
X84573057Y-48781173D01*
X84565029Y-48754708D01*
X84457501Y-48553537D01*
X84453667Y-48548865D01*
X84312792Y-48377208D01*
X84268593Y-48340935D01*
X83587061Y-47659402D01*
X83550792Y-47615208D01*
X83374463Y-47470499D01*
X83173292Y-47362971D01*
X82955008Y-47296755D01*
X82784889Y-47280000D01*
X82784887Y-47280000D01*
X82728000Y-47274397D01*
X82671113Y-47280000D01*
X74910889Y-47280000D01*
X74854000Y-47274397D01*
X74797111Y-47280000D01*
X74626992Y-47296755D01*
X74408708Y-47362971D01*
X74207537Y-47470499D01*
X74031208Y-47615208D01*
X73994935Y-47659407D01*
X73313402Y-48340939D01*
X73269208Y-48377208D01*
X73124499Y-48553538D01*
X73016971Y-48754709D01*
X72950755Y-48972993D01*
X72936127Y-49121515D01*
X72928397Y-49200000D01*
X72934000Y-49256887D01*
X72934001Y-52106000D01*
X68109269Y-52106000D01*
X68107570Y-52104865D01*
X67869530Y-52006266D01*
X67616827Y-51956000D01*
X67359173Y-51956000D01*
X67106470Y-52006266D01*
X66868430Y-52104865D01*
X66654199Y-52248010D01*
X66472010Y-52430199D01*
X66328865Y-52644430D01*
X66230266Y-52882470D01*
X66180000Y-53135173D01*
X66180000Y-53243340D01*
X66092827Y-53226000D01*
X65835173Y-53226000D01*
X65582470Y-53276266D01*
X65344430Y-53374865D01*
X65130199Y-53518010D01*
X64948010Y-53700199D01*
X64804865Y-53914430D01*
X64706266Y-54152470D01*
X64656000Y-54405173D01*
X64656000Y-54662827D01*
X64706266Y-54915530D01*
X64804865Y-55153570D01*
X64948010Y-55367801D01*
X65130199Y-55549990D01*
X65344430Y-55693135D01*
X65582470Y-55791734D01*
X65835173Y-55842000D01*
X66092827Y-55842000D01*
X66345530Y-55791734D01*
X66583570Y-55693135D01*
X66585269Y-55692000D01*
X71438731Y-55692000D01*
X71440430Y-55693135D01*
X71678470Y-55791734D01*
X71931173Y-55842000D01*
X72188827Y-55842000D01*
X72441530Y-55791734D01*
X72679570Y-55693135D01*
X72893801Y-55549990D01*
X73075990Y-55367801D01*
X73219135Y-55153570D01*
X73317734Y-54915530D01*
X73368000Y-54662827D01*
X73368000Y-54422000D01*
X73470731Y-54422000D01*
X73472430Y-54423135D01*
X73710470Y-54521734D01*
X73963173Y-54572000D01*
X74220827Y-54572000D01*
X74473530Y-54521734D01*
X74711570Y-54423135D01*
X74857001Y-54325961D01*
X74857001Y-55424161D01*
X74852486Y-55470000D01*
X74868806Y-55635695D01*
X74870501Y-55652900D01*
X74908149Y-55777008D01*
X74923851Y-55828771D01*
X75010486Y-55990854D01*
X75016970Y-55998755D01*
X75127078Y-56132923D01*
X75162682Y-56162142D01*
X75939857Y-56939318D01*
X75969077Y-56974923D01*
X76056913Y-57047007D01*
X76111145Y-57091514D01*
X76273228Y-57178150D01*
X76314161Y-57190567D01*
X76449100Y-57231500D01*
X76586168Y-57245000D01*
X76586171Y-57245000D01*
X76632000Y-57249514D01*
X76677829Y-57245000D01*
X79158630Y-57245000D01*
X79163945Y-57250315D01*
X79361797Y-57382516D01*
X79581639Y-57473577D01*
X79815022Y-57520000D01*
X80052978Y-57520000D01*
X80286361Y-57473577D01*
X80506203Y-57382516D01*
X80704055Y-57250315D01*
X80872315Y-57082055D01*
X81004516Y-56884203D01*
X81095577Y-56664361D01*
X81142000Y-56430978D01*
X81142000Y-56193022D01*
X81095577Y-55959639D01*
X81004516Y-55739797D01*
X80872315Y-55541945D01*
X80704055Y-55373685D01*
X80506203Y-55241484D01*
X80286361Y-55150423D01*
X80052978Y-55104000D01*
X79815022Y-55104000D01*
X79581639Y-55150423D01*
X79361797Y-55241484D01*
X79163945Y-55373685D01*
X79158630Y-55379000D01*
X77018461Y-55379000D01*
X76723000Y-55083540D01*
X76723000Y-51908844D01*
X76850704Y-51870106D01*
X76991072Y-51795078D01*
X77114106Y-51694106D01*
X77140000Y-51662554D01*
X77165894Y-51694106D01*
X77288928Y-51795078D01*
X77429296Y-51870106D01*
X77581604Y-51916308D01*
X77740000Y-51931909D01*
X79240000Y-51931909D01*
X79398396Y-51916308D01*
X79550704Y-51870106D01*
X79691072Y-51795078D01*
X79783636Y-51719112D01*
X79861214Y-51796690D01*
X80140959Y-51983610D01*
X80451795Y-52112362D01*
X80781777Y-52178000D01*
X81118223Y-52178000D01*
X81448205Y-52112362D01*
X81759041Y-51983610D01*
X81945866Y-51858777D01*
X82015894Y-51944106D01*
X82138928Y-52045078D01*
X82279296Y-52120106D01*
X82431604Y-52166308D01*
X82590000Y-52181909D01*
X84343091Y-52181909D01*
X84343091Y-54025000D01*
X84358692Y-54183396D01*
X84404894Y-54335704D01*
X84479922Y-54476072D01*
X84580894Y-54599106D01*
X84703928Y-54700078D01*
X84844296Y-54775106D01*
X84996604Y-54821308D01*
X85155000Y-54836909D01*
X85322000Y-54836909D01*
X85322000Y-55636341D01*
X85251397Y-55706944D01*
X85207209Y-55743208D01*
X85170945Y-55787396D01*
X85170944Y-55787397D01*
X85062500Y-55919537D01*
X84954971Y-56120709D01*
X84927783Y-56210337D01*
X84888755Y-56338992D01*
X84877088Y-56457448D01*
X84750704Y-56389894D01*
X84598396Y-56343692D01*
X84440000Y-56328091D01*
X82540000Y-56328091D01*
X82381604Y-56343692D01*
X82229296Y-56389894D01*
X82088928Y-56464922D01*
X81965894Y-56565894D01*
X81864922Y-56688928D01*
X81789894Y-56829296D01*
X81743692Y-56981604D01*
X81728091Y-57140000D01*
X81728091Y-59040000D01*
X81743692Y-59198396D01*
X81744179Y-59200000D01*
X73805821Y-59200000D01*
X73806308Y-59198396D01*
X73821909Y-59040000D01*
X73821909Y-57140000D01*
X73806308Y-56981604D01*
X73760106Y-56829296D01*
X73685078Y-56688928D01*
X73584106Y-56565894D01*
X73461072Y-56464922D01*
X73320704Y-56389894D01*
X73168396Y-56343692D01*
X73010000Y-56328091D01*
X71110000Y-56328091D01*
X70951604Y-56343692D01*
X70799296Y-56389894D01*
X70658928Y-56464922D01*
X70535894Y-56565894D01*
X70488946Y-56623100D01*
X70352725Y-56532081D01*
X70032790Y-56399559D01*
X69693148Y-56332000D01*
X69346852Y-56332000D01*
X69007210Y-56399559D01*
X68687275Y-56532081D01*
X68399340Y-56724472D01*
X68154472Y-56969340D01*
X67962081Y-57257275D01*
X67878131Y-57459948D01*
X67741990Y-57256199D01*
X67559801Y-57074010D01*
X67345570Y-56930865D01*
X67107530Y-56832266D01*
X66854827Y-56782000D01*
X66597173Y-56782000D01*
X66344470Y-56832266D01*
X66106430Y-56930865D01*
X65892199Y-57074010D01*
X65710010Y-57256199D01*
X65566865Y-57470430D01*
X65468266Y-57708470D01*
X65418000Y-57961173D01*
X65418000Y-58218827D01*
X65468266Y-58471530D01*
X65566865Y-58709570D01*
X65710010Y-58923801D01*
X65892199Y-59105990D01*
X66032894Y-59200000D01*
X64720320Y-59200000D01*
X64766308Y-59048396D01*
X64781909Y-58890000D01*
X64781909Y-57290000D01*
X64766308Y-57131604D01*
X64720106Y-56979296D01*
X64645078Y-56838928D01*
X64613874Y-56800906D01*
X64657590Y-56720731D01*
X64752056Y-56418397D01*
X64785724Y-56103443D01*
X64757301Y-55787973D01*
X64667879Y-55484109D01*
X64520894Y-55203529D01*
X64505957Y-55181174D01*
X64204424Y-55126287D01*
X63240711Y-56090000D01*
X63254853Y-56104142D01*
X63184142Y-56174853D01*
X63170000Y-56160711D01*
X63155858Y-56174853D01*
X63085147Y-56104142D01*
X63099289Y-56090000D01*
X62135576Y-55126287D01*
X61834043Y-55181174D01*
X61682410Y-55459269D01*
X61587944Y-55761603D01*
X61554276Y-56076557D01*
X61582699Y-56392027D01*
X61672121Y-56695891D01*
X61726741Y-56800156D01*
X61694922Y-56838928D01*
X61619894Y-56979296D01*
X61573692Y-57131604D01*
X61558091Y-57290000D01*
X61558091Y-58890000D01*
X61573692Y-59048396D01*
X61619680Y-59200000D01*
X58383000Y-59200000D01*
X58383000Y-55055576D01*
X62206287Y-55055576D01*
X63170000Y-56019289D01*
X64133713Y-55055576D01*
X64078826Y-54754043D01*
X63800731Y-54602410D01*
X63498397Y-54507944D01*
X63183443Y-54474276D01*
X62867973Y-54502699D01*
X62564109Y-54592121D01*
X62283529Y-54739106D01*
X62261174Y-54754043D01*
X62206287Y-55055576D01*
X58383000Y-55055576D01*
X58383000Y-45383000D01*
X129117000Y-45383000D01*
X129117001Y-59200000D01*
G36*
X88584894Y-54335704D02*
G01*
X88659922Y-54476072D01*
X88760894Y-54599106D01*
X88883928Y-54700078D01*
X89024296Y-54775106D01*
X89176604Y-54821308D01*
X89335000Y-54836909D01*
X91456090Y-54836909D01*
X91416287Y-55055576D01*
X92380000Y-56019289D01*
X93343713Y-55055576D01*
X93288826Y-54754043D01*
X93010731Y-54602410D01*
X92708397Y-54507944D01*
X92639928Y-54500625D01*
X92660078Y-54476072D01*
X92670190Y-54457154D01*
X92820000Y-54471909D01*
X94320000Y-54471909D01*
X94436062Y-54460478D01*
X94038682Y-54857858D01*
X94003078Y-54887077D01*
X93915496Y-54993797D01*
X93886486Y-55029146D01*
X93801803Y-55187577D01*
X93799851Y-55191229D01*
X93772201Y-55282380D01*
X93730894Y-55203529D01*
X93715957Y-55181174D01*
X93414424Y-55126287D01*
X92450711Y-56090000D01*
X92464853Y-56104142D01*
X92394142Y-56174853D01*
X92380000Y-56160711D01*
X92365858Y-56174853D01*
X92295147Y-56104142D01*
X92309289Y-56090000D01*
X91345576Y-55126287D01*
X91044043Y-55181174D01*
X90892410Y-55459269D01*
X90797944Y-55761603D01*
X90764276Y-56076557D01*
X90792699Y-56392027D01*
X90882121Y-56695891D01*
X90936741Y-56800156D01*
X90904922Y-56838928D01*
X90829894Y-56979296D01*
X90783692Y-57131604D01*
X90768091Y-57290000D01*
X90768091Y-58890000D01*
X90783692Y-59048396D01*
X90829680Y-59200000D01*
X87402651Y-59200000D01*
X87587919Y-58922725D01*
X87720441Y-58602790D01*
X87788000Y-58263148D01*
X87788000Y-57916852D01*
X87720441Y-57577210D01*
X87587919Y-57257275D01*
X87395528Y-56969340D01*
X87330823Y-56904635D01*
X87447501Y-56762463D01*
X87555029Y-56561292D01*
X87621245Y-56343008D01*
X87638000Y-56172889D01*
X87638000Y-56172888D01*
X87643603Y-56116001D01*
X87638000Y-56059114D01*
X87638000Y-54836909D01*
X87805000Y-54836909D01*
X87963396Y-54821308D01*
X88115704Y-54775106D01*
X88256072Y-54700078D01*
X88379106Y-54599106D01*
X88480078Y-54476072D01*
X88555106Y-54335704D01*
X88570000Y-54286605D01*
X88584894Y-54335704D01*
X88584894Y-54335704D01*
G37*
X88584894Y-54335704D02*
X88659922Y-54476072D01*
X88760894Y-54599106D01*
X88883928Y-54700078D01*
X89024296Y-54775106D01*
X89176604Y-54821308D01*
X89335000Y-54836909D01*
X91456090Y-54836909D01*
X91416287Y-55055576D01*
X92380000Y-56019289D01*
X93343713Y-55055576D01*
X93288826Y-54754043D01*
X93010731Y-54602410D01*
X92708397Y-54507944D01*
X92639928Y-54500625D01*
X92660078Y-54476072D01*
X92670190Y-54457154D01*
X92820000Y-54471909D01*
X94320000Y-54471909D01*
X94436062Y-54460478D01*
X94038682Y-54857858D01*
X94003078Y-54887077D01*
X93915496Y-54993797D01*
X93886486Y-55029146D01*
X93801803Y-55187577D01*
X93799851Y-55191229D01*
X93772201Y-55282380D01*
X93730894Y-55203529D01*
X93715957Y-55181174D01*
X93414424Y-55126287D01*
X92450711Y-56090000D01*
X92464853Y-56104142D01*
X92394142Y-56174853D01*
X92380000Y-56160711D01*
X92365858Y-56174853D01*
X92295147Y-56104142D01*
X92309289Y-56090000D01*
X91345576Y-55126287D01*
X91044043Y-55181174D01*
X90892410Y-55459269D01*
X90797944Y-55761603D01*
X90764276Y-56076557D01*
X90792699Y-56392027D01*
X90882121Y-56695891D01*
X90936741Y-56800156D01*
X90904922Y-56838928D01*
X90829894Y-56979296D01*
X90783692Y-57131604D01*
X90768091Y-57290000D01*
X90768091Y-58890000D01*
X90783692Y-59048396D01*
X90829680Y-59200000D01*
X87402651Y-59200000D01*
X87587919Y-58922725D01*
X87720441Y-58602790D01*
X87788000Y-58263148D01*
X87788000Y-57916852D01*
X87720441Y-57577210D01*
X87587919Y-57257275D01*
X87395528Y-56969340D01*
X87330823Y-56904635D01*
X87447501Y-56762463D01*
X87555029Y-56561292D01*
X87621245Y-56343008D01*
X87638000Y-56172889D01*
X87638000Y-56172888D01*
X87643603Y-56116001D01*
X87638000Y-56059114D01*
X87638000Y-54836909D01*
X87805000Y-54836909D01*
X87963396Y-54821308D01*
X88115704Y-54775106D01*
X88256072Y-54700078D01*
X88379106Y-54599106D01*
X88480078Y-54476072D01*
X88555106Y-54335704D01*
X88570000Y-54286605D01*
X88584894Y-54335704D01*
G36*
X109729894Y-56829296D02*
G01*
X109683692Y-56981604D01*
X109668091Y-57140000D01*
X109668091Y-59040000D01*
X109683692Y-59198396D01*
X109684179Y-59200000D01*
X101365739Y-59200000D01*
X101431073Y-59165078D01*
X101554107Y-59064107D01*
X101655078Y-58941073D01*
X101730107Y-58800705D01*
X101776309Y-58648396D01*
X101791910Y-58490000D01*
X101788000Y-58342000D01*
X101586000Y-58140000D01*
X100180000Y-58140000D01*
X100180000Y-58160000D01*
X100080000Y-58160000D01*
X100080000Y-58140000D01*
X100060000Y-58140000D01*
X100060000Y-58040000D01*
X100080000Y-58040000D01*
X100080000Y-58020000D01*
X100180000Y-58020000D01*
X100180000Y-58040000D01*
X101586000Y-58040000D01*
X101648000Y-57978000D01*
X105785113Y-57978000D01*
X105842000Y-57983603D01*
X105898887Y-57978000D01*
X105898889Y-57978000D01*
X106069008Y-57961245D01*
X106287292Y-57895029D01*
X106488463Y-57787501D01*
X106664792Y-57642792D01*
X106701061Y-57598597D01*
X107128593Y-57171065D01*
X107172792Y-57134792D01*
X107295739Y-56984980D01*
X107410704Y-56950106D01*
X107551072Y-56875078D01*
X107674106Y-56774106D01*
X107728358Y-56708000D01*
X109794728Y-56708000D01*
X109729894Y-56829296D01*
X109729894Y-56829296D01*
G37*
X109729894Y-56829296D02*
X109683692Y-56981604D01*
X109668091Y-57140000D01*
X109668091Y-59040000D01*
X109683692Y-59198396D01*
X109684179Y-59200000D01*
X101365739Y-59200000D01*
X101431073Y-59165078D01*
X101554107Y-59064107D01*
X101655078Y-58941073D01*
X101730107Y-58800705D01*
X101776309Y-58648396D01*
X101791910Y-58490000D01*
X101788000Y-58342000D01*
X101586000Y-58140000D01*
X100180000Y-58140000D01*
X100180000Y-58160000D01*
X100080000Y-58160000D01*
X100080000Y-58140000D01*
X100060000Y-58140000D01*
X100060000Y-58040000D01*
X100080000Y-58040000D01*
X100080000Y-58020000D01*
X100180000Y-58020000D01*
X100180000Y-58040000D01*
X101586000Y-58040000D01*
X101648000Y-57978000D01*
X105785113Y-57978000D01*
X105842000Y-57983603D01*
X105898887Y-57978000D01*
X105898889Y-57978000D01*
X106069008Y-57961245D01*
X106287292Y-57895029D01*
X106488463Y-57787501D01*
X106664792Y-57642792D01*
X106701061Y-57598597D01*
X107128593Y-57171065D01*
X107172792Y-57134792D01*
X107295739Y-56984980D01*
X107410704Y-56950106D01*
X107551072Y-56875078D01*
X107674106Y-56774106D01*
X107728358Y-56708000D01*
X109794728Y-56708000D01*
X109729894Y-56829296D01*
G36*
X104401764Y-49211328D02*
G01*
X104430984Y-49246933D01*
X104573052Y-49363524D01*
X104735136Y-49450160D01*
X104911007Y-49503510D01*
X105048075Y-49517010D01*
X105048077Y-49517010D01*
X105093906Y-49521524D01*
X105139735Y-49517010D01*
X111531391Y-49517010D01*
X111538423Y-49552361D01*
X111629484Y-49772203D01*
X111761685Y-49970055D01*
X111929945Y-50138315D01*
X112127797Y-50270516D01*
X112347639Y-50361577D01*
X112581022Y-50408000D01*
X112818978Y-50408000D01*
X113052361Y-50361577D01*
X113272203Y-50270516D01*
X113470055Y-50138315D01*
X113638315Y-49970055D01*
X113770516Y-49772203D01*
X113861577Y-49552361D01*
X113908000Y-49318978D01*
X113908000Y-49117000D01*
X121328386Y-49117000D01*
X121328091Y-49120000D01*
X121328091Y-49313034D01*
X121198396Y-49273692D01*
X121040000Y-49258091D01*
X119340000Y-49258091D01*
X119181604Y-49273692D01*
X119055319Y-49312000D01*
X118696886Y-49312000D01*
X118639999Y-49306397D01*
X118583112Y-49312000D01*
X118583111Y-49312000D01*
X118412992Y-49328755D01*
X118194708Y-49394971D01*
X117993537Y-49502499D01*
X117817208Y-49647208D01*
X117780939Y-49691402D01*
X117541397Y-49930944D01*
X117497209Y-49967208D01*
X117460945Y-50011396D01*
X117460944Y-50011397D01*
X117416010Y-50066149D01*
X117352500Y-50143537D01*
X117244971Y-50344708D01*
X117178755Y-50562992D01*
X117162000Y-50733111D01*
X117156397Y-50790000D01*
X117162000Y-50846887D01*
X117162000Y-50902000D01*
X115039688Y-50902000D01*
X115000000Y-50898091D01*
X113400000Y-50898091D01*
X113241604Y-50913692D01*
X113089296Y-50959894D01*
X112948928Y-51034922D01*
X112825894Y-51135894D01*
X112724922Y-51258928D01*
X112700000Y-51305554D01*
X112675078Y-51258928D01*
X112574106Y-51135894D01*
X112451072Y-51034922D01*
X112310704Y-50959894D01*
X112158396Y-50913692D01*
X112000000Y-50898091D01*
X110400000Y-50898091D01*
X110360312Y-50902000D01*
X110321269Y-50902000D01*
X110319570Y-50900865D01*
X110081530Y-50802266D01*
X109828827Y-50752000D01*
X109571173Y-50752000D01*
X109318470Y-50802266D01*
X109080430Y-50900865D01*
X108866199Y-51044010D01*
X108684010Y-51226199D01*
X108540865Y-51440430D01*
X108442266Y-51678470D01*
X108392000Y-51931173D01*
X108392000Y-52188827D01*
X108442266Y-52441530D01*
X108540865Y-52679570D01*
X108684010Y-52893801D01*
X108866199Y-53075990D01*
X109080430Y-53219135D01*
X109318470Y-53317734D01*
X109571173Y-53368000D01*
X109629052Y-53368000D01*
X109603691Y-53451604D01*
X109588090Y-53610000D01*
X109592000Y-53708000D01*
X109794000Y-53910000D01*
X111150000Y-53910000D01*
X111150000Y-53890000D01*
X111250000Y-53890000D01*
X111250000Y-53910000D01*
X111270000Y-53910000D01*
X111270000Y-54010000D01*
X111250000Y-54010000D01*
X111250000Y-54030000D01*
X111150000Y-54030000D01*
X111150000Y-54010000D01*
X109794000Y-54010000D01*
X109592000Y-54212000D01*
X109588090Y-54310000D01*
X109596166Y-54392000D01*
X107728358Y-54392000D01*
X107674106Y-54325894D01*
X107551072Y-54224922D01*
X107410704Y-54149894D01*
X107258396Y-54103692D01*
X107100000Y-54088091D01*
X105600000Y-54088091D01*
X105441604Y-54103692D01*
X105289296Y-54149894D01*
X105148928Y-54224922D01*
X105025894Y-54325894D01*
X105000000Y-54357446D01*
X104974106Y-54325894D01*
X104851072Y-54224922D01*
X104710704Y-54149894D01*
X104558396Y-54103692D01*
X104400000Y-54088091D01*
X102900000Y-54088091D01*
X102741604Y-54103692D01*
X102589296Y-54149894D01*
X102448928Y-54224922D01*
X102441160Y-54231297D01*
X102466308Y-54148396D01*
X102481909Y-53990000D01*
X102481909Y-52290000D01*
X102466308Y-52131604D01*
X102420106Y-51979296D01*
X102381995Y-51907995D01*
X102472000Y-51998000D01*
X102620000Y-52001910D01*
X102778396Y-51986309D01*
X102930705Y-51940107D01*
X103071073Y-51865078D01*
X103194107Y-51764107D01*
X103295078Y-51641073D01*
X103370107Y-51500705D01*
X103416309Y-51348396D01*
X103431910Y-51190000D01*
X103428000Y-50592000D01*
X103226000Y-50390000D01*
X102270000Y-50390000D01*
X102270000Y-50410000D01*
X102170000Y-50410000D01*
X102170000Y-50390000D01*
X102150000Y-50390000D01*
X102150000Y-50290000D01*
X102170000Y-50290000D01*
X102170000Y-48884000D01*
X102270000Y-48884000D01*
X102270000Y-50290000D01*
X103226000Y-50290000D01*
X103428000Y-50088000D01*
X103431910Y-49490000D01*
X103416309Y-49331604D01*
X103370107Y-49179295D01*
X103295078Y-49038927D01*
X103194107Y-48915893D01*
X103071073Y-48814922D01*
X102930705Y-48739893D01*
X102778396Y-48693691D01*
X102620000Y-48678090D01*
X102472000Y-48682000D01*
X102270000Y-48884000D01*
X102170000Y-48884000D01*
X102082730Y-48796730D01*
X102387471Y-48491990D01*
X103682427Y-48491990D01*
X104401764Y-49211328D01*
X104401764Y-49211328D01*
G37*
X104401764Y-49211328D02*
X104430984Y-49246933D01*
X104573052Y-49363524D01*
X104735136Y-49450160D01*
X104911007Y-49503510D01*
X105048075Y-49517010D01*
X105048077Y-49517010D01*
X105093906Y-49521524D01*
X105139735Y-49517010D01*
X111531391Y-49517010D01*
X111538423Y-49552361D01*
X111629484Y-49772203D01*
X111761685Y-49970055D01*
X111929945Y-50138315D01*
X112127797Y-50270516D01*
X112347639Y-50361577D01*
X112581022Y-50408000D01*
X112818978Y-50408000D01*
X113052361Y-50361577D01*
X113272203Y-50270516D01*
X113470055Y-50138315D01*
X113638315Y-49970055D01*
X113770516Y-49772203D01*
X113861577Y-49552361D01*
X113908000Y-49318978D01*
X113908000Y-49117000D01*
X121328386Y-49117000D01*
X121328091Y-49120000D01*
X121328091Y-49313034D01*
X121198396Y-49273692D01*
X121040000Y-49258091D01*
X119340000Y-49258091D01*
X119181604Y-49273692D01*
X119055319Y-49312000D01*
X118696886Y-49312000D01*
X118639999Y-49306397D01*
X118583112Y-49312000D01*
X118583111Y-49312000D01*
X118412992Y-49328755D01*
X118194708Y-49394971D01*
X117993537Y-49502499D01*
X117817208Y-49647208D01*
X117780939Y-49691402D01*
X117541397Y-49930944D01*
X117497209Y-49967208D01*
X117460945Y-50011396D01*
X117460944Y-50011397D01*
X117416010Y-50066149D01*
X117352500Y-50143537D01*
X117244971Y-50344708D01*
X117178755Y-50562992D01*
X117162000Y-50733111D01*
X117156397Y-50790000D01*
X117162000Y-50846887D01*
X117162000Y-50902000D01*
X115039688Y-50902000D01*
X115000000Y-50898091D01*
X113400000Y-50898091D01*
X113241604Y-50913692D01*
X113089296Y-50959894D01*
X112948928Y-51034922D01*
X112825894Y-51135894D01*
X112724922Y-51258928D01*
X112700000Y-51305554D01*
X112675078Y-51258928D01*
X112574106Y-51135894D01*
X112451072Y-51034922D01*
X112310704Y-50959894D01*
X112158396Y-50913692D01*
X112000000Y-50898091D01*
X110400000Y-50898091D01*
X110360312Y-50902000D01*
X110321269Y-50902000D01*
X110319570Y-50900865D01*
X110081530Y-50802266D01*
X109828827Y-50752000D01*
X109571173Y-50752000D01*
X109318470Y-50802266D01*
X109080430Y-50900865D01*
X108866199Y-51044010D01*
X108684010Y-51226199D01*
X108540865Y-51440430D01*
X108442266Y-51678470D01*
X108392000Y-51931173D01*
X108392000Y-52188827D01*
X108442266Y-52441530D01*
X108540865Y-52679570D01*
X108684010Y-52893801D01*
X108866199Y-53075990D01*
X109080430Y-53219135D01*
X109318470Y-53317734D01*
X109571173Y-53368000D01*
X109629052Y-53368000D01*
X109603691Y-53451604D01*
X109588090Y-53610000D01*
X109592000Y-53708000D01*
X109794000Y-53910000D01*
X111150000Y-53910000D01*
X111150000Y-53890000D01*
X111250000Y-53890000D01*
X111250000Y-53910000D01*
X111270000Y-53910000D01*
X111270000Y-54010000D01*
X111250000Y-54010000D01*
X111250000Y-54030000D01*
X111150000Y-54030000D01*
X111150000Y-54010000D01*
X109794000Y-54010000D01*
X109592000Y-54212000D01*
X109588090Y-54310000D01*
X109596166Y-54392000D01*
X107728358Y-54392000D01*
X107674106Y-54325894D01*
X107551072Y-54224922D01*
X107410704Y-54149894D01*
X107258396Y-54103692D01*
X107100000Y-54088091D01*
X105600000Y-54088091D01*
X105441604Y-54103692D01*
X105289296Y-54149894D01*
X105148928Y-54224922D01*
X105025894Y-54325894D01*
X105000000Y-54357446D01*
X104974106Y-54325894D01*
X104851072Y-54224922D01*
X104710704Y-54149894D01*
X104558396Y-54103692D01*
X104400000Y-54088091D01*
X102900000Y-54088091D01*
X102741604Y-54103692D01*
X102589296Y-54149894D01*
X102448928Y-54224922D01*
X102441160Y-54231297D01*
X102466308Y-54148396D01*
X102481909Y-53990000D01*
X102481909Y-52290000D01*
X102466308Y-52131604D01*
X102420106Y-51979296D01*
X102381995Y-51907995D01*
X102472000Y-51998000D01*
X102620000Y-52001910D01*
X102778396Y-51986309D01*
X102930705Y-51940107D01*
X103071073Y-51865078D01*
X103194107Y-51764107D01*
X103295078Y-51641073D01*
X103370107Y-51500705D01*
X103416309Y-51348396D01*
X103431910Y-51190000D01*
X103428000Y-50592000D01*
X103226000Y-50390000D01*
X102270000Y-50390000D01*
X102270000Y-50410000D01*
X102170000Y-50410000D01*
X102170000Y-50390000D01*
X102150000Y-50390000D01*
X102150000Y-50290000D01*
X102170000Y-50290000D01*
X102170000Y-48884000D01*
X102270000Y-48884000D01*
X102270000Y-50290000D01*
X103226000Y-50290000D01*
X103428000Y-50088000D01*
X103431910Y-49490000D01*
X103416309Y-49331604D01*
X103370107Y-49179295D01*
X103295078Y-49038927D01*
X103194107Y-48915893D01*
X103071073Y-48814922D01*
X102930705Y-48739893D01*
X102778396Y-48693691D01*
X102620000Y-48678090D01*
X102472000Y-48682000D01*
X102270000Y-48884000D01*
X102170000Y-48884000D01*
X102082730Y-48796730D01*
X102387471Y-48491990D01*
X103682427Y-48491990D01*
X104401764Y-49211328D01*
G36*
X117162001Y-53669834D02*
G01*
X117072516Y-53453797D01*
X116940315Y-53255945D01*
X116902370Y-53218000D01*
X117162001Y-53218000D01*
X117162001Y-53669834D01*
X117162001Y-53669834D01*
G37*
X117162001Y-53669834D02*
X117072516Y-53453797D01*
X116940315Y-53255945D01*
X116902370Y-53218000D01*
X117162001Y-53218000D01*
X117162001Y-53669834D01*
G36*
X86042266Y-61011530D02*
G01*
X86140865Y-61249570D01*
X86142001Y-61251270D01*
X86142000Y-68062579D01*
X85931639Y-68104423D01*
X85711797Y-68195484D01*
X85585500Y-68279873D01*
X85459203Y-68195484D01*
X85239361Y-68104423D01*
X85005978Y-68058000D01*
X84768022Y-68058000D01*
X84534639Y-68104423D01*
X84314797Y-68195484D01*
X84116945Y-68327685D01*
X83948685Y-68495945D01*
X83816484Y-68693797D01*
X83725423Y-68913639D01*
X83679000Y-69147022D01*
X83679000Y-69384978D01*
X83724312Y-69612774D01*
X83645639Y-69628423D01*
X83425797Y-69719484D01*
X83227945Y-69851685D01*
X83059685Y-70019945D01*
X82927484Y-70217797D01*
X82836423Y-70437639D01*
X82790000Y-70671022D01*
X82790000Y-70908978D01*
X82836423Y-71142361D01*
X82927484Y-71362203D01*
X83059685Y-71560055D01*
X83065000Y-71565370D01*
X83065001Y-73824629D01*
X83059685Y-73829945D01*
X82927484Y-74027797D01*
X82836423Y-74247639D01*
X82802115Y-74420115D01*
X82629639Y-74454423D01*
X82409797Y-74545484D01*
X82211945Y-74677685D01*
X82043685Y-74845945D01*
X81911484Y-75043797D01*
X81820423Y-75263639D01*
X81774000Y-75497022D01*
X81774000Y-75734978D01*
X81820423Y-75968361D01*
X81911484Y-76188203D01*
X82043685Y-76386055D01*
X82049000Y-76391370D01*
X82049000Y-76590044D01*
X82030203Y-76577484D01*
X81810361Y-76486423D01*
X81576978Y-76440000D01*
X81339022Y-76440000D01*
X81105639Y-76486423D01*
X80885797Y-76577484D01*
X80687945Y-76709685D01*
X80519685Y-76877945D01*
X80387484Y-77075797D01*
X80296423Y-77295639D01*
X80250000Y-77529022D01*
X80250000Y-77766978D01*
X80296423Y-78000361D01*
X80387484Y-78220203D01*
X80519685Y-78418055D01*
X80525000Y-78423370D01*
X80525000Y-78482348D01*
X80343639Y-78518423D01*
X80123797Y-78609484D01*
X79925945Y-78741685D01*
X79757685Y-78909945D01*
X79625484Y-79107797D01*
X79548252Y-79294252D01*
X79361797Y-79371484D01*
X79163945Y-79503685D01*
X78995685Y-79671945D01*
X78863484Y-79869797D01*
X78789843Y-80047583D01*
X78628246Y-80114518D01*
X78430394Y-80246719D01*
X78262134Y-80414979D01*
X78129933Y-80612831D01*
X78038872Y-80832673D01*
X77992449Y-81066056D01*
X77992449Y-81304012D01*
X78038872Y-81537395D01*
X78129933Y-81757237D01*
X78262134Y-81955089D01*
X78267449Y-81960404D01*
X78267450Y-83194180D01*
X78233685Y-83227945D01*
X78101484Y-83425797D01*
X78010423Y-83645639D01*
X77964000Y-83879022D01*
X77964000Y-84116978D01*
X78010423Y-84350361D01*
X78101484Y-84570203D01*
X78233685Y-84768055D01*
X78401945Y-84936315D01*
X78599797Y-85068516D01*
X78819639Y-85159577D01*
X79001001Y-85195652D01*
X79001001Y-87540629D01*
X78995685Y-87545945D01*
X78863484Y-87743797D01*
X78772423Y-87963639D01*
X78726000Y-88197022D01*
X78726000Y-88434978D01*
X78772423Y-88668361D01*
X78863484Y-88888203D01*
X78995685Y-89086055D01*
X79163945Y-89254315D01*
X79361797Y-89386516D01*
X79581639Y-89477577D01*
X79815022Y-89524000D01*
X80052978Y-89524000D01*
X80286361Y-89477577D01*
X80506203Y-89386516D01*
X80525001Y-89373956D01*
X80525001Y-89794158D01*
X80525000Y-89794168D01*
X80525000Y-89923000D01*
X79439370Y-89923000D01*
X79434055Y-89917685D01*
X79236203Y-89785484D01*
X79016361Y-89694423D01*
X78782978Y-89648000D01*
X78545022Y-89648000D01*
X78311639Y-89694423D01*
X78091797Y-89785484D01*
X77893945Y-89917685D01*
X77725685Y-90085945D01*
X77593484Y-90283797D01*
X77502423Y-90503639D01*
X77456000Y-90737022D01*
X77456000Y-90974978D01*
X77502423Y-91208361D01*
X77593484Y-91428203D01*
X77725685Y-91626055D01*
X77893945Y-91794315D01*
X78091797Y-91926516D01*
X78311639Y-92017577D01*
X78545022Y-92064000D01*
X78782978Y-92064000D01*
X79016361Y-92017577D01*
X79236203Y-91926516D01*
X79434055Y-91794315D01*
X79439370Y-91789000D01*
X80904171Y-91789000D01*
X80950000Y-91793514D01*
X80995829Y-91789000D01*
X80995832Y-91789000D01*
X81132900Y-91775500D01*
X81308771Y-91722150D01*
X81470855Y-91635514D01*
X81612923Y-91518923D01*
X81642147Y-91483313D01*
X82085314Y-91040146D01*
X82120923Y-91010923D01*
X82237514Y-90868855D01*
X82324150Y-90706771D01*
X82377500Y-90530900D01*
X82391000Y-90393832D01*
X82391000Y-90393830D01*
X82395514Y-90348001D01*
X82391000Y-90302172D01*
X82391000Y-85817956D01*
X82409797Y-85830516D01*
X82629639Y-85921577D01*
X82863022Y-85968000D01*
X83100978Y-85968000D01*
X83334361Y-85921577D01*
X83554203Y-85830516D01*
X83752055Y-85698315D01*
X83920315Y-85530055D01*
X84052516Y-85332203D01*
X84143577Y-85112361D01*
X84190000Y-84878978D01*
X84190000Y-84641022D01*
X84143577Y-84407639D01*
X84052516Y-84187797D01*
X83920315Y-83989945D01*
X83915000Y-83984630D01*
X83915000Y-76391370D01*
X83920315Y-76386055D01*
X84033417Y-76216787D01*
X84116945Y-76300315D01*
X84314797Y-76432516D01*
X84534639Y-76523577D01*
X84642900Y-76545112D01*
X84705484Y-76696203D01*
X84837685Y-76894055D01*
X84843001Y-76899371D01*
X84843000Y-81190630D01*
X84837685Y-81195945D01*
X84705484Y-81393797D01*
X84614423Y-81613639D01*
X84568000Y-81847022D01*
X84568000Y-82084978D01*
X84614423Y-82318361D01*
X84705484Y-82538203D01*
X84837685Y-82736055D01*
X85005945Y-82904315D01*
X85203797Y-83036516D01*
X85423639Y-83127577D01*
X85605001Y-83163652D01*
X85605001Y-88302629D01*
X85599685Y-88307945D01*
X85467484Y-88505797D01*
X85376423Y-88725639D01*
X85330000Y-88959022D01*
X85330000Y-89196978D01*
X85376423Y-89430361D01*
X85467484Y-89650203D01*
X85599685Y-89848055D01*
X85767945Y-90016315D01*
X85965797Y-90148516D01*
X86185639Y-90239577D01*
X86419022Y-90286000D01*
X86656978Y-90286000D01*
X86890361Y-90239577D01*
X87110203Y-90148516D01*
X87308055Y-90016315D01*
X87412000Y-89912370D01*
X87412000Y-90714000D01*
X84562889Y-90714000D01*
X84506000Y-90708397D01*
X84449111Y-90714000D01*
X84278992Y-90730755D01*
X84060708Y-90796971D01*
X83859537Y-90904499D01*
X83683208Y-91049208D01*
X83646935Y-91093407D01*
X82965398Y-91774943D01*
X82921209Y-91811208D01*
X82884945Y-91855396D01*
X82884944Y-91855397D01*
X82776500Y-91987537D01*
X82668971Y-92188709D01*
X82602756Y-92406992D01*
X82580397Y-92634000D01*
X82586001Y-92690896D01*
X82586000Y-96584731D01*
X82584865Y-96586430D01*
X82486266Y-96824470D01*
X82436000Y-97077173D01*
X82436000Y-97334827D01*
X82486266Y-97587530D01*
X82584865Y-97825570D01*
X82728010Y-98039801D01*
X82910199Y-98221990D01*
X83124430Y-98365135D01*
X83362470Y-98463734D01*
X83615173Y-98514000D01*
X83872827Y-98514000D01*
X84125530Y-98463734D01*
X84363570Y-98365135D01*
X84577801Y-98221990D01*
X84759990Y-98039801D01*
X84887000Y-97849718D01*
X85014010Y-98039801D01*
X85196199Y-98221990D01*
X85410430Y-98365135D01*
X85648470Y-98463734D01*
X85901173Y-98514000D01*
X86158827Y-98514000D01*
X86411530Y-98463734D01*
X86649570Y-98365135D01*
X86651269Y-98364000D01*
X87243113Y-98364000D01*
X87300000Y-98369603D01*
X87356887Y-98364000D01*
X87356889Y-98364000D01*
X87527008Y-98347245D01*
X87745292Y-98281029D01*
X87946463Y-98173501D01*
X88122792Y-98028792D01*
X88159061Y-97984599D01*
X89348603Y-96795056D01*
X89392792Y-96758792D01*
X89537501Y-96582463D01*
X89645029Y-96381292D01*
X89711245Y-96163008D01*
X89728000Y-95992889D01*
X89728000Y-95992888D01*
X89733603Y-95936001D01*
X89728000Y-95879114D01*
X89728000Y-91928888D01*
X89733603Y-91872000D01*
X89728000Y-91815111D01*
X89728000Y-71525885D01*
X89733603Y-71468998D01*
X89728000Y-71412109D01*
X89711245Y-71241990D01*
X89645029Y-71023706D01*
X89537501Y-70822535D01*
X89392792Y-70646206D01*
X89348603Y-70609941D01*
X89210060Y-70471398D01*
X89430361Y-70427577D01*
X89650203Y-70336516D01*
X89848055Y-70204315D01*
X90016315Y-70036055D01*
X90148516Y-69838203D01*
X90239577Y-69618361D01*
X90286000Y-69384978D01*
X90286000Y-69147022D01*
X90239577Y-68913639D01*
X90148516Y-68693797D01*
X90080436Y-68591909D01*
X90110000Y-68591909D01*
X90268396Y-68576308D01*
X90420704Y-68530106D01*
X90561072Y-68455078D01*
X90684106Y-68354106D01*
X90785078Y-68231072D01*
X90860106Y-68090704D01*
X90906308Y-67938396D01*
X90921909Y-67780000D01*
X91298090Y-67780000D01*
X91313691Y-67938396D01*
X91359893Y-68090705D01*
X91434922Y-68231073D01*
X91535893Y-68354107D01*
X91658927Y-68455078D01*
X91799295Y-68530107D01*
X91951604Y-68576309D01*
X92110000Y-68591910D01*
X92858000Y-68588000D01*
X93060000Y-68386000D01*
X93060000Y-67030000D01*
X91504000Y-67030000D01*
X91302000Y-67232000D01*
X91298090Y-67780000D01*
X90921909Y-67780000D01*
X90921909Y-66180000D01*
X90906308Y-66021604D01*
X90860106Y-65869296D01*
X90821438Y-65796953D01*
X90881072Y-65765078D01*
X91004106Y-65664106D01*
X91030000Y-65632554D01*
X91055894Y-65664106D01*
X91178928Y-65765078D01*
X91319296Y-65840106D01*
X91367654Y-65854775D01*
X91359893Y-65869295D01*
X91313691Y-66021604D01*
X91298090Y-66180000D01*
X91302000Y-66728000D01*
X91504000Y-66930000D01*
X93060000Y-66930000D01*
X93060000Y-66910000D01*
X93160000Y-66910000D01*
X93160000Y-66930000D01*
X93180000Y-66930000D01*
X93180000Y-67030000D01*
X93160000Y-67030000D01*
X93160000Y-68386000D01*
X93362000Y-68588000D01*
X94110000Y-68591910D01*
X94268396Y-68576309D01*
X94302001Y-68566115D01*
X94302000Y-72232731D01*
X94300865Y-72234430D01*
X94202266Y-72472470D01*
X94152000Y-72725173D01*
X94152000Y-72982827D01*
X94202266Y-73235530D01*
X94300865Y-73473570D01*
X94302000Y-73475269D01*
X94302000Y-76884803D01*
X94222203Y-76831484D01*
X94002361Y-76740423D01*
X93768978Y-76694000D01*
X93531022Y-76694000D01*
X93297639Y-76740423D01*
X93077797Y-76831484D01*
X92879945Y-76963685D01*
X92711685Y-77131945D01*
X92579484Y-77329797D01*
X92488423Y-77549639D01*
X92442000Y-77783022D01*
X92442000Y-78020978D01*
X92488423Y-78254361D01*
X92579484Y-78474203D01*
X92711685Y-78672055D01*
X92717001Y-78677371D01*
X92717001Y-90867210D01*
X92705801Y-90856010D01*
X92491570Y-90712865D01*
X92253530Y-90614266D01*
X92000827Y-90564000D01*
X91743173Y-90564000D01*
X91490470Y-90614266D01*
X91252430Y-90712865D01*
X91038199Y-90856010D01*
X90856010Y-91038199D01*
X90712865Y-91252430D01*
X90614266Y-91490470D01*
X90564000Y-91743173D01*
X90564000Y-92000827D01*
X90614266Y-92253530D01*
X90712865Y-92491570D01*
X90714001Y-92493270D01*
X90714000Y-101156731D01*
X90712865Y-101158430D01*
X90614266Y-101396470D01*
X90564000Y-101649173D01*
X90564000Y-101906827D01*
X90614266Y-102159530D01*
X90712865Y-102397570D01*
X90856010Y-102611801D01*
X91038199Y-102793990D01*
X91252430Y-102937135D01*
X91490470Y-103035734D01*
X91743173Y-103086000D01*
X92000827Y-103086000D01*
X92253530Y-103035734D01*
X92491570Y-102937135D01*
X92705801Y-102793990D01*
X92717000Y-102782791D01*
X92717000Y-106082630D01*
X92711685Y-106087945D01*
X92579484Y-106285797D01*
X92488423Y-106505639D01*
X92442000Y-106739022D01*
X92442000Y-106976978D01*
X92488423Y-107210361D01*
X92579484Y-107430203D01*
X92711685Y-107628055D01*
X92879945Y-107796315D01*
X93077797Y-107928516D01*
X93297639Y-108019577D01*
X93531022Y-108066000D01*
X93768978Y-108066000D01*
X94002361Y-108019577D01*
X94222203Y-107928516D01*
X94420055Y-107796315D01*
X94588315Y-107628055D01*
X94720516Y-107430203D01*
X94811577Y-107210361D01*
X94858000Y-106976978D01*
X94858000Y-106739022D01*
X94811577Y-106505639D01*
X94720516Y-106285797D01*
X94588315Y-106087945D01*
X94583000Y-106082630D01*
X94583000Y-95162791D01*
X94626199Y-95205990D01*
X94840430Y-95349135D01*
X95078470Y-95447734D01*
X95331173Y-95498000D01*
X95588827Y-95498000D01*
X95841530Y-95447734D01*
X96079570Y-95349135D01*
X96293801Y-95205990D01*
X96475990Y-95023801D01*
X96619135Y-94809570D01*
X96717734Y-94571530D01*
X96768000Y-94318827D01*
X96768000Y-94061173D01*
X96717734Y-93808470D01*
X96619135Y-93570430D01*
X96618000Y-93568731D01*
X96618000Y-88800000D01*
X99147000Y-88800000D01*
X99147000Y-89671155D01*
X99019296Y-89709894D01*
X98878928Y-89784922D01*
X98755894Y-89885894D01*
X98654922Y-90008928D01*
X98579894Y-90149296D01*
X98533692Y-90301604D01*
X98518091Y-90460000D01*
X98518091Y-91760000D01*
X98533692Y-91918396D01*
X98579894Y-92070704D01*
X98654922Y-92211072D01*
X98755894Y-92334106D01*
X98878928Y-92435078D01*
X99019296Y-92510106D01*
X99171604Y-92556308D01*
X99330000Y-92571909D01*
X100830000Y-92571909D01*
X100988396Y-92556308D01*
X101140704Y-92510106D01*
X101281072Y-92435078D01*
X101404106Y-92334106D01*
X101429999Y-92302555D01*
X101455893Y-92334107D01*
X101578927Y-92435078D01*
X101719295Y-92510107D01*
X101871604Y-92556309D01*
X102030000Y-92571910D01*
X102528000Y-92568000D01*
X102730000Y-92366000D01*
X102730000Y-91160000D01*
X102830000Y-91160000D01*
X102830000Y-92366000D01*
X103032000Y-92568000D01*
X103530000Y-92571910D01*
X103688396Y-92556309D01*
X103840705Y-92510107D01*
X103981073Y-92435078D01*
X104104107Y-92334107D01*
X104205078Y-92211073D01*
X104280107Y-92070705D01*
X104326309Y-91918396D01*
X104341910Y-91760000D01*
X104338000Y-91362000D01*
X104136000Y-91160000D01*
X102830000Y-91160000D01*
X102730000Y-91160000D01*
X102710000Y-91160000D01*
X102710000Y-91060000D01*
X102730000Y-91060000D01*
X102730000Y-89854000D01*
X102830000Y-89854000D01*
X102830000Y-91060000D01*
X104136000Y-91060000D01*
X104338000Y-90858000D01*
X104341910Y-90460000D01*
X104326309Y-90301604D01*
X104280107Y-90149295D01*
X104205078Y-90008927D01*
X104104107Y-89885893D01*
X103981073Y-89784922D01*
X103840705Y-89709893D01*
X103688396Y-89663691D01*
X103530000Y-89648090D01*
X103032000Y-89652000D01*
X102830000Y-89854000D01*
X102730000Y-89854000D01*
X102528000Y-89652000D01*
X102030000Y-89648090D01*
X101871604Y-89663691D01*
X101719295Y-89709893D01*
X101578927Y-89784922D01*
X101455893Y-89885893D01*
X101429999Y-89917445D01*
X101404106Y-89885894D01*
X101281072Y-89784922D01*
X101140704Y-89709894D01*
X101013000Y-89671156D01*
X101013000Y-88800000D01*
X104700000Y-88800000D01*
X104700000Y-98396954D01*
X104610000Y-98388090D01*
X104062000Y-98392000D01*
X103860000Y-98594000D01*
X103860000Y-99950000D01*
X103880000Y-99950000D01*
X103880000Y-100050000D01*
X103860000Y-100050000D01*
X103860000Y-101406000D01*
X104062000Y-101608000D01*
X104610000Y-101611910D01*
X104700000Y-101603046D01*
X104700000Y-104668272D01*
X104660456Y-104680268D01*
X104507058Y-104762260D01*
X104372604Y-104872604D01*
X104262260Y-105007058D01*
X104180268Y-105160456D01*
X104129777Y-105326902D01*
X104112728Y-105500000D01*
X104117000Y-105543374D01*
X104117001Y-118617000D01*
X58383000Y-118617000D01*
X58383000Y-117153022D01*
X60692000Y-117153022D01*
X60692000Y-117390978D01*
X60738423Y-117624361D01*
X60829484Y-117844203D01*
X60961685Y-118042055D01*
X61129945Y-118210315D01*
X61327797Y-118342516D01*
X61547639Y-118433577D01*
X61781022Y-118480000D01*
X62018978Y-118480000D01*
X62252361Y-118433577D01*
X62472203Y-118342516D01*
X62670055Y-118210315D01*
X62675370Y-118205000D01*
X80904171Y-118205000D01*
X80950000Y-118209514D01*
X80995829Y-118205000D01*
X80995832Y-118205000D01*
X81132900Y-118191500D01*
X81308771Y-118138150D01*
X81470855Y-118051514D01*
X81612923Y-117934923D01*
X81642147Y-117899313D01*
X82527319Y-117014142D01*
X82562923Y-116984923D01*
X82679514Y-116842855D01*
X82728534Y-116751145D01*
X82766150Y-116680772D01*
X82788115Y-116608361D01*
X82819500Y-116504900D01*
X82833000Y-116367832D01*
X82833000Y-116367829D01*
X82837514Y-116322000D01*
X82833000Y-116276171D01*
X82833000Y-115557841D01*
X82874106Y-115524106D01*
X82975078Y-115401072D01*
X83050106Y-115260704D01*
X83096308Y-115108396D01*
X83111909Y-114950000D01*
X83111909Y-113250000D01*
X83096308Y-113091604D01*
X83050106Y-112939296D01*
X82975078Y-112798928D01*
X82874106Y-112675894D01*
X82833000Y-112642159D01*
X82833000Y-112136460D01*
X82860461Y-112109000D01*
X82968630Y-112109000D01*
X82973945Y-112114315D01*
X83171797Y-112246516D01*
X83391639Y-112337577D01*
X83625022Y-112384000D01*
X83856001Y-112384000D01*
X83856001Y-113348730D01*
X83854865Y-113350430D01*
X83756266Y-113588470D01*
X83706000Y-113841173D01*
X83706000Y-114098827D01*
X83756266Y-114351530D01*
X83854865Y-114589570D01*
X83998010Y-114803801D01*
X84180199Y-114985990D01*
X84394430Y-115129135D01*
X84632470Y-115227734D01*
X84885173Y-115278000D01*
X85142827Y-115278000D01*
X85395530Y-115227734D01*
X85633570Y-115129135D01*
X85847801Y-114985990D01*
X86029990Y-114803801D01*
X86173135Y-114589570D01*
X86271734Y-114351530D01*
X86322000Y-114098827D01*
X86322000Y-113841173D01*
X86271734Y-113588470D01*
X86173135Y-113350430D01*
X86172000Y-113348731D01*
X86172000Y-112384000D01*
X86402978Y-112384000D01*
X86636361Y-112337577D01*
X86856203Y-112246516D01*
X87054055Y-112114315D01*
X87190000Y-111978370D01*
X87190000Y-112323653D01*
X87189604Y-112323692D01*
X87037296Y-112369894D01*
X86896928Y-112444922D01*
X86773894Y-112545894D01*
X86672922Y-112668928D01*
X86597894Y-112809296D01*
X86551692Y-112961604D01*
X86536091Y-113120000D01*
X86536091Y-114820000D01*
X86551692Y-114978396D01*
X86597894Y-115130704D01*
X86672922Y-115271072D01*
X86773894Y-115394106D01*
X86896928Y-115495078D01*
X87037296Y-115570106D01*
X87189604Y-115616308D01*
X87348000Y-115631909D01*
X89348000Y-115631909D01*
X89506396Y-115616308D01*
X89658704Y-115570106D01*
X89799072Y-115495078D01*
X89922106Y-115394106D01*
X90023078Y-115271072D01*
X90098106Y-115130704D01*
X90144308Y-114978396D01*
X90159909Y-114820000D01*
X90159909Y-113120000D01*
X90144308Y-112961604D01*
X90098106Y-112809296D01*
X90023078Y-112668928D01*
X89922106Y-112545894D01*
X89799072Y-112444922D01*
X89658704Y-112369894D01*
X89506396Y-112323692D01*
X89506000Y-112323653D01*
X89506000Y-110637460D01*
X91191996Y-112323456D01*
X91189604Y-112323692D01*
X91037296Y-112369894D01*
X90896928Y-112444922D01*
X90773894Y-112545894D01*
X90672922Y-112668928D01*
X90597894Y-112809296D01*
X90551692Y-112961604D01*
X90536091Y-113120000D01*
X90536091Y-114820000D01*
X90551692Y-114978396D01*
X90597894Y-115130704D01*
X90672922Y-115271072D01*
X90773894Y-115394106D01*
X90896928Y-115495078D01*
X91037296Y-115570106D01*
X91189604Y-115616308D01*
X91348000Y-115631909D01*
X93348000Y-115631909D01*
X93506396Y-115616308D01*
X93658704Y-115570106D01*
X93799072Y-115495078D01*
X93922106Y-115394106D01*
X94023078Y-115271072D01*
X94098106Y-115130704D01*
X94144308Y-114978396D01*
X94159909Y-114820000D01*
X94159909Y-113120000D01*
X95426091Y-113120000D01*
X95426091Y-114820000D01*
X95441692Y-114978396D01*
X95487894Y-115130704D01*
X95562922Y-115271072D01*
X95663894Y-115394106D01*
X95786928Y-115495078D01*
X95927296Y-115570106D01*
X96079604Y-115616308D01*
X96238000Y-115631909D01*
X98238000Y-115631909D01*
X98396396Y-115616308D01*
X98548704Y-115570106D01*
X98689072Y-115495078D01*
X98812106Y-115394106D01*
X98913078Y-115271072D01*
X98988106Y-115130704D01*
X99034308Y-114978396D01*
X99049909Y-114820000D01*
X99049909Y-113120000D01*
X99034308Y-112961604D01*
X98988106Y-112809296D01*
X98913078Y-112668928D01*
X98812106Y-112545894D01*
X98689072Y-112444922D01*
X98548704Y-112369894D01*
X98396396Y-112323692D01*
X98396000Y-112323653D01*
X98396000Y-110637460D01*
X100081996Y-112323456D01*
X100079604Y-112323692D01*
X99927296Y-112369894D01*
X99786928Y-112444922D01*
X99663894Y-112545894D01*
X99562922Y-112668928D01*
X99487894Y-112809296D01*
X99441692Y-112961604D01*
X99426091Y-113120000D01*
X99426091Y-114820000D01*
X99441692Y-114978396D01*
X99487894Y-115130704D01*
X99562922Y-115271072D01*
X99663894Y-115394106D01*
X99786928Y-115495078D01*
X99927296Y-115570106D01*
X100079604Y-115616308D01*
X100238000Y-115631909D01*
X102238000Y-115631909D01*
X102396396Y-115616308D01*
X102548704Y-115570106D01*
X102689072Y-115495078D01*
X102812106Y-115394106D01*
X102913078Y-115271072D01*
X102988106Y-115130704D01*
X103034308Y-114978396D01*
X103049909Y-114820000D01*
X103049909Y-113120000D01*
X103034308Y-112961604D01*
X102988106Y-112809296D01*
X102913078Y-112668928D01*
X102812106Y-112545894D01*
X102689072Y-112444922D01*
X102548704Y-112369894D01*
X102396396Y-112323692D01*
X102238000Y-112308091D01*
X102171000Y-112308091D01*
X102171000Y-112205829D01*
X102175514Y-112160000D01*
X102171000Y-112114168D01*
X102157500Y-111977100D01*
X102104785Y-111803322D01*
X102104150Y-111801228D01*
X102017514Y-111639145D01*
X102002823Y-111621244D01*
X101900923Y-111497077D01*
X101865319Y-111467858D01*
X99684000Y-109286540D01*
X99684000Y-109279022D01*
X99664701Y-109182000D01*
X99874827Y-109182000D01*
X100127530Y-109131734D01*
X100365570Y-109033135D01*
X100579801Y-108889990D01*
X100761990Y-108707801D01*
X100905135Y-108493570D01*
X101003734Y-108255530D01*
X101054000Y-108002827D01*
X101054000Y-107745173D01*
X101003734Y-107492470D01*
X100905135Y-107254430D01*
X100904000Y-107252731D01*
X100904000Y-101328555D01*
X101048327Y-101424991D01*
X101340964Y-101546205D01*
X101651626Y-101608000D01*
X101968374Y-101608000D01*
X102279036Y-101546205D01*
X102522642Y-101445300D01*
X102558927Y-101475078D01*
X102699295Y-101550107D01*
X102851604Y-101596309D01*
X103010000Y-101611910D01*
X103558000Y-101608000D01*
X103760000Y-101406000D01*
X103760000Y-100050000D01*
X103740000Y-100050000D01*
X103740000Y-99950000D01*
X103760000Y-99950000D01*
X103760000Y-98594000D01*
X103558000Y-98392000D01*
X103010000Y-98388090D01*
X102851604Y-98403691D01*
X102699295Y-98449893D01*
X102558927Y-98524922D01*
X102522642Y-98554700D01*
X102279036Y-98453795D01*
X101968374Y-98392000D01*
X101651626Y-98392000D01*
X101340964Y-98453795D01*
X101048327Y-98575009D01*
X100904000Y-98671445D01*
X100904000Y-94779269D01*
X100905135Y-94777570D01*
X101003734Y-94539530D01*
X101054000Y-94286827D01*
X101054000Y-94029173D01*
X101003734Y-93776470D01*
X100905135Y-93538430D01*
X100761990Y-93324199D01*
X100579801Y-93142010D01*
X100365570Y-92998865D01*
X100127530Y-92900266D01*
X99874827Y-92850000D01*
X99617173Y-92850000D01*
X99364470Y-92900266D01*
X99126430Y-92998865D01*
X98912199Y-93142010D01*
X98730010Y-93324199D01*
X98586865Y-93538430D01*
X98488266Y-93776470D01*
X98438000Y-94029173D01*
X98438000Y-94286827D01*
X98488266Y-94539530D01*
X98586865Y-94777570D01*
X98588001Y-94779270D01*
X98588000Y-99943111D01*
X98582397Y-100000000D01*
X98588001Y-100056899D01*
X98588000Y-107252731D01*
X98586865Y-107254430D01*
X98488266Y-107492470D01*
X98438000Y-107745173D01*
X98438000Y-108002827D01*
X98475231Y-108190000D01*
X98396000Y-108190000D01*
X98396000Y-100037055D01*
X98463734Y-99873530D01*
X98514000Y-99620827D01*
X98514000Y-99363173D01*
X98463734Y-99110470D01*
X98365135Y-98872430D01*
X98221990Y-98658199D01*
X98039801Y-98476010D01*
X97825570Y-98332865D01*
X97587530Y-98234266D01*
X97334827Y-98184000D01*
X97077173Y-98184000D01*
X96824470Y-98234266D01*
X96586430Y-98332865D01*
X96372199Y-98476010D01*
X96190010Y-98658199D01*
X96046865Y-98872430D01*
X95948266Y-99110470D01*
X95898000Y-99363173D01*
X95898000Y-99620827D01*
X95948266Y-99873530D01*
X96046865Y-100111570D01*
X96080001Y-100161161D01*
X96080000Y-112323653D01*
X96079604Y-112323692D01*
X95927296Y-112369894D01*
X95786928Y-112444922D01*
X95663894Y-112545894D01*
X95562922Y-112668928D01*
X95487894Y-112809296D01*
X95441692Y-112961604D01*
X95426091Y-113120000D01*
X94159909Y-113120000D01*
X94144308Y-112961604D01*
X94098106Y-112809296D01*
X94023078Y-112668928D01*
X93922106Y-112545894D01*
X93799072Y-112444922D01*
X93658704Y-112369894D01*
X93506396Y-112323692D01*
X93348000Y-112308091D01*
X93281000Y-112308091D01*
X93281000Y-112205829D01*
X93285514Y-112160000D01*
X93281000Y-112114168D01*
X93267500Y-111977100D01*
X93214785Y-111803322D01*
X93214150Y-111801228D01*
X93127514Y-111639145D01*
X93112823Y-111621244D01*
X93010923Y-111497077D01*
X92975319Y-111467858D01*
X90794000Y-109286540D01*
X90794000Y-109279022D01*
X90747577Y-109045639D01*
X90656516Y-108825797D01*
X90524315Y-108627945D01*
X90356055Y-108459685D01*
X90158203Y-108327484D01*
X89938361Y-108236423D01*
X89704978Y-108190000D01*
X89506000Y-108190000D01*
X89506000Y-103593055D01*
X89573734Y-103429530D01*
X89624000Y-103176827D01*
X89624000Y-102919173D01*
X89573734Y-102666470D01*
X89475135Y-102428430D01*
X89331990Y-102214199D01*
X89149801Y-102032010D01*
X88935570Y-101888865D01*
X88697530Y-101790266D01*
X88444827Y-101740000D01*
X88187173Y-101740000D01*
X87934470Y-101790266D01*
X87696430Y-101888865D01*
X87482199Y-102032010D01*
X87300010Y-102214199D01*
X87156865Y-102428430D01*
X87058266Y-102666470D01*
X87008000Y-102919173D01*
X87008000Y-103176827D01*
X87058266Y-103429530D01*
X87156865Y-103667570D01*
X87190001Y-103717161D01*
X87190001Y-106055631D01*
X87054055Y-105919685D01*
X86856203Y-105787484D01*
X86636361Y-105696423D01*
X86402978Y-105650000D01*
X86165022Y-105650000D01*
X86124746Y-105658011D01*
X86029990Y-105516199D01*
X85847801Y-105334010D01*
X85633570Y-105190865D01*
X85395530Y-105092266D01*
X85142827Y-105042000D01*
X84885173Y-105042000D01*
X84632470Y-105092266D01*
X84394430Y-105190865D01*
X84180199Y-105334010D01*
X83998010Y-105516199D01*
X83854865Y-105730430D01*
X83756266Y-105968470D01*
X83706000Y-106221173D01*
X83706000Y-106478827D01*
X83756266Y-106731530D01*
X83854865Y-106969570D01*
X83856000Y-106971269D01*
X83856001Y-107986000D01*
X82258000Y-107986000D01*
X82258000Y-107745173D01*
X82207734Y-107492470D01*
X82109135Y-107254430D01*
X81965990Y-107040199D01*
X81783801Y-106858010D01*
X81569570Y-106714865D01*
X81331530Y-106616266D01*
X81078827Y-106566000D01*
X80821173Y-106566000D01*
X80568470Y-106616266D01*
X80330430Y-106714865D01*
X80328731Y-106716000D01*
X75164886Y-106716000D01*
X75107999Y-106710397D01*
X75051112Y-106716000D01*
X75051111Y-106716000D01*
X74880992Y-106732755D01*
X74662708Y-106798971D01*
X74461537Y-106906499D01*
X74285208Y-107051208D01*
X74248939Y-107095402D01*
X73691397Y-107652944D01*
X73647209Y-107689208D01*
X73610945Y-107733396D01*
X73610944Y-107733397D01*
X73502500Y-107865537D01*
X73394971Y-108066709D01*
X73328756Y-108284992D01*
X73306397Y-108512000D01*
X73312001Y-108568896D01*
X73312001Y-109322000D01*
X70240044Y-109322000D01*
X70139570Y-109254865D01*
X69901530Y-109156266D01*
X69648827Y-109106000D01*
X69391173Y-109106000D01*
X69138470Y-109156266D01*
X68900430Y-109254865D01*
X68686199Y-109398010D01*
X68504010Y-109580199D01*
X68360865Y-109794430D01*
X68262266Y-110032470D01*
X68212000Y-110285173D01*
X68212000Y-110542827D01*
X68262266Y-110795530D01*
X68360865Y-111033570D01*
X68504010Y-111247801D01*
X68686199Y-111429990D01*
X68900430Y-111573135D01*
X69138470Y-111671734D01*
X69391173Y-111722000D01*
X69566912Y-111722000D01*
X69465484Y-111873797D01*
X69374423Y-112093639D01*
X69328000Y-112327022D01*
X69328000Y-112564978D01*
X69374423Y-112798361D01*
X69465484Y-113018203D01*
X69597685Y-113216055D01*
X69765945Y-113384315D01*
X69963797Y-113516516D01*
X70183639Y-113607577D01*
X70417022Y-113654000D01*
X70654978Y-113654000D01*
X70888361Y-113607577D01*
X71108203Y-113516516D01*
X71306055Y-113384315D01*
X71311370Y-113379000D01*
X73076227Y-113379000D01*
X73168928Y-113455078D01*
X73309296Y-113530106D01*
X73461604Y-113576308D01*
X73532750Y-113583315D01*
X73532486Y-113586000D01*
X73537000Y-113631829D01*
X73537000Y-113631831D01*
X73550500Y-113768899D01*
X73603850Y-113944770D01*
X73690486Y-114106854D01*
X73807077Y-114248923D01*
X73842687Y-114278147D01*
X74161853Y-114597313D01*
X74191077Y-114632923D01*
X74333145Y-114749514D01*
X74495229Y-114836150D01*
X74671100Y-114889500D01*
X74808168Y-114903000D01*
X74808170Y-114903000D01*
X74853999Y-114907514D01*
X74899828Y-114903000D01*
X75602630Y-114903000D01*
X75607945Y-114908315D01*
X75805797Y-115040516D01*
X75944576Y-115098000D01*
X72173269Y-115098000D01*
X72171570Y-115096865D01*
X71933530Y-114998266D01*
X71680827Y-114948000D01*
X71423173Y-114948000D01*
X71170470Y-114998266D01*
X70932430Y-115096865D01*
X70718199Y-115240010D01*
X70536010Y-115422199D01*
X70536000Y-115422214D01*
X70535990Y-115422199D01*
X70353801Y-115240010D01*
X70139570Y-115096865D01*
X69901530Y-114998266D01*
X69648827Y-114948000D01*
X69391173Y-114948000D01*
X69138470Y-114998266D01*
X68900430Y-115096865D01*
X68898731Y-115098000D01*
X68871269Y-115098000D01*
X68869570Y-115096865D01*
X68631530Y-114998266D01*
X68378827Y-114948000D01*
X68121173Y-114948000D01*
X67868470Y-114998266D01*
X67630430Y-115096865D01*
X67416199Y-115240010D01*
X67234010Y-115422199D01*
X67090865Y-115636430D01*
X66992266Y-115874470D01*
X66942000Y-116127173D01*
X66942000Y-116339000D01*
X66918000Y-116339000D01*
X66918000Y-116137022D01*
X66871577Y-115903639D01*
X66780516Y-115683797D01*
X66648315Y-115485945D01*
X66643000Y-115480630D01*
X66643000Y-109022460D01*
X67112461Y-108553000D01*
X69760630Y-108553000D01*
X69765945Y-108558315D01*
X69963797Y-108690516D01*
X70183639Y-108781577D01*
X70417022Y-108828000D01*
X70654978Y-108828000D01*
X70888361Y-108781577D01*
X71108203Y-108690516D01*
X71306055Y-108558315D01*
X71474315Y-108390055D01*
X71606516Y-108192203D01*
X71697577Y-107972361D01*
X71744000Y-107738978D01*
X71744000Y-107501022D01*
X71697577Y-107267639D01*
X71606516Y-107047797D01*
X71474315Y-106849945D01*
X71306055Y-106681685D01*
X71108203Y-106549484D01*
X70888361Y-106458423D01*
X70654978Y-106412000D01*
X70417022Y-106412000D01*
X70183639Y-106458423D01*
X69963797Y-106549484D01*
X69765945Y-106681685D01*
X69760630Y-106687000D01*
X66771829Y-106687000D01*
X66726000Y-106682486D01*
X66680171Y-106687000D01*
X66680168Y-106687000D01*
X66543100Y-106700500D01*
X66367229Y-106753850D01*
X66205145Y-106840486D01*
X66063077Y-106957077D01*
X66033857Y-106992682D01*
X65082687Y-107943853D01*
X65047077Y-107973077D01*
X64930486Y-108115146D01*
X64843850Y-108277230D01*
X64790500Y-108453101D01*
X64777000Y-108590168D01*
X64772486Y-108636000D01*
X64777000Y-108681829D01*
X64777001Y-115480629D01*
X64771685Y-115485945D01*
X64639484Y-115683797D01*
X64548423Y-115903639D01*
X64502000Y-116137022D01*
X64502000Y-116339000D01*
X62675370Y-116339000D01*
X62670055Y-116333685D01*
X62472203Y-116201484D01*
X62252361Y-116110423D01*
X62018978Y-116064000D01*
X61781022Y-116064000D01*
X61547639Y-116110423D01*
X61327797Y-116201484D01*
X61129945Y-116333685D01*
X60961685Y-116501945D01*
X60829484Y-116699797D01*
X60738423Y-116919639D01*
X60692000Y-117153022D01*
X58383000Y-117153022D01*
X58383000Y-99698813D01*
X61842000Y-99698813D01*
X61842000Y-100301187D01*
X61959518Y-100891986D01*
X62190036Y-101448506D01*
X62524697Y-101949361D01*
X62950639Y-102375303D01*
X63451494Y-102709964D01*
X64008014Y-102940482D01*
X64598813Y-103058000D01*
X65201187Y-103058000D01*
X65791986Y-102940482D01*
X66348506Y-102709964D01*
X66849361Y-102375303D01*
X67275303Y-101949361D01*
X67609964Y-101448506D01*
X67840482Y-100891986D01*
X67958000Y-100301187D01*
X67958000Y-99698813D01*
X67840482Y-99108014D01*
X67609964Y-98551494D01*
X67275303Y-98050639D01*
X66849361Y-97624697D01*
X66348506Y-97290036D01*
X65791986Y-97059518D01*
X65201187Y-96942000D01*
X64598813Y-96942000D01*
X64008014Y-97059518D01*
X63451494Y-97290036D01*
X62950639Y-97624697D01*
X62524697Y-98050639D01*
X62190036Y-98551494D01*
X61959518Y-99108014D01*
X61842000Y-99698813D01*
X58383000Y-99698813D01*
X58383000Y-69520000D01*
X58963978Y-69520000D01*
X58995990Y-69845025D01*
X59090796Y-70157559D01*
X59244753Y-70445592D01*
X59451945Y-70698055D01*
X59563980Y-70790000D01*
X59451945Y-70881945D01*
X59244753Y-71134408D01*
X59090796Y-71422441D01*
X58995990Y-71734975D01*
X58963978Y-72060000D01*
X58995990Y-72385025D01*
X59090796Y-72697559D01*
X59244753Y-72985592D01*
X59451945Y-73238055D01*
X59563980Y-73330000D01*
X59451945Y-73421945D01*
X59244753Y-73674408D01*
X59090796Y-73962441D01*
X58995990Y-74274975D01*
X58963978Y-74600000D01*
X58995990Y-74925025D01*
X59090796Y-75237559D01*
X59244753Y-75525592D01*
X59451945Y-75778055D01*
X59563980Y-75870000D01*
X59451945Y-75961945D01*
X59244753Y-76214408D01*
X59090796Y-76502441D01*
X58995990Y-76814975D01*
X58963978Y-77140000D01*
X58995990Y-77465025D01*
X59090796Y-77777559D01*
X59244753Y-78065592D01*
X59451945Y-78318055D01*
X59570096Y-78415019D01*
X59468343Y-78496986D01*
X59259869Y-78746345D01*
X59104049Y-79031584D01*
X59006870Y-79341741D01*
X59000979Y-79371365D01*
X59174859Y-79630000D01*
X60580000Y-79630000D01*
X60580000Y-79610000D01*
X60680000Y-79610000D01*
X60680000Y-79630000D01*
X60700000Y-79630000D01*
X60700000Y-79730000D01*
X60680000Y-79730000D01*
X60680000Y-79750000D01*
X60580000Y-79750000D01*
X60580000Y-79730000D01*
X59174859Y-79730000D01*
X59000979Y-79988635D01*
X59006870Y-80018259D01*
X59104049Y-80328416D01*
X59259869Y-80613655D01*
X59328266Y-80695465D01*
X59205894Y-80795894D01*
X59104922Y-80918928D01*
X59029894Y-81059296D01*
X58983692Y-81211604D01*
X58968091Y-81370000D01*
X58968091Y-83070000D01*
X58983692Y-83228396D01*
X59029894Y-83380704D01*
X59104922Y-83521072D01*
X59205894Y-83644106D01*
X59328928Y-83745078D01*
X59469296Y-83820106D01*
X59621604Y-83866308D01*
X59780000Y-83881909D01*
X61221000Y-83881909D01*
X61221000Y-87540630D01*
X61215685Y-87545945D01*
X61083484Y-87743797D01*
X60992423Y-87963639D01*
X60946000Y-88197022D01*
X60946000Y-88434978D01*
X60992423Y-88668361D01*
X61083484Y-88888203D01*
X61215685Y-89086055D01*
X61383945Y-89254315D01*
X61581797Y-89386516D01*
X61801639Y-89477577D01*
X62035022Y-89524000D01*
X62272978Y-89524000D01*
X62506361Y-89477577D01*
X62726203Y-89386516D01*
X62924055Y-89254315D01*
X63092315Y-89086055D01*
X63224516Y-88888203D01*
X63301748Y-88701748D01*
X63488203Y-88624516D01*
X63686055Y-88492315D01*
X63854315Y-88324055D01*
X63986516Y-88126203D01*
X64077577Y-87906361D01*
X64124000Y-87672978D01*
X64124000Y-87435022D01*
X64077577Y-87201639D01*
X63986516Y-86981797D01*
X63854315Y-86783945D01*
X63849000Y-86778630D01*
X63849000Y-78448000D01*
X63866630Y-78448000D01*
X63877484Y-78474203D01*
X64009685Y-78672055D01*
X64177945Y-78840315D01*
X64375797Y-78972516D01*
X64595639Y-79063577D01*
X64777000Y-79099652D01*
X64777001Y-83984629D01*
X64771685Y-83989945D01*
X64639484Y-84187797D01*
X64548423Y-84407639D01*
X64502000Y-84641022D01*
X64502000Y-84878978D01*
X64548423Y-85112361D01*
X64639484Y-85332203D01*
X64771685Y-85530055D01*
X64939945Y-85698315D01*
X65137797Y-85830516D01*
X65357639Y-85921577D01*
X65591022Y-85968000D01*
X65828978Y-85968000D01*
X66062361Y-85921577D01*
X66282203Y-85830516D01*
X66301001Y-85817956D01*
X66301001Y-89064629D01*
X66295685Y-89069945D01*
X66163484Y-89267797D01*
X66072423Y-89487639D01*
X66026000Y-89721022D01*
X66026000Y-89899500D01*
X59784810Y-89899500D01*
X59784810Y-93265500D01*
X69603000Y-93265500D01*
X69603001Y-103764159D01*
X69603000Y-103764169D01*
X69603000Y-104016627D01*
X69563682Y-104055945D01*
X69431481Y-104253797D01*
X69340420Y-104473639D01*
X69293997Y-104707022D01*
X69293997Y-104944978D01*
X69340420Y-105178361D01*
X69431481Y-105398203D01*
X69563682Y-105596055D01*
X69731942Y-105764315D01*
X69929794Y-105896516D01*
X70149636Y-105987577D01*
X70383019Y-106034000D01*
X70620975Y-106034000D01*
X70854358Y-105987577D01*
X70904809Y-105966679D01*
X70932430Y-105985135D01*
X71170470Y-106083734D01*
X71423173Y-106134000D01*
X71680827Y-106134000D01*
X71933530Y-106083734D01*
X72171570Y-105985135D01*
X72187000Y-105974825D01*
X72202430Y-105985135D01*
X72440470Y-106083734D01*
X72693173Y-106134000D01*
X72950827Y-106134000D01*
X73203530Y-106083734D01*
X73441570Y-105985135D01*
X73655801Y-105841990D01*
X73837990Y-105659801D01*
X73981135Y-105445570D01*
X74079734Y-105207530D01*
X74130000Y-104954827D01*
X74130000Y-104697173D01*
X74079734Y-104444470D01*
X73981135Y-104206430D01*
X73980000Y-104204731D01*
X73980000Y-104023791D01*
X74020199Y-104063990D01*
X74234430Y-104207135D01*
X74472470Y-104305734D01*
X74725173Y-104356000D01*
X74982827Y-104356000D01*
X75235530Y-104305734D01*
X75473570Y-104207135D01*
X75687801Y-104063990D01*
X75869990Y-103881801D01*
X76013135Y-103667570D01*
X76111734Y-103429530D01*
X76162000Y-103176827D01*
X76162000Y-102919173D01*
X76111734Y-102666470D01*
X76013135Y-102428430D01*
X76012000Y-102426731D01*
X76012000Y-100113269D01*
X76013135Y-100111570D01*
X76111734Y-99873530D01*
X76162000Y-99620827D01*
X76162000Y-99363173D01*
X76111734Y-99110470D01*
X76013135Y-98872430D01*
X75869990Y-98658199D01*
X75687801Y-98476010D01*
X75473570Y-98332865D01*
X75235530Y-98234266D01*
X74982827Y-98184000D01*
X74725173Y-98184000D01*
X74472470Y-98234266D01*
X74234430Y-98332865D01*
X74020199Y-98476010D01*
X73838010Y-98658199D01*
X73694865Y-98872430D01*
X73596266Y-99110470D01*
X73546000Y-99363173D01*
X73546000Y-99620827D01*
X73596266Y-99873530D01*
X73694865Y-100111570D01*
X73696000Y-100113269D01*
X73696000Y-100802209D01*
X73655801Y-100762010D01*
X73441570Y-100618865D01*
X73203530Y-100520266D01*
X72950827Y-100470000D01*
X72710000Y-100470000D01*
X72710000Y-92493269D01*
X72711135Y-92491570D01*
X72809734Y-92253530D01*
X72860000Y-92000827D01*
X72860000Y-91743173D01*
X72809734Y-91490470D01*
X72711135Y-91252430D01*
X72567990Y-91038199D01*
X72385801Y-90856010D01*
X72171570Y-90712865D01*
X71933530Y-90614266D01*
X71710768Y-90569956D01*
X71697577Y-90503639D01*
X71606516Y-90283797D01*
X71474315Y-90085945D01*
X71306055Y-89917685D01*
X71108203Y-89785484D01*
X70888361Y-89694423D01*
X70654978Y-89648000D01*
X70417022Y-89648000D01*
X70183639Y-89694423D01*
X69963797Y-89785484D01*
X69765945Y-89917685D01*
X69603191Y-90080439D01*
X69603191Y-89899500D01*
X69136870Y-89899500D01*
X69188315Y-89848055D01*
X69320516Y-89650203D01*
X69411577Y-89430361D01*
X69458000Y-89196978D01*
X69458000Y-88959022D01*
X69411577Y-88725639D01*
X69320516Y-88505797D01*
X69188315Y-88307945D01*
X69183000Y-88302630D01*
X69183000Y-85410000D01*
X70418090Y-85410000D01*
X70433691Y-85568396D01*
X70479893Y-85720705D01*
X70554922Y-85861073D01*
X70655893Y-85984107D01*
X70778927Y-86085078D01*
X70919295Y-86160107D01*
X71071604Y-86206309D01*
X71230000Y-86221910D01*
X71728000Y-86218000D01*
X71930000Y-86016000D01*
X71930000Y-84810000D01*
X70624000Y-84810000D01*
X70422000Y-85012000D01*
X70418090Y-85410000D01*
X69183000Y-85410000D01*
X69183000Y-84110000D01*
X70418090Y-84110000D01*
X70422000Y-84508000D01*
X70624000Y-84710000D01*
X71930000Y-84710000D01*
X71930000Y-83504000D01*
X72030000Y-83504000D01*
X72030000Y-84710000D01*
X72050000Y-84710000D01*
X72050000Y-84810000D01*
X72030000Y-84810000D01*
X72030000Y-86016000D01*
X72232000Y-86218000D01*
X72730000Y-86221910D01*
X72888396Y-86206309D01*
X73040705Y-86160107D01*
X73181073Y-86085078D01*
X73304107Y-85984107D01*
X73330001Y-85952555D01*
X73355894Y-85984106D01*
X73478928Y-86085078D01*
X73619296Y-86160106D01*
X73771604Y-86206308D01*
X73930000Y-86221909D01*
X75430000Y-86221909D01*
X75588396Y-86206308D01*
X75740704Y-86160106D01*
X75881072Y-86085078D01*
X76004106Y-85984106D01*
X76017324Y-85968000D01*
X76242978Y-85968000D01*
X76476361Y-85921577D01*
X76696203Y-85830516D01*
X76894055Y-85698315D01*
X77062315Y-85530055D01*
X77194516Y-85332203D01*
X77285577Y-85112361D01*
X77332000Y-84878978D01*
X77332000Y-84641022D01*
X77285577Y-84407639D01*
X77194516Y-84187797D01*
X77062315Y-83989945D01*
X76894055Y-83821685D01*
X76696203Y-83689484D01*
X76476361Y-83598423D01*
X76242978Y-83552000D01*
X76017324Y-83552000D01*
X76004106Y-83535894D01*
X75881072Y-83434922D01*
X75740704Y-83359894D01*
X75588396Y-83313692D01*
X75430000Y-83298091D01*
X73930000Y-83298091D01*
X73771604Y-83313692D01*
X73619296Y-83359894D01*
X73478928Y-83434922D01*
X73355894Y-83535894D01*
X73330001Y-83567445D01*
X73304107Y-83535893D01*
X73181073Y-83434922D01*
X73040705Y-83359893D01*
X72888396Y-83313691D01*
X72730000Y-83298090D01*
X72232000Y-83302000D01*
X72030000Y-83504000D01*
X71930000Y-83504000D01*
X71728000Y-83302000D01*
X71230000Y-83298090D01*
X71071604Y-83313691D01*
X70919295Y-83359893D01*
X70778927Y-83434922D01*
X70655893Y-83535893D01*
X70554922Y-83658927D01*
X70479893Y-83799295D01*
X70433691Y-83951604D01*
X70418090Y-84110000D01*
X69183000Y-84110000D01*
X69183000Y-82995370D01*
X69188315Y-82990055D01*
X69320516Y-82792203D01*
X69411577Y-82572361D01*
X69458000Y-82338978D01*
X69458000Y-82101022D01*
X69411577Y-81867639D01*
X69320516Y-81647797D01*
X69188315Y-81449945D01*
X69123354Y-81384984D01*
X69157577Y-81302361D01*
X69204000Y-81068978D01*
X69204000Y-80831022D01*
X69157577Y-80597639D01*
X69066516Y-80377797D01*
X68934315Y-80179945D01*
X68929000Y-80174630D01*
X68929000Y-73701330D01*
X69268000Y-73698000D01*
X69470000Y-73496000D01*
X69470000Y-72190000D01*
X69450000Y-72190000D01*
X69450000Y-72090000D01*
X69470000Y-72090000D01*
X69470000Y-72070000D01*
X69570000Y-72070000D01*
X69570000Y-72090000D01*
X69590000Y-72090000D01*
X69590000Y-72190000D01*
X69570000Y-72190000D01*
X69570000Y-73496000D01*
X69772000Y-73698000D01*
X70170000Y-73701910D01*
X70328396Y-73686309D01*
X70394001Y-73666408D01*
X70394000Y-74258091D01*
X70330000Y-74258091D01*
X70171604Y-74273692D01*
X70019296Y-74319894D01*
X69878928Y-74394922D01*
X69755894Y-74495894D01*
X69654922Y-74618928D01*
X69579894Y-74759296D01*
X69533692Y-74911604D01*
X69518091Y-75070000D01*
X69518091Y-76670000D01*
X69533692Y-76828396D01*
X69579894Y-76980704D01*
X69654922Y-77121072D01*
X69755894Y-77244106D01*
X69878928Y-77345078D01*
X70019296Y-77420106D01*
X70171604Y-77466308D01*
X70330000Y-77481909D01*
X70394001Y-77481909D01*
X70394001Y-77788730D01*
X70392865Y-77790430D01*
X70294266Y-78028470D01*
X70244000Y-78281173D01*
X70244000Y-78538827D01*
X70294266Y-78791530D01*
X70392865Y-79029570D01*
X70536010Y-79243801D01*
X70718199Y-79425990D01*
X70932430Y-79569135D01*
X71170470Y-79667734D01*
X71423173Y-79718000D01*
X71680827Y-79718000D01*
X71933530Y-79667734D01*
X72171570Y-79569135D01*
X72385801Y-79425990D01*
X72567990Y-79243801D01*
X72711135Y-79029570D01*
X72809734Y-78791530D01*
X72860000Y-78538827D01*
X72860000Y-78281173D01*
X72809734Y-78028470D01*
X72711135Y-77790430D01*
X72710000Y-77788731D01*
X72710000Y-77383067D01*
X72781072Y-77345078D01*
X72904106Y-77244106D01*
X73005078Y-77121072D01*
X73080106Y-76980704D01*
X73126308Y-76828396D01*
X73141909Y-76670000D01*
X73518090Y-76670000D01*
X73533691Y-76828396D01*
X73579893Y-76980705D01*
X73654922Y-77121073D01*
X73755893Y-77244107D01*
X73878927Y-77345078D01*
X74019295Y-77420107D01*
X74171604Y-77466309D01*
X74330000Y-77481910D01*
X75078000Y-77478000D01*
X75280000Y-77276000D01*
X75280000Y-75920000D01*
X75380000Y-75920000D01*
X75380000Y-77276000D01*
X75582000Y-77478000D01*
X76330000Y-77481910D01*
X76488396Y-77466309D01*
X76640705Y-77420107D01*
X76781073Y-77345078D01*
X76904107Y-77244107D01*
X77005078Y-77121073D01*
X77080107Y-76980705D01*
X77126309Y-76828396D01*
X77141910Y-76670000D01*
X77138000Y-76122000D01*
X76936000Y-75920000D01*
X75380000Y-75920000D01*
X75280000Y-75920000D01*
X73724000Y-75920000D01*
X73522000Y-76122000D01*
X73518090Y-76670000D01*
X73141909Y-76670000D01*
X73141909Y-75070000D01*
X73518090Y-75070000D01*
X73522000Y-75618000D01*
X73724000Y-75820000D01*
X75280000Y-75820000D01*
X75280000Y-74464000D01*
X75380000Y-74464000D01*
X75380000Y-75820000D01*
X76936000Y-75820000D01*
X77138000Y-75618000D01*
X77141910Y-75070000D01*
X77126309Y-74911604D01*
X77080107Y-74759295D01*
X77005078Y-74618927D01*
X76904107Y-74495893D01*
X76781073Y-74394922D01*
X76640705Y-74319893D01*
X76488396Y-74273691D01*
X76330000Y-74258090D01*
X75582000Y-74262000D01*
X75380000Y-74464000D01*
X75280000Y-74464000D01*
X75078000Y-74262000D01*
X74330000Y-74258090D01*
X74171604Y-74273691D01*
X74019295Y-74319893D01*
X73878927Y-74394922D01*
X73755893Y-74495893D01*
X73654922Y-74618927D01*
X73579893Y-74759295D01*
X73533691Y-74911604D01*
X73518090Y-75070000D01*
X73141909Y-75070000D01*
X73126308Y-74911604D01*
X73080106Y-74759296D01*
X73005078Y-74618928D01*
X72904106Y-74495894D01*
X72781072Y-74394922D01*
X72710000Y-74356933D01*
X72710000Y-73182997D01*
X72713577Y-73174361D01*
X72760000Y-72940978D01*
X72760000Y-72703022D01*
X72713577Y-72469639D01*
X72622516Y-72249797D01*
X72490315Y-72051945D01*
X72322055Y-71883685D01*
X72124203Y-71751484D01*
X71904361Y-71660423D01*
X71670978Y-71614000D01*
X71433022Y-71614000D01*
X71199639Y-71660423D01*
X70979797Y-71751484D01*
X70979068Y-71751971D01*
X70981910Y-71390000D01*
X70966309Y-71231604D01*
X70920107Y-71079295D01*
X70845078Y-70938927D01*
X70744107Y-70815893D01*
X70712555Y-70789999D01*
X70744106Y-70764106D01*
X70845078Y-70641072D01*
X70920106Y-70500704D01*
X70966308Y-70348396D01*
X70981909Y-70190000D01*
X70981909Y-68690000D01*
X70966308Y-68531604D01*
X70920106Y-68379296D01*
X70845078Y-68238928D01*
X70744106Y-68115894D01*
X70621072Y-68014922D01*
X70480704Y-67939894D01*
X70328396Y-67893692D01*
X70217107Y-67882731D01*
X70182923Y-67841077D01*
X70147313Y-67811853D01*
X69704147Y-67368687D01*
X69674923Y-67333077D01*
X69532855Y-67216486D01*
X69370771Y-67129850D01*
X69194900Y-67076500D01*
X69057832Y-67063000D01*
X69057829Y-67063000D01*
X69012000Y-67058486D01*
X68966171Y-67063000D01*
X66263828Y-67063000D01*
X66217999Y-67058486D01*
X66172170Y-67063000D01*
X66172168Y-67063000D01*
X66035100Y-67076500D01*
X65859229Y-67129850D01*
X65697145Y-67216486D01*
X65555077Y-67333077D01*
X65525853Y-67368687D01*
X65082687Y-67811853D01*
X65047077Y-67841077D01*
X64930486Y-67983146D01*
X64843850Y-68145230D01*
X64790500Y-68321101D01*
X64777000Y-68458168D01*
X64772486Y-68504000D01*
X64777000Y-68549829D01*
X64777001Y-71817210D01*
X64765801Y-71806010D01*
X64551570Y-71662865D01*
X64313530Y-71564266D01*
X64060827Y-71514000D01*
X63803173Y-71514000D01*
X63550470Y-71564266D01*
X63312430Y-71662865D01*
X63300369Y-71670924D01*
X63224516Y-71487797D01*
X63092315Y-71289945D01*
X62924055Y-71121685D01*
X62726203Y-70989484D01*
X62506361Y-70898423D01*
X62272978Y-70852000D01*
X62035022Y-70852000D01*
X61818780Y-70895013D01*
X61808055Y-70881945D01*
X61696020Y-70790000D01*
X61808055Y-70698055D01*
X62015247Y-70445592D01*
X62169204Y-70157559D01*
X62264010Y-69845025D01*
X62296022Y-69520000D01*
X62264010Y-69194975D01*
X62169204Y-68882441D01*
X62015247Y-68594408D01*
X61808055Y-68341945D01*
X61555592Y-68134753D01*
X61267559Y-67980796D01*
X60955025Y-67885990D01*
X60711449Y-67862000D01*
X60548551Y-67862000D01*
X60304975Y-67885990D01*
X59992441Y-67980796D01*
X59704408Y-68134753D01*
X59451945Y-68341945D01*
X59244753Y-68594408D01*
X59090796Y-68882441D01*
X58995990Y-69194975D01*
X58963978Y-69520000D01*
X58383000Y-69520000D01*
X58383000Y-60800000D01*
X86000190Y-60800000D01*
X86042266Y-61011530D01*
X86042266Y-61011530D01*
G37*
X86042266Y-61011530D02*
X86140865Y-61249570D01*
X86142001Y-61251270D01*
X86142000Y-68062579D01*
X85931639Y-68104423D01*
X85711797Y-68195484D01*
X85585500Y-68279873D01*
X85459203Y-68195484D01*
X85239361Y-68104423D01*
X85005978Y-68058000D01*
X84768022Y-68058000D01*
X84534639Y-68104423D01*
X84314797Y-68195484D01*
X84116945Y-68327685D01*
X83948685Y-68495945D01*
X83816484Y-68693797D01*
X83725423Y-68913639D01*
X83679000Y-69147022D01*
X83679000Y-69384978D01*
X83724312Y-69612774D01*
X83645639Y-69628423D01*
X83425797Y-69719484D01*
X83227945Y-69851685D01*
X83059685Y-70019945D01*
X82927484Y-70217797D01*
X82836423Y-70437639D01*
X82790000Y-70671022D01*
X82790000Y-70908978D01*
X82836423Y-71142361D01*
X82927484Y-71362203D01*
X83059685Y-71560055D01*
X83065000Y-71565370D01*
X83065001Y-73824629D01*
X83059685Y-73829945D01*
X82927484Y-74027797D01*
X82836423Y-74247639D01*
X82802115Y-74420115D01*
X82629639Y-74454423D01*
X82409797Y-74545484D01*
X82211945Y-74677685D01*
X82043685Y-74845945D01*
X81911484Y-75043797D01*
X81820423Y-75263639D01*
X81774000Y-75497022D01*
X81774000Y-75734978D01*
X81820423Y-75968361D01*
X81911484Y-76188203D01*
X82043685Y-76386055D01*
X82049000Y-76391370D01*
X82049000Y-76590044D01*
X82030203Y-76577484D01*
X81810361Y-76486423D01*
X81576978Y-76440000D01*
X81339022Y-76440000D01*
X81105639Y-76486423D01*
X80885797Y-76577484D01*
X80687945Y-76709685D01*
X80519685Y-76877945D01*
X80387484Y-77075797D01*
X80296423Y-77295639D01*
X80250000Y-77529022D01*
X80250000Y-77766978D01*
X80296423Y-78000361D01*
X80387484Y-78220203D01*
X80519685Y-78418055D01*
X80525000Y-78423370D01*
X80525000Y-78482348D01*
X80343639Y-78518423D01*
X80123797Y-78609484D01*
X79925945Y-78741685D01*
X79757685Y-78909945D01*
X79625484Y-79107797D01*
X79548252Y-79294252D01*
X79361797Y-79371484D01*
X79163945Y-79503685D01*
X78995685Y-79671945D01*
X78863484Y-79869797D01*
X78789843Y-80047583D01*
X78628246Y-80114518D01*
X78430394Y-80246719D01*
X78262134Y-80414979D01*
X78129933Y-80612831D01*
X78038872Y-80832673D01*
X77992449Y-81066056D01*
X77992449Y-81304012D01*
X78038872Y-81537395D01*
X78129933Y-81757237D01*
X78262134Y-81955089D01*
X78267449Y-81960404D01*
X78267450Y-83194180D01*
X78233685Y-83227945D01*
X78101484Y-83425797D01*
X78010423Y-83645639D01*
X77964000Y-83879022D01*
X77964000Y-84116978D01*
X78010423Y-84350361D01*
X78101484Y-84570203D01*
X78233685Y-84768055D01*
X78401945Y-84936315D01*
X78599797Y-85068516D01*
X78819639Y-85159577D01*
X79001001Y-85195652D01*
X79001001Y-87540629D01*
X78995685Y-87545945D01*
X78863484Y-87743797D01*
X78772423Y-87963639D01*
X78726000Y-88197022D01*
X78726000Y-88434978D01*
X78772423Y-88668361D01*
X78863484Y-88888203D01*
X78995685Y-89086055D01*
X79163945Y-89254315D01*
X79361797Y-89386516D01*
X79581639Y-89477577D01*
X79815022Y-89524000D01*
X80052978Y-89524000D01*
X80286361Y-89477577D01*
X80506203Y-89386516D01*
X80525001Y-89373956D01*
X80525001Y-89794158D01*
X80525000Y-89794168D01*
X80525000Y-89923000D01*
X79439370Y-89923000D01*
X79434055Y-89917685D01*
X79236203Y-89785484D01*
X79016361Y-89694423D01*
X78782978Y-89648000D01*
X78545022Y-89648000D01*
X78311639Y-89694423D01*
X78091797Y-89785484D01*
X77893945Y-89917685D01*
X77725685Y-90085945D01*
X77593484Y-90283797D01*
X77502423Y-90503639D01*
X77456000Y-90737022D01*
X77456000Y-90974978D01*
X77502423Y-91208361D01*
X77593484Y-91428203D01*
X77725685Y-91626055D01*
X77893945Y-91794315D01*
X78091797Y-91926516D01*
X78311639Y-92017577D01*
X78545022Y-92064000D01*
X78782978Y-92064000D01*
X79016361Y-92017577D01*
X79236203Y-91926516D01*
X79434055Y-91794315D01*
X79439370Y-91789000D01*
X80904171Y-91789000D01*
X80950000Y-91793514D01*
X80995829Y-91789000D01*
X80995832Y-91789000D01*
X81132900Y-91775500D01*
X81308771Y-91722150D01*
X81470855Y-91635514D01*
X81612923Y-91518923D01*
X81642147Y-91483313D01*
X82085314Y-91040146D01*
X82120923Y-91010923D01*
X82237514Y-90868855D01*
X82324150Y-90706771D01*
X82377500Y-90530900D01*
X82391000Y-90393832D01*
X82391000Y-90393830D01*
X82395514Y-90348001D01*
X82391000Y-90302172D01*
X82391000Y-85817956D01*
X82409797Y-85830516D01*
X82629639Y-85921577D01*
X82863022Y-85968000D01*
X83100978Y-85968000D01*
X83334361Y-85921577D01*
X83554203Y-85830516D01*
X83752055Y-85698315D01*
X83920315Y-85530055D01*
X84052516Y-85332203D01*
X84143577Y-85112361D01*
X84190000Y-84878978D01*
X84190000Y-84641022D01*
X84143577Y-84407639D01*
X84052516Y-84187797D01*
X83920315Y-83989945D01*
X83915000Y-83984630D01*
X83915000Y-76391370D01*
X83920315Y-76386055D01*
X84033417Y-76216787D01*
X84116945Y-76300315D01*
X84314797Y-76432516D01*
X84534639Y-76523577D01*
X84642900Y-76545112D01*
X84705484Y-76696203D01*
X84837685Y-76894055D01*
X84843001Y-76899371D01*
X84843000Y-81190630D01*
X84837685Y-81195945D01*
X84705484Y-81393797D01*
X84614423Y-81613639D01*
X84568000Y-81847022D01*
X84568000Y-82084978D01*
X84614423Y-82318361D01*
X84705484Y-82538203D01*
X84837685Y-82736055D01*
X85005945Y-82904315D01*
X85203797Y-83036516D01*
X85423639Y-83127577D01*
X85605001Y-83163652D01*
X85605001Y-88302629D01*
X85599685Y-88307945D01*
X85467484Y-88505797D01*
X85376423Y-88725639D01*
X85330000Y-88959022D01*
X85330000Y-89196978D01*
X85376423Y-89430361D01*
X85467484Y-89650203D01*
X85599685Y-89848055D01*
X85767945Y-90016315D01*
X85965797Y-90148516D01*
X86185639Y-90239577D01*
X86419022Y-90286000D01*
X86656978Y-90286000D01*
X86890361Y-90239577D01*
X87110203Y-90148516D01*
X87308055Y-90016315D01*
X87412000Y-89912370D01*
X87412000Y-90714000D01*
X84562889Y-90714000D01*
X84506000Y-90708397D01*
X84449111Y-90714000D01*
X84278992Y-90730755D01*
X84060708Y-90796971D01*
X83859537Y-90904499D01*
X83683208Y-91049208D01*
X83646935Y-91093407D01*
X82965398Y-91774943D01*
X82921209Y-91811208D01*
X82884945Y-91855396D01*
X82884944Y-91855397D01*
X82776500Y-91987537D01*
X82668971Y-92188709D01*
X82602756Y-92406992D01*
X82580397Y-92634000D01*
X82586001Y-92690896D01*
X82586000Y-96584731D01*
X82584865Y-96586430D01*
X82486266Y-96824470D01*
X82436000Y-97077173D01*
X82436000Y-97334827D01*
X82486266Y-97587530D01*
X82584865Y-97825570D01*
X82728010Y-98039801D01*
X82910199Y-98221990D01*
X83124430Y-98365135D01*
X83362470Y-98463734D01*
X83615173Y-98514000D01*
X83872827Y-98514000D01*
X84125530Y-98463734D01*
X84363570Y-98365135D01*
X84577801Y-98221990D01*
X84759990Y-98039801D01*
X84887000Y-97849718D01*
X85014010Y-98039801D01*
X85196199Y-98221990D01*
X85410430Y-98365135D01*
X85648470Y-98463734D01*
X85901173Y-98514000D01*
X86158827Y-98514000D01*
X86411530Y-98463734D01*
X86649570Y-98365135D01*
X86651269Y-98364000D01*
X87243113Y-98364000D01*
X87300000Y-98369603D01*
X87356887Y-98364000D01*
X87356889Y-98364000D01*
X87527008Y-98347245D01*
X87745292Y-98281029D01*
X87946463Y-98173501D01*
X88122792Y-98028792D01*
X88159061Y-97984599D01*
X89348603Y-96795056D01*
X89392792Y-96758792D01*
X89537501Y-96582463D01*
X89645029Y-96381292D01*
X89711245Y-96163008D01*
X89728000Y-95992889D01*
X89728000Y-95992888D01*
X89733603Y-95936001D01*
X89728000Y-95879114D01*
X89728000Y-91928888D01*
X89733603Y-91872000D01*
X89728000Y-91815111D01*
X89728000Y-71525885D01*
X89733603Y-71468998D01*
X89728000Y-71412109D01*
X89711245Y-71241990D01*
X89645029Y-71023706D01*
X89537501Y-70822535D01*
X89392792Y-70646206D01*
X89348603Y-70609941D01*
X89210060Y-70471398D01*
X89430361Y-70427577D01*
X89650203Y-70336516D01*
X89848055Y-70204315D01*
X90016315Y-70036055D01*
X90148516Y-69838203D01*
X90239577Y-69618361D01*
X90286000Y-69384978D01*
X90286000Y-69147022D01*
X90239577Y-68913639D01*
X90148516Y-68693797D01*
X90080436Y-68591909D01*
X90110000Y-68591909D01*
X90268396Y-68576308D01*
X90420704Y-68530106D01*
X90561072Y-68455078D01*
X90684106Y-68354106D01*
X90785078Y-68231072D01*
X90860106Y-68090704D01*
X90906308Y-67938396D01*
X90921909Y-67780000D01*
X91298090Y-67780000D01*
X91313691Y-67938396D01*
X91359893Y-68090705D01*
X91434922Y-68231073D01*
X91535893Y-68354107D01*
X91658927Y-68455078D01*
X91799295Y-68530107D01*
X91951604Y-68576309D01*
X92110000Y-68591910D01*
X92858000Y-68588000D01*
X93060000Y-68386000D01*
X93060000Y-67030000D01*
X91504000Y-67030000D01*
X91302000Y-67232000D01*
X91298090Y-67780000D01*
X90921909Y-67780000D01*
X90921909Y-66180000D01*
X90906308Y-66021604D01*
X90860106Y-65869296D01*
X90821438Y-65796953D01*
X90881072Y-65765078D01*
X91004106Y-65664106D01*
X91030000Y-65632554D01*
X91055894Y-65664106D01*
X91178928Y-65765078D01*
X91319296Y-65840106D01*
X91367654Y-65854775D01*
X91359893Y-65869295D01*
X91313691Y-66021604D01*
X91298090Y-66180000D01*
X91302000Y-66728000D01*
X91504000Y-66930000D01*
X93060000Y-66930000D01*
X93060000Y-66910000D01*
X93160000Y-66910000D01*
X93160000Y-66930000D01*
X93180000Y-66930000D01*
X93180000Y-67030000D01*
X93160000Y-67030000D01*
X93160000Y-68386000D01*
X93362000Y-68588000D01*
X94110000Y-68591910D01*
X94268396Y-68576309D01*
X94302001Y-68566115D01*
X94302000Y-72232731D01*
X94300865Y-72234430D01*
X94202266Y-72472470D01*
X94152000Y-72725173D01*
X94152000Y-72982827D01*
X94202266Y-73235530D01*
X94300865Y-73473570D01*
X94302000Y-73475269D01*
X94302000Y-76884803D01*
X94222203Y-76831484D01*
X94002361Y-76740423D01*
X93768978Y-76694000D01*
X93531022Y-76694000D01*
X93297639Y-76740423D01*
X93077797Y-76831484D01*
X92879945Y-76963685D01*
X92711685Y-77131945D01*
X92579484Y-77329797D01*
X92488423Y-77549639D01*
X92442000Y-77783022D01*
X92442000Y-78020978D01*
X92488423Y-78254361D01*
X92579484Y-78474203D01*
X92711685Y-78672055D01*
X92717001Y-78677371D01*
X92717001Y-90867210D01*
X92705801Y-90856010D01*
X92491570Y-90712865D01*
X92253530Y-90614266D01*
X92000827Y-90564000D01*
X91743173Y-90564000D01*
X91490470Y-90614266D01*
X91252430Y-90712865D01*
X91038199Y-90856010D01*
X90856010Y-91038199D01*
X90712865Y-91252430D01*
X90614266Y-91490470D01*
X90564000Y-91743173D01*
X90564000Y-92000827D01*
X90614266Y-92253530D01*
X90712865Y-92491570D01*
X90714001Y-92493270D01*
X90714000Y-101156731D01*
X90712865Y-101158430D01*
X90614266Y-101396470D01*
X90564000Y-101649173D01*
X90564000Y-101906827D01*
X90614266Y-102159530D01*
X90712865Y-102397570D01*
X90856010Y-102611801D01*
X91038199Y-102793990D01*
X91252430Y-102937135D01*
X91490470Y-103035734D01*
X91743173Y-103086000D01*
X92000827Y-103086000D01*
X92253530Y-103035734D01*
X92491570Y-102937135D01*
X92705801Y-102793990D01*
X92717000Y-102782791D01*
X92717000Y-106082630D01*
X92711685Y-106087945D01*
X92579484Y-106285797D01*
X92488423Y-106505639D01*
X92442000Y-106739022D01*
X92442000Y-106976978D01*
X92488423Y-107210361D01*
X92579484Y-107430203D01*
X92711685Y-107628055D01*
X92879945Y-107796315D01*
X93077797Y-107928516D01*
X93297639Y-108019577D01*
X93531022Y-108066000D01*
X93768978Y-108066000D01*
X94002361Y-108019577D01*
X94222203Y-107928516D01*
X94420055Y-107796315D01*
X94588315Y-107628055D01*
X94720516Y-107430203D01*
X94811577Y-107210361D01*
X94858000Y-106976978D01*
X94858000Y-106739022D01*
X94811577Y-106505639D01*
X94720516Y-106285797D01*
X94588315Y-106087945D01*
X94583000Y-106082630D01*
X94583000Y-95162791D01*
X94626199Y-95205990D01*
X94840430Y-95349135D01*
X95078470Y-95447734D01*
X95331173Y-95498000D01*
X95588827Y-95498000D01*
X95841530Y-95447734D01*
X96079570Y-95349135D01*
X96293801Y-95205990D01*
X96475990Y-95023801D01*
X96619135Y-94809570D01*
X96717734Y-94571530D01*
X96768000Y-94318827D01*
X96768000Y-94061173D01*
X96717734Y-93808470D01*
X96619135Y-93570430D01*
X96618000Y-93568731D01*
X96618000Y-88800000D01*
X99147000Y-88800000D01*
X99147000Y-89671155D01*
X99019296Y-89709894D01*
X98878928Y-89784922D01*
X98755894Y-89885894D01*
X98654922Y-90008928D01*
X98579894Y-90149296D01*
X98533692Y-90301604D01*
X98518091Y-90460000D01*
X98518091Y-91760000D01*
X98533692Y-91918396D01*
X98579894Y-92070704D01*
X98654922Y-92211072D01*
X98755894Y-92334106D01*
X98878928Y-92435078D01*
X99019296Y-92510106D01*
X99171604Y-92556308D01*
X99330000Y-92571909D01*
X100830000Y-92571909D01*
X100988396Y-92556308D01*
X101140704Y-92510106D01*
X101281072Y-92435078D01*
X101404106Y-92334106D01*
X101429999Y-92302555D01*
X101455893Y-92334107D01*
X101578927Y-92435078D01*
X101719295Y-92510107D01*
X101871604Y-92556309D01*
X102030000Y-92571910D01*
X102528000Y-92568000D01*
X102730000Y-92366000D01*
X102730000Y-91160000D01*
X102830000Y-91160000D01*
X102830000Y-92366000D01*
X103032000Y-92568000D01*
X103530000Y-92571910D01*
X103688396Y-92556309D01*
X103840705Y-92510107D01*
X103981073Y-92435078D01*
X104104107Y-92334107D01*
X104205078Y-92211073D01*
X104280107Y-92070705D01*
X104326309Y-91918396D01*
X104341910Y-91760000D01*
X104338000Y-91362000D01*
X104136000Y-91160000D01*
X102830000Y-91160000D01*
X102730000Y-91160000D01*
X102710000Y-91160000D01*
X102710000Y-91060000D01*
X102730000Y-91060000D01*
X102730000Y-89854000D01*
X102830000Y-89854000D01*
X102830000Y-91060000D01*
X104136000Y-91060000D01*
X104338000Y-90858000D01*
X104341910Y-90460000D01*
X104326309Y-90301604D01*
X104280107Y-90149295D01*
X104205078Y-90008927D01*
X104104107Y-89885893D01*
X103981073Y-89784922D01*
X103840705Y-89709893D01*
X103688396Y-89663691D01*
X103530000Y-89648090D01*
X103032000Y-89652000D01*
X102830000Y-89854000D01*
X102730000Y-89854000D01*
X102528000Y-89652000D01*
X102030000Y-89648090D01*
X101871604Y-89663691D01*
X101719295Y-89709893D01*
X101578927Y-89784922D01*
X101455893Y-89885893D01*
X101429999Y-89917445D01*
X101404106Y-89885894D01*
X101281072Y-89784922D01*
X101140704Y-89709894D01*
X101013000Y-89671156D01*
X101013000Y-88800000D01*
X104700000Y-88800000D01*
X104700000Y-98396954D01*
X104610000Y-98388090D01*
X104062000Y-98392000D01*
X103860000Y-98594000D01*
X103860000Y-99950000D01*
X103880000Y-99950000D01*
X103880000Y-100050000D01*
X103860000Y-100050000D01*
X103860000Y-101406000D01*
X104062000Y-101608000D01*
X104610000Y-101611910D01*
X104700000Y-101603046D01*
X104700000Y-104668272D01*
X104660456Y-104680268D01*
X104507058Y-104762260D01*
X104372604Y-104872604D01*
X104262260Y-105007058D01*
X104180268Y-105160456D01*
X104129777Y-105326902D01*
X104112728Y-105500000D01*
X104117000Y-105543374D01*
X104117001Y-118617000D01*
X58383000Y-118617000D01*
X58383000Y-117153022D01*
X60692000Y-117153022D01*
X60692000Y-117390978D01*
X60738423Y-117624361D01*
X60829484Y-117844203D01*
X60961685Y-118042055D01*
X61129945Y-118210315D01*
X61327797Y-118342516D01*
X61547639Y-118433577D01*
X61781022Y-118480000D01*
X62018978Y-118480000D01*
X62252361Y-118433577D01*
X62472203Y-118342516D01*
X62670055Y-118210315D01*
X62675370Y-118205000D01*
X80904171Y-118205000D01*
X80950000Y-118209514D01*
X80995829Y-118205000D01*
X80995832Y-118205000D01*
X81132900Y-118191500D01*
X81308771Y-118138150D01*
X81470855Y-118051514D01*
X81612923Y-117934923D01*
X81642147Y-117899313D01*
X82527319Y-117014142D01*
X82562923Y-116984923D01*
X82679514Y-116842855D01*
X82728534Y-116751145D01*
X82766150Y-116680772D01*
X82788115Y-116608361D01*
X82819500Y-116504900D01*
X82833000Y-116367832D01*
X82833000Y-116367829D01*
X82837514Y-116322000D01*
X82833000Y-116276171D01*
X82833000Y-115557841D01*
X82874106Y-115524106D01*
X82975078Y-115401072D01*
X83050106Y-115260704D01*
X83096308Y-115108396D01*
X83111909Y-114950000D01*
X83111909Y-113250000D01*
X83096308Y-113091604D01*
X83050106Y-112939296D01*
X82975078Y-112798928D01*
X82874106Y-112675894D01*
X82833000Y-112642159D01*
X82833000Y-112136460D01*
X82860461Y-112109000D01*
X82968630Y-112109000D01*
X82973945Y-112114315D01*
X83171797Y-112246516D01*
X83391639Y-112337577D01*
X83625022Y-112384000D01*
X83856001Y-112384000D01*
X83856001Y-113348730D01*
X83854865Y-113350430D01*
X83756266Y-113588470D01*
X83706000Y-113841173D01*
X83706000Y-114098827D01*
X83756266Y-114351530D01*
X83854865Y-114589570D01*
X83998010Y-114803801D01*
X84180199Y-114985990D01*
X84394430Y-115129135D01*
X84632470Y-115227734D01*
X84885173Y-115278000D01*
X85142827Y-115278000D01*
X85395530Y-115227734D01*
X85633570Y-115129135D01*
X85847801Y-114985990D01*
X86029990Y-114803801D01*
X86173135Y-114589570D01*
X86271734Y-114351530D01*
X86322000Y-114098827D01*
X86322000Y-113841173D01*
X86271734Y-113588470D01*
X86173135Y-113350430D01*
X86172000Y-113348731D01*
X86172000Y-112384000D01*
X86402978Y-112384000D01*
X86636361Y-112337577D01*
X86856203Y-112246516D01*
X87054055Y-112114315D01*
X87190000Y-111978370D01*
X87190000Y-112323653D01*
X87189604Y-112323692D01*
X87037296Y-112369894D01*
X86896928Y-112444922D01*
X86773894Y-112545894D01*
X86672922Y-112668928D01*
X86597894Y-112809296D01*
X86551692Y-112961604D01*
X86536091Y-113120000D01*
X86536091Y-114820000D01*
X86551692Y-114978396D01*
X86597894Y-115130704D01*
X86672922Y-115271072D01*
X86773894Y-115394106D01*
X86896928Y-115495078D01*
X87037296Y-115570106D01*
X87189604Y-115616308D01*
X87348000Y-115631909D01*
X89348000Y-115631909D01*
X89506396Y-115616308D01*
X89658704Y-115570106D01*
X89799072Y-115495078D01*
X89922106Y-115394106D01*
X90023078Y-115271072D01*
X90098106Y-115130704D01*
X90144308Y-114978396D01*
X90159909Y-114820000D01*
X90159909Y-113120000D01*
X90144308Y-112961604D01*
X90098106Y-112809296D01*
X90023078Y-112668928D01*
X89922106Y-112545894D01*
X89799072Y-112444922D01*
X89658704Y-112369894D01*
X89506396Y-112323692D01*
X89506000Y-112323653D01*
X89506000Y-110637460D01*
X91191996Y-112323456D01*
X91189604Y-112323692D01*
X91037296Y-112369894D01*
X90896928Y-112444922D01*
X90773894Y-112545894D01*
X90672922Y-112668928D01*
X90597894Y-112809296D01*
X90551692Y-112961604D01*
X90536091Y-113120000D01*
X90536091Y-114820000D01*
X90551692Y-114978396D01*
X90597894Y-115130704D01*
X90672922Y-115271072D01*
X90773894Y-115394106D01*
X90896928Y-115495078D01*
X91037296Y-115570106D01*
X91189604Y-115616308D01*
X91348000Y-115631909D01*
X93348000Y-115631909D01*
X93506396Y-115616308D01*
X93658704Y-115570106D01*
X93799072Y-115495078D01*
X93922106Y-115394106D01*
X94023078Y-115271072D01*
X94098106Y-115130704D01*
X94144308Y-114978396D01*
X94159909Y-114820000D01*
X94159909Y-113120000D01*
X95426091Y-113120000D01*
X95426091Y-114820000D01*
X95441692Y-114978396D01*
X95487894Y-115130704D01*
X95562922Y-115271072D01*
X95663894Y-115394106D01*
X95786928Y-115495078D01*
X95927296Y-115570106D01*
X96079604Y-115616308D01*
X96238000Y-115631909D01*
X98238000Y-115631909D01*
X98396396Y-115616308D01*
X98548704Y-115570106D01*
X98689072Y-115495078D01*
X98812106Y-115394106D01*
X98913078Y-115271072D01*
X98988106Y-115130704D01*
X99034308Y-114978396D01*
X99049909Y-114820000D01*
X99049909Y-113120000D01*
X99034308Y-112961604D01*
X98988106Y-112809296D01*
X98913078Y-112668928D01*
X98812106Y-112545894D01*
X98689072Y-112444922D01*
X98548704Y-112369894D01*
X98396396Y-112323692D01*
X98396000Y-112323653D01*
X98396000Y-110637460D01*
X100081996Y-112323456D01*
X100079604Y-112323692D01*
X99927296Y-112369894D01*
X99786928Y-112444922D01*
X99663894Y-112545894D01*
X99562922Y-112668928D01*
X99487894Y-112809296D01*
X99441692Y-112961604D01*
X99426091Y-113120000D01*
X99426091Y-114820000D01*
X99441692Y-114978396D01*
X99487894Y-115130704D01*
X99562922Y-115271072D01*
X99663894Y-115394106D01*
X99786928Y-115495078D01*
X99927296Y-115570106D01*
X100079604Y-115616308D01*
X100238000Y-115631909D01*
X102238000Y-115631909D01*
X102396396Y-115616308D01*
X102548704Y-115570106D01*
X102689072Y-115495078D01*
X102812106Y-115394106D01*
X102913078Y-115271072D01*
X102988106Y-115130704D01*
X103034308Y-114978396D01*
X103049909Y-114820000D01*
X103049909Y-113120000D01*
X103034308Y-112961604D01*
X102988106Y-112809296D01*
X102913078Y-112668928D01*
X102812106Y-112545894D01*
X102689072Y-112444922D01*
X102548704Y-112369894D01*
X102396396Y-112323692D01*
X102238000Y-112308091D01*
X102171000Y-112308091D01*
X102171000Y-112205829D01*
X102175514Y-112160000D01*
X102171000Y-112114168D01*
X102157500Y-111977100D01*
X102104785Y-111803322D01*
X102104150Y-111801228D01*
X102017514Y-111639145D01*
X102002823Y-111621244D01*
X101900923Y-111497077D01*
X101865319Y-111467858D01*
X99684000Y-109286540D01*
X99684000Y-109279022D01*
X99664701Y-109182000D01*
X99874827Y-109182000D01*
X100127530Y-109131734D01*
X100365570Y-109033135D01*
X100579801Y-108889990D01*
X100761990Y-108707801D01*
X100905135Y-108493570D01*
X101003734Y-108255530D01*
X101054000Y-108002827D01*
X101054000Y-107745173D01*
X101003734Y-107492470D01*
X100905135Y-107254430D01*
X100904000Y-107252731D01*
X100904000Y-101328555D01*
X101048327Y-101424991D01*
X101340964Y-101546205D01*
X101651626Y-101608000D01*
X101968374Y-101608000D01*
X102279036Y-101546205D01*
X102522642Y-101445300D01*
X102558927Y-101475078D01*
X102699295Y-101550107D01*
X102851604Y-101596309D01*
X103010000Y-101611910D01*
X103558000Y-101608000D01*
X103760000Y-101406000D01*
X103760000Y-100050000D01*
X103740000Y-100050000D01*
X103740000Y-99950000D01*
X103760000Y-99950000D01*
X103760000Y-98594000D01*
X103558000Y-98392000D01*
X103010000Y-98388090D01*
X102851604Y-98403691D01*
X102699295Y-98449893D01*
X102558927Y-98524922D01*
X102522642Y-98554700D01*
X102279036Y-98453795D01*
X101968374Y-98392000D01*
X101651626Y-98392000D01*
X101340964Y-98453795D01*
X101048327Y-98575009D01*
X100904000Y-98671445D01*
X100904000Y-94779269D01*
X100905135Y-94777570D01*
X101003734Y-94539530D01*
X101054000Y-94286827D01*
X101054000Y-94029173D01*
X101003734Y-93776470D01*
X100905135Y-93538430D01*
X100761990Y-93324199D01*
X100579801Y-93142010D01*
X100365570Y-92998865D01*
X100127530Y-92900266D01*
X99874827Y-92850000D01*
X99617173Y-92850000D01*
X99364470Y-92900266D01*
X99126430Y-92998865D01*
X98912199Y-93142010D01*
X98730010Y-93324199D01*
X98586865Y-93538430D01*
X98488266Y-93776470D01*
X98438000Y-94029173D01*
X98438000Y-94286827D01*
X98488266Y-94539530D01*
X98586865Y-94777570D01*
X98588001Y-94779270D01*
X98588000Y-99943111D01*
X98582397Y-100000000D01*
X98588001Y-100056899D01*
X98588000Y-107252731D01*
X98586865Y-107254430D01*
X98488266Y-107492470D01*
X98438000Y-107745173D01*
X98438000Y-108002827D01*
X98475231Y-108190000D01*
X98396000Y-108190000D01*
X98396000Y-100037055D01*
X98463734Y-99873530D01*
X98514000Y-99620827D01*
X98514000Y-99363173D01*
X98463734Y-99110470D01*
X98365135Y-98872430D01*
X98221990Y-98658199D01*
X98039801Y-98476010D01*
X97825570Y-98332865D01*
X97587530Y-98234266D01*
X97334827Y-98184000D01*
X97077173Y-98184000D01*
X96824470Y-98234266D01*
X96586430Y-98332865D01*
X96372199Y-98476010D01*
X96190010Y-98658199D01*
X96046865Y-98872430D01*
X95948266Y-99110470D01*
X95898000Y-99363173D01*
X95898000Y-99620827D01*
X95948266Y-99873530D01*
X96046865Y-100111570D01*
X96080001Y-100161161D01*
X96080000Y-112323653D01*
X96079604Y-112323692D01*
X95927296Y-112369894D01*
X95786928Y-112444922D01*
X95663894Y-112545894D01*
X95562922Y-112668928D01*
X95487894Y-112809296D01*
X95441692Y-112961604D01*
X95426091Y-113120000D01*
X94159909Y-113120000D01*
X94144308Y-112961604D01*
X94098106Y-112809296D01*
X94023078Y-112668928D01*
X93922106Y-112545894D01*
X93799072Y-112444922D01*
X93658704Y-112369894D01*
X93506396Y-112323692D01*
X93348000Y-112308091D01*
X93281000Y-112308091D01*
X93281000Y-112205829D01*
X93285514Y-112160000D01*
X93281000Y-112114168D01*
X93267500Y-111977100D01*
X93214785Y-111803322D01*
X93214150Y-111801228D01*
X93127514Y-111639145D01*
X93112823Y-111621244D01*
X93010923Y-111497077D01*
X92975319Y-111467858D01*
X90794000Y-109286540D01*
X90794000Y-109279022D01*
X90747577Y-109045639D01*
X90656516Y-108825797D01*
X90524315Y-108627945D01*
X90356055Y-108459685D01*
X90158203Y-108327484D01*
X89938361Y-108236423D01*
X89704978Y-108190000D01*
X89506000Y-108190000D01*
X89506000Y-103593055D01*
X89573734Y-103429530D01*
X89624000Y-103176827D01*
X89624000Y-102919173D01*
X89573734Y-102666470D01*
X89475135Y-102428430D01*
X89331990Y-102214199D01*
X89149801Y-102032010D01*
X88935570Y-101888865D01*
X88697530Y-101790266D01*
X88444827Y-101740000D01*
X88187173Y-101740000D01*
X87934470Y-101790266D01*
X87696430Y-101888865D01*
X87482199Y-102032010D01*
X87300010Y-102214199D01*
X87156865Y-102428430D01*
X87058266Y-102666470D01*
X87008000Y-102919173D01*
X87008000Y-103176827D01*
X87058266Y-103429530D01*
X87156865Y-103667570D01*
X87190001Y-103717161D01*
X87190001Y-106055631D01*
X87054055Y-105919685D01*
X86856203Y-105787484D01*
X86636361Y-105696423D01*
X86402978Y-105650000D01*
X86165022Y-105650000D01*
X86124746Y-105658011D01*
X86029990Y-105516199D01*
X85847801Y-105334010D01*
X85633570Y-105190865D01*
X85395530Y-105092266D01*
X85142827Y-105042000D01*
X84885173Y-105042000D01*
X84632470Y-105092266D01*
X84394430Y-105190865D01*
X84180199Y-105334010D01*
X83998010Y-105516199D01*
X83854865Y-105730430D01*
X83756266Y-105968470D01*
X83706000Y-106221173D01*
X83706000Y-106478827D01*
X83756266Y-106731530D01*
X83854865Y-106969570D01*
X83856000Y-106971269D01*
X83856001Y-107986000D01*
X82258000Y-107986000D01*
X82258000Y-107745173D01*
X82207734Y-107492470D01*
X82109135Y-107254430D01*
X81965990Y-107040199D01*
X81783801Y-106858010D01*
X81569570Y-106714865D01*
X81331530Y-106616266D01*
X81078827Y-106566000D01*
X80821173Y-106566000D01*
X80568470Y-106616266D01*
X80330430Y-106714865D01*
X80328731Y-106716000D01*
X75164886Y-106716000D01*
X75107999Y-106710397D01*
X75051112Y-106716000D01*
X75051111Y-106716000D01*
X74880992Y-106732755D01*
X74662708Y-106798971D01*
X74461537Y-106906499D01*
X74285208Y-107051208D01*
X74248939Y-107095402D01*
X73691397Y-107652944D01*
X73647209Y-107689208D01*
X73610945Y-107733396D01*
X73610944Y-107733397D01*
X73502500Y-107865537D01*
X73394971Y-108066709D01*
X73328756Y-108284992D01*
X73306397Y-108512000D01*
X73312001Y-108568896D01*
X73312001Y-109322000D01*
X70240044Y-109322000D01*
X70139570Y-109254865D01*
X69901530Y-109156266D01*
X69648827Y-109106000D01*
X69391173Y-109106000D01*
X69138470Y-109156266D01*
X68900430Y-109254865D01*
X68686199Y-109398010D01*
X68504010Y-109580199D01*
X68360865Y-109794430D01*
X68262266Y-110032470D01*
X68212000Y-110285173D01*
X68212000Y-110542827D01*
X68262266Y-110795530D01*
X68360865Y-111033570D01*
X68504010Y-111247801D01*
X68686199Y-111429990D01*
X68900430Y-111573135D01*
X69138470Y-111671734D01*
X69391173Y-111722000D01*
X69566912Y-111722000D01*
X69465484Y-111873797D01*
X69374423Y-112093639D01*
X69328000Y-112327022D01*
X69328000Y-112564978D01*
X69374423Y-112798361D01*
X69465484Y-113018203D01*
X69597685Y-113216055D01*
X69765945Y-113384315D01*
X69963797Y-113516516D01*
X70183639Y-113607577D01*
X70417022Y-113654000D01*
X70654978Y-113654000D01*
X70888361Y-113607577D01*
X71108203Y-113516516D01*
X71306055Y-113384315D01*
X71311370Y-113379000D01*
X73076227Y-113379000D01*
X73168928Y-113455078D01*
X73309296Y-113530106D01*
X73461604Y-113576308D01*
X73532750Y-113583315D01*
X73532486Y-113586000D01*
X73537000Y-113631829D01*
X73537000Y-113631831D01*
X73550500Y-113768899D01*
X73603850Y-113944770D01*
X73690486Y-114106854D01*
X73807077Y-114248923D01*
X73842687Y-114278147D01*
X74161853Y-114597313D01*
X74191077Y-114632923D01*
X74333145Y-114749514D01*
X74495229Y-114836150D01*
X74671100Y-114889500D01*
X74808168Y-114903000D01*
X74808170Y-114903000D01*
X74853999Y-114907514D01*
X74899828Y-114903000D01*
X75602630Y-114903000D01*
X75607945Y-114908315D01*
X75805797Y-115040516D01*
X75944576Y-115098000D01*
X72173269Y-115098000D01*
X72171570Y-115096865D01*
X71933530Y-114998266D01*
X71680827Y-114948000D01*
X71423173Y-114948000D01*
X71170470Y-114998266D01*
X70932430Y-115096865D01*
X70718199Y-115240010D01*
X70536010Y-115422199D01*
X70536000Y-115422214D01*
X70535990Y-115422199D01*
X70353801Y-115240010D01*
X70139570Y-115096865D01*
X69901530Y-114998266D01*
X69648827Y-114948000D01*
X69391173Y-114948000D01*
X69138470Y-114998266D01*
X68900430Y-115096865D01*
X68898731Y-115098000D01*
X68871269Y-115098000D01*
X68869570Y-115096865D01*
X68631530Y-114998266D01*
X68378827Y-114948000D01*
X68121173Y-114948000D01*
X67868470Y-114998266D01*
X67630430Y-115096865D01*
X67416199Y-115240010D01*
X67234010Y-115422199D01*
X67090865Y-115636430D01*
X66992266Y-115874470D01*
X66942000Y-116127173D01*
X66942000Y-116339000D01*
X66918000Y-116339000D01*
X66918000Y-116137022D01*
X66871577Y-115903639D01*
X66780516Y-115683797D01*
X66648315Y-115485945D01*
X66643000Y-115480630D01*
X66643000Y-109022460D01*
X67112461Y-108553000D01*
X69760630Y-108553000D01*
X69765945Y-108558315D01*
X69963797Y-108690516D01*
X70183639Y-108781577D01*
X70417022Y-108828000D01*
X70654978Y-108828000D01*
X70888361Y-108781577D01*
X71108203Y-108690516D01*
X71306055Y-108558315D01*
X71474315Y-108390055D01*
X71606516Y-108192203D01*
X71697577Y-107972361D01*
X71744000Y-107738978D01*
X71744000Y-107501022D01*
X71697577Y-107267639D01*
X71606516Y-107047797D01*
X71474315Y-106849945D01*
X71306055Y-106681685D01*
X71108203Y-106549484D01*
X70888361Y-106458423D01*
X70654978Y-106412000D01*
X70417022Y-106412000D01*
X70183639Y-106458423D01*
X69963797Y-106549484D01*
X69765945Y-106681685D01*
X69760630Y-106687000D01*
X66771829Y-106687000D01*
X66726000Y-106682486D01*
X66680171Y-106687000D01*
X66680168Y-106687000D01*
X66543100Y-106700500D01*
X66367229Y-106753850D01*
X66205145Y-106840486D01*
X66063077Y-106957077D01*
X66033857Y-106992682D01*
X65082687Y-107943853D01*
X65047077Y-107973077D01*
X64930486Y-108115146D01*
X64843850Y-108277230D01*
X64790500Y-108453101D01*
X64777000Y-108590168D01*
X64772486Y-108636000D01*
X64777000Y-108681829D01*
X64777001Y-115480629D01*
X64771685Y-115485945D01*
X64639484Y-115683797D01*
X64548423Y-115903639D01*
X64502000Y-116137022D01*
X64502000Y-116339000D01*
X62675370Y-116339000D01*
X62670055Y-116333685D01*
X62472203Y-116201484D01*
X62252361Y-116110423D01*
X62018978Y-116064000D01*
X61781022Y-116064000D01*
X61547639Y-116110423D01*
X61327797Y-116201484D01*
X61129945Y-116333685D01*
X60961685Y-116501945D01*
X60829484Y-116699797D01*
X60738423Y-116919639D01*
X60692000Y-117153022D01*
X58383000Y-117153022D01*
X58383000Y-99698813D01*
X61842000Y-99698813D01*
X61842000Y-100301187D01*
X61959518Y-100891986D01*
X62190036Y-101448506D01*
X62524697Y-101949361D01*
X62950639Y-102375303D01*
X63451494Y-102709964D01*
X64008014Y-102940482D01*
X64598813Y-103058000D01*
X65201187Y-103058000D01*
X65791986Y-102940482D01*
X66348506Y-102709964D01*
X66849361Y-102375303D01*
X67275303Y-101949361D01*
X67609964Y-101448506D01*
X67840482Y-100891986D01*
X67958000Y-100301187D01*
X67958000Y-99698813D01*
X67840482Y-99108014D01*
X67609964Y-98551494D01*
X67275303Y-98050639D01*
X66849361Y-97624697D01*
X66348506Y-97290036D01*
X65791986Y-97059518D01*
X65201187Y-96942000D01*
X64598813Y-96942000D01*
X64008014Y-97059518D01*
X63451494Y-97290036D01*
X62950639Y-97624697D01*
X62524697Y-98050639D01*
X62190036Y-98551494D01*
X61959518Y-99108014D01*
X61842000Y-99698813D01*
X58383000Y-99698813D01*
X58383000Y-69520000D01*
X58963978Y-69520000D01*
X58995990Y-69845025D01*
X59090796Y-70157559D01*
X59244753Y-70445592D01*
X59451945Y-70698055D01*
X59563980Y-70790000D01*
X59451945Y-70881945D01*
X59244753Y-71134408D01*
X59090796Y-71422441D01*
X58995990Y-71734975D01*
X58963978Y-72060000D01*
X58995990Y-72385025D01*
X59090796Y-72697559D01*
X59244753Y-72985592D01*
X59451945Y-73238055D01*
X59563980Y-73330000D01*
X59451945Y-73421945D01*
X59244753Y-73674408D01*
X59090796Y-73962441D01*
X58995990Y-74274975D01*
X58963978Y-74600000D01*
X58995990Y-74925025D01*
X59090796Y-75237559D01*
X59244753Y-75525592D01*
X59451945Y-75778055D01*
X59563980Y-75870000D01*
X59451945Y-75961945D01*
X59244753Y-76214408D01*
X59090796Y-76502441D01*
X58995990Y-76814975D01*
X58963978Y-77140000D01*
X58995990Y-77465025D01*
X59090796Y-77777559D01*
X59244753Y-78065592D01*
X59451945Y-78318055D01*
X59570096Y-78415019D01*
X59468343Y-78496986D01*
X59259869Y-78746345D01*
X59104049Y-79031584D01*
X59006870Y-79341741D01*
X59000979Y-79371365D01*
X59174859Y-79630000D01*
X60580000Y-79630000D01*
X60580000Y-79610000D01*
X60680000Y-79610000D01*
X60680000Y-79630000D01*
X60700000Y-79630000D01*
X60700000Y-79730000D01*
X60680000Y-79730000D01*
X60680000Y-79750000D01*
X60580000Y-79750000D01*
X60580000Y-79730000D01*
X59174859Y-79730000D01*
X59000979Y-79988635D01*
X59006870Y-80018259D01*
X59104049Y-80328416D01*
X59259869Y-80613655D01*
X59328266Y-80695465D01*
X59205894Y-80795894D01*
X59104922Y-80918928D01*
X59029894Y-81059296D01*
X58983692Y-81211604D01*
X58968091Y-81370000D01*
X58968091Y-83070000D01*
X58983692Y-83228396D01*
X59029894Y-83380704D01*
X59104922Y-83521072D01*
X59205894Y-83644106D01*
X59328928Y-83745078D01*
X59469296Y-83820106D01*
X59621604Y-83866308D01*
X59780000Y-83881909D01*
X61221000Y-83881909D01*
X61221000Y-87540630D01*
X61215685Y-87545945D01*
X61083484Y-87743797D01*
X60992423Y-87963639D01*
X60946000Y-88197022D01*
X60946000Y-88434978D01*
X60992423Y-88668361D01*
X61083484Y-88888203D01*
X61215685Y-89086055D01*
X61383945Y-89254315D01*
X61581797Y-89386516D01*
X61801639Y-89477577D01*
X62035022Y-89524000D01*
X62272978Y-89524000D01*
X62506361Y-89477577D01*
X62726203Y-89386516D01*
X62924055Y-89254315D01*
X63092315Y-89086055D01*
X63224516Y-88888203D01*
X63301748Y-88701748D01*
X63488203Y-88624516D01*
X63686055Y-88492315D01*
X63854315Y-88324055D01*
X63986516Y-88126203D01*
X64077577Y-87906361D01*
X64124000Y-87672978D01*
X64124000Y-87435022D01*
X64077577Y-87201639D01*
X63986516Y-86981797D01*
X63854315Y-86783945D01*
X63849000Y-86778630D01*
X63849000Y-78448000D01*
X63866630Y-78448000D01*
X63877484Y-78474203D01*
X64009685Y-78672055D01*
X64177945Y-78840315D01*
X64375797Y-78972516D01*
X64595639Y-79063577D01*
X64777000Y-79099652D01*
X64777001Y-83984629D01*
X64771685Y-83989945D01*
X64639484Y-84187797D01*
X64548423Y-84407639D01*
X64502000Y-84641022D01*
X64502000Y-84878978D01*
X64548423Y-85112361D01*
X64639484Y-85332203D01*
X64771685Y-85530055D01*
X64939945Y-85698315D01*
X65137797Y-85830516D01*
X65357639Y-85921577D01*
X65591022Y-85968000D01*
X65828978Y-85968000D01*
X66062361Y-85921577D01*
X66282203Y-85830516D01*
X66301001Y-85817956D01*
X66301001Y-89064629D01*
X66295685Y-89069945D01*
X66163484Y-89267797D01*
X66072423Y-89487639D01*
X66026000Y-89721022D01*
X66026000Y-89899500D01*
X59784810Y-89899500D01*
X59784810Y-93265500D01*
X69603000Y-93265500D01*
X69603001Y-103764159D01*
X69603000Y-103764169D01*
X69603000Y-104016627D01*
X69563682Y-104055945D01*
X69431481Y-104253797D01*
X69340420Y-104473639D01*
X69293997Y-104707022D01*
X69293997Y-104944978D01*
X69340420Y-105178361D01*
X69431481Y-105398203D01*
X69563682Y-105596055D01*
X69731942Y-105764315D01*
X69929794Y-105896516D01*
X70149636Y-105987577D01*
X70383019Y-106034000D01*
X70620975Y-106034000D01*
X70854358Y-105987577D01*
X70904809Y-105966679D01*
X70932430Y-105985135D01*
X71170470Y-106083734D01*
X71423173Y-106134000D01*
X71680827Y-106134000D01*
X71933530Y-106083734D01*
X72171570Y-105985135D01*
X72187000Y-105974825D01*
X72202430Y-105985135D01*
X72440470Y-106083734D01*
X72693173Y-106134000D01*
X72950827Y-106134000D01*
X73203530Y-106083734D01*
X73441570Y-105985135D01*
X73655801Y-105841990D01*
X73837990Y-105659801D01*
X73981135Y-105445570D01*
X74079734Y-105207530D01*
X74130000Y-104954827D01*
X74130000Y-104697173D01*
X74079734Y-104444470D01*
X73981135Y-104206430D01*
X73980000Y-104204731D01*
X73980000Y-104023791D01*
X74020199Y-104063990D01*
X74234430Y-104207135D01*
X74472470Y-104305734D01*
X74725173Y-104356000D01*
X74982827Y-104356000D01*
X75235530Y-104305734D01*
X75473570Y-104207135D01*
X75687801Y-104063990D01*
X75869990Y-103881801D01*
X76013135Y-103667570D01*
X76111734Y-103429530D01*
X76162000Y-103176827D01*
X76162000Y-102919173D01*
X76111734Y-102666470D01*
X76013135Y-102428430D01*
X76012000Y-102426731D01*
X76012000Y-100113269D01*
X76013135Y-100111570D01*
X76111734Y-99873530D01*
X76162000Y-99620827D01*
X76162000Y-99363173D01*
X76111734Y-99110470D01*
X76013135Y-98872430D01*
X75869990Y-98658199D01*
X75687801Y-98476010D01*
X75473570Y-98332865D01*
X75235530Y-98234266D01*
X74982827Y-98184000D01*
X74725173Y-98184000D01*
X74472470Y-98234266D01*
X74234430Y-98332865D01*
X74020199Y-98476010D01*
X73838010Y-98658199D01*
X73694865Y-98872430D01*
X73596266Y-99110470D01*
X73546000Y-99363173D01*
X73546000Y-99620827D01*
X73596266Y-99873530D01*
X73694865Y-100111570D01*
X73696000Y-100113269D01*
X73696000Y-100802209D01*
X73655801Y-100762010D01*
X73441570Y-100618865D01*
X73203530Y-100520266D01*
X72950827Y-100470000D01*
X72710000Y-100470000D01*
X72710000Y-92493269D01*
X72711135Y-92491570D01*
X72809734Y-92253530D01*
X72860000Y-92000827D01*
X72860000Y-91743173D01*
X72809734Y-91490470D01*
X72711135Y-91252430D01*
X72567990Y-91038199D01*
X72385801Y-90856010D01*
X72171570Y-90712865D01*
X71933530Y-90614266D01*
X71710768Y-90569956D01*
X71697577Y-90503639D01*
X71606516Y-90283797D01*
X71474315Y-90085945D01*
X71306055Y-89917685D01*
X71108203Y-89785484D01*
X70888361Y-89694423D01*
X70654978Y-89648000D01*
X70417022Y-89648000D01*
X70183639Y-89694423D01*
X69963797Y-89785484D01*
X69765945Y-89917685D01*
X69603191Y-90080439D01*
X69603191Y-89899500D01*
X69136870Y-89899500D01*
X69188315Y-89848055D01*
X69320516Y-89650203D01*
X69411577Y-89430361D01*
X69458000Y-89196978D01*
X69458000Y-88959022D01*
X69411577Y-88725639D01*
X69320516Y-88505797D01*
X69188315Y-88307945D01*
X69183000Y-88302630D01*
X69183000Y-85410000D01*
X70418090Y-85410000D01*
X70433691Y-85568396D01*
X70479893Y-85720705D01*
X70554922Y-85861073D01*
X70655893Y-85984107D01*
X70778927Y-86085078D01*
X70919295Y-86160107D01*
X71071604Y-86206309D01*
X71230000Y-86221910D01*
X71728000Y-86218000D01*
X71930000Y-86016000D01*
X71930000Y-84810000D01*
X70624000Y-84810000D01*
X70422000Y-85012000D01*
X70418090Y-85410000D01*
X69183000Y-85410000D01*
X69183000Y-84110000D01*
X70418090Y-84110000D01*
X70422000Y-84508000D01*
X70624000Y-84710000D01*
X71930000Y-84710000D01*
X71930000Y-83504000D01*
X72030000Y-83504000D01*
X72030000Y-84710000D01*
X72050000Y-84710000D01*
X72050000Y-84810000D01*
X72030000Y-84810000D01*
X72030000Y-86016000D01*
X72232000Y-86218000D01*
X72730000Y-86221910D01*
X72888396Y-86206309D01*
X73040705Y-86160107D01*
X73181073Y-86085078D01*
X73304107Y-85984107D01*
X73330001Y-85952555D01*
X73355894Y-85984106D01*
X73478928Y-86085078D01*
X73619296Y-86160106D01*
X73771604Y-86206308D01*
X73930000Y-86221909D01*
X75430000Y-86221909D01*
X75588396Y-86206308D01*
X75740704Y-86160106D01*
X75881072Y-86085078D01*
X76004106Y-85984106D01*
X76017324Y-85968000D01*
X76242978Y-85968000D01*
X76476361Y-85921577D01*
X76696203Y-85830516D01*
X76894055Y-85698315D01*
X77062315Y-85530055D01*
X77194516Y-85332203D01*
X77285577Y-85112361D01*
X77332000Y-84878978D01*
X77332000Y-84641022D01*
X77285577Y-84407639D01*
X77194516Y-84187797D01*
X77062315Y-83989945D01*
X76894055Y-83821685D01*
X76696203Y-83689484D01*
X76476361Y-83598423D01*
X76242978Y-83552000D01*
X76017324Y-83552000D01*
X76004106Y-83535894D01*
X75881072Y-83434922D01*
X75740704Y-83359894D01*
X75588396Y-83313692D01*
X75430000Y-83298091D01*
X73930000Y-83298091D01*
X73771604Y-83313692D01*
X73619296Y-83359894D01*
X73478928Y-83434922D01*
X73355894Y-83535894D01*
X73330001Y-83567445D01*
X73304107Y-83535893D01*
X73181073Y-83434922D01*
X73040705Y-83359893D01*
X72888396Y-83313691D01*
X72730000Y-83298090D01*
X72232000Y-83302000D01*
X72030000Y-83504000D01*
X71930000Y-83504000D01*
X71728000Y-83302000D01*
X71230000Y-83298090D01*
X71071604Y-83313691D01*
X70919295Y-83359893D01*
X70778927Y-83434922D01*
X70655893Y-83535893D01*
X70554922Y-83658927D01*
X70479893Y-83799295D01*
X70433691Y-83951604D01*
X70418090Y-84110000D01*
X69183000Y-84110000D01*
X69183000Y-82995370D01*
X69188315Y-82990055D01*
X69320516Y-82792203D01*
X69411577Y-82572361D01*
X69458000Y-82338978D01*
X69458000Y-82101022D01*
X69411577Y-81867639D01*
X69320516Y-81647797D01*
X69188315Y-81449945D01*
X69123354Y-81384984D01*
X69157577Y-81302361D01*
X69204000Y-81068978D01*
X69204000Y-80831022D01*
X69157577Y-80597639D01*
X69066516Y-80377797D01*
X68934315Y-80179945D01*
X68929000Y-80174630D01*
X68929000Y-73701330D01*
X69268000Y-73698000D01*
X69470000Y-73496000D01*
X69470000Y-72190000D01*
X69450000Y-72190000D01*
X69450000Y-72090000D01*
X69470000Y-72090000D01*
X69470000Y-72070000D01*
X69570000Y-72070000D01*
X69570000Y-72090000D01*
X69590000Y-72090000D01*
X69590000Y-72190000D01*
X69570000Y-72190000D01*
X69570000Y-73496000D01*
X69772000Y-73698000D01*
X70170000Y-73701910D01*
X70328396Y-73686309D01*
X70394001Y-73666408D01*
X70394000Y-74258091D01*
X70330000Y-74258091D01*
X70171604Y-74273692D01*
X70019296Y-74319894D01*
X69878928Y-74394922D01*
X69755894Y-74495894D01*
X69654922Y-74618928D01*
X69579894Y-74759296D01*
X69533692Y-74911604D01*
X69518091Y-75070000D01*
X69518091Y-76670000D01*
X69533692Y-76828396D01*
X69579894Y-76980704D01*
X69654922Y-77121072D01*
X69755894Y-77244106D01*
X69878928Y-77345078D01*
X70019296Y-77420106D01*
X70171604Y-77466308D01*
X70330000Y-77481909D01*
X70394001Y-77481909D01*
X70394001Y-77788730D01*
X70392865Y-77790430D01*
X70294266Y-78028470D01*
X70244000Y-78281173D01*
X70244000Y-78538827D01*
X70294266Y-78791530D01*
X70392865Y-79029570D01*
X70536010Y-79243801D01*
X70718199Y-79425990D01*
X70932430Y-79569135D01*
X71170470Y-79667734D01*
X71423173Y-79718000D01*
X71680827Y-79718000D01*
X71933530Y-79667734D01*
X72171570Y-79569135D01*
X72385801Y-79425990D01*
X72567990Y-79243801D01*
X72711135Y-79029570D01*
X72809734Y-78791530D01*
X72860000Y-78538827D01*
X72860000Y-78281173D01*
X72809734Y-78028470D01*
X72711135Y-77790430D01*
X72710000Y-77788731D01*
X72710000Y-77383067D01*
X72781072Y-77345078D01*
X72904106Y-77244106D01*
X73005078Y-77121072D01*
X73080106Y-76980704D01*
X73126308Y-76828396D01*
X73141909Y-76670000D01*
X73518090Y-76670000D01*
X73533691Y-76828396D01*
X73579893Y-76980705D01*
X73654922Y-77121073D01*
X73755893Y-77244107D01*
X73878927Y-77345078D01*
X74019295Y-77420107D01*
X74171604Y-77466309D01*
X74330000Y-77481910D01*
X75078000Y-77478000D01*
X75280000Y-77276000D01*
X75280000Y-75920000D01*
X75380000Y-75920000D01*
X75380000Y-77276000D01*
X75582000Y-77478000D01*
X76330000Y-77481910D01*
X76488396Y-77466309D01*
X76640705Y-77420107D01*
X76781073Y-77345078D01*
X76904107Y-77244107D01*
X77005078Y-77121073D01*
X77080107Y-76980705D01*
X77126309Y-76828396D01*
X77141910Y-76670000D01*
X77138000Y-76122000D01*
X76936000Y-75920000D01*
X75380000Y-75920000D01*
X75280000Y-75920000D01*
X73724000Y-75920000D01*
X73522000Y-76122000D01*
X73518090Y-76670000D01*
X73141909Y-76670000D01*
X73141909Y-75070000D01*
X73518090Y-75070000D01*
X73522000Y-75618000D01*
X73724000Y-75820000D01*
X75280000Y-75820000D01*
X75280000Y-74464000D01*
X75380000Y-74464000D01*
X75380000Y-75820000D01*
X76936000Y-75820000D01*
X77138000Y-75618000D01*
X77141910Y-75070000D01*
X77126309Y-74911604D01*
X77080107Y-74759295D01*
X77005078Y-74618927D01*
X76904107Y-74495893D01*
X76781073Y-74394922D01*
X76640705Y-74319893D01*
X76488396Y-74273691D01*
X76330000Y-74258090D01*
X75582000Y-74262000D01*
X75380000Y-74464000D01*
X75280000Y-74464000D01*
X75078000Y-74262000D01*
X74330000Y-74258090D01*
X74171604Y-74273691D01*
X74019295Y-74319893D01*
X73878927Y-74394922D01*
X73755893Y-74495893D01*
X73654922Y-74618927D01*
X73579893Y-74759295D01*
X73533691Y-74911604D01*
X73518090Y-75070000D01*
X73141909Y-75070000D01*
X73126308Y-74911604D01*
X73080106Y-74759296D01*
X73005078Y-74618928D01*
X72904106Y-74495894D01*
X72781072Y-74394922D01*
X72710000Y-74356933D01*
X72710000Y-73182997D01*
X72713577Y-73174361D01*
X72760000Y-72940978D01*
X72760000Y-72703022D01*
X72713577Y-72469639D01*
X72622516Y-72249797D01*
X72490315Y-72051945D01*
X72322055Y-71883685D01*
X72124203Y-71751484D01*
X71904361Y-71660423D01*
X71670978Y-71614000D01*
X71433022Y-71614000D01*
X71199639Y-71660423D01*
X70979797Y-71751484D01*
X70979068Y-71751971D01*
X70981910Y-71390000D01*
X70966309Y-71231604D01*
X70920107Y-71079295D01*
X70845078Y-70938927D01*
X70744107Y-70815893D01*
X70712555Y-70789999D01*
X70744106Y-70764106D01*
X70845078Y-70641072D01*
X70920106Y-70500704D01*
X70966308Y-70348396D01*
X70981909Y-70190000D01*
X70981909Y-68690000D01*
X70966308Y-68531604D01*
X70920106Y-68379296D01*
X70845078Y-68238928D01*
X70744106Y-68115894D01*
X70621072Y-68014922D01*
X70480704Y-67939894D01*
X70328396Y-67893692D01*
X70217107Y-67882731D01*
X70182923Y-67841077D01*
X70147313Y-67811853D01*
X69704147Y-67368687D01*
X69674923Y-67333077D01*
X69532855Y-67216486D01*
X69370771Y-67129850D01*
X69194900Y-67076500D01*
X69057832Y-67063000D01*
X69057829Y-67063000D01*
X69012000Y-67058486D01*
X68966171Y-67063000D01*
X66263828Y-67063000D01*
X66217999Y-67058486D01*
X66172170Y-67063000D01*
X66172168Y-67063000D01*
X66035100Y-67076500D01*
X65859229Y-67129850D01*
X65697145Y-67216486D01*
X65555077Y-67333077D01*
X65525853Y-67368687D01*
X65082687Y-67811853D01*
X65047077Y-67841077D01*
X64930486Y-67983146D01*
X64843850Y-68145230D01*
X64790500Y-68321101D01*
X64777000Y-68458168D01*
X64772486Y-68504000D01*
X64777000Y-68549829D01*
X64777001Y-71817210D01*
X64765801Y-71806010D01*
X64551570Y-71662865D01*
X64313530Y-71564266D01*
X64060827Y-71514000D01*
X63803173Y-71514000D01*
X63550470Y-71564266D01*
X63312430Y-71662865D01*
X63300369Y-71670924D01*
X63224516Y-71487797D01*
X63092315Y-71289945D01*
X62924055Y-71121685D01*
X62726203Y-70989484D01*
X62506361Y-70898423D01*
X62272978Y-70852000D01*
X62035022Y-70852000D01*
X61818780Y-70895013D01*
X61808055Y-70881945D01*
X61696020Y-70790000D01*
X61808055Y-70698055D01*
X62015247Y-70445592D01*
X62169204Y-70157559D01*
X62264010Y-69845025D01*
X62296022Y-69520000D01*
X62264010Y-69194975D01*
X62169204Y-68882441D01*
X62015247Y-68594408D01*
X61808055Y-68341945D01*
X61555592Y-68134753D01*
X61267559Y-67980796D01*
X60955025Y-67885990D01*
X60711449Y-67862000D01*
X60548551Y-67862000D01*
X60304975Y-67885990D01*
X59992441Y-67980796D01*
X59704408Y-68134753D01*
X59451945Y-68341945D01*
X59244753Y-68594408D01*
X59090796Y-68882441D01*
X58995990Y-69194975D01*
X58963978Y-69520000D01*
X58383000Y-69520000D01*
X58383000Y-60800000D01*
X86000190Y-60800000D01*
X86042266Y-61011530D01*
G36*
X87412001Y-71948658D02*
G01*
X87412000Y-73640888D01*
X87412001Y-73640898D01*
X87412001Y-75029110D01*
X87404150Y-75003229D01*
X87317514Y-74841145D01*
X87217000Y-74718667D01*
X87217000Y-71753657D01*
X87412001Y-71948658D01*
X87412001Y-71948658D01*
G37*
X87412001Y-71948658D02*
X87412000Y-73640888D01*
X87412001Y-73640898D01*
X87412001Y-75029110D01*
X87404150Y-75003229D01*
X87317514Y-74841145D01*
X87217000Y-74718667D01*
X87217000Y-71753657D01*
X87412001Y-71948658D01*
G36*
X112200000Y-63168272D02*
G01*
X112160456Y-63180268D01*
X112007058Y-63262260D01*
X111872604Y-63372604D01*
X111762260Y-63507058D01*
X111680268Y-63660456D01*
X111629777Y-63826902D01*
X111612728Y-64000000D01*
X111617001Y-64043384D01*
X111617001Y-70200000D01*
X106013000Y-70200000D01*
X106013000Y-68431764D01*
X106068396Y-68426308D01*
X106220704Y-68380106D01*
X106361072Y-68305078D01*
X106484106Y-68204106D01*
X106585078Y-68081072D01*
X106660106Y-67940704D01*
X106706308Y-67788396D01*
X106721909Y-67630000D01*
X106721909Y-66330000D01*
X106706308Y-66171604D01*
X106660106Y-66019296D01*
X106585078Y-65878928D01*
X106484106Y-65755894D01*
X106361072Y-65654922D01*
X106220704Y-65579894D01*
X106068396Y-65533692D01*
X105910000Y-65518091D01*
X104410000Y-65518091D01*
X104251604Y-65533692D01*
X104099296Y-65579894D01*
X103958928Y-65654922D01*
X103835894Y-65755894D01*
X103810001Y-65787445D01*
X103784107Y-65755893D01*
X103661073Y-65654922D01*
X103520705Y-65579893D01*
X103368396Y-65533691D01*
X103210000Y-65518090D01*
X102712000Y-65522000D01*
X102510000Y-65724000D01*
X102510000Y-66930000D01*
X102530000Y-66930000D01*
X102530000Y-67030000D01*
X102510000Y-67030000D01*
X102510000Y-68236000D01*
X102712000Y-68438000D01*
X103210000Y-68441910D01*
X103368396Y-68426309D01*
X103520705Y-68380107D01*
X103661073Y-68305078D01*
X103784107Y-68204107D01*
X103810001Y-68172555D01*
X103835894Y-68204106D01*
X103958928Y-68305078D01*
X104099296Y-68380106D01*
X104147001Y-68394577D01*
X104147001Y-70200000D01*
X96618000Y-70200000D01*
X96618000Y-67630000D01*
X100898090Y-67630000D01*
X100913691Y-67788396D01*
X100959893Y-67940705D01*
X101034922Y-68081073D01*
X101135893Y-68204107D01*
X101258927Y-68305078D01*
X101399295Y-68380107D01*
X101551604Y-68426309D01*
X101710000Y-68441910D01*
X102208000Y-68438000D01*
X102410000Y-68236000D01*
X102410000Y-67030000D01*
X101104000Y-67030000D01*
X100902000Y-67232000D01*
X100898090Y-67630000D01*
X96618000Y-67630000D01*
X96618000Y-66330000D01*
X100898090Y-66330000D01*
X100902000Y-66728000D01*
X101104000Y-66930000D01*
X102410000Y-66930000D01*
X102410000Y-65724000D01*
X102208000Y-65522000D01*
X101710000Y-65518090D01*
X101551604Y-65533691D01*
X101399295Y-65579893D01*
X101258927Y-65654922D01*
X101135893Y-65755893D01*
X101034922Y-65878927D01*
X100959893Y-66019295D01*
X100913691Y-66171604D01*
X100898090Y-66330000D01*
X96618000Y-66330000D01*
X96618000Y-65630000D01*
X97133113Y-65630000D01*
X97190000Y-65635603D01*
X97246887Y-65630000D01*
X97246889Y-65630000D01*
X97417008Y-65613245D01*
X97635292Y-65547029D01*
X97836463Y-65439501D01*
X98012792Y-65294792D01*
X98049062Y-65250597D01*
X98238594Y-65061064D01*
X98282792Y-65024792D01*
X98427501Y-64848463D01*
X98535029Y-64647292D01*
X98601245Y-64429008D01*
X98618000Y-64258889D01*
X98623603Y-64202000D01*
X98618000Y-64145111D01*
X98618000Y-63299269D01*
X98619135Y-63297570D01*
X98717734Y-63059530D01*
X98768000Y-62806827D01*
X98768000Y-62549173D01*
X98717734Y-62296470D01*
X98619135Y-62058430D01*
X98475990Y-61844199D01*
X98293801Y-61662010D01*
X98079570Y-61518865D01*
X97841530Y-61420266D01*
X97588827Y-61370000D01*
X97331173Y-61370000D01*
X97078470Y-61420266D01*
X96840430Y-61518865D01*
X96626199Y-61662010D01*
X96444010Y-61844199D01*
X96300865Y-62058430D01*
X96202266Y-62296470D01*
X96152000Y-62549173D01*
X96152000Y-62806827D01*
X96202266Y-63059530D01*
X96300865Y-63297570D01*
X96302000Y-63299269D01*
X96302000Y-63314000D01*
X95516889Y-63314000D01*
X95460000Y-63308397D01*
X95403111Y-63314000D01*
X93784620Y-63314000D01*
X93704106Y-63215894D01*
X93581072Y-63114922D01*
X93440704Y-63039894D01*
X93288396Y-62993692D01*
X93130000Y-62978091D01*
X91630000Y-62978091D01*
X91471604Y-62993692D01*
X91319296Y-63039894D01*
X91178928Y-63114922D01*
X91055894Y-63215894D01*
X91030000Y-63247446D01*
X91004106Y-63215894D01*
X90881072Y-63114922D01*
X90740704Y-63039894D01*
X90588396Y-62993692D01*
X90430000Y-62978091D01*
X88930000Y-62978091D01*
X88771604Y-62993692D01*
X88619296Y-63039894D01*
X88478928Y-63114922D01*
X88458000Y-63132097D01*
X88458000Y-61251269D01*
X88459135Y-61249570D01*
X88557734Y-61011530D01*
X88599810Y-60800000D01*
X112200000Y-60800000D01*
X112200000Y-63168272D01*
X112200000Y-63168272D01*
G37*
X112200000Y-63168272D02*
X112160456Y-63180268D01*
X112007058Y-63262260D01*
X111872604Y-63372604D01*
X111762260Y-63507058D01*
X111680268Y-63660456D01*
X111629777Y-63826902D01*
X111612728Y-64000000D01*
X111617001Y-64043384D01*
X111617001Y-70200000D01*
X106013000Y-70200000D01*
X106013000Y-68431764D01*
X106068396Y-68426308D01*
X106220704Y-68380106D01*
X106361072Y-68305078D01*
X106484106Y-68204106D01*
X106585078Y-68081072D01*
X106660106Y-67940704D01*
X106706308Y-67788396D01*
X106721909Y-67630000D01*
X106721909Y-66330000D01*
X106706308Y-66171604D01*
X106660106Y-66019296D01*
X106585078Y-65878928D01*
X106484106Y-65755894D01*
X106361072Y-65654922D01*
X106220704Y-65579894D01*
X106068396Y-65533692D01*
X105910000Y-65518091D01*
X104410000Y-65518091D01*
X104251604Y-65533692D01*
X104099296Y-65579894D01*
X103958928Y-65654922D01*
X103835894Y-65755894D01*
X103810001Y-65787445D01*
X103784107Y-65755893D01*
X103661073Y-65654922D01*
X103520705Y-65579893D01*
X103368396Y-65533691D01*
X103210000Y-65518090D01*
X102712000Y-65522000D01*
X102510000Y-65724000D01*
X102510000Y-66930000D01*
X102530000Y-66930000D01*
X102530000Y-67030000D01*
X102510000Y-67030000D01*
X102510000Y-68236000D01*
X102712000Y-68438000D01*
X103210000Y-68441910D01*
X103368396Y-68426309D01*
X103520705Y-68380107D01*
X103661073Y-68305078D01*
X103784107Y-68204107D01*
X103810001Y-68172555D01*
X103835894Y-68204106D01*
X103958928Y-68305078D01*
X104099296Y-68380106D01*
X104147001Y-68394577D01*
X104147001Y-70200000D01*
X96618000Y-70200000D01*
X96618000Y-67630000D01*
X100898090Y-67630000D01*
X100913691Y-67788396D01*
X100959893Y-67940705D01*
X101034922Y-68081073D01*
X101135893Y-68204107D01*
X101258927Y-68305078D01*
X101399295Y-68380107D01*
X101551604Y-68426309D01*
X101710000Y-68441910D01*
X102208000Y-68438000D01*
X102410000Y-68236000D01*
X102410000Y-67030000D01*
X101104000Y-67030000D01*
X100902000Y-67232000D01*
X100898090Y-67630000D01*
X96618000Y-67630000D01*
X96618000Y-66330000D01*
X100898090Y-66330000D01*
X100902000Y-66728000D01*
X101104000Y-66930000D01*
X102410000Y-66930000D01*
X102410000Y-65724000D01*
X102208000Y-65522000D01*
X101710000Y-65518090D01*
X101551604Y-65533691D01*
X101399295Y-65579893D01*
X101258927Y-65654922D01*
X101135893Y-65755893D01*
X101034922Y-65878927D01*
X100959893Y-66019295D01*
X100913691Y-66171604D01*
X100898090Y-66330000D01*
X96618000Y-66330000D01*
X96618000Y-65630000D01*
X97133113Y-65630000D01*
X97190000Y-65635603D01*
X97246887Y-65630000D01*
X97246889Y-65630000D01*
X97417008Y-65613245D01*
X97635292Y-65547029D01*
X97836463Y-65439501D01*
X98012792Y-65294792D01*
X98049062Y-65250597D01*
X98238594Y-65061064D01*
X98282792Y-65024792D01*
X98427501Y-64848463D01*
X98535029Y-64647292D01*
X98601245Y-64429008D01*
X98618000Y-64258889D01*
X98623603Y-64202000D01*
X98618000Y-64145111D01*
X98618000Y-63299269D01*
X98619135Y-63297570D01*
X98717734Y-63059530D01*
X98768000Y-62806827D01*
X98768000Y-62549173D01*
X98717734Y-62296470D01*
X98619135Y-62058430D01*
X98475990Y-61844199D01*
X98293801Y-61662010D01*
X98079570Y-61518865D01*
X97841530Y-61420266D01*
X97588827Y-61370000D01*
X97331173Y-61370000D01*
X97078470Y-61420266D01*
X96840430Y-61518865D01*
X96626199Y-61662010D01*
X96444010Y-61844199D01*
X96300865Y-62058430D01*
X96202266Y-62296470D01*
X96152000Y-62549173D01*
X96152000Y-62806827D01*
X96202266Y-63059530D01*
X96300865Y-63297570D01*
X96302000Y-63299269D01*
X96302000Y-63314000D01*
X95516889Y-63314000D01*
X95460000Y-63308397D01*
X95403111Y-63314000D01*
X93784620Y-63314000D01*
X93704106Y-63215894D01*
X93581072Y-63114922D01*
X93440704Y-63039894D01*
X93288396Y-62993692D01*
X93130000Y-62978091D01*
X91630000Y-62978091D01*
X91471604Y-62993692D01*
X91319296Y-63039894D01*
X91178928Y-63114922D01*
X91055894Y-63215894D01*
X91030000Y-63247446D01*
X91004106Y-63215894D01*
X90881072Y-63114922D01*
X90740704Y-63039894D01*
X90588396Y-62993692D01*
X90430000Y-62978091D01*
X88930000Y-62978091D01*
X88771604Y-62993692D01*
X88619296Y-63039894D01*
X88478928Y-63114922D01*
X88458000Y-63132097D01*
X88458000Y-61251269D01*
X88459135Y-61249570D01*
X88557734Y-61011530D01*
X88599810Y-60800000D01*
X112200000Y-60800000D01*
X112200000Y-63168272D01*
M02*
