M48
;DRILL file {KiCad (5.0.2)-1} date 30.01.2019 16:57:39
;FORMAT={-:-/ absolute / metric / decimal}
FMAT,2
METRIC,TZ
T1C0.400
T2C0.600
T3C0.800
T4C0.900
T5C1.000
T6C1.100
%
G90
G05
T1
X65.71Y-78.41
X65.71Y-87.3
X68.25Y-78.41
X68.25Y-86.03
X70.79Y-78.41
X70.79Y-89.84
X73.33Y-78.41
X73.33Y-92.38
X75.87Y-78.41
X75.87Y-102.54
X82.22Y-53.962
X82.22Y-105.08
X82.22Y-107.556
X87.49Y-70.663
X87.49Y-73.457
X88.189Y-52.692
X88.189Y-56.248
X88.57Y-107.62
X88.57Y-110.16
X89.84Y-105.08
X89.84Y-107.62
X91.11Y-97.46
X91.11Y-105.08
X92.189Y-70.663
X92.189Y-73.457
X92.189Y-77.331
X93.015Y-74.917
X93.015Y-78.156
X93.65Y-97.46
X93.65Y-112.7
X106.35Y-87.3
X106.35Y-92.38
X107.62Y-73.33
X107.62Y-78.981
X107.62Y-86.03
X107.62Y-89.84
X107.62Y-102.54
X107.62Y-116.51
X108.445Y-69.52
X108.445Y-78.156
X108.89Y-94.92
X108.89Y-105.08
X108.89Y-117.78
X110.16Y-78.981
X110.16Y-97.46
X111.176Y-74.6
X112.954Y-49.009
X112.954Y-54.597
X114.224Y-74.6
X117.018Y-75.87
X117.018Y-77.331
X125.4Y-112.7
X126.924Y-49.009
X128.956Y-49.009
X133.02Y-116.51
X135.56Y-117.78
T2
X59.995Y-50.47
X60.63Y-65.519
X62.535Y-62.535
X63.17Y-64.44
X68.25Y-55.169
X69.52Y-46.66
X73.711Y-94.92
X73.711Y-107.62
X73.711Y-116.51
X76.505Y-62.535
X78.6Y-49.073
X78.6Y-50.787
X78.6Y-53.01
X79.68Y-80.188
X80.95Y-68.25
X85.395Y-58.725
X85.966Y-67.869
X85.966Y-73.457
X85.966Y-82.982
X86.03Y-112.7
X86.03Y-116.51
X86.919Y-47.803
X86.919Y-51.74
X86.919Y-55.169
X86.919Y-61.9
X88.57Y-46.025
X91.11Y-49.073
X92.38Y-79.108
X92.38Y-100.
X92.38Y-115.24
X93.015Y-56.185
X93.713Y-67.869
X93.713Y-70.663
X96.825Y-46.025
X98.666Y-65.519
X98.666Y-73.457
X98.666Y-75.87
X98.666Y-79.108
X100.254Y-68.948
X100.254Y-81.522
X101.905Y-46.025
X101.905Y-59.995
X106.096Y-47.803
X106.096Y-56.502
X106.35Y-100.
X106.35Y-116.51
X108.89Y-59.995
X110.287Y-52.692
X110.795Y-105.715
X110.795Y-115.24
X112.065Y-46.025
X112.382Y-57.836
X113.97Y-91.11
X115.24Y-64.44
X118.161Y-66.599
X118.161Y-68.25
X118.161Y-80.188
X118.415Y-59.995
X119.558Y-47.803
X119.558Y-52.692
X120.256Y-88.379
X120.32Y-100.
X122.86Y-113.97
X122.923Y-88.379
X125.4Y-46.025
X126.448Y-56.28
X127.876Y-90.602
X127.94Y-65.519
X127.94Y-84.76
X127.94Y-113.97
X130.48Y-115.24
X131.75Y-66.599
X134.226Y-50.343
X135.496Y-47.803
X135.56Y-65.519
X139.37Y-62.09
T3
X96.19Y-89.84
X96.19Y-92.38
X96.19Y-94.92
X96.19Y-97.46
X96.19Y-100.
X96.19Y-102.54
X96.19Y-105.08
X96.19Y-107.62
X96.19Y-110.16
X103.81Y-89.84
X103.81Y-92.38
X103.81Y-94.92
X103.81Y-97.46
X103.81Y-100.
X103.81Y-102.54
X103.81Y-105.08
X103.81Y-107.62
X103.81Y-110.16
X91.11Y-51.74
X91.11Y-53.74
X91.11Y-59.36
X91.11Y-61.36
T4
X70.79Y-58.09
X70.79Y-60.63
T5
X125.4Y-75.87
X133.02Y-78.41
X138.1Y-75.87
X115.24Y-107.62
X84.76Y-94.92
X79.68Y-61.9
X82.22Y-59.36
X84.76Y-61.9
X125.4Y-69.52
X133.02Y-72.06
X138.1Y-69.52
T6
X75.87Y-50.47
X75.87Y-53.01
X135.56Y-84.76
X135.56Y-87.3
X96.19Y-58.09
X96.19Y-60.63
X64.44Y-50.47
X64.44Y-53.01
X120.32Y-107.62
X120.32Y-110.16
X72.06Y-50.47
X72.06Y-53.01
X86.03Y-107.62
X86.03Y-110.16
X75.87Y-107.62
X75.87Y-110.16
X131.75Y-56.82
X131.75Y-59.36
X131.75Y-63.17
X96.19Y-50.47
X96.19Y-53.01
X135.56Y-56.82
X135.56Y-59.36
X125.4Y-108.89
X127.94Y-108.89
X130.48Y-108.89
X133.02Y-108.89
X135.56Y-108.89
X138.1Y-108.89
X127.94Y-63.17
X60.63Y-69.52
X63.17Y-69.52
X65.71Y-69.52
X68.25Y-69.52
X70.79Y-69.52
X73.33Y-69.52
X75.87Y-69.52
X66.98Y-60.63
X135.56Y-63.17
X66.98Y-58.09
X68.25Y-50.47
X68.25Y-53.01
X79.68Y-94.92
X79.68Y-97.46
X130.48Y-84.76
X130.48Y-87.3
X113.97Y-86.03
X113.97Y-88.57
T0
M30
