G04 #@! TF.GenerationSoftware,KiCad,Pcbnew,(5.1.0)-1*
G04 #@! TF.CreationDate,2019-08-12T15:22:36+02:00*
G04 #@! TF.ProjectId,LampeSolaire,4c616d70-6553-46f6-9c61-6972652e6b69,7*
G04 #@! TF.SameCoordinates,Original*
G04 #@! TF.FileFunction,Legend,Top*
G04 #@! TF.FilePolarity,Positive*
%FSLAX46Y46*%
G04 Gerber Fmt 4.6, Leading zero omitted, Abs format (unit mm)*
G04 Created by KiCad (PCBNEW (5.1.0)-1) date 2019-08-12 15:22:36*
%MOMM*%
%LPD*%
G04 APERTURE LIST*
%ADD10C,0.300000*%
%ADD11C,0.100000*%
%ADD12C,0.150000*%
%ADD13C,0.120000*%
%ADD14C,0.250000*%
%ADD15C,0.304800*%
G04 APERTURE END LIST*
D10*
X119031428Y-120743571D02*
X117888571Y-119243571D01*
X118817142Y-119243571D02*
X118674285Y-119315000D01*
X118602857Y-119457857D01*
X118674285Y-119600714D01*
X118817142Y-119672142D01*
X118960000Y-119600714D01*
X119031428Y-119457857D01*
X118960000Y-119315000D01*
X118817142Y-119243571D01*
X117960000Y-120672142D02*
X117888571Y-120529285D01*
X117960000Y-120386428D01*
X118102857Y-120315000D01*
X118245714Y-120386428D01*
X118317142Y-120529285D01*
X118245714Y-120672142D01*
X118102857Y-120743571D01*
X117960000Y-120672142D01*
D11*
G36*
X103220000Y-125145000D02*
G01*
X103220000Y-123240000D01*
X105125000Y-123240000D01*
X103220000Y-125145000D01*
G37*
X103220000Y-125145000D02*
X103220000Y-123240000D01*
X105125000Y-123240000D01*
X103220000Y-125145000D01*
D10*
X114122142Y-100951428D02*
X114122142Y-99808571D01*
X111582142Y-100951428D02*
X111582142Y-99808571D01*
X112153571Y-100380000D02*
X111010714Y-100380000D01*
D11*
G36*
X62580000Y-112445000D02*
G01*
X60675000Y-112445000D01*
X62580000Y-110540000D01*
X62580000Y-112445000D01*
G37*
X62580000Y-112445000D02*
X60675000Y-112445000D01*
X62580000Y-110540000D01*
X62580000Y-112445000D01*
D10*
X138188571Y-112004285D02*
X136688571Y-112004285D01*
X138188571Y-111290000D02*
X136688571Y-111290000D01*
X136688571Y-110718571D01*
X136760000Y-110575714D01*
X136831428Y-110504285D01*
X136974285Y-110432857D01*
X137188571Y-110432857D01*
X137331428Y-110504285D01*
X137402857Y-110575714D01*
X137474285Y-110718571D01*
X137474285Y-111290000D01*
X136688571Y-109932857D02*
X136688571Y-109004285D01*
X137260000Y-109504285D01*
X137260000Y-109290000D01*
X137331428Y-109147142D01*
X137402857Y-109075714D01*
X137545714Y-109004285D01*
X137902857Y-109004285D01*
X138045714Y-109075714D01*
X138117142Y-109147142D01*
X138188571Y-109290000D01*
X138188571Y-109718571D01*
X138117142Y-109861428D01*
X138045714Y-109932857D01*
X138188571Y-91684285D02*
X136688571Y-91684285D01*
X138188571Y-90970000D02*
X136688571Y-90970000D01*
X136688571Y-90398571D01*
X136760000Y-90255714D01*
X136831428Y-90184285D01*
X136974285Y-90112857D01*
X137188571Y-90112857D01*
X137331428Y-90184285D01*
X137402857Y-90255714D01*
X137474285Y-90398571D01*
X137474285Y-90970000D01*
X136831428Y-89541428D02*
X136760000Y-89470000D01*
X136688571Y-89327142D01*
X136688571Y-88970000D01*
X136760000Y-88827142D01*
X136831428Y-88755714D01*
X136974285Y-88684285D01*
X137117142Y-88684285D01*
X137331428Y-88755714D01*
X138188571Y-89612857D01*
X138188571Y-88684285D01*
X128663571Y-98383571D02*
X127163571Y-98383571D01*
X128663571Y-97526428D01*
X127163571Y-97526428D01*
X128663571Y-96812142D02*
X127163571Y-96812142D01*
X127163571Y-96240714D01*
X127235000Y-96097857D01*
X127306428Y-96026428D01*
X127449285Y-95955000D01*
X127663571Y-95955000D01*
X127806428Y-96026428D01*
X127877857Y-96097857D01*
X127949285Y-96240714D01*
X127949285Y-96812142D01*
X128663571Y-104733571D02*
X127163571Y-104733571D01*
X128663571Y-103876428D01*
X127163571Y-103876428D01*
X128663571Y-103162142D02*
X127163571Y-103162142D01*
X127163571Y-102590714D01*
X127235000Y-102447857D01*
X127306428Y-102376428D01*
X127449285Y-102305000D01*
X127663571Y-102305000D01*
X127806428Y-102376428D01*
X127877857Y-102447857D01*
X127949285Y-102590714D01*
X127949285Y-103162142D01*
X61894285Y-83268571D02*
X61180000Y-83268571D01*
X61180000Y-81768571D01*
X63037142Y-83268571D02*
X63037142Y-82482857D01*
X62965714Y-82340000D01*
X62822857Y-82268571D01*
X62537142Y-82268571D01*
X62394285Y-82340000D01*
X63037142Y-83197142D02*
X62894285Y-83268571D01*
X62537142Y-83268571D01*
X62394285Y-83197142D01*
X62322857Y-83054285D01*
X62322857Y-82911428D01*
X62394285Y-82768571D01*
X62537142Y-82697142D01*
X62894285Y-82697142D01*
X63037142Y-82625714D01*
X63751428Y-83268571D02*
X63751428Y-82268571D01*
X63751428Y-82411428D02*
X63822857Y-82340000D01*
X63965714Y-82268571D01*
X64180000Y-82268571D01*
X64322857Y-82340000D01*
X64394285Y-82482857D01*
X64394285Y-83268571D01*
X64394285Y-82482857D02*
X64465714Y-82340000D01*
X64608571Y-82268571D01*
X64822857Y-82268571D01*
X64965714Y-82340000D01*
X65037142Y-82482857D01*
X65037142Y-83268571D01*
X65751428Y-82268571D02*
X65751428Y-83768571D01*
X65751428Y-82340000D02*
X65894285Y-82268571D01*
X66180000Y-82268571D01*
X66322857Y-82340000D01*
X66394285Y-82411428D01*
X66465714Y-82554285D01*
X66465714Y-82982857D01*
X66394285Y-83125714D01*
X66322857Y-83197142D01*
X66180000Y-83268571D01*
X65894285Y-83268571D01*
X65751428Y-83197142D01*
X67680000Y-83197142D02*
X67537142Y-83268571D01*
X67251428Y-83268571D01*
X67108571Y-83197142D01*
X67037142Y-83054285D01*
X67037142Y-82482857D01*
X67108571Y-82340000D01*
X67251428Y-82268571D01*
X67537142Y-82268571D01*
X67680000Y-82340000D01*
X67751428Y-82482857D01*
X67751428Y-82625714D01*
X67037142Y-82768571D01*
X69465714Y-83197142D02*
X69680000Y-83268571D01*
X70037142Y-83268571D01*
X70180000Y-83197142D01*
X70251428Y-83125714D01*
X70322857Y-82982857D01*
X70322857Y-82840000D01*
X70251428Y-82697142D01*
X70180000Y-82625714D01*
X70037142Y-82554285D01*
X69751428Y-82482857D01*
X69608571Y-82411428D01*
X69537142Y-82340000D01*
X69465714Y-82197142D01*
X69465714Y-82054285D01*
X69537142Y-81911428D01*
X69608571Y-81840000D01*
X69751428Y-81768571D01*
X70108571Y-81768571D01*
X70322857Y-81840000D01*
X71180000Y-83268571D02*
X71037142Y-83197142D01*
X70965714Y-83125714D01*
X70894285Y-82982857D01*
X70894285Y-82554285D01*
X70965714Y-82411428D01*
X71037142Y-82340000D01*
X71180000Y-82268571D01*
X71394285Y-82268571D01*
X71537142Y-82340000D01*
X71608571Y-82411428D01*
X71680000Y-82554285D01*
X71680000Y-82982857D01*
X71608571Y-83125714D01*
X71537142Y-83197142D01*
X71394285Y-83268571D01*
X71180000Y-83268571D01*
X72537142Y-83268571D02*
X72394285Y-83197142D01*
X72322857Y-83054285D01*
X72322857Y-81768571D01*
X73751428Y-83268571D02*
X73751428Y-82482857D01*
X73680000Y-82340000D01*
X73537142Y-82268571D01*
X73251428Y-82268571D01*
X73108571Y-82340000D01*
X73751428Y-83197142D02*
X73608571Y-83268571D01*
X73251428Y-83268571D01*
X73108571Y-83197142D01*
X73037142Y-83054285D01*
X73037142Y-82911428D01*
X73108571Y-82768571D01*
X73251428Y-82697142D01*
X73608571Y-82697142D01*
X73751428Y-82625714D01*
X74465714Y-83268571D02*
X74465714Y-82268571D01*
X74465714Y-81768571D02*
X74394285Y-81840000D01*
X74465714Y-81911428D01*
X74537142Y-81840000D01*
X74465714Y-81768571D01*
X74465714Y-81911428D01*
X75180000Y-83268571D02*
X75180000Y-82268571D01*
X75180000Y-82554285D02*
X75251428Y-82411428D01*
X75322857Y-82340000D01*
X75465714Y-82268571D01*
X75608571Y-82268571D01*
X76680000Y-83197142D02*
X76537142Y-83268571D01*
X76251428Y-83268571D01*
X76108571Y-83197142D01*
X76037142Y-83054285D01*
X76037142Y-82482857D01*
X76108571Y-82340000D01*
X76251428Y-82268571D01*
X76537142Y-82268571D01*
X76680000Y-82340000D01*
X76751428Y-82482857D01*
X76751428Y-82625714D01*
X76037142Y-82768571D01*
X61644285Y-85818571D02*
X60787142Y-85818571D01*
X61215714Y-85818571D02*
X61215714Y-84318571D01*
X61072857Y-84532857D01*
X60929999Y-84675714D01*
X60787142Y-84747142D01*
X63072857Y-85818571D02*
X62215714Y-85818571D01*
X62644285Y-85818571D02*
X62644285Y-84318571D01*
X62501428Y-84532857D01*
X62358571Y-84675714D01*
X62215714Y-84747142D01*
X63715714Y-85675714D02*
X63787142Y-85747142D01*
X63715714Y-85818571D01*
X63644285Y-85747142D01*
X63715714Y-85675714D01*
X63715714Y-85818571D01*
X64715714Y-84318571D02*
X64858571Y-84318571D01*
X65001428Y-84390000D01*
X65072857Y-84461428D01*
X65144285Y-84604285D01*
X65215714Y-84890000D01*
X65215714Y-85247142D01*
X65144285Y-85532857D01*
X65072857Y-85675714D01*
X65001428Y-85747142D01*
X64858571Y-85818571D01*
X64715714Y-85818571D01*
X64572857Y-85747142D01*
X64501428Y-85675714D01*
X64429999Y-85532857D01*
X64358571Y-85247142D01*
X64358571Y-84890000D01*
X64429999Y-84604285D01*
X64501428Y-84461428D01*
X64572857Y-84390000D01*
X64715714Y-84318571D01*
X66072857Y-84961428D02*
X65929999Y-84890000D01*
X65858571Y-84818571D01*
X65787142Y-84675714D01*
X65787142Y-84604285D01*
X65858571Y-84461428D01*
X65929999Y-84390000D01*
X66072857Y-84318571D01*
X66358571Y-84318571D01*
X66501428Y-84390000D01*
X66572857Y-84461428D01*
X66644285Y-84604285D01*
X66644285Y-84675714D01*
X66572857Y-84818571D01*
X66501428Y-84890000D01*
X66358571Y-84961428D01*
X66072857Y-84961428D01*
X65929999Y-85032857D01*
X65858571Y-85104285D01*
X65787142Y-85247142D01*
X65787142Y-85532857D01*
X65858571Y-85675714D01*
X65929999Y-85747142D01*
X66072857Y-85818571D01*
X66358571Y-85818571D01*
X66501428Y-85747142D01*
X66572857Y-85675714D01*
X66644285Y-85532857D01*
X66644285Y-85247142D01*
X66572857Y-85104285D01*
X66501428Y-85032857D01*
X66358571Y-84961428D01*
X67287142Y-85675714D02*
X67358571Y-85747142D01*
X67287142Y-85818571D01*
X67215714Y-85747142D01*
X67287142Y-85675714D01*
X67287142Y-85818571D01*
X68787142Y-85818571D02*
X67930000Y-85818571D01*
X68358571Y-85818571D02*
X68358571Y-84318571D01*
X68215714Y-84532857D01*
X68072857Y-84675714D01*
X67930000Y-84747142D01*
X69501428Y-85818571D02*
X69787142Y-85818571D01*
X69930000Y-85747142D01*
X70001428Y-85675714D01*
X70144285Y-85461428D01*
X70215714Y-85175714D01*
X70215714Y-84604285D01*
X70144285Y-84461428D01*
X70072857Y-84390000D01*
X69930000Y-84318571D01*
X69644285Y-84318571D01*
X69501428Y-84390000D01*
X69430000Y-84461428D01*
X69358571Y-84604285D01*
X69358571Y-84961428D01*
X69430000Y-85104285D01*
X69501428Y-85175714D01*
X69644285Y-85247142D01*
X69930000Y-85247142D01*
X70072857Y-85175714D01*
X70144285Y-85104285D01*
X70215714Y-84961428D01*
X72001428Y-85247142D02*
X73144285Y-85247142D01*
X74787142Y-84318571D02*
X75287142Y-85818571D01*
X75787142Y-84318571D01*
X76144285Y-84318571D02*
X77144285Y-84318571D01*
X76501428Y-85818571D01*
X64358571Y-87582857D02*
X64858571Y-87582857D01*
X65072857Y-88368571D02*
X64358571Y-88368571D01*
X64358571Y-86868571D01*
X65072857Y-86868571D01*
X65644285Y-88297142D02*
X65787142Y-88368571D01*
X66072857Y-88368571D01*
X66215714Y-88297142D01*
X66287142Y-88154285D01*
X66287142Y-88082857D01*
X66215714Y-87940000D01*
X66072857Y-87868571D01*
X65858571Y-87868571D01*
X65715714Y-87797142D01*
X65644285Y-87654285D01*
X65644285Y-87582857D01*
X65715714Y-87440000D01*
X65858571Y-87368571D01*
X66072857Y-87368571D01*
X66215714Y-87440000D01*
X66858571Y-88297142D02*
X67001428Y-88368571D01*
X67287142Y-88368571D01*
X67430000Y-88297142D01*
X67501428Y-88154285D01*
X67501428Y-88082857D01*
X67430000Y-87940000D01*
X67287142Y-87868571D01*
X67072857Y-87868571D01*
X66930000Y-87797142D01*
X66858571Y-87654285D01*
X66858571Y-87582857D01*
X66930000Y-87440000D01*
X67072857Y-87368571D01*
X67287142Y-87368571D01*
X67430000Y-87440000D01*
X68715714Y-88297142D02*
X68572857Y-88368571D01*
X68287142Y-88368571D01*
X68144285Y-88297142D01*
X68072857Y-88154285D01*
X68072857Y-87582857D01*
X68144285Y-87440000D01*
X68287142Y-87368571D01*
X68572857Y-87368571D01*
X68715714Y-87440000D01*
X68787142Y-87582857D01*
X68787142Y-87725714D01*
X68072857Y-87868571D01*
X69430000Y-88368571D02*
X69430000Y-87368571D01*
X69430000Y-86868571D02*
X69358571Y-86940000D01*
X69430000Y-87011428D01*
X69501428Y-86940000D01*
X69430000Y-86868571D01*
X69430000Y-87011428D01*
X70001428Y-87368571D02*
X70358571Y-88368571D01*
X70715714Y-87368571D01*
X71930000Y-88368571D02*
X71930000Y-87582857D01*
X71858571Y-87440000D01*
X71715714Y-87368571D01*
X71430000Y-87368571D01*
X71287142Y-87440000D01*
X71930000Y-88297142D02*
X71787142Y-88368571D01*
X71430000Y-88368571D01*
X71287142Y-88297142D01*
X71215714Y-88154285D01*
X71215714Y-88011428D01*
X71287142Y-87868571D01*
X71430000Y-87797142D01*
X71787142Y-87797142D01*
X71930000Y-87725714D01*
X72644285Y-88368571D02*
X72644285Y-86868571D01*
X73501428Y-88368571D01*
X73501428Y-86868571D01*
D11*
G36*
X117444000Y-63550000D02*
G01*
X117444000Y-73710000D01*
X114269000Y-73710000D01*
X114269000Y-63550000D01*
X117444000Y-63550000D01*
G37*
X117444000Y-63550000D02*
X117444000Y-73710000D01*
X114269000Y-73710000D01*
X114269000Y-63550000D01*
X117444000Y-63550000D01*
D12*
X121370000Y-73710000D02*
X74380000Y-73710000D01*
X74380000Y-63550000D02*
X121370000Y-63550000D01*
D13*
X99910000Y-117310000D02*
X98910000Y-117310000D01*
X98910000Y-119010000D02*
X99910000Y-119010000D01*
D12*
X106140000Y-102040000D02*
X106140000Y-99990000D01*
X102840000Y-102745000D02*
X102840000Y-99990000D01*
D13*
X115410000Y-53065000D02*
X113950000Y-53065000D01*
X115410000Y-49905000D02*
X112250000Y-49905000D01*
X115410000Y-49905000D02*
X115410000Y-50835000D01*
X115410000Y-53065000D02*
X115410000Y-52135000D01*
X96995000Y-55605000D02*
X95535000Y-55605000D01*
X96995000Y-52445000D02*
X93835000Y-52445000D01*
X96995000Y-52445000D02*
X96995000Y-53375000D01*
X96995000Y-55605000D02*
X96995000Y-54675000D01*
D12*
X74105000Y-49845000D02*
X71755000Y-49845000D01*
X74105000Y-48045000D02*
X71805000Y-48045000D01*
X72205000Y-48045000D02*
X72155000Y-48045000D01*
X74105000Y-49845000D02*
X74105000Y-48045000D01*
X127720000Y-125240000D02*
X127720000Y-122890000D01*
X129520000Y-125240000D02*
X129520000Y-122940000D01*
X129520000Y-123340000D02*
X129520000Y-123290000D01*
X127720000Y-125240000D02*
X129520000Y-125240000D01*
D13*
X123235000Y-52285000D02*
X123235000Y-49985000D01*
X120035000Y-50685000D02*
X120035000Y-52285000D01*
X123235000Y-49985000D02*
X123835000Y-49485000D01*
X71205000Y-53730000D02*
X73655000Y-53730000D01*
X73005000Y-50510000D02*
X71205000Y-50510000D01*
X104365000Y-47365000D02*
X105825000Y-47365000D01*
X104365000Y-50525000D02*
X107525000Y-50525000D01*
X104365000Y-50525000D02*
X104365000Y-49595000D01*
X104365000Y-47365000D02*
X104365000Y-48295000D01*
X105885000Y-55605000D02*
X104425000Y-55605000D01*
X105885000Y-52445000D02*
X102725000Y-52445000D01*
X105885000Y-52445000D02*
X105885000Y-53375000D01*
X105885000Y-55605000D02*
X105885000Y-54675000D01*
X78395000Y-53450000D02*
X78395000Y-52120000D01*
X79725000Y-53450000D02*
X78395000Y-53450000D01*
X80995000Y-53450000D02*
X80995000Y-50790000D01*
X80995000Y-50790000D02*
X83595000Y-50790000D01*
X80995000Y-53450000D02*
X83595000Y-53450000D01*
X83595000Y-53450000D02*
X83595000Y-50790000D01*
X126020000Y-48885000D02*
X127350000Y-48885000D01*
X126020000Y-50215000D02*
X126020000Y-48885000D01*
X126020000Y-51485000D02*
X128680000Y-51485000D01*
X128680000Y-51485000D02*
X128680000Y-54085000D01*
X126020000Y-51485000D02*
X126020000Y-54085000D01*
X126020000Y-54085000D02*
X128680000Y-54085000D01*
X131100000Y-48885000D02*
X132430000Y-48885000D01*
X131100000Y-50215000D02*
X131100000Y-48885000D01*
X131100000Y-51485000D02*
X133760000Y-51485000D01*
X133760000Y-51485000D02*
X133760000Y-54085000D01*
X131100000Y-51485000D02*
X131100000Y-54085000D01*
X131100000Y-54085000D02*
X133760000Y-54085000D01*
X78420000Y-49825000D02*
X77220000Y-49825000D01*
X77220000Y-48065000D02*
X78420000Y-48065000D01*
X111085000Y-50885000D02*
X111085000Y-52085000D01*
X109325000Y-52085000D02*
X109325000Y-50885000D01*
X101560000Y-54695000D02*
X101560000Y-55895000D01*
X99800000Y-55895000D02*
X99800000Y-54695000D01*
X127740000Y-118760000D02*
X127740000Y-117560000D01*
X129500000Y-117560000D02*
X129500000Y-118760000D01*
X97115000Y-92795000D02*
X97115000Y-93995000D01*
X95355000Y-93995000D02*
X95355000Y-92795000D01*
X99020000Y-113115000D02*
X99020000Y-114315000D01*
X97260000Y-114315000D02*
X97260000Y-113115000D01*
D12*
X92760000Y-109920000D02*
X92760000Y-109570000D01*
X87010000Y-109920000D02*
X87010000Y-109470000D01*
X87010000Y-102270000D02*
X87010000Y-102720000D01*
X92760000Y-102270000D02*
X92760000Y-102720000D01*
X92760000Y-109920000D02*
X87010000Y-109920000D01*
X92760000Y-102270000D02*
X87010000Y-102270000D01*
X92760000Y-109570000D02*
X94360000Y-109570000D01*
D13*
X72705000Y-56175000D02*
X71505000Y-56175000D01*
X71505000Y-54415000D02*
X72705000Y-54415000D01*
X95235000Y-47875000D02*
X97235000Y-47875000D01*
X97235000Y-50015000D02*
X95235000Y-50015000D01*
X106995000Y-96180000D02*
X105795000Y-96180000D01*
X105795000Y-94420000D02*
X106995000Y-94420000D01*
X66605000Y-52620000D02*
X66605000Y-51620000D01*
X64905000Y-51620000D02*
X64905000Y-52620000D01*
X106815000Y-104325000D02*
X106815000Y-105325000D01*
X108515000Y-105325000D02*
X108515000Y-104325000D01*
X92005000Y-52620000D02*
X92005000Y-51620000D01*
X90305000Y-51620000D02*
X90305000Y-52620000D01*
X135791000Y-91460000D02*
X135791000Y-88980000D01*
X116619000Y-92695000D02*
X116619000Y-87744000D01*
X135790000Y-92695000D02*
X135790000Y-87744000D01*
X135790000Y-87744000D02*
X116619000Y-87744000D01*
X135790000Y-92695000D02*
X116619000Y-92695000D01*
X135791000Y-111780000D02*
X135791000Y-109300000D01*
X116619000Y-113015000D02*
X116619000Y-108064000D01*
X135790000Y-113015000D02*
X135790000Y-108064000D01*
X135790000Y-108064000D02*
X116619000Y-108064000D01*
X135790000Y-113015000D02*
X116619000Y-113015000D01*
X115150000Y-53810000D02*
X114150000Y-53810000D01*
X114150000Y-55510000D02*
X115150000Y-55510000D01*
X115150000Y-56350000D02*
X114150000Y-56350000D01*
X114150000Y-58050000D02*
X115150000Y-58050000D01*
X129390000Y-56780000D02*
X130390000Y-56780000D01*
X130390000Y-55080000D02*
X129390000Y-55080000D01*
X90385000Y-112230000D02*
X89385000Y-112230000D01*
X89385000Y-113930000D02*
X90385000Y-113930000D01*
X97085000Y-88180000D02*
X97085000Y-87180000D01*
X95385000Y-87180000D02*
X95385000Y-88180000D01*
X106895000Y-91910000D02*
X105895000Y-91910000D01*
X105895000Y-93610000D02*
X106895000Y-93610000D01*
X63790000Y-123935000D02*
X66450000Y-123935000D01*
X63790000Y-113715000D02*
X63790000Y-123935000D01*
X66450000Y-113715000D02*
X66450000Y-123935000D01*
X63790000Y-113715000D02*
X66450000Y-113715000D01*
X63790000Y-112445000D02*
X63790000Y-111115000D01*
X63790000Y-111115000D02*
X65120000Y-111115000D01*
X123505000Y-98085000D02*
X122305000Y-98085000D01*
X122305000Y-96325000D02*
X123505000Y-96325000D01*
X123505000Y-104435000D02*
X122305000Y-104435000D01*
X122305000Y-102675000D02*
X123505000Y-102675000D01*
X80935000Y-85080000D02*
X82265000Y-85080000D01*
X80935000Y-86410000D02*
X80935000Y-85080000D01*
X80935000Y-87680000D02*
X83595000Y-87680000D01*
X83595000Y-87680000D02*
X83595000Y-90280000D01*
X80935000Y-87680000D02*
X80935000Y-90280000D01*
X80935000Y-90280000D02*
X83595000Y-90280000D01*
X89825000Y-85080000D02*
X91155000Y-85080000D01*
X89825000Y-86410000D02*
X89825000Y-85080000D01*
X89825000Y-87680000D02*
X92485000Y-87680000D01*
X92485000Y-87680000D02*
X92485000Y-90280000D01*
X89825000Y-87680000D02*
X89825000Y-90280000D01*
X89825000Y-90280000D02*
X92485000Y-90280000D01*
X110145000Y-98535000D02*
X110145000Y-97205000D01*
X111475000Y-98535000D02*
X110145000Y-98535000D01*
X112745000Y-98535000D02*
X112745000Y-95875000D01*
X112745000Y-95875000D02*
X115345000Y-95875000D01*
X112745000Y-98535000D02*
X115345000Y-98535000D01*
X115345000Y-98535000D02*
X115345000Y-95875000D01*
X110145000Y-104885000D02*
X110145000Y-103555000D01*
X111475000Y-104885000D02*
X110145000Y-104885000D01*
X112745000Y-104885000D02*
X112745000Y-102225000D01*
X112745000Y-102225000D02*
X115345000Y-102225000D01*
X112745000Y-104885000D02*
X115345000Y-104885000D01*
X115345000Y-104885000D02*
X115345000Y-102225000D01*
X61250000Y-49520000D02*
X62580000Y-49520000D01*
X61250000Y-50850000D02*
X61250000Y-49520000D01*
X61250000Y-52120000D02*
X63910000Y-52120000D01*
X63910000Y-52120000D02*
X63910000Y-54720000D01*
X61250000Y-52120000D02*
X61250000Y-54720000D01*
X61250000Y-54720000D02*
X63910000Y-54720000D01*
X86650000Y-49520000D02*
X87980000Y-49520000D01*
X86650000Y-50850000D02*
X86650000Y-49520000D01*
X86650000Y-52120000D02*
X89310000Y-52120000D01*
X89310000Y-52120000D02*
X89310000Y-54720000D01*
X86650000Y-52120000D02*
X86650000Y-54720000D01*
X86650000Y-54720000D02*
X89310000Y-54720000D01*
D12*
X131530000Y-82060000D02*
X131530000Y-79710000D01*
X133330000Y-82060000D02*
X133330000Y-79760000D01*
X133330000Y-80160000D02*
X133330000Y-80110000D01*
X131530000Y-82060000D02*
X133330000Y-82060000D01*
X125180000Y-125240000D02*
X125180000Y-122890000D01*
X126980000Y-125240000D02*
X126980000Y-122940000D01*
X126980000Y-123340000D02*
X126980000Y-123290000D01*
X125180000Y-125240000D02*
X126980000Y-125240000D01*
D13*
X130770000Y-79460000D02*
X130770000Y-80660000D01*
X129010000Y-80660000D02*
X129010000Y-79460000D01*
X125200000Y-118760000D02*
X125200000Y-117560000D01*
X126960000Y-117560000D02*
X126960000Y-118760000D01*
D12*
X116290000Y-125240000D02*
X116290000Y-122890000D01*
X118090000Y-125240000D02*
X118090000Y-122940000D01*
X118090000Y-123340000D02*
X118090000Y-123290000D01*
X116290000Y-125240000D02*
X118090000Y-125240000D01*
X118830000Y-125240000D02*
X120630000Y-125240000D01*
X120630000Y-123340000D02*
X120630000Y-123290000D01*
X120630000Y-125240000D02*
X120630000Y-122940000D01*
X118830000Y-125240000D02*
X118830000Y-122890000D01*
D13*
X112780000Y-118550000D02*
X113980000Y-118550000D01*
X113980000Y-120310000D02*
X112780000Y-120310000D01*
X113980000Y-117770000D02*
X112780000Y-117770000D01*
X112780000Y-116010000D02*
X113980000Y-116010000D01*
X122870000Y-80940000D02*
X121670000Y-80940000D01*
X121670000Y-79180000D02*
X122870000Y-79180000D01*
X116590000Y-79180000D02*
X117790000Y-79180000D01*
X117790000Y-80940000D02*
X116590000Y-80940000D01*
X99350000Y-90280000D02*
X102010000Y-90280000D01*
X99350000Y-87680000D02*
X99350000Y-90280000D01*
X102010000Y-87680000D02*
X102010000Y-90280000D01*
X99350000Y-87680000D02*
X102010000Y-87680000D01*
X99350000Y-86410000D02*
X99350000Y-85080000D01*
X99350000Y-85080000D02*
X100680000Y-85080000D01*
D12*
X97330476Y-61732380D02*
X97663809Y-62732380D01*
X97997142Y-61732380D01*
X98854285Y-62732380D02*
X98282857Y-62732380D01*
X98568571Y-62732380D02*
X98568571Y-61732380D01*
X98473333Y-61875238D01*
X98378095Y-61970476D01*
X98282857Y-62018095D01*
D14*
X115430142Y-62419095D02*
X115430142Y-60870904D01*
X78315904Y-61790142D02*
X79864095Y-61790142D01*
X79090000Y-62564238D02*
X79090000Y-61016047D01*
D12*
X102418333Y-118517142D02*
X102370714Y-118564761D01*
X102227857Y-118612380D01*
X102132619Y-118612380D01*
X101989761Y-118564761D01*
X101894523Y-118469523D01*
X101846904Y-118374285D01*
X101799285Y-118183809D01*
X101799285Y-118040952D01*
X101846904Y-117850476D01*
X101894523Y-117755238D01*
X101989761Y-117660000D01*
X102132619Y-117612380D01*
X102227857Y-117612380D01*
X102370714Y-117660000D01*
X102418333Y-117707619D01*
X102751666Y-117612380D02*
X103418333Y-117612380D01*
X102989761Y-118612380D01*
X100553095Y-98562380D02*
X100553095Y-99371904D01*
X100600714Y-99467142D01*
X100648333Y-99514761D01*
X100743571Y-99562380D01*
X100934047Y-99562380D01*
X101029285Y-99514761D01*
X101076904Y-99467142D01*
X101124523Y-99371904D01*
X101124523Y-98562380D01*
X101505476Y-98562380D02*
X102172142Y-98562380D01*
X101743571Y-99562380D01*
D15*
D12*
X113888095Y-48397380D02*
X113888095Y-49206904D01*
X113935714Y-49302142D01*
X113983333Y-49349761D01*
X114078571Y-49397380D01*
X114269047Y-49397380D01*
X114364285Y-49349761D01*
X114411904Y-49302142D01*
X114459523Y-49206904D01*
X114459523Y-48397380D01*
X114888095Y-48492619D02*
X114935714Y-48445000D01*
X115030952Y-48397380D01*
X115269047Y-48397380D01*
X115364285Y-48445000D01*
X115411904Y-48492619D01*
X115459523Y-48587857D01*
X115459523Y-48683095D01*
X115411904Y-48825952D01*
X114840476Y-49397380D01*
X115459523Y-49397380D01*
X95473095Y-50937380D02*
X96044523Y-50937380D01*
X95758809Y-51937380D02*
X95758809Y-50937380D01*
X96901666Y-51937380D02*
X96330238Y-51937380D01*
X96615952Y-51937380D02*
X96615952Y-50937380D01*
X96520714Y-51080238D01*
X96425476Y-51175476D01*
X96330238Y-51223095D01*
X71366904Y-47492380D02*
X71366904Y-46492380D01*
X71747857Y-46492380D01*
X71843095Y-46540000D01*
X71890714Y-46587619D01*
X71938333Y-46682857D01*
X71938333Y-46825714D01*
X71890714Y-46920952D01*
X71843095Y-46968571D01*
X71747857Y-47016190D01*
X71366904Y-47016190D01*
X72890714Y-47492380D02*
X72319285Y-47492380D01*
X72605000Y-47492380D02*
X72605000Y-46492380D01*
X72509761Y-46635238D01*
X72414523Y-46730476D01*
X72319285Y-46778095D01*
X129786904Y-123692380D02*
X129786904Y-122692380D01*
X130167857Y-122692380D01*
X130263095Y-122740000D01*
X130310714Y-122787619D01*
X130358333Y-122882857D01*
X130358333Y-123025714D01*
X130310714Y-123120952D01*
X130263095Y-123168571D01*
X130167857Y-123216190D01*
X129786904Y-123216190D01*
X131215476Y-123025714D02*
X131215476Y-123692380D01*
X130977380Y-122644761D02*
X130739285Y-123359047D01*
X131358333Y-123359047D01*
D15*
D12*
X120873095Y-47127380D02*
X120873095Y-47936904D01*
X120920714Y-48032142D01*
X120968333Y-48079761D01*
X121063571Y-48127380D01*
X121254047Y-48127380D01*
X121349285Y-48079761D01*
X121396904Y-48032142D01*
X121444523Y-47936904D01*
X121444523Y-47127380D01*
X121825476Y-47127380D02*
X122444523Y-47127380D01*
X122111190Y-47508333D01*
X122254047Y-47508333D01*
X122349285Y-47555952D01*
X122396904Y-47603571D01*
X122444523Y-47698809D01*
X122444523Y-47936904D01*
X122396904Y-48032142D01*
X122349285Y-48079761D01*
X122254047Y-48127380D01*
X121968333Y-48127380D01*
X121873095Y-48079761D01*
X121825476Y-48032142D01*
X75153095Y-51572380D02*
X75153095Y-52381904D01*
X75200714Y-52477142D01*
X75248333Y-52524761D01*
X75343571Y-52572380D01*
X75534047Y-52572380D01*
X75629285Y-52524761D01*
X75676904Y-52477142D01*
X75724523Y-52381904D01*
X75724523Y-51572380D01*
X76724523Y-52572380D02*
X76153095Y-52572380D01*
X76438809Y-52572380D02*
X76438809Y-51572380D01*
X76343571Y-51715238D01*
X76248333Y-51810476D01*
X76153095Y-51858095D01*
X104363095Y-45857380D02*
X104934523Y-45857380D01*
X104648809Y-46857380D02*
X104648809Y-45857380D01*
X105172619Y-45857380D02*
X105791666Y-45857380D01*
X105458333Y-46238333D01*
X105601190Y-46238333D01*
X105696428Y-46285952D01*
X105744047Y-46333571D01*
X105791666Y-46428809D01*
X105791666Y-46666904D01*
X105744047Y-46762142D01*
X105696428Y-46809761D01*
X105601190Y-46857380D01*
X105315476Y-46857380D01*
X105220238Y-46809761D01*
X105172619Y-46762142D01*
X104363095Y-50937380D02*
X104934523Y-50937380D01*
X104648809Y-51937380D02*
X104648809Y-50937380D01*
X105220238Y-51032619D02*
X105267857Y-50985000D01*
X105363095Y-50937380D01*
X105601190Y-50937380D01*
X105696428Y-50985000D01*
X105744047Y-51032619D01*
X105791666Y-51127857D01*
X105791666Y-51223095D01*
X105744047Y-51365952D01*
X105172619Y-51937380D01*
X105791666Y-51937380D01*
X80090238Y-54112380D02*
X80328333Y-55112380D01*
X80518809Y-54398095D01*
X80709285Y-55112380D01*
X80947380Y-54112380D01*
X81233095Y-54112380D02*
X81852142Y-54112380D01*
X81518809Y-54493333D01*
X81661666Y-54493333D01*
X81756904Y-54540952D01*
X81804523Y-54588571D01*
X81852142Y-54683809D01*
X81852142Y-54921904D01*
X81804523Y-55017142D01*
X81756904Y-55064761D01*
X81661666Y-55112380D01*
X81375952Y-55112380D01*
X81280714Y-55064761D01*
X81233095Y-55017142D01*
X126445238Y-47127380D02*
X126683333Y-48127380D01*
X126873809Y-47413095D01*
X127064285Y-48127380D01*
X127302380Y-47127380D01*
X128111904Y-47460714D02*
X128111904Y-48127380D01*
X127873809Y-47079761D02*
X127635714Y-47794047D01*
X128254761Y-47794047D01*
X131525238Y-47127380D02*
X131763333Y-48127380D01*
X131953809Y-47413095D01*
X132144285Y-48127380D01*
X132382380Y-47127380D01*
X133239523Y-47127380D02*
X132763333Y-47127380D01*
X132715714Y-47603571D01*
X132763333Y-47555952D01*
X132858571Y-47508333D01*
X133096666Y-47508333D01*
X133191904Y-47555952D01*
X133239523Y-47603571D01*
X133287142Y-47698809D01*
X133287142Y-47936904D01*
X133239523Y-48032142D01*
X133191904Y-48079761D01*
X133096666Y-48127380D01*
X132858571Y-48127380D01*
X132763333Y-48079761D01*
X132715714Y-48032142D01*
X77653333Y-47492380D02*
X77320000Y-47016190D01*
X77081904Y-47492380D02*
X77081904Y-46492380D01*
X77462857Y-46492380D01*
X77558095Y-46540000D01*
X77605714Y-46587619D01*
X77653333Y-46682857D01*
X77653333Y-46825714D01*
X77605714Y-46920952D01*
X77558095Y-46968571D01*
X77462857Y-47016190D01*
X77081904Y-47016190D01*
X78605714Y-47492380D02*
X78034285Y-47492380D01*
X78320000Y-47492380D02*
X78320000Y-46492380D01*
X78224761Y-46635238D01*
X78129523Y-46730476D01*
X78034285Y-46778095D01*
X110038333Y-48762380D02*
X109705000Y-48286190D01*
X109466904Y-48762380D02*
X109466904Y-47762380D01*
X109847857Y-47762380D01*
X109943095Y-47810000D01*
X109990714Y-47857619D01*
X110038333Y-47952857D01*
X110038333Y-48095714D01*
X109990714Y-48190952D01*
X109943095Y-48238571D01*
X109847857Y-48286190D01*
X109466904Y-48286190D01*
X110371666Y-47762380D02*
X110990714Y-47762380D01*
X110657380Y-48143333D01*
X110800238Y-48143333D01*
X110895476Y-48190952D01*
X110943095Y-48238571D01*
X110990714Y-48333809D01*
X110990714Y-48571904D01*
X110943095Y-48667142D01*
X110895476Y-48714761D01*
X110800238Y-48762380D01*
X110514523Y-48762380D01*
X110419285Y-48714761D01*
X110371666Y-48667142D01*
X100513333Y-52572380D02*
X100180000Y-52096190D01*
X99941904Y-52572380D02*
X99941904Y-51572380D01*
X100322857Y-51572380D01*
X100418095Y-51620000D01*
X100465714Y-51667619D01*
X100513333Y-51762857D01*
X100513333Y-51905714D01*
X100465714Y-52000952D01*
X100418095Y-52048571D01*
X100322857Y-52096190D01*
X99941904Y-52096190D01*
X101370476Y-51905714D02*
X101370476Y-52572380D01*
X101132380Y-51524761D02*
X100894285Y-52239047D01*
X101513333Y-52239047D01*
X130358333Y-118612380D02*
X130025000Y-118136190D01*
X129786904Y-118612380D02*
X129786904Y-117612380D01*
X130167857Y-117612380D01*
X130263095Y-117660000D01*
X130310714Y-117707619D01*
X130358333Y-117802857D01*
X130358333Y-117945714D01*
X130310714Y-118040952D01*
X130263095Y-118088571D01*
X130167857Y-118136190D01*
X129786904Y-118136190D01*
X131215476Y-117612380D02*
X131025000Y-117612380D01*
X130929761Y-117660000D01*
X130882142Y-117707619D01*
X130786904Y-117850476D01*
X130739285Y-118040952D01*
X130739285Y-118421904D01*
X130786904Y-118517142D01*
X130834523Y-118564761D01*
X130929761Y-118612380D01*
X131120238Y-118612380D01*
X131215476Y-118564761D01*
X131263095Y-118517142D01*
X131310714Y-118421904D01*
X131310714Y-118183809D01*
X131263095Y-118088571D01*
X131215476Y-118040952D01*
X131120238Y-117993333D01*
X130929761Y-117993333D01*
X130834523Y-118040952D01*
X130786904Y-118088571D01*
X130739285Y-118183809D01*
X97973333Y-93847380D02*
X97640000Y-93371190D01*
X97401904Y-93847380D02*
X97401904Y-92847380D01*
X97782857Y-92847380D01*
X97878095Y-92895000D01*
X97925714Y-92942619D01*
X97973333Y-93037857D01*
X97973333Y-93180714D01*
X97925714Y-93275952D01*
X97878095Y-93323571D01*
X97782857Y-93371190D01*
X97401904Y-93371190D01*
X98306666Y-92847380D02*
X98973333Y-92847380D01*
X98544761Y-93847380D01*
X100037142Y-114167380D02*
X99703809Y-113691190D01*
X99465714Y-114167380D02*
X99465714Y-113167380D01*
X99846666Y-113167380D01*
X99941904Y-113215000D01*
X99989523Y-113262619D01*
X100037142Y-113357857D01*
X100037142Y-113500714D01*
X99989523Y-113595952D01*
X99941904Y-113643571D01*
X99846666Y-113691190D01*
X99465714Y-113691190D01*
X100989523Y-114167380D02*
X100418095Y-114167380D01*
X100703809Y-114167380D02*
X100703809Y-113167380D01*
X100608571Y-113310238D01*
X100513333Y-113405476D01*
X100418095Y-113453095D01*
X101608571Y-113167380D02*
X101703809Y-113167380D01*
X101799047Y-113215000D01*
X101846666Y-113262619D01*
X101894285Y-113357857D01*
X101941904Y-113548333D01*
X101941904Y-113786428D01*
X101894285Y-113976904D01*
X101846666Y-114072142D01*
X101799047Y-114119761D01*
X101703809Y-114167380D01*
X101608571Y-114167380D01*
X101513333Y-114119761D01*
X101465714Y-114072142D01*
X101418095Y-113976904D01*
X101370476Y-113786428D01*
X101370476Y-113548333D01*
X101418095Y-113357857D01*
X101465714Y-113262619D01*
X101513333Y-113215000D01*
X101608571Y-113167380D01*
X92933095Y-110297380D02*
X92933095Y-111106904D01*
X92980714Y-111202142D01*
X93028333Y-111249761D01*
X93123571Y-111297380D01*
X93314047Y-111297380D01*
X93409285Y-111249761D01*
X93456904Y-111202142D01*
X93504523Y-111106904D01*
X93504523Y-110297380D01*
X94456904Y-110297380D02*
X93980714Y-110297380D01*
X93933095Y-110773571D01*
X93980714Y-110725952D01*
X94075952Y-110678333D01*
X94314047Y-110678333D01*
X94409285Y-110725952D01*
X94456904Y-110773571D01*
X94504523Y-110868809D01*
X94504523Y-111106904D01*
X94456904Y-111202142D01*
X94409285Y-111249761D01*
X94314047Y-111297380D01*
X94075952Y-111297380D01*
X93980714Y-111249761D01*
X93933095Y-111202142D01*
X71938333Y-57652380D02*
X71605000Y-57176190D01*
X71366904Y-57652380D02*
X71366904Y-56652380D01*
X71747857Y-56652380D01*
X71843095Y-56700000D01*
X71890714Y-56747619D01*
X71938333Y-56842857D01*
X71938333Y-56985714D01*
X71890714Y-57080952D01*
X71843095Y-57128571D01*
X71747857Y-57176190D01*
X71366904Y-57176190D01*
X72319285Y-56747619D02*
X72366904Y-56700000D01*
X72462142Y-56652380D01*
X72700238Y-56652380D01*
X72795476Y-56700000D01*
X72843095Y-56747619D01*
X72890714Y-56842857D01*
X72890714Y-56938095D01*
X72843095Y-57080952D01*
X72271666Y-57652380D01*
X72890714Y-57652380D01*
X95901666Y-46968571D02*
X95568333Y-46968571D01*
X95568333Y-47492380D02*
X95568333Y-46492380D01*
X96044523Y-46492380D01*
X96949285Y-47492380D02*
X96377857Y-47492380D01*
X96663571Y-47492380D02*
X96663571Y-46492380D01*
X96568333Y-46635238D01*
X96473095Y-46730476D01*
X96377857Y-46778095D01*
X105752142Y-97657380D02*
X105418809Y-97181190D01*
X105180714Y-97657380D02*
X105180714Y-96657380D01*
X105561666Y-96657380D01*
X105656904Y-96705000D01*
X105704523Y-96752619D01*
X105752142Y-96847857D01*
X105752142Y-96990714D01*
X105704523Y-97085952D01*
X105656904Y-97133571D01*
X105561666Y-97181190D01*
X105180714Y-97181190D01*
X106704523Y-97657380D02*
X106133095Y-97657380D01*
X106418809Y-97657380D02*
X106418809Y-96657380D01*
X106323571Y-96800238D01*
X106228333Y-96895476D01*
X106133095Y-96943095D01*
X107085476Y-96752619D02*
X107133095Y-96705000D01*
X107228333Y-96657380D01*
X107466428Y-96657380D01*
X107561666Y-96705000D01*
X107609285Y-96752619D01*
X107656904Y-96847857D01*
X107656904Y-96943095D01*
X107609285Y-97085952D01*
X107037857Y-97657380D01*
X107656904Y-97657380D01*
X65588333Y-49302142D02*
X65540714Y-49349761D01*
X65397857Y-49397380D01*
X65302619Y-49397380D01*
X65159761Y-49349761D01*
X65064523Y-49254523D01*
X65016904Y-49159285D01*
X64969285Y-48968809D01*
X64969285Y-48825952D01*
X65016904Y-48635476D01*
X65064523Y-48540238D01*
X65159761Y-48445000D01*
X65302619Y-48397380D01*
X65397857Y-48397380D01*
X65540714Y-48445000D01*
X65588333Y-48492619D01*
X66540714Y-49397380D02*
X65969285Y-49397380D01*
X66255000Y-49397380D02*
X66255000Y-48397380D01*
X66159761Y-48540238D01*
X66064523Y-48635476D01*
X65969285Y-48683095D01*
X107022142Y-108357142D02*
X106974523Y-108404761D01*
X106831666Y-108452380D01*
X106736428Y-108452380D01*
X106593571Y-108404761D01*
X106498333Y-108309523D01*
X106450714Y-108214285D01*
X106403095Y-108023809D01*
X106403095Y-107880952D01*
X106450714Y-107690476D01*
X106498333Y-107595238D01*
X106593571Y-107500000D01*
X106736428Y-107452380D01*
X106831666Y-107452380D01*
X106974523Y-107500000D01*
X107022142Y-107547619D01*
X107974523Y-108452380D02*
X107403095Y-108452380D01*
X107688809Y-108452380D02*
X107688809Y-107452380D01*
X107593571Y-107595238D01*
X107498333Y-107690476D01*
X107403095Y-107738095D01*
X108593571Y-107452380D02*
X108688809Y-107452380D01*
X108784047Y-107500000D01*
X108831666Y-107547619D01*
X108879285Y-107642857D01*
X108926904Y-107833333D01*
X108926904Y-108071428D01*
X108879285Y-108261904D01*
X108831666Y-108357142D01*
X108784047Y-108404761D01*
X108688809Y-108452380D01*
X108593571Y-108452380D01*
X108498333Y-108404761D01*
X108450714Y-108357142D01*
X108403095Y-108261904D01*
X108355476Y-108071428D01*
X108355476Y-107833333D01*
X108403095Y-107642857D01*
X108450714Y-107547619D01*
X108498333Y-107500000D01*
X108593571Y-107452380D01*
X90988333Y-49302142D02*
X90940714Y-49349761D01*
X90797857Y-49397380D01*
X90702619Y-49397380D01*
X90559761Y-49349761D01*
X90464523Y-49254523D01*
X90416904Y-49159285D01*
X90369285Y-48968809D01*
X90369285Y-48825952D01*
X90416904Y-48635476D01*
X90464523Y-48540238D01*
X90559761Y-48445000D01*
X90702619Y-48397380D01*
X90797857Y-48397380D01*
X90940714Y-48445000D01*
X90988333Y-48492619D01*
X91369285Y-48492619D02*
X91416904Y-48445000D01*
X91512142Y-48397380D01*
X91750238Y-48397380D01*
X91845476Y-48445000D01*
X91893095Y-48492619D01*
X91940714Y-48587857D01*
X91940714Y-48683095D01*
X91893095Y-48825952D01*
X91321666Y-49397380D01*
X91940714Y-49397380D01*
X115737380Y-90862857D02*
X115261190Y-91196190D01*
X115737380Y-91434285D02*
X114737380Y-91434285D01*
X114737380Y-91053333D01*
X114785000Y-90958095D01*
X114832619Y-90910476D01*
X114927857Y-90862857D01*
X115070714Y-90862857D01*
X115165952Y-90910476D01*
X115213571Y-90958095D01*
X115261190Y-91053333D01*
X115261190Y-91434285D01*
X115737380Y-89910476D02*
X115737380Y-90481904D01*
X115737380Y-90196190D02*
X114737380Y-90196190D01*
X114880238Y-90291428D01*
X114975476Y-90386666D01*
X115023095Y-90481904D01*
X115737380Y-88958095D02*
X115737380Y-89529523D01*
X115737380Y-89243809D02*
X114737380Y-89243809D01*
X114880238Y-89339047D01*
X114975476Y-89434285D01*
X115023095Y-89529523D01*
X115737380Y-111182857D02*
X115261190Y-111516190D01*
X115737380Y-111754285D02*
X114737380Y-111754285D01*
X114737380Y-111373333D01*
X114785000Y-111278095D01*
X114832619Y-111230476D01*
X114927857Y-111182857D01*
X115070714Y-111182857D01*
X115165952Y-111230476D01*
X115213571Y-111278095D01*
X115261190Y-111373333D01*
X115261190Y-111754285D01*
X115737380Y-110230476D02*
X115737380Y-110801904D01*
X115737380Y-110516190D02*
X114737380Y-110516190D01*
X114880238Y-110611428D01*
X114975476Y-110706666D01*
X115023095Y-110801904D01*
X114737380Y-109897142D02*
X114737380Y-109278095D01*
X115118333Y-109611428D01*
X115118333Y-109468571D01*
X115165952Y-109373333D01*
X115213571Y-109325714D01*
X115308809Y-109278095D01*
X115546904Y-109278095D01*
X115642142Y-109325714D01*
X115689761Y-109373333D01*
X115737380Y-109468571D01*
X115737380Y-109754285D01*
X115689761Y-109849523D01*
X115642142Y-109897142D01*
X117658333Y-55017142D02*
X117610714Y-55064761D01*
X117467857Y-55112380D01*
X117372619Y-55112380D01*
X117229761Y-55064761D01*
X117134523Y-54969523D01*
X117086904Y-54874285D01*
X117039285Y-54683809D01*
X117039285Y-54540952D01*
X117086904Y-54350476D01*
X117134523Y-54255238D01*
X117229761Y-54160000D01*
X117372619Y-54112380D01*
X117467857Y-54112380D01*
X117610714Y-54160000D01*
X117658333Y-54207619D01*
X117991666Y-54112380D02*
X118610714Y-54112380D01*
X118277380Y-54493333D01*
X118420238Y-54493333D01*
X118515476Y-54540952D01*
X118563095Y-54588571D01*
X118610714Y-54683809D01*
X118610714Y-54921904D01*
X118563095Y-55017142D01*
X118515476Y-55064761D01*
X118420238Y-55112380D01*
X118134523Y-55112380D01*
X118039285Y-55064761D01*
X117991666Y-55017142D01*
X117658333Y-57557142D02*
X117610714Y-57604761D01*
X117467857Y-57652380D01*
X117372619Y-57652380D01*
X117229761Y-57604761D01*
X117134523Y-57509523D01*
X117086904Y-57414285D01*
X117039285Y-57223809D01*
X117039285Y-57080952D01*
X117086904Y-56890476D01*
X117134523Y-56795238D01*
X117229761Y-56700000D01*
X117372619Y-56652380D01*
X117467857Y-56652380D01*
X117610714Y-56700000D01*
X117658333Y-56747619D01*
X118515476Y-56985714D02*
X118515476Y-57652380D01*
X118277380Y-56604761D02*
X118039285Y-57319047D01*
X118658333Y-57319047D01*
X129723333Y-58192142D02*
X129675714Y-58239761D01*
X129532857Y-58287380D01*
X129437619Y-58287380D01*
X129294761Y-58239761D01*
X129199523Y-58144523D01*
X129151904Y-58049285D01*
X129104285Y-57858809D01*
X129104285Y-57715952D01*
X129151904Y-57525476D01*
X129199523Y-57430238D01*
X129294761Y-57335000D01*
X129437619Y-57287380D01*
X129532857Y-57287380D01*
X129675714Y-57335000D01*
X129723333Y-57382619D01*
X130628095Y-57287380D02*
X130151904Y-57287380D01*
X130104285Y-57763571D01*
X130151904Y-57715952D01*
X130247142Y-57668333D01*
X130485238Y-57668333D01*
X130580476Y-57715952D01*
X130628095Y-57763571D01*
X130675714Y-57858809D01*
X130675714Y-58096904D01*
X130628095Y-58192142D01*
X130580476Y-58239761D01*
X130485238Y-58287380D01*
X130247142Y-58287380D01*
X130151904Y-58239761D01*
X130104285Y-58192142D01*
X89718333Y-111687142D02*
X89670714Y-111734761D01*
X89527857Y-111782380D01*
X89432619Y-111782380D01*
X89289761Y-111734761D01*
X89194523Y-111639523D01*
X89146904Y-111544285D01*
X89099285Y-111353809D01*
X89099285Y-111210952D01*
X89146904Y-111020476D01*
X89194523Y-110925238D01*
X89289761Y-110830000D01*
X89432619Y-110782380D01*
X89527857Y-110782380D01*
X89670714Y-110830000D01*
X89718333Y-110877619D01*
X90575476Y-110782380D02*
X90385000Y-110782380D01*
X90289761Y-110830000D01*
X90242142Y-110877619D01*
X90146904Y-111020476D01*
X90099285Y-111210952D01*
X90099285Y-111591904D01*
X90146904Y-111687142D01*
X90194523Y-111734761D01*
X90289761Y-111782380D01*
X90480238Y-111782380D01*
X90575476Y-111734761D01*
X90623095Y-111687142D01*
X90670714Y-111591904D01*
X90670714Y-111353809D01*
X90623095Y-111258571D01*
X90575476Y-111210952D01*
X90480238Y-111163333D01*
X90289761Y-111163333D01*
X90194523Y-111210952D01*
X90146904Y-111258571D01*
X90099285Y-111353809D01*
X97973333Y-88037142D02*
X97925714Y-88084761D01*
X97782857Y-88132380D01*
X97687619Y-88132380D01*
X97544761Y-88084761D01*
X97449523Y-87989523D01*
X97401904Y-87894285D01*
X97354285Y-87703809D01*
X97354285Y-87560952D01*
X97401904Y-87370476D01*
X97449523Y-87275238D01*
X97544761Y-87180000D01*
X97687619Y-87132380D01*
X97782857Y-87132380D01*
X97925714Y-87180000D01*
X97973333Y-87227619D01*
X98544761Y-87560952D02*
X98449523Y-87513333D01*
X98401904Y-87465714D01*
X98354285Y-87370476D01*
X98354285Y-87322857D01*
X98401904Y-87227619D01*
X98449523Y-87180000D01*
X98544761Y-87132380D01*
X98735238Y-87132380D01*
X98830476Y-87180000D01*
X98878095Y-87227619D01*
X98925714Y-87322857D01*
X98925714Y-87370476D01*
X98878095Y-87465714D01*
X98830476Y-87513333D01*
X98735238Y-87560952D01*
X98544761Y-87560952D01*
X98449523Y-87608571D01*
X98401904Y-87656190D01*
X98354285Y-87751428D01*
X98354285Y-87941904D01*
X98401904Y-88037142D01*
X98449523Y-88084761D01*
X98544761Y-88132380D01*
X98735238Y-88132380D01*
X98830476Y-88084761D01*
X98878095Y-88037142D01*
X98925714Y-87941904D01*
X98925714Y-87751428D01*
X98878095Y-87656190D01*
X98830476Y-87608571D01*
X98735238Y-87560952D01*
X106228333Y-91212142D02*
X106180714Y-91259761D01*
X106037857Y-91307380D01*
X105942619Y-91307380D01*
X105799761Y-91259761D01*
X105704523Y-91164523D01*
X105656904Y-91069285D01*
X105609285Y-90878809D01*
X105609285Y-90735952D01*
X105656904Y-90545476D01*
X105704523Y-90450238D01*
X105799761Y-90355000D01*
X105942619Y-90307380D01*
X106037857Y-90307380D01*
X106180714Y-90355000D01*
X106228333Y-90402619D01*
X106704523Y-91307380D02*
X106895000Y-91307380D01*
X106990238Y-91259761D01*
X107037857Y-91212142D01*
X107133095Y-91069285D01*
X107180714Y-90878809D01*
X107180714Y-90497857D01*
X107133095Y-90402619D01*
X107085476Y-90355000D01*
X106990238Y-90307380D01*
X106799761Y-90307380D01*
X106704523Y-90355000D01*
X106656904Y-90402619D01*
X106609285Y-90497857D01*
X106609285Y-90735952D01*
X106656904Y-90831190D01*
X106704523Y-90878809D01*
X106799761Y-90926428D01*
X106990238Y-90926428D01*
X107085476Y-90878809D01*
X107133095Y-90831190D01*
X107180714Y-90735952D01*
X64310476Y-109357380D02*
X64977142Y-110357380D01*
X64977142Y-109357380D02*
X64310476Y-110357380D01*
X65310476Y-109452619D02*
X65358095Y-109405000D01*
X65453333Y-109357380D01*
X65691428Y-109357380D01*
X65786666Y-109405000D01*
X65834285Y-109452619D01*
X65881904Y-109547857D01*
X65881904Y-109643095D01*
X65834285Y-109785952D01*
X65262857Y-110357380D01*
X65881904Y-110357380D01*
X126532380Y-97847857D02*
X126056190Y-98181190D01*
X126532380Y-98419285D02*
X125532380Y-98419285D01*
X125532380Y-98038333D01*
X125580000Y-97943095D01*
X125627619Y-97895476D01*
X125722857Y-97847857D01*
X125865714Y-97847857D01*
X125960952Y-97895476D01*
X126008571Y-97943095D01*
X126056190Y-98038333D01*
X126056190Y-98419285D01*
X126532380Y-96895476D02*
X126532380Y-97466904D01*
X126532380Y-97181190D02*
X125532380Y-97181190D01*
X125675238Y-97276428D01*
X125770476Y-97371666D01*
X125818095Y-97466904D01*
X125865714Y-96038333D02*
X126532380Y-96038333D01*
X125484761Y-96276428D02*
X126199047Y-96514523D01*
X126199047Y-95895476D01*
X126532380Y-104197857D02*
X126056190Y-104531190D01*
X126532380Y-104769285D02*
X125532380Y-104769285D01*
X125532380Y-104388333D01*
X125580000Y-104293095D01*
X125627619Y-104245476D01*
X125722857Y-104197857D01*
X125865714Y-104197857D01*
X125960952Y-104245476D01*
X126008571Y-104293095D01*
X126056190Y-104388333D01*
X126056190Y-104769285D01*
X126532380Y-103245476D02*
X126532380Y-103816904D01*
X126532380Y-103531190D02*
X125532380Y-103531190D01*
X125675238Y-103626428D01*
X125770476Y-103721666D01*
X125818095Y-103816904D01*
X125532380Y-102340714D02*
X125532380Y-102816904D01*
X126008571Y-102864523D01*
X125960952Y-102816904D01*
X125913333Y-102721666D01*
X125913333Y-102483571D01*
X125960952Y-102388333D01*
X126008571Y-102340714D01*
X126103809Y-102293095D01*
X126341904Y-102293095D01*
X126437142Y-102340714D01*
X126484761Y-102388333D01*
X126532380Y-102483571D01*
X126532380Y-102721666D01*
X126484761Y-102816904D01*
X126437142Y-102864523D01*
X82138095Y-123962380D02*
X82138095Y-124771904D01*
X82185714Y-124867142D01*
X82233333Y-124914761D01*
X82328571Y-124962380D01*
X82519047Y-124962380D01*
X82614285Y-124914761D01*
X82661904Y-124867142D01*
X82709523Y-124771904D01*
X82709523Y-123962380D01*
X83328571Y-124390952D02*
X83233333Y-124343333D01*
X83185714Y-124295714D01*
X83138095Y-124200476D01*
X83138095Y-124152857D01*
X83185714Y-124057619D01*
X83233333Y-124010000D01*
X83328571Y-123962380D01*
X83519047Y-123962380D01*
X83614285Y-124010000D01*
X83661904Y-124057619D01*
X83709523Y-124152857D01*
X83709523Y-124200476D01*
X83661904Y-124295714D01*
X83614285Y-124343333D01*
X83519047Y-124390952D01*
X83328571Y-124390952D01*
X83233333Y-124438571D01*
X83185714Y-124486190D01*
X83138095Y-124581428D01*
X83138095Y-124771904D01*
X83185714Y-124867142D01*
X83233333Y-124914761D01*
X83328571Y-124962380D01*
X83519047Y-124962380D01*
X83614285Y-124914761D01*
X83661904Y-124867142D01*
X83709523Y-124771904D01*
X83709523Y-124581428D01*
X83661904Y-124486190D01*
X83614285Y-124438571D01*
X83519047Y-124390952D01*
X100132380Y-122620714D02*
X101132380Y-122287380D01*
X100132380Y-121954047D01*
X101084761Y-121668333D02*
X101132380Y-121525476D01*
X101132380Y-121287380D01*
X101084761Y-121192142D01*
X101037142Y-121144523D01*
X100941904Y-121096904D01*
X100846666Y-121096904D01*
X100751428Y-121144523D01*
X100703809Y-121192142D01*
X100656190Y-121287380D01*
X100608571Y-121477857D01*
X100560952Y-121573095D01*
X100513333Y-121620714D01*
X100418095Y-121668333D01*
X100322857Y-121668333D01*
X100227619Y-121620714D01*
X100180000Y-121573095D01*
X100132380Y-121477857D01*
X100132380Y-121239761D01*
X100180000Y-121096904D01*
X101084761Y-120715952D02*
X101132380Y-120573095D01*
X101132380Y-120335000D01*
X101084761Y-120239761D01*
X101037142Y-120192142D01*
X100941904Y-120144523D01*
X100846666Y-120144523D01*
X100751428Y-120192142D01*
X100703809Y-120239761D01*
X100656190Y-120335000D01*
X100608571Y-120525476D01*
X100560952Y-120620714D01*
X100513333Y-120668333D01*
X100418095Y-120715952D01*
X100322857Y-120715952D01*
X100227619Y-120668333D01*
X100180000Y-120620714D01*
X100132380Y-120525476D01*
X100132380Y-120287380D01*
X100180000Y-120144523D01*
X97592380Y-122668333D02*
X98592380Y-122335000D01*
X97592380Y-122001666D01*
X98497142Y-121096904D02*
X98544761Y-121144523D01*
X98592380Y-121287380D01*
X98592380Y-121382619D01*
X98544761Y-121525476D01*
X98449523Y-121620714D01*
X98354285Y-121668333D01*
X98163809Y-121715952D01*
X98020952Y-121715952D01*
X97830476Y-121668333D01*
X97735238Y-121620714D01*
X97640000Y-121525476D01*
X97592380Y-121382619D01*
X97592380Y-121287380D01*
X97640000Y-121144523D01*
X97687619Y-121096904D01*
X98497142Y-120096904D02*
X98544761Y-120144523D01*
X98592380Y-120287380D01*
X98592380Y-120382619D01*
X98544761Y-120525476D01*
X98449523Y-120620714D01*
X98354285Y-120668333D01*
X98163809Y-120715952D01*
X98020952Y-120715952D01*
X97830476Y-120668333D01*
X97735238Y-120620714D01*
X97640000Y-120525476D01*
X97592380Y-120382619D01*
X97592380Y-120287380D01*
X97640000Y-120144523D01*
X97687619Y-120096904D01*
X96052380Y-122073095D02*
X95052380Y-122073095D01*
X95052380Y-121835000D01*
X95100000Y-121692142D01*
X95195238Y-121596904D01*
X95290476Y-121549285D01*
X95480952Y-121501666D01*
X95623809Y-121501666D01*
X95814285Y-121549285D01*
X95909523Y-121596904D01*
X96004761Y-121692142D01*
X96052380Y-121835000D01*
X96052380Y-122073095D01*
X95052380Y-120882619D02*
X95052380Y-120787380D01*
X95100000Y-120692142D01*
X95147619Y-120644523D01*
X95242857Y-120596904D01*
X95433333Y-120549285D01*
X95671428Y-120549285D01*
X95861904Y-120596904D01*
X95957142Y-120644523D01*
X96004761Y-120692142D01*
X96052380Y-120787380D01*
X96052380Y-120882619D01*
X96004761Y-120977857D01*
X95957142Y-121025476D01*
X95861904Y-121073095D01*
X95671428Y-121120714D01*
X95433333Y-121120714D01*
X95242857Y-121073095D01*
X95147619Y-121025476D01*
X95100000Y-120977857D01*
X95052380Y-120882619D01*
X93512380Y-122073095D02*
X92512380Y-122073095D01*
X92512380Y-121835000D01*
X92560000Y-121692142D01*
X92655238Y-121596904D01*
X92750476Y-121549285D01*
X92940952Y-121501666D01*
X93083809Y-121501666D01*
X93274285Y-121549285D01*
X93369523Y-121596904D01*
X93464761Y-121692142D01*
X93512380Y-121835000D01*
X93512380Y-122073095D01*
X93512380Y-120549285D02*
X93512380Y-121120714D01*
X93512380Y-120835000D02*
X92512380Y-120835000D01*
X92655238Y-120930238D01*
X92750476Y-121025476D01*
X92798095Y-121120714D01*
X90972380Y-122073095D02*
X89972380Y-122073095D01*
X89972380Y-121835000D01*
X90020000Y-121692142D01*
X90115238Y-121596904D01*
X90210476Y-121549285D01*
X90400952Y-121501666D01*
X90543809Y-121501666D01*
X90734285Y-121549285D01*
X90829523Y-121596904D01*
X90924761Y-121692142D01*
X90972380Y-121835000D01*
X90972380Y-122073095D01*
X90067619Y-121120714D02*
X90020000Y-121073095D01*
X89972380Y-120977857D01*
X89972380Y-120739761D01*
X90020000Y-120644523D01*
X90067619Y-120596904D01*
X90162857Y-120549285D01*
X90258095Y-120549285D01*
X90400952Y-120596904D01*
X90972380Y-121168333D01*
X90972380Y-120549285D01*
X88432380Y-122073095D02*
X87432380Y-122073095D01*
X87432380Y-121835000D01*
X87480000Y-121692142D01*
X87575238Y-121596904D01*
X87670476Y-121549285D01*
X87860952Y-121501666D01*
X88003809Y-121501666D01*
X88194285Y-121549285D01*
X88289523Y-121596904D01*
X88384761Y-121692142D01*
X88432380Y-121835000D01*
X88432380Y-122073095D01*
X87432380Y-121168333D02*
X87432380Y-120549285D01*
X87813333Y-120882619D01*
X87813333Y-120739761D01*
X87860952Y-120644523D01*
X87908571Y-120596904D01*
X88003809Y-120549285D01*
X88241904Y-120549285D01*
X88337142Y-120596904D01*
X88384761Y-120644523D01*
X88432380Y-120739761D01*
X88432380Y-121025476D01*
X88384761Y-121120714D01*
X88337142Y-121168333D01*
X84892380Y-122049285D02*
X85892380Y-121715952D01*
X84892380Y-121382619D01*
X84892380Y-121192142D02*
X84892380Y-120620714D01*
X85892380Y-120906428D02*
X84892380Y-120906428D01*
X81455476Y-83322380D02*
X82122142Y-84322380D01*
X82122142Y-83322380D02*
X81455476Y-84322380D01*
X82931666Y-83655714D02*
X82931666Y-84322380D01*
X82693571Y-83274761D02*
X82455476Y-83989047D01*
X83074523Y-83989047D01*
X90345476Y-83322380D02*
X91012142Y-84322380D01*
X91012142Y-83322380D02*
X90345476Y-84322380D01*
X91821666Y-83322380D02*
X91631190Y-83322380D01*
X91535952Y-83370000D01*
X91488333Y-83417619D01*
X91393095Y-83560476D01*
X91345476Y-83750952D01*
X91345476Y-84131904D01*
X91393095Y-84227142D01*
X91440714Y-84274761D01*
X91535952Y-84322380D01*
X91726428Y-84322380D01*
X91821666Y-84274761D01*
X91869285Y-84227142D01*
X91916904Y-84131904D01*
X91916904Y-83893809D01*
X91869285Y-83798571D01*
X91821666Y-83750952D01*
X91726428Y-83703333D01*
X91535952Y-83703333D01*
X91440714Y-83750952D01*
X91393095Y-83798571D01*
X91345476Y-83893809D01*
D14*
X117642380Y-97943095D02*
X116642380Y-97943095D01*
X116642380Y-97562142D01*
X116690000Y-97466904D01*
X116737619Y-97419285D01*
X116832857Y-97371666D01*
X116975714Y-97371666D01*
X117070952Y-97419285D01*
X117118571Y-97466904D01*
X117166190Y-97562142D01*
X117166190Y-97943095D01*
X116737619Y-96990714D02*
X116690000Y-96943095D01*
X116642380Y-96847857D01*
X116642380Y-96609761D01*
X116690000Y-96514523D01*
X116737619Y-96466904D01*
X116832857Y-96419285D01*
X116928095Y-96419285D01*
X117070952Y-96466904D01*
X117642380Y-97038333D01*
X117642380Y-96419285D01*
X117642380Y-104293095D02*
X116642380Y-104293095D01*
X116642380Y-103912142D01*
X116690000Y-103816904D01*
X116737619Y-103769285D01*
X116832857Y-103721666D01*
X116975714Y-103721666D01*
X117070952Y-103769285D01*
X117118571Y-103816904D01*
X117166190Y-103912142D01*
X117166190Y-104293095D01*
X116642380Y-103388333D02*
X116642380Y-102769285D01*
X117023333Y-103102619D01*
X117023333Y-102959761D01*
X117070952Y-102864523D01*
X117118571Y-102816904D01*
X117213809Y-102769285D01*
X117451904Y-102769285D01*
X117547142Y-102816904D01*
X117594761Y-102864523D01*
X117642380Y-102959761D01*
X117642380Y-103245476D01*
X117594761Y-103340714D01*
X117547142Y-103388333D01*
D12*
X61318095Y-48714761D02*
X61460952Y-48762380D01*
X61699047Y-48762380D01*
X61794285Y-48714761D01*
X61841904Y-48667142D01*
X61889523Y-48571904D01*
X61889523Y-48476666D01*
X61841904Y-48381428D01*
X61794285Y-48333809D01*
X61699047Y-48286190D01*
X61508571Y-48238571D01*
X61413333Y-48190952D01*
X61365714Y-48143333D01*
X61318095Y-48048095D01*
X61318095Y-47952857D01*
X61365714Y-47857619D01*
X61413333Y-47810000D01*
X61508571Y-47762380D01*
X61746666Y-47762380D01*
X61889523Y-47810000D01*
X62889523Y-48667142D02*
X62841904Y-48714761D01*
X62699047Y-48762380D01*
X62603809Y-48762380D01*
X62460952Y-48714761D01*
X62365714Y-48619523D01*
X62318095Y-48524285D01*
X62270476Y-48333809D01*
X62270476Y-48190952D01*
X62318095Y-48000476D01*
X62365714Y-47905238D01*
X62460952Y-47810000D01*
X62603809Y-47762380D01*
X62699047Y-47762380D01*
X62841904Y-47810000D01*
X62889523Y-47857619D01*
X63841904Y-48762380D02*
X63270476Y-48762380D01*
X63556190Y-48762380D02*
X63556190Y-47762380D01*
X63460952Y-47905238D01*
X63365714Y-48000476D01*
X63270476Y-48048095D01*
X87170476Y-47762380D02*
X87503809Y-48762380D01*
X87837142Y-47762380D01*
X88122857Y-47857619D02*
X88170476Y-47810000D01*
X88265714Y-47762380D01*
X88503809Y-47762380D01*
X88599047Y-47810000D01*
X88646666Y-47857619D01*
X88694285Y-47952857D01*
X88694285Y-48048095D01*
X88646666Y-48190952D01*
X88075238Y-48762380D01*
X88694285Y-48762380D01*
X131691904Y-77337380D02*
X131691904Y-76337380D01*
X132072857Y-76337380D01*
X132168095Y-76385000D01*
X132215714Y-76432619D01*
X132263333Y-76527857D01*
X132263333Y-76670714D01*
X132215714Y-76765952D01*
X132168095Y-76813571D01*
X132072857Y-76861190D01*
X131691904Y-76861190D01*
X133168095Y-76337380D02*
X132691904Y-76337380D01*
X132644285Y-76813571D01*
X132691904Y-76765952D01*
X132787142Y-76718333D01*
X133025238Y-76718333D01*
X133120476Y-76765952D01*
X133168095Y-76813571D01*
X133215714Y-76908809D01*
X133215714Y-77146904D01*
X133168095Y-77242142D01*
X133120476Y-77289761D01*
X133025238Y-77337380D01*
X132787142Y-77337380D01*
X132691904Y-77289761D01*
X132644285Y-77242142D01*
X123436904Y-123692380D02*
X123436904Y-122692380D01*
X123817857Y-122692380D01*
X123913095Y-122740000D01*
X123960714Y-122787619D01*
X124008333Y-122882857D01*
X124008333Y-123025714D01*
X123960714Y-123120952D01*
X123913095Y-123168571D01*
X123817857Y-123216190D01*
X123436904Y-123216190D01*
X124865476Y-122692380D02*
X124675000Y-122692380D01*
X124579761Y-122740000D01*
X124532142Y-122787619D01*
X124436904Y-122930476D01*
X124389285Y-123120952D01*
X124389285Y-123501904D01*
X124436904Y-123597142D01*
X124484523Y-123644761D01*
X124579761Y-123692380D01*
X124770238Y-123692380D01*
X124865476Y-123644761D01*
X124913095Y-123597142D01*
X124960714Y-123501904D01*
X124960714Y-123263809D01*
X124913095Y-123168571D01*
X124865476Y-123120952D01*
X124770238Y-123073333D01*
X124579761Y-123073333D01*
X124484523Y-123120952D01*
X124436904Y-123168571D01*
X124389285Y-123263809D01*
X129723333Y-77337380D02*
X129390000Y-76861190D01*
X129151904Y-77337380D02*
X129151904Y-76337380D01*
X129532857Y-76337380D01*
X129628095Y-76385000D01*
X129675714Y-76432619D01*
X129723333Y-76527857D01*
X129723333Y-76670714D01*
X129675714Y-76765952D01*
X129628095Y-76813571D01*
X129532857Y-76861190D01*
X129151904Y-76861190D01*
X130628095Y-76337380D02*
X130151904Y-76337380D01*
X130104285Y-76813571D01*
X130151904Y-76765952D01*
X130247142Y-76718333D01*
X130485238Y-76718333D01*
X130580476Y-76765952D01*
X130628095Y-76813571D01*
X130675714Y-76908809D01*
X130675714Y-77146904D01*
X130628095Y-77242142D01*
X130580476Y-77289761D01*
X130485238Y-77337380D01*
X130247142Y-77337380D01*
X130151904Y-77289761D01*
X130104285Y-77242142D01*
X124008333Y-118612380D02*
X123675000Y-118136190D01*
X123436904Y-118612380D02*
X123436904Y-117612380D01*
X123817857Y-117612380D01*
X123913095Y-117660000D01*
X123960714Y-117707619D01*
X124008333Y-117802857D01*
X124008333Y-117945714D01*
X123960714Y-118040952D01*
X123913095Y-118088571D01*
X123817857Y-118136190D01*
X123436904Y-118136190D01*
X124579761Y-118040952D02*
X124484523Y-117993333D01*
X124436904Y-117945714D01*
X124389285Y-117850476D01*
X124389285Y-117802857D01*
X124436904Y-117707619D01*
X124484523Y-117660000D01*
X124579761Y-117612380D01*
X124770238Y-117612380D01*
X124865476Y-117660000D01*
X124913095Y-117707619D01*
X124960714Y-117802857D01*
X124960714Y-117850476D01*
X124913095Y-117945714D01*
X124865476Y-117993333D01*
X124770238Y-118040952D01*
X124579761Y-118040952D01*
X124484523Y-118088571D01*
X124436904Y-118136190D01*
X124389285Y-118231428D01*
X124389285Y-118421904D01*
X124436904Y-118517142D01*
X124484523Y-118564761D01*
X124579761Y-118612380D01*
X124770238Y-118612380D01*
X124865476Y-118564761D01*
X124913095Y-118517142D01*
X124960714Y-118421904D01*
X124960714Y-118231428D01*
X124913095Y-118136190D01*
X124865476Y-118088571D01*
X124770238Y-118040952D01*
X120896904Y-123692380D02*
X120896904Y-122692380D01*
X121277857Y-122692380D01*
X121373095Y-122740000D01*
X121420714Y-122787619D01*
X121468333Y-122882857D01*
X121468333Y-123025714D01*
X121420714Y-123120952D01*
X121373095Y-123168571D01*
X121277857Y-123216190D01*
X120896904Y-123216190D01*
X121801666Y-122692380D02*
X122468333Y-122692380D01*
X122039761Y-123692380D01*
X114546904Y-123692380D02*
X114546904Y-122692380D01*
X114927857Y-122692380D01*
X115023095Y-122740000D01*
X115070714Y-122787619D01*
X115118333Y-122882857D01*
X115118333Y-123025714D01*
X115070714Y-123120952D01*
X115023095Y-123168571D01*
X114927857Y-123216190D01*
X114546904Y-123216190D01*
X115689761Y-123120952D02*
X115594523Y-123073333D01*
X115546904Y-123025714D01*
X115499285Y-122930476D01*
X115499285Y-122882857D01*
X115546904Y-122787619D01*
X115594523Y-122740000D01*
X115689761Y-122692380D01*
X115880238Y-122692380D01*
X115975476Y-122740000D01*
X116023095Y-122787619D01*
X116070714Y-122882857D01*
X116070714Y-122930476D01*
X116023095Y-123025714D01*
X115975476Y-123073333D01*
X115880238Y-123120952D01*
X115689761Y-123120952D01*
X115594523Y-123168571D01*
X115546904Y-123216190D01*
X115499285Y-123311428D01*
X115499285Y-123501904D01*
X115546904Y-123597142D01*
X115594523Y-123644761D01*
X115689761Y-123692380D01*
X115880238Y-123692380D01*
X115975476Y-123644761D01*
X116023095Y-123597142D01*
X116070714Y-123501904D01*
X116070714Y-123311428D01*
X116023095Y-123216190D01*
X115975476Y-123168571D01*
X115880238Y-123120952D01*
X109403333Y-119882380D02*
X109070000Y-119406190D01*
X108831904Y-119882380D02*
X108831904Y-118882380D01*
X109212857Y-118882380D01*
X109308095Y-118930000D01*
X109355714Y-118977619D01*
X109403333Y-119072857D01*
X109403333Y-119215714D01*
X109355714Y-119310952D01*
X109308095Y-119358571D01*
X109212857Y-119406190D01*
X108831904Y-119406190D01*
X109879523Y-119882380D02*
X110070000Y-119882380D01*
X110165238Y-119834761D01*
X110212857Y-119787142D01*
X110308095Y-119644285D01*
X110355714Y-119453809D01*
X110355714Y-119072857D01*
X110308095Y-118977619D01*
X110260476Y-118930000D01*
X110165238Y-118882380D01*
X109974761Y-118882380D01*
X109879523Y-118930000D01*
X109831904Y-118977619D01*
X109784285Y-119072857D01*
X109784285Y-119310952D01*
X109831904Y-119406190D01*
X109879523Y-119453809D01*
X109974761Y-119501428D01*
X110165238Y-119501428D01*
X110260476Y-119453809D01*
X110308095Y-119406190D01*
X110355714Y-119310952D01*
X108927142Y-117342380D02*
X108593809Y-116866190D01*
X108355714Y-117342380D02*
X108355714Y-116342380D01*
X108736666Y-116342380D01*
X108831904Y-116390000D01*
X108879523Y-116437619D01*
X108927142Y-116532857D01*
X108927142Y-116675714D01*
X108879523Y-116770952D01*
X108831904Y-116818571D01*
X108736666Y-116866190D01*
X108355714Y-116866190D01*
X109879523Y-117342380D02*
X109308095Y-117342380D01*
X109593809Y-117342380D02*
X109593809Y-116342380D01*
X109498571Y-116485238D01*
X109403333Y-116580476D01*
X109308095Y-116628095D01*
X110736666Y-116342380D02*
X110546190Y-116342380D01*
X110450952Y-116390000D01*
X110403333Y-116437619D01*
X110308095Y-116580476D01*
X110260476Y-116770952D01*
X110260476Y-117151904D01*
X110308095Y-117247142D01*
X110355714Y-117294761D01*
X110450952Y-117342380D01*
X110641428Y-117342380D01*
X110736666Y-117294761D01*
X110784285Y-117247142D01*
X110831904Y-117151904D01*
X110831904Y-116913809D01*
X110784285Y-116818571D01*
X110736666Y-116770952D01*
X110641428Y-116723333D01*
X110450952Y-116723333D01*
X110355714Y-116770952D01*
X110308095Y-116818571D01*
X110260476Y-116913809D01*
X121627142Y-78607380D02*
X121293809Y-78131190D01*
X121055714Y-78607380D02*
X121055714Y-77607380D01*
X121436666Y-77607380D01*
X121531904Y-77655000D01*
X121579523Y-77702619D01*
X121627142Y-77797857D01*
X121627142Y-77940714D01*
X121579523Y-78035952D01*
X121531904Y-78083571D01*
X121436666Y-78131190D01*
X121055714Y-78131190D01*
X122579523Y-78607380D02*
X122008095Y-78607380D01*
X122293809Y-78607380D02*
X122293809Y-77607380D01*
X122198571Y-77750238D01*
X122103333Y-77845476D01*
X122008095Y-77893095D01*
X122912857Y-77607380D02*
X123579523Y-77607380D01*
X123150952Y-78607380D01*
X116547142Y-78607380D02*
X116213809Y-78131190D01*
X115975714Y-78607380D02*
X115975714Y-77607380D01*
X116356666Y-77607380D01*
X116451904Y-77655000D01*
X116499523Y-77702619D01*
X116547142Y-77797857D01*
X116547142Y-77940714D01*
X116499523Y-78035952D01*
X116451904Y-78083571D01*
X116356666Y-78131190D01*
X115975714Y-78131190D01*
X117499523Y-78607380D02*
X116928095Y-78607380D01*
X117213809Y-78607380D02*
X117213809Y-77607380D01*
X117118571Y-77750238D01*
X117023333Y-77845476D01*
X116928095Y-77893095D01*
X118070952Y-78035952D02*
X117975714Y-77988333D01*
X117928095Y-77940714D01*
X117880476Y-77845476D01*
X117880476Y-77797857D01*
X117928095Y-77702619D01*
X117975714Y-77655000D01*
X118070952Y-77607380D01*
X118261428Y-77607380D01*
X118356666Y-77655000D01*
X118404285Y-77702619D01*
X118451904Y-77797857D01*
X118451904Y-77845476D01*
X118404285Y-77940714D01*
X118356666Y-77988333D01*
X118261428Y-78035952D01*
X118070952Y-78035952D01*
X117975714Y-78083571D01*
X117928095Y-78131190D01*
X117880476Y-78226428D01*
X117880476Y-78416904D01*
X117928095Y-78512142D01*
X117975714Y-78559761D01*
X118070952Y-78607380D01*
X118261428Y-78607380D01*
X118356666Y-78559761D01*
X118404285Y-78512142D01*
X118451904Y-78416904D01*
X118451904Y-78226428D01*
X118404285Y-78131190D01*
X118356666Y-78083571D01*
X118261428Y-78035952D01*
X99870476Y-83322380D02*
X100537142Y-84322380D01*
X100537142Y-83322380D02*
X99870476Y-84322380D01*
X101441904Y-84322380D02*
X100870476Y-84322380D01*
X101156190Y-84322380D02*
X101156190Y-83322380D01*
X101060952Y-83465238D01*
X100965714Y-83560476D01*
X100870476Y-83608095D01*
M02*
