G04 #@! TF.GenerationSoftware,KiCad,Pcbnew,(5.1.0)-1*
G04 #@! TF.CreationDate,2019-04-28T18:18:51+02:00*
G04 #@! TF.ProjectId,LampeSolaire,4c616d70-6553-46f6-9c61-6972652e6b69,5*
G04 #@! TF.SameCoordinates,Original*
G04 #@! TF.FileFunction,Legend,Top*
G04 #@! TF.FilePolarity,Positive*
%FSLAX46Y46*%
G04 Gerber Fmt 4.6, Leading zero omitted, Abs format (unit mm)*
G04 Created by KiCad (PCBNEW (5.1.0)-1) date 2019-04-28 18:18:51*
%MOMM*%
%LPD*%
G04 APERTURE LIST*
%ADD10C,0.300000*%
%ADD11C,0.120000*%
%ADD12C,0.150000*%
%ADD13C,0.304800*%
G04 APERTURE END LIST*
D10*
X113284285Y-98398571D02*
X112570000Y-98398571D01*
X112570000Y-96898571D01*
X114427142Y-98398571D02*
X114427142Y-97612857D01*
X114355714Y-97470000D01*
X114212857Y-97398571D01*
X113927142Y-97398571D01*
X113784285Y-97470000D01*
X114427142Y-98327142D02*
X114284285Y-98398571D01*
X113927142Y-98398571D01*
X113784285Y-98327142D01*
X113712857Y-98184285D01*
X113712857Y-98041428D01*
X113784285Y-97898571D01*
X113927142Y-97827142D01*
X114284285Y-97827142D01*
X114427142Y-97755714D01*
X115141428Y-98398571D02*
X115141428Y-97398571D01*
X115141428Y-97541428D02*
X115212857Y-97470000D01*
X115355714Y-97398571D01*
X115570000Y-97398571D01*
X115712857Y-97470000D01*
X115784285Y-97612857D01*
X115784285Y-98398571D01*
X115784285Y-97612857D02*
X115855714Y-97470000D01*
X115998571Y-97398571D01*
X116212857Y-97398571D01*
X116355714Y-97470000D01*
X116427142Y-97612857D01*
X116427142Y-98398571D01*
X117141428Y-97398571D02*
X117141428Y-98898571D01*
X117141428Y-97470000D02*
X117284285Y-97398571D01*
X117570000Y-97398571D01*
X117712857Y-97470000D01*
X117784285Y-97541428D01*
X117855714Y-97684285D01*
X117855714Y-98112857D01*
X117784285Y-98255714D01*
X117712857Y-98327142D01*
X117570000Y-98398571D01*
X117284285Y-98398571D01*
X117141428Y-98327142D01*
X119070000Y-98327142D02*
X118927142Y-98398571D01*
X118641428Y-98398571D01*
X118498571Y-98327142D01*
X118427142Y-98184285D01*
X118427142Y-97612857D01*
X118498571Y-97470000D01*
X118641428Y-97398571D01*
X118927142Y-97398571D01*
X119070000Y-97470000D01*
X119141428Y-97612857D01*
X119141428Y-97755714D01*
X118427142Y-97898571D01*
X120855714Y-98327142D02*
X121070000Y-98398571D01*
X121427142Y-98398571D01*
X121570000Y-98327142D01*
X121641428Y-98255714D01*
X121712857Y-98112857D01*
X121712857Y-97970000D01*
X121641428Y-97827142D01*
X121570000Y-97755714D01*
X121427142Y-97684285D01*
X121141428Y-97612857D01*
X120998571Y-97541428D01*
X120927142Y-97470000D01*
X120855714Y-97327142D01*
X120855714Y-97184285D01*
X120927142Y-97041428D01*
X120998571Y-96970000D01*
X121141428Y-96898571D01*
X121498571Y-96898571D01*
X121712857Y-96970000D01*
X122570000Y-98398571D02*
X122427142Y-98327142D01*
X122355714Y-98255714D01*
X122284285Y-98112857D01*
X122284285Y-97684285D01*
X122355714Y-97541428D01*
X122427142Y-97470000D01*
X122570000Y-97398571D01*
X122784285Y-97398571D01*
X122927142Y-97470000D01*
X122998571Y-97541428D01*
X123070000Y-97684285D01*
X123070000Y-98112857D01*
X122998571Y-98255714D01*
X122927142Y-98327142D01*
X122784285Y-98398571D01*
X122570000Y-98398571D01*
X123927142Y-98398571D02*
X123784285Y-98327142D01*
X123712857Y-98184285D01*
X123712857Y-96898571D01*
X125141428Y-98398571D02*
X125141428Y-97612857D01*
X125070000Y-97470000D01*
X124927142Y-97398571D01*
X124641428Y-97398571D01*
X124498571Y-97470000D01*
X125141428Y-98327142D02*
X124998571Y-98398571D01*
X124641428Y-98398571D01*
X124498571Y-98327142D01*
X124427142Y-98184285D01*
X124427142Y-98041428D01*
X124498571Y-97898571D01*
X124641428Y-97827142D01*
X124998571Y-97827142D01*
X125141428Y-97755714D01*
X125855714Y-98398571D02*
X125855714Y-97398571D01*
X125855714Y-96898571D02*
X125784285Y-96970000D01*
X125855714Y-97041428D01*
X125927142Y-96970000D01*
X125855714Y-96898571D01*
X125855714Y-97041428D01*
X126570000Y-98398571D02*
X126570000Y-97398571D01*
X126570000Y-97684285D02*
X126641428Y-97541428D01*
X126712857Y-97470000D01*
X126855714Y-97398571D01*
X126998571Y-97398571D01*
X128070000Y-98327142D02*
X127927142Y-98398571D01*
X127641428Y-98398571D01*
X127498571Y-98327142D01*
X127427142Y-98184285D01*
X127427142Y-97612857D01*
X127498571Y-97470000D01*
X127641428Y-97398571D01*
X127927142Y-97398571D01*
X128070000Y-97470000D01*
X128141428Y-97612857D01*
X128141428Y-97755714D01*
X127427142Y-97898571D01*
X112177142Y-99591428D02*
X112248571Y-99520000D01*
X112391428Y-99448571D01*
X112748571Y-99448571D01*
X112891428Y-99520000D01*
X112962857Y-99591428D01*
X113034285Y-99734285D01*
X113034285Y-99877142D01*
X112962857Y-100091428D01*
X112105714Y-100948571D01*
X113034285Y-100948571D01*
X113891428Y-100091428D02*
X113748571Y-100020000D01*
X113677142Y-99948571D01*
X113605714Y-99805714D01*
X113605714Y-99734285D01*
X113677142Y-99591428D01*
X113748571Y-99520000D01*
X113891428Y-99448571D01*
X114177142Y-99448571D01*
X114320000Y-99520000D01*
X114391428Y-99591428D01*
X114462857Y-99734285D01*
X114462857Y-99805714D01*
X114391428Y-99948571D01*
X114320000Y-100020000D01*
X114177142Y-100091428D01*
X113891428Y-100091428D01*
X113748571Y-100162857D01*
X113677142Y-100234285D01*
X113605714Y-100377142D01*
X113605714Y-100662857D01*
X113677142Y-100805714D01*
X113748571Y-100877142D01*
X113891428Y-100948571D01*
X114177142Y-100948571D01*
X114320000Y-100877142D01*
X114391428Y-100805714D01*
X114462857Y-100662857D01*
X114462857Y-100377142D01*
X114391428Y-100234285D01*
X114320000Y-100162857D01*
X114177142Y-100091428D01*
X115105714Y-100805714D02*
X115177142Y-100877142D01*
X115105714Y-100948571D01*
X115034285Y-100877142D01*
X115105714Y-100805714D01*
X115105714Y-100948571D01*
X116105714Y-99448571D02*
X116248571Y-99448571D01*
X116391428Y-99520000D01*
X116462857Y-99591428D01*
X116534285Y-99734285D01*
X116605714Y-100020000D01*
X116605714Y-100377142D01*
X116534285Y-100662857D01*
X116462857Y-100805714D01*
X116391428Y-100877142D01*
X116248571Y-100948571D01*
X116105714Y-100948571D01*
X115962857Y-100877142D01*
X115891428Y-100805714D01*
X115820000Y-100662857D01*
X115748571Y-100377142D01*
X115748571Y-100020000D01*
X115820000Y-99734285D01*
X115891428Y-99591428D01*
X115962857Y-99520000D01*
X116105714Y-99448571D01*
X117891428Y-99948571D02*
X117891428Y-100948571D01*
X117534285Y-99377142D02*
X117177142Y-100448571D01*
X118105714Y-100448571D01*
X118677142Y-100805714D02*
X118748571Y-100877142D01*
X118677142Y-100948571D01*
X118605714Y-100877142D01*
X118677142Y-100805714D01*
X118677142Y-100948571D01*
X120177142Y-100948571D02*
X119320000Y-100948571D01*
X119748571Y-100948571D02*
X119748571Y-99448571D01*
X119605714Y-99662857D01*
X119462857Y-99805714D01*
X119320000Y-99877142D01*
X120891428Y-100948571D02*
X121177142Y-100948571D01*
X121320000Y-100877142D01*
X121391428Y-100805714D01*
X121534285Y-100591428D01*
X121605714Y-100305714D01*
X121605714Y-99734285D01*
X121534285Y-99591428D01*
X121462857Y-99520000D01*
X121320000Y-99448571D01*
X121034285Y-99448571D01*
X120891428Y-99520000D01*
X120820000Y-99591428D01*
X120748571Y-99734285D01*
X120748571Y-100091428D01*
X120820000Y-100234285D01*
X120891428Y-100305714D01*
X121034285Y-100377142D01*
X121320000Y-100377142D01*
X121462857Y-100305714D01*
X121534285Y-100234285D01*
X121605714Y-100091428D01*
X123391428Y-100377142D02*
X124534285Y-100377142D01*
X126177142Y-99448571D02*
X126677142Y-100948571D01*
X127177142Y-99448571D01*
X128391428Y-99448571D02*
X127677142Y-99448571D01*
X127605714Y-100162857D01*
X127677142Y-100091428D01*
X127820000Y-100020000D01*
X128177142Y-100020000D01*
X128320000Y-100091428D01*
X128391428Y-100162857D01*
X128462857Y-100305714D01*
X128462857Y-100662857D01*
X128391428Y-100805714D01*
X128320000Y-100877142D01*
X128177142Y-100948571D01*
X127820000Y-100948571D01*
X127677142Y-100877142D01*
X127605714Y-100805714D01*
X115748571Y-102712857D02*
X116248571Y-102712857D01*
X116462857Y-103498571D02*
X115748571Y-103498571D01*
X115748571Y-101998571D01*
X116462857Y-101998571D01*
X117034285Y-103427142D02*
X117177142Y-103498571D01*
X117462857Y-103498571D01*
X117605714Y-103427142D01*
X117677142Y-103284285D01*
X117677142Y-103212857D01*
X117605714Y-103070000D01*
X117462857Y-102998571D01*
X117248571Y-102998571D01*
X117105714Y-102927142D01*
X117034285Y-102784285D01*
X117034285Y-102712857D01*
X117105714Y-102570000D01*
X117248571Y-102498571D01*
X117462857Y-102498571D01*
X117605714Y-102570000D01*
X118248571Y-103427142D02*
X118391428Y-103498571D01*
X118677142Y-103498571D01*
X118820000Y-103427142D01*
X118891428Y-103284285D01*
X118891428Y-103212857D01*
X118820000Y-103070000D01*
X118677142Y-102998571D01*
X118462857Y-102998571D01*
X118320000Y-102927142D01*
X118248571Y-102784285D01*
X118248571Y-102712857D01*
X118320000Y-102570000D01*
X118462857Y-102498571D01*
X118677142Y-102498571D01*
X118820000Y-102570000D01*
X120105714Y-103427142D02*
X119962857Y-103498571D01*
X119677142Y-103498571D01*
X119534285Y-103427142D01*
X119462857Y-103284285D01*
X119462857Y-102712857D01*
X119534285Y-102570000D01*
X119677142Y-102498571D01*
X119962857Y-102498571D01*
X120105714Y-102570000D01*
X120177142Y-102712857D01*
X120177142Y-102855714D01*
X119462857Y-102998571D01*
X120820000Y-103498571D02*
X120820000Y-102498571D01*
X120820000Y-101998571D02*
X120748571Y-102070000D01*
X120820000Y-102141428D01*
X120891428Y-102070000D01*
X120820000Y-101998571D01*
X120820000Y-102141428D01*
X121391428Y-102498571D02*
X121748571Y-103498571D01*
X122105714Y-102498571D01*
X123320000Y-103498571D02*
X123320000Y-102712857D01*
X123248571Y-102570000D01*
X123105714Y-102498571D01*
X122820000Y-102498571D01*
X122677142Y-102570000D01*
X123320000Y-103427142D02*
X123177142Y-103498571D01*
X122820000Y-103498571D01*
X122677142Y-103427142D01*
X122605714Y-103284285D01*
X122605714Y-103141428D01*
X122677142Y-102998571D01*
X122820000Y-102927142D01*
X123177142Y-102927142D01*
X123320000Y-102855714D01*
X124034285Y-103498571D02*
X124034285Y-101998571D01*
X124891428Y-103498571D01*
X124891428Y-101998571D01*
D11*
X62520000Y-59690000D02*
X63820000Y-59690000D01*
X63170000Y-60290000D02*
X63170000Y-59090000D01*
X62816000Y-54529000D02*
X63524000Y-54529000D01*
X62611000Y-54569000D02*
X63729000Y-54569000D01*
X62463000Y-54609000D02*
X63877000Y-54609000D01*
X62341000Y-54649000D02*
X63999000Y-54649000D01*
X62236000Y-54689000D02*
X64104000Y-54689000D01*
X62142000Y-54729000D02*
X64198000Y-54729000D01*
X62058000Y-54769000D02*
X64282000Y-54769000D01*
X61981000Y-54809000D02*
X64359000Y-54809000D01*
X61909000Y-54849000D02*
X64431000Y-54849000D01*
X61843000Y-54889000D02*
X64497000Y-54889000D01*
X61780000Y-54929000D02*
X64560000Y-54929000D01*
X61722000Y-54969000D02*
X64618000Y-54969000D01*
X61666000Y-55009000D02*
X64674000Y-55009000D01*
X61614000Y-55049000D02*
X64726000Y-55049000D01*
X61564000Y-55089000D02*
X64776000Y-55089000D01*
X64150000Y-55129000D02*
X64824000Y-55129000D01*
X61516000Y-55129000D02*
X62190000Y-55129000D01*
X64150000Y-55169000D02*
X64869000Y-55169000D01*
X61471000Y-55169000D02*
X62190000Y-55169000D01*
X64150000Y-55209000D02*
X64912000Y-55209000D01*
X61428000Y-55209000D02*
X62190000Y-55209000D01*
X64150000Y-55249000D02*
X64953000Y-55249000D01*
X61387000Y-55249000D02*
X62190000Y-55249000D01*
X64150000Y-55289000D02*
X64993000Y-55289000D01*
X61347000Y-55289000D02*
X62190000Y-55289000D01*
X64150000Y-55329000D02*
X65031000Y-55329000D01*
X61309000Y-55329000D02*
X62190000Y-55329000D01*
X64150000Y-55369000D02*
X65067000Y-55369000D01*
X61273000Y-55369000D02*
X62190000Y-55369000D01*
X64150000Y-55409000D02*
X65102000Y-55409000D01*
X61238000Y-55409000D02*
X62190000Y-55409000D01*
X64150000Y-55449000D02*
X65135000Y-55449000D01*
X61205000Y-55449000D02*
X62190000Y-55449000D01*
X64150000Y-55489000D02*
X65167000Y-55489000D01*
X61173000Y-55489000D02*
X62190000Y-55489000D01*
X64150000Y-55529000D02*
X65198000Y-55529000D01*
X61142000Y-55529000D02*
X62190000Y-55529000D01*
X64150000Y-55569000D02*
X65228000Y-55569000D01*
X61112000Y-55569000D02*
X62190000Y-55569000D01*
X64150000Y-55609000D02*
X65256000Y-55609000D01*
X61084000Y-55609000D02*
X62190000Y-55609000D01*
X64150000Y-55649000D02*
X65283000Y-55649000D01*
X61057000Y-55649000D02*
X62190000Y-55649000D01*
X64150000Y-55689000D02*
X65310000Y-55689000D01*
X61030000Y-55689000D02*
X62190000Y-55689000D01*
X64150000Y-55729000D02*
X65335000Y-55729000D01*
X61005000Y-55729000D02*
X62190000Y-55729000D01*
X64150000Y-55769000D02*
X65359000Y-55769000D01*
X60981000Y-55769000D02*
X62190000Y-55769000D01*
X64150000Y-55809000D02*
X65382000Y-55809000D01*
X60958000Y-55809000D02*
X62190000Y-55809000D01*
X64150000Y-55849000D02*
X65404000Y-55849000D01*
X60936000Y-55849000D02*
X62190000Y-55849000D01*
X64150000Y-55889000D02*
X65426000Y-55889000D01*
X60914000Y-55889000D02*
X62190000Y-55889000D01*
X64150000Y-55929000D02*
X65446000Y-55929000D01*
X60894000Y-55929000D02*
X62190000Y-55929000D01*
X64150000Y-55969000D02*
X65466000Y-55969000D01*
X60874000Y-55969000D02*
X62190000Y-55969000D01*
X64150000Y-56009000D02*
X65485000Y-56009000D01*
X60855000Y-56009000D02*
X62190000Y-56009000D01*
X64150000Y-56049000D02*
X65503000Y-56049000D01*
X60837000Y-56049000D02*
X62190000Y-56049000D01*
X64150000Y-56089000D02*
X65520000Y-56089000D01*
X60820000Y-56089000D02*
X62190000Y-56089000D01*
X64150000Y-56129000D02*
X65536000Y-56129000D01*
X60804000Y-56129000D02*
X62190000Y-56129000D01*
X64150000Y-56169000D02*
X65552000Y-56169000D01*
X60788000Y-56169000D02*
X62190000Y-56169000D01*
X64150000Y-56209000D02*
X65566000Y-56209000D01*
X60774000Y-56209000D02*
X62190000Y-56209000D01*
X64150000Y-56249000D02*
X65580000Y-56249000D01*
X60760000Y-56249000D02*
X62190000Y-56249000D01*
X64150000Y-56289000D02*
X65594000Y-56289000D01*
X60746000Y-56289000D02*
X62190000Y-56289000D01*
X64150000Y-56329000D02*
X65606000Y-56329000D01*
X60734000Y-56329000D02*
X62190000Y-56329000D01*
X64150000Y-56369000D02*
X65618000Y-56369000D01*
X60722000Y-56369000D02*
X62190000Y-56369000D01*
X64150000Y-56410000D02*
X65630000Y-56410000D01*
X60710000Y-56410000D02*
X62190000Y-56410000D01*
X64150000Y-56450000D02*
X65640000Y-56450000D01*
X60700000Y-56450000D02*
X62190000Y-56450000D01*
X64150000Y-56490000D02*
X65650000Y-56490000D01*
X60690000Y-56490000D02*
X62190000Y-56490000D01*
X64150000Y-56530000D02*
X65659000Y-56530000D01*
X60681000Y-56530000D02*
X62190000Y-56530000D01*
X64150000Y-56570000D02*
X65668000Y-56570000D01*
X60672000Y-56570000D02*
X62190000Y-56570000D01*
X64150000Y-56610000D02*
X65676000Y-56610000D01*
X60664000Y-56610000D02*
X62190000Y-56610000D01*
X64150000Y-56650000D02*
X65683000Y-56650000D01*
X60657000Y-56650000D02*
X62190000Y-56650000D01*
X64150000Y-56690000D02*
X65689000Y-56690000D01*
X60651000Y-56690000D02*
X62190000Y-56690000D01*
X64150000Y-56730000D02*
X65695000Y-56730000D01*
X60645000Y-56730000D02*
X62190000Y-56730000D01*
X64150000Y-56770000D02*
X65701000Y-56770000D01*
X60639000Y-56770000D02*
X62190000Y-56770000D01*
X64150000Y-56810000D02*
X65705000Y-56810000D01*
X60635000Y-56810000D02*
X62190000Y-56810000D01*
X64150000Y-56850000D02*
X65709000Y-56850000D01*
X60631000Y-56850000D02*
X62190000Y-56850000D01*
X64150000Y-56890000D02*
X65713000Y-56890000D01*
X60627000Y-56890000D02*
X62190000Y-56890000D01*
X64150000Y-56930000D02*
X65716000Y-56930000D01*
X60624000Y-56930000D02*
X62190000Y-56930000D01*
X64150000Y-56970000D02*
X65718000Y-56970000D01*
X60622000Y-56970000D02*
X62190000Y-56970000D01*
X64150000Y-57010000D02*
X65719000Y-57010000D01*
X60621000Y-57010000D02*
X62190000Y-57010000D01*
X64150000Y-57050000D02*
X65720000Y-57050000D01*
X60620000Y-57050000D02*
X62190000Y-57050000D01*
X60620000Y-57090000D02*
X65720000Y-57090000D01*
X64349723Y-54784278D02*
G75*
G03X61990000Y-54784420I-1179723J-2305722D01*
G01*
X64349723Y-54784278D02*
G75*
G02X64350000Y-59395580I-1179723J-2305722D01*
G01*
X61990277Y-54784278D02*
G75*
G03X61990000Y-59395580I1179723J-2305722D01*
G01*
X105410000Y-100650000D02*
X105410000Y-99350000D01*
X106010000Y-100000000D02*
X104810000Y-100000000D01*
X100249000Y-100354000D02*
X100249000Y-99646000D01*
X100289000Y-100559000D02*
X100289000Y-99441000D01*
X100329000Y-100707000D02*
X100329000Y-99293000D01*
X100369000Y-100829000D02*
X100369000Y-99171000D01*
X100409000Y-100934000D02*
X100409000Y-99066000D01*
X100449000Y-101028000D02*
X100449000Y-98972000D01*
X100489000Y-101112000D02*
X100489000Y-98888000D01*
X100529000Y-101189000D02*
X100529000Y-98811000D01*
X100569000Y-101261000D02*
X100569000Y-98739000D01*
X100609000Y-101327000D02*
X100609000Y-98673000D01*
X100649000Y-101390000D02*
X100649000Y-98610000D01*
X100689000Y-101448000D02*
X100689000Y-98552000D01*
X100729000Y-101504000D02*
X100729000Y-98496000D01*
X100769000Y-101556000D02*
X100769000Y-98444000D01*
X100809000Y-101606000D02*
X100809000Y-98394000D01*
X100849000Y-99020000D02*
X100849000Y-98346000D01*
X100849000Y-101654000D02*
X100849000Y-100980000D01*
X100889000Y-99020000D02*
X100889000Y-98301000D01*
X100889000Y-101699000D02*
X100889000Y-100980000D01*
X100929000Y-99020000D02*
X100929000Y-98258000D01*
X100929000Y-101742000D02*
X100929000Y-100980000D01*
X100969000Y-99020000D02*
X100969000Y-98217000D01*
X100969000Y-101783000D02*
X100969000Y-100980000D01*
X101009000Y-99020000D02*
X101009000Y-98177000D01*
X101009000Y-101823000D02*
X101009000Y-100980000D01*
X101049000Y-99020000D02*
X101049000Y-98139000D01*
X101049000Y-101861000D02*
X101049000Y-100980000D01*
X101089000Y-99020000D02*
X101089000Y-98103000D01*
X101089000Y-101897000D02*
X101089000Y-100980000D01*
X101129000Y-99020000D02*
X101129000Y-98068000D01*
X101129000Y-101932000D02*
X101129000Y-100980000D01*
X101169000Y-99020000D02*
X101169000Y-98035000D01*
X101169000Y-101965000D02*
X101169000Y-100980000D01*
X101209000Y-99020000D02*
X101209000Y-98003000D01*
X101209000Y-101997000D02*
X101209000Y-100980000D01*
X101249000Y-99020000D02*
X101249000Y-97972000D01*
X101249000Y-102028000D02*
X101249000Y-100980000D01*
X101289000Y-99020000D02*
X101289000Y-97942000D01*
X101289000Y-102058000D02*
X101289000Y-100980000D01*
X101329000Y-99020000D02*
X101329000Y-97914000D01*
X101329000Y-102086000D02*
X101329000Y-100980000D01*
X101369000Y-99020000D02*
X101369000Y-97887000D01*
X101369000Y-102113000D02*
X101369000Y-100980000D01*
X101409000Y-99020000D02*
X101409000Y-97860000D01*
X101409000Y-102140000D02*
X101409000Y-100980000D01*
X101449000Y-99020000D02*
X101449000Y-97835000D01*
X101449000Y-102165000D02*
X101449000Y-100980000D01*
X101489000Y-99020000D02*
X101489000Y-97811000D01*
X101489000Y-102189000D02*
X101489000Y-100980000D01*
X101529000Y-99020000D02*
X101529000Y-97788000D01*
X101529000Y-102212000D02*
X101529000Y-100980000D01*
X101569000Y-99020000D02*
X101569000Y-97766000D01*
X101569000Y-102234000D02*
X101569000Y-100980000D01*
X101609000Y-99020000D02*
X101609000Y-97744000D01*
X101609000Y-102256000D02*
X101609000Y-100980000D01*
X101649000Y-99020000D02*
X101649000Y-97724000D01*
X101649000Y-102276000D02*
X101649000Y-100980000D01*
X101689000Y-99020000D02*
X101689000Y-97704000D01*
X101689000Y-102296000D02*
X101689000Y-100980000D01*
X101729000Y-99020000D02*
X101729000Y-97685000D01*
X101729000Y-102315000D02*
X101729000Y-100980000D01*
X101769000Y-99020000D02*
X101769000Y-97667000D01*
X101769000Y-102333000D02*
X101769000Y-100980000D01*
X101809000Y-99020000D02*
X101809000Y-97650000D01*
X101809000Y-102350000D02*
X101809000Y-100980000D01*
X101849000Y-99020000D02*
X101849000Y-97634000D01*
X101849000Y-102366000D02*
X101849000Y-100980000D01*
X101889000Y-99020000D02*
X101889000Y-97618000D01*
X101889000Y-102382000D02*
X101889000Y-100980000D01*
X101929000Y-99020000D02*
X101929000Y-97604000D01*
X101929000Y-102396000D02*
X101929000Y-100980000D01*
X101969000Y-99020000D02*
X101969000Y-97590000D01*
X101969000Y-102410000D02*
X101969000Y-100980000D01*
X102009000Y-99020000D02*
X102009000Y-97576000D01*
X102009000Y-102424000D02*
X102009000Y-100980000D01*
X102049000Y-99020000D02*
X102049000Y-97564000D01*
X102049000Y-102436000D02*
X102049000Y-100980000D01*
X102089000Y-99020000D02*
X102089000Y-97552000D01*
X102089000Y-102448000D02*
X102089000Y-100980000D01*
X102130000Y-99020000D02*
X102130000Y-97540000D01*
X102130000Y-102460000D02*
X102130000Y-100980000D01*
X102170000Y-99020000D02*
X102170000Y-97530000D01*
X102170000Y-102470000D02*
X102170000Y-100980000D01*
X102210000Y-99020000D02*
X102210000Y-97520000D01*
X102210000Y-102480000D02*
X102210000Y-100980000D01*
X102250000Y-99020000D02*
X102250000Y-97511000D01*
X102250000Y-102489000D02*
X102250000Y-100980000D01*
X102290000Y-99020000D02*
X102290000Y-97502000D01*
X102290000Y-102498000D02*
X102290000Y-100980000D01*
X102330000Y-99020000D02*
X102330000Y-97494000D01*
X102330000Y-102506000D02*
X102330000Y-100980000D01*
X102370000Y-99020000D02*
X102370000Y-97487000D01*
X102370000Y-102513000D02*
X102370000Y-100980000D01*
X102410000Y-99020000D02*
X102410000Y-97481000D01*
X102410000Y-102519000D02*
X102410000Y-100980000D01*
X102450000Y-99020000D02*
X102450000Y-97475000D01*
X102450000Y-102525000D02*
X102450000Y-100980000D01*
X102490000Y-99020000D02*
X102490000Y-97469000D01*
X102490000Y-102531000D02*
X102490000Y-100980000D01*
X102530000Y-99020000D02*
X102530000Y-97465000D01*
X102530000Y-102535000D02*
X102530000Y-100980000D01*
X102570000Y-99020000D02*
X102570000Y-97461000D01*
X102570000Y-102539000D02*
X102570000Y-100980000D01*
X102610000Y-99020000D02*
X102610000Y-97457000D01*
X102610000Y-102543000D02*
X102610000Y-100980000D01*
X102650000Y-99020000D02*
X102650000Y-97454000D01*
X102650000Y-102546000D02*
X102650000Y-100980000D01*
X102690000Y-99020000D02*
X102690000Y-97452000D01*
X102690000Y-102548000D02*
X102690000Y-100980000D01*
X102730000Y-99020000D02*
X102730000Y-97451000D01*
X102730000Y-102549000D02*
X102730000Y-100980000D01*
X102770000Y-99020000D02*
X102770000Y-97450000D01*
X102770000Y-102550000D02*
X102770000Y-100980000D01*
X102810000Y-102550000D02*
X102810000Y-97450000D01*
X100504278Y-98820277D02*
G75*
G03X100504420Y-101180000I2305722J-1179723D01*
G01*
X100504278Y-98820277D02*
G75*
G02X105115580Y-98820000I2305722J-1179723D01*
G01*
X100504278Y-101179723D02*
G75*
G03X105115580Y-101180000I2305722J1179723D01*
G01*
X91730000Y-59690000D02*
X93030000Y-59690000D01*
X92380000Y-60290000D02*
X92380000Y-59090000D01*
X92026000Y-54529000D02*
X92734000Y-54529000D01*
X91821000Y-54569000D02*
X92939000Y-54569000D01*
X91673000Y-54609000D02*
X93087000Y-54609000D01*
X91551000Y-54649000D02*
X93209000Y-54649000D01*
X91446000Y-54689000D02*
X93314000Y-54689000D01*
X91352000Y-54729000D02*
X93408000Y-54729000D01*
X91268000Y-54769000D02*
X93492000Y-54769000D01*
X91191000Y-54809000D02*
X93569000Y-54809000D01*
X91119000Y-54849000D02*
X93641000Y-54849000D01*
X91053000Y-54889000D02*
X93707000Y-54889000D01*
X90990000Y-54929000D02*
X93770000Y-54929000D01*
X90932000Y-54969000D02*
X93828000Y-54969000D01*
X90876000Y-55009000D02*
X93884000Y-55009000D01*
X90824000Y-55049000D02*
X93936000Y-55049000D01*
X90774000Y-55089000D02*
X93986000Y-55089000D01*
X93360000Y-55129000D02*
X94034000Y-55129000D01*
X90726000Y-55129000D02*
X91400000Y-55129000D01*
X93360000Y-55169000D02*
X94079000Y-55169000D01*
X90681000Y-55169000D02*
X91400000Y-55169000D01*
X93360000Y-55209000D02*
X94122000Y-55209000D01*
X90638000Y-55209000D02*
X91400000Y-55209000D01*
X93360000Y-55249000D02*
X94163000Y-55249000D01*
X90597000Y-55249000D02*
X91400000Y-55249000D01*
X93360000Y-55289000D02*
X94203000Y-55289000D01*
X90557000Y-55289000D02*
X91400000Y-55289000D01*
X93360000Y-55329000D02*
X94241000Y-55329000D01*
X90519000Y-55329000D02*
X91400000Y-55329000D01*
X93360000Y-55369000D02*
X94277000Y-55369000D01*
X90483000Y-55369000D02*
X91400000Y-55369000D01*
X93360000Y-55409000D02*
X94312000Y-55409000D01*
X90448000Y-55409000D02*
X91400000Y-55409000D01*
X93360000Y-55449000D02*
X94345000Y-55449000D01*
X90415000Y-55449000D02*
X91400000Y-55449000D01*
X93360000Y-55489000D02*
X94377000Y-55489000D01*
X90383000Y-55489000D02*
X91400000Y-55489000D01*
X93360000Y-55529000D02*
X94408000Y-55529000D01*
X90352000Y-55529000D02*
X91400000Y-55529000D01*
X93360000Y-55569000D02*
X94438000Y-55569000D01*
X90322000Y-55569000D02*
X91400000Y-55569000D01*
X93360000Y-55609000D02*
X94466000Y-55609000D01*
X90294000Y-55609000D02*
X91400000Y-55609000D01*
X93360000Y-55649000D02*
X94493000Y-55649000D01*
X90267000Y-55649000D02*
X91400000Y-55649000D01*
X93360000Y-55689000D02*
X94520000Y-55689000D01*
X90240000Y-55689000D02*
X91400000Y-55689000D01*
X93360000Y-55729000D02*
X94545000Y-55729000D01*
X90215000Y-55729000D02*
X91400000Y-55729000D01*
X93360000Y-55769000D02*
X94569000Y-55769000D01*
X90191000Y-55769000D02*
X91400000Y-55769000D01*
X93360000Y-55809000D02*
X94592000Y-55809000D01*
X90168000Y-55809000D02*
X91400000Y-55809000D01*
X93360000Y-55849000D02*
X94614000Y-55849000D01*
X90146000Y-55849000D02*
X91400000Y-55849000D01*
X93360000Y-55889000D02*
X94636000Y-55889000D01*
X90124000Y-55889000D02*
X91400000Y-55889000D01*
X93360000Y-55929000D02*
X94656000Y-55929000D01*
X90104000Y-55929000D02*
X91400000Y-55929000D01*
X93360000Y-55969000D02*
X94676000Y-55969000D01*
X90084000Y-55969000D02*
X91400000Y-55969000D01*
X93360000Y-56009000D02*
X94695000Y-56009000D01*
X90065000Y-56009000D02*
X91400000Y-56009000D01*
X93360000Y-56049000D02*
X94713000Y-56049000D01*
X90047000Y-56049000D02*
X91400000Y-56049000D01*
X93360000Y-56089000D02*
X94730000Y-56089000D01*
X90030000Y-56089000D02*
X91400000Y-56089000D01*
X93360000Y-56129000D02*
X94746000Y-56129000D01*
X90014000Y-56129000D02*
X91400000Y-56129000D01*
X93360000Y-56169000D02*
X94762000Y-56169000D01*
X89998000Y-56169000D02*
X91400000Y-56169000D01*
X93360000Y-56209000D02*
X94776000Y-56209000D01*
X89984000Y-56209000D02*
X91400000Y-56209000D01*
X93360000Y-56249000D02*
X94790000Y-56249000D01*
X89970000Y-56249000D02*
X91400000Y-56249000D01*
X93360000Y-56289000D02*
X94804000Y-56289000D01*
X89956000Y-56289000D02*
X91400000Y-56289000D01*
X93360000Y-56329000D02*
X94816000Y-56329000D01*
X89944000Y-56329000D02*
X91400000Y-56329000D01*
X93360000Y-56369000D02*
X94828000Y-56369000D01*
X89932000Y-56369000D02*
X91400000Y-56369000D01*
X93360000Y-56410000D02*
X94840000Y-56410000D01*
X89920000Y-56410000D02*
X91400000Y-56410000D01*
X93360000Y-56450000D02*
X94850000Y-56450000D01*
X89910000Y-56450000D02*
X91400000Y-56450000D01*
X93360000Y-56490000D02*
X94860000Y-56490000D01*
X89900000Y-56490000D02*
X91400000Y-56490000D01*
X93360000Y-56530000D02*
X94869000Y-56530000D01*
X89891000Y-56530000D02*
X91400000Y-56530000D01*
X93360000Y-56570000D02*
X94878000Y-56570000D01*
X89882000Y-56570000D02*
X91400000Y-56570000D01*
X93360000Y-56610000D02*
X94886000Y-56610000D01*
X89874000Y-56610000D02*
X91400000Y-56610000D01*
X93360000Y-56650000D02*
X94893000Y-56650000D01*
X89867000Y-56650000D02*
X91400000Y-56650000D01*
X93360000Y-56690000D02*
X94899000Y-56690000D01*
X89861000Y-56690000D02*
X91400000Y-56690000D01*
X93360000Y-56730000D02*
X94905000Y-56730000D01*
X89855000Y-56730000D02*
X91400000Y-56730000D01*
X93360000Y-56770000D02*
X94911000Y-56770000D01*
X89849000Y-56770000D02*
X91400000Y-56770000D01*
X93360000Y-56810000D02*
X94915000Y-56810000D01*
X89845000Y-56810000D02*
X91400000Y-56810000D01*
X93360000Y-56850000D02*
X94919000Y-56850000D01*
X89841000Y-56850000D02*
X91400000Y-56850000D01*
X93360000Y-56890000D02*
X94923000Y-56890000D01*
X89837000Y-56890000D02*
X91400000Y-56890000D01*
X93360000Y-56930000D02*
X94926000Y-56930000D01*
X89834000Y-56930000D02*
X91400000Y-56930000D01*
X93360000Y-56970000D02*
X94928000Y-56970000D01*
X89832000Y-56970000D02*
X91400000Y-56970000D01*
X93360000Y-57010000D02*
X94929000Y-57010000D01*
X89831000Y-57010000D02*
X91400000Y-57010000D01*
X93360000Y-57050000D02*
X94930000Y-57050000D01*
X89830000Y-57050000D02*
X91400000Y-57050000D01*
X89830000Y-57090000D02*
X94930000Y-57090000D01*
X93559723Y-54784278D02*
G75*
G03X91200000Y-54784420I-1179723J-2305722D01*
G01*
X93559723Y-54784278D02*
G75*
G02X93560000Y-59395580I-1179723J-2305722D01*
G01*
X91200277Y-54784278D02*
G75*
G03X91200000Y-59395580I1179723J-2305722D01*
G01*
D12*
X96190000Y-86538000D02*
X96190000Y-72822000D01*
X81760000Y-100590000D02*
X87760000Y-100590000D01*
X81760000Y-90590000D02*
X81760000Y-100590000D01*
X87760000Y-90590000D02*
X81760000Y-90590000D01*
X87760000Y-100590000D02*
X87760000Y-90590000D01*
X81760000Y-90690000D02*
X80760000Y-89690000D01*
D11*
X76240000Y-55890000D02*
X78690000Y-55890000D01*
X78040000Y-52670000D02*
X76240000Y-52670000D01*
X80440000Y-115550000D02*
X78980000Y-115550000D01*
X80440000Y-112390000D02*
X77280000Y-112390000D01*
X80440000Y-112390000D02*
X80440000Y-113320000D01*
X80440000Y-115550000D02*
X80440000Y-114620000D01*
X78920000Y-108580000D02*
X80380000Y-108580000D01*
X78920000Y-111740000D02*
X82080000Y-111740000D01*
X78920000Y-111740000D02*
X78920000Y-110810000D01*
X78920000Y-108580000D02*
X78920000Y-109510000D01*
X90350000Y-48890000D02*
X91810000Y-48890000D01*
X90350000Y-52050000D02*
X93510000Y-52050000D01*
X90350000Y-52050000D02*
X90350000Y-51120000D01*
X90350000Y-48890000D02*
X90350000Y-49820000D01*
X73390000Y-56760000D02*
X73390000Y-58090000D01*
X72060000Y-56760000D02*
X73390000Y-56760000D01*
X70790000Y-56760000D02*
X70790000Y-59420000D01*
X70790000Y-59420000D02*
X68190000Y-59420000D01*
X70790000Y-56760000D02*
X68190000Y-56760000D01*
X68190000Y-56760000D02*
X68190000Y-59420000D01*
X82160000Y-59420000D02*
X82160000Y-58090000D01*
X83490000Y-59420000D02*
X82160000Y-59420000D01*
X84760000Y-59420000D02*
X84760000Y-56760000D01*
X84760000Y-56760000D02*
X87360000Y-56760000D01*
X84760000Y-59420000D02*
X87360000Y-59420000D01*
X87360000Y-59420000D02*
X87360000Y-56760000D01*
X124660000Y-53330000D02*
X125990000Y-53330000D01*
X124660000Y-54660000D02*
X124660000Y-53330000D01*
X124660000Y-55930000D02*
X127320000Y-55930000D01*
X127320000Y-55930000D02*
X127320000Y-58530000D01*
X124660000Y-55930000D02*
X124660000Y-58530000D01*
X124660000Y-58530000D02*
X127320000Y-58530000D01*
X110100000Y-59420000D02*
X110100000Y-58090000D01*
X111430000Y-59420000D02*
X110100000Y-59420000D01*
X112700000Y-59420000D02*
X112700000Y-56760000D01*
X112700000Y-56760000D02*
X115300000Y-56760000D01*
X112700000Y-59420000D02*
X115300000Y-59420000D01*
X115300000Y-59420000D02*
X115300000Y-56760000D01*
X97210000Y-52740000D02*
X97210000Y-50740000D01*
X95170000Y-50740000D02*
X95170000Y-52740000D01*
X120590000Y-57070000D02*
X118590000Y-57070000D01*
X118590000Y-59110000D02*
X120590000Y-59110000D01*
X83780000Y-49390000D02*
X83780000Y-49234000D01*
X83780000Y-51706000D02*
X83780000Y-51550000D01*
X81178870Y-49390163D02*
G75*
G02X83260961Y-49390000I1041130J-1079837D01*
G01*
X81178870Y-51549837D02*
G75*
G03X83260961Y-51550000I1041130J1079837D01*
G01*
X80547665Y-49391392D02*
G75*
G02X83780000Y-49234484I1672335J-1078608D01*
G01*
X80547665Y-51548608D02*
G75*
G03X83780000Y-51705516I1672335J1078608D01*
G01*
D12*
X71330000Y-83860000D02*
X73680000Y-83860000D01*
X71330000Y-85660000D02*
X73630000Y-85660000D01*
X73230000Y-85660000D02*
X73280000Y-85660000D01*
X71330000Y-83860000D02*
X71330000Y-85660000D01*
D11*
X77820000Y-107230000D02*
X76620000Y-107230000D01*
X76620000Y-105470000D02*
X77820000Y-105470000D01*
D12*
X70455000Y-74585000D02*
X70455000Y-74935000D01*
X76205000Y-74585000D02*
X76205000Y-75035000D01*
X76205000Y-82235000D02*
X76205000Y-81785000D01*
X70455000Y-82235000D02*
X70455000Y-81785000D01*
X70455000Y-74585000D02*
X76205000Y-74585000D01*
X70455000Y-82235000D02*
X76205000Y-82235000D01*
X70455000Y-74935000D02*
X68855000Y-74935000D01*
X68890000Y-113505000D02*
X68890000Y-109355000D01*
X68890000Y-113505000D02*
X68775000Y-113505000D01*
X68890000Y-109355000D02*
X68775000Y-109355000D01*
X59840000Y-109330000D02*
X59840000Y-113530000D01*
X60040000Y-109330000D02*
X59840000Y-109330000D01*
X59840000Y-113530000D02*
X59240000Y-114030000D01*
X59840000Y-113530000D02*
X59840000Y-115130000D01*
D11*
X77740000Y-58970000D02*
X76540000Y-58970000D01*
X76540000Y-57210000D02*
X77740000Y-57210000D01*
X61960000Y-68190000D02*
X59300000Y-68190000D01*
X61960000Y-80950000D02*
X61960000Y-68190000D01*
X59300000Y-80950000D02*
X59300000Y-68190000D01*
X61960000Y-80950000D02*
X59300000Y-80950000D01*
X61960000Y-82220000D02*
X61960000Y-83550000D01*
X61960000Y-83550000D02*
X60630000Y-83550000D01*
D12*
X104270476Y-45747380D02*
X104603809Y-46747380D01*
X104937142Y-45747380D01*
X105794285Y-46747380D02*
X105222857Y-46747380D01*
X105508571Y-46747380D02*
X105508571Y-45747380D01*
X105413333Y-45890238D01*
X105318095Y-45985476D01*
X105222857Y-46033095D01*
X60463333Y-54272142D02*
X60415714Y-54319761D01*
X60272857Y-54367380D01*
X60177619Y-54367380D01*
X60034761Y-54319761D01*
X59939523Y-54224523D01*
X59891904Y-54129285D01*
X59844285Y-53938809D01*
X59844285Y-53795952D01*
X59891904Y-53605476D01*
X59939523Y-53510238D01*
X60034761Y-53415000D01*
X60177619Y-53367380D01*
X60272857Y-53367380D01*
X60415714Y-53415000D01*
X60463333Y-53462619D01*
X61415714Y-54367380D02*
X60844285Y-54367380D01*
X61130000Y-54367380D02*
X61130000Y-53367380D01*
X61034761Y-53510238D01*
X60939523Y-53605476D01*
X60844285Y-53653095D01*
X100468333Y-96817142D02*
X100420714Y-96864761D01*
X100277857Y-96912380D01*
X100182619Y-96912380D01*
X100039761Y-96864761D01*
X99944523Y-96769523D01*
X99896904Y-96674285D01*
X99849285Y-96483809D01*
X99849285Y-96340952D01*
X99896904Y-96150476D01*
X99944523Y-96055238D01*
X100039761Y-95960000D01*
X100182619Y-95912380D01*
X100277857Y-95912380D01*
X100420714Y-95960000D01*
X100468333Y-96007619D01*
X100801666Y-95912380D02*
X101468333Y-95912380D01*
X101039761Y-96912380D01*
X89038333Y-54907142D02*
X88990714Y-54954761D01*
X88847857Y-55002380D01*
X88752619Y-55002380D01*
X88609761Y-54954761D01*
X88514523Y-54859523D01*
X88466904Y-54764285D01*
X88419285Y-54573809D01*
X88419285Y-54430952D01*
X88466904Y-54240476D01*
X88514523Y-54145238D01*
X88609761Y-54050000D01*
X88752619Y-54002380D01*
X88847857Y-54002380D01*
X88990714Y-54050000D01*
X89038333Y-54097619D01*
X89419285Y-54097619D02*
X89466904Y-54050000D01*
X89562142Y-54002380D01*
X89800238Y-54002380D01*
X89895476Y-54050000D01*
X89943095Y-54097619D01*
X89990714Y-54192857D01*
X89990714Y-54288095D01*
X89943095Y-54430952D01*
X89371666Y-55002380D01*
X89990714Y-55002380D01*
X89736904Y-117232380D02*
X89736904Y-116232380D01*
X90117857Y-116232380D01*
X90213095Y-116280000D01*
X90260714Y-116327619D01*
X90308333Y-116422857D01*
X90308333Y-116565714D01*
X90260714Y-116660952D01*
X90213095Y-116708571D01*
X90117857Y-116756190D01*
X89736904Y-116756190D01*
X90689285Y-116327619D02*
X90736904Y-116280000D01*
X90832142Y-116232380D01*
X91070238Y-116232380D01*
X91165476Y-116280000D01*
X91213095Y-116327619D01*
X91260714Y-116422857D01*
X91260714Y-116518095D01*
X91213095Y-116660952D01*
X90641666Y-117232380D01*
X91260714Y-117232380D01*
X98626904Y-117232380D02*
X98626904Y-116232380D01*
X99007857Y-116232380D01*
X99103095Y-116280000D01*
X99150714Y-116327619D01*
X99198333Y-116422857D01*
X99198333Y-116565714D01*
X99150714Y-116660952D01*
X99103095Y-116708571D01*
X99007857Y-116756190D01*
X98626904Y-116756190D01*
X99531666Y-116232380D02*
X100150714Y-116232380D01*
X99817380Y-116613333D01*
X99960238Y-116613333D01*
X100055476Y-116660952D01*
X100103095Y-116708571D01*
X100150714Y-116803809D01*
X100150714Y-117041904D01*
X100103095Y-117137142D01*
X100055476Y-117184761D01*
X99960238Y-117232380D01*
X99674523Y-117232380D01*
X99579285Y-117184761D01*
X99531666Y-117137142D01*
X70798095Y-46809761D02*
X70940952Y-46857380D01*
X71179047Y-46857380D01*
X71274285Y-46809761D01*
X71321904Y-46762142D01*
X71369523Y-46666904D01*
X71369523Y-46571666D01*
X71321904Y-46476428D01*
X71274285Y-46428809D01*
X71179047Y-46381190D01*
X70988571Y-46333571D01*
X70893333Y-46285952D01*
X70845714Y-46238333D01*
X70798095Y-46143095D01*
X70798095Y-46047857D01*
X70845714Y-45952619D01*
X70893333Y-45905000D01*
X70988571Y-45857380D01*
X71226666Y-45857380D01*
X71369523Y-45905000D01*
X72369523Y-46762142D02*
X72321904Y-46809761D01*
X72179047Y-46857380D01*
X72083809Y-46857380D01*
X71940952Y-46809761D01*
X71845714Y-46714523D01*
X71798095Y-46619285D01*
X71750476Y-46428809D01*
X71750476Y-46285952D01*
X71798095Y-46095476D01*
X71845714Y-46000238D01*
X71940952Y-45905000D01*
X72083809Y-45857380D01*
X72179047Y-45857380D01*
X72321904Y-45905000D01*
X72369523Y-45952619D01*
X73321904Y-46857380D02*
X72750476Y-46857380D01*
X73036190Y-46857380D02*
X73036190Y-45857380D01*
X72940952Y-46000238D01*
X72845714Y-46095476D01*
X72750476Y-46143095D01*
X61908095Y-46809761D02*
X62050952Y-46857380D01*
X62289047Y-46857380D01*
X62384285Y-46809761D01*
X62431904Y-46762142D01*
X62479523Y-46666904D01*
X62479523Y-46571666D01*
X62431904Y-46476428D01*
X62384285Y-46428809D01*
X62289047Y-46381190D01*
X62098571Y-46333571D01*
X62003333Y-46285952D01*
X61955714Y-46238333D01*
X61908095Y-46143095D01*
X61908095Y-46047857D01*
X61955714Y-45952619D01*
X62003333Y-45905000D01*
X62098571Y-45857380D01*
X62336666Y-45857380D01*
X62479523Y-45905000D01*
X63479523Y-46762142D02*
X63431904Y-46809761D01*
X63289047Y-46857380D01*
X63193809Y-46857380D01*
X63050952Y-46809761D01*
X62955714Y-46714523D01*
X62908095Y-46619285D01*
X62860476Y-46428809D01*
X62860476Y-46285952D01*
X62908095Y-46095476D01*
X62955714Y-46000238D01*
X63050952Y-45905000D01*
X63193809Y-45857380D01*
X63289047Y-45857380D01*
X63431904Y-45905000D01*
X63479523Y-45952619D01*
X63860476Y-45952619D02*
X63908095Y-45905000D01*
X64003333Y-45857380D01*
X64241428Y-45857380D01*
X64336666Y-45905000D01*
X64384285Y-45952619D01*
X64431904Y-46047857D01*
X64431904Y-46143095D01*
X64384285Y-46285952D01*
X63812857Y-46857380D01*
X64431904Y-46857380D01*
X78870476Y-60987380D02*
X79537142Y-61987380D01*
X79537142Y-60987380D02*
X78870476Y-61987380D01*
X80346666Y-61320714D02*
X80346666Y-61987380D01*
X80108571Y-60939761D02*
X79870476Y-61654047D01*
X80489523Y-61654047D01*
X90300476Y-60987380D02*
X90967142Y-61987380D01*
X90967142Y-60987380D02*
X90300476Y-61987380D01*
X91776666Y-60987380D02*
X91586190Y-60987380D01*
X91490952Y-61035000D01*
X91443333Y-61082619D01*
X91348095Y-61225476D01*
X91300476Y-61415952D01*
X91300476Y-61796904D01*
X91348095Y-61892142D01*
X91395714Y-61939761D01*
X91490952Y-61987380D01*
X91681428Y-61987380D01*
X91776666Y-61939761D01*
X91824285Y-61892142D01*
X91871904Y-61796904D01*
X91871904Y-61558809D01*
X91824285Y-61463571D01*
X91776666Y-61415952D01*
X91681428Y-61368333D01*
X91490952Y-61368333D01*
X91395714Y-61415952D01*
X91348095Y-61463571D01*
X91300476Y-61558809D01*
D13*
D12*
X94372380Y-80076904D02*
X95181904Y-80076904D01*
X95277142Y-80029285D01*
X95324761Y-79981666D01*
X95372380Y-79886428D01*
X95372380Y-79695952D01*
X95324761Y-79600714D01*
X95277142Y-79553095D01*
X95181904Y-79505476D01*
X94372380Y-79505476D01*
X94705714Y-78600714D02*
X95372380Y-78600714D01*
X94324761Y-78838809D02*
X95039047Y-79076904D01*
X95039047Y-78457857D01*
X84021904Y-102627380D02*
X84021904Y-101627380D01*
X84593333Y-102627380D02*
X84164761Y-102055952D01*
X84593333Y-101627380D02*
X84021904Y-102198809D01*
X85545714Y-102627380D02*
X84974285Y-102627380D01*
X85260000Y-102627380D02*
X85260000Y-101627380D01*
X85164761Y-101770238D01*
X85069523Y-101865476D01*
X84974285Y-101913095D01*
X76378095Y-50827380D02*
X76378095Y-51636904D01*
X76425714Y-51732142D01*
X76473333Y-51779761D01*
X76568571Y-51827380D01*
X76759047Y-51827380D01*
X76854285Y-51779761D01*
X76901904Y-51732142D01*
X76949523Y-51636904D01*
X76949523Y-50827380D01*
X77949523Y-51827380D02*
X77378095Y-51827380D01*
X77663809Y-51827380D02*
X77663809Y-50827380D01*
X77568571Y-50970238D01*
X77473333Y-51065476D01*
X77378095Y-51113095D01*
X82728095Y-113057380D02*
X83299523Y-113057380D01*
X83013809Y-114057380D02*
X83013809Y-113057380D01*
X84061428Y-113057380D02*
X83870952Y-113057380D01*
X83775714Y-113105000D01*
X83728095Y-113152619D01*
X83632857Y-113295476D01*
X83585238Y-113485952D01*
X83585238Y-113866904D01*
X83632857Y-113962142D01*
X83680476Y-114009761D01*
X83775714Y-114057380D01*
X83966190Y-114057380D01*
X84061428Y-114009761D01*
X84109047Y-113962142D01*
X84156666Y-113866904D01*
X84156666Y-113628809D01*
X84109047Y-113533571D01*
X84061428Y-113485952D01*
X83966190Y-113438333D01*
X83775714Y-113438333D01*
X83680476Y-113485952D01*
X83632857Y-113533571D01*
X83585238Y-113628809D01*
X82728095Y-109247380D02*
X83299523Y-109247380D01*
X83013809Y-110247380D02*
X83013809Y-109247380D01*
X83537619Y-109247380D02*
X84204285Y-109247380D01*
X83775714Y-110247380D01*
X90348095Y-47652380D02*
X90919523Y-47652380D01*
X90633809Y-48652380D02*
X90633809Y-47652380D01*
X91776666Y-48652380D02*
X91205238Y-48652380D01*
X91490952Y-48652380D02*
X91490952Y-47652380D01*
X91395714Y-47795238D01*
X91300476Y-47890476D01*
X91205238Y-47938095D01*
X71155238Y-55272380D02*
X71393333Y-56272380D01*
X71583809Y-55558095D01*
X71774285Y-56272380D01*
X72012380Y-55272380D01*
X72345714Y-55367619D02*
X72393333Y-55320000D01*
X72488571Y-55272380D01*
X72726666Y-55272380D01*
X72821904Y-55320000D01*
X72869523Y-55367619D01*
X72917142Y-55462857D01*
X72917142Y-55558095D01*
X72869523Y-55700952D01*
X72298095Y-56272380D01*
X72917142Y-56272380D01*
X122590238Y-55272380D02*
X122828333Y-56272380D01*
X123018809Y-55558095D01*
X123209285Y-56272380D01*
X123447380Y-55272380D01*
X124256904Y-55605714D02*
X124256904Y-56272380D01*
X124018809Y-55224761D02*
X123780714Y-55939047D01*
X124399761Y-55939047D01*
X111795238Y-55272380D02*
X112033333Y-56272380D01*
X112223809Y-55558095D01*
X112414285Y-56272380D01*
X112652380Y-55272380D01*
X113509523Y-55272380D02*
X113033333Y-55272380D01*
X112985714Y-55748571D01*
X113033333Y-55700952D01*
X113128571Y-55653333D01*
X113366666Y-55653333D01*
X113461904Y-55700952D01*
X113509523Y-55748571D01*
X113557142Y-55843809D01*
X113557142Y-56081904D01*
X113509523Y-56177142D01*
X113461904Y-56224761D01*
X113366666Y-56272380D01*
X113128571Y-56272380D01*
X113033333Y-56224761D01*
X112985714Y-56177142D01*
X98452142Y-52176666D02*
X98499761Y-52224285D01*
X98547380Y-52367142D01*
X98547380Y-52462380D01*
X98499761Y-52605238D01*
X98404523Y-52700476D01*
X98309285Y-52748095D01*
X98118809Y-52795714D01*
X97975952Y-52795714D01*
X97785476Y-52748095D01*
X97690238Y-52700476D01*
X97595000Y-52605238D01*
X97547380Y-52462380D01*
X97547380Y-52367142D01*
X97595000Y-52224285D01*
X97642619Y-52176666D01*
X97547380Y-51843333D02*
X97547380Y-51224285D01*
X97928333Y-51557619D01*
X97928333Y-51414761D01*
X97975952Y-51319523D01*
X98023571Y-51271904D01*
X98118809Y-51224285D01*
X98356904Y-51224285D01*
X98452142Y-51271904D01*
X98499761Y-51319523D01*
X98547380Y-51414761D01*
X98547380Y-51700476D01*
X98499761Y-51795714D01*
X98452142Y-51843333D01*
X119423333Y-56697142D02*
X119375714Y-56744761D01*
X119232857Y-56792380D01*
X119137619Y-56792380D01*
X118994761Y-56744761D01*
X118899523Y-56649523D01*
X118851904Y-56554285D01*
X118804285Y-56363809D01*
X118804285Y-56220952D01*
X118851904Y-56030476D01*
X118899523Y-55935238D01*
X118994761Y-55840000D01*
X119137619Y-55792380D01*
X119232857Y-55792380D01*
X119375714Y-55840000D01*
X119423333Y-55887619D01*
X120328095Y-55792380D02*
X119851904Y-55792380D01*
X119804285Y-56268571D01*
X119851904Y-56220952D01*
X119947142Y-56173333D01*
X120185238Y-56173333D01*
X120280476Y-56220952D01*
X120328095Y-56268571D01*
X120375714Y-56363809D01*
X120375714Y-56601904D01*
X120328095Y-56697142D01*
X120280476Y-56744761D01*
X120185238Y-56792380D01*
X119947142Y-56792380D01*
X119851904Y-56744761D01*
X119804285Y-56697142D01*
X81481904Y-48017380D02*
X81481904Y-47017380D01*
X81862857Y-47017380D01*
X81958095Y-47065000D01*
X82005714Y-47112619D01*
X82053333Y-47207857D01*
X82053333Y-47350714D01*
X82005714Y-47445952D01*
X81958095Y-47493571D01*
X81862857Y-47541190D01*
X81481904Y-47541190D01*
X83005714Y-48017380D02*
X82434285Y-48017380D01*
X82720000Y-48017380D02*
X82720000Y-47017380D01*
X82624761Y-47160238D01*
X82529523Y-47255476D01*
X82434285Y-47303095D01*
X73226904Y-87387380D02*
X73226904Y-86387380D01*
X73607857Y-86387380D01*
X73703095Y-86435000D01*
X73750714Y-86482619D01*
X73798333Y-86577857D01*
X73798333Y-86720714D01*
X73750714Y-86815952D01*
X73703095Y-86863571D01*
X73607857Y-86911190D01*
X73226904Y-86911190D01*
X74655476Y-86720714D02*
X74655476Y-87387380D01*
X74417380Y-86339761D02*
X74179285Y-87054047D01*
X74798333Y-87054047D01*
X76497142Y-105167380D02*
X76163809Y-104691190D01*
X75925714Y-105167380D02*
X75925714Y-104167380D01*
X76306666Y-104167380D01*
X76401904Y-104215000D01*
X76449523Y-104262619D01*
X76497142Y-104357857D01*
X76497142Y-104500714D01*
X76449523Y-104595952D01*
X76401904Y-104643571D01*
X76306666Y-104691190D01*
X75925714Y-104691190D01*
X77449523Y-105167380D02*
X76878095Y-105167380D01*
X77163809Y-105167380D02*
X77163809Y-104167380D01*
X77068571Y-104310238D01*
X76973333Y-104405476D01*
X76878095Y-104453095D01*
X77830476Y-104262619D02*
X77878095Y-104215000D01*
X77973333Y-104167380D01*
X78211428Y-104167380D01*
X78306666Y-104215000D01*
X78354285Y-104262619D01*
X78401904Y-104357857D01*
X78401904Y-104453095D01*
X78354285Y-104595952D01*
X77782857Y-105167380D01*
X78401904Y-105167380D01*
X72568095Y-73112380D02*
X72568095Y-73921904D01*
X72615714Y-74017142D01*
X72663333Y-74064761D01*
X72758571Y-74112380D01*
X72949047Y-74112380D01*
X73044285Y-74064761D01*
X73091904Y-74017142D01*
X73139523Y-73921904D01*
X73139523Y-73112380D01*
X74091904Y-73112380D02*
X73615714Y-73112380D01*
X73568095Y-73588571D01*
X73615714Y-73540952D01*
X73710952Y-73493333D01*
X73949047Y-73493333D01*
X74044285Y-73540952D01*
X74091904Y-73588571D01*
X74139523Y-73683809D01*
X74139523Y-73921904D01*
X74091904Y-74017142D01*
X74044285Y-74064761D01*
X73949047Y-74112380D01*
X73710952Y-74112380D01*
X73615714Y-74064761D01*
X73568095Y-74017142D01*
X64313095Y-106072380D02*
X64313095Y-106881904D01*
X64360714Y-106977142D01*
X64408333Y-107024761D01*
X64503571Y-107072380D01*
X64694047Y-107072380D01*
X64789285Y-107024761D01*
X64836904Y-106977142D01*
X64884523Y-106881904D01*
X64884523Y-106072380D01*
X65789285Y-106072380D02*
X65598809Y-106072380D01*
X65503571Y-106120000D01*
X65455952Y-106167619D01*
X65360714Y-106310476D01*
X65313095Y-106500952D01*
X65313095Y-106881904D01*
X65360714Y-106977142D01*
X65408333Y-107024761D01*
X65503571Y-107072380D01*
X65694047Y-107072380D01*
X65789285Y-107024761D01*
X65836904Y-106977142D01*
X65884523Y-106881904D01*
X65884523Y-106643809D01*
X65836904Y-106548571D01*
X65789285Y-106500952D01*
X65694047Y-106453333D01*
X65503571Y-106453333D01*
X65408333Y-106500952D01*
X65360714Y-106548571D01*
X65313095Y-106643809D01*
X76973333Y-60242380D02*
X76640000Y-59766190D01*
X76401904Y-60242380D02*
X76401904Y-59242380D01*
X76782857Y-59242380D01*
X76878095Y-59290000D01*
X76925714Y-59337619D01*
X76973333Y-59432857D01*
X76973333Y-59575714D01*
X76925714Y-59670952D01*
X76878095Y-59718571D01*
X76782857Y-59766190D01*
X76401904Y-59766190D01*
X77354285Y-59337619D02*
X77401904Y-59290000D01*
X77497142Y-59242380D01*
X77735238Y-59242380D01*
X77830476Y-59290000D01*
X77878095Y-59337619D01*
X77925714Y-59432857D01*
X77925714Y-59528095D01*
X77878095Y-59670952D01*
X77306666Y-60242380D01*
X77925714Y-60242380D01*
X59820476Y-84002380D02*
X60487142Y-85002380D01*
X60487142Y-84002380D02*
X59820476Y-85002380D01*
X60820476Y-84097619D02*
X60868095Y-84050000D01*
X60963333Y-84002380D01*
X61201428Y-84002380D01*
X61296666Y-84050000D01*
X61344285Y-84097619D01*
X61391904Y-84192857D01*
X61391904Y-84288095D01*
X61344285Y-84430952D01*
X60772857Y-85002380D01*
X61391904Y-85002380D01*
M02*
