G04 #@! TF.GenerationSoftware,KiCad,Pcbnew,(5.1.0)-1*
G04 #@! TF.CreationDate,2019-06-24T21:59:01+02:00*
G04 #@! TF.ProjectId,LampeSolaire,4c616d70-6553-46f6-9c61-6972652e6b69,6.2*
G04 #@! TF.SameCoordinates,Original*
G04 #@! TF.FileFunction,Copper,L1,Top*
G04 #@! TF.FilePolarity,Positive*
%FSLAX46Y46*%
G04 Gerber Fmt 4.6, Leading zero omitted, Abs format (unit mm)*
G04 Created by KiCad (PCBNEW (5.1.0)-1) date 2019-06-24 21:59:01*
%MOMM*%
%LPD*%
G04 APERTURE LIST*
%ADD10C,0.050000*%
%ADD11C,0.250000*%
%ADD12R,1.700000X2.600000*%
%ADD13R,0.630000X0.450000*%
%ADD14R,0.600000X2.500000*%
%ADD15R,2.000000X3.500000*%
%ADD16R,2.032000X3.048000*%
%ADD17R,1.560000X0.650000*%
%ADD18R,1.700000X0.800000*%
%ADD19C,1.900000*%
%ADD20R,1.900000X1.900000*%
%ADD21R,1.400000X1.000000*%
%ADD22R,1.750000X0.450000*%
%ADD23R,1.500000X1.300000*%
%ADD24R,1.250000X1.500000*%
%ADD25C,1.800000*%
%ADD26R,1.500000X1.250000*%
%ADD27O,1.700000X1.700000*%
%ADD28R,1.700000X1.700000*%
%ADD29R,1.300000X1.500000*%
%ADD30C,1.000000*%
%ADD31C,0.800000*%
%ADD32C,0.700000*%
%ADD33C,0.450000*%
%ADD34C,0.500000*%
%ADD35C,0.600000*%
G04 APERTURE END LIST*
D10*
G36*
X80505500Y-92103900D02*
G01*
X80505500Y-97349000D01*
X78854500Y-97349000D01*
X78854500Y-92100600D01*
X80505500Y-92103900D01*
G37*
X80505500Y-92103900D02*
X80505500Y-97349000D01*
X78854500Y-97349000D01*
X78854500Y-92100600D01*
X80505500Y-92103900D01*
D11*
X61522380Y-110808571D02*
X61189047Y-110808571D01*
X61189047Y-111332380D02*
X61189047Y-110332380D01*
X61665238Y-110332380D01*
X62046190Y-111237142D02*
X62093809Y-111284761D01*
X62046190Y-111332380D01*
X61998571Y-111284761D01*
X62046190Y-111237142D01*
X62046190Y-111332380D01*
X63093809Y-111237142D02*
X63046190Y-111284761D01*
X62903333Y-111332380D01*
X62808095Y-111332380D01*
X62665238Y-111284761D01*
X62570000Y-111189523D01*
X62522380Y-111094285D01*
X62474761Y-110903809D01*
X62474761Y-110760952D01*
X62522380Y-110570476D01*
X62570000Y-110475238D01*
X62665238Y-110380000D01*
X62808095Y-110332380D01*
X62903333Y-110332380D01*
X63046190Y-110380000D01*
X63093809Y-110427619D01*
X63950952Y-110665714D02*
X63950952Y-111332380D01*
X63522380Y-110665714D02*
X63522380Y-111189523D01*
X63570000Y-111284761D01*
X63665238Y-111332380D01*
X63808095Y-111332380D01*
X63903333Y-111284761D01*
X63950952Y-111237142D01*
X65189047Y-110951428D02*
X65950952Y-110951428D01*
X67046190Y-110332380D02*
X67379523Y-111332380D01*
X67712857Y-110332380D01*
X68474761Y-110332380D02*
X68284285Y-110332380D01*
X68189047Y-110380000D01*
X68141428Y-110427619D01*
X68046190Y-110570476D01*
X67998571Y-110760952D01*
X67998571Y-111141904D01*
X68046190Y-111237142D01*
X68093809Y-111284761D01*
X68189047Y-111332380D01*
X68379523Y-111332380D01*
X68474761Y-111284761D01*
X68522380Y-111237142D01*
X68570000Y-111141904D01*
X68570000Y-110903809D01*
X68522380Y-110808571D01*
X68474761Y-110760952D01*
X68379523Y-110713333D01*
X68189047Y-110713333D01*
X68093809Y-110760952D01*
X68046190Y-110808571D01*
X67998571Y-110903809D01*
X68998571Y-111237142D02*
X69046190Y-111284761D01*
X68998571Y-111332380D01*
X68950952Y-111284761D01*
X68998571Y-111237142D01*
X68998571Y-111332380D01*
X69427142Y-110427619D02*
X69474761Y-110380000D01*
X69570000Y-110332380D01*
X69808095Y-110332380D01*
X69903333Y-110380000D01*
X69950952Y-110427619D01*
X69998571Y-110522857D01*
X69998571Y-110618095D01*
X69950952Y-110760952D01*
X69379523Y-111332380D01*
X69998571Y-111332380D01*
D12*
X79680000Y-95190000D03*
D13*
X78340000Y-94240000D03*
X78340000Y-95190000D03*
X78340000Y-96140000D03*
X81020000Y-96140000D03*
X81020000Y-95190000D03*
X81020000Y-94240000D03*
D14*
X103850000Y-52140000D03*
D15*
X102000000Y-48040000D03*
X108200000Y-48040000D03*
D14*
X105100000Y-52140000D03*
X106350000Y-52140000D03*
X77023000Y-111030000D03*
X78273000Y-111030000D03*
D15*
X74673000Y-115130000D03*
X80623000Y-115130000D03*
D14*
X85913000Y-111030000D03*
X87163000Y-111030000D03*
D15*
X83563000Y-115130000D03*
X89513000Y-115130000D03*
X69085000Y-48040000D03*
X75035000Y-48040000D03*
D14*
X71435000Y-52140000D03*
X72685000Y-52140000D03*
D15*
X76705000Y-63280000D03*
X82655000Y-63280000D03*
D14*
X79055000Y-67380000D03*
X80305000Y-67380000D03*
D15*
X88135000Y-63280000D03*
X94085000Y-63280000D03*
D14*
X90485000Y-67380000D03*
X91735000Y-67380000D03*
D16*
X97460000Y-70282000D03*
X97460000Y-89078000D03*
X100000000Y-70282000D03*
X100000000Y-89078000D03*
X102540000Y-70282000D03*
X102540000Y-89078000D03*
X105080000Y-70282000D03*
X105080000Y-89078000D03*
X107620000Y-70282000D03*
X107620000Y-89078000D03*
X110160000Y-70282000D03*
X110160000Y-89078000D03*
D17*
X75790000Y-55230000D03*
X75790000Y-53330000D03*
X78490000Y-53330000D03*
X78490000Y-54280000D03*
X78490000Y-55230000D03*
D18*
X89710000Y-50470000D03*
X92510000Y-49520000D03*
X92510000Y-51420000D03*
D19*
X86030000Y-58090000D03*
D20*
X83490000Y-58090000D03*
D19*
X125990000Y-57200000D03*
D20*
X125990000Y-54660000D03*
D19*
X113970000Y-58090000D03*
D20*
X111430000Y-58090000D03*
D21*
X72205000Y-84760000D03*
X74455000Y-84760000D03*
D22*
X69730000Y-75485000D03*
X69730000Y-76135000D03*
X69730000Y-76785000D03*
X69730000Y-77435000D03*
X69730000Y-78085000D03*
X69730000Y-78735000D03*
X69730000Y-79385000D03*
X69730000Y-80035000D03*
X69730000Y-80685000D03*
X69730000Y-81335000D03*
X76930000Y-81335000D03*
X76930000Y-80685000D03*
X76930000Y-80035000D03*
X76930000Y-79385000D03*
X76930000Y-78735000D03*
X76930000Y-78085000D03*
X76930000Y-77435000D03*
X76930000Y-76785000D03*
X76930000Y-76135000D03*
X76930000Y-75485000D03*
D23*
X75790000Y-58090000D03*
X78490000Y-58090000D03*
X89170000Y-87680000D03*
X91870000Y-87680000D03*
D18*
X65580000Y-61220000D03*
X65580000Y-63120000D03*
X68380000Y-62170000D03*
D24*
X73330000Y-96170000D03*
X73330000Y-93670000D03*
X91110000Y-55570000D03*
X91110000Y-58070000D03*
D25*
X105588000Y-112700000D03*
X103048000Y-107620000D03*
X105588000Y-100000000D03*
X97968000Y-100000000D03*
X95428000Y-107620000D03*
X97968000Y-112700000D03*
D24*
X96190000Y-49220000D03*
X96190000Y-51720000D03*
D26*
X120300000Y-58090000D03*
X117800000Y-58090000D03*
D24*
X86030000Y-97440000D03*
X86030000Y-94940000D03*
D27*
X60630000Y-72060000D03*
X60630000Y-74600000D03*
X60630000Y-77140000D03*
X60630000Y-79680000D03*
D28*
X60630000Y-82220000D03*
D29*
X80950000Y-105160000D03*
X80950000Y-102460000D03*
X83490000Y-102460000D03*
X83490000Y-105160000D03*
D19*
X51740000Y-72060000D03*
X51740000Y-82220000D03*
X51740000Y-84760000D03*
X51740000Y-87300000D03*
X51740000Y-79680000D03*
X51740000Y-77140000D03*
X51740000Y-74600000D03*
D30*
X74092000Y-53264000D03*
D31*
X95460000Y-72854000D03*
X95460000Y-94190000D03*
X63932000Y-77140000D03*
X99746000Y-94158000D03*
X63932000Y-72822000D03*
X71552000Y-78410000D03*
X97460000Y-62678000D03*
X95460000Y-87667000D03*
X107588000Y-94190000D03*
X72060000Y-72822000D03*
X70536000Y-63170000D03*
X57455000Y-72060000D03*
X57455000Y-77140000D03*
D30*
X116510000Y-60392000D03*
X87427000Y-60392000D03*
X88951000Y-94920000D03*
D31*
X79934000Y-56312000D03*
X116002000Y-54026000D03*
X112700000Y-49200000D03*
X100254000Y-47438000D03*
X100254000Y-55566000D03*
X66472000Y-82220000D03*
X66472000Y-77902000D03*
X64948000Y-77902000D03*
X62916000Y-87554000D03*
X62916000Y-74600000D03*
X80696000Y-79680000D03*
X80696000Y-87554000D03*
X62916000Y-84760000D03*
X62154000Y-88316000D03*
X62154000Y-72060000D03*
X79934000Y-80442000D03*
X79934000Y-88316000D03*
D30*
X80950000Y-58090000D03*
X84760000Y-56090000D03*
X102032000Y-58090000D03*
X115748000Y-50724000D03*
X117272000Y-53060000D03*
X119354000Y-53060000D03*
X103810000Y-54042000D03*
X71425000Y-56058000D03*
X109700000Y-52060000D03*
X114732000Y-55550000D03*
X123114000Y-53264000D03*
X98730000Y-49708000D03*
X98730000Y-55550000D03*
X87300000Y-50470000D03*
D31*
X89078000Y-69266000D03*
X86527000Y-69277000D03*
X86538000Y-80950000D03*
X65710000Y-84760000D03*
X65710000Y-75870000D03*
X100000000Y-84760000D03*
X100000000Y-86538000D03*
X82982000Y-75616000D03*
X82982000Y-84760000D03*
X105080000Y-72822000D03*
X102540000Y-86538000D03*
X102540000Y-82982000D03*
X84887000Y-69266000D03*
X84887000Y-75362000D03*
X102540000Y-74600000D03*
X102540000Y-72822000D03*
X67234000Y-78664000D03*
X67234000Y-69266000D03*
X83998000Y-70790000D03*
X67996000Y-80950000D03*
X67996000Y-70790000D03*
X100000000Y-74600000D03*
X100000000Y-72822000D03*
X83998000Y-74600000D03*
X54915000Y-79680000D03*
X54915000Y-70790000D03*
X67234000Y-80188000D03*
X67234000Y-89840000D03*
X55677000Y-77140000D03*
X55677000Y-89840000D03*
X97460000Y-76124000D03*
X85776000Y-76124000D03*
X97460000Y-72822000D03*
X85776000Y-81966000D03*
X54915000Y-82220000D03*
X54915000Y-90602000D03*
X85776000Y-90602000D03*
X79045000Y-77521000D03*
X77013000Y-67488000D03*
X97460000Y-79680000D03*
X64694000Y-86665000D03*
X71996500Y-86665000D03*
X64694000Y-79680000D03*
X100000000Y-66980000D03*
X91735000Y-71806000D03*
X71536000Y-71806000D03*
X113970000Y-61662000D03*
X102413000Y-61662000D03*
X65628000Y-65963000D03*
X81630000Y-68503000D03*
X81631000Y-71806000D03*
X105080000Y-93015000D03*
X91735000Y-69012000D03*
X74600000Y-71806000D03*
X74600000Y-65964000D03*
X74600000Y-78410000D03*
X105080000Y-80950000D03*
X91745000Y-80950000D03*
X62916000Y-63170000D03*
X56566000Y-74600000D03*
X56566000Y-79680000D03*
D30*
X76100000Y-93190000D03*
X80950000Y-100000000D03*
D31*
X82220000Y-77156000D03*
X83426500Y-95190000D03*
X82220000Y-87635000D03*
X66472000Y-76759000D03*
X66472000Y-70028000D03*
X80950000Y-107620000D03*
X87046000Y-107620000D03*
X83490000Y-107620000D03*
X76632000Y-84760000D03*
D32*
X75790000Y-53330000D02*
X74158000Y-53330000D01*
X74158000Y-53330000D02*
X74092000Y-53264000D01*
X72685000Y-52140000D02*
X72685000Y-54016000D01*
X72685000Y-54016000D02*
X73203000Y-54534000D01*
X73203000Y-54534000D02*
X73711000Y-54534000D01*
X74092000Y-54153000D02*
X74092000Y-53264000D01*
X73711000Y-54534000D02*
X74092000Y-54153000D01*
D33*
X95460000Y-94190000D02*
X106826000Y-94190000D01*
X109366000Y-94190000D02*
X107588000Y-94190000D01*
X107588000Y-94190000D02*
X106826000Y-94190000D01*
X110160000Y-93396000D02*
X109366000Y-94190000D01*
X110160000Y-89078000D02*
X110160000Y-93396000D01*
X109366000Y-94190000D02*
X95460000Y-94190000D01*
X107620000Y-94158000D02*
X107588000Y-94190000D01*
X107620000Y-89078000D02*
X107620000Y-94158000D01*
X60630000Y-77140000D02*
X63932000Y-77140000D01*
X99778000Y-94190000D02*
X99746000Y-94158000D01*
X71227000Y-78735000D02*
X71552000Y-78410000D01*
X110160000Y-68058000D02*
X110160000Y-62662000D01*
X110160000Y-70282000D02*
X110160000Y-68058000D01*
X110160000Y-62662000D02*
X97476000Y-62662000D01*
X97476000Y-62662000D02*
X97460000Y-62678000D01*
X95447000Y-87680000D02*
X95460000Y-87667000D01*
X91870000Y-87680000D02*
X95447000Y-87680000D01*
X71227000Y-78085000D02*
X71552000Y-78410000D01*
X69730000Y-78085000D02*
X71227000Y-78085000D01*
X69730000Y-78735000D02*
X71227000Y-78735000D01*
X124646498Y-57200000D02*
X123756498Y-58090000D01*
X125990000Y-57200000D02*
X124646498Y-57200000D01*
X123756498Y-58090000D02*
X120300000Y-58090000D01*
X120300000Y-61920000D02*
X119558000Y-62662000D01*
X120300000Y-58090000D02*
X120300000Y-61920000D01*
X119558000Y-62662000D02*
X110160000Y-62662000D01*
X95428000Y-72822000D02*
X95460000Y-72854000D01*
X63932000Y-72822000D02*
X72060000Y-72822000D01*
X72060000Y-72822000D02*
X95428000Y-72822000D01*
X68380000Y-62170000D02*
X70298000Y-62170000D01*
X70536000Y-62408000D02*
X70536000Y-63170000D01*
X70298000Y-62170000D02*
X70536000Y-62408000D01*
X92500000Y-92500000D02*
X79995100Y-92500000D01*
X94190000Y-94190000D02*
X92500000Y-92500000D01*
X95460000Y-94190000D02*
X94190000Y-94190000D01*
X79680000Y-92815100D02*
X79995100Y-92500000D01*
X79680000Y-95190000D02*
X79680000Y-92815100D01*
X73360000Y-96140000D02*
X73330000Y-96170000D01*
X76074000Y-96140000D02*
X76074000Y-97029000D01*
X76074000Y-96140000D02*
X73360000Y-96140000D01*
X78340000Y-96140000D02*
X76074000Y-96140000D01*
X76074000Y-97029000D02*
X77648000Y-98603000D01*
X84145000Y-97440000D02*
X86030000Y-97440000D01*
X82982000Y-98603000D02*
X84145000Y-97440000D01*
X79680000Y-96940000D02*
X79680000Y-98603000D01*
X79680000Y-95190000D02*
X79680000Y-96940000D01*
X77648000Y-98603000D02*
X79680000Y-98603000D01*
X79680000Y-98603000D02*
X82982000Y-98603000D01*
X85913000Y-111030000D02*
X85913000Y-101641000D01*
X85913000Y-101534000D02*
X85913000Y-101641000D01*
X82982000Y-98603000D02*
X85913000Y-101534000D01*
X77023000Y-99228000D02*
X77648000Y-98603000D01*
X77023000Y-111030000D02*
X77023000Y-99228000D01*
X51740000Y-72060000D02*
X57455000Y-72060000D01*
X57455000Y-77140000D02*
X60630000Y-77140000D01*
D32*
X116510000Y-60392000D02*
X87427000Y-60392000D01*
D34*
X82055000Y-94240000D02*
X81030001Y-94240000D01*
D32*
X82055000Y-94240000D02*
X83953000Y-94240000D01*
X84653000Y-94940000D02*
X86030000Y-94940000D01*
X83953000Y-94240000D02*
X84653000Y-94940000D01*
X86030000Y-94940000D02*
X88931000Y-94940000D01*
X88931000Y-94940000D02*
X88951000Y-94920000D01*
D11*
X79614000Y-55230000D02*
X78490000Y-55230000D01*
X79614000Y-55230000D02*
X79934000Y-55550000D01*
X79934000Y-55550000D02*
X79934000Y-56312000D01*
X74600000Y-58090000D02*
X75790000Y-58090000D01*
X74346000Y-57836000D02*
X74600000Y-58090000D01*
X74346000Y-57836000D02*
X74346000Y-55423000D01*
X74539000Y-55230000D02*
X75790000Y-55230000D01*
X74346000Y-55423000D02*
X74539000Y-55230000D01*
X116002000Y-54026000D02*
X113462000Y-54026000D01*
X113462000Y-54026000D02*
X112700000Y-53264000D01*
X112700000Y-53264000D02*
X112700000Y-49200000D01*
X100254000Y-55566000D02*
X100254000Y-47438000D01*
X60630000Y-82220000D02*
X66472000Y-82220000D01*
X66939000Y-77435000D02*
X66472000Y-77902000D01*
X66939000Y-77435000D02*
X69730000Y-77435000D01*
X64948000Y-77902000D02*
X66472000Y-77902000D01*
X60630000Y-74600000D02*
X62916000Y-74600000D01*
X76930000Y-79385000D02*
X80655000Y-79385000D01*
X80655000Y-79385000D02*
X80696000Y-79680000D01*
X80696000Y-87554000D02*
X62916000Y-87554000D01*
X51740000Y-84760000D02*
X62916000Y-84760000D01*
X62154000Y-72060000D02*
X60630000Y-72060000D01*
X76930000Y-80035000D02*
X79781000Y-80035000D01*
X79781000Y-80035000D02*
X79934000Y-80442000D01*
X79934000Y-88316000D02*
X62154000Y-88316000D01*
X51740000Y-87300000D02*
X60122000Y-87300000D01*
X61138000Y-88316000D02*
X62154000Y-88316000D01*
X60122000Y-87300000D02*
X61138000Y-88316000D01*
D32*
X78490000Y-53330000D02*
X82540000Y-53330000D01*
X83490000Y-54280000D02*
X83490000Y-58090000D01*
X82540000Y-53330000D02*
X83490000Y-54280000D01*
X78490000Y-54280000D02*
X80188000Y-54280000D01*
X80950000Y-55042000D02*
X80950000Y-58090000D01*
X80188000Y-54280000D02*
X80950000Y-55042000D01*
X80950000Y-58090000D02*
X78490000Y-58090000D01*
X94412000Y-56090000D02*
X96190000Y-56090000D01*
X96190000Y-56090000D02*
X97746000Y-56090000D01*
X97746000Y-56090000D02*
X99746000Y-58090000D01*
X99746000Y-58090000D02*
X102032000Y-58090000D01*
X117272000Y-53060000D02*
X119354000Y-53060000D01*
X115748000Y-50724000D02*
X116510000Y-50724000D01*
X117272000Y-51486000D02*
X117272000Y-53060000D01*
X116510000Y-50724000D02*
X117272000Y-51486000D01*
X71435000Y-52140000D02*
X71435000Y-53397000D01*
X103850000Y-52140000D02*
X103850000Y-54002000D01*
X103850000Y-54002000D02*
X103810000Y-54042000D01*
X103810000Y-54042000D02*
X103810000Y-57090000D01*
X102810000Y-58090000D02*
X102032000Y-58090000D01*
X103810000Y-57090000D02*
X102810000Y-58090000D01*
X84760000Y-56090000D02*
X88160000Y-56090000D01*
X93525000Y-56090000D02*
X94129000Y-56090000D01*
X94129000Y-56090000D02*
X94412000Y-56090000D01*
X88680000Y-55570000D02*
X91110000Y-55570000D01*
X88160000Y-56090000D02*
X88680000Y-55570000D01*
X92955000Y-56090000D02*
X93525000Y-56090000D01*
X92435000Y-55570000D02*
X92955000Y-56090000D01*
X91110000Y-55570000D02*
X92435000Y-55570000D01*
X95890000Y-51420000D02*
X96190000Y-51720000D01*
X92510000Y-51420000D02*
X95890000Y-51420000D01*
X96190000Y-51720000D02*
X96190000Y-56090000D01*
X71435000Y-56048000D02*
X71425000Y-56058000D01*
X71435000Y-52140000D02*
X71435000Y-56048000D01*
X96698000Y-58090000D02*
X97714000Y-59106000D01*
X97714000Y-59106000D02*
X104318000Y-59106000D01*
X104318000Y-59106000D02*
X104064000Y-59106000D01*
X104318000Y-59106000D02*
X106350000Y-57074000D01*
X106350000Y-57074000D02*
X106350000Y-52140000D01*
X87955000Y-58070000D02*
X91110000Y-58070000D01*
X87935000Y-58090000D02*
X87955000Y-58070000D01*
X86030000Y-58090000D02*
X87935000Y-58090000D01*
X96678000Y-58070000D02*
X96698000Y-58090000D01*
X91110000Y-58070000D02*
X96678000Y-58070000D01*
X111430000Y-58090000D02*
X111430000Y-56312000D01*
X109700000Y-54582000D02*
X109700000Y-52060000D01*
X111430000Y-56312000D02*
X109700000Y-54582000D01*
X114732000Y-55550000D02*
X121844000Y-55550000D01*
X121844000Y-55550000D02*
X123114000Y-54280000D01*
X123114000Y-54280000D02*
X123114000Y-53264000D01*
X98730000Y-55550000D02*
X98730000Y-49708000D01*
X95890000Y-49520000D02*
X96190000Y-49220000D01*
X92510000Y-49520000D02*
X95890000Y-49520000D01*
X98242000Y-49220000D02*
X98730000Y-49708000D01*
X96190000Y-49220000D02*
X98242000Y-49220000D01*
X89710000Y-50470000D02*
X87300000Y-50470000D01*
D11*
X90485000Y-66980000D02*
X90485000Y-68875000D01*
X90094000Y-69266000D02*
X89078000Y-69266000D01*
X90485000Y-68875000D02*
X90094000Y-69266000D01*
X89067000Y-69277000D02*
X89078000Y-69266000D01*
X86527000Y-69277000D02*
X89067000Y-69277000D01*
X83236000Y-81331000D02*
X83617000Y-80950000D01*
X76930000Y-80685000D02*
X78018000Y-80685000D01*
X78018000Y-80685000D02*
X78664000Y-81331000D01*
X78664000Y-81331000D02*
X83236000Y-81331000D01*
X83617000Y-80950000D02*
X86538000Y-80950000D01*
X66974002Y-76135000D02*
X66709002Y-75870000D01*
X69730000Y-76135000D02*
X66974002Y-76135000D01*
X66709002Y-75870000D02*
X65710000Y-75870000D01*
X72205000Y-84760000D02*
X65710000Y-84760000D01*
X100000000Y-89078000D02*
X100000000Y-86538000D01*
X76930000Y-75485000D02*
X82851000Y-75485000D01*
X82851000Y-75485000D02*
X82982000Y-75616000D01*
X82982000Y-84760000D02*
X100000000Y-84760000D01*
X68758000Y-73838000D02*
X93650000Y-73838000D01*
X68627000Y-75485000D02*
X68250000Y-75108000D01*
X68250000Y-75108000D02*
X68250000Y-74346000D01*
X68250000Y-74346000D02*
X68758000Y-73838000D01*
X69730000Y-75485000D02*
X68627000Y-75485000D01*
X105080000Y-70282000D02*
X105080000Y-72822000D01*
X105080000Y-73584000D02*
X105080000Y-72822000D01*
X93650000Y-73838000D02*
X104826000Y-73838000D01*
X104826000Y-73838000D02*
X105080000Y-73584000D01*
X102540000Y-89078000D02*
X102540000Y-86538000D01*
X69730000Y-81335000D02*
X68754000Y-81335000D01*
X68754000Y-81335000D02*
X68377000Y-81712000D01*
X68377000Y-81712000D02*
X68377000Y-82474000D01*
X68377000Y-82474000D02*
X68885000Y-82982000D01*
X68885000Y-82982000D02*
X102540000Y-82982000D01*
X102540000Y-75108000D02*
X102540000Y-74600000D01*
X102286000Y-75362000D02*
X102540000Y-75108000D01*
X102540000Y-70282000D02*
X102540000Y-72822000D01*
X67955000Y-79385000D02*
X69730000Y-79385000D01*
X67955000Y-79385000D02*
X67234000Y-78664000D01*
X67234000Y-69266000D02*
X84887000Y-69266000D01*
X84887000Y-75362000D02*
X102286000Y-75362000D01*
X68261000Y-80685000D02*
X67996000Y-80950000D01*
X69730000Y-80685000D02*
X68261000Y-80685000D01*
X100000000Y-72822000D02*
X100000000Y-70282000D01*
X67996000Y-70790000D02*
X83998000Y-70790000D01*
X83998000Y-74600000D02*
X100000000Y-74600000D01*
X51740000Y-79680000D02*
X54915000Y-79680000D01*
X54915000Y-70790000D02*
X67996000Y-70790000D01*
X67387000Y-80035000D02*
X67234000Y-80188000D01*
X69730000Y-80035000D02*
X67387000Y-80035000D01*
X96698000Y-89840000D02*
X97460000Y-89078000D01*
X67234000Y-89840000D02*
X96698000Y-89840000D01*
X51740000Y-77140000D02*
X55677000Y-77140000D01*
X55677000Y-89840000D02*
X67234000Y-89840000D01*
X97460000Y-70282000D02*
X97460000Y-72822000D01*
X97460000Y-76124000D02*
X85776000Y-76124000D01*
X78033000Y-81335000D02*
X78410000Y-81712000D01*
X76930000Y-81335000D02*
X78033000Y-81335000D01*
X78410000Y-81712000D02*
X78664000Y-81966000D01*
X78664000Y-81966000D02*
X85776000Y-81966000D01*
X51740000Y-82220000D02*
X54915000Y-82220000D01*
X54915000Y-90602000D02*
X85776000Y-90602000D01*
X76930000Y-77435000D02*
X78959000Y-77435000D01*
X78959000Y-77435000D02*
X79045000Y-77521000D01*
X78947000Y-67488000D02*
X79055000Y-67380000D01*
X77013000Y-67488000D02*
X78947000Y-67488000D01*
X76930000Y-76135000D02*
X82474000Y-76135000D01*
X82474000Y-76135000D02*
X82468002Y-76135000D01*
X82474000Y-76135000D02*
X82501998Y-76135000D01*
X82501998Y-76135000D02*
X83252998Y-76886000D01*
X97460000Y-79114315D02*
X97460000Y-76886000D01*
X97460000Y-79680000D02*
X97460000Y-79114315D01*
X83252998Y-76886000D02*
X97460000Y-76886000D01*
X97460000Y-76886000D02*
X100000000Y-76886000D01*
X107620000Y-72380000D02*
X103114000Y-76886000D01*
X107620000Y-70282000D02*
X107620000Y-72380000D01*
X100000000Y-76886000D02*
X103114000Y-76886000D01*
D33*
X91735000Y-66980000D02*
X91735000Y-69012000D01*
X60630000Y-79680000D02*
X64694000Y-79680000D01*
X64694000Y-86665000D02*
X71996500Y-86665000D01*
X91735000Y-71806000D02*
X87427000Y-71806000D01*
X91735000Y-71806000D02*
X91735000Y-69012000D01*
X91735000Y-69012000D02*
X91735000Y-67380000D01*
X91735000Y-69012000D02*
X94158000Y-69012000D01*
X94158000Y-69012000D02*
X96190000Y-66980000D01*
X96190000Y-66980000D02*
X100000000Y-66980000D01*
X113970000Y-61662000D02*
X102413000Y-61662000D01*
X81055000Y-67380000D02*
X81630000Y-67955000D01*
X80305000Y-67380000D02*
X81055000Y-67380000D01*
X81630000Y-67955000D02*
X81630000Y-68503000D01*
X80442000Y-71806000D02*
X81631000Y-71806000D01*
X81631000Y-71806000D02*
X87427000Y-71806000D01*
X105080000Y-89078000D02*
X105080000Y-93015000D01*
X117800000Y-58090000D02*
X113970000Y-58090000D01*
X80442000Y-71806000D02*
X74600000Y-71806000D01*
X74600000Y-71806000D02*
X71536000Y-71806000D01*
X65629000Y-65964000D02*
X65628000Y-65963000D01*
X74600000Y-65964000D02*
X65629000Y-65964000D01*
X74925000Y-78085000D02*
X74600000Y-78410000D01*
X76930000Y-78085000D02*
X74925000Y-78085000D01*
X74925000Y-78735000D02*
X74600000Y-78410000D01*
X76930000Y-78735000D02*
X74925000Y-78735000D01*
X91745000Y-80950000D02*
X105080000Y-80950000D01*
X62916000Y-63170000D02*
X62916000Y-61773000D01*
X63469000Y-61220000D02*
X65580000Y-61220000D01*
X62916000Y-61773000D02*
X63469000Y-61220000D01*
X51740000Y-74600000D02*
X56566000Y-74600000D01*
X56566000Y-79680000D02*
X60630000Y-79680000D01*
D34*
X77150000Y-94240000D02*
X78329999Y-94240000D01*
X77150000Y-94240000D02*
X77150000Y-94819000D01*
X77521000Y-95190000D02*
X78329999Y-95190000D01*
X77150000Y-94819000D02*
X77521000Y-95190000D01*
D32*
X77150000Y-94240000D02*
X77150000Y-93533000D01*
X76807106Y-93190000D02*
X76886000Y-93268894D01*
X76100000Y-93190000D02*
X76807106Y-93190000D01*
X76886000Y-93269000D02*
X77150000Y-93533000D01*
X76886000Y-93268894D02*
X76886000Y-93269000D01*
X75135000Y-93190000D02*
X76100000Y-93190000D01*
X73330000Y-93670000D02*
X74655000Y-93670000D01*
X74655000Y-93670000D02*
X75135000Y-93190000D01*
X80950000Y-102460000D02*
X80950000Y-100000000D01*
X82220000Y-100000000D02*
X80950000Y-100000000D01*
X83490000Y-102460000D02*
X83490000Y-100635000D01*
X82855000Y-100000000D02*
X82220000Y-100000000D01*
X83490000Y-100635000D02*
X82855000Y-100000000D01*
D11*
X76930000Y-76785000D02*
X81849000Y-76785000D01*
X81849000Y-76785000D02*
X82220000Y-77156000D01*
X81020000Y-95190000D02*
X83426500Y-95190000D01*
X82265000Y-87680000D02*
X82220000Y-87635000D01*
X89170000Y-87680000D02*
X82265000Y-87680000D01*
X65580000Y-63120000D02*
X64236000Y-63120000D01*
X64236000Y-63120000D02*
X63977000Y-63379000D01*
X69730000Y-76785000D02*
X66498000Y-76785000D01*
X66498000Y-76785000D02*
X66472000Y-76759000D01*
X66472000Y-68631000D02*
X63977000Y-66136000D01*
X66472000Y-70028000D02*
X66472000Y-68631000D01*
X63977000Y-63379000D02*
X63977000Y-66136000D01*
X80950000Y-105160000D02*
X80950000Y-107620000D01*
X78273000Y-111030000D02*
X78273000Y-108519000D01*
X79172000Y-107620000D02*
X80950000Y-107620000D01*
X78273000Y-108519000D02*
X79172000Y-107620000D01*
X87163000Y-111030000D02*
X87163000Y-107737000D01*
X87163000Y-107737000D02*
X87046000Y-107620000D01*
X83490000Y-105160000D02*
X83490000Y-107620000D01*
X74455000Y-84760000D02*
X76632000Y-84760000D01*
D35*
G36*
X101205000Y-61780978D02*
G01*
X101251423Y-62014361D01*
X101342484Y-62234203D01*
X101474685Y-62432055D01*
X101642945Y-62600315D01*
X101840797Y-62732516D01*
X102060639Y-62823577D01*
X102294022Y-62870000D01*
X102531978Y-62870000D01*
X102765361Y-62823577D01*
X102985203Y-62732516D01*
X103041349Y-62695000D01*
X112200000Y-62695000D01*
X112200000Y-63668272D01*
X112160456Y-63680268D01*
X112007058Y-63762260D01*
X111872604Y-63872604D01*
X111762260Y-64007058D01*
X111680268Y-64160456D01*
X111629777Y-64326902D01*
X111612728Y-64500000D01*
X111617001Y-64543384D01*
X111617001Y-68077538D01*
X111486705Y-68007893D01*
X111334396Y-67961691D01*
X111176000Y-67946090D01*
X110412000Y-67950000D01*
X110210000Y-68152000D01*
X110210000Y-70232000D01*
X110230000Y-70232000D01*
X110230000Y-70332000D01*
X110210000Y-70332000D01*
X110210000Y-72412000D01*
X110412000Y-72614000D01*
X111176000Y-72617910D01*
X111334396Y-72602309D01*
X111486705Y-72556107D01*
X111617001Y-72486462D01*
X111617001Y-74680000D01*
X107775000Y-74680000D01*
X107716473Y-74685764D01*
X107660195Y-74702836D01*
X107608329Y-74730559D01*
X107562868Y-74767868D01*
X107525559Y-74813329D01*
X107497836Y-74865195D01*
X107480764Y-74921473D01*
X107475000Y-74980000D01*
X107475000Y-81965000D01*
X107480764Y-82023527D01*
X107497836Y-82079805D01*
X107525559Y-82131671D01*
X107562868Y-82177132D01*
X107608329Y-82214441D01*
X107660195Y-82242164D01*
X107716473Y-82259236D01*
X107775000Y-82265000D01*
X111617000Y-82265000D01*
X111617000Y-86873538D01*
X111486705Y-86803893D01*
X111334396Y-86757691D01*
X111176000Y-86742090D01*
X110412000Y-86746000D01*
X110210000Y-86948000D01*
X110210000Y-89028000D01*
X110230000Y-89028000D01*
X110230000Y-89128000D01*
X110210000Y-89128000D01*
X110210000Y-91208000D01*
X110412000Y-91410000D01*
X111176000Y-91413910D01*
X111334396Y-91398309D01*
X111486705Y-91352107D01*
X111617000Y-91282462D01*
X111617000Y-94456626D01*
X111612728Y-94500000D01*
X111629777Y-94673098D01*
X111680268Y-94839544D01*
X111700000Y-94876460D01*
X111700000Y-117617000D01*
X90848224Y-117617000D01*
X90964072Y-117555078D01*
X91087106Y-117454106D01*
X91188078Y-117331072D01*
X91263106Y-117190704D01*
X91309308Y-117038396D01*
X91324909Y-116880000D01*
X91324909Y-113380000D01*
X91309308Y-113221604D01*
X91263106Y-113069296D01*
X91188078Y-112928928D01*
X91087106Y-112805894D01*
X90964072Y-112704922D01*
X90823704Y-112629894D01*
X90671396Y-112583692D01*
X90513000Y-112568091D01*
X88513000Y-112568091D01*
X88354604Y-112583692D01*
X88202296Y-112629894D01*
X88188104Y-112637480D01*
X88213106Y-112590704D01*
X88230981Y-112531777D01*
X96260000Y-112531777D01*
X96260000Y-112868223D01*
X96325638Y-113198205D01*
X96454390Y-113509041D01*
X96641310Y-113788786D01*
X96879214Y-114026690D01*
X97158959Y-114213610D01*
X97469795Y-114342362D01*
X97799777Y-114408000D01*
X98136223Y-114408000D01*
X98466205Y-114342362D01*
X98777041Y-114213610D01*
X99056786Y-114026690D01*
X99294690Y-113788786D01*
X99481610Y-113509041D01*
X99610362Y-113198205D01*
X99676000Y-112868223D01*
X99676000Y-112531777D01*
X103880000Y-112531777D01*
X103880000Y-112868223D01*
X103945638Y-113198205D01*
X104074390Y-113509041D01*
X104261310Y-113788786D01*
X104499214Y-114026690D01*
X104778959Y-114213610D01*
X105089795Y-114342362D01*
X105419777Y-114408000D01*
X105756223Y-114408000D01*
X106086205Y-114342362D01*
X106397041Y-114213610D01*
X106676786Y-114026690D01*
X106914690Y-113788786D01*
X107101610Y-113509041D01*
X107230362Y-113198205D01*
X107296000Y-112868223D01*
X107296000Y-112531777D01*
X107230362Y-112201795D01*
X107101610Y-111890959D01*
X106914690Y-111611214D01*
X106676786Y-111373310D01*
X106397041Y-111186390D01*
X106086205Y-111057638D01*
X105756223Y-110992000D01*
X105419777Y-110992000D01*
X105089795Y-111057638D01*
X104778959Y-111186390D01*
X104499214Y-111373310D01*
X104261310Y-111611214D01*
X104074390Y-111890959D01*
X103945638Y-112201795D01*
X103880000Y-112531777D01*
X99676000Y-112531777D01*
X99610362Y-112201795D01*
X99481610Y-111890959D01*
X99294690Y-111611214D01*
X99056786Y-111373310D01*
X98777041Y-111186390D01*
X98466205Y-111057638D01*
X98136223Y-110992000D01*
X97799777Y-110992000D01*
X97469795Y-111057638D01*
X97158959Y-111186390D01*
X96879214Y-111373310D01*
X96641310Y-111611214D01*
X96454390Y-111890959D01*
X96325638Y-112201795D01*
X96260000Y-112531777D01*
X88230981Y-112531777D01*
X88259308Y-112438396D01*
X88274909Y-112280000D01*
X88274909Y-109780000D01*
X88259308Y-109621604D01*
X88213106Y-109469296D01*
X88138078Y-109328928D01*
X88096000Y-109277656D01*
X88096000Y-108222907D01*
X88116516Y-108192203D01*
X88207577Y-107972361D01*
X88254000Y-107738978D01*
X88254000Y-107501022D01*
X88244205Y-107451777D01*
X93720000Y-107451777D01*
X93720000Y-107788223D01*
X93785638Y-108118205D01*
X93914390Y-108429041D01*
X94101310Y-108708786D01*
X94339214Y-108946690D01*
X94618959Y-109133610D01*
X94929795Y-109262362D01*
X95259777Y-109328000D01*
X95596223Y-109328000D01*
X95926205Y-109262362D01*
X96237041Y-109133610D01*
X96516786Y-108946690D01*
X96754690Y-108708786D01*
X96941610Y-108429041D01*
X97070362Y-108118205D01*
X97136000Y-107788223D01*
X97136000Y-107451777D01*
X101340000Y-107451777D01*
X101340000Y-107788223D01*
X101405638Y-108118205D01*
X101534390Y-108429041D01*
X101721310Y-108708786D01*
X101959214Y-108946690D01*
X102238959Y-109133610D01*
X102549795Y-109262362D01*
X102879777Y-109328000D01*
X103216223Y-109328000D01*
X103546205Y-109262362D01*
X103857041Y-109133610D01*
X104136786Y-108946690D01*
X104374690Y-108708786D01*
X104561610Y-108429041D01*
X104690362Y-108118205D01*
X104756000Y-107788223D01*
X104756000Y-107451777D01*
X104690362Y-107121795D01*
X104561610Y-106810959D01*
X104374690Y-106531214D01*
X104136786Y-106293310D01*
X103857041Y-106106390D01*
X103546205Y-105977638D01*
X103216223Y-105912000D01*
X102879777Y-105912000D01*
X102549795Y-105977638D01*
X102238959Y-106106390D01*
X101959214Y-106293310D01*
X101721310Y-106531214D01*
X101534390Y-106810959D01*
X101405638Y-107121795D01*
X101340000Y-107451777D01*
X97136000Y-107451777D01*
X97070362Y-107121795D01*
X96941610Y-106810959D01*
X96754690Y-106531214D01*
X96516786Y-106293310D01*
X96237041Y-106106390D01*
X95926205Y-105977638D01*
X95596223Y-105912000D01*
X95259777Y-105912000D01*
X94929795Y-105977638D01*
X94618959Y-106106390D01*
X94339214Y-106293310D01*
X94101310Y-106531214D01*
X93914390Y-106810959D01*
X93785638Y-107121795D01*
X93720000Y-107451777D01*
X88244205Y-107451777D01*
X88207577Y-107267639D01*
X88116516Y-107047797D01*
X87984315Y-106849945D01*
X87816055Y-106681685D01*
X87618203Y-106549484D01*
X87398361Y-106458423D01*
X87164978Y-106412000D01*
X86927022Y-106412000D01*
X86693639Y-106458423D01*
X86473797Y-106549484D01*
X86275945Y-106681685D01*
X86107685Y-106849945D01*
X85975484Y-107047797D01*
X85884423Y-107267639D01*
X85838000Y-107501022D01*
X85838000Y-107738978D01*
X85884423Y-107972361D01*
X85975484Y-108192203D01*
X86107685Y-108390055D01*
X86230001Y-108512371D01*
X86230001Y-108969764D01*
X86213000Y-108968090D01*
X86115000Y-108972000D01*
X85913000Y-109174000D01*
X85711000Y-108972000D01*
X85613000Y-108968090D01*
X85454604Y-108983691D01*
X85302295Y-109029893D01*
X85161927Y-109104922D01*
X85038893Y-109205893D01*
X84937922Y-109328927D01*
X84862893Y-109469295D01*
X84816691Y-109621604D01*
X84801090Y-109780000D01*
X84805000Y-110778000D01*
X85007000Y-110980000D01*
X85983000Y-110980000D01*
X85983000Y-111080000D01*
X85007000Y-111080000D01*
X84805000Y-111282000D01*
X84801090Y-112280000D01*
X84816691Y-112438396D01*
X84862893Y-112590705D01*
X84887894Y-112637479D01*
X84873704Y-112629894D01*
X84721396Y-112583692D01*
X84563000Y-112568091D01*
X82563000Y-112568091D01*
X82404604Y-112583692D01*
X82252296Y-112629894D01*
X82111928Y-112704922D01*
X82093000Y-112720456D01*
X82074072Y-112704922D01*
X81933704Y-112629894D01*
X81781396Y-112583692D01*
X81623000Y-112568091D01*
X79623000Y-112568091D01*
X79464604Y-112583692D01*
X79312296Y-112629894D01*
X79298104Y-112637480D01*
X79323106Y-112590704D01*
X79369308Y-112438396D01*
X79384909Y-112280000D01*
X79384909Y-109780000D01*
X79369308Y-109621604D01*
X79323106Y-109469296D01*
X79248078Y-109328928D01*
X79206000Y-109277656D01*
X79206000Y-108905460D01*
X79558461Y-108553000D01*
X80174630Y-108553000D01*
X80179945Y-108558315D01*
X80377797Y-108690516D01*
X80597639Y-108781577D01*
X80831022Y-108828000D01*
X81068978Y-108828000D01*
X81302361Y-108781577D01*
X81522203Y-108690516D01*
X81720055Y-108558315D01*
X81888315Y-108390055D01*
X82020516Y-108192203D01*
X82111577Y-107972361D01*
X82158000Y-107738978D01*
X82158000Y-107501022D01*
X82111577Y-107267639D01*
X82020516Y-107047797D01*
X81888315Y-106849945D01*
X81883000Y-106844630D01*
X81883000Y-106668510D01*
X81910704Y-106660106D01*
X82051072Y-106585078D01*
X82174106Y-106484106D01*
X82220000Y-106428184D01*
X82265894Y-106484106D01*
X82388928Y-106585078D01*
X82529296Y-106660106D01*
X82557001Y-106668510D01*
X82557001Y-106844629D01*
X82551685Y-106849945D01*
X82419484Y-107047797D01*
X82328423Y-107267639D01*
X82282000Y-107501022D01*
X82282000Y-107738978D01*
X82328423Y-107972361D01*
X82419484Y-108192203D01*
X82551685Y-108390055D01*
X82719945Y-108558315D01*
X82917797Y-108690516D01*
X83137639Y-108781577D01*
X83371022Y-108828000D01*
X83608978Y-108828000D01*
X83842361Y-108781577D01*
X84062203Y-108690516D01*
X84260055Y-108558315D01*
X84428315Y-108390055D01*
X84560516Y-108192203D01*
X84651577Y-107972361D01*
X84698000Y-107738978D01*
X84698000Y-107501022D01*
X84651577Y-107267639D01*
X84560516Y-107047797D01*
X84428315Y-106849945D01*
X84423000Y-106844630D01*
X84423000Y-106668510D01*
X84450704Y-106660106D01*
X84591072Y-106585078D01*
X84714106Y-106484106D01*
X84815078Y-106361072D01*
X84890106Y-106220704D01*
X84936308Y-106068396D01*
X84951909Y-105910000D01*
X84951909Y-104410000D01*
X84936308Y-104251604D01*
X84890106Y-104099296D01*
X84815078Y-103958928D01*
X84714106Y-103835894D01*
X84682554Y-103810000D01*
X84714106Y-103784106D01*
X84815078Y-103661072D01*
X84890106Y-103520704D01*
X84936308Y-103368396D01*
X84951909Y-103210000D01*
X84951909Y-101710000D01*
X84936308Y-101551604D01*
X84890106Y-101399296D01*
X84815078Y-101258928D01*
X84714106Y-101135894D01*
X84648000Y-101081642D01*
X84648000Y-100691889D01*
X84653603Y-100635000D01*
X84631245Y-100407992D01*
X84565029Y-100189708D01*
X84463628Y-100000000D01*
X84457501Y-99988537D01*
X84328852Y-99831777D01*
X96260000Y-99831777D01*
X96260000Y-100168223D01*
X96325638Y-100498205D01*
X96454390Y-100809041D01*
X96641310Y-101088786D01*
X96879214Y-101326690D01*
X97158959Y-101513610D01*
X97469795Y-101642362D01*
X97799777Y-101708000D01*
X98136223Y-101708000D01*
X98466205Y-101642362D01*
X98777041Y-101513610D01*
X99056786Y-101326690D01*
X99294690Y-101088786D01*
X99481610Y-100809041D01*
X99610362Y-100498205D01*
X99676000Y-100168223D01*
X99676000Y-99831777D01*
X103880000Y-99831777D01*
X103880000Y-100168223D01*
X103945638Y-100498205D01*
X104074390Y-100809041D01*
X104261310Y-101088786D01*
X104499214Y-101326690D01*
X104778959Y-101513610D01*
X105089795Y-101642362D01*
X105419777Y-101708000D01*
X105756223Y-101708000D01*
X106086205Y-101642362D01*
X106397041Y-101513610D01*
X106676786Y-101326690D01*
X106914690Y-101088786D01*
X107101610Y-100809041D01*
X107230362Y-100498205D01*
X107296000Y-100168223D01*
X107296000Y-99831777D01*
X107230362Y-99501795D01*
X107101610Y-99190959D01*
X106914690Y-98911214D01*
X106676786Y-98673310D01*
X106397041Y-98486390D01*
X106086205Y-98357638D01*
X105756223Y-98292000D01*
X105419777Y-98292000D01*
X105089795Y-98357638D01*
X104778959Y-98486390D01*
X104499214Y-98673310D01*
X104261310Y-98911214D01*
X104074390Y-99190959D01*
X103945638Y-99501795D01*
X103880000Y-99831777D01*
X99676000Y-99831777D01*
X99610362Y-99501795D01*
X99481610Y-99190959D01*
X99294690Y-98911214D01*
X99056786Y-98673310D01*
X98777041Y-98486390D01*
X98466205Y-98357638D01*
X98136223Y-98292000D01*
X97799777Y-98292000D01*
X97469795Y-98357638D01*
X97158959Y-98486390D01*
X96879214Y-98673310D01*
X96641310Y-98911214D01*
X96454390Y-99190959D01*
X96325638Y-99501795D01*
X96260000Y-99831777D01*
X84328852Y-99831777D01*
X84312792Y-99812208D01*
X84268593Y-99775935D01*
X83714061Y-99221402D01*
X83677792Y-99177208D01*
X83501463Y-99032499D01*
X83300292Y-98924971D01*
X83082008Y-98858755D01*
X82911889Y-98842000D01*
X82911887Y-98842000D01*
X82855000Y-98836397D01*
X82798113Y-98842000D01*
X81571269Y-98842000D01*
X81569570Y-98840865D01*
X81331530Y-98742266D01*
X81078827Y-98692000D01*
X80821173Y-98692000D01*
X80568470Y-98742266D01*
X80330430Y-98840865D01*
X80116199Y-98984010D01*
X79934010Y-99166199D01*
X79790865Y-99380430D01*
X79692266Y-99618470D01*
X79642000Y-99871173D01*
X79642000Y-100128827D01*
X79692266Y-100381530D01*
X79790865Y-100619570D01*
X79792001Y-100621270D01*
X79792001Y-101081641D01*
X79725894Y-101135894D01*
X79624922Y-101258928D01*
X79549894Y-101399296D01*
X79503692Y-101551604D01*
X79488091Y-101710000D01*
X79488091Y-103210000D01*
X79503692Y-103368396D01*
X79549894Y-103520704D01*
X79624922Y-103661072D01*
X79725894Y-103784106D01*
X79757446Y-103810000D01*
X79725894Y-103835894D01*
X79624922Y-103958928D01*
X79549894Y-104099296D01*
X79503692Y-104251604D01*
X79488091Y-104410000D01*
X79488091Y-105910000D01*
X79503692Y-106068396D01*
X79549894Y-106220704D01*
X79624922Y-106361072D01*
X79725894Y-106484106D01*
X79848928Y-106585078D01*
X79989296Y-106660106D01*
X80017001Y-106668510D01*
X80017001Y-106687000D01*
X79217829Y-106687000D01*
X79172000Y-106682486D01*
X79126171Y-106687000D01*
X79126168Y-106687000D01*
X78989100Y-106700500D01*
X78813229Y-106753850D01*
X78651145Y-106840486D01*
X78509077Y-106957077D01*
X78479857Y-106992682D01*
X77645682Y-107826857D01*
X77610078Y-107856077D01*
X77514647Y-107972361D01*
X77493486Y-107998146D01*
X77406851Y-108160229D01*
X77353501Y-108336101D01*
X77335486Y-108519000D01*
X77340001Y-108564839D01*
X77340001Y-108969764D01*
X77323000Y-108968090D01*
X77225000Y-108972000D01*
X77023000Y-109174000D01*
X76821000Y-108972000D01*
X76723000Y-108968090D01*
X76564604Y-108983691D01*
X76412295Y-109029893D01*
X76271927Y-109104922D01*
X76148893Y-109205893D01*
X76047922Y-109328927D01*
X75972893Y-109469295D01*
X75926691Y-109621604D01*
X75911090Y-109780000D01*
X75915000Y-110778000D01*
X76117000Y-110980000D01*
X77093000Y-110980000D01*
X77093000Y-111080000D01*
X76117000Y-111080000D01*
X75915000Y-111282000D01*
X75911090Y-112280000D01*
X75926691Y-112438396D01*
X75972893Y-112590705D01*
X75997894Y-112637479D01*
X75983704Y-112629894D01*
X75831396Y-112583692D01*
X75673000Y-112568091D01*
X73673000Y-112568091D01*
X73514604Y-112583692D01*
X73362296Y-112629894D01*
X73221928Y-112704922D01*
X73098894Y-112805894D01*
X72997922Y-112928928D01*
X72922894Y-113069296D01*
X72876692Y-113221604D01*
X72861091Y-113380000D01*
X72861091Y-116880000D01*
X72876692Y-117038396D01*
X72922894Y-117190704D01*
X72997922Y-117331072D01*
X73098894Y-117454106D01*
X73221928Y-117555078D01*
X73337776Y-117617000D01*
X58383000Y-117617000D01*
X58383000Y-109289500D01*
X60017953Y-109289500D01*
X60017953Y-112655500D01*
X71122048Y-112655500D01*
X71122048Y-109289500D01*
X60017953Y-109289500D01*
X58383000Y-109289500D01*
X58383000Y-99698813D01*
X61842000Y-99698813D01*
X61842000Y-100301187D01*
X61959518Y-100891986D01*
X62190036Y-101448506D01*
X62524697Y-101949361D01*
X62950639Y-102375303D01*
X63451494Y-102709964D01*
X64008014Y-102940482D01*
X64598813Y-103058000D01*
X65201187Y-103058000D01*
X65791986Y-102940482D01*
X66348506Y-102709964D01*
X66849361Y-102375303D01*
X67275303Y-101949361D01*
X67609964Y-101448506D01*
X67840482Y-100891986D01*
X67958000Y-100301187D01*
X67958000Y-99698813D01*
X67840482Y-99108014D01*
X67609964Y-98551494D01*
X67368422Y-98190000D01*
X84593090Y-98190000D01*
X84608691Y-98348396D01*
X84654893Y-98500705D01*
X84729922Y-98641073D01*
X84830893Y-98764107D01*
X84953927Y-98865078D01*
X85094295Y-98940107D01*
X85246604Y-98986309D01*
X85405000Y-99001910D01*
X85778000Y-98998000D01*
X85980000Y-98796000D01*
X85980000Y-97490000D01*
X86080000Y-97490000D01*
X86080000Y-98796000D01*
X86282000Y-98998000D01*
X86655000Y-99001910D01*
X86813396Y-98986309D01*
X86965705Y-98940107D01*
X87106073Y-98865078D01*
X87229107Y-98764107D01*
X87330078Y-98641073D01*
X87405107Y-98500705D01*
X87451309Y-98348396D01*
X87466910Y-98190000D01*
X87463000Y-97692000D01*
X87261000Y-97490000D01*
X86080000Y-97490000D01*
X85980000Y-97490000D01*
X84799000Y-97490000D01*
X84597000Y-97692000D01*
X84593090Y-98190000D01*
X67368422Y-98190000D01*
X67275303Y-98050639D01*
X66849361Y-97624697D01*
X66348506Y-97290036D01*
X65791986Y-97059518D01*
X65201187Y-96942000D01*
X64598813Y-96942000D01*
X64008014Y-97059518D01*
X63451494Y-97290036D01*
X62950639Y-97624697D01*
X62524697Y-98050639D01*
X62190036Y-98551494D01*
X61959518Y-99108014D01*
X61842000Y-99698813D01*
X58383000Y-99698813D01*
X58383000Y-96920000D01*
X71893090Y-96920000D01*
X71908691Y-97078396D01*
X71954893Y-97230705D01*
X72029922Y-97371073D01*
X72130893Y-97494107D01*
X72253927Y-97595078D01*
X72394295Y-97670107D01*
X72546604Y-97716309D01*
X72705000Y-97731910D01*
X73078000Y-97728000D01*
X73280000Y-97526000D01*
X73280000Y-96220000D01*
X73380000Y-96220000D01*
X73380000Y-97526000D01*
X73582000Y-97728000D01*
X73955000Y-97731910D01*
X74113396Y-97716309D01*
X74265705Y-97670107D01*
X74406073Y-97595078D01*
X74529107Y-97494107D01*
X74630078Y-97371073D01*
X74705107Y-97230705D01*
X74751309Y-97078396D01*
X74766910Y-96920000D01*
X74763000Y-96422000D01*
X74561000Y-96220000D01*
X73380000Y-96220000D01*
X73280000Y-96220000D01*
X72099000Y-96220000D01*
X71897000Y-96422000D01*
X71893090Y-96920000D01*
X58383000Y-96920000D01*
X58383000Y-92543373D01*
X58387272Y-92500000D01*
X58370223Y-92326902D01*
X58319732Y-92160456D01*
X58237740Y-92007058D01*
X58127396Y-91872604D01*
X57992942Y-91762260D01*
X57839544Y-91680268D01*
X57673098Y-91629777D01*
X57543373Y-91617000D01*
X57500000Y-91612728D01*
X57456627Y-91617000D01*
X55570288Y-91617000D01*
X55685055Y-91540315D01*
X55690370Y-91535000D01*
X78246591Y-91535000D01*
X78218230Y-91569143D01*
X78167180Y-91629982D01*
X78166174Y-91631812D01*
X78164844Y-91633413D01*
X78127099Y-91702889D01*
X78088860Y-91772446D01*
X78088228Y-91774438D01*
X78087235Y-91776266D01*
X78063669Y-91851858D01*
X78039703Y-91927410D01*
X78039471Y-91929479D01*
X78038850Y-91931471D01*
X78030404Y-92010310D01*
X78021581Y-92088970D01*
X78021553Y-92092929D01*
X78021533Y-92093120D01*
X78021551Y-92093319D01*
X78021500Y-92100600D01*
X78021500Y-92769559D01*
X77972792Y-92710208D01*
X77928594Y-92673936D01*
X77745547Y-92490888D01*
X77708792Y-92446102D01*
X77665460Y-92410541D01*
X77629898Y-92367208D01*
X77453569Y-92222499D01*
X77252398Y-92114971D01*
X77034114Y-92048755D01*
X76863995Y-92032000D01*
X76863993Y-92032000D01*
X76807106Y-92026397D01*
X76750219Y-92032000D01*
X76721269Y-92032000D01*
X76719570Y-92030865D01*
X76481530Y-91932266D01*
X76228827Y-91882000D01*
X75971173Y-91882000D01*
X75718470Y-91932266D01*
X75480430Y-92030865D01*
X75478731Y-92032000D01*
X75191889Y-92032000D01*
X75135000Y-92026397D01*
X75078111Y-92032000D01*
X74907992Y-92048755D01*
X74689708Y-92114971D01*
X74488537Y-92222499D01*
X74433643Y-92267549D01*
X74406072Y-92244922D01*
X74265704Y-92169894D01*
X74113396Y-92123692D01*
X73955000Y-92108091D01*
X72705000Y-92108091D01*
X72546604Y-92123692D01*
X72394296Y-92169894D01*
X72253928Y-92244922D01*
X72130894Y-92345894D01*
X72029922Y-92468928D01*
X71954894Y-92609296D01*
X71908692Y-92761604D01*
X71893091Y-92920000D01*
X71893091Y-94420000D01*
X71908692Y-94578396D01*
X71954894Y-94730704D01*
X72029922Y-94871072D01*
X72070076Y-94919999D01*
X72029922Y-94968927D01*
X71954893Y-95109295D01*
X71908691Y-95261604D01*
X71893090Y-95420000D01*
X71897000Y-95918000D01*
X72099000Y-96120000D01*
X73280000Y-96120000D01*
X73280000Y-96100000D01*
X73380000Y-96100000D01*
X73380000Y-96120000D01*
X74561000Y-96120000D01*
X74763000Y-95918000D01*
X74766910Y-95420000D01*
X74751309Y-95261604D01*
X74705107Y-95109295D01*
X74630078Y-94968927D01*
X74589924Y-94919999D01*
X74630078Y-94871072D01*
X74650350Y-94833145D01*
X74655000Y-94833603D01*
X74711887Y-94828000D01*
X74711889Y-94828000D01*
X74882008Y-94811245D01*
X75100292Y-94745029D01*
X75301463Y-94637501D01*
X75477792Y-94492792D01*
X75514061Y-94448597D01*
X75574542Y-94388117D01*
X75718470Y-94447734D01*
X75971173Y-94498000D01*
X76018157Y-94498000D01*
X76074971Y-94685291D01*
X76092000Y-94717150D01*
X76092000Y-94767027D01*
X76086881Y-94819000D01*
X76092000Y-94870972D01*
X76092000Y-94870973D01*
X76107309Y-95026404D01*
X76167807Y-95225838D01*
X76266050Y-95409637D01*
X76398262Y-95570739D01*
X76438635Y-95603872D01*
X76736123Y-95901360D01*
X76769261Y-95941739D01*
X76930363Y-96073951D01*
X77114162Y-96172194D01*
X77243105Y-96211308D01*
X77313595Y-96232691D01*
X77325169Y-96233831D01*
X77217000Y-96342000D01*
X77213090Y-96365000D01*
X77228691Y-96523396D01*
X77274893Y-96675705D01*
X77349922Y-96816073D01*
X77450893Y-96939107D01*
X77573927Y-97040078D01*
X77714295Y-97115107D01*
X77866604Y-97161309D01*
X78021500Y-97176565D01*
X78021500Y-97349000D01*
X78029151Y-97427037D01*
X78036255Y-97505089D01*
X78037079Y-97507888D01*
X78037364Y-97510797D01*
X78060041Y-97585908D01*
X78082156Y-97661047D01*
X78083508Y-97663633D01*
X78084353Y-97666432D01*
X78121155Y-97735645D01*
X78157475Y-97805120D01*
X78159307Y-97807399D01*
X78160677Y-97809975D01*
X78210153Y-97870639D01*
X78259344Y-97931820D01*
X78261585Y-97933701D01*
X78263428Y-97935960D01*
X78323736Y-97985851D01*
X78383882Y-98036320D01*
X78386445Y-98037729D01*
X78388692Y-98039588D01*
X78457563Y-98076826D01*
X78526346Y-98114640D01*
X78529133Y-98115524D01*
X78531700Y-98116912D01*
X78606548Y-98140081D01*
X78681310Y-98163797D01*
X78684213Y-98164123D01*
X78687002Y-98164986D01*
X78764960Y-98173180D01*
X78842870Y-98181919D01*
X78848476Y-98181958D01*
X78848685Y-98181980D01*
X78848894Y-98181961D01*
X78854500Y-98182000D01*
X80505500Y-98182000D01*
X80583537Y-98174349D01*
X80661589Y-98167245D01*
X80664388Y-98166421D01*
X80667297Y-98166136D01*
X80742408Y-98143459D01*
X80817547Y-98121344D01*
X80820133Y-98119992D01*
X80822932Y-98119147D01*
X80892145Y-98082345D01*
X80961620Y-98046025D01*
X80963899Y-98044193D01*
X80966475Y-98042823D01*
X81027139Y-97993347D01*
X81088320Y-97944156D01*
X81090201Y-97941915D01*
X81092460Y-97940072D01*
X81142351Y-97879764D01*
X81192820Y-97819618D01*
X81194229Y-97817055D01*
X81196088Y-97814808D01*
X81233326Y-97745937D01*
X81271140Y-97677154D01*
X81272024Y-97674367D01*
X81273412Y-97671800D01*
X81296581Y-97596952D01*
X81320297Y-97522190D01*
X81320623Y-97519287D01*
X81321486Y-97516498D01*
X81329680Y-97438540D01*
X81338419Y-97360630D01*
X81338458Y-97355024D01*
X81338480Y-97354815D01*
X81338461Y-97354606D01*
X81338500Y-97349000D01*
X81338500Y-97176564D01*
X81493396Y-97161308D01*
X81645704Y-97115106D01*
X81786072Y-97040078D01*
X81909106Y-96939106D01*
X82010078Y-96816072D01*
X82085106Y-96675704D01*
X82131308Y-96523396D01*
X82146909Y-96365000D01*
X82146909Y-96123000D01*
X82651130Y-96123000D01*
X82656445Y-96128315D01*
X82854297Y-96260516D01*
X83074139Y-96351577D01*
X83307522Y-96398000D01*
X83545478Y-96398000D01*
X83778861Y-96351577D01*
X83998703Y-96260516D01*
X84196555Y-96128315D01*
X84286070Y-96038800D01*
X84425992Y-96081245D01*
X84596111Y-96098000D01*
X84596112Y-96098000D01*
X84652999Y-96103603D01*
X84707049Y-96098279D01*
X84729922Y-96141072D01*
X84770076Y-96189999D01*
X84729922Y-96238927D01*
X84654893Y-96379295D01*
X84608691Y-96531604D01*
X84593090Y-96690000D01*
X84597000Y-97188000D01*
X84799000Y-97390000D01*
X85980000Y-97390000D01*
X85980000Y-97370000D01*
X86080000Y-97370000D01*
X86080000Y-97390000D01*
X87261000Y-97390000D01*
X87463000Y-97188000D01*
X87466910Y-96690000D01*
X87451309Y-96531604D01*
X87405107Y-96379295D01*
X87330078Y-96238927D01*
X87289924Y-96189999D01*
X87330078Y-96141072D01*
X87353100Y-96098000D01*
X88376974Y-96098000D01*
X88569470Y-96177734D01*
X88822173Y-96228000D01*
X89079827Y-96228000D01*
X89332530Y-96177734D01*
X89570570Y-96079135D01*
X89784801Y-95935990D01*
X89966990Y-95753801D01*
X90110135Y-95539570D01*
X90208734Y-95301530D01*
X90259000Y-95048827D01*
X90259000Y-94791173D01*
X90208734Y-94538470D01*
X90110135Y-94300430D01*
X89966990Y-94086199D01*
X89784801Y-93904010D01*
X89570570Y-93760865D01*
X89332530Y-93662266D01*
X89079827Y-93612000D01*
X88822173Y-93612000D01*
X88569470Y-93662266D01*
X88331430Y-93760865D01*
X88299799Y-93782000D01*
X87353100Y-93782000D01*
X87330078Y-93738928D01*
X87229106Y-93615894D01*
X87106072Y-93514922D01*
X86965704Y-93439894D01*
X86813396Y-93393692D01*
X86655000Y-93378091D01*
X85405000Y-93378091D01*
X85246604Y-93393692D01*
X85094296Y-93439894D01*
X84953928Y-93514922D01*
X84905404Y-93554745D01*
X84812061Y-93461402D01*
X84775792Y-93417208D01*
X84599463Y-93272499D01*
X84398292Y-93164971D01*
X84180008Y-93098755D01*
X84009889Y-93082000D01*
X84009887Y-93082000D01*
X83953000Y-93076397D01*
X83896113Y-93082000D01*
X81998111Y-93082000D01*
X81827992Y-93098755D01*
X81609708Y-93164971D01*
X81577849Y-93182000D01*
X81338500Y-93182000D01*
X81338500Y-92103900D01*
X81330924Y-92026633D01*
X81324055Y-91949447D01*
X81323003Y-91945846D01*
X81322636Y-91942103D01*
X81300195Y-91867776D01*
X81278466Y-91793397D01*
X81276734Y-91790067D01*
X81275647Y-91786468D01*
X81239229Y-91717976D01*
X81203435Y-91649174D01*
X81201086Y-91646240D01*
X81199323Y-91642925D01*
X81150323Y-91582845D01*
X81112012Y-91535000D01*
X85000630Y-91535000D01*
X85005945Y-91540315D01*
X85203797Y-91672516D01*
X85423639Y-91763577D01*
X85657022Y-91810000D01*
X85894978Y-91810000D01*
X86128361Y-91763577D01*
X86348203Y-91672516D01*
X86546055Y-91540315D01*
X86714315Y-91372055D01*
X86846516Y-91174203D01*
X86937577Y-90954361D01*
X86973652Y-90773000D01*
X95651515Y-90773000D01*
X95693894Y-90912704D01*
X95768922Y-91053072D01*
X95869894Y-91176106D01*
X95992928Y-91277078D01*
X96133296Y-91352106D01*
X96285604Y-91398308D01*
X96444000Y-91413909D01*
X98476000Y-91413909D01*
X98634396Y-91398308D01*
X98730000Y-91369307D01*
X98825604Y-91398308D01*
X98984000Y-91413909D01*
X101016000Y-91413909D01*
X101174396Y-91398308D01*
X101270000Y-91369307D01*
X101365604Y-91398308D01*
X101524000Y-91413909D01*
X103556000Y-91413909D01*
X103714396Y-91398308D01*
X103810000Y-91369307D01*
X103905604Y-91398308D01*
X104047001Y-91412235D01*
X104047001Y-92386649D01*
X104009484Y-92442797D01*
X103918423Y-92662639D01*
X103872000Y-92896022D01*
X103872000Y-93133978D01*
X103918423Y-93367361D01*
X104009484Y-93587203D01*
X104141685Y-93785055D01*
X104309945Y-93953315D01*
X104507797Y-94085516D01*
X104727639Y-94176577D01*
X104961022Y-94223000D01*
X105198978Y-94223000D01*
X105432361Y-94176577D01*
X105652203Y-94085516D01*
X105850055Y-93953315D01*
X106018315Y-93785055D01*
X106150516Y-93587203D01*
X106241577Y-93367361D01*
X106288000Y-93133978D01*
X106288000Y-92896022D01*
X106241577Y-92662639D01*
X106150516Y-92442797D01*
X106113000Y-92386651D01*
X106113000Y-91412235D01*
X106254396Y-91398308D01*
X106349998Y-91369308D01*
X106445604Y-91398309D01*
X106604000Y-91413910D01*
X107368000Y-91410000D01*
X107570000Y-91208000D01*
X107570000Y-89128000D01*
X107670000Y-89128000D01*
X107670000Y-91208000D01*
X107872000Y-91410000D01*
X108636000Y-91413910D01*
X108794396Y-91398309D01*
X108890000Y-91369308D01*
X108985604Y-91398309D01*
X109144000Y-91413910D01*
X109908000Y-91410000D01*
X110110000Y-91208000D01*
X110110000Y-89128000D01*
X107670000Y-89128000D01*
X107570000Y-89128000D01*
X107550000Y-89128000D01*
X107550000Y-89028000D01*
X107570000Y-89028000D01*
X107570000Y-86948000D01*
X107670000Y-86948000D01*
X107670000Y-89028000D01*
X110110000Y-89028000D01*
X110110000Y-86948000D01*
X109908000Y-86746000D01*
X109144000Y-86742090D01*
X108985604Y-86757691D01*
X108890000Y-86786692D01*
X108794396Y-86757691D01*
X108636000Y-86742090D01*
X107872000Y-86746000D01*
X107670000Y-86948000D01*
X107570000Y-86948000D01*
X107368000Y-86746000D01*
X106604000Y-86742090D01*
X106445604Y-86757691D01*
X106349998Y-86786692D01*
X106254396Y-86757692D01*
X106096000Y-86742091D01*
X104064000Y-86742091D01*
X103905604Y-86757692D01*
X103810000Y-86786693D01*
X103727194Y-86761574D01*
X103748000Y-86656978D01*
X103748000Y-86419022D01*
X103701577Y-86185639D01*
X103610516Y-85965797D01*
X103478315Y-85767945D01*
X103310055Y-85599685D01*
X103112203Y-85467484D01*
X102892361Y-85376423D01*
X102658978Y-85330000D01*
X102421022Y-85330000D01*
X102187639Y-85376423D01*
X101967797Y-85467484D01*
X101769945Y-85599685D01*
X101601685Y-85767945D01*
X101469484Y-85965797D01*
X101378423Y-86185639D01*
X101332000Y-86419022D01*
X101332000Y-86656978D01*
X101352806Y-86761574D01*
X101270000Y-86786693D01*
X101187194Y-86761574D01*
X101208000Y-86656978D01*
X101208000Y-86419022D01*
X101161577Y-86185639D01*
X101070516Y-85965797D01*
X100938315Y-85767945D01*
X100819370Y-85649000D01*
X100938315Y-85530055D01*
X101070516Y-85332203D01*
X101161577Y-85112361D01*
X101208000Y-84878978D01*
X101208000Y-84641022D01*
X101161577Y-84407639D01*
X101070516Y-84187797D01*
X100938315Y-83989945D01*
X100863370Y-83915000D01*
X101764630Y-83915000D01*
X101769945Y-83920315D01*
X101967797Y-84052516D01*
X102187639Y-84143577D01*
X102421022Y-84190000D01*
X102658978Y-84190000D01*
X102892361Y-84143577D01*
X103112203Y-84052516D01*
X103310055Y-83920315D01*
X103478315Y-83752055D01*
X103610516Y-83554203D01*
X103701577Y-83334361D01*
X103748000Y-83100978D01*
X103748000Y-82863022D01*
X103701577Y-82629639D01*
X103610516Y-82409797D01*
X103478315Y-82211945D01*
X103310055Y-82043685D01*
X103219234Y-81983000D01*
X104451651Y-81983000D01*
X104507797Y-82020516D01*
X104727639Y-82111577D01*
X104961022Y-82158000D01*
X105198978Y-82158000D01*
X105432361Y-82111577D01*
X105652203Y-82020516D01*
X105850055Y-81888315D01*
X106018315Y-81720055D01*
X106150516Y-81522203D01*
X106241577Y-81302361D01*
X106288000Y-81068978D01*
X106288000Y-80831022D01*
X106241577Y-80597639D01*
X106150516Y-80377797D01*
X106018315Y-80179945D01*
X105850055Y-80011685D01*
X105652203Y-79879484D01*
X105432361Y-79788423D01*
X105198978Y-79742000D01*
X104961022Y-79742000D01*
X104727639Y-79788423D01*
X104507797Y-79879484D01*
X104451651Y-79917000D01*
X98644524Y-79917000D01*
X98668000Y-79798978D01*
X98668000Y-79561022D01*
X98621577Y-79327639D01*
X98530516Y-79107797D01*
X98398315Y-78909945D01*
X98393000Y-78904630D01*
X98393000Y-77819000D01*
X103068171Y-77819000D01*
X103114000Y-77823514D01*
X103159829Y-77819000D01*
X103159832Y-77819000D01*
X103296900Y-77805500D01*
X103472771Y-77752150D01*
X103634855Y-77665514D01*
X103776923Y-77548923D01*
X103806147Y-77513313D01*
X108247318Y-73072143D01*
X108282923Y-73042923D01*
X108366586Y-72940978D01*
X108399514Y-72900856D01*
X108478084Y-72753861D01*
X108486150Y-72738771D01*
X108522813Y-72617909D01*
X108636000Y-72617909D01*
X108794396Y-72602308D01*
X108889998Y-72573308D01*
X108985604Y-72602309D01*
X109144000Y-72617910D01*
X109908000Y-72614000D01*
X110110000Y-72412000D01*
X110110000Y-70332000D01*
X110090000Y-70332000D01*
X110090000Y-70232000D01*
X110110000Y-70232000D01*
X110110000Y-68152000D01*
X109908000Y-67950000D01*
X109144000Y-67946090D01*
X108985604Y-67961691D01*
X108889998Y-67990692D01*
X108794396Y-67961692D01*
X108636000Y-67946091D01*
X106604000Y-67946091D01*
X106445604Y-67961692D01*
X106350000Y-67990693D01*
X106254396Y-67961692D01*
X106096000Y-67946091D01*
X104064000Y-67946091D01*
X103905604Y-67961692D01*
X103810000Y-67990693D01*
X103714396Y-67961692D01*
X103556000Y-67946091D01*
X101524000Y-67946091D01*
X101365604Y-67961692D01*
X101270000Y-67990693D01*
X101174396Y-67961692D01*
X101016000Y-67946091D01*
X100728485Y-67946091D01*
X100770055Y-67918315D01*
X100938315Y-67750055D01*
X101070516Y-67552203D01*
X101161577Y-67332361D01*
X101208000Y-67098978D01*
X101208000Y-66861022D01*
X101161577Y-66627639D01*
X101070516Y-66407797D01*
X100938315Y-66209945D01*
X100770055Y-66041685D01*
X100572203Y-65909484D01*
X100352361Y-65818423D01*
X100118978Y-65772000D01*
X99881022Y-65772000D01*
X99647639Y-65818423D01*
X99427797Y-65909484D01*
X99371651Y-65947000D01*
X96240737Y-65947000D01*
X96190000Y-65942003D01*
X96139262Y-65947000D01*
X96139255Y-65947000D01*
X96005759Y-65960148D01*
X95987496Y-65961947D01*
X95792775Y-66021015D01*
X95613319Y-66116936D01*
X95552922Y-66166503D01*
X95495440Y-66213677D01*
X95495436Y-66213681D01*
X95456025Y-66246025D01*
X95423681Y-66285437D01*
X93730118Y-67979000D01*
X92846909Y-67979000D01*
X92846909Y-66130000D01*
X92831308Y-65971604D01*
X92785106Y-65819296D01*
X92760104Y-65772520D01*
X92774296Y-65780106D01*
X92926604Y-65826308D01*
X93085000Y-65841909D01*
X95085000Y-65841909D01*
X95243396Y-65826308D01*
X95395704Y-65780106D01*
X95536072Y-65705078D01*
X95659106Y-65604106D01*
X95760078Y-65481072D01*
X95835106Y-65340704D01*
X95881308Y-65188396D01*
X95896909Y-65030000D01*
X95896909Y-61550000D01*
X101205000Y-61550000D01*
X101205000Y-61780978D01*
X101205000Y-61780978D01*
G37*
X101205000Y-61780978D02*
X101251423Y-62014361D01*
X101342484Y-62234203D01*
X101474685Y-62432055D01*
X101642945Y-62600315D01*
X101840797Y-62732516D01*
X102060639Y-62823577D01*
X102294022Y-62870000D01*
X102531978Y-62870000D01*
X102765361Y-62823577D01*
X102985203Y-62732516D01*
X103041349Y-62695000D01*
X112200000Y-62695000D01*
X112200000Y-63668272D01*
X112160456Y-63680268D01*
X112007058Y-63762260D01*
X111872604Y-63872604D01*
X111762260Y-64007058D01*
X111680268Y-64160456D01*
X111629777Y-64326902D01*
X111612728Y-64500000D01*
X111617001Y-64543384D01*
X111617001Y-68077538D01*
X111486705Y-68007893D01*
X111334396Y-67961691D01*
X111176000Y-67946090D01*
X110412000Y-67950000D01*
X110210000Y-68152000D01*
X110210000Y-70232000D01*
X110230000Y-70232000D01*
X110230000Y-70332000D01*
X110210000Y-70332000D01*
X110210000Y-72412000D01*
X110412000Y-72614000D01*
X111176000Y-72617910D01*
X111334396Y-72602309D01*
X111486705Y-72556107D01*
X111617001Y-72486462D01*
X111617001Y-74680000D01*
X107775000Y-74680000D01*
X107716473Y-74685764D01*
X107660195Y-74702836D01*
X107608329Y-74730559D01*
X107562868Y-74767868D01*
X107525559Y-74813329D01*
X107497836Y-74865195D01*
X107480764Y-74921473D01*
X107475000Y-74980000D01*
X107475000Y-81965000D01*
X107480764Y-82023527D01*
X107497836Y-82079805D01*
X107525559Y-82131671D01*
X107562868Y-82177132D01*
X107608329Y-82214441D01*
X107660195Y-82242164D01*
X107716473Y-82259236D01*
X107775000Y-82265000D01*
X111617000Y-82265000D01*
X111617000Y-86873538D01*
X111486705Y-86803893D01*
X111334396Y-86757691D01*
X111176000Y-86742090D01*
X110412000Y-86746000D01*
X110210000Y-86948000D01*
X110210000Y-89028000D01*
X110230000Y-89028000D01*
X110230000Y-89128000D01*
X110210000Y-89128000D01*
X110210000Y-91208000D01*
X110412000Y-91410000D01*
X111176000Y-91413910D01*
X111334396Y-91398309D01*
X111486705Y-91352107D01*
X111617000Y-91282462D01*
X111617000Y-94456626D01*
X111612728Y-94500000D01*
X111629777Y-94673098D01*
X111680268Y-94839544D01*
X111700000Y-94876460D01*
X111700000Y-117617000D01*
X90848224Y-117617000D01*
X90964072Y-117555078D01*
X91087106Y-117454106D01*
X91188078Y-117331072D01*
X91263106Y-117190704D01*
X91309308Y-117038396D01*
X91324909Y-116880000D01*
X91324909Y-113380000D01*
X91309308Y-113221604D01*
X91263106Y-113069296D01*
X91188078Y-112928928D01*
X91087106Y-112805894D01*
X90964072Y-112704922D01*
X90823704Y-112629894D01*
X90671396Y-112583692D01*
X90513000Y-112568091D01*
X88513000Y-112568091D01*
X88354604Y-112583692D01*
X88202296Y-112629894D01*
X88188104Y-112637480D01*
X88213106Y-112590704D01*
X88230981Y-112531777D01*
X96260000Y-112531777D01*
X96260000Y-112868223D01*
X96325638Y-113198205D01*
X96454390Y-113509041D01*
X96641310Y-113788786D01*
X96879214Y-114026690D01*
X97158959Y-114213610D01*
X97469795Y-114342362D01*
X97799777Y-114408000D01*
X98136223Y-114408000D01*
X98466205Y-114342362D01*
X98777041Y-114213610D01*
X99056786Y-114026690D01*
X99294690Y-113788786D01*
X99481610Y-113509041D01*
X99610362Y-113198205D01*
X99676000Y-112868223D01*
X99676000Y-112531777D01*
X103880000Y-112531777D01*
X103880000Y-112868223D01*
X103945638Y-113198205D01*
X104074390Y-113509041D01*
X104261310Y-113788786D01*
X104499214Y-114026690D01*
X104778959Y-114213610D01*
X105089795Y-114342362D01*
X105419777Y-114408000D01*
X105756223Y-114408000D01*
X106086205Y-114342362D01*
X106397041Y-114213610D01*
X106676786Y-114026690D01*
X106914690Y-113788786D01*
X107101610Y-113509041D01*
X107230362Y-113198205D01*
X107296000Y-112868223D01*
X107296000Y-112531777D01*
X107230362Y-112201795D01*
X107101610Y-111890959D01*
X106914690Y-111611214D01*
X106676786Y-111373310D01*
X106397041Y-111186390D01*
X106086205Y-111057638D01*
X105756223Y-110992000D01*
X105419777Y-110992000D01*
X105089795Y-111057638D01*
X104778959Y-111186390D01*
X104499214Y-111373310D01*
X104261310Y-111611214D01*
X104074390Y-111890959D01*
X103945638Y-112201795D01*
X103880000Y-112531777D01*
X99676000Y-112531777D01*
X99610362Y-112201795D01*
X99481610Y-111890959D01*
X99294690Y-111611214D01*
X99056786Y-111373310D01*
X98777041Y-111186390D01*
X98466205Y-111057638D01*
X98136223Y-110992000D01*
X97799777Y-110992000D01*
X97469795Y-111057638D01*
X97158959Y-111186390D01*
X96879214Y-111373310D01*
X96641310Y-111611214D01*
X96454390Y-111890959D01*
X96325638Y-112201795D01*
X96260000Y-112531777D01*
X88230981Y-112531777D01*
X88259308Y-112438396D01*
X88274909Y-112280000D01*
X88274909Y-109780000D01*
X88259308Y-109621604D01*
X88213106Y-109469296D01*
X88138078Y-109328928D01*
X88096000Y-109277656D01*
X88096000Y-108222907D01*
X88116516Y-108192203D01*
X88207577Y-107972361D01*
X88254000Y-107738978D01*
X88254000Y-107501022D01*
X88244205Y-107451777D01*
X93720000Y-107451777D01*
X93720000Y-107788223D01*
X93785638Y-108118205D01*
X93914390Y-108429041D01*
X94101310Y-108708786D01*
X94339214Y-108946690D01*
X94618959Y-109133610D01*
X94929795Y-109262362D01*
X95259777Y-109328000D01*
X95596223Y-109328000D01*
X95926205Y-109262362D01*
X96237041Y-109133610D01*
X96516786Y-108946690D01*
X96754690Y-108708786D01*
X96941610Y-108429041D01*
X97070362Y-108118205D01*
X97136000Y-107788223D01*
X97136000Y-107451777D01*
X101340000Y-107451777D01*
X101340000Y-107788223D01*
X101405638Y-108118205D01*
X101534390Y-108429041D01*
X101721310Y-108708786D01*
X101959214Y-108946690D01*
X102238959Y-109133610D01*
X102549795Y-109262362D01*
X102879777Y-109328000D01*
X103216223Y-109328000D01*
X103546205Y-109262362D01*
X103857041Y-109133610D01*
X104136786Y-108946690D01*
X104374690Y-108708786D01*
X104561610Y-108429041D01*
X104690362Y-108118205D01*
X104756000Y-107788223D01*
X104756000Y-107451777D01*
X104690362Y-107121795D01*
X104561610Y-106810959D01*
X104374690Y-106531214D01*
X104136786Y-106293310D01*
X103857041Y-106106390D01*
X103546205Y-105977638D01*
X103216223Y-105912000D01*
X102879777Y-105912000D01*
X102549795Y-105977638D01*
X102238959Y-106106390D01*
X101959214Y-106293310D01*
X101721310Y-106531214D01*
X101534390Y-106810959D01*
X101405638Y-107121795D01*
X101340000Y-107451777D01*
X97136000Y-107451777D01*
X97070362Y-107121795D01*
X96941610Y-106810959D01*
X96754690Y-106531214D01*
X96516786Y-106293310D01*
X96237041Y-106106390D01*
X95926205Y-105977638D01*
X95596223Y-105912000D01*
X95259777Y-105912000D01*
X94929795Y-105977638D01*
X94618959Y-106106390D01*
X94339214Y-106293310D01*
X94101310Y-106531214D01*
X93914390Y-106810959D01*
X93785638Y-107121795D01*
X93720000Y-107451777D01*
X88244205Y-107451777D01*
X88207577Y-107267639D01*
X88116516Y-107047797D01*
X87984315Y-106849945D01*
X87816055Y-106681685D01*
X87618203Y-106549484D01*
X87398361Y-106458423D01*
X87164978Y-106412000D01*
X86927022Y-106412000D01*
X86693639Y-106458423D01*
X86473797Y-106549484D01*
X86275945Y-106681685D01*
X86107685Y-106849945D01*
X85975484Y-107047797D01*
X85884423Y-107267639D01*
X85838000Y-107501022D01*
X85838000Y-107738978D01*
X85884423Y-107972361D01*
X85975484Y-108192203D01*
X86107685Y-108390055D01*
X86230001Y-108512371D01*
X86230001Y-108969764D01*
X86213000Y-108968090D01*
X86115000Y-108972000D01*
X85913000Y-109174000D01*
X85711000Y-108972000D01*
X85613000Y-108968090D01*
X85454604Y-108983691D01*
X85302295Y-109029893D01*
X85161927Y-109104922D01*
X85038893Y-109205893D01*
X84937922Y-109328927D01*
X84862893Y-109469295D01*
X84816691Y-109621604D01*
X84801090Y-109780000D01*
X84805000Y-110778000D01*
X85007000Y-110980000D01*
X85983000Y-110980000D01*
X85983000Y-111080000D01*
X85007000Y-111080000D01*
X84805000Y-111282000D01*
X84801090Y-112280000D01*
X84816691Y-112438396D01*
X84862893Y-112590705D01*
X84887894Y-112637479D01*
X84873704Y-112629894D01*
X84721396Y-112583692D01*
X84563000Y-112568091D01*
X82563000Y-112568091D01*
X82404604Y-112583692D01*
X82252296Y-112629894D01*
X82111928Y-112704922D01*
X82093000Y-112720456D01*
X82074072Y-112704922D01*
X81933704Y-112629894D01*
X81781396Y-112583692D01*
X81623000Y-112568091D01*
X79623000Y-112568091D01*
X79464604Y-112583692D01*
X79312296Y-112629894D01*
X79298104Y-112637480D01*
X79323106Y-112590704D01*
X79369308Y-112438396D01*
X79384909Y-112280000D01*
X79384909Y-109780000D01*
X79369308Y-109621604D01*
X79323106Y-109469296D01*
X79248078Y-109328928D01*
X79206000Y-109277656D01*
X79206000Y-108905460D01*
X79558461Y-108553000D01*
X80174630Y-108553000D01*
X80179945Y-108558315D01*
X80377797Y-108690516D01*
X80597639Y-108781577D01*
X80831022Y-108828000D01*
X81068978Y-108828000D01*
X81302361Y-108781577D01*
X81522203Y-108690516D01*
X81720055Y-108558315D01*
X81888315Y-108390055D01*
X82020516Y-108192203D01*
X82111577Y-107972361D01*
X82158000Y-107738978D01*
X82158000Y-107501022D01*
X82111577Y-107267639D01*
X82020516Y-107047797D01*
X81888315Y-106849945D01*
X81883000Y-106844630D01*
X81883000Y-106668510D01*
X81910704Y-106660106D01*
X82051072Y-106585078D01*
X82174106Y-106484106D01*
X82220000Y-106428184D01*
X82265894Y-106484106D01*
X82388928Y-106585078D01*
X82529296Y-106660106D01*
X82557001Y-106668510D01*
X82557001Y-106844629D01*
X82551685Y-106849945D01*
X82419484Y-107047797D01*
X82328423Y-107267639D01*
X82282000Y-107501022D01*
X82282000Y-107738978D01*
X82328423Y-107972361D01*
X82419484Y-108192203D01*
X82551685Y-108390055D01*
X82719945Y-108558315D01*
X82917797Y-108690516D01*
X83137639Y-108781577D01*
X83371022Y-108828000D01*
X83608978Y-108828000D01*
X83842361Y-108781577D01*
X84062203Y-108690516D01*
X84260055Y-108558315D01*
X84428315Y-108390055D01*
X84560516Y-108192203D01*
X84651577Y-107972361D01*
X84698000Y-107738978D01*
X84698000Y-107501022D01*
X84651577Y-107267639D01*
X84560516Y-107047797D01*
X84428315Y-106849945D01*
X84423000Y-106844630D01*
X84423000Y-106668510D01*
X84450704Y-106660106D01*
X84591072Y-106585078D01*
X84714106Y-106484106D01*
X84815078Y-106361072D01*
X84890106Y-106220704D01*
X84936308Y-106068396D01*
X84951909Y-105910000D01*
X84951909Y-104410000D01*
X84936308Y-104251604D01*
X84890106Y-104099296D01*
X84815078Y-103958928D01*
X84714106Y-103835894D01*
X84682554Y-103810000D01*
X84714106Y-103784106D01*
X84815078Y-103661072D01*
X84890106Y-103520704D01*
X84936308Y-103368396D01*
X84951909Y-103210000D01*
X84951909Y-101710000D01*
X84936308Y-101551604D01*
X84890106Y-101399296D01*
X84815078Y-101258928D01*
X84714106Y-101135894D01*
X84648000Y-101081642D01*
X84648000Y-100691889D01*
X84653603Y-100635000D01*
X84631245Y-100407992D01*
X84565029Y-100189708D01*
X84463628Y-100000000D01*
X84457501Y-99988537D01*
X84328852Y-99831777D01*
X96260000Y-99831777D01*
X96260000Y-100168223D01*
X96325638Y-100498205D01*
X96454390Y-100809041D01*
X96641310Y-101088786D01*
X96879214Y-101326690D01*
X97158959Y-101513610D01*
X97469795Y-101642362D01*
X97799777Y-101708000D01*
X98136223Y-101708000D01*
X98466205Y-101642362D01*
X98777041Y-101513610D01*
X99056786Y-101326690D01*
X99294690Y-101088786D01*
X99481610Y-100809041D01*
X99610362Y-100498205D01*
X99676000Y-100168223D01*
X99676000Y-99831777D01*
X103880000Y-99831777D01*
X103880000Y-100168223D01*
X103945638Y-100498205D01*
X104074390Y-100809041D01*
X104261310Y-101088786D01*
X104499214Y-101326690D01*
X104778959Y-101513610D01*
X105089795Y-101642362D01*
X105419777Y-101708000D01*
X105756223Y-101708000D01*
X106086205Y-101642362D01*
X106397041Y-101513610D01*
X106676786Y-101326690D01*
X106914690Y-101088786D01*
X107101610Y-100809041D01*
X107230362Y-100498205D01*
X107296000Y-100168223D01*
X107296000Y-99831777D01*
X107230362Y-99501795D01*
X107101610Y-99190959D01*
X106914690Y-98911214D01*
X106676786Y-98673310D01*
X106397041Y-98486390D01*
X106086205Y-98357638D01*
X105756223Y-98292000D01*
X105419777Y-98292000D01*
X105089795Y-98357638D01*
X104778959Y-98486390D01*
X104499214Y-98673310D01*
X104261310Y-98911214D01*
X104074390Y-99190959D01*
X103945638Y-99501795D01*
X103880000Y-99831777D01*
X99676000Y-99831777D01*
X99610362Y-99501795D01*
X99481610Y-99190959D01*
X99294690Y-98911214D01*
X99056786Y-98673310D01*
X98777041Y-98486390D01*
X98466205Y-98357638D01*
X98136223Y-98292000D01*
X97799777Y-98292000D01*
X97469795Y-98357638D01*
X97158959Y-98486390D01*
X96879214Y-98673310D01*
X96641310Y-98911214D01*
X96454390Y-99190959D01*
X96325638Y-99501795D01*
X96260000Y-99831777D01*
X84328852Y-99831777D01*
X84312792Y-99812208D01*
X84268593Y-99775935D01*
X83714061Y-99221402D01*
X83677792Y-99177208D01*
X83501463Y-99032499D01*
X83300292Y-98924971D01*
X83082008Y-98858755D01*
X82911889Y-98842000D01*
X82911887Y-98842000D01*
X82855000Y-98836397D01*
X82798113Y-98842000D01*
X81571269Y-98842000D01*
X81569570Y-98840865D01*
X81331530Y-98742266D01*
X81078827Y-98692000D01*
X80821173Y-98692000D01*
X80568470Y-98742266D01*
X80330430Y-98840865D01*
X80116199Y-98984010D01*
X79934010Y-99166199D01*
X79790865Y-99380430D01*
X79692266Y-99618470D01*
X79642000Y-99871173D01*
X79642000Y-100128827D01*
X79692266Y-100381530D01*
X79790865Y-100619570D01*
X79792001Y-100621270D01*
X79792001Y-101081641D01*
X79725894Y-101135894D01*
X79624922Y-101258928D01*
X79549894Y-101399296D01*
X79503692Y-101551604D01*
X79488091Y-101710000D01*
X79488091Y-103210000D01*
X79503692Y-103368396D01*
X79549894Y-103520704D01*
X79624922Y-103661072D01*
X79725894Y-103784106D01*
X79757446Y-103810000D01*
X79725894Y-103835894D01*
X79624922Y-103958928D01*
X79549894Y-104099296D01*
X79503692Y-104251604D01*
X79488091Y-104410000D01*
X79488091Y-105910000D01*
X79503692Y-106068396D01*
X79549894Y-106220704D01*
X79624922Y-106361072D01*
X79725894Y-106484106D01*
X79848928Y-106585078D01*
X79989296Y-106660106D01*
X80017001Y-106668510D01*
X80017001Y-106687000D01*
X79217829Y-106687000D01*
X79172000Y-106682486D01*
X79126171Y-106687000D01*
X79126168Y-106687000D01*
X78989100Y-106700500D01*
X78813229Y-106753850D01*
X78651145Y-106840486D01*
X78509077Y-106957077D01*
X78479857Y-106992682D01*
X77645682Y-107826857D01*
X77610078Y-107856077D01*
X77514647Y-107972361D01*
X77493486Y-107998146D01*
X77406851Y-108160229D01*
X77353501Y-108336101D01*
X77335486Y-108519000D01*
X77340001Y-108564839D01*
X77340001Y-108969764D01*
X77323000Y-108968090D01*
X77225000Y-108972000D01*
X77023000Y-109174000D01*
X76821000Y-108972000D01*
X76723000Y-108968090D01*
X76564604Y-108983691D01*
X76412295Y-109029893D01*
X76271927Y-109104922D01*
X76148893Y-109205893D01*
X76047922Y-109328927D01*
X75972893Y-109469295D01*
X75926691Y-109621604D01*
X75911090Y-109780000D01*
X75915000Y-110778000D01*
X76117000Y-110980000D01*
X77093000Y-110980000D01*
X77093000Y-111080000D01*
X76117000Y-111080000D01*
X75915000Y-111282000D01*
X75911090Y-112280000D01*
X75926691Y-112438396D01*
X75972893Y-112590705D01*
X75997894Y-112637479D01*
X75983704Y-112629894D01*
X75831396Y-112583692D01*
X75673000Y-112568091D01*
X73673000Y-112568091D01*
X73514604Y-112583692D01*
X73362296Y-112629894D01*
X73221928Y-112704922D01*
X73098894Y-112805894D01*
X72997922Y-112928928D01*
X72922894Y-113069296D01*
X72876692Y-113221604D01*
X72861091Y-113380000D01*
X72861091Y-116880000D01*
X72876692Y-117038396D01*
X72922894Y-117190704D01*
X72997922Y-117331072D01*
X73098894Y-117454106D01*
X73221928Y-117555078D01*
X73337776Y-117617000D01*
X58383000Y-117617000D01*
X58383000Y-109289500D01*
X60017953Y-109289500D01*
X60017953Y-112655500D01*
X71122048Y-112655500D01*
X71122048Y-109289500D01*
X60017953Y-109289500D01*
X58383000Y-109289500D01*
X58383000Y-99698813D01*
X61842000Y-99698813D01*
X61842000Y-100301187D01*
X61959518Y-100891986D01*
X62190036Y-101448506D01*
X62524697Y-101949361D01*
X62950639Y-102375303D01*
X63451494Y-102709964D01*
X64008014Y-102940482D01*
X64598813Y-103058000D01*
X65201187Y-103058000D01*
X65791986Y-102940482D01*
X66348506Y-102709964D01*
X66849361Y-102375303D01*
X67275303Y-101949361D01*
X67609964Y-101448506D01*
X67840482Y-100891986D01*
X67958000Y-100301187D01*
X67958000Y-99698813D01*
X67840482Y-99108014D01*
X67609964Y-98551494D01*
X67368422Y-98190000D01*
X84593090Y-98190000D01*
X84608691Y-98348396D01*
X84654893Y-98500705D01*
X84729922Y-98641073D01*
X84830893Y-98764107D01*
X84953927Y-98865078D01*
X85094295Y-98940107D01*
X85246604Y-98986309D01*
X85405000Y-99001910D01*
X85778000Y-98998000D01*
X85980000Y-98796000D01*
X85980000Y-97490000D01*
X86080000Y-97490000D01*
X86080000Y-98796000D01*
X86282000Y-98998000D01*
X86655000Y-99001910D01*
X86813396Y-98986309D01*
X86965705Y-98940107D01*
X87106073Y-98865078D01*
X87229107Y-98764107D01*
X87330078Y-98641073D01*
X87405107Y-98500705D01*
X87451309Y-98348396D01*
X87466910Y-98190000D01*
X87463000Y-97692000D01*
X87261000Y-97490000D01*
X86080000Y-97490000D01*
X85980000Y-97490000D01*
X84799000Y-97490000D01*
X84597000Y-97692000D01*
X84593090Y-98190000D01*
X67368422Y-98190000D01*
X67275303Y-98050639D01*
X66849361Y-97624697D01*
X66348506Y-97290036D01*
X65791986Y-97059518D01*
X65201187Y-96942000D01*
X64598813Y-96942000D01*
X64008014Y-97059518D01*
X63451494Y-97290036D01*
X62950639Y-97624697D01*
X62524697Y-98050639D01*
X62190036Y-98551494D01*
X61959518Y-99108014D01*
X61842000Y-99698813D01*
X58383000Y-99698813D01*
X58383000Y-96920000D01*
X71893090Y-96920000D01*
X71908691Y-97078396D01*
X71954893Y-97230705D01*
X72029922Y-97371073D01*
X72130893Y-97494107D01*
X72253927Y-97595078D01*
X72394295Y-97670107D01*
X72546604Y-97716309D01*
X72705000Y-97731910D01*
X73078000Y-97728000D01*
X73280000Y-97526000D01*
X73280000Y-96220000D01*
X73380000Y-96220000D01*
X73380000Y-97526000D01*
X73582000Y-97728000D01*
X73955000Y-97731910D01*
X74113396Y-97716309D01*
X74265705Y-97670107D01*
X74406073Y-97595078D01*
X74529107Y-97494107D01*
X74630078Y-97371073D01*
X74705107Y-97230705D01*
X74751309Y-97078396D01*
X74766910Y-96920000D01*
X74763000Y-96422000D01*
X74561000Y-96220000D01*
X73380000Y-96220000D01*
X73280000Y-96220000D01*
X72099000Y-96220000D01*
X71897000Y-96422000D01*
X71893090Y-96920000D01*
X58383000Y-96920000D01*
X58383000Y-92543373D01*
X58387272Y-92500000D01*
X58370223Y-92326902D01*
X58319732Y-92160456D01*
X58237740Y-92007058D01*
X58127396Y-91872604D01*
X57992942Y-91762260D01*
X57839544Y-91680268D01*
X57673098Y-91629777D01*
X57543373Y-91617000D01*
X57500000Y-91612728D01*
X57456627Y-91617000D01*
X55570288Y-91617000D01*
X55685055Y-91540315D01*
X55690370Y-91535000D01*
X78246591Y-91535000D01*
X78218230Y-91569143D01*
X78167180Y-91629982D01*
X78166174Y-91631812D01*
X78164844Y-91633413D01*
X78127099Y-91702889D01*
X78088860Y-91772446D01*
X78088228Y-91774438D01*
X78087235Y-91776266D01*
X78063669Y-91851858D01*
X78039703Y-91927410D01*
X78039471Y-91929479D01*
X78038850Y-91931471D01*
X78030404Y-92010310D01*
X78021581Y-92088970D01*
X78021553Y-92092929D01*
X78021533Y-92093120D01*
X78021551Y-92093319D01*
X78021500Y-92100600D01*
X78021500Y-92769559D01*
X77972792Y-92710208D01*
X77928594Y-92673936D01*
X77745547Y-92490888D01*
X77708792Y-92446102D01*
X77665460Y-92410541D01*
X77629898Y-92367208D01*
X77453569Y-92222499D01*
X77252398Y-92114971D01*
X77034114Y-92048755D01*
X76863995Y-92032000D01*
X76863993Y-92032000D01*
X76807106Y-92026397D01*
X76750219Y-92032000D01*
X76721269Y-92032000D01*
X76719570Y-92030865D01*
X76481530Y-91932266D01*
X76228827Y-91882000D01*
X75971173Y-91882000D01*
X75718470Y-91932266D01*
X75480430Y-92030865D01*
X75478731Y-92032000D01*
X75191889Y-92032000D01*
X75135000Y-92026397D01*
X75078111Y-92032000D01*
X74907992Y-92048755D01*
X74689708Y-92114971D01*
X74488537Y-92222499D01*
X74433643Y-92267549D01*
X74406072Y-92244922D01*
X74265704Y-92169894D01*
X74113396Y-92123692D01*
X73955000Y-92108091D01*
X72705000Y-92108091D01*
X72546604Y-92123692D01*
X72394296Y-92169894D01*
X72253928Y-92244922D01*
X72130894Y-92345894D01*
X72029922Y-92468928D01*
X71954894Y-92609296D01*
X71908692Y-92761604D01*
X71893091Y-92920000D01*
X71893091Y-94420000D01*
X71908692Y-94578396D01*
X71954894Y-94730704D01*
X72029922Y-94871072D01*
X72070076Y-94919999D01*
X72029922Y-94968927D01*
X71954893Y-95109295D01*
X71908691Y-95261604D01*
X71893090Y-95420000D01*
X71897000Y-95918000D01*
X72099000Y-96120000D01*
X73280000Y-96120000D01*
X73280000Y-96100000D01*
X73380000Y-96100000D01*
X73380000Y-96120000D01*
X74561000Y-96120000D01*
X74763000Y-95918000D01*
X74766910Y-95420000D01*
X74751309Y-95261604D01*
X74705107Y-95109295D01*
X74630078Y-94968927D01*
X74589924Y-94919999D01*
X74630078Y-94871072D01*
X74650350Y-94833145D01*
X74655000Y-94833603D01*
X74711887Y-94828000D01*
X74711889Y-94828000D01*
X74882008Y-94811245D01*
X75100292Y-94745029D01*
X75301463Y-94637501D01*
X75477792Y-94492792D01*
X75514061Y-94448597D01*
X75574542Y-94388117D01*
X75718470Y-94447734D01*
X75971173Y-94498000D01*
X76018157Y-94498000D01*
X76074971Y-94685291D01*
X76092000Y-94717150D01*
X76092000Y-94767027D01*
X76086881Y-94819000D01*
X76092000Y-94870972D01*
X76092000Y-94870973D01*
X76107309Y-95026404D01*
X76167807Y-95225838D01*
X76266050Y-95409637D01*
X76398262Y-95570739D01*
X76438635Y-95603872D01*
X76736123Y-95901360D01*
X76769261Y-95941739D01*
X76930363Y-96073951D01*
X77114162Y-96172194D01*
X77243105Y-96211308D01*
X77313595Y-96232691D01*
X77325169Y-96233831D01*
X77217000Y-96342000D01*
X77213090Y-96365000D01*
X77228691Y-96523396D01*
X77274893Y-96675705D01*
X77349922Y-96816073D01*
X77450893Y-96939107D01*
X77573927Y-97040078D01*
X77714295Y-97115107D01*
X77866604Y-97161309D01*
X78021500Y-97176565D01*
X78021500Y-97349000D01*
X78029151Y-97427037D01*
X78036255Y-97505089D01*
X78037079Y-97507888D01*
X78037364Y-97510797D01*
X78060041Y-97585908D01*
X78082156Y-97661047D01*
X78083508Y-97663633D01*
X78084353Y-97666432D01*
X78121155Y-97735645D01*
X78157475Y-97805120D01*
X78159307Y-97807399D01*
X78160677Y-97809975D01*
X78210153Y-97870639D01*
X78259344Y-97931820D01*
X78261585Y-97933701D01*
X78263428Y-97935960D01*
X78323736Y-97985851D01*
X78383882Y-98036320D01*
X78386445Y-98037729D01*
X78388692Y-98039588D01*
X78457563Y-98076826D01*
X78526346Y-98114640D01*
X78529133Y-98115524D01*
X78531700Y-98116912D01*
X78606548Y-98140081D01*
X78681310Y-98163797D01*
X78684213Y-98164123D01*
X78687002Y-98164986D01*
X78764960Y-98173180D01*
X78842870Y-98181919D01*
X78848476Y-98181958D01*
X78848685Y-98181980D01*
X78848894Y-98181961D01*
X78854500Y-98182000D01*
X80505500Y-98182000D01*
X80583537Y-98174349D01*
X80661589Y-98167245D01*
X80664388Y-98166421D01*
X80667297Y-98166136D01*
X80742408Y-98143459D01*
X80817547Y-98121344D01*
X80820133Y-98119992D01*
X80822932Y-98119147D01*
X80892145Y-98082345D01*
X80961620Y-98046025D01*
X80963899Y-98044193D01*
X80966475Y-98042823D01*
X81027139Y-97993347D01*
X81088320Y-97944156D01*
X81090201Y-97941915D01*
X81092460Y-97940072D01*
X81142351Y-97879764D01*
X81192820Y-97819618D01*
X81194229Y-97817055D01*
X81196088Y-97814808D01*
X81233326Y-97745937D01*
X81271140Y-97677154D01*
X81272024Y-97674367D01*
X81273412Y-97671800D01*
X81296581Y-97596952D01*
X81320297Y-97522190D01*
X81320623Y-97519287D01*
X81321486Y-97516498D01*
X81329680Y-97438540D01*
X81338419Y-97360630D01*
X81338458Y-97355024D01*
X81338480Y-97354815D01*
X81338461Y-97354606D01*
X81338500Y-97349000D01*
X81338500Y-97176564D01*
X81493396Y-97161308D01*
X81645704Y-97115106D01*
X81786072Y-97040078D01*
X81909106Y-96939106D01*
X82010078Y-96816072D01*
X82085106Y-96675704D01*
X82131308Y-96523396D01*
X82146909Y-96365000D01*
X82146909Y-96123000D01*
X82651130Y-96123000D01*
X82656445Y-96128315D01*
X82854297Y-96260516D01*
X83074139Y-96351577D01*
X83307522Y-96398000D01*
X83545478Y-96398000D01*
X83778861Y-96351577D01*
X83998703Y-96260516D01*
X84196555Y-96128315D01*
X84286070Y-96038800D01*
X84425992Y-96081245D01*
X84596111Y-96098000D01*
X84596112Y-96098000D01*
X84652999Y-96103603D01*
X84707049Y-96098279D01*
X84729922Y-96141072D01*
X84770076Y-96189999D01*
X84729922Y-96238927D01*
X84654893Y-96379295D01*
X84608691Y-96531604D01*
X84593090Y-96690000D01*
X84597000Y-97188000D01*
X84799000Y-97390000D01*
X85980000Y-97390000D01*
X85980000Y-97370000D01*
X86080000Y-97370000D01*
X86080000Y-97390000D01*
X87261000Y-97390000D01*
X87463000Y-97188000D01*
X87466910Y-96690000D01*
X87451309Y-96531604D01*
X87405107Y-96379295D01*
X87330078Y-96238927D01*
X87289924Y-96189999D01*
X87330078Y-96141072D01*
X87353100Y-96098000D01*
X88376974Y-96098000D01*
X88569470Y-96177734D01*
X88822173Y-96228000D01*
X89079827Y-96228000D01*
X89332530Y-96177734D01*
X89570570Y-96079135D01*
X89784801Y-95935990D01*
X89966990Y-95753801D01*
X90110135Y-95539570D01*
X90208734Y-95301530D01*
X90259000Y-95048827D01*
X90259000Y-94791173D01*
X90208734Y-94538470D01*
X90110135Y-94300430D01*
X89966990Y-94086199D01*
X89784801Y-93904010D01*
X89570570Y-93760865D01*
X89332530Y-93662266D01*
X89079827Y-93612000D01*
X88822173Y-93612000D01*
X88569470Y-93662266D01*
X88331430Y-93760865D01*
X88299799Y-93782000D01*
X87353100Y-93782000D01*
X87330078Y-93738928D01*
X87229106Y-93615894D01*
X87106072Y-93514922D01*
X86965704Y-93439894D01*
X86813396Y-93393692D01*
X86655000Y-93378091D01*
X85405000Y-93378091D01*
X85246604Y-93393692D01*
X85094296Y-93439894D01*
X84953928Y-93514922D01*
X84905404Y-93554745D01*
X84812061Y-93461402D01*
X84775792Y-93417208D01*
X84599463Y-93272499D01*
X84398292Y-93164971D01*
X84180008Y-93098755D01*
X84009889Y-93082000D01*
X84009887Y-93082000D01*
X83953000Y-93076397D01*
X83896113Y-93082000D01*
X81998111Y-93082000D01*
X81827992Y-93098755D01*
X81609708Y-93164971D01*
X81577849Y-93182000D01*
X81338500Y-93182000D01*
X81338500Y-92103900D01*
X81330924Y-92026633D01*
X81324055Y-91949447D01*
X81323003Y-91945846D01*
X81322636Y-91942103D01*
X81300195Y-91867776D01*
X81278466Y-91793397D01*
X81276734Y-91790067D01*
X81275647Y-91786468D01*
X81239229Y-91717976D01*
X81203435Y-91649174D01*
X81201086Y-91646240D01*
X81199323Y-91642925D01*
X81150323Y-91582845D01*
X81112012Y-91535000D01*
X85000630Y-91535000D01*
X85005945Y-91540315D01*
X85203797Y-91672516D01*
X85423639Y-91763577D01*
X85657022Y-91810000D01*
X85894978Y-91810000D01*
X86128361Y-91763577D01*
X86348203Y-91672516D01*
X86546055Y-91540315D01*
X86714315Y-91372055D01*
X86846516Y-91174203D01*
X86937577Y-90954361D01*
X86973652Y-90773000D01*
X95651515Y-90773000D01*
X95693894Y-90912704D01*
X95768922Y-91053072D01*
X95869894Y-91176106D01*
X95992928Y-91277078D01*
X96133296Y-91352106D01*
X96285604Y-91398308D01*
X96444000Y-91413909D01*
X98476000Y-91413909D01*
X98634396Y-91398308D01*
X98730000Y-91369307D01*
X98825604Y-91398308D01*
X98984000Y-91413909D01*
X101016000Y-91413909D01*
X101174396Y-91398308D01*
X101270000Y-91369307D01*
X101365604Y-91398308D01*
X101524000Y-91413909D01*
X103556000Y-91413909D01*
X103714396Y-91398308D01*
X103810000Y-91369307D01*
X103905604Y-91398308D01*
X104047001Y-91412235D01*
X104047001Y-92386649D01*
X104009484Y-92442797D01*
X103918423Y-92662639D01*
X103872000Y-92896022D01*
X103872000Y-93133978D01*
X103918423Y-93367361D01*
X104009484Y-93587203D01*
X104141685Y-93785055D01*
X104309945Y-93953315D01*
X104507797Y-94085516D01*
X104727639Y-94176577D01*
X104961022Y-94223000D01*
X105198978Y-94223000D01*
X105432361Y-94176577D01*
X105652203Y-94085516D01*
X105850055Y-93953315D01*
X106018315Y-93785055D01*
X106150516Y-93587203D01*
X106241577Y-93367361D01*
X106288000Y-93133978D01*
X106288000Y-92896022D01*
X106241577Y-92662639D01*
X106150516Y-92442797D01*
X106113000Y-92386651D01*
X106113000Y-91412235D01*
X106254396Y-91398308D01*
X106349998Y-91369308D01*
X106445604Y-91398309D01*
X106604000Y-91413910D01*
X107368000Y-91410000D01*
X107570000Y-91208000D01*
X107570000Y-89128000D01*
X107670000Y-89128000D01*
X107670000Y-91208000D01*
X107872000Y-91410000D01*
X108636000Y-91413910D01*
X108794396Y-91398309D01*
X108890000Y-91369308D01*
X108985604Y-91398309D01*
X109144000Y-91413910D01*
X109908000Y-91410000D01*
X110110000Y-91208000D01*
X110110000Y-89128000D01*
X107670000Y-89128000D01*
X107570000Y-89128000D01*
X107550000Y-89128000D01*
X107550000Y-89028000D01*
X107570000Y-89028000D01*
X107570000Y-86948000D01*
X107670000Y-86948000D01*
X107670000Y-89028000D01*
X110110000Y-89028000D01*
X110110000Y-86948000D01*
X109908000Y-86746000D01*
X109144000Y-86742090D01*
X108985604Y-86757691D01*
X108890000Y-86786692D01*
X108794396Y-86757691D01*
X108636000Y-86742090D01*
X107872000Y-86746000D01*
X107670000Y-86948000D01*
X107570000Y-86948000D01*
X107368000Y-86746000D01*
X106604000Y-86742090D01*
X106445604Y-86757691D01*
X106349998Y-86786692D01*
X106254396Y-86757692D01*
X106096000Y-86742091D01*
X104064000Y-86742091D01*
X103905604Y-86757692D01*
X103810000Y-86786693D01*
X103727194Y-86761574D01*
X103748000Y-86656978D01*
X103748000Y-86419022D01*
X103701577Y-86185639D01*
X103610516Y-85965797D01*
X103478315Y-85767945D01*
X103310055Y-85599685D01*
X103112203Y-85467484D01*
X102892361Y-85376423D01*
X102658978Y-85330000D01*
X102421022Y-85330000D01*
X102187639Y-85376423D01*
X101967797Y-85467484D01*
X101769945Y-85599685D01*
X101601685Y-85767945D01*
X101469484Y-85965797D01*
X101378423Y-86185639D01*
X101332000Y-86419022D01*
X101332000Y-86656978D01*
X101352806Y-86761574D01*
X101270000Y-86786693D01*
X101187194Y-86761574D01*
X101208000Y-86656978D01*
X101208000Y-86419022D01*
X101161577Y-86185639D01*
X101070516Y-85965797D01*
X100938315Y-85767945D01*
X100819370Y-85649000D01*
X100938315Y-85530055D01*
X101070516Y-85332203D01*
X101161577Y-85112361D01*
X101208000Y-84878978D01*
X101208000Y-84641022D01*
X101161577Y-84407639D01*
X101070516Y-84187797D01*
X100938315Y-83989945D01*
X100863370Y-83915000D01*
X101764630Y-83915000D01*
X101769945Y-83920315D01*
X101967797Y-84052516D01*
X102187639Y-84143577D01*
X102421022Y-84190000D01*
X102658978Y-84190000D01*
X102892361Y-84143577D01*
X103112203Y-84052516D01*
X103310055Y-83920315D01*
X103478315Y-83752055D01*
X103610516Y-83554203D01*
X103701577Y-83334361D01*
X103748000Y-83100978D01*
X103748000Y-82863022D01*
X103701577Y-82629639D01*
X103610516Y-82409797D01*
X103478315Y-82211945D01*
X103310055Y-82043685D01*
X103219234Y-81983000D01*
X104451651Y-81983000D01*
X104507797Y-82020516D01*
X104727639Y-82111577D01*
X104961022Y-82158000D01*
X105198978Y-82158000D01*
X105432361Y-82111577D01*
X105652203Y-82020516D01*
X105850055Y-81888315D01*
X106018315Y-81720055D01*
X106150516Y-81522203D01*
X106241577Y-81302361D01*
X106288000Y-81068978D01*
X106288000Y-80831022D01*
X106241577Y-80597639D01*
X106150516Y-80377797D01*
X106018315Y-80179945D01*
X105850055Y-80011685D01*
X105652203Y-79879484D01*
X105432361Y-79788423D01*
X105198978Y-79742000D01*
X104961022Y-79742000D01*
X104727639Y-79788423D01*
X104507797Y-79879484D01*
X104451651Y-79917000D01*
X98644524Y-79917000D01*
X98668000Y-79798978D01*
X98668000Y-79561022D01*
X98621577Y-79327639D01*
X98530516Y-79107797D01*
X98398315Y-78909945D01*
X98393000Y-78904630D01*
X98393000Y-77819000D01*
X103068171Y-77819000D01*
X103114000Y-77823514D01*
X103159829Y-77819000D01*
X103159832Y-77819000D01*
X103296900Y-77805500D01*
X103472771Y-77752150D01*
X103634855Y-77665514D01*
X103776923Y-77548923D01*
X103806147Y-77513313D01*
X108247318Y-73072143D01*
X108282923Y-73042923D01*
X108366586Y-72940978D01*
X108399514Y-72900856D01*
X108478084Y-72753861D01*
X108486150Y-72738771D01*
X108522813Y-72617909D01*
X108636000Y-72617909D01*
X108794396Y-72602308D01*
X108889998Y-72573308D01*
X108985604Y-72602309D01*
X109144000Y-72617910D01*
X109908000Y-72614000D01*
X110110000Y-72412000D01*
X110110000Y-70332000D01*
X110090000Y-70332000D01*
X110090000Y-70232000D01*
X110110000Y-70232000D01*
X110110000Y-68152000D01*
X109908000Y-67950000D01*
X109144000Y-67946090D01*
X108985604Y-67961691D01*
X108889998Y-67990692D01*
X108794396Y-67961692D01*
X108636000Y-67946091D01*
X106604000Y-67946091D01*
X106445604Y-67961692D01*
X106350000Y-67990693D01*
X106254396Y-67961692D01*
X106096000Y-67946091D01*
X104064000Y-67946091D01*
X103905604Y-67961692D01*
X103810000Y-67990693D01*
X103714396Y-67961692D01*
X103556000Y-67946091D01*
X101524000Y-67946091D01*
X101365604Y-67961692D01*
X101270000Y-67990693D01*
X101174396Y-67961692D01*
X101016000Y-67946091D01*
X100728485Y-67946091D01*
X100770055Y-67918315D01*
X100938315Y-67750055D01*
X101070516Y-67552203D01*
X101161577Y-67332361D01*
X101208000Y-67098978D01*
X101208000Y-66861022D01*
X101161577Y-66627639D01*
X101070516Y-66407797D01*
X100938315Y-66209945D01*
X100770055Y-66041685D01*
X100572203Y-65909484D01*
X100352361Y-65818423D01*
X100118978Y-65772000D01*
X99881022Y-65772000D01*
X99647639Y-65818423D01*
X99427797Y-65909484D01*
X99371651Y-65947000D01*
X96240737Y-65947000D01*
X96190000Y-65942003D01*
X96139262Y-65947000D01*
X96139255Y-65947000D01*
X96005759Y-65960148D01*
X95987496Y-65961947D01*
X95792775Y-66021015D01*
X95613319Y-66116936D01*
X95552922Y-66166503D01*
X95495440Y-66213677D01*
X95495436Y-66213681D01*
X95456025Y-66246025D01*
X95423681Y-66285437D01*
X93730118Y-67979000D01*
X92846909Y-67979000D01*
X92846909Y-66130000D01*
X92831308Y-65971604D01*
X92785106Y-65819296D01*
X92760104Y-65772520D01*
X92774296Y-65780106D01*
X92926604Y-65826308D01*
X93085000Y-65841909D01*
X95085000Y-65841909D01*
X95243396Y-65826308D01*
X95395704Y-65780106D01*
X95536072Y-65705078D01*
X95659106Y-65604106D01*
X95760078Y-65481072D01*
X95835106Y-65340704D01*
X95881308Y-65188396D01*
X95896909Y-65030000D01*
X95896909Y-61550000D01*
X101205000Y-61550000D01*
X101205000Y-61780978D01*
G36*
X62221437Y-61006681D02*
G01*
X62182026Y-61039025D01*
X62149682Y-61078436D01*
X62149677Y-61078441D01*
X62136152Y-61094922D01*
X62052937Y-61196319D01*
X62040279Y-61220001D01*
X61957015Y-61375776D01*
X61897947Y-61570497D01*
X61878003Y-61773000D01*
X61883001Y-61823747D01*
X61883000Y-62541650D01*
X61845484Y-62597797D01*
X61754423Y-62817639D01*
X61708000Y-63051022D01*
X61708000Y-63288978D01*
X61754423Y-63522361D01*
X61845484Y-63742203D01*
X61977685Y-63940055D01*
X62145945Y-64108315D01*
X62343797Y-64240516D01*
X62563639Y-64331577D01*
X62797022Y-64378000D01*
X63034978Y-64378000D01*
X63044000Y-64376205D01*
X63044001Y-66090161D01*
X63039486Y-66136000D01*
X63047137Y-66213677D01*
X63057501Y-66318900D01*
X63100044Y-66459145D01*
X63110851Y-66494771D01*
X63181871Y-66627639D01*
X63197487Y-66656855D01*
X63314078Y-66798923D01*
X63349683Y-66828143D01*
X65539001Y-69017462D01*
X65539001Y-69252629D01*
X65533685Y-69257945D01*
X65401484Y-69455797D01*
X65310423Y-69675639D01*
X65274348Y-69857000D01*
X55690370Y-69857000D01*
X55685055Y-69851685D01*
X55487203Y-69719484D01*
X55267361Y-69628423D01*
X55033978Y-69582000D01*
X54796022Y-69582000D01*
X54562639Y-69628423D01*
X54342797Y-69719484D01*
X54144945Y-69851685D01*
X53976685Y-70019945D01*
X53844484Y-70217797D01*
X53753423Y-70437639D01*
X53707000Y-70671022D01*
X53707000Y-70908978D01*
X53753423Y-71142361D01*
X53844484Y-71362203D01*
X53976685Y-71560055D01*
X54144945Y-71728315D01*
X54342797Y-71860516D01*
X54562639Y-71951577D01*
X54796022Y-71998000D01*
X55033978Y-71998000D01*
X55267361Y-71951577D01*
X55487203Y-71860516D01*
X55685055Y-71728315D01*
X55690370Y-71723000D01*
X58999623Y-71723000D01*
X58995990Y-71734975D01*
X58963978Y-72060000D01*
X58995990Y-72385025D01*
X59090796Y-72697559D01*
X59244753Y-72985592D01*
X59451945Y-73238055D01*
X59563980Y-73330000D01*
X59451945Y-73421945D01*
X59244753Y-73674408D01*
X59090796Y-73962441D01*
X58995990Y-74274975D01*
X58963978Y-74600000D01*
X58995990Y-74925025D01*
X59090796Y-75237559D01*
X59244753Y-75525592D01*
X59451945Y-75778055D01*
X59570096Y-75875019D01*
X59468343Y-75956986D01*
X59259869Y-76206345D01*
X59104049Y-76491584D01*
X59006870Y-76801741D01*
X59000979Y-76831365D01*
X59174859Y-77090000D01*
X60580000Y-77090000D01*
X60580000Y-77070000D01*
X60680000Y-77070000D01*
X60680000Y-77090000D01*
X62085141Y-77090000D01*
X62259021Y-76831365D01*
X62253130Y-76801741D01*
X62155951Y-76491584D01*
X62000131Y-76206345D01*
X61791657Y-75956986D01*
X61689904Y-75875019D01*
X61808055Y-75778055D01*
X62009167Y-75533000D01*
X62140630Y-75533000D01*
X62145945Y-75538315D01*
X62343797Y-75670516D01*
X62563639Y-75761577D01*
X62797022Y-75808000D01*
X63034978Y-75808000D01*
X63268361Y-75761577D01*
X63488203Y-75670516D01*
X63686055Y-75538315D01*
X63854315Y-75370055D01*
X63986516Y-75172203D01*
X64077577Y-74952361D01*
X64124000Y-74718978D01*
X64124000Y-74481022D01*
X64077577Y-74247639D01*
X63986516Y-74027797D01*
X63854315Y-73829945D01*
X63686055Y-73661685D01*
X63488203Y-73529484D01*
X63268361Y-73438423D01*
X63034978Y-73392000D01*
X62797022Y-73392000D01*
X62563639Y-73438423D01*
X62343797Y-73529484D01*
X62145945Y-73661685D01*
X62140630Y-73667000D01*
X62009167Y-73667000D01*
X61808055Y-73421945D01*
X61696020Y-73330000D01*
X61808055Y-73238055D01*
X61818780Y-73224987D01*
X62035022Y-73268000D01*
X62272978Y-73268000D01*
X62506361Y-73221577D01*
X62726203Y-73130516D01*
X62924055Y-72998315D01*
X63092315Y-72830055D01*
X63224516Y-72632203D01*
X63315577Y-72412361D01*
X63362000Y-72178978D01*
X63362000Y-71941022D01*
X63318633Y-71723000D01*
X67220630Y-71723000D01*
X67225945Y-71728315D01*
X67423797Y-71860516D01*
X67643639Y-71951577D01*
X67877022Y-71998000D01*
X68114978Y-71998000D01*
X68348361Y-71951577D01*
X68568203Y-71860516D01*
X68766055Y-71728315D01*
X68771370Y-71723000D01*
X70328000Y-71723000D01*
X70328000Y-71924978D01*
X70374423Y-72158361D01*
X70465484Y-72378203D01*
X70597685Y-72576055D01*
X70765945Y-72744315D01*
X70963797Y-72876516D01*
X71032564Y-72905000D01*
X68803828Y-72905000D01*
X68757999Y-72900486D01*
X68712170Y-72905000D01*
X68712168Y-72905000D01*
X68575100Y-72918500D01*
X68399229Y-72971850D01*
X68237145Y-73058486D01*
X68095077Y-73175077D01*
X68065853Y-73210687D01*
X67622683Y-73653857D01*
X67587078Y-73683077D01*
X67523691Y-73760315D01*
X67470486Y-73825146D01*
X67385803Y-73983577D01*
X67383851Y-73987229D01*
X67330500Y-74163100D01*
X67317000Y-74300168D01*
X67312486Y-74346000D01*
X67317000Y-74391829D01*
X67317000Y-75062171D01*
X67312486Y-75108000D01*
X67317000Y-75153829D01*
X67317000Y-75153831D01*
X67317876Y-75162720D01*
X67229857Y-75090486D01*
X67067773Y-75003850D01*
X66891902Y-74950500D01*
X66754834Y-74937000D01*
X66754831Y-74937000D01*
X66709002Y-74932486D01*
X66663173Y-74937000D01*
X66485370Y-74937000D01*
X66480055Y-74931685D01*
X66282203Y-74799484D01*
X66062361Y-74708423D01*
X65828978Y-74662000D01*
X65591022Y-74662000D01*
X65357639Y-74708423D01*
X65137797Y-74799484D01*
X64939945Y-74931685D01*
X64771685Y-75099945D01*
X64639484Y-75297797D01*
X64548423Y-75517639D01*
X64502000Y-75751022D01*
X64502000Y-75988978D01*
X64548423Y-76222361D01*
X64639484Y-76442203D01*
X64771685Y-76640055D01*
X64826193Y-76694563D01*
X64595639Y-76740423D01*
X64375797Y-76831484D01*
X64177945Y-76963685D01*
X64009685Y-77131945D01*
X63877484Y-77329797D01*
X63786423Y-77549639D01*
X63740000Y-77783022D01*
X63740000Y-78020978D01*
X63786423Y-78254361D01*
X63877484Y-78474203D01*
X63992944Y-78647000D01*
X61927099Y-78647000D01*
X61808055Y-78501945D01*
X61689904Y-78404981D01*
X61791657Y-78323014D01*
X62000131Y-78073655D01*
X62155951Y-77788416D01*
X62253130Y-77478259D01*
X62259021Y-77448635D01*
X62085141Y-77190000D01*
X60680000Y-77190000D01*
X60680000Y-77210000D01*
X60580000Y-77210000D01*
X60580000Y-77190000D01*
X59174859Y-77190000D01*
X59000979Y-77448635D01*
X59006870Y-77478259D01*
X59104049Y-77788416D01*
X59259869Y-78073655D01*
X59468343Y-78323014D01*
X59570096Y-78404981D01*
X59451945Y-78501945D01*
X59332901Y-78647000D01*
X57194349Y-78647000D01*
X57138203Y-78609484D01*
X56918361Y-78518423D01*
X56684978Y-78472000D01*
X56447022Y-78472000D01*
X56213639Y-78518423D01*
X55993797Y-78609484D01*
X55795945Y-78741685D01*
X55740500Y-78797130D01*
X55685055Y-78741685D01*
X55487203Y-78609484D01*
X55267361Y-78518423D01*
X55033978Y-78472000D01*
X54796022Y-78472000D01*
X54562639Y-78518423D01*
X54342797Y-78609484D01*
X54144945Y-78741685D01*
X54139630Y-78747000D01*
X53230918Y-78747000D01*
X53105528Y-78559340D01*
X52956188Y-78410000D01*
X53105528Y-78260660D01*
X53230918Y-78073000D01*
X54901630Y-78073000D01*
X54906945Y-78078315D01*
X55104797Y-78210516D01*
X55324639Y-78301577D01*
X55558022Y-78348000D01*
X55795978Y-78348000D01*
X56029361Y-78301577D01*
X56249203Y-78210516D01*
X56447055Y-78078315D01*
X56615315Y-77910055D01*
X56747516Y-77712203D01*
X56838577Y-77492361D01*
X56885000Y-77258978D01*
X56885000Y-77021022D01*
X56838577Y-76787639D01*
X56747516Y-76567797D01*
X56615315Y-76369945D01*
X56447055Y-76201685D01*
X56249203Y-76069484D01*
X56029361Y-75978423D01*
X55795978Y-75932000D01*
X55558022Y-75932000D01*
X55324639Y-75978423D01*
X55104797Y-76069484D01*
X54906945Y-76201685D01*
X54901630Y-76207000D01*
X53230918Y-76207000D01*
X53105528Y-76019340D01*
X52956188Y-75870000D01*
X53105528Y-75720660D01*
X53164100Y-75633000D01*
X55937651Y-75633000D01*
X55993797Y-75670516D01*
X56213639Y-75761577D01*
X56447022Y-75808000D01*
X56684978Y-75808000D01*
X56918361Y-75761577D01*
X57138203Y-75670516D01*
X57336055Y-75538315D01*
X57504315Y-75370055D01*
X57636516Y-75172203D01*
X57727577Y-74952361D01*
X57774000Y-74718978D01*
X57774000Y-74481022D01*
X57727577Y-74247639D01*
X57636516Y-74027797D01*
X57504315Y-73829945D01*
X57336055Y-73661685D01*
X57138203Y-73529484D01*
X56918361Y-73438423D01*
X56684978Y-73392000D01*
X56447022Y-73392000D01*
X56213639Y-73438423D01*
X55993797Y-73529484D01*
X55937651Y-73567000D01*
X53164100Y-73567000D01*
X53105528Y-73479340D01*
X52860660Y-73234472D01*
X52809733Y-73200444D01*
X51740000Y-72130711D01*
X50670267Y-73200444D01*
X50619340Y-73234472D01*
X50374472Y-73479340D01*
X50182081Y-73767275D01*
X50049559Y-74087210D01*
X49982000Y-74426852D01*
X49982000Y-74773148D01*
X50049559Y-75112790D01*
X50182081Y-75432725D01*
X50374472Y-75720660D01*
X50523812Y-75870000D01*
X50374472Y-76019340D01*
X50182081Y-76307275D01*
X50049559Y-76627210D01*
X49982000Y-76966852D01*
X49982000Y-77313148D01*
X50049559Y-77652790D01*
X50182081Y-77972725D01*
X50374472Y-78260660D01*
X50523812Y-78410000D01*
X50374472Y-78559340D01*
X50182081Y-78847275D01*
X50049559Y-79167210D01*
X49982000Y-79506852D01*
X49982000Y-79853148D01*
X50049559Y-80192790D01*
X50182081Y-80512725D01*
X50374472Y-80800660D01*
X50523812Y-80950000D01*
X50374472Y-81099340D01*
X50182081Y-81387275D01*
X50049559Y-81707210D01*
X49982000Y-82046852D01*
X49982000Y-82393148D01*
X50049559Y-82732790D01*
X50182081Y-83052725D01*
X50374472Y-83340660D01*
X50523812Y-83490000D01*
X50374472Y-83639340D01*
X50182081Y-83927275D01*
X50049559Y-84247210D01*
X49982000Y-84586852D01*
X49982000Y-84933148D01*
X50049559Y-85272790D01*
X50182081Y-85592725D01*
X50374472Y-85880660D01*
X50523812Y-86030000D01*
X50374472Y-86179340D01*
X50182081Y-86467275D01*
X50049559Y-86787210D01*
X49982000Y-87126852D01*
X49982000Y-87473148D01*
X50049559Y-87812790D01*
X50182081Y-88132725D01*
X50374472Y-88420660D01*
X50619340Y-88665528D01*
X50907275Y-88857919D01*
X51227210Y-88990441D01*
X51566852Y-89058000D01*
X51913148Y-89058000D01*
X52252790Y-88990441D01*
X52572725Y-88857919D01*
X52860660Y-88665528D01*
X53105528Y-88420660D01*
X53230918Y-88233000D01*
X59735540Y-88233000D01*
X60409539Y-88907000D01*
X56452370Y-88907000D01*
X56447055Y-88901685D01*
X56249203Y-88769484D01*
X56029361Y-88678423D01*
X55795978Y-88632000D01*
X55558022Y-88632000D01*
X55324639Y-88678423D01*
X55104797Y-88769484D01*
X54906945Y-88901685D01*
X54738685Y-89069945D01*
X54606484Y-89267797D01*
X54529252Y-89454252D01*
X54342797Y-89531484D01*
X54144945Y-89663685D01*
X53976685Y-89831945D01*
X53844484Y-90029797D01*
X53753423Y-90249639D01*
X53707000Y-90483022D01*
X53707000Y-90720978D01*
X53753423Y-90954361D01*
X53844484Y-91174203D01*
X53976685Y-91372055D01*
X54144945Y-91540315D01*
X54259712Y-91617000D01*
X49383000Y-91617000D01*
X49383000Y-72040636D01*
X49973601Y-72040636D01*
X50003764Y-72385616D01*
X50100650Y-72718082D01*
X50260535Y-73025259D01*
X50282050Y-73057459D01*
X50598937Y-73130352D01*
X51669289Y-72060000D01*
X51810711Y-72060000D01*
X52881063Y-73130352D01*
X53197950Y-73057459D01*
X53364530Y-72753861D01*
X53468680Y-72423599D01*
X53506399Y-72079364D01*
X53476236Y-71734384D01*
X53379350Y-71401918D01*
X53219465Y-71094741D01*
X53197950Y-71062541D01*
X52881063Y-70989648D01*
X51810711Y-72060000D01*
X51669289Y-72060000D01*
X50598937Y-70989648D01*
X50282050Y-71062541D01*
X50115470Y-71366139D01*
X50011320Y-71696401D01*
X49973601Y-72040636D01*
X49383000Y-72040636D01*
X49383000Y-70918937D01*
X50669648Y-70918937D01*
X51740000Y-71989289D01*
X52810352Y-70918937D01*
X52737459Y-70602050D01*
X52433861Y-70435470D01*
X52103599Y-70331320D01*
X51759364Y-70293601D01*
X51414384Y-70323764D01*
X51081918Y-70420650D01*
X50774741Y-70580535D01*
X50742541Y-70602050D01*
X50669648Y-70918937D01*
X49383000Y-70918937D01*
X49383000Y-69383000D01*
X57456627Y-69383000D01*
X57500000Y-69387272D01*
X57543373Y-69383000D01*
X57673098Y-69370223D01*
X57839544Y-69319732D01*
X57992942Y-69237740D01*
X58127396Y-69127396D01*
X58237740Y-68992942D01*
X58319732Y-68839544D01*
X58370223Y-68673098D01*
X58387272Y-68500000D01*
X58383000Y-68456627D01*
X58383000Y-60803223D01*
X62424895Y-60803223D01*
X62221437Y-61006681D01*
X62221437Y-61006681D01*
G37*
X62221437Y-61006681D02*
X62182026Y-61039025D01*
X62149682Y-61078436D01*
X62149677Y-61078441D01*
X62136152Y-61094922D01*
X62052937Y-61196319D01*
X62040279Y-61220001D01*
X61957015Y-61375776D01*
X61897947Y-61570497D01*
X61878003Y-61773000D01*
X61883001Y-61823747D01*
X61883000Y-62541650D01*
X61845484Y-62597797D01*
X61754423Y-62817639D01*
X61708000Y-63051022D01*
X61708000Y-63288978D01*
X61754423Y-63522361D01*
X61845484Y-63742203D01*
X61977685Y-63940055D01*
X62145945Y-64108315D01*
X62343797Y-64240516D01*
X62563639Y-64331577D01*
X62797022Y-64378000D01*
X63034978Y-64378000D01*
X63044000Y-64376205D01*
X63044001Y-66090161D01*
X63039486Y-66136000D01*
X63047137Y-66213677D01*
X63057501Y-66318900D01*
X63100044Y-66459145D01*
X63110851Y-66494771D01*
X63181871Y-66627639D01*
X63197487Y-66656855D01*
X63314078Y-66798923D01*
X63349683Y-66828143D01*
X65539001Y-69017462D01*
X65539001Y-69252629D01*
X65533685Y-69257945D01*
X65401484Y-69455797D01*
X65310423Y-69675639D01*
X65274348Y-69857000D01*
X55690370Y-69857000D01*
X55685055Y-69851685D01*
X55487203Y-69719484D01*
X55267361Y-69628423D01*
X55033978Y-69582000D01*
X54796022Y-69582000D01*
X54562639Y-69628423D01*
X54342797Y-69719484D01*
X54144945Y-69851685D01*
X53976685Y-70019945D01*
X53844484Y-70217797D01*
X53753423Y-70437639D01*
X53707000Y-70671022D01*
X53707000Y-70908978D01*
X53753423Y-71142361D01*
X53844484Y-71362203D01*
X53976685Y-71560055D01*
X54144945Y-71728315D01*
X54342797Y-71860516D01*
X54562639Y-71951577D01*
X54796022Y-71998000D01*
X55033978Y-71998000D01*
X55267361Y-71951577D01*
X55487203Y-71860516D01*
X55685055Y-71728315D01*
X55690370Y-71723000D01*
X58999623Y-71723000D01*
X58995990Y-71734975D01*
X58963978Y-72060000D01*
X58995990Y-72385025D01*
X59090796Y-72697559D01*
X59244753Y-72985592D01*
X59451945Y-73238055D01*
X59563980Y-73330000D01*
X59451945Y-73421945D01*
X59244753Y-73674408D01*
X59090796Y-73962441D01*
X58995990Y-74274975D01*
X58963978Y-74600000D01*
X58995990Y-74925025D01*
X59090796Y-75237559D01*
X59244753Y-75525592D01*
X59451945Y-75778055D01*
X59570096Y-75875019D01*
X59468343Y-75956986D01*
X59259869Y-76206345D01*
X59104049Y-76491584D01*
X59006870Y-76801741D01*
X59000979Y-76831365D01*
X59174859Y-77090000D01*
X60580000Y-77090000D01*
X60580000Y-77070000D01*
X60680000Y-77070000D01*
X60680000Y-77090000D01*
X62085141Y-77090000D01*
X62259021Y-76831365D01*
X62253130Y-76801741D01*
X62155951Y-76491584D01*
X62000131Y-76206345D01*
X61791657Y-75956986D01*
X61689904Y-75875019D01*
X61808055Y-75778055D01*
X62009167Y-75533000D01*
X62140630Y-75533000D01*
X62145945Y-75538315D01*
X62343797Y-75670516D01*
X62563639Y-75761577D01*
X62797022Y-75808000D01*
X63034978Y-75808000D01*
X63268361Y-75761577D01*
X63488203Y-75670516D01*
X63686055Y-75538315D01*
X63854315Y-75370055D01*
X63986516Y-75172203D01*
X64077577Y-74952361D01*
X64124000Y-74718978D01*
X64124000Y-74481022D01*
X64077577Y-74247639D01*
X63986516Y-74027797D01*
X63854315Y-73829945D01*
X63686055Y-73661685D01*
X63488203Y-73529484D01*
X63268361Y-73438423D01*
X63034978Y-73392000D01*
X62797022Y-73392000D01*
X62563639Y-73438423D01*
X62343797Y-73529484D01*
X62145945Y-73661685D01*
X62140630Y-73667000D01*
X62009167Y-73667000D01*
X61808055Y-73421945D01*
X61696020Y-73330000D01*
X61808055Y-73238055D01*
X61818780Y-73224987D01*
X62035022Y-73268000D01*
X62272978Y-73268000D01*
X62506361Y-73221577D01*
X62726203Y-73130516D01*
X62924055Y-72998315D01*
X63092315Y-72830055D01*
X63224516Y-72632203D01*
X63315577Y-72412361D01*
X63362000Y-72178978D01*
X63362000Y-71941022D01*
X63318633Y-71723000D01*
X67220630Y-71723000D01*
X67225945Y-71728315D01*
X67423797Y-71860516D01*
X67643639Y-71951577D01*
X67877022Y-71998000D01*
X68114978Y-71998000D01*
X68348361Y-71951577D01*
X68568203Y-71860516D01*
X68766055Y-71728315D01*
X68771370Y-71723000D01*
X70328000Y-71723000D01*
X70328000Y-71924978D01*
X70374423Y-72158361D01*
X70465484Y-72378203D01*
X70597685Y-72576055D01*
X70765945Y-72744315D01*
X70963797Y-72876516D01*
X71032564Y-72905000D01*
X68803828Y-72905000D01*
X68757999Y-72900486D01*
X68712170Y-72905000D01*
X68712168Y-72905000D01*
X68575100Y-72918500D01*
X68399229Y-72971850D01*
X68237145Y-73058486D01*
X68095077Y-73175077D01*
X68065853Y-73210687D01*
X67622683Y-73653857D01*
X67587078Y-73683077D01*
X67523691Y-73760315D01*
X67470486Y-73825146D01*
X67385803Y-73983577D01*
X67383851Y-73987229D01*
X67330500Y-74163100D01*
X67317000Y-74300168D01*
X67312486Y-74346000D01*
X67317000Y-74391829D01*
X67317000Y-75062171D01*
X67312486Y-75108000D01*
X67317000Y-75153829D01*
X67317000Y-75153831D01*
X67317876Y-75162720D01*
X67229857Y-75090486D01*
X67067773Y-75003850D01*
X66891902Y-74950500D01*
X66754834Y-74937000D01*
X66754831Y-74937000D01*
X66709002Y-74932486D01*
X66663173Y-74937000D01*
X66485370Y-74937000D01*
X66480055Y-74931685D01*
X66282203Y-74799484D01*
X66062361Y-74708423D01*
X65828978Y-74662000D01*
X65591022Y-74662000D01*
X65357639Y-74708423D01*
X65137797Y-74799484D01*
X64939945Y-74931685D01*
X64771685Y-75099945D01*
X64639484Y-75297797D01*
X64548423Y-75517639D01*
X64502000Y-75751022D01*
X64502000Y-75988978D01*
X64548423Y-76222361D01*
X64639484Y-76442203D01*
X64771685Y-76640055D01*
X64826193Y-76694563D01*
X64595639Y-76740423D01*
X64375797Y-76831484D01*
X64177945Y-76963685D01*
X64009685Y-77131945D01*
X63877484Y-77329797D01*
X63786423Y-77549639D01*
X63740000Y-77783022D01*
X63740000Y-78020978D01*
X63786423Y-78254361D01*
X63877484Y-78474203D01*
X63992944Y-78647000D01*
X61927099Y-78647000D01*
X61808055Y-78501945D01*
X61689904Y-78404981D01*
X61791657Y-78323014D01*
X62000131Y-78073655D01*
X62155951Y-77788416D01*
X62253130Y-77478259D01*
X62259021Y-77448635D01*
X62085141Y-77190000D01*
X60680000Y-77190000D01*
X60680000Y-77210000D01*
X60580000Y-77210000D01*
X60580000Y-77190000D01*
X59174859Y-77190000D01*
X59000979Y-77448635D01*
X59006870Y-77478259D01*
X59104049Y-77788416D01*
X59259869Y-78073655D01*
X59468343Y-78323014D01*
X59570096Y-78404981D01*
X59451945Y-78501945D01*
X59332901Y-78647000D01*
X57194349Y-78647000D01*
X57138203Y-78609484D01*
X56918361Y-78518423D01*
X56684978Y-78472000D01*
X56447022Y-78472000D01*
X56213639Y-78518423D01*
X55993797Y-78609484D01*
X55795945Y-78741685D01*
X55740500Y-78797130D01*
X55685055Y-78741685D01*
X55487203Y-78609484D01*
X55267361Y-78518423D01*
X55033978Y-78472000D01*
X54796022Y-78472000D01*
X54562639Y-78518423D01*
X54342797Y-78609484D01*
X54144945Y-78741685D01*
X54139630Y-78747000D01*
X53230918Y-78747000D01*
X53105528Y-78559340D01*
X52956188Y-78410000D01*
X53105528Y-78260660D01*
X53230918Y-78073000D01*
X54901630Y-78073000D01*
X54906945Y-78078315D01*
X55104797Y-78210516D01*
X55324639Y-78301577D01*
X55558022Y-78348000D01*
X55795978Y-78348000D01*
X56029361Y-78301577D01*
X56249203Y-78210516D01*
X56447055Y-78078315D01*
X56615315Y-77910055D01*
X56747516Y-77712203D01*
X56838577Y-77492361D01*
X56885000Y-77258978D01*
X56885000Y-77021022D01*
X56838577Y-76787639D01*
X56747516Y-76567797D01*
X56615315Y-76369945D01*
X56447055Y-76201685D01*
X56249203Y-76069484D01*
X56029361Y-75978423D01*
X55795978Y-75932000D01*
X55558022Y-75932000D01*
X55324639Y-75978423D01*
X55104797Y-76069484D01*
X54906945Y-76201685D01*
X54901630Y-76207000D01*
X53230918Y-76207000D01*
X53105528Y-76019340D01*
X52956188Y-75870000D01*
X53105528Y-75720660D01*
X53164100Y-75633000D01*
X55937651Y-75633000D01*
X55993797Y-75670516D01*
X56213639Y-75761577D01*
X56447022Y-75808000D01*
X56684978Y-75808000D01*
X56918361Y-75761577D01*
X57138203Y-75670516D01*
X57336055Y-75538315D01*
X57504315Y-75370055D01*
X57636516Y-75172203D01*
X57727577Y-74952361D01*
X57774000Y-74718978D01*
X57774000Y-74481022D01*
X57727577Y-74247639D01*
X57636516Y-74027797D01*
X57504315Y-73829945D01*
X57336055Y-73661685D01*
X57138203Y-73529484D01*
X56918361Y-73438423D01*
X56684978Y-73392000D01*
X56447022Y-73392000D01*
X56213639Y-73438423D01*
X55993797Y-73529484D01*
X55937651Y-73567000D01*
X53164100Y-73567000D01*
X53105528Y-73479340D01*
X52860660Y-73234472D01*
X52809733Y-73200444D01*
X51740000Y-72130711D01*
X50670267Y-73200444D01*
X50619340Y-73234472D01*
X50374472Y-73479340D01*
X50182081Y-73767275D01*
X50049559Y-74087210D01*
X49982000Y-74426852D01*
X49982000Y-74773148D01*
X50049559Y-75112790D01*
X50182081Y-75432725D01*
X50374472Y-75720660D01*
X50523812Y-75870000D01*
X50374472Y-76019340D01*
X50182081Y-76307275D01*
X50049559Y-76627210D01*
X49982000Y-76966852D01*
X49982000Y-77313148D01*
X50049559Y-77652790D01*
X50182081Y-77972725D01*
X50374472Y-78260660D01*
X50523812Y-78410000D01*
X50374472Y-78559340D01*
X50182081Y-78847275D01*
X50049559Y-79167210D01*
X49982000Y-79506852D01*
X49982000Y-79853148D01*
X50049559Y-80192790D01*
X50182081Y-80512725D01*
X50374472Y-80800660D01*
X50523812Y-80950000D01*
X50374472Y-81099340D01*
X50182081Y-81387275D01*
X50049559Y-81707210D01*
X49982000Y-82046852D01*
X49982000Y-82393148D01*
X50049559Y-82732790D01*
X50182081Y-83052725D01*
X50374472Y-83340660D01*
X50523812Y-83490000D01*
X50374472Y-83639340D01*
X50182081Y-83927275D01*
X50049559Y-84247210D01*
X49982000Y-84586852D01*
X49982000Y-84933148D01*
X50049559Y-85272790D01*
X50182081Y-85592725D01*
X50374472Y-85880660D01*
X50523812Y-86030000D01*
X50374472Y-86179340D01*
X50182081Y-86467275D01*
X50049559Y-86787210D01*
X49982000Y-87126852D01*
X49982000Y-87473148D01*
X50049559Y-87812790D01*
X50182081Y-88132725D01*
X50374472Y-88420660D01*
X50619340Y-88665528D01*
X50907275Y-88857919D01*
X51227210Y-88990441D01*
X51566852Y-89058000D01*
X51913148Y-89058000D01*
X52252790Y-88990441D01*
X52572725Y-88857919D01*
X52860660Y-88665528D01*
X53105528Y-88420660D01*
X53230918Y-88233000D01*
X59735540Y-88233000D01*
X60409539Y-88907000D01*
X56452370Y-88907000D01*
X56447055Y-88901685D01*
X56249203Y-88769484D01*
X56029361Y-88678423D01*
X55795978Y-88632000D01*
X55558022Y-88632000D01*
X55324639Y-88678423D01*
X55104797Y-88769484D01*
X54906945Y-88901685D01*
X54738685Y-89069945D01*
X54606484Y-89267797D01*
X54529252Y-89454252D01*
X54342797Y-89531484D01*
X54144945Y-89663685D01*
X53976685Y-89831945D01*
X53844484Y-90029797D01*
X53753423Y-90249639D01*
X53707000Y-90483022D01*
X53707000Y-90720978D01*
X53753423Y-90954361D01*
X53844484Y-91174203D01*
X53976685Y-91372055D01*
X54144945Y-91540315D01*
X54259712Y-91617000D01*
X49383000Y-91617000D01*
X49383000Y-72040636D01*
X49973601Y-72040636D01*
X50003764Y-72385616D01*
X50100650Y-72718082D01*
X50260535Y-73025259D01*
X50282050Y-73057459D01*
X50598937Y-73130352D01*
X51669289Y-72060000D01*
X51810711Y-72060000D01*
X52881063Y-73130352D01*
X53197950Y-73057459D01*
X53364530Y-72753861D01*
X53468680Y-72423599D01*
X53506399Y-72079364D01*
X53476236Y-71734384D01*
X53379350Y-71401918D01*
X53219465Y-71094741D01*
X53197950Y-71062541D01*
X52881063Y-70989648D01*
X51810711Y-72060000D01*
X51669289Y-72060000D01*
X50598937Y-70989648D01*
X50282050Y-71062541D01*
X50115470Y-71366139D01*
X50011320Y-71696401D01*
X49973601Y-72040636D01*
X49383000Y-72040636D01*
X49383000Y-70918937D01*
X50669648Y-70918937D01*
X51740000Y-71989289D01*
X52810352Y-70918937D01*
X52737459Y-70602050D01*
X52433861Y-70435470D01*
X52103599Y-70331320D01*
X51759364Y-70293601D01*
X51414384Y-70323764D01*
X51081918Y-70420650D01*
X50774741Y-70580535D01*
X50742541Y-70602050D01*
X50669648Y-70918937D01*
X49383000Y-70918937D01*
X49383000Y-69383000D01*
X57456627Y-69383000D01*
X57500000Y-69387272D01*
X57543373Y-69383000D01*
X57673098Y-69370223D01*
X57839544Y-69319732D01*
X57992942Y-69237740D01*
X58127396Y-69127396D01*
X58237740Y-68992942D01*
X58319732Y-68839544D01*
X58370223Y-68673098D01*
X58387272Y-68500000D01*
X58383000Y-68456627D01*
X58383000Y-60803223D01*
X62424895Y-60803223D01*
X62221437Y-61006681D01*
G36*
X82043685Y-83989945D02*
G01*
X81911484Y-84187797D01*
X81820423Y-84407639D01*
X81774000Y-84641022D01*
X81774000Y-84878978D01*
X81820423Y-85112361D01*
X81911484Y-85332203D01*
X82043685Y-85530055D01*
X82211945Y-85698315D01*
X82409797Y-85830516D01*
X82629639Y-85921577D01*
X82863022Y-85968000D01*
X83100978Y-85968000D01*
X83334361Y-85921577D01*
X83554203Y-85830516D01*
X83752055Y-85698315D01*
X83757370Y-85693000D01*
X99136630Y-85693000D01*
X99061685Y-85767945D01*
X98929484Y-85965797D01*
X98838423Y-86185639D01*
X98792000Y-86419022D01*
X98792000Y-86656978D01*
X98812806Y-86761574D01*
X98730000Y-86786693D01*
X98634396Y-86757692D01*
X98476000Y-86742091D01*
X96444000Y-86742091D01*
X96285604Y-86757692D01*
X96133296Y-86803894D01*
X95992928Y-86878922D01*
X95869894Y-86979894D01*
X95768922Y-87102928D01*
X95693894Y-87243296D01*
X95647692Y-87395604D01*
X95632091Y-87554000D01*
X95632091Y-88907000D01*
X93190582Y-88907000D01*
X93194107Y-88904107D01*
X93295078Y-88781073D01*
X93370107Y-88640705D01*
X93416309Y-88488396D01*
X93431910Y-88330000D01*
X93428000Y-87932000D01*
X93226000Y-87730000D01*
X91920000Y-87730000D01*
X91920000Y-87750000D01*
X91820000Y-87750000D01*
X91820000Y-87730000D01*
X91800000Y-87730000D01*
X91800000Y-87630000D01*
X91820000Y-87630000D01*
X91820000Y-86424000D01*
X91920000Y-86424000D01*
X91920000Y-87630000D01*
X93226000Y-87630000D01*
X93428000Y-87428000D01*
X93431910Y-87030000D01*
X93416309Y-86871604D01*
X93370107Y-86719295D01*
X93295078Y-86578927D01*
X93194107Y-86455893D01*
X93071073Y-86354922D01*
X92930705Y-86279893D01*
X92778396Y-86233691D01*
X92620000Y-86218090D01*
X92122000Y-86222000D01*
X91920000Y-86424000D01*
X91820000Y-86424000D01*
X91618000Y-86222000D01*
X91120000Y-86218090D01*
X90961604Y-86233691D01*
X90809295Y-86279893D01*
X90668927Y-86354922D01*
X90545893Y-86455893D01*
X90519999Y-86487445D01*
X90494106Y-86455894D01*
X90371072Y-86354922D01*
X90230704Y-86279894D01*
X90078396Y-86233692D01*
X89920000Y-86218091D01*
X88420000Y-86218091D01*
X88261604Y-86233692D01*
X88109296Y-86279894D01*
X87968928Y-86354922D01*
X87845894Y-86455894D01*
X87744922Y-86578928D01*
X87669894Y-86719296D01*
X87661490Y-86747000D01*
X83040370Y-86747000D01*
X82990055Y-86696685D01*
X82792203Y-86564484D01*
X82572361Y-86473423D01*
X82338978Y-86427000D01*
X82101022Y-86427000D01*
X81867639Y-86473423D01*
X81647797Y-86564484D01*
X81508158Y-86657788D01*
X81466055Y-86615685D01*
X81268203Y-86483484D01*
X81048361Y-86392423D01*
X80814978Y-86346000D01*
X80577022Y-86346000D01*
X80343639Y-86392423D01*
X80123797Y-86483484D01*
X79925945Y-86615685D01*
X79920630Y-86621000D01*
X73204500Y-86621000D01*
X73204500Y-86546022D01*
X73158077Y-86312639D01*
X73067016Y-86092797D01*
X73043917Y-86058227D01*
X73063396Y-86056308D01*
X73215704Y-86010106D01*
X73330000Y-85949014D01*
X73444296Y-86010106D01*
X73596604Y-86056308D01*
X73755000Y-86071909D01*
X75155000Y-86071909D01*
X75313396Y-86056308D01*
X75465704Y-86010106D01*
X75606072Y-85935078D01*
X75729106Y-85834106D01*
X75830078Y-85711072D01*
X75839738Y-85693000D01*
X75856630Y-85693000D01*
X75861945Y-85698315D01*
X76059797Y-85830516D01*
X76279639Y-85921577D01*
X76513022Y-85968000D01*
X76750978Y-85968000D01*
X76984361Y-85921577D01*
X77204203Y-85830516D01*
X77402055Y-85698315D01*
X77570315Y-85530055D01*
X77702516Y-85332203D01*
X77793577Y-85112361D01*
X77840000Y-84878978D01*
X77840000Y-84641022D01*
X77793577Y-84407639D01*
X77702516Y-84187797D01*
X77570315Y-83989945D01*
X77495370Y-83915000D01*
X82118630Y-83915000D01*
X82043685Y-83989945D01*
X82043685Y-83989945D01*
G37*
X82043685Y-83989945D02*
X81911484Y-84187797D01*
X81820423Y-84407639D01*
X81774000Y-84641022D01*
X81774000Y-84878978D01*
X81820423Y-85112361D01*
X81911484Y-85332203D01*
X82043685Y-85530055D01*
X82211945Y-85698315D01*
X82409797Y-85830516D01*
X82629639Y-85921577D01*
X82863022Y-85968000D01*
X83100978Y-85968000D01*
X83334361Y-85921577D01*
X83554203Y-85830516D01*
X83752055Y-85698315D01*
X83757370Y-85693000D01*
X99136630Y-85693000D01*
X99061685Y-85767945D01*
X98929484Y-85965797D01*
X98838423Y-86185639D01*
X98792000Y-86419022D01*
X98792000Y-86656978D01*
X98812806Y-86761574D01*
X98730000Y-86786693D01*
X98634396Y-86757692D01*
X98476000Y-86742091D01*
X96444000Y-86742091D01*
X96285604Y-86757692D01*
X96133296Y-86803894D01*
X95992928Y-86878922D01*
X95869894Y-86979894D01*
X95768922Y-87102928D01*
X95693894Y-87243296D01*
X95647692Y-87395604D01*
X95632091Y-87554000D01*
X95632091Y-88907000D01*
X93190582Y-88907000D01*
X93194107Y-88904107D01*
X93295078Y-88781073D01*
X93370107Y-88640705D01*
X93416309Y-88488396D01*
X93431910Y-88330000D01*
X93428000Y-87932000D01*
X93226000Y-87730000D01*
X91920000Y-87730000D01*
X91920000Y-87750000D01*
X91820000Y-87750000D01*
X91820000Y-87730000D01*
X91800000Y-87730000D01*
X91800000Y-87630000D01*
X91820000Y-87630000D01*
X91820000Y-86424000D01*
X91920000Y-86424000D01*
X91920000Y-87630000D01*
X93226000Y-87630000D01*
X93428000Y-87428000D01*
X93431910Y-87030000D01*
X93416309Y-86871604D01*
X93370107Y-86719295D01*
X93295078Y-86578927D01*
X93194107Y-86455893D01*
X93071073Y-86354922D01*
X92930705Y-86279893D01*
X92778396Y-86233691D01*
X92620000Y-86218090D01*
X92122000Y-86222000D01*
X91920000Y-86424000D01*
X91820000Y-86424000D01*
X91618000Y-86222000D01*
X91120000Y-86218090D01*
X90961604Y-86233691D01*
X90809295Y-86279893D01*
X90668927Y-86354922D01*
X90545893Y-86455893D01*
X90519999Y-86487445D01*
X90494106Y-86455894D01*
X90371072Y-86354922D01*
X90230704Y-86279894D01*
X90078396Y-86233692D01*
X89920000Y-86218091D01*
X88420000Y-86218091D01*
X88261604Y-86233692D01*
X88109296Y-86279894D01*
X87968928Y-86354922D01*
X87845894Y-86455894D01*
X87744922Y-86578928D01*
X87669894Y-86719296D01*
X87661490Y-86747000D01*
X83040370Y-86747000D01*
X82990055Y-86696685D01*
X82792203Y-86564484D01*
X82572361Y-86473423D01*
X82338978Y-86427000D01*
X82101022Y-86427000D01*
X81867639Y-86473423D01*
X81647797Y-86564484D01*
X81508158Y-86657788D01*
X81466055Y-86615685D01*
X81268203Y-86483484D01*
X81048361Y-86392423D01*
X80814978Y-86346000D01*
X80577022Y-86346000D01*
X80343639Y-86392423D01*
X80123797Y-86483484D01*
X79925945Y-86615685D01*
X79920630Y-86621000D01*
X73204500Y-86621000D01*
X73204500Y-86546022D01*
X73158077Y-86312639D01*
X73067016Y-86092797D01*
X73043917Y-86058227D01*
X73063396Y-86056308D01*
X73215704Y-86010106D01*
X73330000Y-85949014D01*
X73444296Y-86010106D01*
X73596604Y-86056308D01*
X73755000Y-86071909D01*
X75155000Y-86071909D01*
X75313396Y-86056308D01*
X75465704Y-86010106D01*
X75606072Y-85935078D01*
X75729106Y-85834106D01*
X75830078Y-85711072D01*
X75839738Y-85693000D01*
X75856630Y-85693000D01*
X75861945Y-85698315D01*
X76059797Y-85830516D01*
X76279639Y-85921577D01*
X76513022Y-85968000D01*
X76750978Y-85968000D01*
X76984361Y-85921577D01*
X77204203Y-85830516D01*
X77402055Y-85698315D01*
X77570315Y-85530055D01*
X77702516Y-85332203D01*
X77793577Y-85112361D01*
X77840000Y-84878978D01*
X77840000Y-84641022D01*
X77793577Y-84407639D01*
X77702516Y-84187797D01*
X77570315Y-83989945D01*
X77495370Y-83915000D01*
X82118630Y-83915000D01*
X82043685Y-83989945D01*
G36*
X75379922Y-74808928D02*
G01*
X75304894Y-74949296D01*
X75258692Y-75101604D01*
X75243091Y-75260000D01*
X75243091Y-75710000D01*
X75252940Y-75810000D01*
X75243091Y-75910000D01*
X75243091Y-76360000D01*
X75252940Y-76460000D01*
X75243091Y-76560000D01*
X75243091Y-77010000D01*
X75247228Y-77052000D01*
X74975737Y-77052000D01*
X74924999Y-77047003D01*
X74874262Y-77052000D01*
X74874255Y-77052000D01*
X74742569Y-77064970D01*
X74722496Y-77066947D01*
X74691898Y-77076229D01*
X74527775Y-77126015D01*
X74348319Y-77221936D01*
X74337929Y-77230463D01*
X74247639Y-77248423D01*
X74027797Y-77339484D01*
X73829945Y-77471685D01*
X73661685Y-77639945D01*
X73529484Y-77837797D01*
X73438423Y-78057639D01*
X73392000Y-78291022D01*
X73392000Y-78528978D01*
X73438423Y-78762361D01*
X73529484Y-78982203D01*
X73661685Y-79180055D01*
X73829945Y-79348315D01*
X74027797Y-79480516D01*
X74247639Y-79571577D01*
X74337929Y-79589537D01*
X74348319Y-79598064D01*
X74527775Y-79693985D01*
X74685733Y-79741901D01*
X74722496Y-79753053D01*
X74742569Y-79755030D01*
X74874255Y-79768000D01*
X74874262Y-79768000D01*
X74924999Y-79772997D01*
X74975737Y-79768000D01*
X75247228Y-79768000D01*
X75243091Y-79810000D01*
X75243091Y-80260000D01*
X75252940Y-80360000D01*
X75243091Y-80460000D01*
X75243091Y-80910000D01*
X75252940Y-81010000D01*
X75243091Y-81110000D01*
X75243091Y-81560000D01*
X75258692Y-81718396D01*
X75304894Y-81870704D01*
X75379922Y-82011072D01*
X75411049Y-82049000D01*
X71248951Y-82049000D01*
X71280078Y-82011072D01*
X71355106Y-81870704D01*
X71401308Y-81718396D01*
X71416909Y-81560000D01*
X71416909Y-81110000D01*
X71407060Y-81010000D01*
X71416909Y-80910000D01*
X71416909Y-80460000D01*
X71407060Y-80360000D01*
X71416909Y-80260000D01*
X71416909Y-79810000D01*
X71407060Y-79710000D01*
X71416909Y-79610000D01*
X71416909Y-79160000D01*
X71407060Y-79060005D01*
X71416910Y-78960000D01*
X71413000Y-78937000D01*
X71368086Y-78892086D01*
X71355106Y-78849296D01*
X71294014Y-78735000D01*
X71355107Y-78620705D01*
X71368088Y-78577912D01*
X71413000Y-78533000D01*
X71416910Y-78510000D01*
X71407061Y-78410000D01*
X71416910Y-78310000D01*
X71413000Y-78287000D01*
X71368088Y-78242088D01*
X71355107Y-78199295D01*
X71294014Y-78084999D01*
X71355106Y-77970704D01*
X71368086Y-77927914D01*
X71413000Y-77883000D01*
X71416910Y-77860000D01*
X71407060Y-77759995D01*
X71416909Y-77660000D01*
X71416909Y-77210000D01*
X71407060Y-77110000D01*
X71416909Y-77010000D01*
X71416909Y-76560000D01*
X71407060Y-76460000D01*
X71416909Y-76360000D01*
X71416909Y-75910000D01*
X71407060Y-75810000D01*
X71416909Y-75710000D01*
X71416909Y-75260000D01*
X71401308Y-75101604D01*
X71355106Y-74949296D01*
X71280078Y-74808928D01*
X71248951Y-74771000D01*
X75411049Y-74771000D01*
X75379922Y-74808928D01*
X75379922Y-74808928D01*
G37*
X75379922Y-74808928D02*
X75304894Y-74949296D01*
X75258692Y-75101604D01*
X75243091Y-75260000D01*
X75243091Y-75710000D01*
X75252940Y-75810000D01*
X75243091Y-75910000D01*
X75243091Y-76360000D01*
X75252940Y-76460000D01*
X75243091Y-76560000D01*
X75243091Y-77010000D01*
X75247228Y-77052000D01*
X74975737Y-77052000D01*
X74924999Y-77047003D01*
X74874262Y-77052000D01*
X74874255Y-77052000D01*
X74742569Y-77064970D01*
X74722496Y-77066947D01*
X74691898Y-77076229D01*
X74527775Y-77126015D01*
X74348319Y-77221936D01*
X74337929Y-77230463D01*
X74247639Y-77248423D01*
X74027797Y-77339484D01*
X73829945Y-77471685D01*
X73661685Y-77639945D01*
X73529484Y-77837797D01*
X73438423Y-78057639D01*
X73392000Y-78291022D01*
X73392000Y-78528978D01*
X73438423Y-78762361D01*
X73529484Y-78982203D01*
X73661685Y-79180055D01*
X73829945Y-79348315D01*
X74027797Y-79480516D01*
X74247639Y-79571577D01*
X74337929Y-79589537D01*
X74348319Y-79598064D01*
X74527775Y-79693985D01*
X74685733Y-79741901D01*
X74722496Y-79753053D01*
X74742569Y-79755030D01*
X74874255Y-79768000D01*
X74874262Y-79768000D01*
X74924999Y-79772997D01*
X74975737Y-79768000D01*
X75247228Y-79768000D01*
X75243091Y-79810000D01*
X75243091Y-80260000D01*
X75252940Y-80360000D01*
X75243091Y-80460000D01*
X75243091Y-80910000D01*
X75252940Y-81010000D01*
X75243091Y-81110000D01*
X75243091Y-81560000D01*
X75258692Y-81718396D01*
X75304894Y-81870704D01*
X75379922Y-82011072D01*
X75411049Y-82049000D01*
X71248951Y-82049000D01*
X71280078Y-82011072D01*
X71355106Y-81870704D01*
X71401308Y-81718396D01*
X71416909Y-81560000D01*
X71416909Y-81110000D01*
X71407060Y-81010000D01*
X71416909Y-80910000D01*
X71416909Y-80460000D01*
X71407060Y-80360000D01*
X71416909Y-80260000D01*
X71416909Y-79810000D01*
X71407060Y-79710000D01*
X71416909Y-79610000D01*
X71416909Y-79160000D01*
X71407060Y-79060005D01*
X71416910Y-78960000D01*
X71413000Y-78937000D01*
X71368086Y-78892086D01*
X71355106Y-78849296D01*
X71294014Y-78735000D01*
X71355107Y-78620705D01*
X71368088Y-78577912D01*
X71413000Y-78533000D01*
X71416910Y-78510000D01*
X71407061Y-78410000D01*
X71416910Y-78310000D01*
X71413000Y-78287000D01*
X71368088Y-78242088D01*
X71355107Y-78199295D01*
X71294014Y-78084999D01*
X71355106Y-77970704D01*
X71368086Y-77927914D01*
X71413000Y-77883000D01*
X71416910Y-77860000D01*
X71407060Y-77759995D01*
X71416909Y-77660000D01*
X71416909Y-77210000D01*
X71407060Y-77110000D01*
X71416909Y-77010000D01*
X71416909Y-76560000D01*
X71407060Y-76460000D01*
X71416909Y-76360000D01*
X71416909Y-75910000D01*
X71407060Y-75810000D01*
X71416909Y-75710000D01*
X71416909Y-75260000D01*
X71401308Y-75101604D01*
X71355106Y-74949296D01*
X71280078Y-74808928D01*
X71248951Y-74771000D01*
X75411049Y-74771000D01*
X75379922Y-74808928D01*
G36*
X95632091Y-71806000D02*
G01*
X95647692Y-71964396D01*
X95693894Y-72116704D01*
X95768922Y-72257072D01*
X95869894Y-72380106D01*
X95992928Y-72481078D01*
X96133296Y-72556106D01*
X96272806Y-72598426D01*
X96252000Y-72703022D01*
X96252000Y-72905000D01*
X92238436Y-72905000D01*
X92307203Y-72876516D01*
X92505055Y-72744315D01*
X92673315Y-72576055D01*
X92805516Y-72378203D01*
X92896577Y-72158361D01*
X92943000Y-71924978D01*
X92943000Y-71687022D01*
X92896577Y-71453639D01*
X92805516Y-71233797D01*
X92768000Y-71177651D01*
X92768000Y-70045000D01*
X94107263Y-70045000D01*
X94158000Y-70049997D01*
X94208737Y-70045000D01*
X94208745Y-70045000D01*
X94360503Y-70030053D01*
X94555225Y-69970985D01*
X94734681Y-69875064D01*
X94891975Y-69745975D01*
X94924324Y-69706558D01*
X95632091Y-68998791D01*
X95632091Y-71806000D01*
X95632091Y-71806000D01*
G37*
X95632091Y-71806000D02*
X95647692Y-71964396D01*
X95693894Y-72116704D01*
X95768922Y-72257072D01*
X95869894Y-72380106D01*
X95992928Y-72481078D01*
X96133296Y-72556106D01*
X96272806Y-72598426D01*
X96252000Y-72703022D01*
X96252000Y-72905000D01*
X92238436Y-72905000D01*
X92307203Y-72876516D01*
X92505055Y-72744315D01*
X92673315Y-72576055D01*
X92805516Y-72378203D01*
X92896577Y-72158361D01*
X92943000Y-71924978D01*
X92943000Y-71687022D01*
X92896577Y-71453639D01*
X92805516Y-71233797D01*
X92768000Y-71177651D01*
X92768000Y-70045000D01*
X94107263Y-70045000D01*
X94158000Y-70049997D01*
X94208737Y-70045000D01*
X94208745Y-70045000D01*
X94360503Y-70030053D01*
X94555225Y-69970985D01*
X94734681Y-69875064D01*
X94891975Y-69745975D01*
X94924324Y-69706558D01*
X95632091Y-68998791D01*
X95632091Y-71806000D01*
G36*
X74027797Y-72876516D02*
G01*
X74096564Y-72905000D01*
X72039436Y-72905000D01*
X72108203Y-72876516D01*
X72164349Y-72839000D01*
X73971651Y-72839000D01*
X74027797Y-72876516D01*
X74027797Y-72876516D01*
G37*
X74027797Y-72876516D02*
X74096564Y-72905000D01*
X72039436Y-72905000D01*
X72108203Y-72876516D01*
X72164349Y-72839000D01*
X73971651Y-72839000D01*
X74027797Y-72876516D01*
G36*
X75253928Y-60854922D02*
G01*
X75130894Y-60955894D01*
X75029922Y-61078928D01*
X74954894Y-61219296D01*
X74908692Y-61371604D01*
X74893091Y-61530000D01*
X74893091Y-64790633D01*
X74718978Y-64756000D01*
X74481022Y-64756000D01*
X74247639Y-64802423D01*
X74027797Y-64893484D01*
X73971651Y-64931000D01*
X66257846Y-64931000D01*
X66200203Y-64892484D01*
X65980361Y-64801423D01*
X65746978Y-64755000D01*
X65509022Y-64755000D01*
X65275639Y-64801423D01*
X65055797Y-64892484D01*
X64910000Y-64989903D01*
X64910000Y-64331909D01*
X66430000Y-64331909D01*
X66588396Y-64316308D01*
X66740704Y-64270106D01*
X66881072Y-64195078D01*
X67004106Y-64094106D01*
X67105078Y-63971072D01*
X67180106Y-63830704D01*
X67226308Y-63678396D01*
X67241909Y-63520000D01*
X67241909Y-63326967D01*
X67371604Y-63366309D01*
X67530000Y-63381910D01*
X68128000Y-63378000D01*
X68330000Y-63176000D01*
X68330000Y-62220000D01*
X68430000Y-62220000D01*
X68430000Y-63176000D01*
X68632000Y-63378000D01*
X69230000Y-63381910D01*
X69388396Y-63366309D01*
X69540705Y-63320107D01*
X69681073Y-63245078D01*
X69804107Y-63144107D01*
X69905078Y-63021073D01*
X69980107Y-62880705D01*
X70026309Y-62728396D01*
X70041910Y-62570000D01*
X70038000Y-62422000D01*
X69836000Y-62220000D01*
X68430000Y-62220000D01*
X68330000Y-62220000D01*
X68310000Y-62220000D01*
X68310000Y-62120000D01*
X68330000Y-62120000D01*
X68330000Y-61164000D01*
X68430000Y-61164000D01*
X68430000Y-62120000D01*
X69836000Y-62120000D01*
X70038000Y-61918000D01*
X70041910Y-61770000D01*
X70026309Y-61611604D01*
X69980107Y-61459295D01*
X69905078Y-61318927D01*
X69804107Y-61195893D01*
X69681073Y-61094922D01*
X69540705Y-61019893D01*
X69388396Y-60973691D01*
X69230000Y-60958090D01*
X68632000Y-60962000D01*
X68430000Y-61164000D01*
X68330000Y-61164000D01*
X68128000Y-60962000D01*
X67530000Y-60958090D01*
X67371604Y-60973691D01*
X67241909Y-61013033D01*
X67241909Y-60820000D01*
X67240257Y-60803223D01*
X75350650Y-60803223D01*
X75253928Y-60854922D01*
X75253928Y-60854922D01*
G37*
X75253928Y-60854922D02*
X75130894Y-60955894D01*
X75029922Y-61078928D01*
X74954894Y-61219296D01*
X74908692Y-61371604D01*
X74893091Y-61530000D01*
X74893091Y-64790633D01*
X74718978Y-64756000D01*
X74481022Y-64756000D01*
X74247639Y-64802423D01*
X74027797Y-64893484D01*
X73971651Y-64931000D01*
X66257846Y-64931000D01*
X66200203Y-64892484D01*
X65980361Y-64801423D01*
X65746978Y-64755000D01*
X65509022Y-64755000D01*
X65275639Y-64801423D01*
X65055797Y-64892484D01*
X64910000Y-64989903D01*
X64910000Y-64331909D01*
X66430000Y-64331909D01*
X66588396Y-64316308D01*
X66740704Y-64270106D01*
X66881072Y-64195078D01*
X67004106Y-64094106D01*
X67105078Y-63971072D01*
X67180106Y-63830704D01*
X67226308Y-63678396D01*
X67241909Y-63520000D01*
X67241909Y-63326967D01*
X67371604Y-63366309D01*
X67530000Y-63381910D01*
X68128000Y-63378000D01*
X68330000Y-63176000D01*
X68330000Y-62220000D01*
X68430000Y-62220000D01*
X68430000Y-63176000D01*
X68632000Y-63378000D01*
X69230000Y-63381910D01*
X69388396Y-63366309D01*
X69540705Y-63320107D01*
X69681073Y-63245078D01*
X69804107Y-63144107D01*
X69905078Y-63021073D01*
X69980107Y-62880705D01*
X70026309Y-62728396D01*
X70041910Y-62570000D01*
X70038000Y-62422000D01*
X69836000Y-62220000D01*
X68430000Y-62220000D01*
X68330000Y-62220000D01*
X68310000Y-62220000D01*
X68310000Y-62120000D01*
X68330000Y-62120000D01*
X68330000Y-61164000D01*
X68430000Y-61164000D01*
X68430000Y-62120000D01*
X69836000Y-62120000D01*
X70038000Y-61918000D01*
X70041910Y-61770000D01*
X70026309Y-61611604D01*
X69980107Y-61459295D01*
X69905078Y-61318927D01*
X69804107Y-61195893D01*
X69681073Y-61094922D01*
X69540705Y-61019893D01*
X69388396Y-60973691D01*
X69230000Y-60958090D01*
X68632000Y-60962000D01*
X68430000Y-61164000D01*
X68330000Y-61164000D01*
X68128000Y-60962000D01*
X67530000Y-60958090D01*
X67371604Y-60973691D01*
X67241909Y-61013033D01*
X67241909Y-60820000D01*
X67240257Y-60803223D01*
X75350650Y-60803223D01*
X75253928Y-60854922D01*
G36*
X129025001Y-59200000D02*
G01*
X123964060Y-59200000D01*
X123977036Y-59198722D01*
X124189100Y-59134393D01*
X124384538Y-59029929D01*
X124555842Y-58889344D01*
X124591076Y-58846411D01*
X124805596Y-58631891D01*
X124810694Y-58636989D01*
X125113697Y-58839448D01*
X125450375Y-58978905D01*
X125807791Y-59050000D01*
X126172209Y-59050000D01*
X126529625Y-58978905D01*
X126866303Y-58839448D01*
X127169306Y-58636989D01*
X127426989Y-58379306D01*
X127629448Y-58076303D01*
X127768905Y-57739625D01*
X127840000Y-57382209D01*
X127840000Y-57017791D01*
X127768905Y-56660375D01*
X127629448Y-56323697D01*
X127579684Y-56249220D01*
X127691943Y-56112432D01*
X127775514Y-55956081D01*
X127826977Y-55786431D01*
X127844354Y-55610000D01*
X127844354Y-53710000D01*
X127826977Y-53533569D01*
X127775514Y-53363919D01*
X127691943Y-53207568D01*
X127579475Y-53070525D01*
X127442432Y-52958057D01*
X127286081Y-52874486D01*
X127116431Y-52823023D01*
X126940000Y-52805646D01*
X125040000Y-52805646D01*
X124863569Y-52823023D01*
X124693919Y-52874486D01*
X124537568Y-52958057D01*
X124400525Y-53070525D01*
X124288057Y-53207568D01*
X124204486Y-53363919D01*
X124153023Y-53533569D01*
X124135646Y-53710000D01*
X124135646Y-55610000D01*
X124153023Y-55786431D01*
X124204486Y-55956081D01*
X124288057Y-56112432D01*
X124301645Y-56128989D01*
X124213896Y-56155607D01*
X124018458Y-56260071D01*
X123847154Y-56400656D01*
X123811924Y-56443584D01*
X123290509Y-56965000D01*
X121803243Y-56965000D01*
X121801943Y-56962568D01*
X121689475Y-56825525D01*
X121552432Y-56713057D01*
X121396081Y-56629486D01*
X121226431Y-56578023D01*
X121050000Y-56560646D01*
X119550000Y-56560646D01*
X119373569Y-56578023D01*
X119203919Y-56629486D01*
X119050000Y-56711757D01*
X118896081Y-56629486D01*
X118726431Y-56578023D01*
X118550000Y-56560646D01*
X117050000Y-56560646D01*
X116873569Y-56578023D01*
X116703919Y-56629486D01*
X116547568Y-56713057D01*
X116410525Y-56825525D01*
X116298057Y-56962568D01*
X116296757Y-56965000D01*
X115443275Y-56965000D01*
X115406989Y-56910694D01*
X115149306Y-56653011D01*
X114846303Y-56450552D01*
X114509625Y-56311095D01*
X114152209Y-56240000D01*
X113787791Y-56240000D01*
X113430375Y-56311095D01*
X113093697Y-56450552D01*
X113019220Y-56500316D01*
X112882432Y-56388057D01*
X112726081Y-56304486D01*
X112684051Y-56291736D01*
X112680000Y-56250601D01*
X112680000Y-56250595D01*
X112661913Y-56066957D01*
X112590437Y-55831331D01*
X112474366Y-55614177D01*
X112318160Y-55423840D01*
X112270463Y-55384696D01*
X110950000Y-54064234D01*
X110950000Y-52700610D01*
X111046199Y-52468365D01*
X111100000Y-52197888D01*
X111100000Y-51922112D01*
X111046199Y-51651635D01*
X110940664Y-51396851D01*
X110787451Y-51167552D01*
X110592448Y-50972549D01*
X110363149Y-50819336D01*
X110108365Y-50713801D01*
X109837888Y-50660000D01*
X109562112Y-50660000D01*
X109291635Y-50713801D01*
X109036851Y-50819336D01*
X108807552Y-50972549D01*
X108612549Y-51167552D01*
X108459336Y-51396851D01*
X108353801Y-51651635D01*
X108300000Y-51922112D01*
X108300000Y-52197888D01*
X108353801Y-52468365D01*
X108450001Y-52700612D01*
X108450000Y-54520602D01*
X108443953Y-54582000D01*
X108450000Y-54643398D01*
X108450000Y-54643404D01*
X108468087Y-54827042D01*
X108539563Y-55062668D01*
X108655634Y-55279822D01*
X108811840Y-55470160D01*
X108859542Y-55509309D01*
X109846146Y-56495912D01*
X109840525Y-56500525D01*
X109728057Y-56637568D01*
X109644486Y-56793919D01*
X109593023Y-56963569D01*
X109575646Y-57140000D01*
X109575646Y-59040000D01*
X109585692Y-59142000D01*
X106049766Y-59142000D01*
X107190464Y-58001303D01*
X107238160Y-57962160D01*
X107394366Y-57771823D01*
X107510437Y-57554669D01*
X107581913Y-57319043D01*
X107600000Y-57135405D01*
X107600000Y-57135398D01*
X107606047Y-57074000D01*
X107600000Y-57012602D01*
X107600000Y-52078595D01*
X107581913Y-51894957D01*
X107554354Y-51804107D01*
X107554354Y-50890000D01*
X107536977Y-50713569D01*
X107531148Y-50694354D01*
X109200000Y-50694354D01*
X109376431Y-50676977D01*
X109546081Y-50625514D01*
X109702432Y-50541943D01*
X109839475Y-50429475D01*
X109951943Y-50292432D01*
X110035514Y-50136081D01*
X110086977Y-49966431D01*
X110104354Y-49790000D01*
X110104354Y-49071961D01*
X111400000Y-49071961D01*
X111400000Y-49328039D01*
X111449958Y-49579196D01*
X111547955Y-49815781D01*
X111675001Y-50005919D01*
X111675000Y-53213649D01*
X111670041Y-53264000D01*
X111675000Y-53314350D01*
X111689831Y-53464934D01*
X111748442Y-53658147D01*
X111843620Y-53836215D01*
X111971709Y-53992291D01*
X112010829Y-54024396D01*
X112701612Y-54715180D01*
X112733709Y-54754291D01*
X112772819Y-54786388D01*
X112889785Y-54882380D01*
X113067851Y-54977558D01*
X113259769Y-55035776D01*
X113261065Y-55036169D01*
X113364599Y-55046366D01*
X113462000Y-55055959D01*
X113512351Y-55051000D01*
X115196082Y-55051000D01*
X115386219Y-55178045D01*
X115622804Y-55276042D01*
X115873961Y-55326000D01*
X116130039Y-55326000D01*
X116381196Y-55276042D01*
X116617781Y-55178045D01*
X116830702Y-55035776D01*
X117011776Y-54854702D01*
X117154045Y-54641781D01*
X117229341Y-54460000D01*
X117409888Y-54460000D01*
X117680365Y-54406199D01*
X117912610Y-54310000D01*
X118713390Y-54310000D01*
X118945635Y-54406199D01*
X119216112Y-54460000D01*
X119491888Y-54460000D01*
X119762365Y-54406199D01*
X120017149Y-54300664D01*
X120246448Y-54147451D01*
X120441451Y-53952448D01*
X120594664Y-53723149D01*
X120700199Y-53468365D01*
X120754000Y-53197888D01*
X120754000Y-52922112D01*
X120700199Y-52651635D01*
X120594664Y-52396851D01*
X120441451Y-52167552D01*
X120246448Y-51972549D01*
X120017149Y-51819336D01*
X119762365Y-51713801D01*
X119491888Y-51660000D01*
X119216112Y-51660000D01*
X118945635Y-51713801D01*
X118713390Y-51810000D01*
X118522000Y-51810000D01*
X118522000Y-51547405D01*
X118528048Y-51486000D01*
X118503913Y-51240957D01*
X118432437Y-51005331D01*
X118380459Y-50908087D01*
X118316366Y-50788177D01*
X118160160Y-50597840D01*
X118112458Y-50558692D01*
X117437309Y-49883543D01*
X117398160Y-49835840D01*
X117207823Y-49679634D01*
X116990669Y-49563563D01*
X116755043Y-49492087D01*
X116571405Y-49474000D01*
X116571398Y-49474000D01*
X116510000Y-49467953D01*
X116448602Y-49474000D01*
X116388610Y-49474000D01*
X116156365Y-49377801D01*
X115885888Y-49324000D01*
X115610112Y-49324000D01*
X115339635Y-49377801D01*
X115084851Y-49483336D01*
X114855552Y-49636549D01*
X114660549Y-49831552D01*
X114507336Y-50060851D01*
X114401801Y-50315635D01*
X114348000Y-50586112D01*
X114348000Y-50861888D01*
X114401801Y-51132365D01*
X114507336Y-51387149D01*
X114660549Y-51616448D01*
X114855552Y-51811451D01*
X115084851Y-51964664D01*
X115339635Y-52070199D01*
X115610112Y-52124000D01*
X115885888Y-52124000D01*
X116022000Y-52096926D01*
X116022000Y-52419390D01*
X115925801Y-52651635D01*
X115911009Y-52726000D01*
X115873961Y-52726000D01*
X115622804Y-52775958D01*
X115386219Y-52873955D01*
X115196082Y-53001000D01*
X113886568Y-53001000D01*
X113725000Y-52839432D01*
X113725000Y-50005918D01*
X113852045Y-49815781D01*
X113950042Y-49579196D01*
X114000000Y-49328039D01*
X114000000Y-49071961D01*
X113950042Y-48820804D01*
X113852045Y-48584219D01*
X113709776Y-48371298D01*
X113528702Y-48190224D01*
X113315781Y-48047955D01*
X113079196Y-47949958D01*
X112828039Y-47900000D01*
X112571961Y-47900000D01*
X112320804Y-47949958D01*
X112084219Y-48047955D01*
X111871298Y-48190224D01*
X111690224Y-48371298D01*
X111547955Y-48584219D01*
X111449958Y-48820804D01*
X111400000Y-49071961D01*
X110104354Y-49071961D01*
X110104354Y-46290000D01*
X110086977Y-46113569D01*
X110035514Y-45943919D01*
X109951943Y-45787568D01*
X109839475Y-45650525D01*
X109702432Y-45538057D01*
X109584460Y-45475000D01*
X129025000Y-45475000D01*
X129025001Y-59200000D01*
X129025001Y-59200000D01*
G37*
X129025001Y-59200000D02*
X123964060Y-59200000D01*
X123977036Y-59198722D01*
X124189100Y-59134393D01*
X124384538Y-59029929D01*
X124555842Y-58889344D01*
X124591076Y-58846411D01*
X124805596Y-58631891D01*
X124810694Y-58636989D01*
X125113697Y-58839448D01*
X125450375Y-58978905D01*
X125807791Y-59050000D01*
X126172209Y-59050000D01*
X126529625Y-58978905D01*
X126866303Y-58839448D01*
X127169306Y-58636989D01*
X127426989Y-58379306D01*
X127629448Y-58076303D01*
X127768905Y-57739625D01*
X127840000Y-57382209D01*
X127840000Y-57017791D01*
X127768905Y-56660375D01*
X127629448Y-56323697D01*
X127579684Y-56249220D01*
X127691943Y-56112432D01*
X127775514Y-55956081D01*
X127826977Y-55786431D01*
X127844354Y-55610000D01*
X127844354Y-53710000D01*
X127826977Y-53533569D01*
X127775514Y-53363919D01*
X127691943Y-53207568D01*
X127579475Y-53070525D01*
X127442432Y-52958057D01*
X127286081Y-52874486D01*
X127116431Y-52823023D01*
X126940000Y-52805646D01*
X125040000Y-52805646D01*
X124863569Y-52823023D01*
X124693919Y-52874486D01*
X124537568Y-52958057D01*
X124400525Y-53070525D01*
X124288057Y-53207568D01*
X124204486Y-53363919D01*
X124153023Y-53533569D01*
X124135646Y-53710000D01*
X124135646Y-55610000D01*
X124153023Y-55786431D01*
X124204486Y-55956081D01*
X124288057Y-56112432D01*
X124301645Y-56128989D01*
X124213896Y-56155607D01*
X124018458Y-56260071D01*
X123847154Y-56400656D01*
X123811924Y-56443584D01*
X123290509Y-56965000D01*
X121803243Y-56965000D01*
X121801943Y-56962568D01*
X121689475Y-56825525D01*
X121552432Y-56713057D01*
X121396081Y-56629486D01*
X121226431Y-56578023D01*
X121050000Y-56560646D01*
X119550000Y-56560646D01*
X119373569Y-56578023D01*
X119203919Y-56629486D01*
X119050000Y-56711757D01*
X118896081Y-56629486D01*
X118726431Y-56578023D01*
X118550000Y-56560646D01*
X117050000Y-56560646D01*
X116873569Y-56578023D01*
X116703919Y-56629486D01*
X116547568Y-56713057D01*
X116410525Y-56825525D01*
X116298057Y-56962568D01*
X116296757Y-56965000D01*
X115443275Y-56965000D01*
X115406989Y-56910694D01*
X115149306Y-56653011D01*
X114846303Y-56450552D01*
X114509625Y-56311095D01*
X114152209Y-56240000D01*
X113787791Y-56240000D01*
X113430375Y-56311095D01*
X113093697Y-56450552D01*
X113019220Y-56500316D01*
X112882432Y-56388057D01*
X112726081Y-56304486D01*
X112684051Y-56291736D01*
X112680000Y-56250601D01*
X112680000Y-56250595D01*
X112661913Y-56066957D01*
X112590437Y-55831331D01*
X112474366Y-55614177D01*
X112318160Y-55423840D01*
X112270463Y-55384696D01*
X110950000Y-54064234D01*
X110950000Y-52700610D01*
X111046199Y-52468365D01*
X111100000Y-52197888D01*
X111100000Y-51922112D01*
X111046199Y-51651635D01*
X110940664Y-51396851D01*
X110787451Y-51167552D01*
X110592448Y-50972549D01*
X110363149Y-50819336D01*
X110108365Y-50713801D01*
X109837888Y-50660000D01*
X109562112Y-50660000D01*
X109291635Y-50713801D01*
X109036851Y-50819336D01*
X108807552Y-50972549D01*
X108612549Y-51167552D01*
X108459336Y-51396851D01*
X108353801Y-51651635D01*
X108300000Y-51922112D01*
X108300000Y-52197888D01*
X108353801Y-52468365D01*
X108450001Y-52700612D01*
X108450000Y-54520602D01*
X108443953Y-54582000D01*
X108450000Y-54643398D01*
X108450000Y-54643404D01*
X108468087Y-54827042D01*
X108539563Y-55062668D01*
X108655634Y-55279822D01*
X108811840Y-55470160D01*
X108859542Y-55509309D01*
X109846146Y-56495912D01*
X109840525Y-56500525D01*
X109728057Y-56637568D01*
X109644486Y-56793919D01*
X109593023Y-56963569D01*
X109575646Y-57140000D01*
X109575646Y-59040000D01*
X109585692Y-59142000D01*
X106049766Y-59142000D01*
X107190464Y-58001303D01*
X107238160Y-57962160D01*
X107394366Y-57771823D01*
X107510437Y-57554669D01*
X107581913Y-57319043D01*
X107600000Y-57135405D01*
X107600000Y-57135398D01*
X107606047Y-57074000D01*
X107600000Y-57012602D01*
X107600000Y-52078595D01*
X107581913Y-51894957D01*
X107554354Y-51804107D01*
X107554354Y-50890000D01*
X107536977Y-50713569D01*
X107531148Y-50694354D01*
X109200000Y-50694354D01*
X109376431Y-50676977D01*
X109546081Y-50625514D01*
X109702432Y-50541943D01*
X109839475Y-50429475D01*
X109951943Y-50292432D01*
X110035514Y-50136081D01*
X110086977Y-49966431D01*
X110104354Y-49790000D01*
X110104354Y-49071961D01*
X111400000Y-49071961D01*
X111400000Y-49328039D01*
X111449958Y-49579196D01*
X111547955Y-49815781D01*
X111675001Y-50005919D01*
X111675000Y-53213649D01*
X111670041Y-53264000D01*
X111675000Y-53314350D01*
X111689831Y-53464934D01*
X111748442Y-53658147D01*
X111843620Y-53836215D01*
X111971709Y-53992291D01*
X112010829Y-54024396D01*
X112701612Y-54715180D01*
X112733709Y-54754291D01*
X112772819Y-54786388D01*
X112889785Y-54882380D01*
X113067851Y-54977558D01*
X113259769Y-55035776D01*
X113261065Y-55036169D01*
X113364599Y-55046366D01*
X113462000Y-55055959D01*
X113512351Y-55051000D01*
X115196082Y-55051000D01*
X115386219Y-55178045D01*
X115622804Y-55276042D01*
X115873961Y-55326000D01*
X116130039Y-55326000D01*
X116381196Y-55276042D01*
X116617781Y-55178045D01*
X116830702Y-55035776D01*
X117011776Y-54854702D01*
X117154045Y-54641781D01*
X117229341Y-54460000D01*
X117409888Y-54460000D01*
X117680365Y-54406199D01*
X117912610Y-54310000D01*
X118713390Y-54310000D01*
X118945635Y-54406199D01*
X119216112Y-54460000D01*
X119491888Y-54460000D01*
X119762365Y-54406199D01*
X120017149Y-54300664D01*
X120246448Y-54147451D01*
X120441451Y-53952448D01*
X120594664Y-53723149D01*
X120700199Y-53468365D01*
X120754000Y-53197888D01*
X120754000Y-52922112D01*
X120700199Y-52651635D01*
X120594664Y-52396851D01*
X120441451Y-52167552D01*
X120246448Y-51972549D01*
X120017149Y-51819336D01*
X119762365Y-51713801D01*
X119491888Y-51660000D01*
X119216112Y-51660000D01*
X118945635Y-51713801D01*
X118713390Y-51810000D01*
X118522000Y-51810000D01*
X118522000Y-51547405D01*
X118528048Y-51486000D01*
X118503913Y-51240957D01*
X118432437Y-51005331D01*
X118380459Y-50908087D01*
X118316366Y-50788177D01*
X118160160Y-50597840D01*
X118112458Y-50558692D01*
X117437309Y-49883543D01*
X117398160Y-49835840D01*
X117207823Y-49679634D01*
X116990669Y-49563563D01*
X116755043Y-49492087D01*
X116571405Y-49474000D01*
X116571398Y-49474000D01*
X116510000Y-49467953D01*
X116448602Y-49474000D01*
X116388610Y-49474000D01*
X116156365Y-49377801D01*
X115885888Y-49324000D01*
X115610112Y-49324000D01*
X115339635Y-49377801D01*
X115084851Y-49483336D01*
X114855552Y-49636549D01*
X114660549Y-49831552D01*
X114507336Y-50060851D01*
X114401801Y-50315635D01*
X114348000Y-50586112D01*
X114348000Y-50861888D01*
X114401801Y-51132365D01*
X114507336Y-51387149D01*
X114660549Y-51616448D01*
X114855552Y-51811451D01*
X115084851Y-51964664D01*
X115339635Y-52070199D01*
X115610112Y-52124000D01*
X115885888Y-52124000D01*
X116022000Y-52096926D01*
X116022000Y-52419390D01*
X115925801Y-52651635D01*
X115911009Y-52726000D01*
X115873961Y-52726000D01*
X115622804Y-52775958D01*
X115386219Y-52873955D01*
X115196082Y-53001000D01*
X113886568Y-53001000D01*
X113725000Y-52839432D01*
X113725000Y-50005918D01*
X113852045Y-49815781D01*
X113950042Y-49579196D01*
X114000000Y-49328039D01*
X114000000Y-49071961D01*
X113950042Y-48820804D01*
X113852045Y-48584219D01*
X113709776Y-48371298D01*
X113528702Y-48190224D01*
X113315781Y-48047955D01*
X113079196Y-47949958D01*
X112828039Y-47900000D01*
X112571961Y-47900000D01*
X112320804Y-47949958D01*
X112084219Y-48047955D01*
X111871298Y-48190224D01*
X111690224Y-48371298D01*
X111547955Y-48584219D01*
X111449958Y-48820804D01*
X111400000Y-49071961D01*
X110104354Y-49071961D01*
X110104354Y-46290000D01*
X110086977Y-46113569D01*
X110035514Y-45943919D01*
X109951943Y-45787568D01*
X109839475Y-45650525D01*
X109702432Y-45538057D01*
X109584460Y-45475000D01*
X129025000Y-45475000D01*
X129025001Y-59200000D01*
G36*
X100497568Y-45538057D02*
G01*
X100360525Y-45650525D01*
X100248057Y-45787568D01*
X100164486Y-45943919D01*
X100113023Y-46113569D01*
X100110310Y-46141113D01*
X99874804Y-46187958D01*
X99638219Y-46285955D01*
X99425298Y-46428224D01*
X99244224Y-46609298D01*
X99101955Y-46822219D01*
X99003958Y-47058804D01*
X98954000Y-47309961D01*
X98954000Y-47566039D01*
X99003958Y-47817196D01*
X99101955Y-48053781D01*
X99229001Y-48243919D01*
X99229000Y-54760082D01*
X99101955Y-54950219D01*
X99003958Y-55186804D01*
X98954000Y-55437961D01*
X98954000Y-55530234D01*
X98673309Y-55249543D01*
X98634160Y-55201840D01*
X98443823Y-55045634D01*
X98226669Y-54929563D01*
X97991043Y-54858087D01*
X97807405Y-54840000D01*
X97807398Y-54840000D01*
X97746000Y-54833953D01*
X97684602Y-54840000D01*
X97440000Y-54840000D01*
X97440000Y-53121354D01*
X97454475Y-53109475D01*
X97566943Y-52972432D01*
X97650514Y-52816081D01*
X97701977Y-52646431D01*
X97719354Y-52470000D01*
X97719354Y-50970000D01*
X97701977Y-50793569D01*
X97650514Y-50623919D01*
X97566943Y-50467568D01*
X97505345Y-50392511D01*
X97565107Y-50280705D01*
X97611309Y-50128396D01*
X97626910Y-49970000D01*
X97623000Y-49472000D01*
X97421000Y-49270000D01*
X96240000Y-49270000D01*
X96240000Y-49290000D01*
X96140000Y-49290000D01*
X96140000Y-49270000D01*
X94959000Y-49270000D01*
X94757000Y-49472000D01*
X94753090Y-49970000D01*
X94768691Y-50128396D01*
X94781311Y-50170000D01*
X94128521Y-50170000D01*
X94156309Y-50078396D01*
X94171910Y-49920000D01*
X94168000Y-49772000D01*
X93966000Y-49570000D01*
X92800000Y-49570000D01*
X92800000Y-49470000D01*
X93966000Y-49470000D01*
X94168000Y-49268000D01*
X94171910Y-49120000D01*
X94156309Y-48961604D01*
X94110107Y-48809295D01*
X94035078Y-48668927D01*
X93934107Y-48545893D01*
X93841631Y-48470000D01*
X94753090Y-48470000D01*
X94757000Y-48968000D01*
X94959000Y-49170000D01*
X96140000Y-49170000D01*
X96140000Y-47864000D01*
X96240000Y-47864000D01*
X96240000Y-49170000D01*
X97421000Y-49170000D01*
X97623000Y-48968000D01*
X97626910Y-48470000D01*
X97611309Y-48311604D01*
X97565107Y-48159295D01*
X97490078Y-48018927D01*
X97389107Y-47895893D01*
X97266073Y-47794922D01*
X97125705Y-47719893D01*
X96973396Y-47673691D01*
X96815000Y-47658090D01*
X96442000Y-47662000D01*
X96240000Y-47864000D01*
X96140000Y-47864000D01*
X95938000Y-47662000D01*
X95565000Y-47658090D01*
X95406604Y-47673691D01*
X95254295Y-47719893D01*
X95113927Y-47794922D01*
X94990893Y-47895893D01*
X94889922Y-48018927D01*
X94814893Y-48159295D01*
X94768691Y-48311604D01*
X94753090Y-48470000D01*
X93841631Y-48470000D01*
X93811073Y-48444922D01*
X93670705Y-48369893D01*
X93518396Y-48323691D01*
X93360000Y-48308090D01*
X92800000Y-48311752D01*
X92800000Y-45475000D01*
X100615540Y-45475000D01*
X100497568Y-45538057D01*
X100497568Y-45538057D01*
G37*
X100497568Y-45538057D02*
X100360525Y-45650525D01*
X100248057Y-45787568D01*
X100164486Y-45943919D01*
X100113023Y-46113569D01*
X100110310Y-46141113D01*
X99874804Y-46187958D01*
X99638219Y-46285955D01*
X99425298Y-46428224D01*
X99244224Y-46609298D01*
X99101955Y-46822219D01*
X99003958Y-47058804D01*
X98954000Y-47309961D01*
X98954000Y-47566039D01*
X99003958Y-47817196D01*
X99101955Y-48053781D01*
X99229001Y-48243919D01*
X99229000Y-54760082D01*
X99101955Y-54950219D01*
X99003958Y-55186804D01*
X98954000Y-55437961D01*
X98954000Y-55530234D01*
X98673309Y-55249543D01*
X98634160Y-55201840D01*
X98443823Y-55045634D01*
X98226669Y-54929563D01*
X97991043Y-54858087D01*
X97807405Y-54840000D01*
X97807398Y-54840000D01*
X97746000Y-54833953D01*
X97684602Y-54840000D01*
X97440000Y-54840000D01*
X97440000Y-53121354D01*
X97454475Y-53109475D01*
X97566943Y-52972432D01*
X97650514Y-52816081D01*
X97701977Y-52646431D01*
X97719354Y-52470000D01*
X97719354Y-50970000D01*
X97701977Y-50793569D01*
X97650514Y-50623919D01*
X97566943Y-50467568D01*
X97505345Y-50392511D01*
X97565107Y-50280705D01*
X97611309Y-50128396D01*
X97626910Y-49970000D01*
X97623000Y-49472000D01*
X97421000Y-49270000D01*
X96240000Y-49270000D01*
X96240000Y-49290000D01*
X96140000Y-49290000D01*
X96140000Y-49270000D01*
X94959000Y-49270000D01*
X94757000Y-49472000D01*
X94753090Y-49970000D01*
X94768691Y-50128396D01*
X94781311Y-50170000D01*
X94128521Y-50170000D01*
X94156309Y-50078396D01*
X94171910Y-49920000D01*
X94168000Y-49772000D01*
X93966000Y-49570000D01*
X92800000Y-49570000D01*
X92800000Y-49470000D01*
X93966000Y-49470000D01*
X94168000Y-49268000D01*
X94171910Y-49120000D01*
X94156309Y-48961604D01*
X94110107Y-48809295D01*
X94035078Y-48668927D01*
X93934107Y-48545893D01*
X93841631Y-48470000D01*
X94753090Y-48470000D01*
X94757000Y-48968000D01*
X94959000Y-49170000D01*
X96140000Y-49170000D01*
X96140000Y-47864000D01*
X96240000Y-47864000D01*
X96240000Y-49170000D01*
X97421000Y-49170000D01*
X97623000Y-48968000D01*
X97626910Y-48470000D01*
X97611309Y-48311604D01*
X97565107Y-48159295D01*
X97490078Y-48018927D01*
X97389107Y-47895893D01*
X97266073Y-47794922D01*
X97125705Y-47719893D01*
X96973396Y-47673691D01*
X96815000Y-47658090D01*
X96442000Y-47662000D01*
X96240000Y-47864000D01*
X96140000Y-47864000D01*
X95938000Y-47662000D01*
X95565000Y-47658090D01*
X95406604Y-47673691D01*
X95254295Y-47719893D01*
X95113927Y-47794922D01*
X94990893Y-47895893D01*
X94889922Y-48018927D01*
X94814893Y-48159295D01*
X94768691Y-48311604D01*
X94753090Y-48470000D01*
X93841631Y-48470000D01*
X93811073Y-48444922D01*
X93670705Y-48369893D01*
X93518396Y-48323691D01*
X93360000Y-48308090D01*
X92800000Y-48311752D01*
X92800000Y-45475000D01*
X100615540Y-45475000D01*
X100497568Y-45538057D01*
G36*
X67582568Y-45538057D02*
G01*
X67445525Y-45650525D01*
X67333057Y-45787568D01*
X67249486Y-45943919D01*
X67198023Y-46113569D01*
X67180646Y-46290000D01*
X67180646Y-49790000D01*
X67198023Y-49966431D01*
X67249486Y-50136081D01*
X67333057Y-50292432D01*
X67445525Y-50429475D01*
X67582568Y-50541943D01*
X67738919Y-50625514D01*
X67908569Y-50676977D01*
X68085000Y-50694354D01*
X70085000Y-50694354D01*
X70259052Y-50677211D01*
X70248023Y-50713569D01*
X70230646Y-50890000D01*
X70230646Y-51804108D01*
X70203087Y-51894958D01*
X70185000Y-52078596D01*
X70185001Y-55393856D01*
X70184336Y-55394851D01*
X70078801Y-55649635D01*
X70025000Y-55920112D01*
X70025000Y-56195888D01*
X70078801Y-56466365D01*
X70184336Y-56721149D01*
X70337549Y-56950448D01*
X70532552Y-57145451D01*
X70761851Y-57298664D01*
X71016635Y-57404199D01*
X71287112Y-57458000D01*
X71562888Y-57458000D01*
X71833365Y-57404199D01*
X72088149Y-57298664D01*
X72317448Y-57145451D01*
X72512451Y-56950448D01*
X72665664Y-56721149D01*
X72771199Y-56466365D01*
X72825000Y-56195888D01*
X72825000Y-55920112D01*
X72771199Y-55649635D01*
X72685000Y-55441532D01*
X72685000Y-54198000D01*
X72735002Y-54198000D01*
X72735002Y-54046002D01*
X72887000Y-54198000D01*
X72985000Y-54201910D01*
X73143396Y-54186309D01*
X73295705Y-54140107D01*
X73436073Y-54065078D01*
X73559107Y-53964107D01*
X73660078Y-53841073D01*
X73735107Y-53700705D01*
X73781309Y-53548396D01*
X73796910Y-53390000D01*
X73795402Y-53005000D01*
X74198090Y-53005000D01*
X74202000Y-53103000D01*
X74404000Y-53305000D01*
X75740000Y-53305000D01*
X75740000Y-52399000D01*
X75538000Y-52197000D01*
X75010000Y-52193090D01*
X74851604Y-52208691D01*
X74699295Y-52254893D01*
X74558927Y-52329922D01*
X74435893Y-52430893D01*
X74334922Y-52553927D01*
X74259893Y-52694295D01*
X74213691Y-52846604D01*
X74198090Y-53005000D01*
X73795402Y-53005000D01*
X73793000Y-52392000D01*
X73591000Y-52190000D01*
X72685000Y-52190000D01*
X72685000Y-52090000D01*
X73591000Y-52090000D01*
X73793000Y-51888000D01*
X73796910Y-50890000D01*
X73781309Y-50731604D01*
X73755229Y-50645629D01*
X73858569Y-50676977D01*
X74035000Y-50694354D01*
X76035000Y-50694354D01*
X76211431Y-50676977D01*
X76381081Y-50625514D01*
X76537432Y-50541943D01*
X76674475Y-50429475D01*
X76786943Y-50292432D01*
X76870514Y-50136081D01*
X76921977Y-49966431D01*
X76939354Y-49790000D01*
X76939354Y-46290000D01*
X76921977Y-46113569D01*
X76870514Y-45943919D01*
X76786943Y-45787568D01*
X76674475Y-45650525D01*
X76537432Y-45538057D01*
X76419460Y-45475000D01*
X91200000Y-45475000D01*
X91200000Y-48345377D01*
X91157568Y-48368057D01*
X91020525Y-48480525D01*
X90908057Y-48617568D01*
X90824486Y-48773919D01*
X90773023Y-48943569D01*
X90755646Y-49120000D01*
X90755646Y-49188852D01*
X90736431Y-49183023D01*
X90560000Y-49165646D01*
X88860000Y-49165646D01*
X88683569Y-49183023D01*
X88561673Y-49220000D01*
X87940610Y-49220000D01*
X87708365Y-49123801D01*
X87437888Y-49070000D01*
X87162112Y-49070000D01*
X86891635Y-49123801D01*
X86636851Y-49229336D01*
X86407552Y-49382549D01*
X86212549Y-49577552D01*
X86059336Y-49806851D01*
X85953801Y-50061635D01*
X85900000Y-50332112D01*
X85900000Y-50607888D01*
X85953801Y-50878365D01*
X86059336Y-51133149D01*
X86212549Y-51362448D01*
X86407552Y-51557451D01*
X86636851Y-51710664D01*
X86891635Y-51816199D01*
X87162112Y-51870000D01*
X87437888Y-51870000D01*
X87708365Y-51816199D01*
X87940610Y-51720000D01*
X88561673Y-51720000D01*
X88683569Y-51756977D01*
X88860000Y-51774354D01*
X90560000Y-51774354D01*
X90736431Y-51756977D01*
X90755646Y-51751148D01*
X90755646Y-51820000D01*
X90773023Y-51996431D01*
X90824486Y-52166081D01*
X90908057Y-52322432D01*
X91020525Y-52459475D01*
X91157568Y-52571943D01*
X91200000Y-52594623D01*
X91200000Y-53915646D01*
X90485000Y-53915646D01*
X90308569Y-53933023D01*
X90138919Y-53984486D01*
X89982568Y-54068057D01*
X89845525Y-54180525D01*
X89733057Y-54317568D01*
X89731757Y-54320000D01*
X88741397Y-54320000D01*
X88679999Y-54313953D01*
X88618601Y-54320000D01*
X88618595Y-54320000D01*
X88434957Y-54338087D01*
X88199331Y-54409563D01*
X87982177Y-54525634D01*
X87791840Y-54681840D01*
X87752691Y-54729543D01*
X87642234Y-54840000D01*
X85400610Y-54840000D01*
X85168365Y-54743801D01*
X84897888Y-54690000D01*
X84740000Y-54690000D01*
X84740000Y-54341398D01*
X84746047Y-54280000D01*
X84740000Y-54218602D01*
X84740000Y-54218595D01*
X84721913Y-54034957D01*
X84650437Y-53799331D01*
X84534366Y-53582177D01*
X84378160Y-53391840D01*
X84330464Y-53352697D01*
X83467308Y-52489542D01*
X83428160Y-52441840D01*
X83237823Y-52285634D01*
X83020669Y-52169563D01*
X82785043Y-52098087D01*
X82601405Y-52080000D01*
X82601398Y-52080000D01*
X82540000Y-52073953D01*
X82478602Y-52080000D01*
X78428595Y-52080000D01*
X78244957Y-52098087D01*
X78236521Y-52100646D01*
X77710000Y-52100646D01*
X77533569Y-52118023D01*
X77363919Y-52169486D01*
X77207568Y-52253057D01*
X77070525Y-52365525D01*
X77068082Y-52368501D01*
X77021073Y-52329922D01*
X76880705Y-52254893D01*
X76728396Y-52208691D01*
X76570000Y-52193090D01*
X76042000Y-52197000D01*
X75840000Y-52399000D01*
X75840000Y-53305000D01*
X75860000Y-53305000D01*
X75860000Y-53355000D01*
X75840000Y-53355000D01*
X75840000Y-53400000D01*
X75740000Y-53400000D01*
X75740000Y-53355000D01*
X74404000Y-53355000D01*
X74202000Y-53557000D01*
X74198090Y-53655000D01*
X74213691Y-53813396D01*
X74259893Y-53965705D01*
X74334922Y-54106073D01*
X74421534Y-54211610D01*
X74338065Y-54219831D01*
X74144852Y-54278442D01*
X73966785Y-54373620D01*
X73810709Y-54501709D01*
X73778607Y-54540826D01*
X73656824Y-54662609D01*
X73617710Y-54694709D01*
X73489621Y-54850785D01*
X73421739Y-54977785D01*
X73394443Y-55028852D01*
X73335831Y-55222066D01*
X73316041Y-55423000D01*
X73321001Y-55473360D01*
X73321000Y-57785649D01*
X73316041Y-57836000D01*
X73321000Y-57886350D01*
X73335831Y-58036934D01*
X73394442Y-58230147D01*
X73489620Y-58408215D01*
X73617709Y-58564291D01*
X73656829Y-58596396D01*
X73839607Y-58779175D01*
X73871709Y-58818291D01*
X74027785Y-58946380D01*
X74188102Y-59032071D01*
X74204486Y-59086081D01*
X74265377Y-59200000D01*
X58475000Y-59200000D01*
X58475000Y-45475000D01*
X67700540Y-45475000D01*
X67582568Y-45538057D01*
X67582568Y-45538057D01*
G37*
X67582568Y-45538057D02*
X67445525Y-45650525D01*
X67333057Y-45787568D01*
X67249486Y-45943919D01*
X67198023Y-46113569D01*
X67180646Y-46290000D01*
X67180646Y-49790000D01*
X67198023Y-49966431D01*
X67249486Y-50136081D01*
X67333057Y-50292432D01*
X67445525Y-50429475D01*
X67582568Y-50541943D01*
X67738919Y-50625514D01*
X67908569Y-50676977D01*
X68085000Y-50694354D01*
X70085000Y-50694354D01*
X70259052Y-50677211D01*
X70248023Y-50713569D01*
X70230646Y-50890000D01*
X70230646Y-51804108D01*
X70203087Y-51894958D01*
X70185000Y-52078596D01*
X70185001Y-55393856D01*
X70184336Y-55394851D01*
X70078801Y-55649635D01*
X70025000Y-55920112D01*
X70025000Y-56195888D01*
X70078801Y-56466365D01*
X70184336Y-56721149D01*
X70337549Y-56950448D01*
X70532552Y-57145451D01*
X70761851Y-57298664D01*
X71016635Y-57404199D01*
X71287112Y-57458000D01*
X71562888Y-57458000D01*
X71833365Y-57404199D01*
X72088149Y-57298664D01*
X72317448Y-57145451D01*
X72512451Y-56950448D01*
X72665664Y-56721149D01*
X72771199Y-56466365D01*
X72825000Y-56195888D01*
X72825000Y-55920112D01*
X72771199Y-55649635D01*
X72685000Y-55441532D01*
X72685000Y-54198000D01*
X72735002Y-54198000D01*
X72735002Y-54046002D01*
X72887000Y-54198000D01*
X72985000Y-54201910D01*
X73143396Y-54186309D01*
X73295705Y-54140107D01*
X73436073Y-54065078D01*
X73559107Y-53964107D01*
X73660078Y-53841073D01*
X73735107Y-53700705D01*
X73781309Y-53548396D01*
X73796910Y-53390000D01*
X73795402Y-53005000D01*
X74198090Y-53005000D01*
X74202000Y-53103000D01*
X74404000Y-53305000D01*
X75740000Y-53305000D01*
X75740000Y-52399000D01*
X75538000Y-52197000D01*
X75010000Y-52193090D01*
X74851604Y-52208691D01*
X74699295Y-52254893D01*
X74558927Y-52329922D01*
X74435893Y-52430893D01*
X74334922Y-52553927D01*
X74259893Y-52694295D01*
X74213691Y-52846604D01*
X74198090Y-53005000D01*
X73795402Y-53005000D01*
X73793000Y-52392000D01*
X73591000Y-52190000D01*
X72685000Y-52190000D01*
X72685000Y-52090000D01*
X73591000Y-52090000D01*
X73793000Y-51888000D01*
X73796910Y-50890000D01*
X73781309Y-50731604D01*
X73755229Y-50645629D01*
X73858569Y-50676977D01*
X74035000Y-50694354D01*
X76035000Y-50694354D01*
X76211431Y-50676977D01*
X76381081Y-50625514D01*
X76537432Y-50541943D01*
X76674475Y-50429475D01*
X76786943Y-50292432D01*
X76870514Y-50136081D01*
X76921977Y-49966431D01*
X76939354Y-49790000D01*
X76939354Y-46290000D01*
X76921977Y-46113569D01*
X76870514Y-45943919D01*
X76786943Y-45787568D01*
X76674475Y-45650525D01*
X76537432Y-45538057D01*
X76419460Y-45475000D01*
X91200000Y-45475000D01*
X91200000Y-48345377D01*
X91157568Y-48368057D01*
X91020525Y-48480525D01*
X90908057Y-48617568D01*
X90824486Y-48773919D01*
X90773023Y-48943569D01*
X90755646Y-49120000D01*
X90755646Y-49188852D01*
X90736431Y-49183023D01*
X90560000Y-49165646D01*
X88860000Y-49165646D01*
X88683569Y-49183023D01*
X88561673Y-49220000D01*
X87940610Y-49220000D01*
X87708365Y-49123801D01*
X87437888Y-49070000D01*
X87162112Y-49070000D01*
X86891635Y-49123801D01*
X86636851Y-49229336D01*
X86407552Y-49382549D01*
X86212549Y-49577552D01*
X86059336Y-49806851D01*
X85953801Y-50061635D01*
X85900000Y-50332112D01*
X85900000Y-50607888D01*
X85953801Y-50878365D01*
X86059336Y-51133149D01*
X86212549Y-51362448D01*
X86407552Y-51557451D01*
X86636851Y-51710664D01*
X86891635Y-51816199D01*
X87162112Y-51870000D01*
X87437888Y-51870000D01*
X87708365Y-51816199D01*
X87940610Y-51720000D01*
X88561673Y-51720000D01*
X88683569Y-51756977D01*
X88860000Y-51774354D01*
X90560000Y-51774354D01*
X90736431Y-51756977D01*
X90755646Y-51751148D01*
X90755646Y-51820000D01*
X90773023Y-51996431D01*
X90824486Y-52166081D01*
X90908057Y-52322432D01*
X91020525Y-52459475D01*
X91157568Y-52571943D01*
X91200000Y-52594623D01*
X91200000Y-53915646D01*
X90485000Y-53915646D01*
X90308569Y-53933023D01*
X90138919Y-53984486D01*
X89982568Y-54068057D01*
X89845525Y-54180525D01*
X89733057Y-54317568D01*
X89731757Y-54320000D01*
X88741397Y-54320000D01*
X88679999Y-54313953D01*
X88618601Y-54320000D01*
X88618595Y-54320000D01*
X88434957Y-54338087D01*
X88199331Y-54409563D01*
X87982177Y-54525634D01*
X87791840Y-54681840D01*
X87752691Y-54729543D01*
X87642234Y-54840000D01*
X85400610Y-54840000D01*
X85168365Y-54743801D01*
X84897888Y-54690000D01*
X84740000Y-54690000D01*
X84740000Y-54341398D01*
X84746047Y-54280000D01*
X84740000Y-54218602D01*
X84740000Y-54218595D01*
X84721913Y-54034957D01*
X84650437Y-53799331D01*
X84534366Y-53582177D01*
X84378160Y-53391840D01*
X84330464Y-53352697D01*
X83467308Y-52489542D01*
X83428160Y-52441840D01*
X83237823Y-52285634D01*
X83020669Y-52169563D01*
X82785043Y-52098087D01*
X82601405Y-52080000D01*
X82601398Y-52080000D01*
X82540000Y-52073953D01*
X82478602Y-52080000D01*
X78428595Y-52080000D01*
X78244957Y-52098087D01*
X78236521Y-52100646D01*
X77710000Y-52100646D01*
X77533569Y-52118023D01*
X77363919Y-52169486D01*
X77207568Y-52253057D01*
X77070525Y-52365525D01*
X77068082Y-52368501D01*
X77021073Y-52329922D01*
X76880705Y-52254893D01*
X76728396Y-52208691D01*
X76570000Y-52193090D01*
X76042000Y-52197000D01*
X75840000Y-52399000D01*
X75840000Y-53305000D01*
X75860000Y-53305000D01*
X75860000Y-53355000D01*
X75840000Y-53355000D01*
X75840000Y-53400000D01*
X75740000Y-53400000D01*
X75740000Y-53355000D01*
X74404000Y-53355000D01*
X74202000Y-53557000D01*
X74198090Y-53655000D01*
X74213691Y-53813396D01*
X74259893Y-53965705D01*
X74334922Y-54106073D01*
X74421534Y-54211610D01*
X74338065Y-54219831D01*
X74144852Y-54278442D01*
X73966785Y-54373620D01*
X73810709Y-54501709D01*
X73778607Y-54540826D01*
X73656824Y-54662609D01*
X73617710Y-54694709D01*
X73489621Y-54850785D01*
X73421739Y-54977785D01*
X73394443Y-55028852D01*
X73335831Y-55222066D01*
X73316041Y-55423000D01*
X73321001Y-55473360D01*
X73321000Y-57785649D01*
X73316041Y-57836000D01*
X73321000Y-57886350D01*
X73335831Y-58036934D01*
X73394442Y-58230147D01*
X73489620Y-58408215D01*
X73617709Y-58564291D01*
X73656829Y-58596396D01*
X73839607Y-58779175D01*
X73871709Y-58818291D01*
X74027785Y-58946380D01*
X74188102Y-59032071D01*
X74204486Y-59086081D01*
X74265377Y-59200000D01*
X58475000Y-59200000D01*
X58475000Y-45475000D01*
X67700540Y-45475000D01*
X67582568Y-45538057D01*
M02*
