G04 #@! TF.GenerationSoftware,KiCad,Pcbnew,(5.1.0)-1*
G04 #@! TF.CreationDate,2019-08-12T15:22:36+02:00*
G04 #@! TF.ProjectId,LampeSolaire,4c616d70-6553-46f6-9c61-6972652e6b69,7*
G04 #@! TF.SameCoordinates,Original*
G04 #@! TF.FileFunction,Copper,L2,Bot*
G04 #@! TF.FilePolarity,Positive*
%FSLAX46Y46*%
G04 Gerber Fmt 4.6, Leading zero omitted, Abs format (unit mm)*
G04 Created by KiCad (PCBNEW (5.1.0)-1) date 2019-08-12 15:22:36*
%MOMM*%
%LPD*%
G04 APERTURE LIST*
%ADD10C,0.250000*%
%ADD11C,3.048000*%
%ADD12C,1.900000*%
%ADD13R,1.900000X1.900000*%
%ADD14C,1.800000*%
%ADD15R,1.700000X1.700000*%
%ADD16O,1.700000X1.700000*%
%ADD17C,1.000000*%
%ADD18C,0.800000*%
%ADD19C,0.700000*%
%ADD20C,1.000000*%
%ADD21C,0.450000*%
%ADD22C,0.254000*%
G04 APERTURE END LIST*
D10*
X72784761Y-91123571D02*
X72641904Y-91171190D01*
X72594285Y-91218809D01*
X72546666Y-91314047D01*
X72546666Y-91456904D01*
X72594285Y-91552142D01*
X72641904Y-91599761D01*
X72737142Y-91647380D01*
X73118095Y-91647380D01*
X73118095Y-90647380D01*
X72784761Y-90647380D01*
X72689523Y-90695000D01*
X72641904Y-90742619D01*
X72594285Y-90837857D01*
X72594285Y-90933095D01*
X72641904Y-91028333D01*
X72689523Y-91075952D01*
X72784761Y-91123571D01*
X73118095Y-91123571D01*
X72118095Y-91552142D02*
X72070476Y-91599761D01*
X72118095Y-91647380D01*
X72165714Y-91599761D01*
X72118095Y-91552142D01*
X72118095Y-91647380D01*
X71070476Y-91552142D02*
X71118095Y-91599761D01*
X71260952Y-91647380D01*
X71356190Y-91647380D01*
X71499047Y-91599761D01*
X71594285Y-91504523D01*
X71641904Y-91409285D01*
X71689523Y-91218809D01*
X71689523Y-91075952D01*
X71641904Y-90885476D01*
X71594285Y-90790238D01*
X71499047Y-90695000D01*
X71356190Y-90647380D01*
X71260952Y-90647380D01*
X71118095Y-90695000D01*
X71070476Y-90742619D01*
X70213333Y-90980714D02*
X70213333Y-91647380D01*
X70641904Y-90980714D02*
X70641904Y-91504523D01*
X70594285Y-91599761D01*
X70499047Y-91647380D01*
X70356190Y-91647380D01*
X70260952Y-91599761D01*
X70213333Y-91552142D01*
X68975238Y-91266428D02*
X68213333Y-91266428D01*
X67118095Y-90647380D02*
X66784761Y-91647380D01*
X66451428Y-90647380D01*
X66213333Y-90647380D02*
X65546666Y-90647380D01*
X65975238Y-91647380D01*
D11*
X127460000Y-68630000D03*
X119840000Y-71170000D03*
X119840000Y-66090000D03*
X132060000Y-68630000D03*
X124440000Y-71170000D03*
X124440000Y-66090000D03*
X71840000Y-66090000D03*
X71840000Y-71170000D03*
X64220000Y-68630000D03*
D12*
X82265000Y-52120000D03*
D13*
X79725000Y-52120000D03*
D12*
X127350000Y-52755000D03*
D13*
X127350000Y-50215000D03*
D12*
X132430000Y-52755000D03*
D13*
X132430000Y-50215000D03*
D14*
X132430000Y-88950000D03*
X127350000Y-91490000D03*
X119730000Y-88950000D03*
X132430000Y-109270000D03*
X127350000Y-111810000D03*
X119730000Y-109270000D03*
D15*
X65120000Y-112445000D03*
D16*
X65120000Y-114985000D03*
X65120000Y-117525000D03*
X65120000Y-120065000D03*
X65120000Y-122605000D03*
D12*
X98140000Y-124510000D03*
X95600000Y-124510000D03*
X93060000Y-124510000D03*
X85440000Y-124510000D03*
X87980000Y-124510000D03*
X90520000Y-124510000D03*
X100680000Y-124510000D03*
X82265000Y-88950000D03*
D13*
X82265000Y-86410000D03*
D12*
X91155000Y-88950000D03*
D13*
X91155000Y-86410000D03*
D12*
X114015000Y-97205000D03*
D13*
X111475000Y-97205000D03*
D12*
X114015000Y-103555000D03*
D13*
X111475000Y-103555000D03*
D12*
X62580000Y-53390000D03*
D13*
X62580000Y-50850000D03*
D12*
X87980000Y-53390000D03*
D13*
X87980000Y-50850000D03*
X100680000Y-86410000D03*
D12*
X100680000Y-88950000D03*
D17*
X96108000Y-106095000D03*
X96108000Y-113080000D03*
X102331000Y-97205000D03*
X100680000Y-113080000D03*
X96108000Y-97205000D03*
X96108000Y-116534400D03*
X108554000Y-54025000D03*
X111221000Y-57200000D03*
X124048000Y-49961000D03*
D18*
X75280000Y-53136000D03*
X80995000Y-48945000D03*
X119222000Y-49961000D03*
X111729000Y-49072000D03*
X98140000Y-107111000D03*
X98140000Y-110794000D03*
X77947000Y-105079000D03*
X77947000Y-120065000D03*
X78709000Y-104317000D03*
X78709000Y-122605000D03*
D17*
X91155000Y-55041000D03*
X91155000Y-46786000D03*
X126080000Y-56184000D03*
D18*
X99029000Y-91998000D03*
X99029000Y-108000000D03*
X84043000Y-106095000D03*
X84043000Y-113080000D03*
X86710000Y-86410000D03*
X113634000Y-86410000D03*
X127985000Y-81457000D03*
X127985000Y-86410000D03*
X96235000Y-83489000D03*
X98160000Y-120045000D03*
X102331000Y-120065000D03*
D17*
X119730000Y-103555000D03*
X119730000Y-97205000D03*
D18*
X106141000Y-98348000D03*
X101315000Y-98348000D03*
X81122000Y-119049000D03*
X90520000Y-119049000D03*
X81122000Y-107873000D03*
X81884000Y-118287000D03*
X87980000Y-118287000D03*
X81884000Y-108635000D03*
X79598000Y-103428000D03*
X79598000Y-120573000D03*
X85440000Y-120573000D03*
X82646000Y-117525000D03*
X95600000Y-117525000D03*
X82646000Y-109397000D03*
X80360000Y-107111000D03*
X80360000Y-119811000D03*
X93060000Y-119811000D03*
X101696000Y-105079000D03*
X101696000Y-112064000D03*
X123032000Y-112064000D03*
X130271000Y-124383000D03*
X102585000Y-103936000D03*
X102585000Y-111175000D03*
X124175000Y-111175000D03*
X124175000Y-124383000D03*
X124175000Y-116763000D03*
X103347000Y-108889000D03*
X105760000Y-124383000D03*
X104236000Y-109778000D03*
X121508000Y-124383000D03*
X100172000Y-102920000D03*
X118587000Y-82346000D03*
X100680000Y-82346000D03*
D19*
X96108000Y-106095000D02*
X96108000Y-113080000D01*
X102331000Y-97205000D02*
X111475000Y-97205000D01*
X96108000Y-113080000D02*
X100680000Y-113080000D01*
X96108000Y-106095000D02*
X96108000Y-97205000D01*
X96108000Y-116534400D02*
X96108000Y-113080000D01*
X108554000Y-54025000D02*
X108554000Y-55930000D01*
X108554000Y-55930000D02*
X109824000Y-57200000D01*
X109824000Y-57200000D02*
X111221000Y-57200000D01*
X124048000Y-56565000D02*
X124048000Y-49961000D01*
X111221000Y-57200000D02*
X123413000Y-57200000D01*
X123413000Y-57200000D02*
X124048000Y-56565000D01*
D10*
X80995000Y-48945000D02*
X75915000Y-48945000D01*
X75280000Y-49580000D02*
X75280000Y-53136000D01*
X75915000Y-48945000D02*
X75280000Y-49580000D01*
X119222000Y-49961000D02*
X115412000Y-49961000D01*
X115412000Y-49961000D02*
X114523000Y-49072000D01*
X114523000Y-49072000D02*
X111729000Y-49072000D01*
X98140000Y-107111000D02*
X98140000Y-110794000D01*
X77947000Y-105079000D02*
X77947000Y-120065000D01*
X78709000Y-104317000D02*
X78709000Y-122605000D01*
D19*
X91155000Y-55041000D02*
X91155000Y-46786000D01*
D20*
X132060000Y-68630000D02*
X132060000Y-62799000D01*
X132060000Y-62799000D02*
X130652000Y-61391000D01*
X127460000Y-61501000D02*
X127350000Y-61391000D01*
X127460000Y-68630000D02*
X127460000Y-61501000D01*
X130652000Y-61391000D02*
X127350000Y-61391000D01*
X124440000Y-61402000D02*
X124429000Y-61391000D01*
X124440000Y-66090000D02*
X124440000Y-61402000D01*
X127350000Y-61391000D02*
X124429000Y-61391000D01*
X119840000Y-61408000D02*
X119857000Y-61391000D01*
X119840000Y-66090000D02*
X119840000Y-61408000D01*
X124429000Y-61391000D02*
X119857000Y-61391000D01*
X124440000Y-71170000D02*
X124440000Y-74969000D01*
X124440000Y-74969000D02*
X123286000Y-76123000D01*
X119857000Y-61391000D02*
X111609000Y-61391000D01*
X119840000Y-76106000D02*
X119857000Y-76123000D01*
X119840000Y-71170000D02*
X119840000Y-76106000D01*
X123286000Y-76123000D02*
X119857000Y-76123000D01*
X91155000Y-58470000D02*
X91155000Y-55041000D01*
X94076000Y-61391000D02*
X91155000Y-58470000D01*
X119857000Y-76123000D02*
X113123000Y-76123000D01*
X111609000Y-74609000D02*
X111609000Y-61391000D01*
X113123000Y-76123000D02*
X111609000Y-74609000D01*
X111609000Y-61391000D02*
X94076000Y-61391000D01*
X71840000Y-71170000D02*
X79471000Y-71170000D01*
X79471000Y-71170000D02*
X82265000Y-68376000D01*
X82138000Y-66090000D02*
X82265000Y-65963000D01*
X71840000Y-66090000D02*
X82138000Y-66090000D01*
X82265000Y-68376000D02*
X82265000Y-65963000D01*
X64220000Y-68630000D02*
X64220000Y-63434000D01*
X65501000Y-62153000D02*
X82265000Y-62153000D01*
X64220000Y-63434000D02*
X65501000Y-62153000D01*
X82265000Y-65963000D02*
X82265000Y-62153000D01*
X82265000Y-62153000D02*
X82265000Y-52120000D01*
D19*
X126080000Y-56184000D02*
X134208000Y-56184000D01*
X134208000Y-56184000D02*
X135224000Y-55168000D01*
X135224000Y-55168000D02*
X135224000Y-51231000D01*
X134208000Y-50215000D02*
X132430000Y-50215000D01*
X135224000Y-51231000D02*
X134208000Y-50215000D01*
D10*
X99029000Y-108000000D02*
X99029000Y-91998000D01*
D21*
X84043000Y-106095000D02*
X84043000Y-113080000D01*
X86710000Y-91744000D02*
X86710000Y-86410000D01*
X84043000Y-94411000D02*
X86710000Y-91744000D01*
X127985000Y-81457000D02*
X127985000Y-86410000D01*
X84043000Y-94411000D02*
X84043000Y-106095000D01*
X96235000Y-83489000D02*
X112364000Y-83489000D01*
X113634000Y-84759000D02*
X113634000Y-86410000D01*
X112364000Y-83489000D02*
X113634000Y-84759000D01*
X102311000Y-120045000D02*
X102331000Y-120065000D01*
X98160000Y-120045000D02*
X102311000Y-120045000D01*
D19*
X119730000Y-109270000D02*
X119730000Y-103555000D01*
X119730000Y-103555000D02*
X119730000Y-97205000D01*
X119730000Y-97205000D02*
X119730000Y-88950000D01*
D10*
X101315000Y-98348000D02*
X106141000Y-98348000D01*
D19*
X132430000Y-88950000D02*
X132430000Y-90855000D01*
X131795000Y-91490000D02*
X127350000Y-91490000D01*
X132430000Y-90855000D02*
X131795000Y-91490000D01*
X127350000Y-111810000D02*
X131795000Y-111810000D01*
X132430000Y-111175000D02*
X132430000Y-109270000D01*
X131795000Y-111810000D02*
X132430000Y-111175000D01*
D10*
X90520000Y-119049000D02*
X90520000Y-124510000D01*
X81122000Y-107873000D02*
X81122000Y-108889000D01*
X81122000Y-108254000D02*
X81122000Y-108889000D01*
X81122000Y-108889000D02*
X81122000Y-119049000D01*
X87980000Y-118287000D02*
X87980000Y-124510000D01*
X81884000Y-108635000D02*
X81884000Y-109397000D01*
X81884000Y-109016000D02*
X81884000Y-109397000D01*
X81884000Y-109397000D02*
X81884000Y-118287000D01*
X79598000Y-103428000D02*
X79598000Y-120573000D01*
X85440000Y-120573000D02*
X85440000Y-124510000D01*
X95600000Y-117525000D02*
X95600000Y-124510000D01*
X82646000Y-109397000D02*
X82646000Y-110159000D01*
X82646000Y-109778000D02*
X82646000Y-110159000D01*
X82646000Y-110159000D02*
X82646000Y-117525000D01*
X80360000Y-107111000D02*
X80360000Y-119811000D01*
X93060000Y-119811000D02*
X93060000Y-124510000D01*
X101696000Y-105079000D02*
X101696000Y-112064000D01*
X123032000Y-122478000D02*
X123032000Y-112064000D01*
X123667000Y-123113000D02*
X123032000Y-122478000D01*
X129890000Y-123113000D02*
X123667000Y-123113000D01*
X130271000Y-124383000D02*
X130271000Y-123494000D01*
X130271000Y-123494000D02*
X129890000Y-123113000D01*
X102585000Y-103936000D02*
X102585000Y-111175000D01*
X124175000Y-111175000D02*
X124175000Y-116763000D01*
X103347000Y-108889000D02*
X103347000Y-119049000D01*
X103347000Y-119049000D02*
X105760000Y-121462000D01*
X105760000Y-121462000D02*
X105760000Y-124383000D01*
X104236000Y-109778000D02*
X104236000Y-118287000D01*
X104236000Y-118287000D02*
X106776000Y-120827000D01*
X107792000Y-124383000D02*
X106776000Y-123367000D01*
X121508000Y-124383000D02*
X107792000Y-124383000D01*
X106776000Y-120827000D02*
X106776000Y-123367000D01*
X100680000Y-88950000D02*
X100680000Y-92506000D01*
X100172000Y-93014000D02*
X100172000Y-102920000D01*
X100680000Y-92506000D02*
X100172000Y-93014000D01*
X100680000Y-82346000D02*
X118587000Y-82346000D01*
D22*
G36*
X141698000Y-93903000D02*
G01*
X129255000Y-93903000D01*
X129230224Y-93905440D01*
X129206399Y-93912667D01*
X129184443Y-93924403D01*
X129165197Y-93940197D01*
X129149403Y-93959443D01*
X129137667Y-93981399D01*
X129130440Y-94005224D01*
X129128000Y-94030000D01*
X129128000Y-106095000D01*
X129130440Y-106119776D01*
X129137667Y-106143601D01*
X129149403Y-106165557D01*
X129165197Y-106184803D01*
X129184443Y-106200597D01*
X129206399Y-106212333D01*
X129230224Y-106219560D01*
X129255000Y-106222000D01*
X141698000Y-106222000D01*
X141698000Y-126698000D01*
X58302000Y-126698000D01*
X58302000Y-124344830D01*
X83763000Y-124344830D01*
X83763000Y-124675170D01*
X83827446Y-124999163D01*
X83953862Y-125304357D01*
X84137389Y-125579025D01*
X84370975Y-125812611D01*
X84645643Y-125996138D01*
X84950837Y-126122554D01*
X85274830Y-126187000D01*
X85605170Y-126187000D01*
X85929163Y-126122554D01*
X86234357Y-125996138D01*
X86509025Y-125812611D01*
X86710000Y-125611636D01*
X86910975Y-125812611D01*
X87185643Y-125996138D01*
X87490837Y-126122554D01*
X87814830Y-126187000D01*
X88145170Y-126187000D01*
X88469163Y-126122554D01*
X88774357Y-125996138D01*
X89049025Y-125812611D01*
X89250000Y-125611636D01*
X89450975Y-125812611D01*
X89725643Y-125996138D01*
X90030837Y-126122554D01*
X90354830Y-126187000D01*
X90685170Y-126187000D01*
X91009163Y-126122554D01*
X91314357Y-125996138D01*
X91589025Y-125812611D01*
X91790000Y-125611636D01*
X91990975Y-125812611D01*
X92265643Y-125996138D01*
X92570837Y-126122554D01*
X92894830Y-126187000D01*
X93225170Y-126187000D01*
X93549163Y-126122554D01*
X93854357Y-125996138D01*
X94129025Y-125812611D01*
X94330000Y-125611636D01*
X94530975Y-125812611D01*
X94805643Y-125996138D01*
X95110837Y-126122554D01*
X95434830Y-126187000D01*
X95765170Y-126187000D01*
X96089163Y-126122554D01*
X96394357Y-125996138D01*
X96669025Y-125812611D01*
X96870000Y-125611636D01*
X97070975Y-125812611D01*
X97345643Y-125996138D01*
X97650837Y-126122554D01*
X97974830Y-126187000D01*
X98305170Y-126187000D01*
X98629163Y-126122554D01*
X98934357Y-125996138D01*
X99209025Y-125812611D01*
X99411884Y-125609752D01*
X99759853Y-125609752D01*
X99849579Y-125869042D01*
X100130671Y-126004935D01*
X100432873Y-126083379D01*
X100744573Y-126101359D01*
X101053791Y-126058184D01*
X101348644Y-125955513D01*
X101510421Y-125869042D01*
X101600147Y-125609752D01*
X100680000Y-124689605D01*
X99759853Y-125609752D01*
X99411884Y-125609752D01*
X99442611Y-125579025D01*
X99549254Y-125419422D01*
X99580248Y-125430147D01*
X100500395Y-124510000D01*
X100859605Y-124510000D01*
X101779752Y-125430147D01*
X102039042Y-125340421D01*
X102174935Y-125059329D01*
X102253379Y-124757127D01*
X102271359Y-124445427D01*
X102228184Y-124136209D01*
X102125513Y-123841356D01*
X102039042Y-123679579D01*
X101779752Y-123589853D01*
X100859605Y-124510000D01*
X100500395Y-124510000D01*
X99580248Y-123589853D01*
X99549254Y-123600578D01*
X99442611Y-123440975D01*
X99411884Y-123410248D01*
X99759853Y-123410248D01*
X100680000Y-124330395D01*
X101600147Y-123410248D01*
X101510421Y-123150958D01*
X101229329Y-123015065D01*
X100927127Y-122936621D01*
X100615427Y-122918641D01*
X100306209Y-122961816D01*
X100011356Y-123064487D01*
X99849579Y-123150958D01*
X99759853Y-123410248D01*
X99411884Y-123410248D01*
X99209025Y-123207389D01*
X98934357Y-123023862D01*
X98629163Y-122897446D01*
X98305170Y-122833000D01*
X97974830Y-122833000D01*
X97650837Y-122897446D01*
X97345643Y-123023862D01*
X97070975Y-123207389D01*
X96870000Y-123408364D01*
X96669025Y-123207389D01*
X96452000Y-123062378D01*
X96452000Y-119934000D01*
X97033000Y-119934000D01*
X97033000Y-120156000D01*
X97076310Y-120373734D01*
X97161266Y-120578835D01*
X97284602Y-120763421D01*
X97441579Y-120920398D01*
X97626165Y-121043734D01*
X97831266Y-121128690D01*
X98049000Y-121172000D01*
X98271000Y-121172000D01*
X98488734Y-121128690D01*
X98693835Y-121043734D01*
X98763778Y-120997000D01*
X101697290Y-120997000D01*
X101797165Y-121063734D01*
X102002266Y-121148690D01*
X102220000Y-121192000D01*
X102442000Y-121192000D01*
X102659734Y-121148690D01*
X102864835Y-121063734D01*
X103049421Y-120940398D01*
X103206398Y-120783421D01*
X103329734Y-120598835D01*
X103414690Y-120393734D01*
X103426658Y-120333567D01*
X104908000Y-121814910D01*
X104908001Y-123641180D01*
X104884602Y-123664579D01*
X104761266Y-123849165D01*
X104676310Y-124054266D01*
X104633000Y-124272000D01*
X104633000Y-124494000D01*
X104676310Y-124711734D01*
X104761266Y-124916835D01*
X104884602Y-125101421D01*
X105041579Y-125258398D01*
X105226165Y-125381734D01*
X105431266Y-125466690D01*
X105649000Y-125510000D01*
X105871000Y-125510000D01*
X106088734Y-125466690D01*
X106293835Y-125381734D01*
X106478421Y-125258398D01*
X106635398Y-125101421D01*
X106758734Y-124916835D01*
X106843690Y-124711734D01*
X106855658Y-124651568D01*
X107159950Y-124955860D01*
X107186630Y-124988370D01*
X107219138Y-125015048D01*
X107316363Y-125094839D01*
X107354774Y-125115370D01*
X107464376Y-125173954D01*
X107624979Y-125222672D01*
X107750148Y-125235000D01*
X107750151Y-125235000D01*
X107792000Y-125239122D01*
X107833849Y-125235000D01*
X120766181Y-125235000D01*
X120789579Y-125258398D01*
X120974165Y-125381734D01*
X121179266Y-125466690D01*
X121397000Y-125510000D01*
X121619000Y-125510000D01*
X121836734Y-125466690D01*
X122041835Y-125381734D01*
X122226421Y-125258398D01*
X122383398Y-125101421D01*
X122506734Y-124916835D01*
X122591690Y-124711734D01*
X122635000Y-124494000D01*
X122635000Y-124272000D01*
X122591690Y-124054266D01*
X122506734Y-123849165D01*
X122383398Y-123664579D01*
X122226421Y-123507602D01*
X122041835Y-123384266D01*
X121836734Y-123299310D01*
X121619000Y-123256000D01*
X121397000Y-123256000D01*
X121179266Y-123299310D01*
X120974165Y-123384266D01*
X120789579Y-123507602D01*
X120766181Y-123531000D01*
X108144910Y-123531000D01*
X107628000Y-123014091D01*
X107628000Y-120868848D01*
X107632122Y-120826999D01*
X107627830Y-120783421D01*
X107615672Y-120659979D01*
X107566954Y-120499376D01*
X107509893Y-120392624D01*
X107487839Y-120351363D01*
X107408048Y-120254138D01*
X107381370Y-120221630D01*
X107348861Y-120194951D01*
X105088000Y-117934091D01*
X105088000Y-111953000D01*
X121905000Y-111953000D01*
X121905000Y-112175000D01*
X121948310Y-112392734D01*
X122033266Y-112597835D01*
X122156602Y-112782421D01*
X122180001Y-112805820D01*
X122180000Y-122436151D01*
X122175878Y-122478000D01*
X122180000Y-122519849D01*
X122180000Y-122519851D01*
X122192328Y-122645020D01*
X122241046Y-122805623D01*
X122320161Y-122953636D01*
X122356027Y-122997339D01*
X122426630Y-123083370D01*
X122459145Y-123110054D01*
X123034949Y-123685859D01*
X123061630Y-123718370D01*
X123191364Y-123824839D01*
X123192216Y-123825294D01*
X123176266Y-123849165D01*
X123091310Y-124054266D01*
X123048000Y-124272000D01*
X123048000Y-124494000D01*
X123091310Y-124711734D01*
X123176266Y-124916835D01*
X123299602Y-125101421D01*
X123456579Y-125258398D01*
X123641165Y-125381734D01*
X123846266Y-125466690D01*
X124064000Y-125510000D01*
X124286000Y-125510000D01*
X124503734Y-125466690D01*
X124708835Y-125381734D01*
X124893421Y-125258398D01*
X125050398Y-125101421D01*
X125173734Y-124916835D01*
X125258690Y-124711734D01*
X125302000Y-124494000D01*
X125302000Y-124272000D01*
X125258690Y-124054266D01*
X125221715Y-123965000D01*
X129224285Y-123965000D01*
X129187310Y-124054266D01*
X129144000Y-124272000D01*
X129144000Y-124494000D01*
X129187310Y-124711734D01*
X129272266Y-124916835D01*
X129395602Y-125101421D01*
X129552579Y-125258398D01*
X129737165Y-125381734D01*
X129942266Y-125466690D01*
X130160000Y-125510000D01*
X130382000Y-125510000D01*
X130599734Y-125466690D01*
X130804835Y-125381734D01*
X130989421Y-125258398D01*
X131146398Y-125101421D01*
X131269734Y-124916835D01*
X131354690Y-124711734D01*
X131398000Y-124494000D01*
X131398000Y-124272000D01*
X131354690Y-124054266D01*
X131269734Y-123849165D01*
X131146398Y-123664579D01*
X131123000Y-123641181D01*
X131123000Y-123535848D01*
X131127122Y-123493999D01*
X131123000Y-123452148D01*
X131110672Y-123326979D01*
X131061954Y-123166376D01*
X130982839Y-123018364D01*
X130876370Y-122888630D01*
X130843854Y-122861945D01*
X130522055Y-122540146D01*
X130495370Y-122507630D01*
X130365636Y-122401161D01*
X130217624Y-122322046D01*
X130057021Y-122273328D01*
X129931852Y-122261000D01*
X129931849Y-122261000D01*
X129890000Y-122256878D01*
X129848151Y-122261000D01*
X124019910Y-122261000D01*
X123884000Y-122125091D01*
X123884000Y-117854196D01*
X124064000Y-117890000D01*
X124286000Y-117890000D01*
X124503734Y-117846690D01*
X124708835Y-117761734D01*
X124893421Y-117638398D01*
X125050398Y-117481421D01*
X125173734Y-117296835D01*
X125258690Y-117091734D01*
X125302000Y-116874000D01*
X125302000Y-116652000D01*
X125258690Y-116434266D01*
X125173734Y-116229165D01*
X125050398Y-116044579D01*
X125027000Y-116021181D01*
X125027000Y-111916819D01*
X125050398Y-111893421D01*
X125173734Y-111708835D01*
X125198205Y-111649755D01*
X125723000Y-111649755D01*
X125723000Y-111970245D01*
X125785525Y-112284578D01*
X125908172Y-112580673D01*
X126086227Y-112847152D01*
X126312848Y-113073773D01*
X126579327Y-113251828D01*
X126875422Y-113374475D01*
X127189755Y-113437000D01*
X127510245Y-113437000D01*
X127824578Y-113374475D01*
X128120673Y-113251828D01*
X128387152Y-113073773D01*
X128573925Y-112887000D01*
X131742093Y-112887000D01*
X131795000Y-112892211D01*
X131847907Y-112887000D01*
X131847909Y-112887000D01*
X132006129Y-112871417D01*
X132209144Y-112809833D01*
X132396244Y-112709826D01*
X132560239Y-112575239D01*
X132593973Y-112534134D01*
X133154134Y-111973973D01*
X133195239Y-111940239D01*
X133302123Y-111810000D01*
X133329826Y-111776245D01*
X133396965Y-111650636D01*
X133429833Y-111589144D01*
X133472735Y-111447714D01*
X133491417Y-111386130D01*
X133512211Y-111175000D01*
X133507000Y-111122091D01*
X133507000Y-110493925D01*
X133693773Y-110307152D01*
X133871828Y-110040673D01*
X133994475Y-109744578D01*
X134057000Y-109430245D01*
X134057000Y-109109755D01*
X133994475Y-108795422D01*
X133871828Y-108499327D01*
X133693773Y-108232848D01*
X133467152Y-108006227D01*
X133200673Y-107828172D01*
X132904578Y-107705525D01*
X132590245Y-107643000D01*
X132269755Y-107643000D01*
X131955422Y-107705525D01*
X131659327Y-107828172D01*
X131392848Y-108006227D01*
X131166227Y-108232848D01*
X130988172Y-108499327D01*
X130865525Y-108795422D01*
X130803000Y-109109755D01*
X130803000Y-109430245D01*
X130865525Y-109744578D01*
X130988172Y-110040673D01*
X131166227Y-110307152D01*
X131353000Y-110493925D01*
X131353000Y-110728893D01*
X131348893Y-110733000D01*
X128573925Y-110733000D01*
X128387152Y-110546227D01*
X128120673Y-110368172D01*
X127824578Y-110245525D01*
X127510245Y-110183000D01*
X127189755Y-110183000D01*
X126875422Y-110245525D01*
X126579327Y-110368172D01*
X126312848Y-110546227D01*
X126086227Y-110772848D01*
X125908172Y-111039327D01*
X125785525Y-111335422D01*
X125723000Y-111649755D01*
X125198205Y-111649755D01*
X125258690Y-111503734D01*
X125302000Y-111286000D01*
X125302000Y-111064000D01*
X125258690Y-110846266D01*
X125173734Y-110641165D01*
X125050398Y-110456579D01*
X124893421Y-110299602D01*
X124708835Y-110176266D01*
X124503734Y-110091310D01*
X124286000Y-110048000D01*
X124064000Y-110048000D01*
X123846266Y-110091310D01*
X123641165Y-110176266D01*
X123456579Y-110299602D01*
X123299602Y-110456579D01*
X123176266Y-110641165D01*
X123091310Y-110846266D01*
X123073262Y-110937000D01*
X122921000Y-110937000D01*
X122703266Y-110980310D01*
X122498165Y-111065266D01*
X122313579Y-111188602D01*
X122156602Y-111345579D01*
X122033266Y-111530165D01*
X121948310Y-111735266D01*
X121905000Y-111953000D01*
X105088000Y-111953000D01*
X105088000Y-110519819D01*
X105111398Y-110496421D01*
X105234734Y-110311835D01*
X105319690Y-110106734D01*
X105363000Y-109889000D01*
X105363000Y-109667000D01*
X105319690Y-109449266D01*
X105234734Y-109244165D01*
X105111398Y-109059579D01*
X104954421Y-108902602D01*
X104769835Y-108779266D01*
X104564734Y-108694310D01*
X104452929Y-108672071D01*
X104430690Y-108560266D01*
X104345734Y-108355165D01*
X104222398Y-108170579D01*
X104065421Y-108013602D01*
X103880835Y-107890266D01*
X103675734Y-107805310D01*
X103458000Y-107762000D01*
X103437000Y-107762000D01*
X103437000Y-104677819D01*
X103460398Y-104654421D01*
X103560237Y-104505000D01*
X109886928Y-104505000D01*
X109899188Y-104629482D01*
X109935498Y-104749180D01*
X109994463Y-104859494D01*
X110073815Y-104956185D01*
X110170506Y-105035537D01*
X110280820Y-105094502D01*
X110400518Y-105130812D01*
X110525000Y-105143072D01*
X111189250Y-105140000D01*
X111348000Y-104981250D01*
X111348000Y-103682000D01*
X110048750Y-103682000D01*
X109890000Y-103840750D01*
X109886928Y-104505000D01*
X103560237Y-104505000D01*
X103583734Y-104469835D01*
X103668690Y-104264734D01*
X103712000Y-104047000D01*
X103712000Y-103825000D01*
X103668690Y-103607266D01*
X103583734Y-103402165D01*
X103460398Y-103217579D01*
X103303421Y-103060602D01*
X103118835Y-102937266D01*
X102913734Y-102852310D01*
X102696000Y-102809000D01*
X102474000Y-102809000D01*
X102256266Y-102852310D01*
X102051165Y-102937266D01*
X101866579Y-103060602D01*
X101709602Y-103217579D01*
X101586266Y-103402165D01*
X101501310Y-103607266D01*
X101458000Y-103825000D01*
X101458000Y-103977262D01*
X101367266Y-103995310D01*
X101162165Y-104080266D01*
X100977579Y-104203602D01*
X100820602Y-104360579D01*
X100697266Y-104545165D01*
X100612310Y-104750266D01*
X100569000Y-104968000D01*
X100569000Y-105190000D01*
X100612310Y-105407734D01*
X100697266Y-105612835D01*
X100820602Y-105797421D01*
X100844000Y-105820819D01*
X100844001Y-111322180D01*
X100820602Y-111345579D01*
X100697266Y-111530165D01*
X100612310Y-111735266D01*
X100569000Y-111953000D01*
X100569000Y-112175000D01*
X100612310Y-112392734D01*
X100697266Y-112597835D01*
X100820602Y-112782421D01*
X100977579Y-112939398D01*
X101162165Y-113062734D01*
X101367266Y-113147690D01*
X101585000Y-113191000D01*
X101807000Y-113191000D01*
X102024734Y-113147690D01*
X102229835Y-113062734D01*
X102414421Y-112939398D01*
X102495000Y-112858819D01*
X102495001Y-118948543D01*
X102442000Y-118938000D01*
X102220000Y-118938000D01*
X102002266Y-118981310D01*
X101797165Y-119066266D01*
X101757155Y-119093000D01*
X98763778Y-119093000D01*
X98693835Y-119046266D01*
X98488734Y-118961310D01*
X98271000Y-118918000D01*
X98049000Y-118918000D01*
X97831266Y-118961310D01*
X97626165Y-119046266D01*
X97441579Y-119169602D01*
X97284602Y-119326579D01*
X97161266Y-119511165D01*
X97076310Y-119716266D01*
X97033000Y-119934000D01*
X96452000Y-119934000D01*
X96452000Y-118266819D01*
X96475398Y-118243421D01*
X96598734Y-118058835D01*
X96683690Y-117853734D01*
X96727000Y-117636000D01*
X96727000Y-117414000D01*
X96683690Y-117196266D01*
X96598734Y-116991165D01*
X96475398Y-116806579D01*
X96318421Y-116649602D01*
X96133835Y-116526266D01*
X95928734Y-116441310D01*
X95711000Y-116398000D01*
X95489000Y-116398000D01*
X95271266Y-116441310D01*
X95066165Y-116526266D01*
X94881579Y-116649602D01*
X94724602Y-116806579D01*
X94601266Y-116991165D01*
X94516310Y-117196266D01*
X94473000Y-117414000D01*
X94473000Y-117636000D01*
X94516310Y-117853734D01*
X94601266Y-118058835D01*
X94724602Y-118243421D01*
X94748000Y-118266819D01*
X94748001Y-123062377D01*
X94530975Y-123207389D01*
X94330000Y-123408364D01*
X94129025Y-123207389D01*
X93912000Y-123062378D01*
X93912000Y-120552819D01*
X93935398Y-120529421D01*
X94058734Y-120344835D01*
X94143690Y-120139734D01*
X94187000Y-119922000D01*
X94187000Y-119700000D01*
X94143690Y-119482266D01*
X94058734Y-119277165D01*
X93935398Y-119092579D01*
X93778421Y-118935602D01*
X93593835Y-118812266D01*
X93388734Y-118727310D01*
X93171000Y-118684000D01*
X92949000Y-118684000D01*
X92731266Y-118727310D01*
X92526165Y-118812266D01*
X92341579Y-118935602D01*
X92184602Y-119092579D01*
X92061266Y-119277165D01*
X91976310Y-119482266D01*
X91933000Y-119700000D01*
X91933000Y-119922000D01*
X91976310Y-120139734D01*
X92061266Y-120344835D01*
X92184602Y-120529421D01*
X92208000Y-120552819D01*
X92208001Y-123062377D01*
X91990975Y-123207389D01*
X91790000Y-123408364D01*
X91589025Y-123207389D01*
X91372000Y-123062378D01*
X91372000Y-119790819D01*
X91395398Y-119767421D01*
X91518734Y-119582835D01*
X91603690Y-119377734D01*
X91647000Y-119160000D01*
X91647000Y-118938000D01*
X91603690Y-118720266D01*
X91518734Y-118515165D01*
X91395398Y-118330579D01*
X91238421Y-118173602D01*
X91053835Y-118050266D01*
X90848734Y-117965310D01*
X90631000Y-117922000D01*
X90409000Y-117922000D01*
X90191266Y-117965310D01*
X89986165Y-118050266D01*
X89801579Y-118173602D01*
X89644602Y-118330579D01*
X89521266Y-118515165D01*
X89436310Y-118720266D01*
X89393000Y-118938000D01*
X89393000Y-119160000D01*
X89436310Y-119377734D01*
X89521266Y-119582835D01*
X89644602Y-119767421D01*
X89668000Y-119790819D01*
X89668001Y-123062377D01*
X89450975Y-123207389D01*
X89250000Y-123408364D01*
X89049025Y-123207389D01*
X88832000Y-123062378D01*
X88832000Y-119028819D01*
X88855398Y-119005421D01*
X88978734Y-118820835D01*
X89063690Y-118615734D01*
X89107000Y-118398000D01*
X89107000Y-118176000D01*
X89063690Y-117958266D01*
X88978734Y-117753165D01*
X88855398Y-117568579D01*
X88698421Y-117411602D01*
X88513835Y-117288266D01*
X88308734Y-117203310D01*
X88091000Y-117160000D01*
X87869000Y-117160000D01*
X87651266Y-117203310D01*
X87446165Y-117288266D01*
X87261579Y-117411602D01*
X87104602Y-117568579D01*
X86981266Y-117753165D01*
X86896310Y-117958266D01*
X86853000Y-118176000D01*
X86853000Y-118398000D01*
X86896310Y-118615734D01*
X86981266Y-118820835D01*
X87104602Y-119005421D01*
X87128000Y-119028819D01*
X87128001Y-123062377D01*
X86910975Y-123207389D01*
X86710000Y-123408364D01*
X86509025Y-123207389D01*
X86292000Y-123062378D01*
X86292000Y-121314819D01*
X86315398Y-121291421D01*
X86438734Y-121106835D01*
X86523690Y-120901734D01*
X86567000Y-120684000D01*
X86567000Y-120462000D01*
X86523690Y-120244266D01*
X86438734Y-120039165D01*
X86315398Y-119854579D01*
X86158421Y-119697602D01*
X85973835Y-119574266D01*
X85768734Y-119489310D01*
X85551000Y-119446000D01*
X85329000Y-119446000D01*
X85111266Y-119489310D01*
X84906165Y-119574266D01*
X84721579Y-119697602D01*
X84564602Y-119854579D01*
X84441266Y-120039165D01*
X84356310Y-120244266D01*
X84313000Y-120462000D01*
X84313000Y-120684000D01*
X84356310Y-120901734D01*
X84441266Y-121106835D01*
X84564602Y-121291421D01*
X84588000Y-121314819D01*
X84588001Y-123062377D01*
X84370975Y-123207389D01*
X84137389Y-123440975D01*
X83953862Y-123715643D01*
X83827446Y-124020837D01*
X83763000Y-124344830D01*
X58302000Y-124344830D01*
X58302000Y-120065000D01*
X63535370Y-120065000D01*
X63565818Y-120374146D01*
X63655993Y-120671412D01*
X63802428Y-120945373D01*
X63999497Y-121185503D01*
X64181660Y-121335000D01*
X63999497Y-121484497D01*
X63802428Y-121724627D01*
X63655993Y-121998588D01*
X63565818Y-122295854D01*
X63535370Y-122605000D01*
X63565818Y-122914146D01*
X63655993Y-123211412D01*
X63802428Y-123485373D01*
X63999497Y-123725503D01*
X64239627Y-123922572D01*
X64513588Y-124069007D01*
X64810854Y-124159182D01*
X65042531Y-124182000D01*
X65197469Y-124182000D01*
X65429146Y-124159182D01*
X65726412Y-124069007D01*
X66000373Y-123922572D01*
X66240503Y-123725503D01*
X66437572Y-123485373D01*
X66584007Y-123211412D01*
X66674182Y-122914146D01*
X66704630Y-122605000D01*
X66674182Y-122295854D01*
X66584007Y-121998588D01*
X66437572Y-121724627D01*
X66240503Y-121484497D01*
X66058340Y-121335000D01*
X66240503Y-121185503D01*
X66437572Y-120945373D01*
X66584007Y-120671412D01*
X66674182Y-120374146D01*
X66704630Y-120065000D01*
X66674182Y-119755854D01*
X66584007Y-119458588D01*
X66437572Y-119184627D01*
X66240503Y-118944497D01*
X66000373Y-118747428D01*
X65976779Y-118734817D01*
X66001355Y-118720178D01*
X66217588Y-118525269D01*
X66391641Y-118291920D01*
X66516825Y-118029099D01*
X66561476Y-117881890D01*
X66440155Y-117652000D01*
X65247000Y-117652000D01*
X65247000Y-117672000D01*
X64993000Y-117672000D01*
X64993000Y-117652000D01*
X63799845Y-117652000D01*
X63678524Y-117881890D01*
X63723175Y-118029099D01*
X63848359Y-118291920D01*
X64022412Y-118525269D01*
X64238645Y-118720178D01*
X64263221Y-118734817D01*
X64239627Y-118747428D01*
X63999497Y-118944497D01*
X63802428Y-119184627D01*
X63655993Y-119458588D01*
X63565818Y-119755854D01*
X63535370Y-120065000D01*
X58302000Y-120065000D01*
X58302000Y-114985000D01*
X63535370Y-114985000D01*
X63565818Y-115294146D01*
X63655993Y-115591412D01*
X63802428Y-115865373D01*
X63999497Y-116105503D01*
X64239627Y-116302572D01*
X64263221Y-116315183D01*
X64238645Y-116329822D01*
X64022412Y-116524731D01*
X63848359Y-116758080D01*
X63723175Y-117020901D01*
X63678524Y-117168110D01*
X63799845Y-117398000D01*
X64993000Y-117398000D01*
X64993000Y-117378000D01*
X65247000Y-117378000D01*
X65247000Y-117398000D01*
X66440155Y-117398000D01*
X66561476Y-117168110D01*
X66516825Y-117020901D01*
X66391641Y-116758080D01*
X66217588Y-116524731D01*
X66001355Y-116329822D01*
X65976779Y-116315183D01*
X66000373Y-116302572D01*
X66240503Y-116105503D01*
X66437572Y-115865373D01*
X66584007Y-115591412D01*
X66674182Y-115294146D01*
X66704630Y-114985000D01*
X66674182Y-114675854D01*
X66584007Y-114378588D01*
X66437572Y-114104627D01*
X66303396Y-113941132D01*
X66375853Y-113902403D01*
X66486554Y-113811554D01*
X66577403Y-113700853D01*
X66644910Y-113574557D01*
X66686480Y-113437517D01*
X66700517Y-113295000D01*
X66700517Y-111595000D01*
X66686480Y-111452483D01*
X66644910Y-111315443D01*
X66577403Y-111189147D01*
X66486554Y-111078446D01*
X66375853Y-110987597D01*
X66249557Y-110920090D01*
X66112517Y-110878520D01*
X65970000Y-110864483D01*
X64270000Y-110864483D01*
X64127483Y-110878520D01*
X63990443Y-110920090D01*
X63864147Y-110987597D01*
X63753446Y-111078446D01*
X63662597Y-111189147D01*
X63595090Y-111315443D01*
X63553520Y-111452483D01*
X63539483Y-111595000D01*
X63539483Y-113295000D01*
X63553520Y-113437517D01*
X63595090Y-113574557D01*
X63662597Y-113700853D01*
X63753446Y-113811554D01*
X63864147Y-113902403D01*
X63936604Y-113941132D01*
X63802428Y-114104627D01*
X63655993Y-114378588D01*
X63565818Y-114675854D01*
X63535370Y-114985000D01*
X58302000Y-114985000D01*
X58302000Y-106222000D01*
X71037466Y-106222000D01*
X71062242Y-106219560D01*
X71086067Y-106212333D01*
X71108023Y-106200597D01*
X71127269Y-106184803D01*
X71143063Y-106165557D01*
X71154799Y-106143601D01*
X71162026Y-106119776D01*
X71164466Y-106095000D01*
X71164466Y-104968000D01*
X76820000Y-104968000D01*
X76820000Y-105190000D01*
X76863310Y-105407734D01*
X76948266Y-105612835D01*
X77071602Y-105797421D01*
X77095000Y-105820819D01*
X77095001Y-119323180D01*
X77071602Y-119346579D01*
X76948266Y-119531165D01*
X76863310Y-119736266D01*
X76820000Y-119954000D01*
X76820000Y-120176000D01*
X76863310Y-120393734D01*
X76948266Y-120598835D01*
X77071602Y-120783421D01*
X77228579Y-120940398D01*
X77413165Y-121063734D01*
X77618266Y-121148690D01*
X77836000Y-121192000D01*
X77857001Y-121192000D01*
X77857001Y-121863180D01*
X77833602Y-121886579D01*
X77710266Y-122071165D01*
X77625310Y-122276266D01*
X77582000Y-122494000D01*
X77582000Y-122716000D01*
X77625310Y-122933734D01*
X77710266Y-123138835D01*
X77833602Y-123323421D01*
X77990579Y-123480398D01*
X78175165Y-123603734D01*
X78380266Y-123688690D01*
X78598000Y-123732000D01*
X78820000Y-123732000D01*
X79037734Y-123688690D01*
X79242835Y-123603734D01*
X79427421Y-123480398D01*
X79584398Y-123323421D01*
X79707734Y-123138835D01*
X79792690Y-122933734D01*
X79836000Y-122716000D01*
X79836000Y-122494000D01*
X79792690Y-122276266D01*
X79707734Y-122071165D01*
X79584398Y-121886579D01*
X79561000Y-121863181D01*
X79561000Y-121700000D01*
X79709000Y-121700000D01*
X79926734Y-121656690D01*
X80131835Y-121571734D01*
X80316421Y-121448398D01*
X80473398Y-121291421D01*
X80596734Y-121106835D01*
X80681690Y-120901734D01*
X80682859Y-120895859D01*
X80688734Y-120894690D01*
X80893835Y-120809734D01*
X81078421Y-120686398D01*
X81235398Y-120529421D01*
X81358734Y-120344835D01*
X81443690Y-120139734D01*
X81444859Y-120133859D01*
X81450734Y-120132690D01*
X81655835Y-120047734D01*
X81840421Y-119924398D01*
X81997398Y-119767421D01*
X82120734Y-119582835D01*
X82205690Y-119377734D01*
X82206859Y-119371859D01*
X82212734Y-119370690D01*
X82417835Y-119285734D01*
X82602421Y-119162398D01*
X82759398Y-119005421D01*
X82882734Y-118820835D01*
X82967690Y-118615734D01*
X82968859Y-118609859D01*
X82974734Y-118608690D01*
X83179835Y-118523734D01*
X83364421Y-118400398D01*
X83521398Y-118243421D01*
X83644734Y-118058835D01*
X83729690Y-117853734D01*
X83773000Y-117636000D01*
X83773000Y-117414000D01*
X83729690Y-117196266D01*
X83644734Y-116991165D01*
X83521398Y-116806579D01*
X83498000Y-116783181D01*
X83498000Y-114071274D01*
X83509165Y-114078734D01*
X83714266Y-114163690D01*
X83932000Y-114207000D01*
X84154000Y-114207000D01*
X84371734Y-114163690D01*
X84576835Y-114078734D01*
X84761421Y-113955398D01*
X84918398Y-113798421D01*
X85041734Y-113613835D01*
X85126690Y-113408734D01*
X85170000Y-113191000D01*
X85170000Y-112969000D01*
X85126690Y-112751266D01*
X85041734Y-112546165D01*
X84995000Y-112476222D01*
X84995000Y-107000000D01*
X97013000Y-107000000D01*
X97013000Y-107222000D01*
X97056310Y-107439734D01*
X97141266Y-107644835D01*
X97264602Y-107829421D01*
X97288000Y-107852819D01*
X97288001Y-110052180D01*
X97264602Y-110075579D01*
X97141266Y-110260165D01*
X97056310Y-110465266D01*
X97013000Y-110683000D01*
X97013000Y-110905000D01*
X97056310Y-111122734D01*
X97141266Y-111327835D01*
X97264602Y-111512421D01*
X97421579Y-111669398D01*
X97606165Y-111792734D01*
X97811266Y-111877690D01*
X98029000Y-111921000D01*
X98251000Y-111921000D01*
X98468734Y-111877690D01*
X98673835Y-111792734D01*
X98858421Y-111669398D01*
X99015398Y-111512421D01*
X99138734Y-111327835D01*
X99223690Y-111122734D01*
X99267000Y-110905000D01*
X99267000Y-110683000D01*
X99223690Y-110465266D01*
X99138734Y-110260165D01*
X99015398Y-110075579D01*
X98992000Y-110052181D01*
X98992000Y-109127000D01*
X99140000Y-109127000D01*
X99357734Y-109083690D01*
X99562835Y-108998734D01*
X99747421Y-108875398D01*
X99904398Y-108718421D01*
X100027734Y-108533835D01*
X100112690Y-108328734D01*
X100156000Y-108111000D01*
X100156000Y-107889000D01*
X100112690Y-107671266D01*
X100027734Y-107466165D01*
X99904398Y-107281579D01*
X99881000Y-107258181D01*
X99881000Y-104011196D01*
X100061000Y-104047000D01*
X100283000Y-104047000D01*
X100500734Y-104003690D01*
X100705835Y-103918734D01*
X100890421Y-103795398D01*
X101047398Y-103638421D01*
X101170734Y-103453835D01*
X101255690Y-103248734D01*
X101299000Y-103031000D01*
X101299000Y-102809000D01*
X101258422Y-102605000D01*
X109886928Y-102605000D01*
X109890000Y-103269250D01*
X110048750Y-103428000D01*
X111348000Y-103428000D01*
X111348000Y-102128750D01*
X111602000Y-102128750D01*
X111602000Y-103428000D01*
X111622000Y-103428000D01*
X111622000Y-103682000D01*
X111602000Y-103682000D01*
X111602000Y-104981250D01*
X111760750Y-105140000D01*
X112425000Y-105143072D01*
X112549482Y-105130812D01*
X112669180Y-105094502D01*
X112779494Y-105035537D01*
X112876185Y-104956185D01*
X112953149Y-104862404D01*
X113220643Y-105041138D01*
X113525837Y-105167554D01*
X113849830Y-105232000D01*
X114180170Y-105232000D01*
X114504163Y-105167554D01*
X114809357Y-105041138D01*
X115084025Y-104857611D01*
X115317611Y-104624025D01*
X115501138Y-104349357D01*
X115627554Y-104044163D01*
X115692000Y-103720170D01*
X115692000Y-103389830D01*
X115627554Y-103065837D01*
X115501138Y-102760643D01*
X115317611Y-102485975D01*
X115084025Y-102252389D01*
X114809357Y-102068862D01*
X114504163Y-101942446D01*
X114180170Y-101878000D01*
X113849830Y-101878000D01*
X113525837Y-101942446D01*
X113220643Y-102068862D01*
X112953149Y-102247596D01*
X112876185Y-102153815D01*
X112779494Y-102074463D01*
X112669180Y-102015498D01*
X112549482Y-101979188D01*
X112425000Y-101966928D01*
X111760750Y-101970000D01*
X111602000Y-102128750D01*
X111348000Y-102128750D01*
X111189250Y-101970000D01*
X110525000Y-101966928D01*
X110400518Y-101979188D01*
X110280820Y-102015498D01*
X110170506Y-102074463D01*
X110073815Y-102153815D01*
X109994463Y-102250506D01*
X109935498Y-102360820D01*
X109899188Y-102480518D01*
X109886928Y-102605000D01*
X101258422Y-102605000D01*
X101255690Y-102591266D01*
X101170734Y-102386165D01*
X101047398Y-102201579D01*
X101024000Y-102178181D01*
X101024000Y-99439196D01*
X101204000Y-99475000D01*
X101426000Y-99475000D01*
X101643734Y-99431690D01*
X101848835Y-99346734D01*
X102033421Y-99223398D01*
X102056819Y-99200000D01*
X105399181Y-99200000D01*
X105422579Y-99223398D01*
X105607165Y-99346734D01*
X105812266Y-99431690D01*
X106030000Y-99475000D01*
X106252000Y-99475000D01*
X106469734Y-99431690D01*
X106674835Y-99346734D01*
X106859421Y-99223398D01*
X107016398Y-99066421D01*
X107139734Y-98881835D01*
X107224690Y-98676734D01*
X107268000Y-98459000D01*
X107268000Y-98237000D01*
X107251690Y-98155000D01*
X109886928Y-98155000D01*
X109899188Y-98279482D01*
X109935498Y-98399180D01*
X109994463Y-98509494D01*
X110073815Y-98606185D01*
X110170506Y-98685537D01*
X110280820Y-98744502D01*
X110400518Y-98780812D01*
X110525000Y-98793072D01*
X111189250Y-98790000D01*
X111348000Y-98631250D01*
X111348000Y-97332000D01*
X110048750Y-97332000D01*
X109890000Y-97490750D01*
X109886928Y-98155000D01*
X107251690Y-98155000D01*
X107224690Y-98019266D01*
X107139734Y-97814165D01*
X107016398Y-97629579D01*
X106859421Y-97472602D01*
X106674835Y-97349266D01*
X106469734Y-97264310D01*
X106252000Y-97221000D01*
X106030000Y-97221000D01*
X105812266Y-97264310D01*
X105607165Y-97349266D01*
X105422579Y-97472602D01*
X105399181Y-97496000D01*
X102056819Y-97496000D01*
X102033421Y-97472602D01*
X101848835Y-97349266D01*
X101643734Y-97264310D01*
X101426000Y-97221000D01*
X101204000Y-97221000D01*
X101024000Y-97256804D01*
X101024000Y-96255000D01*
X109886928Y-96255000D01*
X109890000Y-96919250D01*
X110048750Y-97078000D01*
X111348000Y-97078000D01*
X111348000Y-95778750D01*
X111602000Y-95778750D01*
X111602000Y-97078000D01*
X111622000Y-97078000D01*
X111622000Y-97332000D01*
X111602000Y-97332000D01*
X111602000Y-98631250D01*
X111760750Y-98790000D01*
X112425000Y-98793072D01*
X112549482Y-98780812D01*
X112669180Y-98744502D01*
X112779494Y-98685537D01*
X112876185Y-98606185D01*
X112953149Y-98512404D01*
X113220643Y-98691138D01*
X113525837Y-98817554D01*
X113849830Y-98882000D01*
X114180170Y-98882000D01*
X114504163Y-98817554D01*
X114809357Y-98691138D01*
X115084025Y-98507611D01*
X115317611Y-98274025D01*
X115501138Y-97999357D01*
X115627554Y-97694163D01*
X115692000Y-97370170D01*
X115692000Y-97039830D01*
X115627554Y-96715837D01*
X115501138Y-96410643D01*
X115317611Y-96135975D01*
X115084025Y-95902389D01*
X114809357Y-95718862D01*
X114504163Y-95592446D01*
X114180170Y-95528000D01*
X113849830Y-95528000D01*
X113525837Y-95592446D01*
X113220643Y-95718862D01*
X112953149Y-95897596D01*
X112876185Y-95803815D01*
X112779494Y-95724463D01*
X112669180Y-95665498D01*
X112549482Y-95629188D01*
X112425000Y-95616928D01*
X111760750Y-95620000D01*
X111602000Y-95778750D01*
X111348000Y-95778750D01*
X111189250Y-95620000D01*
X110525000Y-95616928D01*
X110400518Y-95629188D01*
X110280820Y-95665498D01*
X110170506Y-95724463D01*
X110073815Y-95803815D01*
X109994463Y-95900506D01*
X109935498Y-96010820D01*
X109899188Y-96130518D01*
X109886928Y-96255000D01*
X101024000Y-96255000D01*
X101024000Y-93366909D01*
X101252854Y-93138055D01*
X101285370Y-93111370D01*
X101379449Y-92996734D01*
X101391839Y-92981637D01*
X101463815Y-92846980D01*
X101470954Y-92833624D01*
X101519672Y-92673021D01*
X101532000Y-92547852D01*
X101532000Y-92547850D01*
X101536122Y-92506001D01*
X101532000Y-92464152D01*
X101532000Y-90397622D01*
X101749025Y-90252611D01*
X101982611Y-90019025D01*
X102166138Y-89744357D01*
X102292554Y-89439163D01*
X102357000Y-89115170D01*
X102357000Y-88789755D01*
X118103000Y-88789755D01*
X118103000Y-89110245D01*
X118165525Y-89424578D01*
X118288172Y-89720673D01*
X118466227Y-89987152D01*
X118653001Y-90173926D01*
X118653000Y-96608303D01*
X118642647Y-96623798D01*
X118550153Y-96847097D01*
X118503000Y-97084151D01*
X118503000Y-97325849D01*
X118550153Y-97562903D01*
X118642647Y-97786202D01*
X118653001Y-97801698D01*
X118653000Y-102958303D01*
X118642647Y-102973798D01*
X118550153Y-103197097D01*
X118503000Y-103434151D01*
X118503000Y-103675849D01*
X118550153Y-103912903D01*
X118642647Y-104136202D01*
X118653001Y-104151698D01*
X118653000Y-108046075D01*
X118466227Y-108232848D01*
X118288172Y-108499327D01*
X118165525Y-108795422D01*
X118103000Y-109109755D01*
X118103000Y-109430245D01*
X118165525Y-109744578D01*
X118288172Y-110040673D01*
X118466227Y-110307152D01*
X118692848Y-110533773D01*
X118959327Y-110711828D01*
X119255422Y-110834475D01*
X119569755Y-110897000D01*
X119890245Y-110897000D01*
X120204578Y-110834475D01*
X120500673Y-110711828D01*
X120767152Y-110533773D01*
X120993773Y-110307152D01*
X121171828Y-110040673D01*
X121294475Y-109744578D01*
X121357000Y-109430245D01*
X121357000Y-109109755D01*
X121294475Y-108795422D01*
X121171828Y-108499327D01*
X120993773Y-108232848D01*
X120807000Y-108046075D01*
X120807000Y-104151696D01*
X120817353Y-104136202D01*
X120909847Y-103912903D01*
X120957000Y-103675849D01*
X120957000Y-103434151D01*
X120909847Y-103197097D01*
X120817353Y-102973798D01*
X120807000Y-102958304D01*
X120807000Y-97801696D01*
X120817353Y-97786202D01*
X120909847Y-97562903D01*
X120957000Y-97325849D01*
X120957000Y-97084151D01*
X120909847Y-96847097D01*
X120817353Y-96623798D01*
X120807000Y-96608304D01*
X120807000Y-91329755D01*
X125723000Y-91329755D01*
X125723000Y-91650245D01*
X125785525Y-91964578D01*
X125908172Y-92260673D01*
X126086227Y-92527152D01*
X126312848Y-92753773D01*
X126579327Y-92931828D01*
X126875422Y-93054475D01*
X127189755Y-93117000D01*
X127510245Y-93117000D01*
X127824578Y-93054475D01*
X128120673Y-92931828D01*
X128387152Y-92753773D01*
X128573925Y-92567000D01*
X131742093Y-92567000D01*
X131795000Y-92572211D01*
X131847907Y-92567000D01*
X131847909Y-92567000D01*
X132006129Y-92551417D01*
X132209144Y-92489833D01*
X132396244Y-92389826D01*
X132560239Y-92255239D01*
X132593973Y-92214134D01*
X133154134Y-91653973D01*
X133195239Y-91620239D01*
X133302123Y-91490000D01*
X133329826Y-91456245D01*
X133424255Y-91279579D01*
X133429833Y-91269144D01*
X133474286Y-91122602D01*
X133491417Y-91066130D01*
X133512211Y-90855000D01*
X133507000Y-90802091D01*
X133507000Y-90173925D01*
X133693773Y-89987152D01*
X133871828Y-89720673D01*
X133994475Y-89424578D01*
X134057000Y-89110245D01*
X134057000Y-88789755D01*
X133994475Y-88475422D01*
X133871828Y-88179327D01*
X133693773Y-87912848D01*
X133467152Y-87686227D01*
X133200673Y-87508172D01*
X132904578Y-87385525D01*
X132590245Y-87323000D01*
X132269755Y-87323000D01*
X131955422Y-87385525D01*
X131659327Y-87508172D01*
X131392848Y-87686227D01*
X131166227Y-87912848D01*
X130988172Y-88179327D01*
X130865525Y-88475422D01*
X130803000Y-88789755D01*
X130803000Y-89110245D01*
X130865525Y-89424578D01*
X130988172Y-89720673D01*
X131166227Y-89987152D01*
X131353001Y-90173926D01*
X131353001Y-90408892D01*
X131348893Y-90413000D01*
X128573925Y-90413000D01*
X128387152Y-90226227D01*
X128120673Y-90048172D01*
X127824578Y-89925525D01*
X127510245Y-89863000D01*
X127189755Y-89863000D01*
X126875422Y-89925525D01*
X126579327Y-90048172D01*
X126312848Y-90226227D01*
X126086227Y-90452848D01*
X125908172Y-90719327D01*
X125785525Y-91015422D01*
X125723000Y-91329755D01*
X120807000Y-91329755D01*
X120807000Y-90173925D01*
X120993773Y-89987152D01*
X121171828Y-89720673D01*
X121294475Y-89424578D01*
X121357000Y-89110245D01*
X121357000Y-88789755D01*
X121294475Y-88475422D01*
X121171828Y-88179327D01*
X120993773Y-87912848D01*
X120767152Y-87686227D01*
X120500673Y-87508172D01*
X120204578Y-87385525D01*
X119890245Y-87323000D01*
X119569755Y-87323000D01*
X119255422Y-87385525D01*
X118959327Y-87508172D01*
X118692848Y-87686227D01*
X118466227Y-87912848D01*
X118288172Y-88179327D01*
X118165525Y-88475422D01*
X118103000Y-88789755D01*
X102357000Y-88789755D01*
X102357000Y-88784830D01*
X102292554Y-88460837D01*
X102166138Y-88155643D01*
X102038764Y-87965014D01*
X102146554Y-87876554D01*
X102237403Y-87765853D01*
X102304910Y-87639557D01*
X102346480Y-87502517D01*
X102360517Y-87360000D01*
X102360517Y-85460000D01*
X102346480Y-85317483D01*
X102304910Y-85180443D01*
X102237403Y-85054147D01*
X102146554Y-84943446D01*
X102035853Y-84852597D01*
X101909557Y-84785090D01*
X101772517Y-84743520D01*
X101630000Y-84729483D01*
X99730000Y-84729483D01*
X99587483Y-84743520D01*
X99450443Y-84785090D01*
X99324147Y-84852597D01*
X99213446Y-84943446D01*
X99122597Y-85054147D01*
X99055090Y-85180443D01*
X99013520Y-85317483D01*
X98999483Y-85460000D01*
X98999483Y-87360000D01*
X99013520Y-87502517D01*
X99055090Y-87639557D01*
X99122597Y-87765853D01*
X99213446Y-87876554D01*
X99321236Y-87965014D01*
X99193862Y-88155643D01*
X99067446Y-88460837D01*
X99003000Y-88784830D01*
X99003000Y-89115170D01*
X99067446Y-89439163D01*
X99193862Y-89744357D01*
X99377389Y-90019025D01*
X99610975Y-90252611D01*
X99828000Y-90397623D01*
X99828001Y-91203182D01*
X99747421Y-91122602D01*
X99562835Y-90999266D01*
X99357734Y-90914310D01*
X99140000Y-90871000D01*
X98918000Y-90871000D01*
X98700266Y-90914310D01*
X98495165Y-90999266D01*
X98310579Y-91122602D01*
X98153602Y-91279579D01*
X98030266Y-91464165D01*
X97945310Y-91669266D01*
X97902000Y-91887000D01*
X97902000Y-92109000D01*
X97945310Y-92326734D01*
X98030266Y-92531835D01*
X98153602Y-92716421D01*
X98177001Y-92739820D01*
X98177000Y-105984000D01*
X98029000Y-105984000D01*
X97811266Y-106027310D01*
X97606165Y-106112266D01*
X97421579Y-106235602D01*
X97264602Y-106392579D01*
X97141266Y-106577165D01*
X97056310Y-106782266D01*
X97013000Y-107000000D01*
X84995000Y-107000000D01*
X84995000Y-106698778D01*
X85041734Y-106628835D01*
X85126690Y-106423734D01*
X85170000Y-106206000D01*
X85170000Y-105984000D01*
X85126690Y-105766266D01*
X85041734Y-105561165D01*
X84995000Y-105491222D01*
X84995000Y-94805330D01*
X87350092Y-92450239D01*
X87386423Y-92420423D01*
X87505389Y-92275462D01*
X87557282Y-92178377D01*
X87593789Y-92110078D01*
X87648225Y-91930625D01*
X87666606Y-91744000D01*
X87662000Y-91697235D01*
X87662000Y-87013778D01*
X87708734Y-86943835D01*
X87793690Y-86738734D01*
X87837000Y-86521000D01*
X87837000Y-86299000D01*
X87793690Y-86081266D01*
X87708734Y-85876165D01*
X87585398Y-85691579D01*
X87428421Y-85534602D01*
X87316771Y-85460000D01*
X89474483Y-85460000D01*
X89474483Y-87360000D01*
X89488520Y-87502517D01*
X89530090Y-87639557D01*
X89597597Y-87765853D01*
X89688446Y-87876554D01*
X89796236Y-87965014D01*
X89668862Y-88155643D01*
X89542446Y-88460837D01*
X89478000Y-88784830D01*
X89478000Y-89115170D01*
X89542446Y-89439163D01*
X89668862Y-89744357D01*
X89852389Y-90019025D01*
X90085975Y-90252611D01*
X90360643Y-90436138D01*
X90665837Y-90562554D01*
X90989830Y-90627000D01*
X91320170Y-90627000D01*
X91644163Y-90562554D01*
X91949357Y-90436138D01*
X92224025Y-90252611D01*
X92457611Y-90019025D01*
X92641138Y-89744357D01*
X92767554Y-89439163D01*
X92832000Y-89115170D01*
X92832000Y-88784830D01*
X92767554Y-88460837D01*
X92641138Y-88155643D01*
X92513764Y-87965014D01*
X92621554Y-87876554D01*
X92712403Y-87765853D01*
X92779910Y-87639557D01*
X92821480Y-87502517D01*
X92835517Y-87360000D01*
X92835517Y-85460000D01*
X92821480Y-85317483D01*
X92779910Y-85180443D01*
X92712403Y-85054147D01*
X92621554Y-84943446D01*
X92510853Y-84852597D01*
X92384557Y-84785090D01*
X92247517Y-84743520D01*
X92105000Y-84729483D01*
X90205000Y-84729483D01*
X90062483Y-84743520D01*
X89925443Y-84785090D01*
X89799147Y-84852597D01*
X89688446Y-84943446D01*
X89597597Y-85054147D01*
X89530090Y-85180443D01*
X89488520Y-85317483D01*
X89474483Y-85460000D01*
X87316771Y-85460000D01*
X87243835Y-85411266D01*
X87038734Y-85326310D01*
X86821000Y-85283000D01*
X86599000Y-85283000D01*
X86381266Y-85326310D01*
X86176165Y-85411266D01*
X85991579Y-85534602D01*
X85834602Y-85691579D01*
X85711266Y-85876165D01*
X85626310Y-86081266D01*
X85583000Y-86299000D01*
X85583000Y-86521000D01*
X85626310Y-86738734D01*
X85711266Y-86943835D01*
X85758001Y-87013779D01*
X85758000Y-91349669D01*
X83402913Y-93704757D01*
X83366577Y-93734577D01*
X83247611Y-93879538D01*
X83159211Y-94044924D01*
X83104775Y-94224375D01*
X83104775Y-94224376D01*
X83086394Y-94411000D01*
X83091000Y-94457765D01*
X83091001Y-105491221D01*
X83044266Y-105561165D01*
X82959310Y-105766266D01*
X82916000Y-105984000D01*
X82916000Y-106206000D01*
X82959310Y-106423734D01*
X83044266Y-106628835D01*
X83091000Y-106698778D01*
X83091000Y-108361469D01*
X82974734Y-108313310D01*
X82968859Y-108312141D01*
X82967690Y-108306266D01*
X82882734Y-108101165D01*
X82759398Y-107916579D01*
X82602421Y-107759602D01*
X82417835Y-107636266D01*
X82212734Y-107551310D01*
X82206859Y-107550141D01*
X82205690Y-107544266D01*
X82120734Y-107339165D01*
X81997398Y-107154579D01*
X81840421Y-106997602D01*
X81655835Y-106874266D01*
X81450734Y-106789310D01*
X81444859Y-106788141D01*
X81443690Y-106782266D01*
X81358734Y-106577165D01*
X81235398Y-106392579D01*
X81078421Y-106235602D01*
X80893835Y-106112266D01*
X80688734Y-106027310D01*
X80471000Y-105984000D01*
X80450000Y-105984000D01*
X80450000Y-104169819D01*
X80473398Y-104146421D01*
X80596734Y-103961835D01*
X80681690Y-103756734D01*
X80725000Y-103539000D01*
X80725000Y-103317000D01*
X80681690Y-103099266D01*
X80596734Y-102894165D01*
X80473398Y-102709579D01*
X80316421Y-102552602D01*
X80131835Y-102429266D01*
X79926734Y-102344310D01*
X79709000Y-102301000D01*
X79487000Y-102301000D01*
X79269266Y-102344310D01*
X79064165Y-102429266D01*
X78879579Y-102552602D01*
X78722602Y-102709579D01*
X78599266Y-102894165D01*
X78514310Y-103099266D01*
X78492071Y-103211071D01*
X78380266Y-103233310D01*
X78175165Y-103318266D01*
X77990579Y-103441602D01*
X77833602Y-103598579D01*
X77710266Y-103783165D01*
X77625310Y-103988266D01*
X77624141Y-103994141D01*
X77618266Y-103995310D01*
X77413165Y-104080266D01*
X77228579Y-104203602D01*
X77071602Y-104360579D01*
X76948266Y-104545165D01*
X76863310Y-104750266D01*
X76820000Y-104968000D01*
X71164466Y-104968000D01*
X71164466Y-94030000D01*
X71162026Y-94005224D01*
X71154799Y-93981399D01*
X71143063Y-93959443D01*
X71127269Y-93940197D01*
X71108023Y-93924403D01*
X71086067Y-93912667D01*
X71062242Y-93905440D01*
X71037466Y-93903000D01*
X58302000Y-93903000D01*
X58302000Y-89685500D01*
X64551810Y-89685500D01*
X64551810Y-92889500D01*
X74208191Y-92889500D01*
X74208191Y-89685500D01*
X64551810Y-89685500D01*
X58302000Y-89685500D01*
X58302000Y-85460000D01*
X80584483Y-85460000D01*
X80584483Y-87360000D01*
X80598520Y-87502517D01*
X80640090Y-87639557D01*
X80707597Y-87765853D01*
X80798446Y-87876554D01*
X80906236Y-87965014D01*
X80778862Y-88155643D01*
X80652446Y-88460837D01*
X80588000Y-88784830D01*
X80588000Y-89115170D01*
X80652446Y-89439163D01*
X80778862Y-89744357D01*
X80962389Y-90019025D01*
X81195975Y-90252611D01*
X81470643Y-90436138D01*
X81775837Y-90562554D01*
X82099830Y-90627000D01*
X82430170Y-90627000D01*
X82754163Y-90562554D01*
X83059357Y-90436138D01*
X83334025Y-90252611D01*
X83567611Y-90019025D01*
X83751138Y-89744357D01*
X83877554Y-89439163D01*
X83942000Y-89115170D01*
X83942000Y-88784830D01*
X83877554Y-88460837D01*
X83751138Y-88155643D01*
X83623764Y-87965014D01*
X83731554Y-87876554D01*
X83822403Y-87765853D01*
X83889910Y-87639557D01*
X83931480Y-87502517D01*
X83945517Y-87360000D01*
X83945517Y-85460000D01*
X83931480Y-85317483D01*
X83889910Y-85180443D01*
X83822403Y-85054147D01*
X83731554Y-84943446D01*
X83620853Y-84852597D01*
X83494557Y-84785090D01*
X83357517Y-84743520D01*
X83215000Y-84729483D01*
X81315000Y-84729483D01*
X81172483Y-84743520D01*
X81035443Y-84785090D01*
X80909147Y-84852597D01*
X80798446Y-84943446D01*
X80707597Y-85054147D01*
X80640090Y-85180443D01*
X80598520Y-85317483D01*
X80584483Y-85460000D01*
X58302000Y-85460000D01*
X58302000Y-83378000D01*
X95108000Y-83378000D01*
X95108000Y-83600000D01*
X95151310Y-83817734D01*
X95236266Y-84022835D01*
X95359602Y-84207421D01*
X95516579Y-84364398D01*
X95701165Y-84487734D01*
X95906266Y-84572690D01*
X96124000Y-84616000D01*
X96346000Y-84616000D01*
X96563734Y-84572690D01*
X96768835Y-84487734D01*
X96838778Y-84441000D01*
X111969670Y-84441000D01*
X112682000Y-85153331D01*
X112682001Y-85806221D01*
X112635266Y-85876165D01*
X112550310Y-86081266D01*
X112507000Y-86299000D01*
X112507000Y-86521000D01*
X112550310Y-86738734D01*
X112635266Y-86943835D01*
X112758602Y-87128421D01*
X112915579Y-87285398D01*
X113100165Y-87408734D01*
X113305266Y-87493690D01*
X113523000Y-87537000D01*
X113745000Y-87537000D01*
X113962734Y-87493690D01*
X114167835Y-87408734D01*
X114352421Y-87285398D01*
X114509398Y-87128421D01*
X114632734Y-86943835D01*
X114717690Y-86738734D01*
X114761000Y-86521000D01*
X114761000Y-86299000D01*
X114717690Y-86081266D01*
X114632734Y-85876165D01*
X114586000Y-85806222D01*
X114586000Y-84805764D01*
X114590606Y-84758999D01*
X114572225Y-84572375D01*
X114517789Y-84392923D01*
X114429389Y-84227538D01*
X114310423Y-84082577D01*
X114274092Y-84052761D01*
X113419330Y-83198000D01*
X117845181Y-83198000D01*
X117868579Y-83221398D01*
X118053165Y-83344734D01*
X118258266Y-83429690D01*
X118476000Y-83473000D01*
X118698000Y-83473000D01*
X118915734Y-83429690D01*
X119120835Y-83344734D01*
X119305421Y-83221398D01*
X119462398Y-83064421D01*
X119585734Y-82879835D01*
X119670690Y-82674734D01*
X119714000Y-82457000D01*
X119714000Y-82235000D01*
X119670690Y-82017266D01*
X119585734Y-81812165D01*
X119462398Y-81627579D01*
X119305421Y-81470602D01*
X119120835Y-81347266D01*
X119117779Y-81346000D01*
X126858000Y-81346000D01*
X126858000Y-81568000D01*
X126901310Y-81785734D01*
X126986266Y-81990835D01*
X127033000Y-82060778D01*
X127033001Y-85806221D01*
X126986266Y-85876165D01*
X126901310Y-86081266D01*
X126858000Y-86299000D01*
X126858000Y-86521000D01*
X126901310Y-86738734D01*
X126986266Y-86943835D01*
X127109602Y-87128421D01*
X127266579Y-87285398D01*
X127451165Y-87408734D01*
X127656266Y-87493690D01*
X127874000Y-87537000D01*
X128096000Y-87537000D01*
X128313734Y-87493690D01*
X128518835Y-87408734D01*
X128703421Y-87285398D01*
X128860398Y-87128421D01*
X128983734Y-86943835D01*
X129068690Y-86738734D01*
X129112000Y-86521000D01*
X129112000Y-86299000D01*
X129068690Y-86081266D01*
X128983734Y-85876165D01*
X128937000Y-85806222D01*
X128937000Y-82060778D01*
X128983734Y-81990835D01*
X129068690Y-81785734D01*
X129112000Y-81568000D01*
X129112000Y-81346000D01*
X129068690Y-81128266D01*
X128983734Y-80923165D01*
X128860398Y-80738579D01*
X128703421Y-80581602D01*
X128518835Y-80458266D01*
X128313734Y-80373310D01*
X128096000Y-80330000D01*
X127874000Y-80330000D01*
X127656266Y-80373310D01*
X127451165Y-80458266D01*
X127266579Y-80581602D01*
X127109602Y-80738579D01*
X126986266Y-80923165D01*
X126901310Y-81128266D01*
X126858000Y-81346000D01*
X119117779Y-81346000D01*
X118915734Y-81262310D01*
X118698000Y-81219000D01*
X118476000Y-81219000D01*
X118258266Y-81262310D01*
X118053165Y-81347266D01*
X117868579Y-81470602D01*
X117845181Y-81494000D01*
X101421819Y-81494000D01*
X101398421Y-81470602D01*
X101213835Y-81347266D01*
X101008734Y-81262310D01*
X100791000Y-81219000D01*
X100569000Y-81219000D01*
X100351266Y-81262310D01*
X100146165Y-81347266D01*
X99961579Y-81470602D01*
X99804602Y-81627579D01*
X99681266Y-81812165D01*
X99596310Y-82017266D01*
X99553000Y-82235000D01*
X99553000Y-82457000D01*
X99568913Y-82537000D01*
X96838778Y-82537000D01*
X96768835Y-82490266D01*
X96563734Y-82405310D01*
X96346000Y-82362000D01*
X96124000Y-82362000D01*
X95906266Y-82405310D01*
X95701165Y-82490266D01*
X95516579Y-82613602D01*
X95359602Y-82770579D01*
X95236266Y-82955165D01*
X95151310Y-83160266D01*
X95108000Y-83378000D01*
X58302000Y-83378000D01*
X58302000Y-77127000D01*
X112412247Y-77127000D01*
X112438017Y-77148149D01*
X112651176Y-77262084D01*
X112882466Y-77332245D01*
X113062732Y-77350000D01*
X113062739Y-77350000D01*
X113122999Y-77355935D01*
X113183259Y-77350000D01*
X119796737Y-77350000D01*
X119857000Y-77355935D01*
X119917263Y-77350000D01*
X123225740Y-77350000D01*
X123286000Y-77355935D01*
X123346260Y-77350000D01*
X123346268Y-77350000D01*
X123526534Y-77332245D01*
X123757824Y-77262084D01*
X123970983Y-77148149D01*
X124157817Y-76994817D01*
X124196239Y-76948000D01*
X125265005Y-75879235D01*
X125311817Y-75840817D01*
X125465149Y-75653983D01*
X125579084Y-75440824D01*
X125649245Y-75209534D01*
X125667000Y-75029268D01*
X125667000Y-75029261D01*
X125672935Y-74969001D01*
X125667000Y-74908741D01*
X125667000Y-73057400D01*
X125874929Y-72918466D01*
X126188466Y-72604929D01*
X126434811Y-72236249D01*
X126604496Y-71826593D01*
X126691000Y-71391704D01*
X126691000Y-70948296D01*
X126647568Y-70729945D01*
X126803407Y-70794496D01*
X127238296Y-70881000D01*
X127681704Y-70881000D01*
X128116593Y-70794496D01*
X128526249Y-70624811D01*
X128894929Y-70378466D01*
X129208466Y-70064929D01*
X129454811Y-69696249D01*
X129624496Y-69286593D01*
X129711000Y-68851704D01*
X129711000Y-68408296D01*
X129624496Y-67973407D01*
X129454811Y-67563751D01*
X129208466Y-67195071D01*
X128894929Y-66881534D01*
X128687000Y-66742600D01*
X128687000Y-62618000D01*
X130143761Y-62618000D01*
X130833001Y-63307241D01*
X130833000Y-66742600D01*
X130625071Y-66881534D01*
X130311534Y-67195071D01*
X130065189Y-67563751D01*
X129895504Y-67973407D01*
X129809000Y-68408296D01*
X129809000Y-68851704D01*
X129895504Y-69286593D01*
X130065189Y-69696249D01*
X130311534Y-70064929D01*
X130625071Y-70378466D01*
X130993751Y-70624811D01*
X131403407Y-70794496D01*
X131838296Y-70881000D01*
X132281704Y-70881000D01*
X132716593Y-70794496D01*
X133126249Y-70624811D01*
X133494929Y-70378466D01*
X133808466Y-70064929D01*
X134054811Y-69696249D01*
X134224496Y-69286593D01*
X134311000Y-68851704D01*
X134311000Y-68408296D01*
X134224496Y-67973407D01*
X134054811Y-67563751D01*
X133808466Y-67195071D01*
X133494929Y-66881534D01*
X133287000Y-66742600D01*
X133287000Y-62859263D01*
X133292935Y-62799000D01*
X133286528Y-62733935D01*
X133275781Y-62624823D01*
X133269246Y-62558466D01*
X133199084Y-62327176D01*
X133170563Y-62273817D01*
X133085149Y-62114017D01*
X132931817Y-61927183D01*
X132885005Y-61888765D01*
X131562239Y-60566000D01*
X131523817Y-60519183D01*
X131336983Y-60365851D01*
X131123824Y-60251916D01*
X130892534Y-60181755D01*
X130712268Y-60164000D01*
X130712260Y-60164000D01*
X130652000Y-60158065D01*
X130591740Y-60164000D01*
X127410260Y-60164000D01*
X127350000Y-60158065D01*
X127289740Y-60164000D01*
X124489260Y-60164000D01*
X124429000Y-60158065D01*
X124368740Y-60164000D01*
X119917263Y-60164000D01*
X119857000Y-60158065D01*
X119796737Y-60164000D01*
X115127000Y-60164000D01*
X115127000Y-58277000D01*
X123360093Y-58277000D01*
X123413000Y-58282211D01*
X123465907Y-58277000D01*
X123465909Y-58277000D01*
X123624129Y-58261417D01*
X123827144Y-58199833D01*
X124014244Y-58099826D01*
X124178239Y-57965239D01*
X124211973Y-57924134D01*
X124772134Y-57363973D01*
X124813239Y-57330239D01*
X124920124Y-57199999D01*
X124947826Y-57166245D01*
X125041273Y-56991417D01*
X125047833Y-56979144D01*
X125075237Y-56888807D01*
X125126927Y-56966167D01*
X125297833Y-57137073D01*
X125498798Y-57271353D01*
X125722097Y-57363847D01*
X125959151Y-57411000D01*
X126200849Y-57411000D01*
X126437903Y-57363847D01*
X126661202Y-57271353D01*
X126676696Y-57261000D01*
X134155093Y-57261000D01*
X134208000Y-57266211D01*
X134260907Y-57261000D01*
X134260909Y-57261000D01*
X134419129Y-57245417D01*
X134622144Y-57183833D01*
X134809244Y-57083826D01*
X134973239Y-56949239D01*
X135006972Y-56908135D01*
X135948139Y-55966968D01*
X135989239Y-55933239D01*
X136123826Y-55769244D01*
X136223833Y-55582144D01*
X136285417Y-55379129D01*
X136301000Y-55220909D01*
X136301000Y-55220907D01*
X136306211Y-55168000D01*
X136301000Y-55115093D01*
X136301000Y-51283907D01*
X136306211Y-51231000D01*
X136300203Y-51170000D01*
X136285417Y-51019871D01*
X136223833Y-50816856D01*
X136123826Y-50629756D01*
X135989239Y-50465761D01*
X135948139Y-50432032D01*
X135006972Y-49490865D01*
X134973239Y-49449761D01*
X134809244Y-49315174D01*
X134622144Y-49215167D01*
X134419129Y-49153583D01*
X134260909Y-49138000D01*
X134260907Y-49138000D01*
X134208000Y-49132789D01*
X134155093Y-49138000D01*
X134098008Y-49138000D01*
X134096480Y-49122483D01*
X134054910Y-48985443D01*
X133987403Y-48859147D01*
X133896554Y-48748446D01*
X133785853Y-48657597D01*
X133659557Y-48590090D01*
X133522517Y-48548520D01*
X133380000Y-48534483D01*
X131480000Y-48534483D01*
X131337483Y-48548520D01*
X131200443Y-48590090D01*
X131074147Y-48657597D01*
X130963446Y-48748446D01*
X130872597Y-48859147D01*
X130805090Y-48985443D01*
X130763520Y-49122483D01*
X130749483Y-49265000D01*
X130749483Y-51165000D01*
X130763520Y-51307517D01*
X130805090Y-51444557D01*
X130872597Y-51570853D01*
X130963446Y-51681554D01*
X131071236Y-51770014D01*
X130943862Y-51960643D01*
X130817446Y-52265837D01*
X130753000Y-52589830D01*
X130753000Y-52920170D01*
X130817446Y-53244163D01*
X130943862Y-53549357D01*
X131127389Y-53824025D01*
X131360975Y-54057611D01*
X131635643Y-54241138D01*
X131940837Y-54367554D01*
X132264830Y-54432000D01*
X132595170Y-54432000D01*
X132919163Y-54367554D01*
X133224357Y-54241138D01*
X133499025Y-54057611D01*
X133732611Y-53824025D01*
X133916138Y-53549357D01*
X134042554Y-53244163D01*
X134107000Y-52920170D01*
X134107000Y-52589830D01*
X134042554Y-52265837D01*
X133916138Y-51960643D01*
X133788764Y-51770014D01*
X133896554Y-51681554D01*
X133987403Y-51570853D01*
X134005984Y-51536091D01*
X134147001Y-51677109D01*
X134147000Y-54721892D01*
X133761893Y-55107000D01*
X126676696Y-55107000D01*
X126661202Y-55096647D01*
X126437903Y-55004153D01*
X126200849Y-54957000D01*
X125959151Y-54957000D01*
X125722097Y-55004153D01*
X125498798Y-55096647D01*
X125297833Y-55230927D01*
X125126927Y-55401833D01*
X125125000Y-55404717D01*
X125125000Y-53854752D01*
X126429853Y-53854752D01*
X126519579Y-54114042D01*
X126800671Y-54249935D01*
X127102873Y-54328379D01*
X127414573Y-54346359D01*
X127723791Y-54303184D01*
X128018644Y-54200513D01*
X128180421Y-54114042D01*
X128270147Y-53854752D01*
X127350000Y-52934605D01*
X126429853Y-53854752D01*
X125125000Y-53854752D01*
X125125000Y-50557696D01*
X125135353Y-50542202D01*
X125227847Y-50318903D01*
X125275000Y-50081849D01*
X125275000Y-49840151D01*
X125227847Y-49603097D01*
X125135353Y-49379798D01*
X125058648Y-49265000D01*
X125669483Y-49265000D01*
X125669483Y-51165000D01*
X125683520Y-51307517D01*
X125725090Y-51444557D01*
X125792597Y-51570853D01*
X125883446Y-51681554D01*
X125994147Y-51772403D01*
X126120443Y-51839910D01*
X126181826Y-51858530D01*
X125990958Y-51924579D01*
X125855065Y-52205671D01*
X125776621Y-52507873D01*
X125758641Y-52819573D01*
X125801816Y-53128791D01*
X125904487Y-53423644D01*
X125990958Y-53585421D01*
X126250248Y-53675147D01*
X127170395Y-52755000D01*
X127156253Y-52740858D01*
X127335858Y-52561253D01*
X127350000Y-52575395D01*
X127364143Y-52561253D01*
X127543748Y-52740858D01*
X127529605Y-52755000D01*
X128449752Y-53675147D01*
X128709042Y-53585421D01*
X128844935Y-53304329D01*
X128923379Y-53002127D01*
X128941359Y-52690427D01*
X128898184Y-52381209D01*
X128795513Y-52086356D01*
X128709042Y-51924579D01*
X128518174Y-51858530D01*
X128579557Y-51839910D01*
X128705853Y-51772403D01*
X128816554Y-51681554D01*
X128907403Y-51570853D01*
X128974910Y-51444557D01*
X129016480Y-51307517D01*
X129030517Y-51165000D01*
X129030517Y-49265000D01*
X129016480Y-49122483D01*
X128974910Y-48985443D01*
X128907403Y-48859147D01*
X128816554Y-48748446D01*
X128705853Y-48657597D01*
X128579557Y-48590090D01*
X128442517Y-48548520D01*
X128300000Y-48534483D01*
X126400000Y-48534483D01*
X126257483Y-48548520D01*
X126120443Y-48590090D01*
X125994147Y-48657597D01*
X125883446Y-48748446D01*
X125792597Y-48859147D01*
X125725090Y-48985443D01*
X125683520Y-49122483D01*
X125669483Y-49265000D01*
X125058648Y-49265000D01*
X125001073Y-49178833D01*
X124830167Y-49007927D01*
X124629202Y-48873647D01*
X124405903Y-48781153D01*
X124168849Y-48734000D01*
X123927151Y-48734000D01*
X123690097Y-48781153D01*
X123466798Y-48873647D01*
X123265833Y-49007927D01*
X123094927Y-49178833D01*
X122960647Y-49379798D01*
X122868153Y-49603097D01*
X122821000Y-49840151D01*
X122821000Y-50081849D01*
X122868153Y-50318903D01*
X122960647Y-50542202D01*
X122971001Y-50557698D01*
X122971000Y-56118893D01*
X122966893Y-56123000D01*
X115127000Y-56123000D01*
X115127000Y-50764884D01*
X115244979Y-50800672D01*
X115370148Y-50813000D01*
X115370151Y-50813000D01*
X115412000Y-50817122D01*
X115453849Y-50813000D01*
X118480181Y-50813000D01*
X118503579Y-50836398D01*
X118688165Y-50959734D01*
X118893266Y-51044690D01*
X119111000Y-51088000D01*
X119333000Y-51088000D01*
X119550734Y-51044690D01*
X119755835Y-50959734D01*
X119940421Y-50836398D01*
X120097398Y-50679421D01*
X120220734Y-50494835D01*
X120305690Y-50289734D01*
X120349000Y-50072000D01*
X120349000Y-49850000D01*
X120305690Y-49632266D01*
X120220734Y-49427165D01*
X120097398Y-49242579D01*
X119940421Y-49085602D01*
X119755835Y-48962266D01*
X119550734Y-48877310D01*
X119333000Y-48834000D01*
X119111000Y-48834000D01*
X118893266Y-48877310D01*
X118688165Y-48962266D01*
X118503579Y-49085602D01*
X118480181Y-49109000D01*
X115764910Y-49109000D01*
X115155054Y-48499145D01*
X115128370Y-48466630D01*
X115127000Y-48465506D01*
X115127000Y-45302000D01*
X141698001Y-45302000D01*
X141698000Y-93903000D01*
X141698000Y-93903000D01*
G37*
X141698000Y-93903000D02*
X129255000Y-93903000D01*
X129230224Y-93905440D01*
X129206399Y-93912667D01*
X129184443Y-93924403D01*
X129165197Y-93940197D01*
X129149403Y-93959443D01*
X129137667Y-93981399D01*
X129130440Y-94005224D01*
X129128000Y-94030000D01*
X129128000Y-106095000D01*
X129130440Y-106119776D01*
X129137667Y-106143601D01*
X129149403Y-106165557D01*
X129165197Y-106184803D01*
X129184443Y-106200597D01*
X129206399Y-106212333D01*
X129230224Y-106219560D01*
X129255000Y-106222000D01*
X141698000Y-106222000D01*
X141698000Y-126698000D01*
X58302000Y-126698000D01*
X58302000Y-124344830D01*
X83763000Y-124344830D01*
X83763000Y-124675170D01*
X83827446Y-124999163D01*
X83953862Y-125304357D01*
X84137389Y-125579025D01*
X84370975Y-125812611D01*
X84645643Y-125996138D01*
X84950837Y-126122554D01*
X85274830Y-126187000D01*
X85605170Y-126187000D01*
X85929163Y-126122554D01*
X86234357Y-125996138D01*
X86509025Y-125812611D01*
X86710000Y-125611636D01*
X86910975Y-125812611D01*
X87185643Y-125996138D01*
X87490837Y-126122554D01*
X87814830Y-126187000D01*
X88145170Y-126187000D01*
X88469163Y-126122554D01*
X88774357Y-125996138D01*
X89049025Y-125812611D01*
X89250000Y-125611636D01*
X89450975Y-125812611D01*
X89725643Y-125996138D01*
X90030837Y-126122554D01*
X90354830Y-126187000D01*
X90685170Y-126187000D01*
X91009163Y-126122554D01*
X91314357Y-125996138D01*
X91589025Y-125812611D01*
X91790000Y-125611636D01*
X91990975Y-125812611D01*
X92265643Y-125996138D01*
X92570837Y-126122554D01*
X92894830Y-126187000D01*
X93225170Y-126187000D01*
X93549163Y-126122554D01*
X93854357Y-125996138D01*
X94129025Y-125812611D01*
X94330000Y-125611636D01*
X94530975Y-125812611D01*
X94805643Y-125996138D01*
X95110837Y-126122554D01*
X95434830Y-126187000D01*
X95765170Y-126187000D01*
X96089163Y-126122554D01*
X96394357Y-125996138D01*
X96669025Y-125812611D01*
X96870000Y-125611636D01*
X97070975Y-125812611D01*
X97345643Y-125996138D01*
X97650837Y-126122554D01*
X97974830Y-126187000D01*
X98305170Y-126187000D01*
X98629163Y-126122554D01*
X98934357Y-125996138D01*
X99209025Y-125812611D01*
X99411884Y-125609752D01*
X99759853Y-125609752D01*
X99849579Y-125869042D01*
X100130671Y-126004935D01*
X100432873Y-126083379D01*
X100744573Y-126101359D01*
X101053791Y-126058184D01*
X101348644Y-125955513D01*
X101510421Y-125869042D01*
X101600147Y-125609752D01*
X100680000Y-124689605D01*
X99759853Y-125609752D01*
X99411884Y-125609752D01*
X99442611Y-125579025D01*
X99549254Y-125419422D01*
X99580248Y-125430147D01*
X100500395Y-124510000D01*
X100859605Y-124510000D01*
X101779752Y-125430147D01*
X102039042Y-125340421D01*
X102174935Y-125059329D01*
X102253379Y-124757127D01*
X102271359Y-124445427D01*
X102228184Y-124136209D01*
X102125513Y-123841356D01*
X102039042Y-123679579D01*
X101779752Y-123589853D01*
X100859605Y-124510000D01*
X100500395Y-124510000D01*
X99580248Y-123589853D01*
X99549254Y-123600578D01*
X99442611Y-123440975D01*
X99411884Y-123410248D01*
X99759853Y-123410248D01*
X100680000Y-124330395D01*
X101600147Y-123410248D01*
X101510421Y-123150958D01*
X101229329Y-123015065D01*
X100927127Y-122936621D01*
X100615427Y-122918641D01*
X100306209Y-122961816D01*
X100011356Y-123064487D01*
X99849579Y-123150958D01*
X99759853Y-123410248D01*
X99411884Y-123410248D01*
X99209025Y-123207389D01*
X98934357Y-123023862D01*
X98629163Y-122897446D01*
X98305170Y-122833000D01*
X97974830Y-122833000D01*
X97650837Y-122897446D01*
X97345643Y-123023862D01*
X97070975Y-123207389D01*
X96870000Y-123408364D01*
X96669025Y-123207389D01*
X96452000Y-123062378D01*
X96452000Y-119934000D01*
X97033000Y-119934000D01*
X97033000Y-120156000D01*
X97076310Y-120373734D01*
X97161266Y-120578835D01*
X97284602Y-120763421D01*
X97441579Y-120920398D01*
X97626165Y-121043734D01*
X97831266Y-121128690D01*
X98049000Y-121172000D01*
X98271000Y-121172000D01*
X98488734Y-121128690D01*
X98693835Y-121043734D01*
X98763778Y-120997000D01*
X101697290Y-120997000D01*
X101797165Y-121063734D01*
X102002266Y-121148690D01*
X102220000Y-121192000D01*
X102442000Y-121192000D01*
X102659734Y-121148690D01*
X102864835Y-121063734D01*
X103049421Y-120940398D01*
X103206398Y-120783421D01*
X103329734Y-120598835D01*
X103414690Y-120393734D01*
X103426658Y-120333567D01*
X104908000Y-121814910D01*
X104908001Y-123641180D01*
X104884602Y-123664579D01*
X104761266Y-123849165D01*
X104676310Y-124054266D01*
X104633000Y-124272000D01*
X104633000Y-124494000D01*
X104676310Y-124711734D01*
X104761266Y-124916835D01*
X104884602Y-125101421D01*
X105041579Y-125258398D01*
X105226165Y-125381734D01*
X105431266Y-125466690D01*
X105649000Y-125510000D01*
X105871000Y-125510000D01*
X106088734Y-125466690D01*
X106293835Y-125381734D01*
X106478421Y-125258398D01*
X106635398Y-125101421D01*
X106758734Y-124916835D01*
X106843690Y-124711734D01*
X106855658Y-124651568D01*
X107159950Y-124955860D01*
X107186630Y-124988370D01*
X107219138Y-125015048D01*
X107316363Y-125094839D01*
X107354774Y-125115370D01*
X107464376Y-125173954D01*
X107624979Y-125222672D01*
X107750148Y-125235000D01*
X107750151Y-125235000D01*
X107792000Y-125239122D01*
X107833849Y-125235000D01*
X120766181Y-125235000D01*
X120789579Y-125258398D01*
X120974165Y-125381734D01*
X121179266Y-125466690D01*
X121397000Y-125510000D01*
X121619000Y-125510000D01*
X121836734Y-125466690D01*
X122041835Y-125381734D01*
X122226421Y-125258398D01*
X122383398Y-125101421D01*
X122506734Y-124916835D01*
X122591690Y-124711734D01*
X122635000Y-124494000D01*
X122635000Y-124272000D01*
X122591690Y-124054266D01*
X122506734Y-123849165D01*
X122383398Y-123664579D01*
X122226421Y-123507602D01*
X122041835Y-123384266D01*
X121836734Y-123299310D01*
X121619000Y-123256000D01*
X121397000Y-123256000D01*
X121179266Y-123299310D01*
X120974165Y-123384266D01*
X120789579Y-123507602D01*
X120766181Y-123531000D01*
X108144910Y-123531000D01*
X107628000Y-123014091D01*
X107628000Y-120868848D01*
X107632122Y-120826999D01*
X107627830Y-120783421D01*
X107615672Y-120659979D01*
X107566954Y-120499376D01*
X107509893Y-120392624D01*
X107487839Y-120351363D01*
X107408048Y-120254138D01*
X107381370Y-120221630D01*
X107348861Y-120194951D01*
X105088000Y-117934091D01*
X105088000Y-111953000D01*
X121905000Y-111953000D01*
X121905000Y-112175000D01*
X121948310Y-112392734D01*
X122033266Y-112597835D01*
X122156602Y-112782421D01*
X122180001Y-112805820D01*
X122180000Y-122436151D01*
X122175878Y-122478000D01*
X122180000Y-122519849D01*
X122180000Y-122519851D01*
X122192328Y-122645020D01*
X122241046Y-122805623D01*
X122320161Y-122953636D01*
X122356027Y-122997339D01*
X122426630Y-123083370D01*
X122459145Y-123110054D01*
X123034949Y-123685859D01*
X123061630Y-123718370D01*
X123191364Y-123824839D01*
X123192216Y-123825294D01*
X123176266Y-123849165D01*
X123091310Y-124054266D01*
X123048000Y-124272000D01*
X123048000Y-124494000D01*
X123091310Y-124711734D01*
X123176266Y-124916835D01*
X123299602Y-125101421D01*
X123456579Y-125258398D01*
X123641165Y-125381734D01*
X123846266Y-125466690D01*
X124064000Y-125510000D01*
X124286000Y-125510000D01*
X124503734Y-125466690D01*
X124708835Y-125381734D01*
X124893421Y-125258398D01*
X125050398Y-125101421D01*
X125173734Y-124916835D01*
X125258690Y-124711734D01*
X125302000Y-124494000D01*
X125302000Y-124272000D01*
X125258690Y-124054266D01*
X125221715Y-123965000D01*
X129224285Y-123965000D01*
X129187310Y-124054266D01*
X129144000Y-124272000D01*
X129144000Y-124494000D01*
X129187310Y-124711734D01*
X129272266Y-124916835D01*
X129395602Y-125101421D01*
X129552579Y-125258398D01*
X129737165Y-125381734D01*
X129942266Y-125466690D01*
X130160000Y-125510000D01*
X130382000Y-125510000D01*
X130599734Y-125466690D01*
X130804835Y-125381734D01*
X130989421Y-125258398D01*
X131146398Y-125101421D01*
X131269734Y-124916835D01*
X131354690Y-124711734D01*
X131398000Y-124494000D01*
X131398000Y-124272000D01*
X131354690Y-124054266D01*
X131269734Y-123849165D01*
X131146398Y-123664579D01*
X131123000Y-123641181D01*
X131123000Y-123535848D01*
X131127122Y-123493999D01*
X131123000Y-123452148D01*
X131110672Y-123326979D01*
X131061954Y-123166376D01*
X130982839Y-123018364D01*
X130876370Y-122888630D01*
X130843854Y-122861945D01*
X130522055Y-122540146D01*
X130495370Y-122507630D01*
X130365636Y-122401161D01*
X130217624Y-122322046D01*
X130057021Y-122273328D01*
X129931852Y-122261000D01*
X129931849Y-122261000D01*
X129890000Y-122256878D01*
X129848151Y-122261000D01*
X124019910Y-122261000D01*
X123884000Y-122125091D01*
X123884000Y-117854196D01*
X124064000Y-117890000D01*
X124286000Y-117890000D01*
X124503734Y-117846690D01*
X124708835Y-117761734D01*
X124893421Y-117638398D01*
X125050398Y-117481421D01*
X125173734Y-117296835D01*
X125258690Y-117091734D01*
X125302000Y-116874000D01*
X125302000Y-116652000D01*
X125258690Y-116434266D01*
X125173734Y-116229165D01*
X125050398Y-116044579D01*
X125027000Y-116021181D01*
X125027000Y-111916819D01*
X125050398Y-111893421D01*
X125173734Y-111708835D01*
X125198205Y-111649755D01*
X125723000Y-111649755D01*
X125723000Y-111970245D01*
X125785525Y-112284578D01*
X125908172Y-112580673D01*
X126086227Y-112847152D01*
X126312848Y-113073773D01*
X126579327Y-113251828D01*
X126875422Y-113374475D01*
X127189755Y-113437000D01*
X127510245Y-113437000D01*
X127824578Y-113374475D01*
X128120673Y-113251828D01*
X128387152Y-113073773D01*
X128573925Y-112887000D01*
X131742093Y-112887000D01*
X131795000Y-112892211D01*
X131847907Y-112887000D01*
X131847909Y-112887000D01*
X132006129Y-112871417D01*
X132209144Y-112809833D01*
X132396244Y-112709826D01*
X132560239Y-112575239D01*
X132593973Y-112534134D01*
X133154134Y-111973973D01*
X133195239Y-111940239D01*
X133302123Y-111810000D01*
X133329826Y-111776245D01*
X133396965Y-111650636D01*
X133429833Y-111589144D01*
X133472735Y-111447714D01*
X133491417Y-111386130D01*
X133512211Y-111175000D01*
X133507000Y-111122091D01*
X133507000Y-110493925D01*
X133693773Y-110307152D01*
X133871828Y-110040673D01*
X133994475Y-109744578D01*
X134057000Y-109430245D01*
X134057000Y-109109755D01*
X133994475Y-108795422D01*
X133871828Y-108499327D01*
X133693773Y-108232848D01*
X133467152Y-108006227D01*
X133200673Y-107828172D01*
X132904578Y-107705525D01*
X132590245Y-107643000D01*
X132269755Y-107643000D01*
X131955422Y-107705525D01*
X131659327Y-107828172D01*
X131392848Y-108006227D01*
X131166227Y-108232848D01*
X130988172Y-108499327D01*
X130865525Y-108795422D01*
X130803000Y-109109755D01*
X130803000Y-109430245D01*
X130865525Y-109744578D01*
X130988172Y-110040673D01*
X131166227Y-110307152D01*
X131353000Y-110493925D01*
X131353000Y-110728893D01*
X131348893Y-110733000D01*
X128573925Y-110733000D01*
X128387152Y-110546227D01*
X128120673Y-110368172D01*
X127824578Y-110245525D01*
X127510245Y-110183000D01*
X127189755Y-110183000D01*
X126875422Y-110245525D01*
X126579327Y-110368172D01*
X126312848Y-110546227D01*
X126086227Y-110772848D01*
X125908172Y-111039327D01*
X125785525Y-111335422D01*
X125723000Y-111649755D01*
X125198205Y-111649755D01*
X125258690Y-111503734D01*
X125302000Y-111286000D01*
X125302000Y-111064000D01*
X125258690Y-110846266D01*
X125173734Y-110641165D01*
X125050398Y-110456579D01*
X124893421Y-110299602D01*
X124708835Y-110176266D01*
X124503734Y-110091310D01*
X124286000Y-110048000D01*
X124064000Y-110048000D01*
X123846266Y-110091310D01*
X123641165Y-110176266D01*
X123456579Y-110299602D01*
X123299602Y-110456579D01*
X123176266Y-110641165D01*
X123091310Y-110846266D01*
X123073262Y-110937000D01*
X122921000Y-110937000D01*
X122703266Y-110980310D01*
X122498165Y-111065266D01*
X122313579Y-111188602D01*
X122156602Y-111345579D01*
X122033266Y-111530165D01*
X121948310Y-111735266D01*
X121905000Y-111953000D01*
X105088000Y-111953000D01*
X105088000Y-110519819D01*
X105111398Y-110496421D01*
X105234734Y-110311835D01*
X105319690Y-110106734D01*
X105363000Y-109889000D01*
X105363000Y-109667000D01*
X105319690Y-109449266D01*
X105234734Y-109244165D01*
X105111398Y-109059579D01*
X104954421Y-108902602D01*
X104769835Y-108779266D01*
X104564734Y-108694310D01*
X104452929Y-108672071D01*
X104430690Y-108560266D01*
X104345734Y-108355165D01*
X104222398Y-108170579D01*
X104065421Y-108013602D01*
X103880835Y-107890266D01*
X103675734Y-107805310D01*
X103458000Y-107762000D01*
X103437000Y-107762000D01*
X103437000Y-104677819D01*
X103460398Y-104654421D01*
X103560237Y-104505000D01*
X109886928Y-104505000D01*
X109899188Y-104629482D01*
X109935498Y-104749180D01*
X109994463Y-104859494D01*
X110073815Y-104956185D01*
X110170506Y-105035537D01*
X110280820Y-105094502D01*
X110400518Y-105130812D01*
X110525000Y-105143072D01*
X111189250Y-105140000D01*
X111348000Y-104981250D01*
X111348000Y-103682000D01*
X110048750Y-103682000D01*
X109890000Y-103840750D01*
X109886928Y-104505000D01*
X103560237Y-104505000D01*
X103583734Y-104469835D01*
X103668690Y-104264734D01*
X103712000Y-104047000D01*
X103712000Y-103825000D01*
X103668690Y-103607266D01*
X103583734Y-103402165D01*
X103460398Y-103217579D01*
X103303421Y-103060602D01*
X103118835Y-102937266D01*
X102913734Y-102852310D01*
X102696000Y-102809000D01*
X102474000Y-102809000D01*
X102256266Y-102852310D01*
X102051165Y-102937266D01*
X101866579Y-103060602D01*
X101709602Y-103217579D01*
X101586266Y-103402165D01*
X101501310Y-103607266D01*
X101458000Y-103825000D01*
X101458000Y-103977262D01*
X101367266Y-103995310D01*
X101162165Y-104080266D01*
X100977579Y-104203602D01*
X100820602Y-104360579D01*
X100697266Y-104545165D01*
X100612310Y-104750266D01*
X100569000Y-104968000D01*
X100569000Y-105190000D01*
X100612310Y-105407734D01*
X100697266Y-105612835D01*
X100820602Y-105797421D01*
X100844000Y-105820819D01*
X100844001Y-111322180D01*
X100820602Y-111345579D01*
X100697266Y-111530165D01*
X100612310Y-111735266D01*
X100569000Y-111953000D01*
X100569000Y-112175000D01*
X100612310Y-112392734D01*
X100697266Y-112597835D01*
X100820602Y-112782421D01*
X100977579Y-112939398D01*
X101162165Y-113062734D01*
X101367266Y-113147690D01*
X101585000Y-113191000D01*
X101807000Y-113191000D01*
X102024734Y-113147690D01*
X102229835Y-113062734D01*
X102414421Y-112939398D01*
X102495000Y-112858819D01*
X102495001Y-118948543D01*
X102442000Y-118938000D01*
X102220000Y-118938000D01*
X102002266Y-118981310D01*
X101797165Y-119066266D01*
X101757155Y-119093000D01*
X98763778Y-119093000D01*
X98693835Y-119046266D01*
X98488734Y-118961310D01*
X98271000Y-118918000D01*
X98049000Y-118918000D01*
X97831266Y-118961310D01*
X97626165Y-119046266D01*
X97441579Y-119169602D01*
X97284602Y-119326579D01*
X97161266Y-119511165D01*
X97076310Y-119716266D01*
X97033000Y-119934000D01*
X96452000Y-119934000D01*
X96452000Y-118266819D01*
X96475398Y-118243421D01*
X96598734Y-118058835D01*
X96683690Y-117853734D01*
X96727000Y-117636000D01*
X96727000Y-117414000D01*
X96683690Y-117196266D01*
X96598734Y-116991165D01*
X96475398Y-116806579D01*
X96318421Y-116649602D01*
X96133835Y-116526266D01*
X95928734Y-116441310D01*
X95711000Y-116398000D01*
X95489000Y-116398000D01*
X95271266Y-116441310D01*
X95066165Y-116526266D01*
X94881579Y-116649602D01*
X94724602Y-116806579D01*
X94601266Y-116991165D01*
X94516310Y-117196266D01*
X94473000Y-117414000D01*
X94473000Y-117636000D01*
X94516310Y-117853734D01*
X94601266Y-118058835D01*
X94724602Y-118243421D01*
X94748000Y-118266819D01*
X94748001Y-123062377D01*
X94530975Y-123207389D01*
X94330000Y-123408364D01*
X94129025Y-123207389D01*
X93912000Y-123062378D01*
X93912000Y-120552819D01*
X93935398Y-120529421D01*
X94058734Y-120344835D01*
X94143690Y-120139734D01*
X94187000Y-119922000D01*
X94187000Y-119700000D01*
X94143690Y-119482266D01*
X94058734Y-119277165D01*
X93935398Y-119092579D01*
X93778421Y-118935602D01*
X93593835Y-118812266D01*
X93388734Y-118727310D01*
X93171000Y-118684000D01*
X92949000Y-118684000D01*
X92731266Y-118727310D01*
X92526165Y-118812266D01*
X92341579Y-118935602D01*
X92184602Y-119092579D01*
X92061266Y-119277165D01*
X91976310Y-119482266D01*
X91933000Y-119700000D01*
X91933000Y-119922000D01*
X91976310Y-120139734D01*
X92061266Y-120344835D01*
X92184602Y-120529421D01*
X92208000Y-120552819D01*
X92208001Y-123062377D01*
X91990975Y-123207389D01*
X91790000Y-123408364D01*
X91589025Y-123207389D01*
X91372000Y-123062378D01*
X91372000Y-119790819D01*
X91395398Y-119767421D01*
X91518734Y-119582835D01*
X91603690Y-119377734D01*
X91647000Y-119160000D01*
X91647000Y-118938000D01*
X91603690Y-118720266D01*
X91518734Y-118515165D01*
X91395398Y-118330579D01*
X91238421Y-118173602D01*
X91053835Y-118050266D01*
X90848734Y-117965310D01*
X90631000Y-117922000D01*
X90409000Y-117922000D01*
X90191266Y-117965310D01*
X89986165Y-118050266D01*
X89801579Y-118173602D01*
X89644602Y-118330579D01*
X89521266Y-118515165D01*
X89436310Y-118720266D01*
X89393000Y-118938000D01*
X89393000Y-119160000D01*
X89436310Y-119377734D01*
X89521266Y-119582835D01*
X89644602Y-119767421D01*
X89668000Y-119790819D01*
X89668001Y-123062377D01*
X89450975Y-123207389D01*
X89250000Y-123408364D01*
X89049025Y-123207389D01*
X88832000Y-123062378D01*
X88832000Y-119028819D01*
X88855398Y-119005421D01*
X88978734Y-118820835D01*
X89063690Y-118615734D01*
X89107000Y-118398000D01*
X89107000Y-118176000D01*
X89063690Y-117958266D01*
X88978734Y-117753165D01*
X88855398Y-117568579D01*
X88698421Y-117411602D01*
X88513835Y-117288266D01*
X88308734Y-117203310D01*
X88091000Y-117160000D01*
X87869000Y-117160000D01*
X87651266Y-117203310D01*
X87446165Y-117288266D01*
X87261579Y-117411602D01*
X87104602Y-117568579D01*
X86981266Y-117753165D01*
X86896310Y-117958266D01*
X86853000Y-118176000D01*
X86853000Y-118398000D01*
X86896310Y-118615734D01*
X86981266Y-118820835D01*
X87104602Y-119005421D01*
X87128000Y-119028819D01*
X87128001Y-123062377D01*
X86910975Y-123207389D01*
X86710000Y-123408364D01*
X86509025Y-123207389D01*
X86292000Y-123062378D01*
X86292000Y-121314819D01*
X86315398Y-121291421D01*
X86438734Y-121106835D01*
X86523690Y-120901734D01*
X86567000Y-120684000D01*
X86567000Y-120462000D01*
X86523690Y-120244266D01*
X86438734Y-120039165D01*
X86315398Y-119854579D01*
X86158421Y-119697602D01*
X85973835Y-119574266D01*
X85768734Y-119489310D01*
X85551000Y-119446000D01*
X85329000Y-119446000D01*
X85111266Y-119489310D01*
X84906165Y-119574266D01*
X84721579Y-119697602D01*
X84564602Y-119854579D01*
X84441266Y-120039165D01*
X84356310Y-120244266D01*
X84313000Y-120462000D01*
X84313000Y-120684000D01*
X84356310Y-120901734D01*
X84441266Y-121106835D01*
X84564602Y-121291421D01*
X84588000Y-121314819D01*
X84588001Y-123062377D01*
X84370975Y-123207389D01*
X84137389Y-123440975D01*
X83953862Y-123715643D01*
X83827446Y-124020837D01*
X83763000Y-124344830D01*
X58302000Y-124344830D01*
X58302000Y-120065000D01*
X63535370Y-120065000D01*
X63565818Y-120374146D01*
X63655993Y-120671412D01*
X63802428Y-120945373D01*
X63999497Y-121185503D01*
X64181660Y-121335000D01*
X63999497Y-121484497D01*
X63802428Y-121724627D01*
X63655993Y-121998588D01*
X63565818Y-122295854D01*
X63535370Y-122605000D01*
X63565818Y-122914146D01*
X63655993Y-123211412D01*
X63802428Y-123485373D01*
X63999497Y-123725503D01*
X64239627Y-123922572D01*
X64513588Y-124069007D01*
X64810854Y-124159182D01*
X65042531Y-124182000D01*
X65197469Y-124182000D01*
X65429146Y-124159182D01*
X65726412Y-124069007D01*
X66000373Y-123922572D01*
X66240503Y-123725503D01*
X66437572Y-123485373D01*
X66584007Y-123211412D01*
X66674182Y-122914146D01*
X66704630Y-122605000D01*
X66674182Y-122295854D01*
X66584007Y-121998588D01*
X66437572Y-121724627D01*
X66240503Y-121484497D01*
X66058340Y-121335000D01*
X66240503Y-121185503D01*
X66437572Y-120945373D01*
X66584007Y-120671412D01*
X66674182Y-120374146D01*
X66704630Y-120065000D01*
X66674182Y-119755854D01*
X66584007Y-119458588D01*
X66437572Y-119184627D01*
X66240503Y-118944497D01*
X66000373Y-118747428D01*
X65976779Y-118734817D01*
X66001355Y-118720178D01*
X66217588Y-118525269D01*
X66391641Y-118291920D01*
X66516825Y-118029099D01*
X66561476Y-117881890D01*
X66440155Y-117652000D01*
X65247000Y-117652000D01*
X65247000Y-117672000D01*
X64993000Y-117672000D01*
X64993000Y-117652000D01*
X63799845Y-117652000D01*
X63678524Y-117881890D01*
X63723175Y-118029099D01*
X63848359Y-118291920D01*
X64022412Y-118525269D01*
X64238645Y-118720178D01*
X64263221Y-118734817D01*
X64239627Y-118747428D01*
X63999497Y-118944497D01*
X63802428Y-119184627D01*
X63655993Y-119458588D01*
X63565818Y-119755854D01*
X63535370Y-120065000D01*
X58302000Y-120065000D01*
X58302000Y-114985000D01*
X63535370Y-114985000D01*
X63565818Y-115294146D01*
X63655993Y-115591412D01*
X63802428Y-115865373D01*
X63999497Y-116105503D01*
X64239627Y-116302572D01*
X64263221Y-116315183D01*
X64238645Y-116329822D01*
X64022412Y-116524731D01*
X63848359Y-116758080D01*
X63723175Y-117020901D01*
X63678524Y-117168110D01*
X63799845Y-117398000D01*
X64993000Y-117398000D01*
X64993000Y-117378000D01*
X65247000Y-117378000D01*
X65247000Y-117398000D01*
X66440155Y-117398000D01*
X66561476Y-117168110D01*
X66516825Y-117020901D01*
X66391641Y-116758080D01*
X66217588Y-116524731D01*
X66001355Y-116329822D01*
X65976779Y-116315183D01*
X66000373Y-116302572D01*
X66240503Y-116105503D01*
X66437572Y-115865373D01*
X66584007Y-115591412D01*
X66674182Y-115294146D01*
X66704630Y-114985000D01*
X66674182Y-114675854D01*
X66584007Y-114378588D01*
X66437572Y-114104627D01*
X66303396Y-113941132D01*
X66375853Y-113902403D01*
X66486554Y-113811554D01*
X66577403Y-113700853D01*
X66644910Y-113574557D01*
X66686480Y-113437517D01*
X66700517Y-113295000D01*
X66700517Y-111595000D01*
X66686480Y-111452483D01*
X66644910Y-111315443D01*
X66577403Y-111189147D01*
X66486554Y-111078446D01*
X66375853Y-110987597D01*
X66249557Y-110920090D01*
X66112517Y-110878520D01*
X65970000Y-110864483D01*
X64270000Y-110864483D01*
X64127483Y-110878520D01*
X63990443Y-110920090D01*
X63864147Y-110987597D01*
X63753446Y-111078446D01*
X63662597Y-111189147D01*
X63595090Y-111315443D01*
X63553520Y-111452483D01*
X63539483Y-111595000D01*
X63539483Y-113295000D01*
X63553520Y-113437517D01*
X63595090Y-113574557D01*
X63662597Y-113700853D01*
X63753446Y-113811554D01*
X63864147Y-113902403D01*
X63936604Y-113941132D01*
X63802428Y-114104627D01*
X63655993Y-114378588D01*
X63565818Y-114675854D01*
X63535370Y-114985000D01*
X58302000Y-114985000D01*
X58302000Y-106222000D01*
X71037466Y-106222000D01*
X71062242Y-106219560D01*
X71086067Y-106212333D01*
X71108023Y-106200597D01*
X71127269Y-106184803D01*
X71143063Y-106165557D01*
X71154799Y-106143601D01*
X71162026Y-106119776D01*
X71164466Y-106095000D01*
X71164466Y-104968000D01*
X76820000Y-104968000D01*
X76820000Y-105190000D01*
X76863310Y-105407734D01*
X76948266Y-105612835D01*
X77071602Y-105797421D01*
X77095000Y-105820819D01*
X77095001Y-119323180D01*
X77071602Y-119346579D01*
X76948266Y-119531165D01*
X76863310Y-119736266D01*
X76820000Y-119954000D01*
X76820000Y-120176000D01*
X76863310Y-120393734D01*
X76948266Y-120598835D01*
X77071602Y-120783421D01*
X77228579Y-120940398D01*
X77413165Y-121063734D01*
X77618266Y-121148690D01*
X77836000Y-121192000D01*
X77857001Y-121192000D01*
X77857001Y-121863180D01*
X77833602Y-121886579D01*
X77710266Y-122071165D01*
X77625310Y-122276266D01*
X77582000Y-122494000D01*
X77582000Y-122716000D01*
X77625310Y-122933734D01*
X77710266Y-123138835D01*
X77833602Y-123323421D01*
X77990579Y-123480398D01*
X78175165Y-123603734D01*
X78380266Y-123688690D01*
X78598000Y-123732000D01*
X78820000Y-123732000D01*
X79037734Y-123688690D01*
X79242835Y-123603734D01*
X79427421Y-123480398D01*
X79584398Y-123323421D01*
X79707734Y-123138835D01*
X79792690Y-122933734D01*
X79836000Y-122716000D01*
X79836000Y-122494000D01*
X79792690Y-122276266D01*
X79707734Y-122071165D01*
X79584398Y-121886579D01*
X79561000Y-121863181D01*
X79561000Y-121700000D01*
X79709000Y-121700000D01*
X79926734Y-121656690D01*
X80131835Y-121571734D01*
X80316421Y-121448398D01*
X80473398Y-121291421D01*
X80596734Y-121106835D01*
X80681690Y-120901734D01*
X80682859Y-120895859D01*
X80688734Y-120894690D01*
X80893835Y-120809734D01*
X81078421Y-120686398D01*
X81235398Y-120529421D01*
X81358734Y-120344835D01*
X81443690Y-120139734D01*
X81444859Y-120133859D01*
X81450734Y-120132690D01*
X81655835Y-120047734D01*
X81840421Y-119924398D01*
X81997398Y-119767421D01*
X82120734Y-119582835D01*
X82205690Y-119377734D01*
X82206859Y-119371859D01*
X82212734Y-119370690D01*
X82417835Y-119285734D01*
X82602421Y-119162398D01*
X82759398Y-119005421D01*
X82882734Y-118820835D01*
X82967690Y-118615734D01*
X82968859Y-118609859D01*
X82974734Y-118608690D01*
X83179835Y-118523734D01*
X83364421Y-118400398D01*
X83521398Y-118243421D01*
X83644734Y-118058835D01*
X83729690Y-117853734D01*
X83773000Y-117636000D01*
X83773000Y-117414000D01*
X83729690Y-117196266D01*
X83644734Y-116991165D01*
X83521398Y-116806579D01*
X83498000Y-116783181D01*
X83498000Y-114071274D01*
X83509165Y-114078734D01*
X83714266Y-114163690D01*
X83932000Y-114207000D01*
X84154000Y-114207000D01*
X84371734Y-114163690D01*
X84576835Y-114078734D01*
X84761421Y-113955398D01*
X84918398Y-113798421D01*
X85041734Y-113613835D01*
X85126690Y-113408734D01*
X85170000Y-113191000D01*
X85170000Y-112969000D01*
X85126690Y-112751266D01*
X85041734Y-112546165D01*
X84995000Y-112476222D01*
X84995000Y-107000000D01*
X97013000Y-107000000D01*
X97013000Y-107222000D01*
X97056310Y-107439734D01*
X97141266Y-107644835D01*
X97264602Y-107829421D01*
X97288000Y-107852819D01*
X97288001Y-110052180D01*
X97264602Y-110075579D01*
X97141266Y-110260165D01*
X97056310Y-110465266D01*
X97013000Y-110683000D01*
X97013000Y-110905000D01*
X97056310Y-111122734D01*
X97141266Y-111327835D01*
X97264602Y-111512421D01*
X97421579Y-111669398D01*
X97606165Y-111792734D01*
X97811266Y-111877690D01*
X98029000Y-111921000D01*
X98251000Y-111921000D01*
X98468734Y-111877690D01*
X98673835Y-111792734D01*
X98858421Y-111669398D01*
X99015398Y-111512421D01*
X99138734Y-111327835D01*
X99223690Y-111122734D01*
X99267000Y-110905000D01*
X99267000Y-110683000D01*
X99223690Y-110465266D01*
X99138734Y-110260165D01*
X99015398Y-110075579D01*
X98992000Y-110052181D01*
X98992000Y-109127000D01*
X99140000Y-109127000D01*
X99357734Y-109083690D01*
X99562835Y-108998734D01*
X99747421Y-108875398D01*
X99904398Y-108718421D01*
X100027734Y-108533835D01*
X100112690Y-108328734D01*
X100156000Y-108111000D01*
X100156000Y-107889000D01*
X100112690Y-107671266D01*
X100027734Y-107466165D01*
X99904398Y-107281579D01*
X99881000Y-107258181D01*
X99881000Y-104011196D01*
X100061000Y-104047000D01*
X100283000Y-104047000D01*
X100500734Y-104003690D01*
X100705835Y-103918734D01*
X100890421Y-103795398D01*
X101047398Y-103638421D01*
X101170734Y-103453835D01*
X101255690Y-103248734D01*
X101299000Y-103031000D01*
X101299000Y-102809000D01*
X101258422Y-102605000D01*
X109886928Y-102605000D01*
X109890000Y-103269250D01*
X110048750Y-103428000D01*
X111348000Y-103428000D01*
X111348000Y-102128750D01*
X111602000Y-102128750D01*
X111602000Y-103428000D01*
X111622000Y-103428000D01*
X111622000Y-103682000D01*
X111602000Y-103682000D01*
X111602000Y-104981250D01*
X111760750Y-105140000D01*
X112425000Y-105143072D01*
X112549482Y-105130812D01*
X112669180Y-105094502D01*
X112779494Y-105035537D01*
X112876185Y-104956185D01*
X112953149Y-104862404D01*
X113220643Y-105041138D01*
X113525837Y-105167554D01*
X113849830Y-105232000D01*
X114180170Y-105232000D01*
X114504163Y-105167554D01*
X114809357Y-105041138D01*
X115084025Y-104857611D01*
X115317611Y-104624025D01*
X115501138Y-104349357D01*
X115627554Y-104044163D01*
X115692000Y-103720170D01*
X115692000Y-103389830D01*
X115627554Y-103065837D01*
X115501138Y-102760643D01*
X115317611Y-102485975D01*
X115084025Y-102252389D01*
X114809357Y-102068862D01*
X114504163Y-101942446D01*
X114180170Y-101878000D01*
X113849830Y-101878000D01*
X113525837Y-101942446D01*
X113220643Y-102068862D01*
X112953149Y-102247596D01*
X112876185Y-102153815D01*
X112779494Y-102074463D01*
X112669180Y-102015498D01*
X112549482Y-101979188D01*
X112425000Y-101966928D01*
X111760750Y-101970000D01*
X111602000Y-102128750D01*
X111348000Y-102128750D01*
X111189250Y-101970000D01*
X110525000Y-101966928D01*
X110400518Y-101979188D01*
X110280820Y-102015498D01*
X110170506Y-102074463D01*
X110073815Y-102153815D01*
X109994463Y-102250506D01*
X109935498Y-102360820D01*
X109899188Y-102480518D01*
X109886928Y-102605000D01*
X101258422Y-102605000D01*
X101255690Y-102591266D01*
X101170734Y-102386165D01*
X101047398Y-102201579D01*
X101024000Y-102178181D01*
X101024000Y-99439196D01*
X101204000Y-99475000D01*
X101426000Y-99475000D01*
X101643734Y-99431690D01*
X101848835Y-99346734D01*
X102033421Y-99223398D01*
X102056819Y-99200000D01*
X105399181Y-99200000D01*
X105422579Y-99223398D01*
X105607165Y-99346734D01*
X105812266Y-99431690D01*
X106030000Y-99475000D01*
X106252000Y-99475000D01*
X106469734Y-99431690D01*
X106674835Y-99346734D01*
X106859421Y-99223398D01*
X107016398Y-99066421D01*
X107139734Y-98881835D01*
X107224690Y-98676734D01*
X107268000Y-98459000D01*
X107268000Y-98237000D01*
X107251690Y-98155000D01*
X109886928Y-98155000D01*
X109899188Y-98279482D01*
X109935498Y-98399180D01*
X109994463Y-98509494D01*
X110073815Y-98606185D01*
X110170506Y-98685537D01*
X110280820Y-98744502D01*
X110400518Y-98780812D01*
X110525000Y-98793072D01*
X111189250Y-98790000D01*
X111348000Y-98631250D01*
X111348000Y-97332000D01*
X110048750Y-97332000D01*
X109890000Y-97490750D01*
X109886928Y-98155000D01*
X107251690Y-98155000D01*
X107224690Y-98019266D01*
X107139734Y-97814165D01*
X107016398Y-97629579D01*
X106859421Y-97472602D01*
X106674835Y-97349266D01*
X106469734Y-97264310D01*
X106252000Y-97221000D01*
X106030000Y-97221000D01*
X105812266Y-97264310D01*
X105607165Y-97349266D01*
X105422579Y-97472602D01*
X105399181Y-97496000D01*
X102056819Y-97496000D01*
X102033421Y-97472602D01*
X101848835Y-97349266D01*
X101643734Y-97264310D01*
X101426000Y-97221000D01*
X101204000Y-97221000D01*
X101024000Y-97256804D01*
X101024000Y-96255000D01*
X109886928Y-96255000D01*
X109890000Y-96919250D01*
X110048750Y-97078000D01*
X111348000Y-97078000D01*
X111348000Y-95778750D01*
X111602000Y-95778750D01*
X111602000Y-97078000D01*
X111622000Y-97078000D01*
X111622000Y-97332000D01*
X111602000Y-97332000D01*
X111602000Y-98631250D01*
X111760750Y-98790000D01*
X112425000Y-98793072D01*
X112549482Y-98780812D01*
X112669180Y-98744502D01*
X112779494Y-98685537D01*
X112876185Y-98606185D01*
X112953149Y-98512404D01*
X113220643Y-98691138D01*
X113525837Y-98817554D01*
X113849830Y-98882000D01*
X114180170Y-98882000D01*
X114504163Y-98817554D01*
X114809357Y-98691138D01*
X115084025Y-98507611D01*
X115317611Y-98274025D01*
X115501138Y-97999357D01*
X115627554Y-97694163D01*
X115692000Y-97370170D01*
X115692000Y-97039830D01*
X115627554Y-96715837D01*
X115501138Y-96410643D01*
X115317611Y-96135975D01*
X115084025Y-95902389D01*
X114809357Y-95718862D01*
X114504163Y-95592446D01*
X114180170Y-95528000D01*
X113849830Y-95528000D01*
X113525837Y-95592446D01*
X113220643Y-95718862D01*
X112953149Y-95897596D01*
X112876185Y-95803815D01*
X112779494Y-95724463D01*
X112669180Y-95665498D01*
X112549482Y-95629188D01*
X112425000Y-95616928D01*
X111760750Y-95620000D01*
X111602000Y-95778750D01*
X111348000Y-95778750D01*
X111189250Y-95620000D01*
X110525000Y-95616928D01*
X110400518Y-95629188D01*
X110280820Y-95665498D01*
X110170506Y-95724463D01*
X110073815Y-95803815D01*
X109994463Y-95900506D01*
X109935498Y-96010820D01*
X109899188Y-96130518D01*
X109886928Y-96255000D01*
X101024000Y-96255000D01*
X101024000Y-93366909D01*
X101252854Y-93138055D01*
X101285370Y-93111370D01*
X101379449Y-92996734D01*
X101391839Y-92981637D01*
X101463815Y-92846980D01*
X101470954Y-92833624D01*
X101519672Y-92673021D01*
X101532000Y-92547852D01*
X101532000Y-92547850D01*
X101536122Y-92506001D01*
X101532000Y-92464152D01*
X101532000Y-90397622D01*
X101749025Y-90252611D01*
X101982611Y-90019025D01*
X102166138Y-89744357D01*
X102292554Y-89439163D01*
X102357000Y-89115170D01*
X102357000Y-88789755D01*
X118103000Y-88789755D01*
X118103000Y-89110245D01*
X118165525Y-89424578D01*
X118288172Y-89720673D01*
X118466227Y-89987152D01*
X118653001Y-90173926D01*
X118653000Y-96608303D01*
X118642647Y-96623798D01*
X118550153Y-96847097D01*
X118503000Y-97084151D01*
X118503000Y-97325849D01*
X118550153Y-97562903D01*
X118642647Y-97786202D01*
X118653001Y-97801698D01*
X118653000Y-102958303D01*
X118642647Y-102973798D01*
X118550153Y-103197097D01*
X118503000Y-103434151D01*
X118503000Y-103675849D01*
X118550153Y-103912903D01*
X118642647Y-104136202D01*
X118653001Y-104151698D01*
X118653000Y-108046075D01*
X118466227Y-108232848D01*
X118288172Y-108499327D01*
X118165525Y-108795422D01*
X118103000Y-109109755D01*
X118103000Y-109430245D01*
X118165525Y-109744578D01*
X118288172Y-110040673D01*
X118466227Y-110307152D01*
X118692848Y-110533773D01*
X118959327Y-110711828D01*
X119255422Y-110834475D01*
X119569755Y-110897000D01*
X119890245Y-110897000D01*
X120204578Y-110834475D01*
X120500673Y-110711828D01*
X120767152Y-110533773D01*
X120993773Y-110307152D01*
X121171828Y-110040673D01*
X121294475Y-109744578D01*
X121357000Y-109430245D01*
X121357000Y-109109755D01*
X121294475Y-108795422D01*
X121171828Y-108499327D01*
X120993773Y-108232848D01*
X120807000Y-108046075D01*
X120807000Y-104151696D01*
X120817353Y-104136202D01*
X120909847Y-103912903D01*
X120957000Y-103675849D01*
X120957000Y-103434151D01*
X120909847Y-103197097D01*
X120817353Y-102973798D01*
X120807000Y-102958304D01*
X120807000Y-97801696D01*
X120817353Y-97786202D01*
X120909847Y-97562903D01*
X120957000Y-97325849D01*
X120957000Y-97084151D01*
X120909847Y-96847097D01*
X120817353Y-96623798D01*
X120807000Y-96608304D01*
X120807000Y-91329755D01*
X125723000Y-91329755D01*
X125723000Y-91650245D01*
X125785525Y-91964578D01*
X125908172Y-92260673D01*
X126086227Y-92527152D01*
X126312848Y-92753773D01*
X126579327Y-92931828D01*
X126875422Y-93054475D01*
X127189755Y-93117000D01*
X127510245Y-93117000D01*
X127824578Y-93054475D01*
X128120673Y-92931828D01*
X128387152Y-92753773D01*
X128573925Y-92567000D01*
X131742093Y-92567000D01*
X131795000Y-92572211D01*
X131847907Y-92567000D01*
X131847909Y-92567000D01*
X132006129Y-92551417D01*
X132209144Y-92489833D01*
X132396244Y-92389826D01*
X132560239Y-92255239D01*
X132593973Y-92214134D01*
X133154134Y-91653973D01*
X133195239Y-91620239D01*
X133302123Y-91490000D01*
X133329826Y-91456245D01*
X133424255Y-91279579D01*
X133429833Y-91269144D01*
X133474286Y-91122602D01*
X133491417Y-91066130D01*
X133512211Y-90855000D01*
X133507000Y-90802091D01*
X133507000Y-90173925D01*
X133693773Y-89987152D01*
X133871828Y-89720673D01*
X133994475Y-89424578D01*
X134057000Y-89110245D01*
X134057000Y-88789755D01*
X133994475Y-88475422D01*
X133871828Y-88179327D01*
X133693773Y-87912848D01*
X133467152Y-87686227D01*
X133200673Y-87508172D01*
X132904578Y-87385525D01*
X132590245Y-87323000D01*
X132269755Y-87323000D01*
X131955422Y-87385525D01*
X131659327Y-87508172D01*
X131392848Y-87686227D01*
X131166227Y-87912848D01*
X130988172Y-88179327D01*
X130865525Y-88475422D01*
X130803000Y-88789755D01*
X130803000Y-89110245D01*
X130865525Y-89424578D01*
X130988172Y-89720673D01*
X131166227Y-89987152D01*
X131353001Y-90173926D01*
X131353001Y-90408892D01*
X131348893Y-90413000D01*
X128573925Y-90413000D01*
X128387152Y-90226227D01*
X128120673Y-90048172D01*
X127824578Y-89925525D01*
X127510245Y-89863000D01*
X127189755Y-89863000D01*
X126875422Y-89925525D01*
X126579327Y-90048172D01*
X126312848Y-90226227D01*
X126086227Y-90452848D01*
X125908172Y-90719327D01*
X125785525Y-91015422D01*
X125723000Y-91329755D01*
X120807000Y-91329755D01*
X120807000Y-90173925D01*
X120993773Y-89987152D01*
X121171828Y-89720673D01*
X121294475Y-89424578D01*
X121357000Y-89110245D01*
X121357000Y-88789755D01*
X121294475Y-88475422D01*
X121171828Y-88179327D01*
X120993773Y-87912848D01*
X120767152Y-87686227D01*
X120500673Y-87508172D01*
X120204578Y-87385525D01*
X119890245Y-87323000D01*
X119569755Y-87323000D01*
X119255422Y-87385525D01*
X118959327Y-87508172D01*
X118692848Y-87686227D01*
X118466227Y-87912848D01*
X118288172Y-88179327D01*
X118165525Y-88475422D01*
X118103000Y-88789755D01*
X102357000Y-88789755D01*
X102357000Y-88784830D01*
X102292554Y-88460837D01*
X102166138Y-88155643D01*
X102038764Y-87965014D01*
X102146554Y-87876554D01*
X102237403Y-87765853D01*
X102304910Y-87639557D01*
X102346480Y-87502517D01*
X102360517Y-87360000D01*
X102360517Y-85460000D01*
X102346480Y-85317483D01*
X102304910Y-85180443D01*
X102237403Y-85054147D01*
X102146554Y-84943446D01*
X102035853Y-84852597D01*
X101909557Y-84785090D01*
X101772517Y-84743520D01*
X101630000Y-84729483D01*
X99730000Y-84729483D01*
X99587483Y-84743520D01*
X99450443Y-84785090D01*
X99324147Y-84852597D01*
X99213446Y-84943446D01*
X99122597Y-85054147D01*
X99055090Y-85180443D01*
X99013520Y-85317483D01*
X98999483Y-85460000D01*
X98999483Y-87360000D01*
X99013520Y-87502517D01*
X99055090Y-87639557D01*
X99122597Y-87765853D01*
X99213446Y-87876554D01*
X99321236Y-87965014D01*
X99193862Y-88155643D01*
X99067446Y-88460837D01*
X99003000Y-88784830D01*
X99003000Y-89115170D01*
X99067446Y-89439163D01*
X99193862Y-89744357D01*
X99377389Y-90019025D01*
X99610975Y-90252611D01*
X99828000Y-90397623D01*
X99828001Y-91203182D01*
X99747421Y-91122602D01*
X99562835Y-90999266D01*
X99357734Y-90914310D01*
X99140000Y-90871000D01*
X98918000Y-90871000D01*
X98700266Y-90914310D01*
X98495165Y-90999266D01*
X98310579Y-91122602D01*
X98153602Y-91279579D01*
X98030266Y-91464165D01*
X97945310Y-91669266D01*
X97902000Y-91887000D01*
X97902000Y-92109000D01*
X97945310Y-92326734D01*
X98030266Y-92531835D01*
X98153602Y-92716421D01*
X98177001Y-92739820D01*
X98177000Y-105984000D01*
X98029000Y-105984000D01*
X97811266Y-106027310D01*
X97606165Y-106112266D01*
X97421579Y-106235602D01*
X97264602Y-106392579D01*
X97141266Y-106577165D01*
X97056310Y-106782266D01*
X97013000Y-107000000D01*
X84995000Y-107000000D01*
X84995000Y-106698778D01*
X85041734Y-106628835D01*
X85126690Y-106423734D01*
X85170000Y-106206000D01*
X85170000Y-105984000D01*
X85126690Y-105766266D01*
X85041734Y-105561165D01*
X84995000Y-105491222D01*
X84995000Y-94805330D01*
X87350092Y-92450239D01*
X87386423Y-92420423D01*
X87505389Y-92275462D01*
X87557282Y-92178377D01*
X87593789Y-92110078D01*
X87648225Y-91930625D01*
X87666606Y-91744000D01*
X87662000Y-91697235D01*
X87662000Y-87013778D01*
X87708734Y-86943835D01*
X87793690Y-86738734D01*
X87837000Y-86521000D01*
X87837000Y-86299000D01*
X87793690Y-86081266D01*
X87708734Y-85876165D01*
X87585398Y-85691579D01*
X87428421Y-85534602D01*
X87316771Y-85460000D01*
X89474483Y-85460000D01*
X89474483Y-87360000D01*
X89488520Y-87502517D01*
X89530090Y-87639557D01*
X89597597Y-87765853D01*
X89688446Y-87876554D01*
X89796236Y-87965014D01*
X89668862Y-88155643D01*
X89542446Y-88460837D01*
X89478000Y-88784830D01*
X89478000Y-89115170D01*
X89542446Y-89439163D01*
X89668862Y-89744357D01*
X89852389Y-90019025D01*
X90085975Y-90252611D01*
X90360643Y-90436138D01*
X90665837Y-90562554D01*
X90989830Y-90627000D01*
X91320170Y-90627000D01*
X91644163Y-90562554D01*
X91949357Y-90436138D01*
X92224025Y-90252611D01*
X92457611Y-90019025D01*
X92641138Y-89744357D01*
X92767554Y-89439163D01*
X92832000Y-89115170D01*
X92832000Y-88784830D01*
X92767554Y-88460837D01*
X92641138Y-88155643D01*
X92513764Y-87965014D01*
X92621554Y-87876554D01*
X92712403Y-87765853D01*
X92779910Y-87639557D01*
X92821480Y-87502517D01*
X92835517Y-87360000D01*
X92835517Y-85460000D01*
X92821480Y-85317483D01*
X92779910Y-85180443D01*
X92712403Y-85054147D01*
X92621554Y-84943446D01*
X92510853Y-84852597D01*
X92384557Y-84785090D01*
X92247517Y-84743520D01*
X92105000Y-84729483D01*
X90205000Y-84729483D01*
X90062483Y-84743520D01*
X89925443Y-84785090D01*
X89799147Y-84852597D01*
X89688446Y-84943446D01*
X89597597Y-85054147D01*
X89530090Y-85180443D01*
X89488520Y-85317483D01*
X89474483Y-85460000D01*
X87316771Y-85460000D01*
X87243835Y-85411266D01*
X87038734Y-85326310D01*
X86821000Y-85283000D01*
X86599000Y-85283000D01*
X86381266Y-85326310D01*
X86176165Y-85411266D01*
X85991579Y-85534602D01*
X85834602Y-85691579D01*
X85711266Y-85876165D01*
X85626310Y-86081266D01*
X85583000Y-86299000D01*
X85583000Y-86521000D01*
X85626310Y-86738734D01*
X85711266Y-86943835D01*
X85758001Y-87013779D01*
X85758000Y-91349669D01*
X83402913Y-93704757D01*
X83366577Y-93734577D01*
X83247611Y-93879538D01*
X83159211Y-94044924D01*
X83104775Y-94224375D01*
X83104775Y-94224376D01*
X83086394Y-94411000D01*
X83091000Y-94457765D01*
X83091001Y-105491221D01*
X83044266Y-105561165D01*
X82959310Y-105766266D01*
X82916000Y-105984000D01*
X82916000Y-106206000D01*
X82959310Y-106423734D01*
X83044266Y-106628835D01*
X83091000Y-106698778D01*
X83091000Y-108361469D01*
X82974734Y-108313310D01*
X82968859Y-108312141D01*
X82967690Y-108306266D01*
X82882734Y-108101165D01*
X82759398Y-107916579D01*
X82602421Y-107759602D01*
X82417835Y-107636266D01*
X82212734Y-107551310D01*
X82206859Y-107550141D01*
X82205690Y-107544266D01*
X82120734Y-107339165D01*
X81997398Y-107154579D01*
X81840421Y-106997602D01*
X81655835Y-106874266D01*
X81450734Y-106789310D01*
X81444859Y-106788141D01*
X81443690Y-106782266D01*
X81358734Y-106577165D01*
X81235398Y-106392579D01*
X81078421Y-106235602D01*
X80893835Y-106112266D01*
X80688734Y-106027310D01*
X80471000Y-105984000D01*
X80450000Y-105984000D01*
X80450000Y-104169819D01*
X80473398Y-104146421D01*
X80596734Y-103961835D01*
X80681690Y-103756734D01*
X80725000Y-103539000D01*
X80725000Y-103317000D01*
X80681690Y-103099266D01*
X80596734Y-102894165D01*
X80473398Y-102709579D01*
X80316421Y-102552602D01*
X80131835Y-102429266D01*
X79926734Y-102344310D01*
X79709000Y-102301000D01*
X79487000Y-102301000D01*
X79269266Y-102344310D01*
X79064165Y-102429266D01*
X78879579Y-102552602D01*
X78722602Y-102709579D01*
X78599266Y-102894165D01*
X78514310Y-103099266D01*
X78492071Y-103211071D01*
X78380266Y-103233310D01*
X78175165Y-103318266D01*
X77990579Y-103441602D01*
X77833602Y-103598579D01*
X77710266Y-103783165D01*
X77625310Y-103988266D01*
X77624141Y-103994141D01*
X77618266Y-103995310D01*
X77413165Y-104080266D01*
X77228579Y-104203602D01*
X77071602Y-104360579D01*
X76948266Y-104545165D01*
X76863310Y-104750266D01*
X76820000Y-104968000D01*
X71164466Y-104968000D01*
X71164466Y-94030000D01*
X71162026Y-94005224D01*
X71154799Y-93981399D01*
X71143063Y-93959443D01*
X71127269Y-93940197D01*
X71108023Y-93924403D01*
X71086067Y-93912667D01*
X71062242Y-93905440D01*
X71037466Y-93903000D01*
X58302000Y-93903000D01*
X58302000Y-89685500D01*
X64551810Y-89685500D01*
X64551810Y-92889500D01*
X74208191Y-92889500D01*
X74208191Y-89685500D01*
X64551810Y-89685500D01*
X58302000Y-89685500D01*
X58302000Y-85460000D01*
X80584483Y-85460000D01*
X80584483Y-87360000D01*
X80598520Y-87502517D01*
X80640090Y-87639557D01*
X80707597Y-87765853D01*
X80798446Y-87876554D01*
X80906236Y-87965014D01*
X80778862Y-88155643D01*
X80652446Y-88460837D01*
X80588000Y-88784830D01*
X80588000Y-89115170D01*
X80652446Y-89439163D01*
X80778862Y-89744357D01*
X80962389Y-90019025D01*
X81195975Y-90252611D01*
X81470643Y-90436138D01*
X81775837Y-90562554D01*
X82099830Y-90627000D01*
X82430170Y-90627000D01*
X82754163Y-90562554D01*
X83059357Y-90436138D01*
X83334025Y-90252611D01*
X83567611Y-90019025D01*
X83751138Y-89744357D01*
X83877554Y-89439163D01*
X83942000Y-89115170D01*
X83942000Y-88784830D01*
X83877554Y-88460837D01*
X83751138Y-88155643D01*
X83623764Y-87965014D01*
X83731554Y-87876554D01*
X83822403Y-87765853D01*
X83889910Y-87639557D01*
X83931480Y-87502517D01*
X83945517Y-87360000D01*
X83945517Y-85460000D01*
X83931480Y-85317483D01*
X83889910Y-85180443D01*
X83822403Y-85054147D01*
X83731554Y-84943446D01*
X83620853Y-84852597D01*
X83494557Y-84785090D01*
X83357517Y-84743520D01*
X83215000Y-84729483D01*
X81315000Y-84729483D01*
X81172483Y-84743520D01*
X81035443Y-84785090D01*
X80909147Y-84852597D01*
X80798446Y-84943446D01*
X80707597Y-85054147D01*
X80640090Y-85180443D01*
X80598520Y-85317483D01*
X80584483Y-85460000D01*
X58302000Y-85460000D01*
X58302000Y-83378000D01*
X95108000Y-83378000D01*
X95108000Y-83600000D01*
X95151310Y-83817734D01*
X95236266Y-84022835D01*
X95359602Y-84207421D01*
X95516579Y-84364398D01*
X95701165Y-84487734D01*
X95906266Y-84572690D01*
X96124000Y-84616000D01*
X96346000Y-84616000D01*
X96563734Y-84572690D01*
X96768835Y-84487734D01*
X96838778Y-84441000D01*
X111969670Y-84441000D01*
X112682000Y-85153331D01*
X112682001Y-85806221D01*
X112635266Y-85876165D01*
X112550310Y-86081266D01*
X112507000Y-86299000D01*
X112507000Y-86521000D01*
X112550310Y-86738734D01*
X112635266Y-86943835D01*
X112758602Y-87128421D01*
X112915579Y-87285398D01*
X113100165Y-87408734D01*
X113305266Y-87493690D01*
X113523000Y-87537000D01*
X113745000Y-87537000D01*
X113962734Y-87493690D01*
X114167835Y-87408734D01*
X114352421Y-87285398D01*
X114509398Y-87128421D01*
X114632734Y-86943835D01*
X114717690Y-86738734D01*
X114761000Y-86521000D01*
X114761000Y-86299000D01*
X114717690Y-86081266D01*
X114632734Y-85876165D01*
X114586000Y-85806222D01*
X114586000Y-84805764D01*
X114590606Y-84758999D01*
X114572225Y-84572375D01*
X114517789Y-84392923D01*
X114429389Y-84227538D01*
X114310423Y-84082577D01*
X114274092Y-84052761D01*
X113419330Y-83198000D01*
X117845181Y-83198000D01*
X117868579Y-83221398D01*
X118053165Y-83344734D01*
X118258266Y-83429690D01*
X118476000Y-83473000D01*
X118698000Y-83473000D01*
X118915734Y-83429690D01*
X119120835Y-83344734D01*
X119305421Y-83221398D01*
X119462398Y-83064421D01*
X119585734Y-82879835D01*
X119670690Y-82674734D01*
X119714000Y-82457000D01*
X119714000Y-82235000D01*
X119670690Y-82017266D01*
X119585734Y-81812165D01*
X119462398Y-81627579D01*
X119305421Y-81470602D01*
X119120835Y-81347266D01*
X119117779Y-81346000D01*
X126858000Y-81346000D01*
X126858000Y-81568000D01*
X126901310Y-81785734D01*
X126986266Y-81990835D01*
X127033000Y-82060778D01*
X127033001Y-85806221D01*
X126986266Y-85876165D01*
X126901310Y-86081266D01*
X126858000Y-86299000D01*
X126858000Y-86521000D01*
X126901310Y-86738734D01*
X126986266Y-86943835D01*
X127109602Y-87128421D01*
X127266579Y-87285398D01*
X127451165Y-87408734D01*
X127656266Y-87493690D01*
X127874000Y-87537000D01*
X128096000Y-87537000D01*
X128313734Y-87493690D01*
X128518835Y-87408734D01*
X128703421Y-87285398D01*
X128860398Y-87128421D01*
X128983734Y-86943835D01*
X129068690Y-86738734D01*
X129112000Y-86521000D01*
X129112000Y-86299000D01*
X129068690Y-86081266D01*
X128983734Y-85876165D01*
X128937000Y-85806222D01*
X128937000Y-82060778D01*
X128983734Y-81990835D01*
X129068690Y-81785734D01*
X129112000Y-81568000D01*
X129112000Y-81346000D01*
X129068690Y-81128266D01*
X128983734Y-80923165D01*
X128860398Y-80738579D01*
X128703421Y-80581602D01*
X128518835Y-80458266D01*
X128313734Y-80373310D01*
X128096000Y-80330000D01*
X127874000Y-80330000D01*
X127656266Y-80373310D01*
X127451165Y-80458266D01*
X127266579Y-80581602D01*
X127109602Y-80738579D01*
X126986266Y-80923165D01*
X126901310Y-81128266D01*
X126858000Y-81346000D01*
X119117779Y-81346000D01*
X118915734Y-81262310D01*
X118698000Y-81219000D01*
X118476000Y-81219000D01*
X118258266Y-81262310D01*
X118053165Y-81347266D01*
X117868579Y-81470602D01*
X117845181Y-81494000D01*
X101421819Y-81494000D01*
X101398421Y-81470602D01*
X101213835Y-81347266D01*
X101008734Y-81262310D01*
X100791000Y-81219000D01*
X100569000Y-81219000D01*
X100351266Y-81262310D01*
X100146165Y-81347266D01*
X99961579Y-81470602D01*
X99804602Y-81627579D01*
X99681266Y-81812165D01*
X99596310Y-82017266D01*
X99553000Y-82235000D01*
X99553000Y-82457000D01*
X99568913Y-82537000D01*
X96838778Y-82537000D01*
X96768835Y-82490266D01*
X96563734Y-82405310D01*
X96346000Y-82362000D01*
X96124000Y-82362000D01*
X95906266Y-82405310D01*
X95701165Y-82490266D01*
X95516579Y-82613602D01*
X95359602Y-82770579D01*
X95236266Y-82955165D01*
X95151310Y-83160266D01*
X95108000Y-83378000D01*
X58302000Y-83378000D01*
X58302000Y-77127000D01*
X112412247Y-77127000D01*
X112438017Y-77148149D01*
X112651176Y-77262084D01*
X112882466Y-77332245D01*
X113062732Y-77350000D01*
X113062739Y-77350000D01*
X113122999Y-77355935D01*
X113183259Y-77350000D01*
X119796737Y-77350000D01*
X119857000Y-77355935D01*
X119917263Y-77350000D01*
X123225740Y-77350000D01*
X123286000Y-77355935D01*
X123346260Y-77350000D01*
X123346268Y-77350000D01*
X123526534Y-77332245D01*
X123757824Y-77262084D01*
X123970983Y-77148149D01*
X124157817Y-76994817D01*
X124196239Y-76948000D01*
X125265005Y-75879235D01*
X125311817Y-75840817D01*
X125465149Y-75653983D01*
X125579084Y-75440824D01*
X125649245Y-75209534D01*
X125667000Y-75029268D01*
X125667000Y-75029261D01*
X125672935Y-74969001D01*
X125667000Y-74908741D01*
X125667000Y-73057400D01*
X125874929Y-72918466D01*
X126188466Y-72604929D01*
X126434811Y-72236249D01*
X126604496Y-71826593D01*
X126691000Y-71391704D01*
X126691000Y-70948296D01*
X126647568Y-70729945D01*
X126803407Y-70794496D01*
X127238296Y-70881000D01*
X127681704Y-70881000D01*
X128116593Y-70794496D01*
X128526249Y-70624811D01*
X128894929Y-70378466D01*
X129208466Y-70064929D01*
X129454811Y-69696249D01*
X129624496Y-69286593D01*
X129711000Y-68851704D01*
X129711000Y-68408296D01*
X129624496Y-67973407D01*
X129454811Y-67563751D01*
X129208466Y-67195071D01*
X128894929Y-66881534D01*
X128687000Y-66742600D01*
X128687000Y-62618000D01*
X130143761Y-62618000D01*
X130833001Y-63307241D01*
X130833000Y-66742600D01*
X130625071Y-66881534D01*
X130311534Y-67195071D01*
X130065189Y-67563751D01*
X129895504Y-67973407D01*
X129809000Y-68408296D01*
X129809000Y-68851704D01*
X129895504Y-69286593D01*
X130065189Y-69696249D01*
X130311534Y-70064929D01*
X130625071Y-70378466D01*
X130993751Y-70624811D01*
X131403407Y-70794496D01*
X131838296Y-70881000D01*
X132281704Y-70881000D01*
X132716593Y-70794496D01*
X133126249Y-70624811D01*
X133494929Y-70378466D01*
X133808466Y-70064929D01*
X134054811Y-69696249D01*
X134224496Y-69286593D01*
X134311000Y-68851704D01*
X134311000Y-68408296D01*
X134224496Y-67973407D01*
X134054811Y-67563751D01*
X133808466Y-67195071D01*
X133494929Y-66881534D01*
X133287000Y-66742600D01*
X133287000Y-62859263D01*
X133292935Y-62799000D01*
X133286528Y-62733935D01*
X133275781Y-62624823D01*
X133269246Y-62558466D01*
X133199084Y-62327176D01*
X133170563Y-62273817D01*
X133085149Y-62114017D01*
X132931817Y-61927183D01*
X132885005Y-61888765D01*
X131562239Y-60566000D01*
X131523817Y-60519183D01*
X131336983Y-60365851D01*
X131123824Y-60251916D01*
X130892534Y-60181755D01*
X130712268Y-60164000D01*
X130712260Y-60164000D01*
X130652000Y-60158065D01*
X130591740Y-60164000D01*
X127410260Y-60164000D01*
X127350000Y-60158065D01*
X127289740Y-60164000D01*
X124489260Y-60164000D01*
X124429000Y-60158065D01*
X124368740Y-60164000D01*
X119917263Y-60164000D01*
X119857000Y-60158065D01*
X119796737Y-60164000D01*
X115127000Y-60164000D01*
X115127000Y-58277000D01*
X123360093Y-58277000D01*
X123413000Y-58282211D01*
X123465907Y-58277000D01*
X123465909Y-58277000D01*
X123624129Y-58261417D01*
X123827144Y-58199833D01*
X124014244Y-58099826D01*
X124178239Y-57965239D01*
X124211973Y-57924134D01*
X124772134Y-57363973D01*
X124813239Y-57330239D01*
X124920124Y-57199999D01*
X124947826Y-57166245D01*
X125041273Y-56991417D01*
X125047833Y-56979144D01*
X125075237Y-56888807D01*
X125126927Y-56966167D01*
X125297833Y-57137073D01*
X125498798Y-57271353D01*
X125722097Y-57363847D01*
X125959151Y-57411000D01*
X126200849Y-57411000D01*
X126437903Y-57363847D01*
X126661202Y-57271353D01*
X126676696Y-57261000D01*
X134155093Y-57261000D01*
X134208000Y-57266211D01*
X134260907Y-57261000D01*
X134260909Y-57261000D01*
X134419129Y-57245417D01*
X134622144Y-57183833D01*
X134809244Y-57083826D01*
X134973239Y-56949239D01*
X135006972Y-56908135D01*
X135948139Y-55966968D01*
X135989239Y-55933239D01*
X136123826Y-55769244D01*
X136223833Y-55582144D01*
X136285417Y-55379129D01*
X136301000Y-55220909D01*
X136301000Y-55220907D01*
X136306211Y-55168000D01*
X136301000Y-55115093D01*
X136301000Y-51283907D01*
X136306211Y-51231000D01*
X136300203Y-51170000D01*
X136285417Y-51019871D01*
X136223833Y-50816856D01*
X136123826Y-50629756D01*
X135989239Y-50465761D01*
X135948139Y-50432032D01*
X135006972Y-49490865D01*
X134973239Y-49449761D01*
X134809244Y-49315174D01*
X134622144Y-49215167D01*
X134419129Y-49153583D01*
X134260909Y-49138000D01*
X134260907Y-49138000D01*
X134208000Y-49132789D01*
X134155093Y-49138000D01*
X134098008Y-49138000D01*
X134096480Y-49122483D01*
X134054910Y-48985443D01*
X133987403Y-48859147D01*
X133896554Y-48748446D01*
X133785853Y-48657597D01*
X133659557Y-48590090D01*
X133522517Y-48548520D01*
X133380000Y-48534483D01*
X131480000Y-48534483D01*
X131337483Y-48548520D01*
X131200443Y-48590090D01*
X131074147Y-48657597D01*
X130963446Y-48748446D01*
X130872597Y-48859147D01*
X130805090Y-48985443D01*
X130763520Y-49122483D01*
X130749483Y-49265000D01*
X130749483Y-51165000D01*
X130763520Y-51307517D01*
X130805090Y-51444557D01*
X130872597Y-51570853D01*
X130963446Y-51681554D01*
X131071236Y-51770014D01*
X130943862Y-51960643D01*
X130817446Y-52265837D01*
X130753000Y-52589830D01*
X130753000Y-52920170D01*
X130817446Y-53244163D01*
X130943862Y-53549357D01*
X131127389Y-53824025D01*
X131360975Y-54057611D01*
X131635643Y-54241138D01*
X131940837Y-54367554D01*
X132264830Y-54432000D01*
X132595170Y-54432000D01*
X132919163Y-54367554D01*
X133224357Y-54241138D01*
X133499025Y-54057611D01*
X133732611Y-53824025D01*
X133916138Y-53549357D01*
X134042554Y-53244163D01*
X134107000Y-52920170D01*
X134107000Y-52589830D01*
X134042554Y-52265837D01*
X133916138Y-51960643D01*
X133788764Y-51770014D01*
X133896554Y-51681554D01*
X133987403Y-51570853D01*
X134005984Y-51536091D01*
X134147001Y-51677109D01*
X134147000Y-54721892D01*
X133761893Y-55107000D01*
X126676696Y-55107000D01*
X126661202Y-55096647D01*
X126437903Y-55004153D01*
X126200849Y-54957000D01*
X125959151Y-54957000D01*
X125722097Y-55004153D01*
X125498798Y-55096647D01*
X125297833Y-55230927D01*
X125126927Y-55401833D01*
X125125000Y-55404717D01*
X125125000Y-53854752D01*
X126429853Y-53854752D01*
X126519579Y-54114042D01*
X126800671Y-54249935D01*
X127102873Y-54328379D01*
X127414573Y-54346359D01*
X127723791Y-54303184D01*
X128018644Y-54200513D01*
X128180421Y-54114042D01*
X128270147Y-53854752D01*
X127350000Y-52934605D01*
X126429853Y-53854752D01*
X125125000Y-53854752D01*
X125125000Y-50557696D01*
X125135353Y-50542202D01*
X125227847Y-50318903D01*
X125275000Y-50081849D01*
X125275000Y-49840151D01*
X125227847Y-49603097D01*
X125135353Y-49379798D01*
X125058648Y-49265000D01*
X125669483Y-49265000D01*
X125669483Y-51165000D01*
X125683520Y-51307517D01*
X125725090Y-51444557D01*
X125792597Y-51570853D01*
X125883446Y-51681554D01*
X125994147Y-51772403D01*
X126120443Y-51839910D01*
X126181826Y-51858530D01*
X125990958Y-51924579D01*
X125855065Y-52205671D01*
X125776621Y-52507873D01*
X125758641Y-52819573D01*
X125801816Y-53128791D01*
X125904487Y-53423644D01*
X125990958Y-53585421D01*
X126250248Y-53675147D01*
X127170395Y-52755000D01*
X127156253Y-52740858D01*
X127335858Y-52561253D01*
X127350000Y-52575395D01*
X127364143Y-52561253D01*
X127543748Y-52740858D01*
X127529605Y-52755000D01*
X128449752Y-53675147D01*
X128709042Y-53585421D01*
X128844935Y-53304329D01*
X128923379Y-53002127D01*
X128941359Y-52690427D01*
X128898184Y-52381209D01*
X128795513Y-52086356D01*
X128709042Y-51924579D01*
X128518174Y-51858530D01*
X128579557Y-51839910D01*
X128705853Y-51772403D01*
X128816554Y-51681554D01*
X128907403Y-51570853D01*
X128974910Y-51444557D01*
X129016480Y-51307517D01*
X129030517Y-51165000D01*
X129030517Y-49265000D01*
X129016480Y-49122483D01*
X128974910Y-48985443D01*
X128907403Y-48859147D01*
X128816554Y-48748446D01*
X128705853Y-48657597D01*
X128579557Y-48590090D01*
X128442517Y-48548520D01*
X128300000Y-48534483D01*
X126400000Y-48534483D01*
X126257483Y-48548520D01*
X126120443Y-48590090D01*
X125994147Y-48657597D01*
X125883446Y-48748446D01*
X125792597Y-48859147D01*
X125725090Y-48985443D01*
X125683520Y-49122483D01*
X125669483Y-49265000D01*
X125058648Y-49265000D01*
X125001073Y-49178833D01*
X124830167Y-49007927D01*
X124629202Y-48873647D01*
X124405903Y-48781153D01*
X124168849Y-48734000D01*
X123927151Y-48734000D01*
X123690097Y-48781153D01*
X123466798Y-48873647D01*
X123265833Y-49007927D01*
X123094927Y-49178833D01*
X122960647Y-49379798D01*
X122868153Y-49603097D01*
X122821000Y-49840151D01*
X122821000Y-50081849D01*
X122868153Y-50318903D01*
X122960647Y-50542202D01*
X122971001Y-50557698D01*
X122971000Y-56118893D01*
X122966893Y-56123000D01*
X115127000Y-56123000D01*
X115127000Y-50764884D01*
X115244979Y-50800672D01*
X115370148Y-50813000D01*
X115370151Y-50813000D01*
X115412000Y-50817122D01*
X115453849Y-50813000D01*
X118480181Y-50813000D01*
X118503579Y-50836398D01*
X118688165Y-50959734D01*
X118893266Y-51044690D01*
X119111000Y-51088000D01*
X119333000Y-51088000D01*
X119550734Y-51044690D01*
X119755835Y-50959734D01*
X119940421Y-50836398D01*
X120097398Y-50679421D01*
X120220734Y-50494835D01*
X120305690Y-50289734D01*
X120349000Y-50072000D01*
X120349000Y-49850000D01*
X120305690Y-49632266D01*
X120220734Y-49427165D01*
X120097398Y-49242579D01*
X119940421Y-49085602D01*
X119755835Y-48962266D01*
X119550734Y-48877310D01*
X119333000Y-48834000D01*
X119111000Y-48834000D01*
X118893266Y-48877310D01*
X118688165Y-48962266D01*
X118503579Y-49085602D01*
X118480181Y-49109000D01*
X115764910Y-49109000D01*
X115155054Y-48499145D01*
X115128370Y-48466630D01*
X115127000Y-48465506D01*
X115127000Y-45302000D01*
X141698001Y-45302000D01*
X141698000Y-93903000D01*
G36*
X113873000Y-48220000D02*
G01*
X112470819Y-48220000D01*
X112447421Y-48196602D01*
X112262835Y-48073266D01*
X112057734Y-47988310D01*
X111840000Y-47945000D01*
X111618000Y-47945000D01*
X111400266Y-47988310D01*
X111195165Y-48073266D01*
X111010579Y-48196602D01*
X110853602Y-48353579D01*
X110730266Y-48538165D01*
X110645310Y-48743266D01*
X110602000Y-48961000D01*
X110602000Y-49183000D01*
X110645310Y-49400734D01*
X110730266Y-49605835D01*
X110853602Y-49790421D01*
X111010579Y-49947398D01*
X111195165Y-50070734D01*
X111400266Y-50155690D01*
X111618000Y-50199000D01*
X111840000Y-50199000D01*
X112057734Y-50155690D01*
X112262835Y-50070734D01*
X112447421Y-49947398D01*
X112470819Y-49924000D01*
X113873000Y-49924000D01*
X113873000Y-56123000D01*
X111817696Y-56123000D01*
X111802202Y-56112647D01*
X111578903Y-56020153D01*
X111341849Y-55973000D01*
X111100151Y-55973000D01*
X110863097Y-56020153D01*
X110639798Y-56112647D01*
X110624304Y-56123000D01*
X110270108Y-56123000D01*
X109631000Y-55483893D01*
X109631000Y-54621696D01*
X109641353Y-54606202D01*
X109733847Y-54382903D01*
X109781000Y-54145849D01*
X109781000Y-53904151D01*
X109733847Y-53667097D01*
X109641353Y-53443798D01*
X109507073Y-53242833D01*
X109336167Y-53071927D01*
X109135202Y-52937647D01*
X108911903Y-52845153D01*
X108674849Y-52798000D01*
X108433151Y-52798000D01*
X108196097Y-52845153D01*
X107972798Y-52937647D01*
X107771833Y-53071927D01*
X107600927Y-53242833D01*
X107466647Y-53443798D01*
X107374153Y-53667097D01*
X107327000Y-53904151D01*
X107327000Y-54145849D01*
X107374153Y-54382903D01*
X107466647Y-54606202D01*
X107477000Y-54621697D01*
X107477001Y-55877084D01*
X107471789Y-55930000D01*
X107480669Y-56020153D01*
X107492584Y-56141129D01*
X107554168Y-56344144D01*
X107654175Y-56531244D01*
X107788762Y-56695239D01*
X107829861Y-56728968D01*
X109025032Y-57924140D01*
X109058761Y-57965239D01*
X109222756Y-58099826D01*
X109409856Y-58199833D01*
X109612871Y-58261417D01*
X109771091Y-58277000D01*
X109771092Y-58277000D01*
X109823999Y-58282211D01*
X109876906Y-58277000D01*
X110624304Y-58277000D01*
X110639798Y-58287353D01*
X110863097Y-58379847D01*
X111100151Y-58427000D01*
X111341849Y-58427000D01*
X111578903Y-58379847D01*
X111802202Y-58287353D01*
X111817696Y-58277000D01*
X113873000Y-58277000D01*
X113873000Y-75873000D01*
X58302000Y-75873000D01*
X58302000Y-68408296D01*
X61969000Y-68408296D01*
X61969000Y-68851704D01*
X62055504Y-69286593D01*
X62225189Y-69696249D01*
X62471534Y-70064929D01*
X62785071Y-70378466D01*
X63153751Y-70624811D01*
X63563407Y-70794496D01*
X63998296Y-70881000D01*
X64441704Y-70881000D01*
X64876593Y-70794496D01*
X65286249Y-70624811D01*
X65654929Y-70378466D01*
X65968466Y-70064929D01*
X66214811Y-69696249D01*
X66384496Y-69286593D01*
X66471000Y-68851704D01*
X66471000Y-68408296D01*
X66384496Y-67973407D01*
X66214811Y-67563751D01*
X65968466Y-67195071D01*
X65654929Y-66881534D01*
X65447000Y-66742600D01*
X65447000Y-63942239D01*
X66009240Y-63380000D01*
X81038001Y-63380000D01*
X81038000Y-64863000D01*
X73727400Y-64863000D01*
X73588466Y-64655071D01*
X73274929Y-64341534D01*
X72906249Y-64095189D01*
X72496593Y-63925504D01*
X72061704Y-63839000D01*
X71618296Y-63839000D01*
X71183407Y-63925504D01*
X70773751Y-64095189D01*
X70405071Y-64341534D01*
X70091534Y-64655071D01*
X69845189Y-65023751D01*
X69675504Y-65433407D01*
X69589000Y-65868296D01*
X69589000Y-66311704D01*
X69675504Y-66746593D01*
X69845189Y-67156249D01*
X70091534Y-67524929D01*
X70405071Y-67838466D01*
X70773751Y-68084811D01*
X71183407Y-68254496D01*
X71618296Y-68341000D01*
X72061704Y-68341000D01*
X72496593Y-68254496D01*
X72906249Y-68084811D01*
X73274929Y-67838466D01*
X73588466Y-67524929D01*
X73727400Y-67317000D01*
X81038000Y-67317000D01*
X81038000Y-67867760D01*
X78962761Y-69943000D01*
X73727400Y-69943000D01*
X73588466Y-69735071D01*
X73274929Y-69421534D01*
X72906249Y-69175189D01*
X72496593Y-69005504D01*
X72061704Y-68919000D01*
X71618296Y-68919000D01*
X71183407Y-69005504D01*
X70773751Y-69175189D01*
X70405071Y-69421534D01*
X70091534Y-69735071D01*
X69845189Y-70103751D01*
X69675504Y-70513407D01*
X69589000Y-70948296D01*
X69589000Y-71391704D01*
X69675504Y-71826593D01*
X69845189Y-72236249D01*
X70091534Y-72604929D01*
X70405071Y-72918466D01*
X70773751Y-73164811D01*
X71183407Y-73334496D01*
X71618296Y-73421000D01*
X72061704Y-73421000D01*
X72496593Y-73334496D01*
X72906249Y-73164811D01*
X73274929Y-72918466D01*
X73588466Y-72604929D01*
X73727400Y-72397000D01*
X79410740Y-72397000D01*
X79471000Y-72402935D01*
X79531260Y-72397000D01*
X79531268Y-72397000D01*
X79711534Y-72379245D01*
X79942824Y-72309084D01*
X80155983Y-72195149D01*
X80342817Y-72041817D01*
X80381239Y-71995000D01*
X83090006Y-69286234D01*
X83136817Y-69247817D01*
X83290149Y-69060983D01*
X83404084Y-68847824D01*
X83404084Y-68847823D01*
X83474246Y-68616534D01*
X83497935Y-68376000D01*
X83492000Y-68315737D01*
X83492000Y-66023261D01*
X83497935Y-65963001D01*
X83492000Y-65902741D01*
X83492000Y-62213267D01*
X83497936Y-62153000D01*
X83492000Y-62092732D01*
X83492000Y-54489752D01*
X87059853Y-54489752D01*
X87149579Y-54749042D01*
X87430671Y-54884935D01*
X87732873Y-54963379D01*
X88044573Y-54981359D01*
X88353791Y-54938184D01*
X88648644Y-54835513D01*
X88810421Y-54749042D01*
X88900147Y-54489752D01*
X87980000Y-53569605D01*
X87059853Y-54489752D01*
X83492000Y-54489752D01*
X83492000Y-53264636D01*
X83567611Y-53189025D01*
X83751138Y-52914357D01*
X83877554Y-52609163D01*
X83942000Y-52285170D01*
X83942000Y-51954830D01*
X83877554Y-51630837D01*
X83751138Y-51325643D01*
X83567611Y-51050975D01*
X83334025Y-50817389D01*
X83059357Y-50633862D01*
X82754163Y-50507446D01*
X82430170Y-50443000D01*
X82099830Y-50443000D01*
X81775837Y-50507446D01*
X81470643Y-50633862D01*
X81280014Y-50761236D01*
X81191554Y-50653446D01*
X81080853Y-50562597D01*
X80954557Y-50495090D01*
X80817517Y-50453520D01*
X80675000Y-50439483D01*
X78775000Y-50439483D01*
X78632483Y-50453520D01*
X78495443Y-50495090D01*
X78369147Y-50562597D01*
X78258446Y-50653446D01*
X78167597Y-50764147D01*
X78100090Y-50890443D01*
X78058520Y-51027483D01*
X78044483Y-51170000D01*
X78044483Y-53070000D01*
X78058520Y-53212517D01*
X78100090Y-53349557D01*
X78167597Y-53475853D01*
X78258446Y-53586554D01*
X78369147Y-53677403D01*
X78495443Y-53744910D01*
X78632483Y-53786480D01*
X78775000Y-53800517D01*
X80675000Y-53800517D01*
X80817517Y-53786480D01*
X80954557Y-53744910D01*
X81038001Y-53700308D01*
X81038000Y-60926000D01*
X65561263Y-60926000D01*
X65501000Y-60920065D01*
X65440737Y-60926000D01*
X65440732Y-60926000D01*
X65380946Y-60931889D01*
X65260466Y-60943754D01*
X65029176Y-61013916D01*
X64816017Y-61127851D01*
X64629183Y-61281183D01*
X64590765Y-61327995D01*
X63394995Y-62523766D01*
X63348184Y-62562183D01*
X63194852Y-62749017D01*
X63147300Y-62837982D01*
X63080917Y-62962176D01*
X63010755Y-63193467D01*
X62987065Y-63434000D01*
X62993001Y-63494270D01*
X62993000Y-66742600D01*
X62785071Y-66881534D01*
X62471534Y-67195071D01*
X62225189Y-67563751D01*
X62055504Y-67973407D01*
X61969000Y-68408296D01*
X58302000Y-68408296D01*
X58302000Y-54489752D01*
X61659853Y-54489752D01*
X61749579Y-54749042D01*
X62030671Y-54884935D01*
X62332873Y-54963379D01*
X62644573Y-54981359D01*
X62953791Y-54938184D01*
X63248644Y-54835513D01*
X63410421Y-54749042D01*
X63500147Y-54489752D01*
X62580000Y-53569605D01*
X61659853Y-54489752D01*
X58302000Y-54489752D01*
X58302000Y-49900000D01*
X60899483Y-49900000D01*
X60899483Y-51800000D01*
X60913520Y-51942517D01*
X60955090Y-52079557D01*
X61022597Y-52205853D01*
X61113446Y-52316554D01*
X61224147Y-52407403D01*
X61350443Y-52474910D01*
X61411826Y-52493530D01*
X61220958Y-52559579D01*
X61085065Y-52840671D01*
X61006621Y-53142873D01*
X60988641Y-53454573D01*
X61031816Y-53763791D01*
X61134487Y-54058644D01*
X61220958Y-54220421D01*
X61480248Y-54310147D01*
X62400395Y-53390000D01*
X62386253Y-53375858D01*
X62565858Y-53196253D01*
X62580000Y-53210395D01*
X62594143Y-53196253D01*
X62773748Y-53375858D01*
X62759605Y-53390000D01*
X63679752Y-54310147D01*
X63939042Y-54220421D01*
X64074935Y-53939329D01*
X64153379Y-53637127D01*
X64171359Y-53325427D01*
X64129412Y-53025000D01*
X74153000Y-53025000D01*
X74153000Y-53247000D01*
X74196310Y-53464734D01*
X74281266Y-53669835D01*
X74404602Y-53854421D01*
X74561579Y-54011398D01*
X74746165Y-54134734D01*
X74951266Y-54219690D01*
X75169000Y-54263000D01*
X75391000Y-54263000D01*
X75608734Y-54219690D01*
X75813835Y-54134734D01*
X75998421Y-54011398D01*
X76155398Y-53854421D01*
X76278734Y-53669835D01*
X76363690Y-53464734D01*
X76407000Y-53247000D01*
X76407000Y-53025000D01*
X76363690Y-52807266D01*
X76278734Y-52602165D01*
X76155398Y-52417579D01*
X76132000Y-52394181D01*
X76132000Y-49932909D01*
X76267910Y-49797000D01*
X80253181Y-49797000D01*
X80276579Y-49820398D01*
X80461165Y-49943734D01*
X80666266Y-50028690D01*
X80884000Y-50072000D01*
X81106000Y-50072000D01*
X81323734Y-50028690D01*
X81528835Y-49943734D01*
X81594287Y-49900000D01*
X86299483Y-49900000D01*
X86299483Y-51800000D01*
X86313520Y-51942517D01*
X86355090Y-52079557D01*
X86422597Y-52205853D01*
X86513446Y-52316554D01*
X86624147Y-52407403D01*
X86750443Y-52474910D01*
X86811826Y-52493530D01*
X86620958Y-52559579D01*
X86485065Y-52840671D01*
X86406621Y-53142873D01*
X86388641Y-53454573D01*
X86431816Y-53763791D01*
X86534487Y-54058644D01*
X86620958Y-54220421D01*
X86880248Y-54310147D01*
X87800395Y-53390000D01*
X87786253Y-53375858D01*
X87965858Y-53196253D01*
X87980000Y-53210395D01*
X87994143Y-53196253D01*
X88173748Y-53375858D01*
X88159605Y-53390000D01*
X89079752Y-54310147D01*
X89339042Y-54220421D01*
X89474935Y-53939329D01*
X89553379Y-53637127D01*
X89571359Y-53325427D01*
X89528184Y-53016209D01*
X89425513Y-52721356D01*
X89339042Y-52559579D01*
X89148174Y-52493530D01*
X89209557Y-52474910D01*
X89335853Y-52407403D01*
X89446554Y-52316554D01*
X89537403Y-52205853D01*
X89604910Y-52079557D01*
X89646480Y-51942517D01*
X89660517Y-51800000D01*
X89660517Y-49900000D01*
X89646480Y-49757483D01*
X89604910Y-49620443D01*
X89537403Y-49494147D01*
X89446554Y-49383446D01*
X89335853Y-49292597D01*
X89209557Y-49225090D01*
X89072517Y-49183520D01*
X88930000Y-49169483D01*
X87030000Y-49169483D01*
X86887483Y-49183520D01*
X86750443Y-49225090D01*
X86624147Y-49292597D01*
X86513446Y-49383446D01*
X86422597Y-49494147D01*
X86355090Y-49620443D01*
X86313520Y-49757483D01*
X86299483Y-49900000D01*
X81594287Y-49900000D01*
X81713421Y-49820398D01*
X81870398Y-49663421D01*
X81993734Y-49478835D01*
X82078690Y-49273734D01*
X82122000Y-49056000D01*
X82122000Y-48834000D01*
X82078690Y-48616266D01*
X81993734Y-48411165D01*
X81870398Y-48226579D01*
X81713421Y-48069602D01*
X81528835Y-47946266D01*
X81323734Y-47861310D01*
X81106000Y-47818000D01*
X80884000Y-47818000D01*
X80666266Y-47861310D01*
X80461165Y-47946266D01*
X80276579Y-48069602D01*
X80253181Y-48093000D01*
X75956849Y-48093000D01*
X75915000Y-48088878D01*
X75873151Y-48093000D01*
X75873148Y-48093000D01*
X75747979Y-48105328D01*
X75587376Y-48154046D01*
X75439364Y-48233161D01*
X75309630Y-48339630D01*
X75282949Y-48372141D01*
X74707145Y-48947946D01*
X74674630Y-48974630D01*
X74604027Y-49060661D01*
X74568161Y-49104364D01*
X74533354Y-49169483D01*
X74489046Y-49252377D01*
X74440328Y-49412980D01*
X74428000Y-49538148D01*
X74423878Y-49580000D01*
X74428000Y-49621849D01*
X74428001Y-52394180D01*
X74404602Y-52417579D01*
X74281266Y-52602165D01*
X74196310Y-52807266D01*
X74153000Y-53025000D01*
X64129412Y-53025000D01*
X64128184Y-53016209D01*
X64025513Y-52721356D01*
X63939042Y-52559579D01*
X63748174Y-52493530D01*
X63809557Y-52474910D01*
X63935853Y-52407403D01*
X64046554Y-52316554D01*
X64137403Y-52205853D01*
X64204910Y-52079557D01*
X64246480Y-51942517D01*
X64260517Y-51800000D01*
X64260517Y-49900000D01*
X64246480Y-49757483D01*
X64204910Y-49620443D01*
X64137403Y-49494147D01*
X64046554Y-49383446D01*
X63935853Y-49292597D01*
X63809557Y-49225090D01*
X63672517Y-49183520D01*
X63530000Y-49169483D01*
X61630000Y-49169483D01*
X61487483Y-49183520D01*
X61350443Y-49225090D01*
X61224147Y-49292597D01*
X61113446Y-49383446D01*
X61022597Y-49494147D01*
X60955090Y-49620443D01*
X60913520Y-49757483D01*
X60899483Y-49900000D01*
X58302000Y-49900000D01*
X58302000Y-45302000D01*
X113873000Y-45302000D01*
X113873000Y-48220000D01*
X113873000Y-48220000D01*
G37*
X113873000Y-48220000D02*
X112470819Y-48220000D01*
X112447421Y-48196602D01*
X112262835Y-48073266D01*
X112057734Y-47988310D01*
X111840000Y-47945000D01*
X111618000Y-47945000D01*
X111400266Y-47988310D01*
X111195165Y-48073266D01*
X111010579Y-48196602D01*
X110853602Y-48353579D01*
X110730266Y-48538165D01*
X110645310Y-48743266D01*
X110602000Y-48961000D01*
X110602000Y-49183000D01*
X110645310Y-49400734D01*
X110730266Y-49605835D01*
X110853602Y-49790421D01*
X111010579Y-49947398D01*
X111195165Y-50070734D01*
X111400266Y-50155690D01*
X111618000Y-50199000D01*
X111840000Y-50199000D01*
X112057734Y-50155690D01*
X112262835Y-50070734D01*
X112447421Y-49947398D01*
X112470819Y-49924000D01*
X113873000Y-49924000D01*
X113873000Y-56123000D01*
X111817696Y-56123000D01*
X111802202Y-56112647D01*
X111578903Y-56020153D01*
X111341849Y-55973000D01*
X111100151Y-55973000D01*
X110863097Y-56020153D01*
X110639798Y-56112647D01*
X110624304Y-56123000D01*
X110270108Y-56123000D01*
X109631000Y-55483893D01*
X109631000Y-54621696D01*
X109641353Y-54606202D01*
X109733847Y-54382903D01*
X109781000Y-54145849D01*
X109781000Y-53904151D01*
X109733847Y-53667097D01*
X109641353Y-53443798D01*
X109507073Y-53242833D01*
X109336167Y-53071927D01*
X109135202Y-52937647D01*
X108911903Y-52845153D01*
X108674849Y-52798000D01*
X108433151Y-52798000D01*
X108196097Y-52845153D01*
X107972798Y-52937647D01*
X107771833Y-53071927D01*
X107600927Y-53242833D01*
X107466647Y-53443798D01*
X107374153Y-53667097D01*
X107327000Y-53904151D01*
X107327000Y-54145849D01*
X107374153Y-54382903D01*
X107466647Y-54606202D01*
X107477000Y-54621697D01*
X107477001Y-55877084D01*
X107471789Y-55930000D01*
X107480669Y-56020153D01*
X107492584Y-56141129D01*
X107554168Y-56344144D01*
X107654175Y-56531244D01*
X107788762Y-56695239D01*
X107829861Y-56728968D01*
X109025032Y-57924140D01*
X109058761Y-57965239D01*
X109222756Y-58099826D01*
X109409856Y-58199833D01*
X109612871Y-58261417D01*
X109771091Y-58277000D01*
X109771092Y-58277000D01*
X109823999Y-58282211D01*
X109876906Y-58277000D01*
X110624304Y-58277000D01*
X110639798Y-58287353D01*
X110863097Y-58379847D01*
X111100151Y-58427000D01*
X111341849Y-58427000D01*
X111578903Y-58379847D01*
X111802202Y-58287353D01*
X111817696Y-58277000D01*
X113873000Y-58277000D01*
X113873000Y-75873000D01*
X58302000Y-75873000D01*
X58302000Y-68408296D01*
X61969000Y-68408296D01*
X61969000Y-68851704D01*
X62055504Y-69286593D01*
X62225189Y-69696249D01*
X62471534Y-70064929D01*
X62785071Y-70378466D01*
X63153751Y-70624811D01*
X63563407Y-70794496D01*
X63998296Y-70881000D01*
X64441704Y-70881000D01*
X64876593Y-70794496D01*
X65286249Y-70624811D01*
X65654929Y-70378466D01*
X65968466Y-70064929D01*
X66214811Y-69696249D01*
X66384496Y-69286593D01*
X66471000Y-68851704D01*
X66471000Y-68408296D01*
X66384496Y-67973407D01*
X66214811Y-67563751D01*
X65968466Y-67195071D01*
X65654929Y-66881534D01*
X65447000Y-66742600D01*
X65447000Y-63942239D01*
X66009240Y-63380000D01*
X81038001Y-63380000D01*
X81038000Y-64863000D01*
X73727400Y-64863000D01*
X73588466Y-64655071D01*
X73274929Y-64341534D01*
X72906249Y-64095189D01*
X72496593Y-63925504D01*
X72061704Y-63839000D01*
X71618296Y-63839000D01*
X71183407Y-63925504D01*
X70773751Y-64095189D01*
X70405071Y-64341534D01*
X70091534Y-64655071D01*
X69845189Y-65023751D01*
X69675504Y-65433407D01*
X69589000Y-65868296D01*
X69589000Y-66311704D01*
X69675504Y-66746593D01*
X69845189Y-67156249D01*
X70091534Y-67524929D01*
X70405071Y-67838466D01*
X70773751Y-68084811D01*
X71183407Y-68254496D01*
X71618296Y-68341000D01*
X72061704Y-68341000D01*
X72496593Y-68254496D01*
X72906249Y-68084811D01*
X73274929Y-67838466D01*
X73588466Y-67524929D01*
X73727400Y-67317000D01*
X81038000Y-67317000D01*
X81038000Y-67867760D01*
X78962761Y-69943000D01*
X73727400Y-69943000D01*
X73588466Y-69735071D01*
X73274929Y-69421534D01*
X72906249Y-69175189D01*
X72496593Y-69005504D01*
X72061704Y-68919000D01*
X71618296Y-68919000D01*
X71183407Y-69005504D01*
X70773751Y-69175189D01*
X70405071Y-69421534D01*
X70091534Y-69735071D01*
X69845189Y-70103751D01*
X69675504Y-70513407D01*
X69589000Y-70948296D01*
X69589000Y-71391704D01*
X69675504Y-71826593D01*
X69845189Y-72236249D01*
X70091534Y-72604929D01*
X70405071Y-72918466D01*
X70773751Y-73164811D01*
X71183407Y-73334496D01*
X71618296Y-73421000D01*
X72061704Y-73421000D01*
X72496593Y-73334496D01*
X72906249Y-73164811D01*
X73274929Y-72918466D01*
X73588466Y-72604929D01*
X73727400Y-72397000D01*
X79410740Y-72397000D01*
X79471000Y-72402935D01*
X79531260Y-72397000D01*
X79531268Y-72397000D01*
X79711534Y-72379245D01*
X79942824Y-72309084D01*
X80155983Y-72195149D01*
X80342817Y-72041817D01*
X80381239Y-71995000D01*
X83090006Y-69286234D01*
X83136817Y-69247817D01*
X83290149Y-69060983D01*
X83404084Y-68847824D01*
X83404084Y-68847823D01*
X83474246Y-68616534D01*
X83497935Y-68376000D01*
X83492000Y-68315737D01*
X83492000Y-66023261D01*
X83497935Y-65963001D01*
X83492000Y-65902741D01*
X83492000Y-62213267D01*
X83497936Y-62153000D01*
X83492000Y-62092732D01*
X83492000Y-54489752D01*
X87059853Y-54489752D01*
X87149579Y-54749042D01*
X87430671Y-54884935D01*
X87732873Y-54963379D01*
X88044573Y-54981359D01*
X88353791Y-54938184D01*
X88648644Y-54835513D01*
X88810421Y-54749042D01*
X88900147Y-54489752D01*
X87980000Y-53569605D01*
X87059853Y-54489752D01*
X83492000Y-54489752D01*
X83492000Y-53264636D01*
X83567611Y-53189025D01*
X83751138Y-52914357D01*
X83877554Y-52609163D01*
X83942000Y-52285170D01*
X83942000Y-51954830D01*
X83877554Y-51630837D01*
X83751138Y-51325643D01*
X83567611Y-51050975D01*
X83334025Y-50817389D01*
X83059357Y-50633862D01*
X82754163Y-50507446D01*
X82430170Y-50443000D01*
X82099830Y-50443000D01*
X81775837Y-50507446D01*
X81470643Y-50633862D01*
X81280014Y-50761236D01*
X81191554Y-50653446D01*
X81080853Y-50562597D01*
X80954557Y-50495090D01*
X80817517Y-50453520D01*
X80675000Y-50439483D01*
X78775000Y-50439483D01*
X78632483Y-50453520D01*
X78495443Y-50495090D01*
X78369147Y-50562597D01*
X78258446Y-50653446D01*
X78167597Y-50764147D01*
X78100090Y-50890443D01*
X78058520Y-51027483D01*
X78044483Y-51170000D01*
X78044483Y-53070000D01*
X78058520Y-53212517D01*
X78100090Y-53349557D01*
X78167597Y-53475853D01*
X78258446Y-53586554D01*
X78369147Y-53677403D01*
X78495443Y-53744910D01*
X78632483Y-53786480D01*
X78775000Y-53800517D01*
X80675000Y-53800517D01*
X80817517Y-53786480D01*
X80954557Y-53744910D01*
X81038001Y-53700308D01*
X81038000Y-60926000D01*
X65561263Y-60926000D01*
X65501000Y-60920065D01*
X65440737Y-60926000D01*
X65440732Y-60926000D01*
X65380946Y-60931889D01*
X65260466Y-60943754D01*
X65029176Y-61013916D01*
X64816017Y-61127851D01*
X64629183Y-61281183D01*
X64590765Y-61327995D01*
X63394995Y-62523766D01*
X63348184Y-62562183D01*
X63194852Y-62749017D01*
X63147300Y-62837982D01*
X63080917Y-62962176D01*
X63010755Y-63193467D01*
X62987065Y-63434000D01*
X62993001Y-63494270D01*
X62993000Y-66742600D01*
X62785071Y-66881534D01*
X62471534Y-67195071D01*
X62225189Y-67563751D01*
X62055504Y-67973407D01*
X61969000Y-68408296D01*
X58302000Y-68408296D01*
X58302000Y-54489752D01*
X61659853Y-54489752D01*
X61749579Y-54749042D01*
X62030671Y-54884935D01*
X62332873Y-54963379D01*
X62644573Y-54981359D01*
X62953791Y-54938184D01*
X63248644Y-54835513D01*
X63410421Y-54749042D01*
X63500147Y-54489752D01*
X62580000Y-53569605D01*
X61659853Y-54489752D01*
X58302000Y-54489752D01*
X58302000Y-49900000D01*
X60899483Y-49900000D01*
X60899483Y-51800000D01*
X60913520Y-51942517D01*
X60955090Y-52079557D01*
X61022597Y-52205853D01*
X61113446Y-52316554D01*
X61224147Y-52407403D01*
X61350443Y-52474910D01*
X61411826Y-52493530D01*
X61220958Y-52559579D01*
X61085065Y-52840671D01*
X61006621Y-53142873D01*
X60988641Y-53454573D01*
X61031816Y-53763791D01*
X61134487Y-54058644D01*
X61220958Y-54220421D01*
X61480248Y-54310147D01*
X62400395Y-53390000D01*
X62386253Y-53375858D01*
X62565858Y-53196253D01*
X62580000Y-53210395D01*
X62594143Y-53196253D01*
X62773748Y-53375858D01*
X62759605Y-53390000D01*
X63679752Y-54310147D01*
X63939042Y-54220421D01*
X64074935Y-53939329D01*
X64153379Y-53637127D01*
X64171359Y-53325427D01*
X64129412Y-53025000D01*
X74153000Y-53025000D01*
X74153000Y-53247000D01*
X74196310Y-53464734D01*
X74281266Y-53669835D01*
X74404602Y-53854421D01*
X74561579Y-54011398D01*
X74746165Y-54134734D01*
X74951266Y-54219690D01*
X75169000Y-54263000D01*
X75391000Y-54263000D01*
X75608734Y-54219690D01*
X75813835Y-54134734D01*
X75998421Y-54011398D01*
X76155398Y-53854421D01*
X76278734Y-53669835D01*
X76363690Y-53464734D01*
X76407000Y-53247000D01*
X76407000Y-53025000D01*
X76363690Y-52807266D01*
X76278734Y-52602165D01*
X76155398Y-52417579D01*
X76132000Y-52394181D01*
X76132000Y-49932909D01*
X76267910Y-49797000D01*
X80253181Y-49797000D01*
X80276579Y-49820398D01*
X80461165Y-49943734D01*
X80666266Y-50028690D01*
X80884000Y-50072000D01*
X81106000Y-50072000D01*
X81323734Y-50028690D01*
X81528835Y-49943734D01*
X81594287Y-49900000D01*
X86299483Y-49900000D01*
X86299483Y-51800000D01*
X86313520Y-51942517D01*
X86355090Y-52079557D01*
X86422597Y-52205853D01*
X86513446Y-52316554D01*
X86624147Y-52407403D01*
X86750443Y-52474910D01*
X86811826Y-52493530D01*
X86620958Y-52559579D01*
X86485065Y-52840671D01*
X86406621Y-53142873D01*
X86388641Y-53454573D01*
X86431816Y-53763791D01*
X86534487Y-54058644D01*
X86620958Y-54220421D01*
X86880248Y-54310147D01*
X87800395Y-53390000D01*
X87786253Y-53375858D01*
X87965858Y-53196253D01*
X87980000Y-53210395D01*
X87994143Y-53196253D01*
X88173748Y-53375858D01*
X88159605Y-53390000D01*
X89079752Y-54310147D01*
X89339042Y-54220421D01*
X89474935Y-53939329D01*
X89553379Y-53637127D01*
X89571359Y-53325427D01*
X89528184Y-53016209D01*
X89425513Y-52721356D01*
X89339042Y-52559579D01*
X89148174Y-52493530D01*
X89209557Y-52474910D01*
X89335853Y-52407403D01*
X89446554Y-52316554D01*
X89537403Y-52205853D01*
X89604910Y-52079557D01*
X89646480Y-51942517D01*
X89660517Y-51800000D01*
X89660517Y-49900000D01*
X89646480Y-49757483D01*
X89604910Y-49620443D01*
X89537403Y-49494147D01*
X89446554Y-49383446D01*
X89335853Y-49292597D01*
X89209557Y-49225090D01*
X89072517Y-49183520D01*
X88930000Y-49169483D01*
X87030000Y-49169483D01*
X86887483Y-49183520D01*
X86750443Y-49225090D01*
X86624147Y-49292597D01*
X86513446Y-49383446D01*
X86422597Y-49494147D01*
X86355090Y-49620443D01*
X86313520Y-49757483D01*
X86299483Y-49900000D01*
X81594287Y-49900000D01*
X81713421Y-49820398D01*
X81870398Y-49663421D01*
X81993734Y-49478835D01*
X82078690Y-49273734D01*
X82122000Y-49056000D01*
X82122000Y-48834000D01*
X82078690Y-48616266D01*
X81993734Y-48411165D01*
X81870398Y-48226579D01*
X81713421Y-48069602D01*
X81528835Y-47946266D01*
X81323734Y-47861310D01*
X81106000Y-47818000D01*
X80884000Y-47818000D01*
X80666266Y-47861310D01*
X80461165Y-47946266D01*
X80276579Y-48069602D01*
X80253181Y-48093000D01*
X75956849Y-48093000D01*
X75915000Y-48088878D01*
X75873151Y-48093000D01*
X75873148Y-48093000D01*
X75747979Y-48105328D01*
X75587376Y-48154046D01*
X75439364Y-48233161D01*
X75309630Y-48339630D01*
X75282949Y-48372141D01*
X74707145Y-48947946D01*
X74674630Y-48974630D01*
X74604027Y-49060661D01*
X74568161Y-49104364D01*
X74533354Y-49169483D01*
X74489046Y-49252377D01*
X74440328Y-49412980D01*
X74428000Y-49538148D01*
X74423878Y-49580000D01*
X74428000Y-49621849D01*
X74428001Y-52394180D01*
X74404602Y-52417579D01*
X74281266Y-52602165D01*
X74196310Y-52807266D01*
X74153000Y-53025000D01*
X64129412Y-53025000D01*
X64128184Y-53016209D01*
X64025513Y-52721356D01*
X63939042Y-52559579D01*
X63748174Y-52493530D01*
X63809557Y-52474910D01*
X63935853Y-52407403D01*
X64046554Y-52316554D01*
X64137403Y-52205853D01*
X64204910Y-52079557D01*
X64246480Y-51942517D01*
X64260517Y-51800000D01*
X64260517Y-49900000D01*
X64246480Y-49757483D01*
X64204910Y-49620443D01*
X64137403Y-49494147D01*
X64046554Y-49383446D01*
X63935853Y-49292597D01*
X63809557Y-49225090D01*
X63672517Y-49183520D01*
X63530000Y-49169483D01*
X61630000Y-49169483D01*
X61487483Y-49183520D01*
X61350443Y-49225090D01*
X61224147Y-49292597D01*
X61113446Y-49383446D01*
X61022597Y-49494147D01*
X60955090Y-49620443D01*
X60913520Y-49757483D01*
X60899483Y-49900000D01*
X58302000Y-49900000D01*
X58302000Y-45302000D01*
X113873000Y-45302000D01*
X113873000Y-48220000D01*
M02*
