M48
; DRILL file {KiCad (5.1.0)-1} date 12.08.2019 15:22:40
; FORMAT={-:-/ absolute / metric / decimal}
; #@! TF.CreationDate,2019-08-12T15:22:40+02:00
; #@! TF.GenerationSoftware,Kicad,Pcbnew,(5.1.0)-1
; #@! TF.FileFunction,Plated,1,2,PTH
FMAT,2
METRIC
T1C0.400
T2C0.600
T3C1.000
T4C1.100
T5C1.905
%
G90
G05
T1
X75.28Y-53.136
X77.947Y-105.079
X77.947Y-120.065
X78.709Y-104.317
X78.709Y-122.605
X79.598Y-103.428
X79.598Y-120.573
X80.36Y-107.111
X80.36Y-119.811
X80.995Y-48.945
X81.122Y-107.873
X81.122Y-119.049
X81.884Y-108.635
X81.884Y-118.287
X82.646Y-109.397
X82.646Y-117.525
X84.043Y-106.095
X84.043Y-113.08
X85.44Y-120.573
X86.71Y-86.41
X87.98Y-118.287
X90.52Y-119.049
X93.06Y-119.811
X95.6Y-117.525
X96.235Y-83.489
X98.14Y-107.111
X98.14Y-110.794
X98.16Y-120.045
X99.029Y-91.998
X99.029Y-108.0
X100.172Y-102.92
X100.68Y-82.346
X101.315Y-98.348
X101.696Y-105.079
X101.696Y-112.064
X102.331Y-120.065
X102.585Y-103.936
X102.585Y-111.175
X103.347Y-108.889
X104.236Y-109.778
X105.76Y-124.383
X106.141Y-98.348
X111.729Y-49.072
X113.634Y-86.41
X118.587Y-82.346
X119.222Y-49.961
X121.508Y-124.383
X123.032Y-112.064
X124.175Y-111.175
X124.175Y-116.763
X124.175Y-124.383
X127.985Y-81.457
X127.985Y-86.41
X130.271Y-124.383
T2
X91.155Y-46.786
X91.155Y-55.041
X96.108Y-97.205
X96.108Y-106.095
X96.108Y-113.08
X96.108Y-116.534
X100.68Y-113.08
X102.331Y-97.205
X108.554Y-54.025
X111.221Y-57.2
X119.73Y-97.205
X119.73Y-103.555
X124.048Y-49.961
X126.08Y-56.184
T3
X119.73Y-88.95
X127.35Y-91.49
X132.43Y-88.95
X119.73Y-109.27
X127.35Y-111.81
X132.43Y-109.27
X65.12Y-112.445
X65.12Y-114.985
X65.12Y-117.525
X65.12Y-120.065
X65.12Y-122.605
T4
X62.58Y-50.85
X62.58Y-53.39
X132.43Y-50.215
X132.43Y-52.755
X100.68Y-86.41
X100.68Y-88.95
X127.35Y-50.215
X127.35Y-52.755
X91.155Y-86.41
X91.155Y-88.95
X85.44Y-124.51
X87.98Y-124.51
X90.52Y-124.51
X93.06Y-124.51
X95.6Y-124.51
X98.14Y-124.51
X100.68Y-124.51
X82.265Y-86.41
X82.265Y-88.95
X79.725Y-52.12
X82.265Y-52.12
X111.475Y-97.205
X114.015Y-97.205
X111.475Y-103.555
X114.015Y-103.555
X87.98Y-50.85
X87.98Y-53.39
T5
X64.22Y-68.63
X71.84Y-66.09
X71.84Y-71.17
X119.84Y-66.09
X119.84Y-71.17
X124.44Y-66.09
X124.44Y-71.17
X127.46Y-68.63
X132.06Y-68.63
T0
M30
