G04 #@! TF.GenerationSoftware,KiCad,Pcbnew,(5.1.0)-1*
G04 #@! TF.CreationDate,2019-04-28T18:18:51+02:00*
G04 #@! TF.ProjectId,LampeSolaire,4c616d70-6553-46f6-9c61-6972652e6b69,5*
G04 #@! TF.SameCoordinates,Original*
G04 #@! TF.FileFunction,Soldermask,Bot*
G04 #@! TF.FilePolarity,Negative*
%FSLAX46Y46*%
G04 Gerber Fmt 4.6, Leading zero omitted, Abs format (unit mm)*
G04 Created by KiCad (PCBNEW (5.1.0)-1) date 2019-04-28 18:18:51*
%MOMM*%
%LPD*%
G04 APERTURE LIST*
%ADD10C,0.250000*%
%ADD11C,0.100000*%
G04 APERTURE END LIST*
D10*
X69515714Y-93958571D02*
X69372857Y-94006190D01*
X69325238Y-94053809D01*
X69277619Y-94149047D01*
X69277619Y-94291904D01*
X69325238Y-94387142D01*
X69372857Y-94434761D01*
X69468095Y-94482380D01*
X69849047Y-94482380D01*
X69849047Y-93482380D01*
X69515714Y-93482380D01*
X69420476Y-93530000D01*
X69372857Y-93577619D01*
X69325238Y-93672857D01*
X69325238Y-93768095D01*
X69372857Y-93863333D01*
X69420476Y-93910952D01*
X69515714Y-93958571D01*
X69849047Y-93958571D01*
X68849047Y-94387142D02*
X68801428Y-94434761D01*
X68849047Y-94482380D01*
X68896666Y-94434761D01*
X68849047Y-94387142D01*
X68849047Y-94482380D01*
X68372857Y-94482380D02*
X68372857Y-93482380D01*
X68039523Y-94196666D01*
X67706190Y-93482380D01*
X67706190Y-94482380D01*
X66801428Y-94482380D02*
X66801428Y-93958571D01*
X66849047Y-93863333D01*
X66944285Y-93815714D01*
X67134761Y-93815714D01*
X67230000Y-93863333D01*
X66801428Y-94434761D02*
X66896666Y-94482380D01*
X67134761Y-94482380D01*
X67230000Y-94434761D01*
X67277619Y-94339523D01*
X67277619Y-94244285D01*
X67230000Y-94149047D01*
X67134761Y-94101428D01*
X66896666Y-94101428D01*
X66801428Y-94053809D01*
X66372857Y-94434761D02*
X66277619Y-94482380D01*
X66087142Y-94482380D01*
X65991904Y-94434761D01*
X65944285Y-94339523D01*
X65944285Y-94291904D01*
X65991904Y-94196666D01*
X66087142Y-94149047D01*
X66230000Y-94149047D01*
X66325238Y-94101428D01*
X66372857Y-94006190D01*
X66372857Y-93958571D01*
X66325238Y-93863333D01*
X66230000Y-93815714D01*
X66087142Y-93815714D01*
X65991904Y-93863333D01*
X65515714Y-94482380D02*
X65515714Y-93482380D01*
X65420476Y-94101428D02*
X65134761Y-94482380D01*
X65134761Y-93815714D02*
X65515714Y-94196666D01*
X63944285Y-94101428D02*
X63182380Y-94101428D01*
X62087142Y-93482380D02*
X61753809Y-94482380D01*
X61420476Y-93482380D01*
X60610952Y-93482380D02*
X61087142Y-93482380D01*
X61134761Y-93958571D01*
X61087142Y-93910952D01*
X60991904Y-93863333D01*
X60753809Y-93863333D01*
X60658571Y-93910952D01*
X60610952Y-93958571D01*
X60563333Y-94053809D01*
X60563333Y-94291904D01*
X60610952Y-94387142D01*
X60658571Y-94434761D01*
X60753809Y-94482380D01*
X60991904Y-94482380D01*
X61087142Y-94434761D01*
X61134761Y-94387142D01*
D11*
G36*
X82500000Y-115150000D02*
G01*
X81300000Y-115150000D01*
X81300000Y-113050000D01*
X82500000Y-113050000D01*
X82500000Y-115150000D01*
X82500000Y-115150000D01*
G37*
G36*
X80600000Y-115150000D02*
G01*
X79400000Y-115150000D01*
X79400000Y-113050000D01*
X80600000Y-113050000D01*
X80600000Y-115150000D01*
X80600000Y-115150000D01*
G37*
G36*
X102438000Y-115020000D02*
G01*
X100038000Y-115020000D01*
X100038000Y-112920000D01*
X102438000Y-112920000D01*
X102438000Y-115020000D01*
X102438000Y-115020000D01*
G37*
G36*
X89548000Y-115020000D02*
G01*
X87148000Y-115020000D01*
X87148000Y-112920000D01*
X89548000Y-112920000D01*
X89548000Y-115020000D01*
X89548000Y-115020000D01*
G37*
G36*
X93548000Y-115020000D02*
G01*
X91148000Y-115020000D01*
X91148000Y-112920000D01*
X93548000Y-112920000D01*
X93548000Y-115020000D01*
X93548000Y-115020000D01*
G37*
G36*
X98438000Y-115020000D02*
G01*
X96038000Y-115020000D01*
X96038000Y-112920000D01*
X98438000Y-112920000D01*
X98438000Y-115020000D01*
X98438000Y-115020000D01*
G37*
G36*
X75520000Y-112980000D02*
G01*
X73420000Y-112980000D01*
X73420000Y-111780000D01*
X75520000Y-111780000D01*
X75520000Y-112980000D01*
X75520000Y-112980000D01*
G37*
G36*
X81550000Y-112350000D02*
G01*
X80350000Y-112350000D01*
X80350000Y-110250000D01*
X81550000Y-110250000D01*
X81550000Y-112350000D01*
X81550000Y-112350000D01*
G37*
G36*
X78320000Y-112030000D02*
G01*
X76220000Y-112030000D01*
X76220000Y-110830000D01*
X78320000Y-110830000D01*
X78320000Y-112030000D01*
X78320000Y-112030000D01*
G37*
G36*
X75520000Y-111080000D02*
G01*
X73420000Y-111080000D01*
X73420000Y-109880000D01*
X75520000Y-109880000D01*
X75520000Y-111080000D01*
X75520000Y-111080000D01*
G37*
G36*
X65299082Y-97581384D02*
G01*
X65614639Y-97644152D01*
X66060510Y-97828838D01*
X66461784Y-98096960D01*
X66803040Y-98438216D01*
X67071162Y-98839490D01*
X67255848Y-99285361D01*
X67350000Y-99758696D01*
X67350000Y-100241304D01*
X67255848Y-100714639D01*
X67071162Y-101160510D01*
X66803040Y-101561784D01*
X66461784Y-101903040D01*
X66060510Y-102171162D01*
X65614639Y-102355848D01*
X65299082Y-102418616D01*
X65141305Y-102450000D01*
X64658695Y-102450000D01*
X64500918Y-102418616D01*
X64185361Y-102355848D01*
X63739490Y-102171162D01*
X63338216Y-101903040D01*
X62996960Y-101561784D01*
X62728838Y-101160510D01*
X62544152Y-100714639D01*
X62450000Y-100241304D01*
X62450000Y-99758696D01*
X62544152Y-99285361D01*
X62728838Y-98839490D01*
X62996960Y-98438216D01*
X63338216Y-98096960D01*
X63739490Y-97828838D01*
X64185361Y-97644152D01*
X64500918Y-97581384D01*
X64658695Y-97550000D01*
X65141305Y-97550000D01*
X65299082Y-97581384D01*
X65299082Y-97581384D01*
G37*
G36*
X135499082Y-97581384D02*
G01*
X135814639Y-97644152D01*
X136260510Y-97828838D01*
X136661784Y-98096960D01*
X137003040Y-98438216D01*
X137271162Y-98839490D01*
X137455848Y-99285361D01*
X137550000Y-99758696D01*
X137550000Y-100241304D01*
X137455848Y-100714639D01*
X137271162Y-101160510D01*
X137003040Y-101561784D01*
X136661784Y-101903040D01*
X136260510Y-102171162D01*
X135814639Y-102355848D01*
X135499082Y-102418616D01*
X135341305Y-102450000D01*
X134858695Y-102450000D01*
X134700918Y-102418616D01*
X134385361Y-102355848D01*
X133939490Y-102171162D01*
X133538216Y-101903040D01*
X133196960Y-101561784D01*
X132928838Y-101160510D01*
X132744152Y-100714639D01*
X132650000Y-100241304D01*
X132650000Y-99758696D01*
X132744152Y-99285361D01*
X132928838Y-98839490D01*
X133196960Y-98438216D01*
X133538216Y-98096960D01*
X133939490Y-97828838D01*
X134385361Y-97644152D01*
X134700918Y-97581384D01*
X134858695Y-97550000D01*
X135341305Y-97550000D01*
X135499082Y-97581384D01*
X135499082Y-97581384D01*
G37*
G36*
X102037290Y-99025619D02*
G01*
X102101689Y-99038429D01*
X102283678Y-99113811D01*
X102447463Y-99223249D01*
X102586751Y-99362537D01*
X102586755Y-99362543D01*
X102593987Y-99369775D01*
X102596615Y-99372977D01*
X102615557Y-99388522D01*
X102637168Y-99400073D01*
X102660617Y-99407186D01*
X102685003Y-99409587D01*
X102709389Y-99407185D01*
X102732838Y-99400071D01*
X102754449Y-99388520D01*
X102773390Y-99372974D01*
X102788935Y-99354032D01*
X102800486Y-99332421D01*
X102807599Y-99308972D01*
X102810000Y-99284588D01*
X102810000Y-99000000D01*
X104810000Y-99000000D01*
X104810000Y-101000000D01*
X102810000Y-101000000D01*
X102810000Y-100715412D01*
X102807598Y-100691026D01*
X102800485Y-100667577D01*
X102788934Y-100645966D01*
X102773389Y-100627024D01*
X102754447Y-100611479D01*
X102732836Y-100599928D01*
X102709387Y-100592815D01*
X102685001Y-100590413D01*
X102660615Y-100592815D01*
X102637166Y-100599928D01*
X102615555Y-100611479D01*
X102596613Y-100627024D01*
X102593981Y-100630231D01*
X102586755Y-100637457D01*
X102586751Y-100637463D01*
X102447463Y-100776751D01*
X102283678Y-100886189D01*
X102101689Y-100961571D01*
X102037290Y-100974381D01*
X101908493Y-101000000D01*
X101711507Y-101000000D01*
X101582710Y-100974381D01*
X101518311Y-100961571D01*
X101336322Y-100886189D01*
X101172537Y-100776751D01*
X101033249Y-100637463D01*
X100923811Y-100473678D01*
X100848429Y-100291689D01*
X100810000Y-100098491D01*
X100810000Y-99901509D01*
X100848429Y-99708311D01*
X100923811Y-99526322D01*
X101033249Y-99362537D01*
X101172537Y-99223249D01*
X101336322Y-99113811D01*
X101518311Y-99038429D01*
X101582710Y-99025619D01*
X101711507Y-99000000D01*
X101908493Y-99000000D01*
X102037290Y-99025619D01*
X102037290Y-99025619D01*
G37*
G36*
X103730000Y-91960000D02*
G01*
X101830000Y-91960000D01*
X101830000Y-90260000D01*
X103730000Y-90260000D01*
X103730000Y-91960000D01*
X103730000Y-91960000D01*
G37*
G36*
X101030000Y-91960000D02*
G01*
X99130000Y-91960000D01*
X99130000Y-90260000D01*
X101030000Y-90260000D01*
X101030000Y-91960000D01*
X101030000Y-91960000D01*
G37*
G36*
X72930000Y-85610000D02*
G01*
X71030000Y-85610000D01*
X71030000Y-83910000D01*
X72930000Y-83910000D01*
X72930000Y-85610000D01*
X72930000Y-85610000D01*
G37*
G36*
X75630000Y-85610000D02*
G01*
X73730000Y-85610000D01*
X73730000Y-83910000D01*
X75630000Y-83910000D01*
X75630000Y-85610000D01*
X75630000Y-85610000D01*
G37*
G36*
X61680000Y-83270000D02*
G01*
X59580000Y-83270000D01*
X59580000Y-81170000D01*
X61680000Y-81170000D01*
X61680000Y-83270000D01*
X61680000Y-83270000D01*
G37*
G36*
X100850000Y-81900000D02*
G01*
X99150000Y-81900000D01*
X99150000Y-80000000D01*
X100850000Y-80000000D01*
X100850000Y-81900000D01*
X100850000Y-81900000D01*
G37*
G36*
X60758707Y-78637597D02*
G01*
X60835836Y-78645193D01*
X61033762Y-78705233D01*
X61033765Y-78705234D01*
X61216170Y-78802732D01*
X61376055Y-78933945D01*
X61507268Y-79093830D01*
X61604766Y-79276235D01*
X61604767Y-79276238D01*
X61664807Y-79474164D01*
X61685080Y-79680000D01*
X61664807Y-79885836D01*
X61630176Y-80000000D01*
X61604766Y-80083765D01*
X61507268Y-80266170D01*
X61376055Y-80426055D01*
X61216170Y-80557268D01*
X61033765Y-80654766D01*
X61033762Y-80654767D01*
X60835836Y-80714807D01*
X60758707Y-80722404D01*
X60681580Y-80730000D01*
X60578420Y-80730000D01*
X60501293Y-80722404D01*
X60424164Y-80714807D01*
X60226238Y-80654767D01*
X60226235Y-80654766D01*
X60043830Y-80557268D01*
X59883945Y-80426055D01*
X59752732Y-80266170D01*
X59655234Y-80083765D01*
X59629824Y-80000000D01*
X59595193Y-79885836D01*
X59574920Y-79680000D01*
X59595193Y-79474164D01*
X59655233Y-79276238D01*
X59655234Y-79276235D01*
X59752732Y-79093830D01*
X59883945Y-78933945D01*
X60043830Y-78802732D01*
X60226235Y-78705234D01*
X60226238Y-78705233D01*
X60424164Y-78645193D01*
X60501293Y-78637597D01*
X60578420Y-78630000D01*
X60681580Y-78630000D01*
X60758707Y-78637597D01*
X60758707Y-78637597D01*
G37*
G36*
X100850000Y-79200000D02*
G01*
X99150000Y-79200000D01*
X99150000Y-77300000D01*
X100850000Y-77300000D01*
X100850000Y-79200000D01*
X100850000Y-79200000D01*
G37*
G36*
X60758707Y-76097596D02*
G01*
X60835836Y-76105193D01*
X61033762Y-76165233D01*
X61033765Y-76165234D01*
X61216170Y-76262732D01*
X61376055Y-76393945D01*
X61507268Y-76553830D01*
X61604766Y-76736235D01*
X61604767Y-76736238D01*
X61664807Y-76934164D01*
X61685080Y-77140000D01*
X61664807Y-77345836D01*
X61604767Y-77543762D01*
X61604766Y-77543765D01*
X61507268Y-77726170D01*
X61376055Y-77886055D01*
X61216170Y-78017268D01*
X61033765Y-78114766D01*
X61033762Y-78114767D01*
X60835836Y-78174807D01*
X60758707Y-78182403D01*
X60681580Y-78190000D01*
X60578420Y-78190000D01*
X60501293Y-78182403D01*
X60424164Y-78174807D01*
X60226238Y-78114767D01*
X60226235Y-78114766D01*
X60043830Y-78017268D01*
X59883945Y-77886055D01*
X59752732Y-77726170D01*
X59655234Y-77543765D01*
X59655233Y-77543762D01*
X59595193Y-77345836D01*
X59574920Y-77140000D01*
X59595193Y-76934164D01*
X59655233Y-76736238D01*
X59655234Y-76736235D01*
X59752732Y-76553830D01*
X59883945Y-76393945D01*
X60043830Y-76262732D01*
X60226235Y-76165234D01*
X60226238Y-76165233D01*
X60424164Y-76105193D01*
X60501293Y-76097596D01*
X60578420Y-76090000D01*
X60681580Y-76090000D01*
X60758707Y-76097596D01*
X60758707Y-76097596D01*
G37*
G36*
X72530000Y-76870000D02*
G01*
X70130000Y-76870000D01*
X70130000Y-74870000D01*
X72530000Y-74870000D01*
X72530000Y-76870000D01*
X72530000Y-76870000D01*
G37*
G36*
X76530000Y-76870000D02*
G01*
X74130000Y-76870000D01*
X74130000Y-74870000D01*
X76530000Y-74870000D01*
X76530000Y-76870000D01*
X76530000Y-76870000D01*
G37*
G36*
X60758707Y-73557596D02*
G01*
X60835836Y-73565193D01*
X61033762Y-73625233D01*
X61033765Y-73625234D01*
X61216170Y-73722732D01*
X61376055Y-73853945D01*
X61507268Y-74013830D01*
X61604766Y-74196235D01*
X61604767Y-74196238D01*
X61664807Y-74394164D01*
X61685080Y-74600000D01*
X61664807Y-74805836D01*
X61645343Y-74870000D01*
X61604766Y-75003765D01*
X61507268Y-75186170D01*
X61376055Y-75346055D01*
X61216170Y-75477268D01*
X61033765Y-75574766D01*
X61033762Y-75574767D01*
X60835836Y-75634807D01*
X60758707Y-75642404D01*
X60681580Y-75650000D01*
X60578420Y-75650000D01*
X60501293Y-75642404D01*
X60424164Y-75634807D01*
X60226238Y-75574767D01*
X60226235Y-75574766D01*
X60043830Y-75477268D01*
X59883945Y-75346055D01*
X59752732Y-75186170D01*
X59655234Y-75003765D01*
X59614657Y-74870000D01*
X59595193Y-74805836D01*
X59574920Y-74600000D01*
X59595193Y-74394164D01*
X59655233Y-74196238D01*
X59655234Y-74196235D01*
X59752732Y-74013830D01*
X59883945Y-73853945D01*
X60043830Y-73722732D01*
X60226235Y-73625234D01*
X60226238Y-73625233D01*
X60424164Y-73565193D01*
X60501293Y-73557596D01*
X60578420Y-73550000D01*
X60681580Y-73550000D01*
X60758707Y-73557596D01*
X60758707Y-73557596D01*
G37*
G36*
X60758707Y-71017596D02*
G01*
X60835836Y-71025193D01*
X61033762Y-71085233D01*
X61033765Y-71085234D01*
X61216170Y-71182732D01*
X61376055Y-71313945D01*
X61507268Y-71473830D01*
X61604766Y-71656235D01*
X61604767Y-71656238D01*
X61664807Y-71854164D01*
X61685080Y-72060000D01*
X61664807Y-72265836D01*
X61604767Y-72463762D01*
X61604766Y-72463765D01*
X61507268Y-72646170D01*
X61376055Y-72806055D01*
X61216170Y-72937268D01*
X61033765Y-73034766D01*
X61033762Y-73034767D01*
X60835836Y-73094807D01*
X60758707Y-73102403D01*
X60681580Y-73110000D01*
X60578420Y-73110000D01*
X60501293Y-73102403D01*
X60424164Y-73094807D01*
X60226238Y-73034767D01*
X60226235Y-73034766D01*
X60043830Y-72937268D01*
X59883945Y-72806055D01*
X59752732Y-72646170D01*
X59655234Y-72463765D01*
X59655233Y-72463762D01*
X59595193Y-72265836D01*
X59574920Y-72060000D01*
X59595193Y-71854164D01*
X59655233Y-71656238D01*
X59655234Y-71656235D01*
X59752732Y-71473830D01*
X59883945Y-71313945D01*
X60043830Y-71182732D01*
X60226235Y-71085234D01*
X60226238Y-71085233D01*
X60424164Y-71025193D01*
X60501293Y-71017596D01*
X60578420Y-71010000D01*
X60681580Y-71010000D01*
X60758707Y-71017596D01*
X60758707Y-71017596D01*
G37*
G36*
X70370000Y-73090000D02*
G01*
X68670000Y-73090000D01*
X68670000Y-71190000D01*
X70370000Y-71190000D01*
X70370000Y-73090000D01*
X70370000Y-73090000D01*
G37*
G36*
X60758707Y-68477596D02*
G01*
X60835836Y-68485193D01*
X61033762Y-68545233D01*
X61033765Y-68545234D01*
X61216170Y-68642732D01*
X61376055Y-68773945D01*
X61507268Y-68933830D01*
X61604766Y-69116235D01*
X61604767Y-69116238D01*
X61664807Y-69314164D01*
X61685080Y-69520000D01*
X61664807Y-69725836D01*
X61604767Y-69923762D01*
X61604766Y-69923765D01*
X61507268Y-70106170D01*
X61376055Y-70266055D01*
X61216170Y-70397268D01*
X61033765Y-70494766D01*
X61033762Y-70494767D01*
X60835836Y-70554807D01*
X60758707Y-70562403D01*
X60681580Y-70570000D01*
X60578420Y-70570000D01*
X60501293Y-70562403D01*
X60424164Y-70554807D01*
X60226238Y-70494767D01*
X60226235Y-70494766D01*
X60043830Y-70397268D01*
X59883945Y-70266055D01*
X59752732Y-70106170D01*
X59655234Y-69923765D01*
X59655233Y-69923762D01*
X59595193Y-69725836D01*
X59574920Y-69520000D01*
X59595193Y-69314164D01*
X59655233Y-69116238D01*
X59655234Y-69116235D01*
X59752732Y-68933830D01*
X59883945Y-68773945D01*
X60043830Y-68642732D01*
X60226235Y-68545234D01*
X60226238Y-68545233D01*
X60424164Y-68485193D01*
X60501293Y-68477596D01*
X60578420Y-68470000D01*
X60681580Y-68470000D01*
X60758707Y-68477596D01*
X60758707Y-68477596D01*
G37*
G36*
X70370000Y-70390000D02*
G01*
X68670000Y-70390000D01*
X68670000Y-68490000D01*
X70370000Y-68490000D01*
X70370000Y-70390000D01*
X70370000Y-70390000D01*
G37*
G36*
X94310000Y-67980000D02*
G01*
X91910000Y-67980000D01*
X91910000Y-65980000D01*
X94310000Y-65980000D01*
X94310000Y-67980000D01*
X94310000Y-67980000D01*
G37*
G36*
X90310000Y-67980000D02*
G01*
X87910000Y-67980000D01*
X87910000Y-65980000D01*
X90310000Y-65980000D01*
X90310000Y-67980000D01*
X90310000Y-67980000D01*
G37*
G36*
X106110000Y-67830000D02*
G01*
X104210000Y-67830000D01*
X104210000Y-66130000D01*
X106110000Y-66130000D01*
X106110000Y-67830000D01*
X106110000Y-67830000D01*
G37*
G36*
X103410000Y-67830000D02*
G01*
X101510000Y-67830000D01*
X101510000Y-66130000D01*
X103410000Y-66130000D01*
X103410000Y-67830000D01*
X103410000Y-67830000D01*
G37*
G36*
X90630000Y-65290000D02*
G01*
X88730000Y-65290000D01*
X88730000Y-63590000D01*
X90630000Y-63590000D01*
X90630000Y-65290000D01*
X90630000Y-65290000D01*
G37*
G36*
X93330000Y-65290000D02*
G01*
X91430000Y-65290000D01*
X91430000Y-63590000D01*
X93330000Y-63590000D01*
X93330000Y-65290000D01*
X93330000Y-65290000D01*
G37*
G36*
X98380000Y-59640000D02*
G01*
X96280000Y-59640000D01*
X96280000Y-58440000D01*
X98380000Y-58440000D01*
X98380000Y-59640000D01*
X98380000Y-59640000D01*
G37*
G36*
X84640000Y-57914161D02*
G01*
X84642402Y-57938547D01*
X84649515Y-57961996D01*
X84661066Y-57983607D01*
X84676611Y-58002549D01*
X84695553Y-58018094D01*
X84717164Y-58029645D01*
X84740613Y-58036758D01*
X84764999Y-58039160D01*
X84789385Y-58036758D01*
X84812834Y-58029645D01*
X84834445Y-58018094D01*
X84853387Y-58002549D01*
X84868932Y-57983607D01*
X84880483Y-57961996D01*
X84887596Y-57938547D01*
X84924194Y-57754559D01*
X84924194Y-57754557D01*
X85010884Y-57545271D01*
X85136737Y-57356918D01*
X85296918Y-57196737D01*
X85485271Y-57070884D01*
X85489979Y-57068934D01*
X85531896Y-57051571D01*
X85694557Y-56984194D01*
X85842676Y-56954731D01*
X85916734Y-56940000D01*
X86143266Y-56940000D01*
X86217324Y-56954731D01*
X86365443Y-56984194D01*
X86528104Y-57051571D01*
X86570022Y-57068934D01*
X86574729Y-57070884D01*
X86763082Y-57196737D01*
X86923263Y-57356918D01*
X87049116Y-57545271D01*
X87135806Y-57754557D01*
X87180000Y-57976735D01*
X87180000Y-58203265D01*
X87135806Y-58425443D01*
X87049116Y-58634729D01*
X86923263Y-58823082D01*
X86763082Y-58983263D01*
X86574729Y-59109116D01*
X86365443Y-59195806D01*
X86217324Y-59225269D01*
X86143266Y-59240000D01*
X85916734Y-59240000D01*
X85842676Y-59225269D01*
X85694557Y-59195806D01*
X85485271Y-59109116D01*
X85296918Y-58983263D01*
X85136737Y-58823082D01*
X85010884Y-58634729D01*
X84924194Y-58425443D01*
X84887596Y-58241453D01*
X84880483Y-58218004D01*
X84868932Y-58196393D01*
X84853386Y-58177451D01*
X84834444Y-58161906D01*
X84812834Y-58150355D01*
X84789385Y-58143242D01*
X84764999Y-58140840D01*
X84740613Y-58143242D01*
X84717164Y-58150355D01*
X84695553Y-58161906D01*
X84676611Y-58177452D01*
X84661066Y-58196394D01*
X84649515Y-58218004D01*
X84642402Y-58241453D01*
X84640000Y-58265839D01*
X84640000Y-59240000D01*
X82340000Y-59240000D01*
X82340000Y-56940000D01*
X84640000Y-56940000D01*
X84640000Y-57914161D01*
X84640000Y-57914161D01*
G37*
G36*
X69707324Y-56954731D02*
G01*
X69855443Y-56984194D01*
X70018104Y-57051571D01*
X70060022Y-57068934D01*
X70064729Y-57070884D01*
X70253082Y-57196737D01*
X70413263Y-57356918D01*
X70539116Y-57545271D01*
X70625806Y-57754557D01*
X70625806Y-57754559D01*
X70662404Y-57938547D01*
X70669517Y-57961996D01*
X70681068Y-57983607D01*
X70696614Y-58002549D01*
X70715556Y-58018094D01*
X70737166Y-58029645D01*
X70760615Y-58036758D01*
X70785001Y-58039160D01*
X70809387Y-58036758D01*
X70832836Y-58029645D01*
X70854447Y-58018094D01*
X70873389Y-58002548D01*
X70888934Y-57983606D01*
X70900485Y-57961996D01*
X70907598Y-57938547D01*
X70910000Y-57914161D01*
X70910000Y-56940000D01*
X73210000Y-56940000D01*
X73210000Y-59240000D01*
X70910000Y-59240000D01*
X70910000Y-58265839D01*
X70907598Y-58241453D01*
X70900485Y-58218004D01*
X70888934Y-58196393D01*
X70873389Y-58177451D01*
X70854447Y-58161906D01*
X70832836Y-58150355D01*
X70809387Y-58143242D01*
X70785001Y-58140840D01*
X70760615Y-58143242D01*
X70737166Y-58150355D01*
X70715555Y-58161906D01*
X70696613Y-58177451D01*
X70681068Y-58196393D01*
X70669517Y-58218004D01*
X70662404Y-58241453D01*
X70625806Y-58425443D01*
X70539116Y-58634729D01*
X70413263Y-58823082D01*
X70253082Y-58983263D01*
X70064729Y-59109116D01*
X69855443Y-59195806D01*
X69707324Y-59225269D01*
X69633266Y-59240000D01*
X69406734Y-59240000D01*
X69332676Y-59225269D01*
X69184557Y-59195806D01*
X68975271Y-59109116D01*
X68786918Y-58983263D01*
X68626737Y-58823082D01*
X68500884Y-58634729D01*
X68414194Y-58425443D01*
X68370000Y-58203265D01*
X68370000Y-57976735D01*
X68414194Y-57754557D01*
X68500884Y-57545271D01*
X68626737Y-57356918D01*
X68786918Y-57196737D01*
X68975271Y-57070884D01*
X68979979Y-57068934D01*
X69021896Y-57051571D01*
X69184557Y-56984194D01*
X69332676Y-56954731D01*
X69406734Y-56940000D01*
X69633266Y-56940000D01*
X69707324Y-56954731D01*
X69707324Y-56954731D01*
G37*
G36*
X112580000Y-57914161D02*
G01*
X112582402Y-57938547D01*
X112589515Y-57961996D01*
X112601066Y-57983607D01*
X112616611Y-58002549D01*
X112635553Y-58018094D01*
X112657164Y-58029645D01*
X112680613Y-58036758D01*
X112704999Y-58039160D01*
X112729385Y-58036758D01*
X112752834Y-58029645D01*
X112774445Y-58018094D01*
X112793387Y-58002549D01*
X112808932Y-57983607D01*
X112820483Y-57961996D01*
X112827596Y-57938547D01*
X112864194Y-57754559D01*
X112864194Y-57754557D01*
X112950884Y-57545271D01*
X113076737Y-57356918D01*
X113236918Y-57196737D01*
X113425271Y-57070884D01*
X113429979Y-57068934D01*
X113471896Y-57051571D01*
X113634557Y-56984194D01*
X113782676Y-56954731D01*
X113856734Y-56940000D01*
X114083266Y-56940000D01*
X114157324Y-56954731D01*
X114305443Y-56984194D01*
X114468104Y-57051571D01*
X114510022Y-57068934D01*
X114514729Y-57070884D01*
X114703082Y-57196737D01*
X114863263Y-57356918D01*
X114989116Y-57545271D01*
X115075806Y-57754557D01*
X115120000Y-57976735D01*
X115120000Y-58203265D01*
X115075806Y-58425443D01*
X114989116Y-58634729D01*
X114863263Y-58823082D01*
X114703082Y-58983263D01*
X114514729Y-59109116D01*
X114305443Y-59195806D01*
X114157324Y-59225269D01*
X114083266Y-59240000D01*
X113856734Y-59240000D01*
X113782676Y-59225269D01*
X113634557Y-59195806D01*
X113425271Y-59109116D01*
X113236918Y-58983263D01*
X113076737Y-58823082D01*
X112950884Y-58634729D01*
X112864194Y-58425443D01*
X112827596Y-58241453D01*
X112820483Y-58218004D01*
X112808932Y-58196393D01*
X112793386Y-58177451D01*
X112774444Y-58161906D01*
X112752834Y-58150355D01*
X112729385Y-58143242D01*
X112704999Y-58140840D01*
X112680613Y-58143242D01*
X112657164Y-58150355D01*
X112635553Y-58161906D01*
X112616611Y-58177452D01*
X112601066Y-58196394D01*
X112589515Y-58218004D01*
X112582402Y-58241453D01*
X112580000Y-58265839D01*
X112580000Y-59240000D01*
X110280000Y-59240000D01*
X110280000Y-56940000D01*
X112580000Y-56940000D01*
X112580000Y-57914161D01*
X112580000Y-57914161D01*
G37*
G36*
X119520000Y-59090000D02*
G01*
X117120000Y-59090000D01*
X117120000Y-57090000D01*
X119520000Y-57090000D01*
X119520000Y-59090000D01*
X119520000Y-59090000D01*
G37*
G36*
X123520000Y-59090000D02*
G01*
X121120000Y-59090000D01*
X121120000Y-57090000D01*
X123520000Y-57090000D01*
X123520000Y-59090000D01*
X123520000Y-59090000D01*
G37*
G36*
X92607290Y-55115619D02*
G01*
X92671689Y-55128429D01*
X92853678Y-55203811D01*
X93017463Y-55313249D01*
X93156751Y-55452537D01*
X93266189Y-55616322D01*
X93341571Y-55798311D01*
X93341571Y-55798312D01*
X93378275Y-55982834D01*
X93380000Y-55991509D01*
X93380000Y-56188491D01*
X93341571Y-56381689D01*
X93266189Y-56563678D01*
X93156751Y-56727463D01*
X93017463Y-56866751D01*
X93017457Y-56866755D01*
X93010225Y-56873987D01*
X93007023Y-56876615D01*
X92991478Y-56895557D01*
X92979927Y-56917168D01*
X92972814Y-56940617D01*
X92970413Y-56965003D01*
X92972815Y-56989389D01*
X92979929Y-57012838D01*
X92991480Y-57034449D01*
X93007026Y-57053390D01*
X93025968Y-57068935D01*
X93047579Y-57080486D01*
X93071028Y-57087599D01*
X93095412Y-57090000D01*
X93380000Y-57090000D01*
X93380000Y-59090000D01*
X91380000Y-59090000D01*
X91380000Y-57090000D01*
X91664588Y-57090000D01*
X91688974Y-57087598D01*
X91712423Y-57080485D01*
X91734034Y-57068934D01*
X91752976Y-57053389D01*
X91768521Y-57034447D01*
X91780072Y-57012836D01*
X91787185Y-56989387D01*
X91789587Y-56965001D01*
X91787185Y-56940615D01*
X91780072Y-56917166D01*
X91768521Y-56895555D01*
X91752976Y-56876613D01*
X91749769Y-56873981D01*
X91742543Y-56866755D01*
X91742537Y-56866751D01*
X91603249Y-56727463D01*
X91493811Y-56563678D01*
X91418429Y-56381689D01*
X91380000Y-56188491D01*
X91380000Y-55991509D01*
X91381726Y-55982834D01*
X91418429Y-55798312D01*
X91418429Y-55798311D01*
X91493811Y-55616322D01*
X91603249Y-55452537D01*
X91742537Y-55313249D01*
X91906322Y-55203811D01*
X92088311Y-55128429D01*
X92152710Y-55115619D01*
X92281507Y-55090000D01*
X92478493Y-55090000D01*
X92607290Y-55115619D01*
X92607290Y-55115619D01*
G37*
G36*
X63397290Y-55115619D02*
G01*
X63461689Y-55128429D01*
X63643678Y-55203811D01*
X63807463Y-55313249D01*
X63946751Y-55452537D01*
X64056189Y-55616322D01*
X64131571Y-55798311D01*
X64131571Y-55798312D01*
X64168275Y-55982834D01*
X64170000Y-55991509D01*
X64170000Y-56188491D01*
X64131571Y-56381689D01*
X64056189Y-56563678D01*
X63946751Y-56727463D01*
X63807463Y-56866751D01*
X63807457Y-56866755D01*
X63800225Y-56873987D01*
X63797023Y-56876615D01*
X63781478Y-56895557D01*
X63769927Y-56917168D01*
X63762814Y-56940617D01*
X63760413Y-56965003D01*
X63762815Y-56989389D01*
X63769929Y-57012838D01*
X63781480Y-57034449D01*
X63797026Y-57053390D01*
X63815968Y-57068935D01*
X63837579Y-57080486D01*
X63861028Y-57087599D01*
X63885412Y-57090000D01*
X64170000Y-57090000D01*
X64170000Y-59090000D01*
X62170000Y-59090000D01*
X62170000Y-57090000D01*
X62454588Y-57090000D01*
X62478974Y-57087598D01*
X62502423Y-57080485D01*
X62524034Y-57068934D01*
X62542976Y-57053389D01*
X62558521Y-57034447D01*
X62570072Y-57012836D01*
X62577185Y-56989387D01*
X62579587Y-56965001D01*
X62577185Y-56940615D01*
X62570072Y-56917166D01*
X62558521Y-56895555D01*
X62542976Y-56876613D01*
X62539769Y-56873981D01*
X62532543Y-56866755D01*
X62532537Y-56866751D01*
X62393249Y-56727463D01*
X62283811Y-56563678D01*
X62208429Y-56381689D01*
X62170000Y-56188491D01*
X62170000Y-55991509D01*
X62171726Y-55982834D01*
X62208429Y-55798312D01*
X62208429Y-55798311D01*
X62283811Y-55616322D01*
X62393249Y-55452537D01*
X62532537Y-55313249D01*
X62696322Y-55203811D01*
X62878311Y-55128429D01*
X62942710Y-55115619D01*
X63071507Y-55090000D01*
X63268493Y-55090000D01*
X63397290Y-55115619D01*
X63397290Y-55115619D01*
G37*
G36*
X101180000Y-58690000D02*
G01*
X99080000Y-58690000D01*
X99080000Y-57490000D01*
X101180000Y-57490000D01*
X101180000Y-58690000D01*
X101180000Y-58690000D01*
G37*
G36*
X127140000Y-55810000D02*
G01*
X126165839Y-55810000D01*
X126141453Y-55812402D01*
X126118004Y-55819515D01*
X126096393Y-55831066D01*
X126077451Y-55846611D01*
X126061906Y-55865553D01*
X126050355Y-55887164D01*
X126043242Y-55910613D01*
X126040840Y-55934999D01*
X126043242Y-55959385D01*
X126050355Y-55982834D01*
X126061906Y-56004445D01*
X126077451Y-56023387D01*
X126096393Y-56038932D01*
X126118004Y-56050483D01*
X126141454Y-56057596D01*
X126325443Y-56094194D01*
X126534729Y-56180884D01*
X126723082Y-56306737D01*
X126883263Y-56466918D01*
X127009116Y-56655271D01*
X127095806Y-56864557D01*
X127115786Y-56965003D01*
X127136460Y-57068935D01*
X127140000Y-57086735D01*
X127140000Y-57313265D01*
X127095806Y-57535443D01*
X127009116Y-57744729D01*
X126883263Y-57933082D01*
X126723082Y-58093263D01*
X126534729Y-58219116D01*
X126325443Y-58305806D01*
X126177324Y-58335269D01*
X126103266Y-58350000D01*
X125876734Y-58350000D01*
X125802676Y-58335269D01*
X125654557Y-58305806D01*
X125445271Y-58219116D01*
X125256918Y-58093263D01*
X125096737Y-57933082D01*
X124970884Y-57744729D01*
X124884194Y-57535443D01*
X124840000Y-57313265D01*
X124840000Y-57086735D01*
X124843541Y-57068935D01*
X124864214Y-56965003D01*
X124884194Y-56864557D01*
X124970884Y-56655271D01*
X125096737Y-56466918D01*
X125256918Y-56306737D01*
X125445271Y-56180884D01*
X125654557Y-56094194D01*
X125838546Y-56057596D01*
X125861996Y-56050483D01*
X125883607Y-56038932D01*
X125902549Y-56023386D01*
X125918094Y-56004444D01*
X125929645Y-55982834D01*
X125936758Y-55959385D01*
X125939160Y-55934999D01*
X125936758Y-55910613D01*
X125929645Y-55887164D01*
X125918094Y-55865553D01*
X125902548Y-55846611D01*
X125883606Y-55831066D01*
X125861996Y-55819515D01*
X125838547Y-55812402D01*
X125814161Y-55810000D01*
X124840000Y-55810000D01*
X124840000Y-53510000D01*
X127140000Y-53510000D01*
X127140000Y-55810000D01*
X127140000Y-55810000D01*
G37*
G36*
X98380000Y-57740000D02*
G01*
X96280000Y-57740000D01*
X96280000Y-56540000D01*
X98380000Y-56540000D01*
X98380000Y-57740000D01*
X98380000Y-57740000D01*
G37*
G36*
X107300000Y-56400000D02*
G01*
X105400000Y-56400000D01*
X105400000Y-54700000D01*
X107300000Y-54700000D01*
X107300000Y-56400000D01*
X107300000Y-56400000D01*
G37*
G36*
X104600000Y-56400000D02*
G01*
X102700000Y-56400000D01*
X102700000Y-54700000D01*
X104600000Y-54700000D01*
X104600000Y-56400000D01*
X104600000Y-56400000D01*
G37*
G36*
X115200000Y-54510000D02*
G01*
X113200000Y-54510000D01*
X113200000Y-51510000D01*
X115200000Y-51510000D01*
X115200000Y-54510000D01*
X115200000Y-54510000D01*
G37*
G36*
X112200000Y-54510000D02*
G01*
X110200000Y-54510000D01*
X110200000Y-53410000D01*
X112200000Y-53410000D01*
X112200000Y-54510000D01*
X112200000Y-54510000D01*
G37*
G36*
X92185000Y-54225000D02*
G01*
X89135000Y-54225000D01*
X89135000Y-51795000D01*
X92185000Y-51795000D01*
X92185000Y-54225000D01*
X92185000Y-54225000D01*
G37*
G36*
X88005000Y-54225000D02*
G01*
X84955000Y-54225000D01*
X84955000Y-51795000D01*
X88005000Y-51795000D01*
X88005000Y-54225000D01*
X88005000Y-54225000D01*
G37*
G36*
X101870000Y-54190000D02*
G01*
X100670000Y-54190000D01*
X100670000Y-52090000D01*
X101870000Y-52090000D01*
X101870000Y-54190000D01*
X101870000Y-54190000D01*
G37*
G36*
X97220000Y-53860000D02*
G01*
X95320000Y-53860000D01*
X95320000Y-52160000D01*
X97220000Y-52160000D01*
X97220000Y-53860000D01*
X97220000Y-53860000D01*
G37*
G36*
X94520000Y-53860000D02*
G01*
X92620000Y-53860000D01*
X92620000Y-52160000D01*
X94520000Y-52160000D01*
X94520000Y-53860000D01*
X94520000Y-53860000D01*
G37*
G36*
X112200000Y-52610000D02*
G01*
X110200000Y-52610000D01*
X110200000Y-51510000D01*
X112200000Y-51510000D01*
X112200000Y-52610000D01*
X112200000Y-52610000D01*
G37*
G36*
X124040000Y-52020000D02*
G01*
X121940000Y-52020000D01*
X121940000Y-50820000D01*
X124040000Y-50820000D01*
X124040000Y-52020000D01*
X124040000Y-52020000D01*
G37*
G36*
X84590000Y-51570000D02*
G01*
X82390000Y-51570000D01*
X82390000Y-49370000D01*
X84590000Y-49370000D01*
X84590000Y-51570000D01*
X84590000Y-51570000D01*
G37*
G36*
X81270857Y-49412272D02*
G01*
X81471043Y-49495192D01*
X81471045Y-49495193D01*
X81561738Y-49555792D01*
X81651208Y-49615574D01*
X81804426Y-49768792D01*
X81924808Y-49948957D01*
X82007728Y-50149143D01*
X82050000Y-50361658D01*
X82050000Y-50578342D01*
X82007728Y-50790857D01*
X81924808Y-50991043D01*
X81924807Y-50991045D01*
X81804425Y-51171209D01*
X81651209Y-51324425D01*
X81471045Y-51444807D01*
X81471044Y-51444808D01*
X81471043Y-51444808D01*
X81270857Y-51527728D01*
X81058342Y-51570000D01*
X80841658Y-51570000D01*
X80629143Y-51527728D01*
X80428957Y-51444808D01*
X80428956Y-51444808D01*
X80428955Y-51444807D01*
X80248791Y-51324425D01*
X80095575Y-51171209D01*
X79975193Y-50991045D01*
X79975192Y-50991043D01*
X79892272Y-50790857D01*
X79850000Y-50578342D01*
X79850000Y-50361658D01*
X79892272Y-50149143D01*
X79975192Y-49948957D01*
X80095574Y-49768792D01*
X80248792Y-49615574D01*
X80338262Y-49555792D01*
X80428955Y-49495193D01*
X80428957Y-49495192D01*
X80629143Y-49412272D01*
X80841658Y-49370000D01*
X81058342Y-49370000D01*
X81270857Y-49412272D01*
X81270857Y-49412272D01*
G37*
G36*
X102820000Y-51390000D02*
G01*
X101620000Y-51390000D01*
X101620000Y-49290000D01*
X102820000Y-49290000D01*
X102820000Y-51390000D01*
X102820000Y-51390000D01*
G37*
G36*
X100920000Y-51390000D02*
G01*
X99720000Y-51390000D01*
X99720000Y-49290000D01*
X100920000Y-49290000D01*
X100920000Y-51390000D01*
X100920000Y-51390000D01*
G37*
G36*
X79440000Y-51320000D02*
G01*
X77540000Y-51320000D01*
X77540000Y-49620000D01*
X79440000Y-49620000D01*
X79440000Y-51320000D01*
X79440000Y-51320000D01*
G37*
G36*
X76740000Y-51320000D02*
G01*
X74840000Y-51320000D01*
X74840000Y-49620000D01*
X76740000Y-49620000D01*
X76740000Y-51320000D01*
X76740000Y-51320000D01*
G37*
G36*
X121240000Y-51070000D02*
G01*
X119140000Y-51070000D01*
X119140000Y-49870000D01*
X121240000Y-49870000D01*
X121240000Y-51070000D01*
X121240000Y-51070000D01*
G37*
G36*
X124040000Y-50120000D02*
G01*
X121940000Y-50120000D01*
X121940000Y-48920000D01*
X124040000Y-48920000D01*
X124040000Y-50120000D01*
X124040000Y-50120000D01*
G37*
M02*
