G04 #@! TF.GenerationSoftware,KiCad,Pcbnew,(5.1.0)-1*
G04 #@! TF.CreationDate,2019-06-24T21:59:01+02:00*
G04 #@! TF.ProjectId,LampeSolaire,4c616d70-6553-46f6-9c61-6972652e6b69,6.2*
G04 #@! TF.SameCoordinates,Original*
G04 #@! TF.FileFunction,Legend,Bot*
G04 #@! TF.FilePolarity,Positive*
%FSLAX46Y46*%
G04 Gerber Fmt 4.6, Leading zero omitted, Abs format (unit mm)*
G04 Created by KiCad (PCBNEW (5.1.0)-1) date 2019-06-24 21:59:01*
%MOMM*%
%LPD*%
G04 APERTURE LIST*
%ADD10C,0.300000*%
%ADD11C,0.120000*%
%ADD12C,0.150000*%
G04 APERTURE END LIST*
D10*
X128485714Y-97578571D02*
X129200000Y-97578571D01*
X129200000Y-96078571D01*
X127342857Y-97578571D02*
X127342857Y-96792857D01*
X127414285Y-96650000D01*
X127557142Y-96578571D01*
X127842857Y-96578571D01*
X127985714Y-96650000D01*
X127342857Y-97507142D02*
X127485714Y-97578571D01*
X127842857Y-97578571D01*
X127985714Y-97507142D01*
X128057142Y-97364285D01*
X128057142Y-97221428D01*
X127985714Y-97078571D01*
X127842857Y-97007142D01*
X127485714Y-97007142D01*
X127342857Y-96935714D01*
X126628571Y-97578571D02*
X126628571Y-96578571D01*
X126628571Y-96721428D02*
X126557142Y-96650000D01*
X126414285Y-96578571D01*
X126200000Y-96578571D01*
X126057142Y-96650000D01*
X125985714Y-96792857D01*
X125985714Y-97578571D01*
X125985714Y-96792857D02*
X125914285Y-96650000D01*
X125771428Y-96578571D01*
X125557142Y-96578571D01*
X125414285Y-96650000D01*
X125342857Y-96792857D01*
X125342857Y-97578571D01*
X124628571Y-96578571D02*
X124628571Y-98078571D01*
X124628571Y-96650000D02*
X124485714Y-96578571D01*
X124200000Y-96578571D01*
X124057142Y-96650000D01*
X123985714Y-96721428D01*
X123914285Y-96864285D01*
X123914285Y-97292857D01*
X123985714Y-97435714D01*
X124057142Y-97507142D01*
X124200000Y-97578571D01*
X124485714Y-97578571D01*
X124628571Y-97507142D01*
X122700000Y-97507142D02*
X122842857Y-97578571D01*
X123128571Y-97578571D01*
X123271428Y-97507142D01*
X123342857Y-97364285D01*
X123342857Y-96792857D01*
X123271428Y-96650000D01*
X123128571Y-96578571D01*
X122842857Y-96578571D01*
X122700000Y-96650000D01*
X122628571Y-96792857D01*
X122628571Y-96935714D01*
X123342857Y-97078571D01*
X120914285Y-97507142D02*
X120700000Y-97578571D01*
X120342857Y-97578571D01*
X120200000Y-97507142D01*
X120128571Y-97435714D01*
X120057142Y-97292857D01*
X120057142Y-97150000D01*
X120128571Y-97007142D01*
X120200000Y-96935714D01*
X120342857Y-96864285D01*
X120628571Y-96792857D01*
X120771428Y-96721428D01*
X120842857Y-96650000D01*
X120914285Y-96507142D01*
X120914285Y-96364285D01*
X120842857Y-96221428D01*
X120771428Y-96150000D01*
X120628571Y-96078571D01*
X120271428Y-96078571D01*
X120057142Y-96150000D01*
X119200000Y-97578571D02*
X119342857Y-97507142D01*
X119414285Y-97435714D01*
X119485714Y-97292857D01*
X119485714Y-96864285D01*
X119414285Y-96721428D01*
X119342857Y-96650000D01*
X119200000Y-96578571D01*
X118985714Y-96578571D01*
X118842857Y-96650000D01*
X118771428Y-96721428D01*
X118700000Y-96864285D01*
X118700000Y-97292857D01*
X118771428Y-97435714D01*
X118842857Y-97507142D01*
X118985714Y-97578571D01*
X119200000Y-97578571D01*
X117842857Y-97578571D02*
X117985714Y-97507142D01*
X118057142Y-97364285D01*
X118057142Y-96078571D01*
X116628571Y-97578571D02*
X116628571Y-96792857D01*
X116700000Y-96650000D01*
X116842857Y-96578571D01*
X117128571Y-96578571D01*
X117271428Y-96650000D01*
X116628571Y-97507142D02*
X116771428Y-97578571D01*
X117128571Y-97578571D01*
X117271428Y-97507142D01*
X117342857Y-97364285D01*
X117342857Y-97221428D01*
X117271428Y-97078571D01*
X117128571Y-97007142D01*
X116771428Y-97007142D01*
X116628571Y-96935714D01*
X115914285Y-97578571D02*
X115914285Y-96578571D01*
X115914285Y-96078571D02*
X115985714Y-96150000D01*
X115914285Y-96221428D01*
X115842857Y-96150000D01*
X115914285Y-96078571D01*
X115914285Y-96221428D01*
X115200000Y-97578571D02*
X115200000Y-96578571D01*
X115200000Y-96864285D02*
X115128571Y-96721428D01*
X115057142Y-96650000D01*
X114914285Y-96578571D01*
X114771428Y-96578571D01*
X113700000Y-97507142D02*
X113842857Y-97578571D01*
X114128571Y-97578571D01*
X114271428Y-97507142D01*
X114342857Y-97364285D01*
X114342857Y-96792857D01*
X114271428Y-96650000D01*
X114128571Y-96578571D01*
X113842857Y-96578571D01*
X113700000Y-96650000D01*
X113628571Y-96792857D01*
X113628571Y-96935714D01*
X114342857Y-97078571D01*
X130664285Y-98771428D02*
X130592857Y-98700000D01*
X130450000Y-98628571D01*
X130092857Y-98628571D01*
X129950000Y-98700000D01*
X129878571Y-98771428D01*
X129807142Y-98914285D01*
X129807142Y-99057142D01*
X129878571Y-99271428D01*
X130735714Y-100128571D01*
X129807142Y-100128571D01*
X128521428Y-99128571D02*
X128521428Y-100128571D01*
X128878571Y-98557142D02*
X129235714Y-99628571D01*
X128307142Y-99628571D01*
X127735714Y-99985714D02*
X127664285Y-100057142D01*
X127735714Y-100128571D01*
X127807142Y-100057142D01*
X127735714Y-99985714D01*
X127735714Y-100128571D01*
X126735714Y-98628571D02*
X126592857Y-98628571D01*
X126450000Y-98700000D01*
X126378571Y-98771428D01*
X126307142Y-98914285D01*
X126235714Y-99200000D01*
X126235714Y-99557142D01*
X126307142Y-99842857D01*
X126378571Y-99985714D01*
X126450000Y-100057142D01*
X126592857Y-100128571D01*
X126735714Y-100128571D01*
X126878571Y-100057142D01*
X126950000Y-99985714D01*
X127021428Y-99842857D01*
X127092857Y-99557142D01*
X127092857Y-99200000D01*
X127021428Y-98914285D01*
X126950000Y-98771428D01*
X126878571Y-98700000D01*
X126735714Y-98628571D01*
X124950000Y-98628571D02*
X125235714Y-98628571D01*
X125378571Y-98700000D01*
X125450000Y-98771428D01*
X125592857Y-98985714D01*
X125664285Y-99271428D01*
X125664285Y-99842857D01*
X125592857Y-99985714D01*
X125521428Y-100057142D01*
X125378571Y-100128571D01*
X125092857Y-100128571D01*
X124950000Y-100057142D01*
X124878571Y-99985714D01*
X124807142Y-99842857D01*
X124807142Y-99485714D01*
X124878571Y-99342857D01*
X124950000Y-99271428D01*
X125092857Y-99200000D01*
X125378571Y-99200000D01*
X125521428Y-99271428D01*
X125592857Y-99342857D01*
X125664285Y-99485714D01*
X124164285Y-99985714D02*
X124092857Y-100057142D01*
X124164285Y-100128571D01*
X124235714Y-100057142D01*
X124164285Y-99985714D01*
X124164285Y-100128571D01*
X122664285Y-100128571D02*
X123521428Y-100128571D01*
X123092857Y-100128571D02*
X123092857Y-98628571D01*
X123235714Y-98842857D01*
X123378571Y-98985714D01*
X123521428Y-99057142D01*
X121950000Y-100128571D02*
X121664285Y-100128571D01*
X121521428Y-100057142D01*
X121450000Y-99985714D01*
X121307142Y-99771428D01*
X121235714Y-99485714D01*
X121235714Y-98914285D01*
X121307142Y-98771428D01*
X121378571Y-98700000D01*
X121521428Y-98628571D01*
X121807142Y-98628571D01*
X121950000Y-98700000D01*
X122021428Y-98771428D01*
X122092857Y-98914285D01*
X122092857Y-99271428D01*
X122021428Y-99414285D01*
X121950000Y-99485714D01*
X121807142Y-99557142D01*
X121521428Y-99557142D01*
X121378571Y-99485714D01*
X121307142Y-99414285D01*
X121235714Y-99271428D01*
X119450000Y-99557142D02*
X118307142Y-99557142D01*
X116664285Y-98628571D02*
X116164285Y-100128571D01*
X115664285Y-98628571D01*
X114521428Y-98628571D02*
X114807142Y-98628571D01*
X114950000Y-98700000D01*
X115021428Y-98771428D01*
X115164285Y-98985714D01*
X115235714Y-99271428D01*
X115235714Y-99842857D01*
X115164285Y-99985714D01*
X115092857Y-100057142D01*
X114950000Y-100128571D01*
X114664285Y-100128571D01*
X114521428Y-100057142D01*
X114450000Y-99985714D01*
X114378571Y-99842857D01*
X114378571Y-99485714D01*
X114450000Y-99342857D01*
X114521428Y-99271428D01*
X114664285Y-99200000D01*
X114950000Y-99200000D01*
X115092857Y-99271428D01*
X115164285Y-99342857D01*
X115235714Y-99485714D01*
X113735714Y-99985714D02*
X113664285Y-100057142D01*
X113735714Y-100128571D01*
X113807142Y-100057142D01*
X113735714Y-99985714D01*
X113735714Y-100128571D01*
X113092857Y-98771428D02*
X113021428Y-98700000D01*
X112878571Y-98628571D01*
X112521428Y-98628571D01*
X112378571Y-98700000D01*
X112307142Y-98771428D01*
X112235714Y-98914285D01*
X112235714Y-99057142D01*
X112307142Y-99271428D01*
X113164285Y-100128571D01*
X112235714Y-100128571D01*
X126021428Y-101892857D02*
X125521428Y-101892857D01*
X125307142Y-102678571D02*
X126021428Y-102678571D01*
X126021428Y-101178571D01*
X125307142Y-101178571D01*
X124735714Y-102607142D02*
X124592857Y-102678571D01*
X124307142Y-102678571D01*
X124164285Y-102607142D01*
X124092857Y-102464285D01*
X124092857Y-102392857D01*
X124164285Y-102250000D01*
X124307142Y-102178571D01*
X124521428Y-102178571D01*
X124664285Y-102107142D01*
X124735714Y-101964285D01*
X124735714Y-101892857D01*
X124664285Y-101750000D01*
X124521428Y-101678571D01*
X124307142Y-101678571D01*
X124164285Y-101750000D01*
X123521428Y-102607142D02*
X123378571Y-102678571D01*
X123092857Y-102678571D01*
X122950000Y-102607142D01*
X122878571Y-102464285D01*
X122878571Y-102392857D01*
X122950000Y-102250000D01*
X123092857Y-102178571D01*
X123307142Y-102178571D01*
X123450000Y-102107142D01*
X123521428Y-101964285D01*
X123521428Y-101892857D01*
X123450000Y-101750000D01*
X123307142Y-101678571D01*
X123092857Y-101678571D01*
X122950000Y-101750000D01*
X121664285Y-102607142D02*
X121807142Y-102678571D01*
X122092857Y-102678571D01*
X122235714Y-102607142D01*
X122307142Y-102464285D01*
X122307142Y-101892857D01*
X122235714Y-101750000D01*
X122092857Y-101678571D01*
X121807142Y-101678571D01*
X121664285Y-101750000D01*
X121592857Y-101892857D01*
X121592857Y-102035714D01*
X122307142Y-102178571D01*
X120950000Y-102678571D02*
X120950000Y-101678571D01*
X120950000Y-101178571D02*
X121021428Y-101250000D01*
X120950000Y-101321428D01*
X120878571Y-101250000D01*
X120950000Y-101178571D01*
X120950000Y-101321428D01*
X120378571Y-101678571D02*
X120021428Y-102678571D01*
X119664285Y-101678571D01*
X118450000Y-102678571D02*
X118450000Y-101892857D01*
X118521428Y-101750000D01*
X118664285Y-101678571D01*
X118950000Y-101678571D01*
X119092857Y-101750000D01*
X118450000Y-102607142D02*
X118592857Y-102678571D01*
X118950000Y-102678571D01*
X119092857Y-102607142D01*
X119164285Y-102464285D01*
X119164285Y-102321428D01*
X119092857Y-102178571D01*
X118950000Y-102107142D01*
X118592857Y-102107142D01*
X118450000Y-102035714D01*
X117735714Y-102678571D02*
X117735714Y-101178571D01*
X116878571Y-102678571D01*
X116878571Y-101178571D01*
D11*
X104410000Y-66100000D02*
X103210000Y-66100000D01*
X103210000Y-67860000D02*
X104410000Y-67860000D01*
X99490000Y-56510000D02*
X98030000Y-56510000D01*
X99490000Y-59670000D02*
X96330000Y-59670000D01*
X99490000Y-59670000D02*
X99490000Y-58740000D01*
X99490000Y-56510000D02*
X99490000Y-57440000D01*
X111900000Y-51410000D02*
X114200000Y-51410000D01*
X113500000Y-54610000D02*
X111900000Y-54610000D01*
X114200000Y-51410000D02*
X114700000Y-50810000D01*
X102850000Y-52500000D02*
X102850000Y-51040000D01*
X99690000Y-52500000D02*
X99690000Y-49340000D01*
X99690000Y-52500000D02*
X100620000Y-52500000D01*
X102850000Y-52500000D02*
X101920000Y-52500000D01*
X120830000Y-52050000D02*
X122290000Y-52050000D01*
X120830000Y-48890000D02*
X123990000Y-48890000D01*
X120830000Y-48890000D02*
X120830000Y-49820000D01*
X120830000Y-52050000D02*
X120830000Y-51120000D01*
X76540000Y-51350000D02*
X77740000Y-51350000D01*
X77740000Y-49590000D02*
X76540000Y-49590000D01*
X95520000Y-52130000D02*
X94320000Y-52130000D01*
X94320000Y-53890000D02*
X95520000Y-53890000D01*
X104400000Y-56430000D02*
X105600000Y-56430000D01*
X105600000Y-54670000D02*
X104400000Y-54670000D01*
X99120000Y-79000000D02*
X99120000Y-80200000D01*
X100880000Y-80200000D02*
X100880000Y-79000000D01*
X73930000Y-83880000D02*
X72730000Y-83880000D01*
X72730000Y-85640000D02*
X73930000Y-85640000D01*
X90430000Y-65320000D02*
X91630000Y-65320000D01*
X91630000Y-63560000D02*
X90430000Y-63560000D01*
X100830000Y-91990000D02*
X102030000Y-91990000D01*
X102030000Y-90230000D02*
X100830000Y-90230000D01*
X68640000Y-70190000D02*
X68640000Y-71390000D01*
X70400000Y-71390000D02*
X70400000Y-70190000D01*
X89570000Y-51940000D02*
X87570000Y-51940000D01*
X87570000Y-54080000D02*
X89570000Y-54080000D01*
X69100000Y-51260000D02*
X69100000Y-52260000D01*
X67400000Y-52260000D02*
X67400000Y-51260000D01*
X108735000Y-91960000D02*
X107735000Y-91960000D01*
X107735000Y-90260000D02*
X108735000Y-90260000D01*
X118550000Y-57240000D02*
X119550000Y-57240000D01*
X119550000Y-58940000D02*
X118550000Y-58940000D01*
X72830000Y-75020000D02*
X73830000Y-75020000D01*
X73830000Y-76720000D02*
X72830000Y-76720000D01*
X90610000Y-66130000D02*
X91610000Y-66130000D01*
X91610000Y-67830000D02*
X90610000Y-67830000D01*
X67480000Y-64020000D02*
X66480000Y-64020000D01*
X66480000Y-62320000D02*
X67480000Y-62320000D01*
X103390000Y-79180000D02*
X103390000Y-80180000D01*
X101690000Y-80180000D02*
X101690000Y-79180000D01*
D12*
X81490000Y-51370000D02*
X81490000Y-49570000D01*
X83390000Y-49570000D02*
X83440000Y-49570000D01*
X81490000Y-49570000D02*
X83790000Y-49570000D01*
X81490000Y-51370000D02*
X83840000Y-51370000D01*
X103976666Y-65732380D02*
X104310000Y-65256190D01*
X104548095Y-65732380D02*
X104548095Y-64732380D01*
X104167142Y-64732380D01*
X104071904Y-64780000D01*
X104024285Y-64827619D01*
X103976666Y-64922857D01*
X103976666Y-65065714D01*
X104024285Y-65160952D01*
X104071904Y-65208571D01*
X104167142Y-65256190D01*
X104548095Y-65256190D01*
X103500476Y-65732380D02*
X103310000Y-65732380D01*
X103214761Y-65684761D01*
X103167142Y-65637142D01*
X103071904Y-65494285D01*
X103024285Y-65303809D01*
X103024285Y-64922857D01*
X103071904Y-64827619D01*
X103119523Y-64780000D01*
X103214761Y-64732380D01*
X103405238Y-64732380D01*
X103500476Y-64780000D01*
X103548095Y-64827619D01*
X103595714Y-64922857D01*
X103595714Y-65160952D01*
X103548095Y-65256190D01*
X103500476Y-65303809D01*
X103405238Y-65351428D01*
X103214761Y-65351428D01*
X103119523Y-65303809D01*
X103071904Y-65256190D01*
X103024285Y-65160952D01*
X95681904Y-57812380D02*
X95681904Y-58621904D01*
X95634285Y-58717142D01*
X95586666Y-58764761D01*
X95491428Y-58812380D01*
X95300952Y-58812380D01*
X95205714Y-58764761D01*
X95158095Y-58717142D01*
X95110476Y-58621904D01*
X95110476Y-57812380D01*
X94681904Y-57907619D02*
X94634285Y-57860000D01*
X94539047Y-57812380D01*
X94300952Y-57812380D01*
X94205714Y-57860000D01*
X94158095Y-57907619D01*
X94110476Y-58002857D01*
X94110476Y-58098095D01*
X94158095Y-58240952D01*
X94729523Y-58812380D01*
X94110476Y-58812380D01*
X113461904Y-50192380D02*
X113461904Y-51001904D01*
X113414285Y-51097142D01*
X113366666Y-51144761D01*
X113271428Y-51192380D01*
X113080952Y-51192380D01*
X112985714Y-51144761D01*
X112938095Y-51097142D01*
X112890476Y-51001904D01*
X112890476Y-50192380D01*
X112509523Y-50192380D02*
X111890476Y-50192380D01*
X112223809Y-50573333D01*
X112080952Y-50573333D01*
X111985714Y-50620952D01*
X111938095Y-50668571D01*
X111890476Y-50763809D01*
X111890476Y-51001904D01*
X111938095Y-51097142D01*
X111985714Y-51144761D01*
X112080952Y-51192380D01*
X112366666Y-51192380D01*
X112461904Y-51144761D01*
X112509523Y-51097142D01*
X102031904Y-47763380D02*
X101460476Y-47763380D01*
X101746190Y-48763380D02*
X101746190Y-47763380D01*
X101222380Y-47763380D02*
X100603333Y-47763380D01*
X100936666Y-48144333D01*
X100793809Y-48144333D01*
X100698571Y-48191952D01*
X100650952Y-48239571D01*
X100603333Y-48334809D01*
X100603333Y-48572904D01*
X100650952Y-48668142D01*
X100698571Y-48715761D01*
X100793809Y-48763380D01*
X101079523Y-48763380D01*
X101174761Y-48715761D01*
X101222380Y-48668142D01*
X122351904Y-52732380D02*
X121780476Y-52732380D01*
X122066190Y-53732380D02*
X122066190Y-52732380D01*
X121494761Y-52827619D02*
X121447142Y-52780000D01*
X121351904Y-52732380D01*
X121113809Y-52732380D01*
X121018571Y-52780000D01*
X120970952Y-52827619D01*
X120923333Y-52922857D01*
X120923333Y-53018095D01*
X120970952Y-53160952D01*
X121542380Y-53732380D01*
X120923333Y-53732380D01*
X77306666Y-49287380D02*
X77640000Y-48811190D01*
X77878095Y-49287380D02*
X77878095Y-48287380D01*
X77497142Y-48287380D01*
X77401904Y-48335000D01*
X77354285Y-48382619D01*
X77306666Y-48477857D01*
X77306666Y-48620714D01*
X77354285Y-48715952D01*
X77401904Y-48763571D01*
X77497142Y-48811190D01*
X77878095Y-48811190D01*
X76354285Y-49287380D02*
X76925714Y-49287380D01*
X76640000Y-49287380D02*
X76640000Y-48287380D01*
X76735238Y-48430238D01*
X76830476Y-48525476D01*
X76925714Y-48573095D01*
X95086666Y-51762380D02*
X95420000Y-51286190D01*
X95658095Y-51762380D02*
X95658095Y-50762380D01*
X95277142Y-50762380D01*
X95181904Y-50810000D01*
X95134285Y-50857619D01*
X95086666Y-50952857D01*
X95086666Y-51095714D01*
X95134285Y-51190952D01*
X95181904Y-51238571D01*
X95277142Y-51286190D01*
X95658095Y-51286190D01*
X94753333Y-50762380D02*
X94134285Y-50762380D01*
X94467619Y-51143333D01*
X94324761Y-51143333D01*
X94229523Y-51190952D01*
X94181904Y-51238571D01*
X94134285Y-51333809D01*
X94134285Y-51571904D01*
X94181904Y-51667142D01*
X94229523Y-51714761D01*
X94324761Y-51762380D01*
X94610476Y-51762380D01*
X94705714Y-51714761D01*
X94753333Y-51667142D01*
X105166666Y-57702380D02*
X105500000Y-57226190D01*
X105738095Y-57702380D02*
X105738095Y-56702380D01*
X105357142Y-56702380D01*
X105261904Y-56750000D01*
X105214285Y-56797619D01*
X105166666Y-56892857D01*
X105166666Y-57035714D01*
X105214285Y-57130952D01*
X105261904Y-57178571D01*
X105357142Y-57226190D01*
X105738095Y-57226190D01*
X104309523Y-57035714D02*
X104309523Y-57702380D01*
X104547619Y-56654761D02*
X104785714Y-57369047D01*
X104166666Y-57369047D01*
X98752380Y-79433333D02*
X98276190Y-79100000D01*
X98752380Y-78861904D02*
X97752380Y-78861904D01*
X97752380Y-79242857D01*
X97800000Y-79338095D01*
X97847619Y-79385714D01*
X97942857Y-79433333D01*
X98085714Y-79433333D01*
X98180952Y-79385714D01*
X98228571Y-79338095D01*
X98276190Y-79242857D01*
X98276190Y-78861904D01*
X97752380Y-80338095D02*
X97752380Y-79861904D01*
X98228571Y-79814285D01*
X98180952Y-79861904D01*
X98133333Y-79957142D01*
X98133333Y-80195238D01*
X98180952Y-80290476D01*
X98228571Y-80338095D01*
X98323809Y-80385714D01*
X98561904Y-80385714D01*
X98657142Y-80338095D01*
X98704761Y-80290476D01*
X98752380Y-80195238D01*
X98752380Y-79957142D01*
X98704761Y-79861904D01*
X98657142Y-79814285D01*
X73496666Y-83512380D02*
X73830000Y-83036190D01*
X74068095Y-83512380D02*
X74068095Y-82512380D01*
X73687142Y-82512380D01*
X73591904Y-82560000D01*
X73544285Y-82607619D01*
X73496666Y-82702857D01*
X73496666Y-82845714D01*
X73544285Y-82940952D01*
X73591904Y-82988571D01*
X73687142Y-83036190D01*
X74068095Y-83036190D01*
X72639523Y-82512380D02*
X72830000Y-82512380D01*
X72925238Y-82560000D01*
X72972857Y-82607619D01*
X73068095Y-82750476D01*
X73115714Y-82940952D01*
X73115714Y-83321904D01*
X73068095Y-83417142D01*
X73020476Y-83464761D01*
X72925238Y-83512380D01*
X72734761Y-83512380D01*
X72639523Y-83464761D01*
X72591904Y-83417142D01*
X72544285Y-83321904D01*
X72544285Y-83083809D01*
X72591904Y-82988571D01*
X72639523Y-82940952D01*
X72734761Y-82893333D01*
X72925238Y-82893333D01*
X73020476Y-82940952D01*
X73068095Y-82988571D01*
X73115714Y-83083809D01*
X90641666Y-69607380D02*
X90975000Y-69131190D01*
X91213095Y-69607380D02*
X91213095Y-68607380D01*
X90832142Y-68607380D01*
X90736904Y-68655000D01*
X90689285Y-68702619D01*
X90641666Y-68797857D01*
X90641666Y-68940714D01*
X90689285Y-69035952D01*
X90736904Y-69083571D01*
X90832142Y-69131190D01*
X91213095Y-69131190D01*
X90308333Y-68607380D02*
X89641666Y-68607380D01*
X90070238Y-69607380D01*
X101596666Y-93262380D02*
X101930000Y-92786190D01*
X102168095Y-93262380D02*
X102168095Y-92262380D01*
X101787142Y-92262380D01*
X101691904Y-92310000D01*
X101644285Y-92357619D01*
X101596666Y-92452857D01*
X101596666Y-92595714D01*
X101644285Y-92690952D01*
X101691904Y-92738571D01*
X101787142Y-92786190D01*
X102168095Y-92786190D01*
X101025238Y-92690952D02*
X101120476Y-92643333D01*
X101168095Y-92595714D01*
X101215714Y-92500476D01*
X101215714Y-92452857D01*
X101168095Y-92357619D01*
X101120476Y-92310000D01*
X101025238Y-92262380D01*
X100834761Y-92262380D01*
X100739523Y-92310000D01*
X100691904Y-92357619D01*
X100644285Y-92452857D01*
X100644285Y-92500476D01*
X100691904Y-92595714D01*
X100739523Y-92643333D01*
X100834761Y-92690952D01*
X101025238Y-92690952D01*
X101120476Y-92738571D01*
X101168095Y-92786190D01*
X101215714Y-92881428D01*
X101215714Y-93071904D01*
X101168095Y-93167142D01*
X101120476Y-93214761D01*
X101025238Y-93262380D01*
X100834761Y-93262380D01*
X100739523Y-93214761D01*
X100691904Y-93167142D01*
X100644285Y-93071904D01*
X100644285Y-92881428D01*
X100691904Y-92786190D01*
X100739523Y-92738571D01*
X100834761Y-92690952D01*
X72702857Y-70877380D02*
X73036190Y-70401190D01*
X73274285Y-70877380D02*
X73274285Y-69877380D01*
X72893333Y-69877380D01*
X72798095Y-69925000D01*
X72750476Y-69972619D01*
X72702857Y-70067857D01*
X72702857Y-70210714D01*
X72750476Y-70305952D01*
X72798095Y-70353571D01*
X72893333Y-70401190D01*
X73274285Y-70401190D01*
X71750476Y-70877380D02*
X72321904Y-70877380D01*
X72036190Y-70877380D02*
X72036190Y-69877380D01*
X72131428Y-70020238D01*
X72226666Y-70115476D01*
X72321904Y-70163095D01*
X71131428Y-69877380D02*
X71036190Y-69877380D01*
X70940952Y-69925000D01*
X70893333Y-69972619D01*
X70845714Y-70067857D01*
X70798095Y-70258333D01*
X70798095Y-70496428D01*
X70845714Y-70686904D01*
X70893333Y-70782142D01*
X70940952Y-70829761D01*
X71036190Y-70877380D01*
X71131428Y-70877380D01*
X71226666Y-70829761D01*
X71274285Y-70782142D01*
X71321904Y-70686904D01*
X71369523Y-70496428D01*
X71369523Y-70258333D01*
X71321904Y-70067857D01*
X71274285Y-69972619D01*
X71226666Y-69925000D01*
X71131428Y-69877380D01*
X88953333Y-50738571D02*
X89286666Y-50738571D01*
X89286666Y-51262380D02*
X89286666Y-50262380D01*
X88810476Y-50262380D01*
X87905714Y-51262380D02*
X88477142Y-51262380D01*
X88191428Y-51262380D02*
X88191428Y-50262380D01*
X88286666Y-50405238D01*
X88381904Y-50500476D01*
X88477142Y-50548095D01*
X66857142Y-51593333D02*
X66904761Y-51545714D01*
X66952380Y-51402857D01*
X66952380Y-51307619D01*
X66904761Y-51164761D01*
X66809523Y-51069523D01*
X66714285Y-51021904D01*
X66523809Y-50974285D01*
X66380952Y-50974285D01*
X66190476Y-51021904D01*
X66095238Y-51069523D01*
X66000000Y-51164761D01*
X65952380Y-51307619D01*
X65952380Y-51402857D01*
X66000000Y-51545714D01*
X66047619Y-51593333D01*
X66952380Y-52545714D02*
X66952380Y-51974285D01*
X66952380Y-52260000D02*
X65952380Y-52260000D01*
X66095238Y-52164761D01*
X66190476Y-52069523D01*
X66238095Y-51974285D01*
X108401666Y-93217142D02*
X108449285Y-93264761D01*
X108592142Y-93312380D01*
X108687380Y-93312380D01*
X108830238Y-93264761D01*
X108925476Y-93169523D01*
X108973095Y-93074285D01*
X109020714Y-92883809D01*
X109020714Y-92740952D01*
X108973095Y-92550476D01*
X108925476Y-92455238D01*
X108830238Y-92360000D01*
X108687380Y-92312380D01*
X108592142Y-92312380D01*
X108449285Y-92360000D01*
X108401666Y-92407619D01*
X108068333Y-92312380D02*
X107401666Y-92312380D01*
X107830238Y-93312380D01*
X119216666Y-60197142D02*
X119264285Y-60244761D01*
X119407142Y-60292380D01*
X119502380Y-60292380D01*
X119645238Y-60244761D01*
X119740476Y-60149523D01*
X119788095Y-60054285D01*
X119835714Y-59863809D01*
X119835714Y-59720952D01*
X119788095Y-59530476D01*
X119740476Y-59435238D01*
X119645238Y-59340000D01*
X119502380Y-59292380D01*
X119407142Y-59292380D01*
X119264285Y-59340000D01*
X119216666Y-59387619D01*
X118359523Y-59625714D02*
X118359523Y-60292380D01*
X118597619Y-59244761D02*
X118835714Y-59959047D01*
X118216666Y-59959047D01*
X73496666Y-74477142D02*
X73544285Y-74524761D01*
X73687142Y-74572380D01*
X73782380Y-74572380D01*
X73925238Y-74524761D01*
X74020476Y-74429523D01*
X74068095Y-74334285D01*
X74115714Y-74143809D01*
X74115714Y-74000952D01*
X74068095Y-73810476D01*
X74020476Y-73715238D01*
X73925238Y-73620000D01*
X73782380Y-73572380D01*
X73687142Y-73572380D01*
X73544285Y-73620000D01*
X73496666Y-73667619D01*
X72639523Y-73572380D02*
X72830000Y-73572380D01*
X72925238Y-73620000D01*
X72972857Y-73667619D01*
X73068095Y-73810476D01*
X73115714Y-74000952D01*
X73115714Y-74381904D01*
X73068095Y-74477142D01*
X73020476Y-74524761D01*
X72925238Y-74572380D01*
X72734761Y-74572380D01*
X72639523Y-74524761D01*
X72591904Y-74477142D01*
X72544285Y-74381904D01*
X72544285Y-74143809D01*
X72591904Y-74048571D01*
X72639523Y-74000952D01*
X72734761Y-73953333D01*
X72925238Y-73953333D01*
X73020476Y-74000952D01*
X73068095Y-74048571D01*
X73115714Y-74143809D01*
X91276666Y-65587142D02*
X91324285Y-65634761D01*
X91467142Y-65682380D01*
X91562380Y-65682380D01*
X91705238Y-65634761D01*
X91800476Y-65539523D01*
X91848095Y-65444285D01*
X91895714Y-65253809D01*
X91895714Y-65110952D01*
X91848095Y-64920476D01*
X91800476Y-64825238D01*
X91705238Y-64730000D01*
X91562380Y-64682380D01*
X91467142Y-64682380D01*
X91324285Y-64730000D01*
X91276666Y-64777619D01*
X90705238Y-65110952D02*
X90800476Y-65063333D01*
X90848095Y-65015714D01*
X90895714Y-64920476D01*
X90895714Y-64872857D01*
X90848095Y-64777619D01*
X90800476Y-64730000D01*
X90705238Y-64682380D01*
X90514761Y-64682380D01*
X90419523Y-64730000D01*
X90371904Y-64777619D01*
X90324285Y-64872857D01*
X90324285Y-64920476D01*
X90371904Y-65015714D01*
X90419523Y-65063333D01*
X90514761Y-65110952D01*
X90705238Y-65110952D01*
X90800476Y-65158571D01*
X90848095Y-65206190D01*
X90895714Y-65301428D01*
X90895714Y-65491904D01*
X90848095Y-65587142D01*
X90800476Y-65634761D01*
X90705238Y-65682380D01*
X90514761Y-65682380D01*
X90419523Y-65634761D01*
X90371904Y-65587142D01*
X90324285Y-65491904D01*
X90324285Y-65301428D01*
X90371904Y-65206190D01*
X90419523Y-65158571D01*
X90514761Y-65110952D01*
X67622857Y-65277142D02*
X67670476Y-65324761D01*
X67813333Y-65372380D01*
X67908571Y-65372380D01*
X68051428Y-65324761D01*
X68146666Y-65229523D01*
X68194285Y-65134285D01*
X68241904Y-64943809D01*
X68241904Y-64800952D01*
X68194285Y-64610476D01*
X68146666Y-64515238D01*
X68051428Y-64420000D01*
X67908571Y-64372380D01*
X67813333Y-64372380D01*
X67670476Y-64420000D01*
X67622857Y-64467619D01*
X66670476Y-65372380D02*
X67241904Y-65372380D01*
X66956190Y-65372380D02*
X66956190Y-64372380D01*
X67051428Y-64515238D01*
X67146666Y-64610476D01*
X67241904Y-64658095D01*
X65718095Y-65372380D02*
X66289523Y-65372380D01*
X66003809Y-65372380D02*
X66003809Y-64372380D01*
X66099047Y-64515238D01*
X66194285Y-64610476D01*
X66289523Y-64658095D01*
X101147142Y-79037142D02*
X101194761Y-78989523D01*
X101242380Y-78846666D01*
X101242380Y-78751428D01*
X101194761Y-78608571D01*
X101099523Y-78513333D01*
X101004285Y-78465714D01*
X100813809Y-78418095D01*
X100670952Y-78418095D01*
X100480476Y-78465714D01*
X100385238Y-78513333D01*
X100290000Y-78608571D01*
X100242380Y-78751428D01*
X100242380Y-78846666D01*
X100290000Y-78989523D01*
X100337619Y-79037142D01*
X101242380Y-79989523D02*
X101242380Y-79418095D01*
X101242380Y-79703809D02*
X100242380Y-79703809D01*
X100385238Y-79608571D01*
X100480476Y-79513333D01*
X100528095Y-79418095D01*
X100337619Y-80370476D02*
X100290000Y-80418095D01*
X100242380Y-80513333D01*
X100242380Y-80751428D01*
X100290000Y-80846666D01*
X100337619Y-80894285D01*
X100432857Y-80941904D01*
X100528095Y-80941904D01*
X100670952Y-80894285D01*
X101242380Y-80322857D01*
X101242380Y-80941904D01*
X84228095Y-52827380D02*
X84228095Y-51827380D01*
X83847142Y-51827380D01*
X83751904Y-51875000D01*
X83704285Y-51922619D01*
X83656666Y-52017857D01*
X83656666Y-52160714D01*
X83704285Y-52255952D01*
X83751904Y-52303571D01*
X83847142Y-52351190D01*
X84228095Y-52351190D01*
X82704285Y-52827380D02*
X83275714Y-52827380D01*
X82990000Y-52827380D02*
X82990000Y-51827380D01*
X83085238Y-51970238D01*
X83180476Y-52065476D01*
X83275714Y-52113095D01*
M02*
