G04 #@! TF.GenerationSoftware,KiCad,Pcbnew,(5.1.0)-1*
G04 #@! TF.CreationDate,2019-06-24T21:59:01+02:00*
G04 #@! TF.ProjectId,LampeSolaire,4c616d70-6553-46f6-9c61-6972652e6b69,6.2*
G04 #@! TF.SameCoordinates,Original*
G04 #@! TF.FileFunction,Soldermask,Bot*
G04 #@! TF.FilePolarity,Negative*
%FSLAX46Y46*%
G04 Gerber Fmt 4.6, Leading zero omitted, Abs format (unit mm)*
G04 Created by KiCad (PCBNEW (5.1.0)-1) date 2019-06-24 21:59:01*
%MOMM*%
%LPD*%
G04 APERTURE LIST*
%ADD10C,0.250000*%
%ADD11C,0.100000*%
G04 APERTURE END LIST*
D10*
X70230000Y-108268571D02*
X70087142Y-108316190D01*
X70039523Y-108363809D01*
X69991904Y-108459047D01*
X69991904Y-108601904D01*
X70039523Y-108697142D01*
X70087142Y-108744761D01*
X70182380Y-108792380D01*
X70563333Y-108792380D01*
X70563333Y-107792380D01*
X70230000Y-107792380D01*
X70134761Y-107840000D01*
X70087142Y-107887619D01*
X70039523Y-107982857D01*
X70039523Y-108078095D01*
X70087142Y-108173333D01*
X70134761Y-108220952D01*
X70230000Y-108268571D01*
X70563333Y-108268571D01*
X69563333Y-108697142D02*
X69515714Y-108744761D01*
X69563333Y-108792380D01*
X69610952Y-108744761D01*
X69563333Y-108697142D01*
X69563333Y-108792380D01*
X69087142Y-108792380D02*
X69087142Y-107792380D01*
X68753809Y-108506666D01*
X68420476Y-107792380D01*
X68420476Y-108792380D01*
X67515714Y-108792380D02*
X67515714Y-108268571D01*
X67563333Y-108173333D01*
X67658571Y-108125714D01*
X67849047Y-108125714D01*
X67944285Y-108173333D01*
X67515714Y-108744761D02*
X67610952Y-108792380D01*
X67849047Y-108792380D01*
X67944285Y-108744761D01*
X67991904Y-108649523D01*
X67991904Y-108554285D01*
X67944285Y-108459047D01*
X67849047Y-108411428D01*
X67610952Y-108411428D01*
X67515714Y-108363809D01*
X67087142Y-108744761D02*
X66991904Y-108792380D01*
X66801428Y-108792380D01*
X66706190Y-108744761D01*
X66658571Y-108649523D01*
X66658571Y-108601904D01*
X66706190Y-108506666D01*
X66801428Y-108459047D01*
X66944285Y-108459047D01*
X67039523Y-108411428D01*
X67087142Y-108316190D01*
X67087142Y-108268571D01*
X67039523Y-108173333D01*
X66944285Y-108125714D01*
X66801428Y-108125714D01*
X66706190Y-108173333D01*
X66230000Y-108792380D02*
X66230000Y-107792380D01*
X66134761Y-108411428D02*
X65849047Y-108792380D01*
X65849047Y-108125714D02*
X66230000Y-108506666D01*
X64658571Y-108411428D02*
X63896666Y-108411428D01*
X62801428Y-107792380D02*
X62468095Y-108792380D01*
X62134761Y-107792380D01*
X61372857Y-107792380D02*
X61563333Y-107792380D01*
X61658571Y-107840000D01*
X61706190Y-107887619D01*
X61801428Y-108030476D01*
X61849047Y-108220952D01*
X61849047Y-108601904D01*
X61801428Y-108697142D01*
X61753809Y-108744761D01*
X61658571Y-108792380D01*
X61468095Y-108792380D01*
X61372857Y-108744761D01*
X61325238Y-108697142D01*
X61277619Y-108601904D01*
X61277619Y-108363809D01*
X61325238Y-108268571D01*
X61372857Y-108220952D01*
X61468095Y-108173333D01*
X61658571Y-108173333D01*
X61753809Y-108220952D01*
X61801428Y-108268571D01*
X61849047Y-108363809D01*
X60849047Y-108697142D02*
X60801428Y-108744761D01*
X60849047Y-108792380D01*
X60896666Y-108744761D01*
X60849047Y-108697142D01*
X60849047Y-108792380D01*
X60420476Y-107887619D02*
X60372857Y-107840000D01*
X60277619Y-107792380D01*
X60039523Y-107792380D01*
X59944285Y-107840000D01*
X59896666Y-107887619D01*
X59849047Y-107982857D01*
X59849047Y-108078095D01*
X59896666Y-108220952D01*
X60468095Y-108792380D01*
X59849047Y-108792380D01*
D11*
G36*
X105908857Y-111642272D02*
G01*
X106109043Y-111725192D01*
X106109045Y-111725193D01*
X106199738Y-111785792D01*
X106289208Y-111845574D01*
X106442426Y-111998792D01*
X106562808Y-112178957D01*
X106645728Y-112379143D01*
X106688000Y-112591658D01*
X106688000Y-112808342D01*
X106645728Y-113020857D01*
X106562808Y-113221043D01*
X106562807Y-113221045D01*
X106442425Y-113401209D01*
X106289209Y-113554425D01*
X106109045Y-113674807D01*
X106109044Y-113674808D01*
X106109043Y-113674808D01*
X105908857Y-113757728D01*
X105696342Y-113800000D01*
X105479658Y-113800000D01*
X105267143Y-113757728D01*
X105066957Y-113674808D01*
X105066956Y-113674808D01*
X105066955Y-113674807D01*
X104886791Y-113554425D01*
X104733575Y-113401209D01*
X104613193Y-113221045D01*
X104613192Y-113221043D01*
X104530272Y-113020857D01*
X104488000Y-112808342D01*
X104488000Y-112591658D01*
X104530272Y-112379143D01*
X104613192Y-112178957D01*
X104733574Y-111998792D01*
X104886792Y-111845574D01*
X104976262Y-111785792D01*
X105066955Y-111725193D01*
X105066957Y-111725192D01*
X105267143Y-111642272D01*
X105479658Y-111600000D01*
X105696342Y-111600000D01*
X105908857Y-111642272D01*
X105908857Y-111642272D01*
G37*
G36*
X98288857Y-111642272D02*
G01*
X98489043Y-111725192D01*
X98489045Y-111725193D01*
X98579738Y-111785792D01*
X98669208Y-111845574D01*
X98822426Y-111998792D01*
X98942808Y-112178957D01*
X99025728Y-112379143D01*
X99068000Y-112591658D01*
X99068000Y-112808342D01*
X99025728Y-113020857D01*
X98942808Y-113221043D01*
X98942807Y-113221045D01*
X98822425Y-113401209D01*
X98669209Y-113554425D01*
X98489045Y-113674807D01*
X98489044Y-113674808D01*
X98489043Y-113674808D01*
X98288857Y-113757728D01*
X98076342Y-113800000D01*
X97859658Y-113800000D01*
X97647143Y-113757728D01*
X97446957Y-113674808D01*
X97446956Y-113674808D01*
X97446955Y-113674807D01*
X97266791Y-113554425D01*
X97113575Y-113401209D01*
X96993193Y-113221045D01*
X96993192Y-113221043D01*
X96910272Y-113020857D01*
X96868000Y-112808342D01*
X96868000Y-112591658D01*
X96910272Y-112379143D01*
X96993192Y-112178957D01*
X97113574Y-111998792D01*
X97266792Y-111845574D01*
X97356262Y-111785792D01*
X97446955Y-111725193D01*
X97446957Y-111725192D01*
X97647143Y-111642272D01*
X97859658Y-111600000D01*
X98076342Y-111600000D01*
X98288857Y-111642272D01*
X98288857Y-111642272D01*
G37*
G36*
X95748857Y-106562272D02*
G01*
X95949043Y-106645192D01*
X95949045Y-106645193D01*
X96039738Y-106705792D01*
X96129208Y-106765574D01*
X96282426Y-106918792D01*
X96402808Y-107098957D01*
X96485728Y-107299143D01*
X96528000Y-107511658D01*
X96528000Y-107728342D01*
X96485728Y-107940857D01*
X96402808Y-108141043D01*
X96402807Y-108141045D01*
X96282425Y-108321209D01*
X96129209Y-108474425D01*
X95949045Y-108594807D01*
X95949044Y-108594808D01*
X95949043Y-108594808D01*
X95748857Y-108677728D01*
X95536342Y-108720000D01*
X95319658Y-108720000D01*
X95107143Y-108677728D01*
X94906957Y-108594808D01*
X94906956Y-108594808D01*
X94906955Y-108594807D01*
X94726791Y-108474425D01*
X94573575Y-108321209D01*
X94453193Y-108141045D01*
X94453192Y-108141043D01*
X94370272Y-107940857D01*
X94328000Y-107728342D01*
X94328000Y-107511658D01*
X94370272Y-107299143D01*
X94453192Y-107098957D01*
X94573574Y-106918792D01*
X94726792Y-106765574D01*
X94816262Y-106705792D01*
X94906955Y-106645193D01*
X94906957Y-106645192D01*
X95107143Y-106562272D01*
X95319658Y-106520000D01*
X95536342Y-106520000D01*
X95748857Y-106562272D01*
X95748857Y-106562272D01*
G37*
G36*
X103368857Y-106562272D02*
G01*
X103569043Y-106645192D01*
X103569045Y-106645193D01*
X103659738Y-106705792D01*
X103749208Y-106765574D01*
X103902426Y-106918792D01*
X104022808Y-107098957D01*
X104105728Y-107299143D01*
X104148000Y-107511658D01*
X104148000Y-107728342D01*
X104105728Y-107940857D01*
X104022808Y-108141043D01*
X104022807Y-108141045D01*
X103902425Y-108321209D01*
X103749209Y-108474425D01*
X103569045Y-108594807D01*
X103569044Y-108594808D01*
X103569043Y-108594808D01*
X103368857Y-108677728D01*
X103156342Y-108720000D01*
X102939658Y-108720000D01*
X102727143Y-108677728D01*
X102526957Y-108594808D01*
X102526956Y-108594808D01*
X102526955Y-108594807D01*
X102346791Y-108474425D01*
X102193575Y-108321209D01*
X102073193Y-108141045D01*
X102073192Y-108141043D01*
X101990272Y-107940857D01*
X101948000Y-107728342D01*
X101948000Y-107511658D01*
X101990272Y-107299143D01*
X102073192Y-107098957D01*
X102193574Y-106918792D01*
X102346792Y-106765574D01*
X102436262Y-106705792D01*
X102526955Y-106645193D01*
X102526957Y-106645192D01*
X102727143Y-106562272D01*
X102939658Y-106520000D01*
X103156342Y-106520000D01*
X103368857Y-106562272D01*
X103368857Y-106562272D01*
G37*
G36*
X135499082Y-97581384D02*
G01*
X135814639Y-97644152D01*
X136260510Y-97828838D01*
X136661784Y-98096960D01*
X137003040Y-98438216D01*
X137271162Y-98839490D01*
X137455848Y-99285361D01*
X137550000Y-99758696D01*
X137550000Y-100241304D01*
X137455848Y-100714639D01*
X137271162Y-101160510D01*
X137003040Y-101561784D01*
X136661784Y-101903040D01*
X136260510Y-102171162D01*
X135814639Y-102355848D01*
X135499082Y-102418616D01*
X135341305Y-102450000D01*
X134858695Y-102450000D01*
X134700918Y-102418616D01*
X134385361Y-102355848D01*
X133939490Y-102171162D01*
X133538216Y-101903040D01*
X133196960Y-101561784D01*
X132928838Y-101160510D01*
X132744152Y-100714639D01*
X132650000Y-100241304D01*
X132650000Y-99758696D01*
X132744152Y-99285361D01*
X132928838Y-98839490D01*
X133196960Y-98438216D01*
X133538216Y-98096960D01*
X133939490Y-97828838D01*
X134385361Y-97644152D01*
X134700918Y-97581384D01*
X134858695Y-97550000D01*
X135341305Y-97550000D01*
X135499082Y-97581384D01*
X135499082Y-97581384D01*
G37*
G36*
X65299082Y-97581384D02*
G01*
X65614639Y-97644152D01*
X66060510Y-97828838D01*
X66461784Y-98096960D01*
X66803040Y-98438216D01*
X67071162Y-98839490D01*
X67255848Y-99285361D01*
X67350000Y-99758696D01*
X67350000Y-100241304D01*
X67255848Y-100714639D01*
X67071162Y-101160510D01*
X66803040Y-101561784D01*
X66461784Y-101903040D01*
X66060510Y-102171162D01*
X65614639Y-102355848D01*
X65299082Y-102418616D01*
X65141305Y-102450000D01*
X64658695Y-102450000D01*
X64500918Y-102418616D01*
X64185361Y-102355848D01*
X63739490Y-102171162D01*
X63338216Y-101903040D01*
X62996960Y-101561784D01*
X62728838Y-101160510D01*
X62544152Y-100714639D01*
X62450000Y-100241304D01*
X62450000Y-99758696D01*
X62544152Y-99285361D01*
X62728838Y-98839490D01*
X62996960Y-98438216D01*
X63338216Y-98096960D01*
X63739490Y-97828838D01*
X64185361Y-97644152D01*
X64500918Y-97581384D01*
X64658695Y-97550000D01*
X65141305Y-97550000D01*
X65299082Y-97581384D01*
X65299082Y-97581384D01*
G37*
G36*
X98288857Y-98942272D02*
G01*
X98489043Y-99025192D01*
X98489045Y-99025193D01*
X98579738Y-99085792D01*
X98669208Y-99145574D01*
X98822426Y-99298792D01*
X98942808Y-99478957D01*
X99025728Y-99679143D01*
X99068000Y-99891658D01*
X99068000Y-100108342D01*
X99025728Y-100320857D01*
X98942808Y-100521043D01*
X98942807Y-100521045D01*
X98822425Y-100701209D01*
X98669209Y-100854425D01*
X98489045Y-100974807D01*
X98489044Y-100974808D01*
X98489043Y-100974808D01*
X98288857Y-101057728D01*
X98076342Y-101100000D01*
X97859658Y-101100000D01*
X97647143Y-101057728D01*
X97446957Y-100974808D01*
X97446956Y-100974808D01*
X97446955Y-100974807D01*
X97266791Y-100854425D01*
X97113575Y-100701209D01*
X96993193Y-100521045D01*
X96993192Y-100521043D01*
X96910272Y-100320857D01*
X96868000Y-100108342D01*
X96868000Y-99891658D01*
X96910272Y-99679143D01*
X96993192Y-99478957D01*
X97113574Y-99298792D01*
X97266792Y-99145574D01*
X97356262Y-99085792D01*
X97446955Y-99025193D01*
X97446957Y-99025192D01*
X97647143Y-98942272D01*
X97859658Y-98900000D01*
X98076342Y-98900000D01*
X98288857Y-98942272D01*
X98288857Y-98942272D01*
G37*
G36*
X105908857Y-98942272D02*
G01*
X106109043Y-99025192D01*
X106109045Y-99025193D01*
X106199738Y-99085792D01*
X106289208Y-99145574D01*
X106442426Y-99298792D01*
X106562808Y-99478957D01*
X106645728Y-99679143D01*
X106688000Y-99891658D01*
X106688000Y-100108342D01*
X106645728Y-100320857D01*
X106562808Y-100521043D01*
X106562807Y-100521045D01*
X106442425Y-100701209D01*
X106289209Y-100854425D01*
X106109045Y-100974807D01*
X106109044Y-100974808D01*
X106109043Y-100974808D01*
X105908857Y-101057728D01*
X105696342Y-101100000D01*
X105479658Y-101100000D01*
X105267143Y-101057728D01*
X105066957Y-100974808D01*
X105066956Y-100974808D01*
X105066955Y-100974807D01*
X104886791Y-100854425D01*
X104733575Y-100701209D01*
X104613193Y-100521045D01*
X104613192Y-100521043D01*
X104530272Y-100320857D01*
X104488000Y-100108342D01*
X104488000Y-99891658D01*
X104530272Y-99679143D01*
X104613192Y-99478957D01*
X104733574Y-99298792D01*
X104886792Y-99145574D01*
X104976262Y-99085792D01*
X105066955Y-99025193D01*
X105066957Y-99025192D01*
X105267143Y-98942272D01*
X105479658Y-98900000D01*
X105696342Y-98900000D01*
X105908857Y-98942272D01*
X105908857Y-98942272D01*
G37*
G36*
X101030000Y-91960000D02*
G01*
X99130000Y-91960000D01*
X99130000Y-90260000D01*
X101030000Y-90260000D01*
X101030000Y-91960000D01*
X101030000Y-91960000D01*
G37*
G36*
X103730000Y-91960000D02*
G01*
X101830000Y-91960000D01*
X101830000Y-90260000D01*
X103730000Y-90260000D01*
X103730000Y-91960000D01*
X103730000Y-91960000D01*
G37*
G36*
X107935000Y-91935000D02*
G01*
X106035000Y-91935000D01*
X106035000Y-90285000D01*
X107935000Y-90285000D01*
X107935000Y-91935000D01*
X107935000Y-91935000D01*
G37*
G36*
X110435000Y-91935000D02*
G01*
X108535000Y-91935000D01*
X108535000Y-90285000D01*
X110435000Y-90285000D01*
X110435000Y-91935000D01*
X110435000Y-91935000D01*
G37*
G36*
X51927324Y-70924731D02*
G01*
X52075443Y-70954194D01*
X52284729Y-71040884D01*
X52473082Y-71166737D01*
X52633263Y-71326918D01*
X52759116Y-71515271D01*
X52845806Y-71724557D01*
X52890000Y-71946735D01*
X52890000Y-72173265D01*
X52845806Y-72395443D01*
X52759116Y-72604729D01*
X52633263Y-72793082D01*
X52473082Y-72953263D01*
X52284729Y-73079116D01*
X52075443Y-73165806D01*
X51867726Y-73207123D01*
X51866321Y-73207403D01*
X51842872Y-73214516D01*
X51821261Y-73226067D01*
X51802319Y-73241613D01*
X51786774Y-73260554D01*
X51775223Y-73282165D01*
X51768110Y-73305614D01*
X51765708Y-73330000D01*
X51768110Y-73354386D01*
X51775223Y-73377835D01*
X51786774Y-73399446D01*
X51802320Y-73418388D01*
X51821261Y-73433933D01*
X51842872Y-73445484D01*
X51866321Y-73452597D01*
X52075443Y-73494194D01*
X52284729Y-73580884D01*
X52473082Y-73706737D01*
X52633263Y-73866918D01*
X52759116Y-74055271D01*
X52845806Y-74264557D01*
X52890000Y-74486735D01*
X52890000Y-74713265D01*
X52845806Y-74935443D01*
X52759116Y-75144729D01*
X52633263Y-75333082D01*
X52473082Y-75493263D01*
X52284729Y-75619116D01*
X52075443Y-75705806D01*
X51867726Y-75747123D01*
X51866321Y-75747403D01*
X51842872Y-75754516D01*
X51821261Y-75766067D01*
X51802319Y-75781613D01*
X51786774Y-75800554D01*
X51775223Y-75822165D01*
X51768110Y-75845614D01*
X51765708Y-75870000D01*
X51768110Y-75894386D01*
X51775223Y-75917835D01*
X51786774Y-75939446D01*
X51802320Y-75958388D01*
X51821261Y-75973933D01*
X51842872Y-75985484D01*
X51866321Y-75992597D01*
X52075443Y-76034194D01*
X52284729Y-76120884D01*
X52473082Y-76246737D01*
X52633263Y-76406918D01*
X52759116Y-76595271D01*
X52845806Y-76804557D01*
X52890000Y-77026735D01*
X52890000Y-77253265D01*
X52845806Y-77475443D01*
X52759116Y-77684729D01*
X52633263Y-77873082D01*
X52473082Y-78033263D01*
X52284729Y-78159116D01*
X52075443Y-78245806D01*
X51867726Y-78287123D01*
X51866321Y-78287403D01*
X51842872Y-78294516D01*
X51821261Y-78306067D01*
X51802319Y-78321613D01*
X51786774Y-78340554D01*
X51775223Y-78362165D01*
X51768110Y-78385614D01*
X51765708Y-78410000D01*
X51768110Y-78434386D01*
X51775223Y-78457835D01*
X51786774Y-78479446D01*
X51802320Y-78498388D01*
X51821261Y-78513933D01*
X51842872Y-78525484D01*
X51866321Y-78532597D01*
X52075443Y-78574194D01*
X52284729Y-78660884D01*
X52473082Y-78786737D01*
X52633263Y-78946918D01*
X52759116Y-79135271D01*
X52845806Y-79344557D01*
X52890000Y-79566735D01*
X52890000Y-79793265D01*
X52845806Y-80015443D01*
X52759116Y-80224729D01*
X52633263Y-80413082D01*
X52473082Y-80573263D01*
X52284729Y-80699116D01*
X52075443Y-80785806D01*
X51867726Y-80827123D01*
X51866321Y-80827403D01*
X51842872Y-80834516D01*
X51821261Y-80846067D01*
X51802319Y-80861613D01*
X51786774Y-80880554D01*
X51775223Y-80902165D01*
X51768110Y-80925614D01*
X51765708Y-80950000D01*
X51768110Y-80974386D01*
X51775223Y-80997835D01*
X51786774Y-81019446D01*
X51802320Y-81038388D01*
X51821261Y-81053933D01*
X51842872Y-81065484D01*
X51866321Y-81072597D01*
X52075443Y-81114194D01*
X52284729Y-81200884D01*
X52473082Y-81326737D01*
X52633263Y-81486918D01*
X52759116Y-81675271D01*
X52845806Y-81884557D01*
X52890000Y-82106735D01*
X52890000Y-82333265D01*
X52845806Y-82555443D01*
X52759116Y-82764729D01*
X52633263Y-82953082D01*
X52473082Y-83113263D01*
X52284729Y-83239116D01*
X52075443Y-83325806D01*
X51867726Y-83367123D01*
X51866321Y-83367403D01*
X51842872Y-83374516D01*
X51821261Y-83386067D01*
X51802319Y-83401613D01*
X51786774Y-83420554D01*
X51775223Y-83442165D01*
X51768110Y-83465614D01*
X51765708Y-83490000D01*
X51768110Y-83514386D01*
X51775223Y-83537835D01*
X51786774Y-83559446D01*
X51802320Y-83578388D01*
X51821261Y-83593933D01*
X51842872Y-83605484D01*
X51866321Y-83612597D01*
X52075443Y-83654194D01*
X52284729Y-83740884D01*
X52473082Y-83866737D01*
X52633263Y-84026918D01*
X52759116Y-84215271D01*
X52845806Y-84424557D01*
X52890000Y-84646735D01*
X52890000Y-84873265D01*
X52845806Y-85095443D01*
X52759116Y-85304729D01*
X52633263Y-85493082D01*
X52473082Y-85653263D01*
X52284729Y-85779116D01*
X52075443Y-85865806D01*
X51867726Y-85907123D01*
X51866321Y-85907403D01*
X51842872Y-85914516D01*
X51821261Y-85926067D01*
X51802319Y-85941613D01*
X51786774Y-85960554D01*
X51775223Y-85982165D01*
X51768110Y-86005614D01*
X51765708Y-86030000D01*
X51768110Y-86054386D01*
X51775223Y-86077835D01*
X51786774Y-86099446D01*
X51802320Y-86118388D01*
X51821261Y-86133933D01*
X51842872Y-86145484D01*
X51866321Y-86152597D01*
X52075443Y-86194194D01*
X52284729Y-86280884D01*
X52473082Y-86406737D01*
X52633263Y-86566918D01*
X52759116Y-86755271D01*
X52845806Y-86964557D01*
X52890000Y-87186735D01*
X52890000Y-87413265D01*
X52845806Y-87635443D01*
X52759116Y-87844729D01*
X52633263Y-88033082D01*
X52473082Y-88193263D01*
X52284729Y-88319116D01*
X52075443Y-88405806D01*
X51927324Y-88435269D01*
X51853266Y-88450000D01*
X51626734Y-88450000D01*
X51552676Y-88435269D01*
X51404557Y-88405806D01*
X51195271Y-88319116D01*
X51006918Y-88193263D01*
X50846737Y-88033082D01*
X50720884Y-87844729D01*
X50634194Y-87635443D01*
X50590000Y-87413265D01*
X50590000Y-87186735D01*
X50634194Y-86964557D01*
X50720884Y-86755271D01*
X50846737Y-86566918D01*
X51006918Y-86406737D01*
X51195271Y-86280884D01*
X51404557Y-86194194D01*
X51613679Y-86152597D01*
X51637128Y-86145484D01*
X51658739Y-86133933D01*
X51677681Y-86118387D01*
X51693226Y-86099446D01*
X51704777Y-86077835D01*
X51711890Y-86054386D01*
X51714292Y-86030000D01*
X51711890Y-86005614D01*
X51704777Y-85982165D01*
X51693226Y-85960554D01*
X51677680Y-85941612D01*
X51658739Y-85926067D01*
X51637128Y-85914516D01*
X51613679Y-85907403D01*
X51612274Y-85907123D01*
X51404557Y-85865806D01*
X51195271Y-85779116D01*
X51006918Y-85653263D01*
X50846737Y-85493082D01*
X50720884Y-85304729D01*
X50634194Y-85095443D01*
X50590000Y-84873265D01*
X50590000Y-84646735D01*
X50634194Y-84424557D01*
X50720884Y-84215271D01*
X50846737Y-84026918D01*
X51006918Y-83866737D01*
X51195271Y-83740884D01*
X51404557Y-83654194D01*
X51613679Y-83612597D01*
X51637128Y-83605484D01*
X51658739Y-83593933D01*
X51677681Y-83578387D01*
X51693226Y-83559446D01*
X51704777Y-83537835D01*
X51711890Y-83514386D01*
X51714292Y-83490000D01*
X51711890Y-83465614D01*
X51704777Y-83442165D01*
X51693226Y-83420554D01*
X51677680Y-83401612D01*
X51658739Y-83386067D01*
X51637128Y-83374516D01*
X51613679Y-83367403D01*
X51612274Y-83367123D01*
X51404557Y-83325806D01*
X51195271Y-83239116D01*
X51006918Y-83113263D01*
X50846737Y-82953082D01*
X50720884Y-82764729D01*
X50634194Y-82555443D01*
X50590000Y-82333265D01*
X50590000Y-82106735D01*
X50634194Y-81884557D01*
X50720884Y-81675271D01*
X50846737Y-81486918D01*
X51006918Y-81326737D01*
X51195271Y-81200884D01*
X51404557Y-81114194D01*
X51613679Y-81072597D01*
X51637128Y-81065484D01*
X51658739Y-81053933D01*
X51677681Y-81038387D01*
X51693226Y-81019446D01*
X51704777Y-80997835D01*
X51711890Y-80974386D01*
X51714292Y-80950000D01*
X51711890Y-80925614D01*
X51704777Y-80902165D01*
X51693226Y-80880554D01*
X51677680Y-80861612D01*
X51658739Y-80846067D01*
X51637128Y-80834516D01*
X51613679Y-80827403D01*
X51612274Y-80827123D01*
X51404557Y-80785806D01*
X51195271Y-80699116D01*
X51006918Y-80573263D01*
X50846737Y-80413082D01*
X50720884Y-80224729D01*
X50634194Y-80015443D01*
X50590000Y-79793265D01*
X50590000Y-79566735D01*
X50634194Y-79344557D01*
X50720884Y-79135271D01*
X50846737Y-78946918D01*
X51006918Y-78786737D01*
X51195271Y-78660884D01*
X51404557Y-78574194D01*
X51613679Y-78532597D01*
X51637128Y-78525484D01*
X51658739Y-78513933D01*
X51677681Y-78498387D01*
X51693226Y-78479446D01*
X51704777Y-78457835D01*
X51711890Y-78434386D01*
X51714292Y-78410000D01*
X51711890Y-78385614D01*
X51704777Y-78362165D01*
X51693226Y-78340554D01*
X51677680Y-78321612D01*
X51658739Y-78306067D01*
X51637128Y-78294516D01*
X51613679Y-78287403D01*
X51612274Y-78287123D01*
X51404557Y-78245806D01*
X51195271Y-78159116D01*
X51006918Y-78033263D01*
X50846737Y-77873082D01*
X50720884Y-77684729D01*
X50634194Y-77475443D01*
X50590000Y-77253265D01*
X50590000Y-77026735D01*
X50634194Y-76804557D01*
X50720884Y-76595271D01*
X50846737Y-76406918D01*
X51006918Y-76246737D01*
X51195271Y-76120884D01*
X51404557Y-76034194D01*
X51613679Y-75992597D01*
X51637128Y-75985484D01*
X51658739Y-75973933D01*
X51677681Y-75958387D01*
X51693226Y-75939446D01*
X51704777Y-75917835D01*
X51711890Y-75894386D01*
X51714292Y-75870000D01*
X51711890Y-75845614D01*
X51704777Y-75822165D01*
X51693226Y-75800554D01*
X51677680Y-75781612D01*
X51658739Y-75766067D01*
X51637128Y-75754516D01*
X51613679Y-75747403D01*
X51612274Y-75747123D01*
X51404557Y-75705806D01*
X51195271Y-75619116D01*
X51006918Y-75493263D01*
X50846737Y-75333082D01*
X50720884Y-75144729D01*
X50634194Y-74935443D01*
X50590000Y-74713265D01*
X50590000Y-74486735D01*
X50634194Y-74264557D01*
X50720884Y-74055271D01*
X50846737Y-73866918D01*
X51006918Y-73706737D01*
X51195271Y-73580884D01*
X51404557Y-73494194D01*
X51613679Y-73452597D01*
X51637128Y-73445484D01*
X51658739Y-73433933D01*
X51677681Y-73418387D01*
X51693226Y-73399446D01*
X51704777Y-73377835D01*
X51711890Y-73354386D01*
X51714292Y-73330000D01*
X51711890Y-73305614D01*
X51704777Y-73282165D01*
X51693226Y-73260554D01*
X51677680Y-73241612D01*
X51658739Y-73226067D01*
X51637128Y-73214516D01*
X51613679Y-73207403D01*
X51612274Y-73207123D01*
X51404557Y-73165806D01*
X51195271Y-73079116D01*
X51006918Y-72953263D01*
X50846737Y-72793082D01*
X50720884Y-72604729D01*
X50634194Y-72395443D01*
X50590000Y-72173265D01*
X50590000Y-71946735D01*
X50634194Y-71724557D01*
X50720884Y-71515271D01*
X50846737Y-71326918D01*
X51006918Y-71166737D01*
X51195271Y-71040884D01*
X51404557Y-70954194D01*
X51552676Y-70924731D01*
X51626734Y-70910000D01*
X51853266Y-70910000D01*
X51927324Y-70924731D01*
X51927324Y-70924731D01*
G37*
G36*
X75630000Y-85610000D02*
G01*
X73730000Y-85610000D01*
X73730000Y-83910000D01*
X75630000Y-83910000D01*
X75630000Y-85610000D01*
X75630000Y-85610000D01*
G37*
G36*
X72930000Y-85610000D02*
G01*
X71030000Y-85610000D01*
X71030000Y-83910000D01*
X72930000Y-83910000D01*
X72930000Y-85610000D01*
X72930000Y-85610000D01*
G37*
G36*
X61680000Y-83270000D02*
G01*
X59580000Y-83270000D01*
X59580000Y-81170000D01*
X61680000Y-81170000D01*
X61680000Y-83270000D01*
X61680000Y-83270000D01*
G37*
G36*
X100850000Y-81900000D02*
G01*
X99150000Y-81900000D01*
X99150000Y-80000000D01*
X100850000Y-80000000D01*
X100850000Y-81900000D01*
X100850000Y-81900000D01*
G37*
G36*
X103365000Y-81880000D02*
G01*
X101715000Y-81880000D01*
X101715000Y-79980000D01*
X103365000Y-79980000D01*
X103365000Y-81880000D01*
X103365000Y-81880000D01*
G37*
G36*
X60758707Y-78637597D02*
G01*
X60835836Y-78645193D01*
X61033762Y-78705233D01*
X61033765Y-78705234D01*
X61216170Y-78802732D01*
X61376055Y-78933945D01*
X61507268Y-79093830D01*
X61604766Y-79276235D01*
X61604767Y-79276238D01*
X61664807Y-79474164D01*
X61685080Y-79680000D01*
X61664807Y-79885836D01*
X61630176Y-80000000D01*
X61604766Y-80083765D01*
X61507268Y-80266170D01*
X61376055Y-80426055D01*
X61216170Y-80557268D01*
X61033765Y-80654766D01*
X61033762Y-80654767D01*
X60835836Y-80714807D01*
X60758707Y-80722404D01*
X60681580Y-80730000D01*
X60578420Y-80730000D01*
X60501293Y-80722404D01*
X60424164Y-80714807D01*
X60226238Y-80654767D01*
X60226235Y-80654766D01*
X60043830Y-80557268D01*
X59883945Y-80426055D01*
X59752732Y-80266170D01*
X59655234Y-80083765D01*
X59629824Y-80000000D01*
X59595193Y-79885836D01*
X59574920Y-79680000D01*
X59595193Y-79474164D01*
X59655233Y-79276238D01*
X59655234Y-79276235D01*
X59752732Y-79093830D01*
X59883945Y-78933945D01*
X60043830Y-78802732D01*
X60226235Y-78705234D01*
X60226238Y-78705233D01*
X60424164Y-78645193D01*
X60501293Y-78637597D01*
X60578420Y-78630000D01*
X60681580Y-78630000D01*
X60758707Y-78637597D01*
X60758707Y-78637597D01*
G37*
G36*
X103365000Y-79380000D02*
G01*
X101715000Y-79380000D01*
X101715000Y-77480000D01*
X103365000Y-77480000D01*
X103365000Y-79380000D01*
X103365000Y-79380000D01*
G37*
G36*
X100850000Y-79200000D02*
G01*
X99150000Y-79200000D01*
X99150000Y-77300000D01*
X100850000Y-77300000D01*
X100850000Y-79200000D01*
X100850000Y-79200000D01*
G37*
G36*
X60758707Y-76097596D02*
G01*
X60835836Y-76105193D01*
X61033762Y-76165233D01*
X61033765Y-76165234D01*
X61216170Y-76262732D01*
X61376055Y-76393945D01*
X61507268Y-76553830D01*
X61604766Y-76736235D01*
X61604767Y-76736238D01*
X61664807Y-76934164D01*
X61685080Y-77140000D01*
X61664807Y-77345836D01*
X61625492Y-77475441D01*
X61604766Y-77543765D01*
X61507268Y-77726170D01*
X61376055Y-77886055D01*
X61216170Y-78017268D01*
X61033765Y-78114766D01*
X61033762Y-78114767D01*
X60835836Y-78174807D01*
X60758707Y-78182403D01*
X60681580Y-78190000D01*
X60578420Y-78190000D01*
X60501293Y-78182403D01*
X60424164Y-78174807D01*
X60226238Y-78114767D01*
X60226235Y-78114766D01*
X60043830Y-78017268D01*
X59883945Y-77886055D01*
X59752732Y-77726170D01*
X59655234Y-77543765D01*
X59634508Y-77475441D01*
X59595193Y-77345836D01*
X59574920Y-77140000D01*
X59595193Y-76934164D01*
X59655233Y-76736238D01*
X59655234Y-76736235D01*
X59752732Y-76553830D01*
X59883945Y-76393945D01*
X60043830Y-76262732D01*
X60226235Y-76165234D01*
X60226238Y-76165233D01*
X60424164Y-76105193D01*
X60501293Y-76097596D01*
X60578420Y-76090000D01*
X60681580Y-76090000D01*
X60758707Y-76097596D01*
X60758707Y-76097596D01*
G37*
G36*
X73030000Y-76695000D02*
G01*
X71130000Y-76695000D01*
X71130000Y-75045000D01*
X73030000Y-75045000D01*
X73030000Y-76695000D01*
X73030000Y-76695000D01*
G37*
G36*
X75530000Y-76695000D02*
G01*
X73630000Y-76695000D01*
X73630000Y-75045000D01*
X75530000Y-75045000D01*
X75530000Y-76695000D01*
X75530000Y-76695000D01*
G37*
G36*
X60758707Y-73557596D02*
G01*
X60835836Y-73565193D01*
X61033762Y-73625233D01*
X61033765Y-73625234D01*
X61216170Y-73722732D01*
X61376055Y-73853945D01*
X61507268Y-74013830D01*
X61604766Y-74196235D01*
X61604767Y-74196238D01*
X61664807Y-74394164D01*
X61685080Y-74600000D01*
X61664807Y-74805836D01*
X61625492Y-74935441D01*
X61604766Y-75003765D01*
X61507268Y-75186170D01*
X61376055Y-75346055D01*
X61216170Y-75477268D01*
X61033765Y-75574766D01*
X61033762Y-75574767D01*
X60835836Y-75634807D01*
X60758707Y-75642404D01*
X60681580Y-75650000D01*
X60578420Y-75650000D01*
X60501293Y-75642404D01*
X60424164Y-75634807D01*
X60226238Y-75574767D01*
X60226235Y-75574766D01*
X60043830Y-75477268D01*
X59883945Y-75346055D01*
X59752732Y-75186170D01*
X59655234Y-75003765D01*
X59634508Y-74935441D01*
X59595193Y-74805836D01*
X59574920Y-74600000D01*
X59595193Y-74394164D01*
X59655233Y-74196238D01*
X59655234Y-74196235D01*
X59752732Y-74013830D01*
X59883945Y-73853945D01*
X60043830Y-73722732D01*
X60226235Y-73625234D01*
X60226238Y-73625233D01*
X60424164Y-73565193D01*
X60501293Y-73557596D01*
X60578420Y-73550000D01*
X60681580Y-73550000D01*
X60758707Y-73557596D01*
X60758707Y-73557596D01*
G37*
G36*
X60758707Y-71017596D02*
G01*
X60835836Y-71025193D01*
X61033762Y-71085233D01*
X61033765Y-71085234D01*
X61216170Y-71182732D01*
X61376055Y-71313945D01*
X61507268Y-71473830D01*
X61604766Y-71656235D01*
X61604767Y-71656238D01*
X61664807Y-71854164D01*
X61685080Y-72060000D01*
X61664807Y-72265836D01*
X61625492Y-72395441D01*
X61604766Y-72463765D01*
X61507268Y-72646170D01*
X61376055Y-72806055D01*
X61216170Y-72937268D01*
X61033765Y-73034766D01*
X61033762Y-73034767D01*
X60835836Y-73094807D01*
X60758707Y-73102403D01*
X60681580Y-73110000D01*
X60578420Y-73110000D01*
X60501293Y-73102403D01*
X60424164Y-73094807D01*
X60226238Y-73034767D01*
X60226235Y-73034766D01*
X60043830Y-72937268D01*
X59883945Y-72806055D01*
X59752732Y-72646170D01*
X59655234Y-72463765D01*
X59634508Y-72395441D01*
X59595193Y-72265836D01*
X59574920Y-72060000D01*
X59595193Y-71854164D01*
X59655233Y-71656238D01*
X59655234Y-71656235D01*
X59752732Y-71473830D01*
X59883945Y-71313945D01*
X60043830Y-71182732D01*
X60226235Y-71085234D01*
X60226238Y-71085233D01*
X60424164Y-71025193D01*
X60501293Y-71017596D01*
X60578420Y-71010000D01*
X60681580Y-71010000D01*
X60758707Y-71017596D01*
X60758707Y-71017596D01*
G37*
G36*
X70370000Y-73090000D02*
G01*
X68670000Y-73090000D01*
X68670000Y-71190000D01*
X70370000Y-71190000D01*
X70370000Y-73090000D01*
X70370000Y-73090000D01*
G37*
G36*
X70370000Y-70390000D02*
G01*
X68670000Y-70390000D01*
X68670000Y-68490000D01*
X70370000Y-68490000D01*
X70370000Y-70390000D01*
X70370000Y-70390000D01*
G37*
G36*
X106110000Y-67830000D02*
G01*
X104210000Y-67830000D01*
X104210000Y-66130000D01*
X106110000Y-66130000D01*
X106110000Y-67830000D01*
X106110000Y-67830000D01*
G37*
G36*
X103410000Y-67830000D02*
G01*
X101510000Y-67830000D01*
X101510000Y-66130000D01*
X103410000Y-66130000D01*
X103410000Y-67830000D01*
X103410000Y-67830000D01*
G37*
G36*
X90810000Y-67805000D02*
G01*
X88910000Y-67805000D01*
X88910000Y-66155000D01*
X90810000Y-66155000D01*
X90810000Y-67805000D01*
X90810000Y-67805000D01*
G37*
G36*
X93310000Y-67805000D02*
G01*
X91410000Y-67805000D01*
X91410000Y-66155000D01*
X93310000Y-66155000D01*
X93310000Y-67805000D01*
X93310000Y-67805000D01*
G37*
G36*
X90630000Y-65290000D02*
G01*
X88730000Y-65290000D01*
X88730000Y-63590000D01*
X90630000Y-63590000D01*
X90630000Y-65290000D01*
X90630000Y-65290000D01*
G37*
G36*
X93330000Y-65290000D02*
G01*
X91430000Y-65290000D01*
X91430000Y-63590000D01*
X93330000Y-63590000D01*
X93330000Y-65290000D01*
X93330000Y-65290000D01*
G37*
G36*
X69180000Y-63995000D02*
G01*
X67280000Y-63995000D01*
X67280000Y-62345000D01*
X69180000Y-62345000D01*
X69180000Y-63995000D01*
X69180000Y-63995000D01*
G37*
G36*
X66680000Y-63995000D02*
G01*
X64780000Y-63995000D01*
X64780000Y-62345000D01*
X66680000Y-62345000D01*
X66680000Y-63995000D01*
X66680000Y-63995000D01*
G37*
G36*
X98380000Y-59640000D02*
G01*
X96280000Y-59640000D01*
X96280000Y-58440000D01*
X98380000Y-58440000D01*
X98380000Y-59640000D01*
X98380000Y-59640000D01*
G37*
G36*
X112580000Y-57914161D02*
G01*
X112582402Y-57938547D01*
X112589515Y-57961996D01*
X112601066Y-57983607D01*
X112616611Y-58002549D01*
X112635553Y-58018094D01*
X112657164Y-58029645D01*
X112680613Y-58036758D01*
X112704999Y-58039160D01*
X112729385Y-58036758D01*
X112752834Y-58029645D01*
X112774445Y-58018094D01*
X112793387Y-58002549D01*
X112808932Y-57983607D01*
X112820483Y-57961996D01*
X112827596Y-57938547D01*
X112864194Y-57754559D01*
X112864194Y-57754557D01*
X112950884Y-57545271D01*
X113076737Y-57356918D01*
X113236918Y-57196737D01*
X113425271Y-57070884D01*
X113634557Y-56984194D01*
X113782676Y-56954731D01*
X113856734Y-56940000D01*
X114083266Y-56940000D01*
X114157324Y-56954731D01*
X114305443Y-56984194D01*
X114514729Y-57070884D01*
X114703082Y-57196737D01*
X114863263Y-57356918D01*
X114989116Y-57545271D01*
X115075806Y-57754557D01*
X115120000Y-57976735D01*
X115120000Y-58203265D01*
X115075806Y-58425443D01*
X114989116Y-58634729D01*
X114863263Y-58823082D01*
X114703082Y-58983263D01*
X114514729Y-59109116D01*
X114305443Y-59195806D01*
X114157324Y-59225269D01*
X114083266Y-59240000D01*
X113856734Y-59240000D01*
X113782676Y-59225269D01*
X113634557Y-59195806D01*
X113425271Y-59109116D01*
X113236918Y-58983263D01*
X113076737Y-58823082D01*
X112950884Y-58634729D01*
X112864194Y-58425443D01*
X112827596Y-58241453D01*
X112820483Y-58218004D01*
X112808932Y-58196393D01*
X112793386Y-58177451D01*
X112774444Y-58161906D01*
X112752834Y-58150355D01*
X112729385Y-58143242D01*
X112704999Y-58140840D01*
X112680613Y-58143242D01*
X112657164Y-58150355D01*
X112635553Y-58161906D01*
X112616611Y-58177452D01*
X112601066Y-58196394D01*
X112589515Y-58218004D01*
X112582402Y-58241453D01*
X112580000Y-58265839D01*
X112580000Y-59240000D01*
X110280000Y-59240000D01*
X110280000Y-56940000D01*
X112580000Y-56940000D01*
X112580000Y-57914161D01*
X112580000Y-57914161D01*
G37*
G36*
X84640000Y-57914161D02*
G01*
X84642402Y-57938547D01*
X84649515Y-57961996D01*
X84661066Y-57983607D01*
X84676611Y-58002549D01*
X84695553Y-58018094D01*
X84717164Y-58029645D01*
X84740613Y-58036758D01*
X84764999Y-58039160D01*
X84789385Y-58036758D01*
X84812834Y-58029645D01*
X84834445Y-58018094D01*
X84853387Y-58002549D01*
X84868932Y-57983607D01*
X84880483Y-57961996D01*
X84887596Y-57938547D01*
X84924194Y-57754559D01*
X84924194Y-57754557D01*
X85010884Y-57545271D01*
X85136737Y-57356918D01*
X85296918Y-57196737D01*
X85485271Y-57070884D01*
X85694557Y-56984194D01*
X85842676Y-56954731D01*
X85916734Y-56940000D01*
X86143266Y-56940000D01*
X86217324Y-56954731D01*
X86365443Y-56984194D01*
X86574729Y-57070884D01*
X86763082Y-57196737D01*
X86923263Y-57356918D01*
X87049116Y-57545271D01*
X87135806Y-57754557D01*
X87180000Y-57976735D01*
X87180000Y-58203265D01*
X87135806Y-58425443D01*
X87049116Y-58634729D01*
X86923263Y-58823082D01*
X86763082Y-58983263D01*
X86574729Y-59109116D01*
X86365443Y-59195806D01*
X86217324Y-59225269D01*
X86143266Y-59240000D01*
X85916734Y-59240000D01*
X85842676Y-59225269D01*
X85694557Y-59195806D01*
X85485271Y-59109116D01*
X85296918Y-58983263D01*
X85136737Y-58823082D01*
X85010884Y-58634729D01*
X84924194Y-58425443D01*
X84887596Y-58241453D01*
X84880483Y-58218004D01*
X84868932Y-58196393D01*
X84853386Y-58177451D01*
X84834444Y-58161906D01*
X84812834Y-58150355D01*
X84789385Y-58143242D01*
X84764999Y-58140840D01*
X84740613Y-58143242D01*
X84717164Y-58150355D01*
X84695553Y-58161906D01*
X84676611Y-58177452D01*
X84661066Y-58196394D01*
X84649515Y-58218004D01*
X84642402Y-58241453D01*
X84640000Y-58265839D01*
X84640000Y-59240000D01*
X82340000Y-59240000D01*
X82340000Y-56940000D01*
X84640000Y-56940000D01*
X84640000Y-57914161D01*
X84640000Y-57914161D01*
G37*
G36*
X118750000Y-58915000D02*
G01*
X116850000Y-58915000D01*
X116850000Y-57265000D01*
X118750000Y-57265000D01*
X118750000Y-58915000D01*
X118750000Y-58915000D01*
G37*
G36*
X121250000Y-58915000D02*
G01*
X119350000Y-58915000D01*
X119350000Y-57265000D01*
X121250000Y-57265000D01*
X121250000Y-58915000D01*
X121250000Y-58915000D01*
G37*
G36*
X101180000Y-58690000D02*
G01*
X99080000Y-58690000D01*
X99080000Y-57490000D01*
X101180000Y-57490000D01*
X101180000Y-58690000D01*
X101180000Y-58690000D01*
G37*
G36*
X127140000Y-55810000D02*
G01*
X126165839Y-55810000D01*
X126141453Y-55812402D01*
X126118004Y-55819515D01*
X126096393Y-55831066D01*
X126077451Y-55846611D01*
X126061906Y-55865553D01*
X126050355Y-55887164D01*
X126043242Y-55910613D01*
X126040840Y-55934999D01*
X126043242Y-55959385D01*
X126050355Y-55982834D01*
X126061906Y-56004445D01*
X126077451Y-56023387D01*
X126096393Y-56038932D01*
X126118004Y-56050483D01*
X126141454Y-56057596D01*
X126325443Y-56094194D01*
X126534729Y-56180884D01*
X126723082Y-56306737D01*
X126883263Y-56466918D01*
X127009116Y-56655271D01*
X127095806Y-56864557D01*
X127140000Y-57086735D01*
X127140000Y-57313265D01*
X127095806Y-57535443D01*
X127009116Y-57744729D01*
X126883263Y-57933082D01*
X126723082Y-58093263D01*
X126534729Y-58219116D01*
X126325443Y-58305806D01*
X126177324Y-58335269D01*
X126103266Y-58350000D01*
X125876734Y-58350000D01*
X125802676Y-58335269D01*
X125654557Y-58305806D01*
X125445271Y-58219116D01*
X125256918Y-58093263D01*
X125096737Y-57933082D01*
X124970884Y-57744729D01*
X124884194Y-57535443D01*
X124840000Y-57313265D01*
X124840000Y-57086735D01*
X124884194Y-56864557D01*
X124970884Y-56655271D01*
X125096737Y-56466918D01*
X125256918Y-56306737D01*
X125445271Y-56180884D01*
X125654557Y-56094194D01*
X125838546Y-56057596D01*
X125861996Y-56050483D01*
X125883607Y-56038932D01*
X125902549Y-56023386D01*
X125918094Y-56004444D01*
X125929645Y-55982834D01*
X125936758Y-55959385D01*
X125939160Y-55934999D01*
X125936758Y-55910613D01*
X125929645Y-55887164D01*
X125918094Y-55865553D01*
X125902548Y-55846611D01*
X125883606Y-55831066D01*
X125861996Y-55819515D01*
X125838547Y-55812402D01*
X125814161Y-55810000D01*
X124840000Y-55810000D01*
X124840000Y-53510000D01*
X127140000Y-53510000D01*
X127140000Y-55810000D01*
X127140000Y-55810000D01*
G37*
G36*
X98380000Y-57740000D02*
G01*
X96280000Y-57740000D01*
X96280000Y-56540000D01*
X98380000Y-56540000D01*
X98380000Y-57740000D01*
X98380000Y-57740000D01*
G37*
G36*
X107300000Y-56400000D02*
G01*
X105400000Y-56400000D01*
X105400000Y-54700000D01*
X107300000Y-54700000D01*
X107300000Y-56400000D01*
X107300000Y-56400000D01*
G37*
G36*
X104600000Y-56400000D02*
G01*
X102700000Y-56400000D01*
X102700000Y-54700000D01*
X104600000Y-54700000D01*
X104600000Y-56400000D01*
X104600000Y-56400000D01*
G37*
G36*
X115200000Y-54510000D02*
G01*
X113200000Y-54510000D01*
X113200000Y-51510000D01*
X115200000Y-51510000D01*
X115200000Y-54510000D01*
X115200000Y-54510000D01*
G37*
G36*
X112200000Y-54510000D02*
G01*
X110200000Y-54510000D01*
X110200000Y-53410000D01*
X112200000Y-53410000D01*
X112200000Y-54510000D01*
X112200000Y-54510000D01*
G37*
G36*
X88005000Y-54225000D02*
G01*
X84955000Y-54225000D01*
X84955000Y-51795000D01*
X88005000Y-51795000D01*
X88005000Y-54225000D01*
X88005000Y-54225000D01*
G37*
G36*
X92185000Y-54225000D02*
G01*
X89135000Y-54225000D01*
X89135000Y-51795000D01*
X92185000Y-51795000D01*
X92185000Y-54225000D01*
X92185000Y-54225000D01*
G37*
G36*
X101870000Y-54190000D02*
G01*
X100670000Y-54190000D01*
X100670000Y-52090000D01*
X101870000Y-52090000D01*
X101870000Y-54190000D01*
X101870000Y-54190000D01*
G37*
G36*
X69075000Y-53960000D02*
G01*
X67425000Y-53960000D01*
X67425000Y-52060000D01*
X69075000Y-52060000D01*
X69075000Y-53960000D01*
X69075000Y-53960000D01*
G37*
G36*
X97220000Y-53860000D02*
G01*
X95320000Y-53860000D01*
X95320000Y-52160000D01*
X97220000Y-52160000D01*
X97220000Y-53860000D01*
X97220000Y-53860000D01*
G37*
G36*
X94520000Y-53860000D02*
G01*
X92620000Y-53860000D01*
X92620000Y-52160000D01*
X94520000Y-52160000D01*
X94520000Y-53860000D01*
X94520000Y-53860000D01*
G37*
G36*
X112200000Y-52610000D02*
G01*
X110200000Y-52610000D01*
X110200000Y-51510000D01*
X112200000Y-51510000D01*
X112200000Y-52610000D01*
X112200000Y-52610000D01*
G37*
G36*
X124040000Y-52020000D02*
G01*
X121940000Y-52020000D01*
X121940000Y-50820000D01*
X124040000Y-50820000D01*
X124040000Y-52020000D01*
X124040000Y-52020000D01*
G37*
G36*
X69075000Y-51460000D02*
G01*
X67425000Y-51460000D01*
X67425000Y-49560000D01*
X69075000Y-49560000D01*
X69075000Y-51460000D01*
X69075000Y-51460000D01*
G37*
G36*
X102820000Y-51390000D02*
G01*
X101620000Y-51390000D01*
X101620000Y-49290000D01*
X102820000Y-49290000D01*
X102820000Y-51390000D01*
X102820000Y-51390000D01*
G37*
G36*
X100920000Y-51390000D02*
G01*
X99720000Y-51390000D01*
X99720000Y-49290000D01*
X100920000Y-49290000D01*
X100920000Y-51390000D01*
X100920000Y-51390000D01*
G37*
G36*
X79440000Y-51320000D02*
G01*
X77540000Y-51320000D01*
X77540000Y-49620000D01*
X79440000Y-49620000D01*
X79440000Y-51320000D01*
X79440000Y-51320000D01*
G37*
G36*
X76740000Y-51320000D02*
G01*
X74840000Y-51320000D01*
X74840000Y-49620000D01*
X76740000Y-49620000D01*
X76740000Y-51320000D01*
X76740000Y-51320000D01*
G37*
G36*
X85515000Y-51170000D02*
G01*
X83715000Y-51170000D01*
X83715000Y-49770000D01*
X85515000Y-49770000D01*
X85515000Y-51170000D01*
X85515000Y-51170000D01*
G37*
G36*
X83265000Y-51170000D02*
G01*
X81465000Y-51170000D01*
X81465000Y-49770000D01*
X83265000Y-49770000D01*
X83265000Y-51170000D01*
X83265000Y-51170000D01*
G37*
G36*
X121240000Y-51070000D02*
G01*
X119140000Y-51070000D01*
X119140000Y-49870000D01*
X121240000Y-49870000D01*
X121240000Y-51070000D01*
X121240000Y-51070000D01*
G37*
G36*
X124040000Y-50120000D02*
G01*
X121940000Y-50120000D01*
X121940000Y-48920000D01*
X124040000Y-48920000D01*
X124040000Y-50120000D01*
X124040000Y-50120000D01*
G37*
M02*
