G04 #@! TF.GenerationSoftware,KiCad,Pcbnew,(5.0.2)-1*
G04 #@! TF.CreationDate,2019-01-30T16:57:35+01:00*
G04 #@! TF.ProjectId,LampeSolaire,4c616d70-6553-46f6-9c61-6972652e6b69,4*
G04 #@! TF.SameCoordinates,Original*
G04 #@! TF.FileFunction,Copper,L1,Top*
G04 #@! TF.FilePolarity,Positive*
%FSLAX46Y46*%
G04 Gerber Fmt 4.6, Leading zero omitted, Abs format (unit mm)*
G04 Created by KiCad (PCBNEW (5.0.2)-1) date 30.01.2019 16:57:35*
%MOMM*%
%LPD*%
G01*
G04 APERTURE LIST*
G04 #@! TA.AperFunction,NonConductor*
%ADD10C,0.250000*%
G04 #@! TD*
G04 #@! TA.AperFunction,ComponentPad*
%ADD11C,1.800000*%
G04 #@! TD*
G04 #@! TA.AperFunction,ComponentPad*
%ADD12R,1.900000X1.900000*%
G04 #@! TD*
G04 #@! TA.AperFunction,ComponentPad*
%ADD13C,1.900000*%
G04 #@! TD*
G04 #@! TA.AperFunction,ComponentPad*
%ADD14R,1.600000X1.600000*%
G04 #@! TD*
G04 #@! TA.AperFunction,ComponentPad*
%ADD15C,1.600000*%
G04 #@! TD*
G04 #@! TA.AperFunction,SMDPad,CuDef*
%ADD16R,2.000000X1.600000*%
G04 #@! TD*
G04 #@! TA.AperFunction,SMDPad,CuDef*
%ADD17R,1.600000X2.000000*%
G04 #@! TD*
G04 #@! TA.AperFunction,SMDPad,CuDef*
%ADD18R,2.600000X1.000000*%
G04 #@! TD*
G04 #@! TA.AperFunction,ComponentPad*
%ADD19R,1.800000X1.800000*%
G04 #@! TD*
G04 #@! TA.AperFunction,SMDPad,CuDef*
%ADD20R,1.300000X1.500000*%
G04 #@! TD*
G04 #@! TA.AperFunction,SMDPad,CuDef*
%ADD21R,1.500000X1.300000*%
G04 #@! TD*
G04 #@! TA.AperFunction,SMDPad,CuDef*
%ADD22R,1.700000X0.800000*%
G04 #@! TD*
G04 #@! TA.AperFunction,SMDPad,CuDef*
%ADD23R,0.800000X1.700000*%
G04 #@! TD*
G04 #@! TA.AperFunction,SMDPad,CuDef*
%ADD24R,1.560000X0.650000*%
G04 #@! TD*
G04 #@! TA.AperFunction,SMDPad,CuDef*
%ADD25R,0.700000X1.600000*%
G04 #@! TD*
G04 #@! TA.AperFunction,SMDPad,CuDef*
%ADD26R,2.650000X2.030000*%
G04 #@! TD*
G04 #@! TA.AperFunction,ComponentPad*
%ADD27R,2.400000X1.600000*%
G04 #@! TD*
G04 #@! TA.AperFunction,ComponentPad*
%ADD28O,2.400000X1.600000*%
G04 #@! TD*
G04 #@! TA.AperFunction,ComponentPad*
%ADD29R,1.700000X1.700000*%
G04 #@! TD*
G04 #@! TA.AperFunction,SMDPad,CuDef*
%ADD30R,1.800000X0.600000*%
G04 #@! TD*
G04 #@! TA.AperFunction,ViaPad*
%ADD31C,1.000000*%
G04 #@! TD*
G04 #@! TA.AperFunction,ViaPad*
%ADD32C,0.800000*%
G04 #@! TD*
G04 #@! TA.AperFunction,Conductor*
%ADD33C,0.700000*%
G04 #@! TD*
G04 #@! TA.AperFunction,Conductor*
%ADD34C,0.250000*%
G04 #@! TD*
G04 #@! TA.AperFunction,Conductor*
%ADD35C,0.203200*%
G04 #@! TD*
G04 APERTURE END LIST*
D10*
X62630666Y-92816571D02*
X62297333Y-92816571D01*
X62297333Y-93340380D02*
X62297333Y-92340380D01*
X62773523Y-92340380D01*
X63154476Y-93245142D02*
X63202095Y-93292761D01*
X63154476Y-93340380D01*
X63106857Y-93292761D01*
X63154476Y-93245142D01*
X63154476Y-93340380D01*
X64202095Y-93245142D02*
X64154476Y-93292761D01*
X64011619Y-93340380D01*
X63916380Y-93340380D01*
X63773523Y-93292761D01*
X63678285Y-93197523D01*
X63630666Y-93102285D01*
X63583047Y-92911809D01*
X63583047Y-92768952D01*
X63630666Y-92578476D01*
X63678285Y-92483238D01*
X63773523Y-92388000D01*
X63916380Y-92340380D01*
X64011619Y-92340380D01*
X64154476Y-92388000D01*
X64202095Y-92435619D01*
X65059238Y-92673714D02*
X65059238Y-93340380D01*
X64630666Y-92673714D02*
X64630666Y-93197523D01*
X64678285Y-93292761D01*
X64773523Y-93340380D01*
X64916380Y-93340380D01*
X65011619Y-93292761D01*
X65059238Y-93245142D01*
X66297333Y-92959428D02*
X67059238Y-92959428D01*
X68154476Y-92340380D02*
X68487809Y-93340380D01*
X68821142Y-92340380D01*
X69583047Y-92673714D02*
X69583047Y-93340380D01*
X69344952Y-92292761D02*
X69106857Y-93007047D01*
X69725904Y-93007047D01*
D11*
G04 #@! TO.P,R2,3*
G04 #@! TO.N,GND_ALIM*
X84760000Y-61900000D03*
G04 #@! TO.P,R2,2*
G04 #@! TO.N,/VPROG*
X82220000Y-59360000D03*
G04 #@! TO.P,R2,1*
X79680000Y-61900000D03*
G04 #@! TD*
D12*
G04 #@! TO.P,W3,1*
G04 #@! TO.N,Net-(U1-Pad3)*
X96190000Y-50470000D03*
D13*
G04 #@! TO.P,W3,2*
G04 #@! TO.N,Net-(C2-Pad1)*
X96190000Y-53010000D03*
G04 #@! TD*
D14*
G04 #@! TO.P,C1,1*
G04 #@! TO.N,VSC*
X91110000Y-51740000D03*
D15*
G04 #@! TO.P,C1,2*
G04 #@! TO.N,GND_ALIM*
X91110000Y-53740000D03*
G04 #@! TD*
D14*
G04 #@! TO.P,C2,1*
G04 #@! TO.N,Net-(C2-Pad1)*
X91110000Y-59360000D03*
D15*
G04 #@! TO.P,C2,2*
G04 #@! TO.N,GND_ALIM*
X91110000Y-61360000D03*
G04 #@! TD*
D16*
G04 #@! TO.P,C3,1*
G04 #@! TO.N,/VBAT_0*
X112160000Y-50470000D03*
G04 #@! TO.P,C3,2*
G04 #@! TO.N,GND_ALIM*
X108160000Y-50470000D03*
G04 #@! TD*
D17*
G04 #@! TO.P,C4,1*
G04 #@! TO.N,VBAT*
X127940000Y-56280000D03*
G04 #@! TO.P,C4,2*
G04 #@! TO.N,GND_ALIM*
X127940000Y-52280000D03*
G04 #@! TD*
G04 #@! TO.P,C5,1*
G04 #@! TO.N,VCC*
X139370000Y-60090000D03*
G04 #@! TO.P,C5,2*
G04 #@! TO.N,GND*
X139370000Y-56090000D03*
G04 #@! TD*
D18*
G04 #@! TO.P,K1,7*
G04 #@! TO.N,Net-(K1-Pad7)*
X124890000Y-86200000D03*
G04 #@! TO.P,K1,6*
G04 #@! TO.N,Net-(K1-Pad3)*
X124890000Y-88400000D03*
G04 #@! TO.P,K1,5*
G04 #@! TO.N,Net-(K1-Pad5)*
X124890000Y-90600000D03*
G04 #@! TO.P,K1,8*
G04 #@! TO.N,/-*
X124890000Y-83000000D03*
G04 #@! TO.P,K1,1*
G04 #@! TO.N,/+*
X118290000Y-83000000D03*
G04 #@! TO.P,K1,4*
G04 #@! TO.N,Net-(K1-Pad4)*
X118290000Y-90600000D03*
G04 #@! TO.P,K1,3*
G04 #@! TO.N,Net-(K1-Pad3)*
X118290000Y-88400000D03*
G04 #@! TO.P,K1,2*
G04 #@! TO.N,Net-(K1-Pad2)*
X118290000Y-86200000D03*
G04 #@! TD*
D19*
G04 #@! TO.P,P1,1*
G04 #@! TO.N,Net-(P1-Pad1)*
X70790000Y-60630000D03*
D11*
G04 #@! TO.P,P1,2*
G04 #@! TO.N,VSC*
X70790000Y-58090000D03*
G04 #@! TD*
D20*
G04 #@! TO.P,R1,1*
G04 #@! TO.N,/STAT*
X74600000Y-58010000D03*
G04 #@! TO.P,R1,2*
G04 #@! TO.N,Net-(P1-Pad1)*
X74600000Y-60710000D03*
G04 #@! TD*
G04 #@! TO.P,R3,1*
G04 #@! TO.N,/~RST*
X115240000Y-53090000D03*
G04 #@! TO.P,R3,2*
G04 #@! TO.N,/VBAT_0*
X115240000Y-50390000D03*
G04 #@! TD*
G04 #@! TO.P,R4,1*
G04 #@! TO.N,Net-(R4-Pad1)*
X117780000Y-53090000D03*
G04 #@! TO.P,R4,2*
G04 #@! TO.N,/VBAT_0*
X117780000Y-50390000D03*
G04 #@! TD*
G04 #@! TO.P,R5,1*
G04 #@! TO.N,Net-(R5-Pad1)*
X65710000Y-77220000D03*
G04 #@! TO.P,R5,2*
G04 #@! TO.N,Net-(R5-Pad2)*
X65710000Y-74520000D03*
G04 #@! TD*
G04 #@! TO.P,R6,1*
G04 #@! TO.N,Net-(R6-Pad1)*
X68250000Y-77220000D03*
G04 #@! TO.P,R6,2*
G04 #@! TO.N,Net-(R6-Pad2)*
X68250000Y-74520000D03*
G04 #@! TD*
G04 #@! TO.P,R7,1*
G04 #@! TO.N,Net-(R7-Pad1)*
X70790000Y-77220000D03*
G04 #@! TO.P,R7,2*
G04 #@! TO.N,Net-(R7-Pad2)*
X70790000Y-74520000D03*
G04 #@! TD*
G04 #@! TO.P,R8,1*
G04 #@! TO.N,Net-(R8-Pad1)*
X73330000Y-77220000D03*
G04 #@! TO.P,R8,2*
G04 #@! TO.N,Net-(R8-Pad2)*
X73330000Y-74520000D03*
G04 #@! TD*
G04 #@! TO.P,R9,1*
G04 #@! TO.N,/INT*
X75870000Y-77220000D03*
G04 #@! TO.P,R9,2*
G04 #@! TO.N,Net-(R9-Pad2)*
X75870000Y-74520000D03*
G04 #@! TD*
D21*
G04 #@! TO.P,R10,1*
G04 #@! TO.N,/VPP*
X91825000Y-112700000D03*
G04 #@! TO.P,R10,2*
G04 #@! TO.N,VCC*
X89125000Y-112700000D03*
G04 #@! TD*
D20*
G04 #@! TO.P,R11,1*
G04 #@! TO.N,GND*
X79680000Y-110240000D03*
G04 #@! TO.P,R11,2*
G04 #@! TO.N,Net-(R11-Pad2)*
X79680000Y-107540000D03*
G04 #@! TD*
D12*
G04 #@! TO.P,SC1,1*
G04 #@! TO.N,Net-(SC1-Pad1)*
X68250000Y-50470000D03*
D13*
G04 #@! TO.P,SC1,2*
G04 #@! TO.N,GND_ALIM*
X68250000Y-53010000D03*
G04 #@! TD*
D22*
G04 #@! TO.P,T1,1*
G04 #@! TO.N,GND_ALIM*
X103940000Y-56500000D03*
G04 #@! TO.P,T1,2*
G04 #@! TO.N,/VBAT_0*
X103940000Y-54600000D03*
G04 #@! TO.P,T1,3*
G04 #@! TO.N,Net-(F1-Pad1)*
X101140000Y-55550000D03*
G04 #@! TD*
G04 #@! TO.P,T2,1*
G04 #@! TO.N,Net-(R4-Pad1)*
X121460000Y-55870000D03*
G04 #@! TO.P,T2,2*
G04 #@! TO.N,/VBAT_0*
X121460000Y-57770000D03*
G04 #@! TO.P,T2,3*
G04 #@! TO.N,VBAT*
X124260000Y-56820000D03*
G04 #@! TD*
G04 #@! TO.P,T3,1*
G04 #@! TO.N,/~RST*
X121460000Y-50790000D03*
G04 #@! TO.P,T3,2*
G04 #@! TO.N,GND_ALIM*
X121460000Y-52690000D03*
G04 #@! TO.P,T3,3*
G04 #@! TO.N,Net-(R4-Pad1)*
X124260000Y-51740000D03*
G04 #@! TD*
D23*
G04 #@! TO.P,T4,1*
G04 #@! TO.N,/SET*
X82540000Y-73460000D03*
G04 #@! TO.P,T4,2*
G04 #@! TO.N,/+*
X84440000Y-73460000D03*
G04 #@! TO.P,T4,3*
G04 #@! TO.N,Net-(R12-Pad1)*
X83490000Y-70660000D03*
G04 #@! TD*
G04 #@! TO.P,T5,1*
G04 #@! TO.N,/RESET2*
X95240000Y-73460000D03*
G04 #@! TO.P,T5,2*
G04 #@! TO.N,GND*
X97140000Y-73460000D03*
G04 #@! TO.P,T5,3*
G04 #@! TO.N,/+*
X96190000Y-70660000D03*
G04 #@! TD*
D24*
G04 #@! TO.P,U1,1*
G04 #@! TO.N,/STAT*
X84840000Y-52690000D03*
G04 #@! TO.P,U1,2*
G04 #@! TO.N,GND_ALIM*
X84840000Y-51740000D03*
G04 #@! TO.P,U1,3*
G04 #@! TO.N,Net-(U1-Pad3)*
X84840000Y-50790000D03*
G04 #@! TO.P,U1,4*
G04 #@! TO.N,VSC*
X82140000Y-50790000D03*
G04 #@! TO.P,U1,5*
G04 #@! TO.N,/VPROG*
X82140000Y-52690000D03*
G04 #@! TD*
D22*
G04 #@! TO.P,U2,1*
G04 #@! TO.N,/~RST*
X110290000Y-56500000D03*
G04 #@! TO.P,U2,2*
G04 #@! TO.N,/VBAT_0*
X110290000Y-54600000D03*
G04 #@! TO.P,U2,3*
G04 #@! TO.N,GND_ALIM*
X107490000Y-55550000D03*
G04 #@! TD*
D25*
G04 #@! TO.P,U3,1*
G04 #@! TO.N,VBAT*
X132700000Y-50240000D03*
G04 #@! TO.P,U3,2*
G04 #@! TO.N,GND_ALIM*
X131750000Y-50240000D03*
G04 #@! TO.P,U3,3*
G04 #@! TO.N,/~RST*
X130800000Y-50240000D03*
G04 #@! TO.P,U3,4*
G04 #@! TO.N,GND_ALIM*
X130800000Y-53240000D03*
G04 #@! TO.P,U3,5*
G04 #@! TO.N,Net-(U3-Pad5)*
X132700000Y-53240000D03*
G04 #@! TD*
D12*
G04 #@! TO.P,W1,1*
G04 #@! TO.N,Net-(SC1-Pad1)*
X72060000Y-50470000D03*
D13*
G04 #@! TO.P,W1,2*
G04 #@! TO.N,Net-(W1-Pad2)*
X72060000Y-53010000D03*
G04 #@! TD*
D12*
G04 #@! TO.P,W2,1*
G04 #@! TO.N,Net-(W1-Pad2)*
X75870000Y-50470000D03*
D13*
G04 #@! TO.P,W2,2*
G04 #@! TO.N,VSC*
X75870000Y-53010000D03*
G04 #@! TD*
D12*
G04 #@! TO.P,X4,1*
G04 #@! TO.N,VCC*
X79680000Y-94920000D03*
D13*
G04 #@! TO.P,X4,2*
G04 #@! TO.N,Net-(U5-Pad7)*
X79680000Y-97460000D03*
G04 #@! TD*
D12*
G04 #@! TO.P,X5,1*
G04 #@! TO.N,VCC*
X75870000Y-107620000D03*
D13*
G04 #@! TO.P,X5,2*
G04 #@! TO.N,Net-(R11-Pad2)*
X75870000Y-110160000D03*
G04 #@! TD*
D12*
G04 #@! TO.P,P2,1*
G04 #@! TO.N,GND*
X130480000Y-87300000D03*
D13*
G04 #@! TO.P,P2,2*
G04 #@! TO.N,Net-(P2-Pad2)*
X130480000Y-84760000D03*
G04 #@! TD*
D12*
G04 #@! TO.P,P3,1*
G04 #@! TO.N,GND*
X135560000Y-87300000D03*
D13*
G04 #@! TO.P,P3,2*
G04 #@! TO.N,Net-(P3-Pad2)*
X135560000Y-84760000D03*
G04 #@! TD*
D11*
G04 #@! TO.P,R14,1*
G04 #@! TO.N,Net-(K1-Pad5)*
X125400000Y-75870000D03*
G04 #@! TO.P,R14,2*
G04 #@! TO.N,Net-(P3-Pad2)*
X133020000Y-78410000D03*
G04 #@! TO.P,R14,3*
X138100000Y-75870000D03*
G04 #@! TD*
D12*
G04 #@! TO.P,V1,1*
G04 #@! TO.N,Net-(C2-Pad1)*
X96190000Y-58090000D03*
D13*
G04 #@! TO.P,V1,2*
G04 #@! TO.N,GND_ALIM*
X96190000Y-60630000D03*
G04 #@! TD*
D26*
G04 #@! TO.P,F1,2*
G04 #@! TO.N,Net-(C2-Pad1)*
X100450000Y-50470000D03*
G04 #@! TO.P,F1,1*
G04 #@! TO.N,Net-(F1-Pad1)*
X104630000Y-50470000D03*
G04 #@! TD*
D23*
G04 #@! TO.P,T6,3*
G04 #@! TO.N,Net-(R12-Pad1)*
X89840000Y-73460000D03*
G04 #@! TO.P,T6,2*
G04 #@! TO.N,/-*
X88890000Y-70660000D03*
G04 #@! TO.P,T6,1*
G04 #@! TO.N,/RESET2*
X90790000Y-70660000D03*
G04 #@! TD*
G04 #@! TO.P,T7,1*
G04 #@! TO.N,/SET*
X101590000Y-73460000D03*
G04 #@! TO.P,T7,2*
G04 #@! TO.N,GND*
X103490000Y-73460000D03*
G04 #@! TO.P,T7,3*
G04 #@! TO.N,/-*
X102540000Y-70660000D03*
G04 #@! TD*
D17*
G04 #@! TO.P,C6,2*
G04 #@! TO.N,GND*
X110795000Y-103905000D03*
G04 #@! TO.P,C6,1*
G04 #@! TO.N,VCC*
X110795000Y-99905000D03*
G04 #@! TD*
D21*
G04 #@! TO.P,R12,1*
G04 #@! TO.N,Net-(R12-Pad1)*
X83570000Y-66980000D03*
G04 #@! TO.P,R12,2*
G04 #@! TO.N,VCC*
X80870000Y-66980000D03*
G04 #@! TD*
D11*
G04 #@! TO.P,R13,1*
G04 #@! TO.N,Net-(K1-Pad4)*
X125400000Y-69520000D03*
G04 #@! TO.P,R13,2*
G04 #@! TO.N,Net-(P2-Pad2)*
X133020000Y-72060000D03*
G04 #@! TO.P,R13,3*
X138100000Y-69520000D03*
G04 #@! TD*
D13*
G04 #@! TO.P,U4,1*
G04 #@! TO.N,GND*
X60630000Y-69520000D03*
G04 #@! TO.P,U4,5*
G04 #@! TO.N,Net-(R7-Pad2)*
X70790000Y-69520000D03*
G04 #@! TO.P,U4,6*
G04 #@! TO.N,Net-(R8-Pad2)*
X73330000Y-69520000D03*
G04 #@! TO.P,U4,7*
G04 #@! TO.N,Net-(R9-Pad2)*
X75870000Y-69520000D03*
G04 #@! TO.P,U4,4*
G04 #@! TO.N,Net-(R6-Pad2)*
X68250000Y-69520000D03*
G04 #@! TO.P,U4,3*
G04 #@! TO.N,Net-(R5-Pad2)*
X65710000Y-69520000D03*
G04 #@! TO.P,U4,2*
G04 #@! TO.N,VBAT*
X63170000Y-69520000D03*
G04 #@! TD*
D27*
G04 #@! TO.P,U5,1*
G04 #@! TO.N,Net-(R7-Pad1)*
X96190000Y-89840000D03*
D28*
G04 #@! TO.P,U5,10*
G04 #@! TO.N,Net-(U5-Pad10)*
X103810000Y-110160000D03*
G04 #@! TO.P,U5,2*
G04 #@! TO.N,Net-(R8-Pad1)*
X96190000Y-92380000D03*
G04 #@! TO.P,U5,11*
G04 #@! TO.N,Net-(U5-Pad11)*
X103810000Y-107620000D03*
G04 #@! TO.P,U5,3*
G04 #@! TO.N,Net-(U5-Pad3)*
X96190000Y-94920000D03*
G04 #@! TO.P,U5,12*
G04 #@! TO.N,/ICSPCLK*
X103810000Y-105080000D03*
G04 #@! TO.P,U5,4*
G04 #@! TO.N,/VPP*
X96190000Y-97460000D03*
G04 #@! TO.P,U5,13*
G04 #@! TO.N,/ICSPDAT*
X103810000Y-102540000D03*
G04 #@! TO.P,U5,5*
G04 #@! TO.N,GND*
X96190000Y-100000000D03*
G04 #@! TO.P,U5,14*
G04 #@! TO.N,VCC*
X103810000Y-100000000D03*
G04 #@! TO.P,U5,6*
G04 #@! TO.N,/INT*
X96190000Y-102540000D03*
G04 #@! TO.P,U5,15*
G04 #@! TO.N,/RESET*
X103810000Y-97460000D03*
G04 #@! TO.P,U5,7*
G04 #@! TO.N,Net-(U5-Pad7)*
X96190000Y-105080000D03*
G04 #@! TO.P,U5,16*
G04 #@! TO.N,/SET*
X103810000Y-94920000D03*
G04 #@! TO.P,U5,8*
G04 #@! TO.N,Net-(R11-Pad2)*
X96190000Y-107620000D03*
G04 #@! TO.P,U5,17*
G04 #@! TO.N,Net-(R5-Pad1)*
X103810000Y-92380000D03*
G04 #@! TO.P,U5,9*
G04 #@! TO.N,Net-(U5-Pad9)*
X96190000Y-110160000D03*
G04 #@! TO.P,U5,18*
G04 #@! TO.N,Net-(R6-Pad1)*
X103810000Y-89840000D03*
G04 #@! TD*
D13*
G04 #@! TO.P,W4,2*
G04 #@! TO.N,GND*
X135560000Y-59360000D03*
D12*
G04 #@! TO.P,W4,1*
G04 #@! TO.N,GND_ALIM*
X135560000Y-56820000D03*
G04 #@! TD*
G04 #@! TO.P,W5,1*
G04 #@! TO.N,Net-(U3-Pad5)*
X131750000Y-56820000D03*
D13*
G04 #@! TO.P,W5,2*
G04 #@! TO.N,VCC*
X131750000Y-59360000D03*
G04 #@! TD*
G04 #@! TO.P,X1,2*
G04 #@! TO.N,GND_ALIM*
X64440000Y-53010000D03*
D12*
G04 #@! TO.P,X1,1*
G04 #@! TO.N,Net-(W1-Pad2)*
X64440000Y-50470000D03*
G04 #@! TD*
G04 #@! TO.P,X2,1*
G04 #@! TO.N,/VPP*
X125400000Y-108890000D03*
D13*
G04 #@! TO.P,X2,2*
G04 #@! TO.N,VCC*
X127940000Y-108890000D03*
G04 #@! TO.P,X2,3*
G04 #@! TO.N,GND*
X130480000Y-108890000D03*
G04 #@! TO.P,X2,4*
G04 #@! TO.N,/ICSPDAT*
X133020000Y-108890000D03*
G04 #@! TO.P,X2,5*
G04 #@! TO.N,/ICSPCLK*
X135560000Y-108890000D03*
G04 #@! TO.P,X2,6*
G04 #@! TO.N,N/C*
X138100000Y-108890000D03*
G04 #@! TD*
D29*
G04 #@! TO.P,X3,1*
G04 #@! TO.N,Net-(U5-Pad3)*
X84760000Y-94920000D03*
G04 #@! TD*
D13*
G04 #@! TO.P,X6,2*
G04 #@! TO.N,Net-(U5-Pad9)*
X86030000Y-107620000D03*
D12*
G04 #@! TO.P,X6,1*
G04 #@! TO.N,VCC*
X86030000Y-110160000D03*
G04 #@! TD*
G04 #@! TO.P,X7,1*
G04 #@! TO.N,VCC*
X120320000Y-107620000D03*
D13*
G04 #@! TO.P,X7,2*
G04 #@! TO.N,Net-(U5-Pad10)*
X120320000Y-110160000D03*
G04 #@! TD*
D29*
G04 #@! TO.P,X8,1*
G04 #@! TO.N,Net-(U5-Pad11)*
X115240000Y-107620000D03*
G04 #@! TD*
D30*
G04 #@! TO.P,U6,1*
G04 #@! TO.N,/SET*
X109850000Y-68250000D03*
G04 #@! TO.P,U6,2*
X109850000Y-69520000D03*
G04 #@! TO.P,U6,3*
G04 #@! TO.N,Net-(U6-Pad3)*
X109850000Y-70790000D03*
G04 #@! TO.P,U6,4*
X109850000Y-72060000D03*
G04 #@! TO.P,U6,5*
G04 #@! TO.N,/RESET*
X109850000Y-73330000D03*
G04 #@! TO.P,U6,6*
G04 #@! TO.N,Net-(U6-Pad10)*
X109850000Y-74600000D03*
G04 #@! TO.P,U6,7*
G04 #@! TO.N,GND*
X109850000Y-75870000D03*
G04 #@! TO.P,U6,8*
G04 #@! TO.N,/RESET2*
X115550000Y-75870000D03*
G04 #@! TO.P,U6,9*
G04 #@! TO.N,Net-(U6-Pad10)*
X115550000Y-74600000D03*
G04 #@! TO.P,U6,10*
X115550000Y-73330000D03*
G04 #@! TO.P,U6,11*
G04 #@! TO.N,Net-(U6-Pad11)*
X115550000Y-72060000D03*
G04 #@! TO.P,U6,12*
G04 #@! TO.N,Net-(U6-Pad12)*
X115550000Y-70790000D03*
G04 #@! TO.P,U6,13*
G04 #@! TO.N,Net-(U6-Pad13)*
X115550000Y-69520000D03*
G04 #@! TO.P,U6,14*
G04 #@! TO.N,VCC*
X115550000Y-68250000D03*
G04 #@! TD*
D13*
G04 #@! TO.P,TP1,1*
G04 #@! TO.N,VCC*
X131750000Y-63170000D03*
G04 #@! TD*
G04 #@! TO.P,TP2,1*
G04 #@! TO.N,GND*
X135560000Y-63170000D03*
G04 #@! TD*
G04 #@! TO.P,TP3,1*
G04 #@! TO.N,VBAT*
X127940000Y-63170000D03*
G04 #@! TD*
G04 #@! TO.P,TP4,1*
G04 #@! TO.N,VSC*
X66980000Y-58090000D03*
G04 #@! TD*
G04 #@! TO.P,TP5,1*
G04 #@! TO.N,GND_ALIM*
X66980000Y-60630000D03*
G04 #@! TD*
D12*
G04 #@! TO.P,W6,1*
G04 #@! TO.N,VBAT*
X113970000Y-86030000D03*
D13*
G04 #@! TO.P,W6,2*
G04 #@! TO.N,Net-(K1-Pad3)*
X113970000Y-88570000D03*
G04 #@! TD*
D31*
G04 #@! TO.N,VSC*
X78600500Y-50787500D03*
X78600500Y-53010000D03*
X91110000Y-49073000D03*
X78600500Y-49073000D03*
X96825000Y-46025000D03*
X88570000Y-46025000D03*
X76505000Y-62535000D03*
X62535000Y-62535000D03*
X59995000Y-50470000D03*
X69520000Y-46660000D03*
X85395000Y-58725000D03*
X93015000Y-56185000D03*
G04 #@! TO.N,GND*
X92380000Y-100000000D03*
X92380000Y-115240000D03*
X98666500Y-73457000D03*
X98666500Y-65519500D03*
X92380000Y-79108500D03*
X98666500Y-79108500D03*
X60630000Y-65519500D03*
X98666500Y-75870000D03*
X135560000Y-65519500D03*
X127940000Y-65519500D03*
X127940000Y-84760000D03*
X130480000Y-115240000D03*
X110795000Y-105715000D03*
X110795000Y-115240000D03*
G04 #@! TO.N,VBAT*
X126448000Y-56280000D03*
X134226500Y-50343000D03*
X63170000Y-64440000D03*
X115240000Y-64440000D03*
X101905000Y-46025000D03*
X112065000Y-46025000D03*
X125400000Y-46025000D03*
X101905000Y-59995000D03*
X108890000Y-59995000D03*
X118415000Y-59995000D03*
G04 #@! TO.N,VCC*
X139370000Y-62090500D03*
X106350000Y-100000000D03*
X106350000Y-116510000D03*
X73711000Y-116510000D03*
X73711000Y-107620000D03*
X86030000Y-116510000D03*
X73711000Y-94920000D03*
X80950000Y-68250000D03*
X79680000Y-80188000D03*
X131750000Y-66599000D03*
X118161000Y-66599000D03*
X118161000Y-80188000D03*
X118161000Y-68250000D03*
X120320000Y-100000000D03*
X127940000Y-113970000D03*
X122860000Y-113970000D03*
X86030000Y-112700000D03*
G04 #@! TO.N,Net-(K1-Pad5)*
X127876500Y-90602000D03*
G04 #@! TO.N,/-*
X100254000Y-68948500D03*
X100254000Y-81521500D03*
G04 #@! TO.N,/+*
X85966500Y-73457000D03*
X85966500Y-67869000D03*
X93713500Y-70663000D03*
X93713500Y-67869000D03*
X85966500Y-82982000D03*
G04 #@! TO.N,Net-(K1-Pad3)*
X122923500Y-88379500D03*
X120256500Y-88379500D03*
D32*
G04 #@! TO.N,/STAT*
X88189000Y-52692500D03*
X88189000Y-56248500D03*
G04 #@! TO.N,/VPROG*
X82220000Y-53962500D03*
G04 #@! TO.N,/~RST*
X112954000Y-54597500D03*
X112954000Y-49009500D03*
X128956000Y-49009500D03*
X126924000Y-49009500D03*
G04 #@! TO.N,Net-(R5-Pad1)*
X65710000Y-78410000D03*
X65710000Y-87300000D03*
X106350000Y-87300000D03*
X106350000Y-92380000D03*
G04 #@! TO.N,Net-(R6-Pad1)*
X107620000Y-89840000D03*
X107620000Y-86030000D03*
X68250000Y-86030000D03*
X68250000Y-78410000D03*
G04 #@! TO.N,Net-(R7-Pad1)*
X70790000Y-78410000D03*
X70790000Y-89840000D03*
G04 #@! TO.N,Net-(R8-Pad1)*
X73330000Y-92380000D03*
X73330000Y-78410000D03*
G04 #@! TO.N,/SET*
X93015000Y-74917500D03*
X108445500Y-78156000D03*
X93015000Y-78156000D03*
X108445500Y-69520000D03*
X108890000Y-94920000D03*
G04 #@! TO.N,/RESET*
X107620000Y-73330000D03*
X107620000Y-78981500D03*
X110160000Y-78981500D03*
X110160000Y-97460000D03*
G04 #@! TO.N,/VPP*
X125400000Y-112700000D03*
X93650000Y-112700000D03*
X93650000Y-97460000D03*
G04 #@! TO.N,/ICSPDAT*
X133020000Y-116510000D03*
X107620000Y-116510000D03*
X107620000Y-102540000D03*
G04 #@! TO.N,/ICSPCLK*
X108890000Y-117780000D03*
X135560000Y-117780000D03*
X108890000Y-105080000D03*
G04 #@! TO.N,/INT*
X75870000Y-102540000D03*
X75870000Y-78410000D03*
D31*
G04 #@! TO.N,GND_ALIM*
X68250000Y-55169000D03*
X86919000Y-55169000D03*
X86919000Y-51740000D03*
X86919000Y-61900000D03*
X86919000Y-47803000D03*
X106096000Y-47803000D03*
X106096000Y-56502500D03*
X119558000Y-52692500D03*
X119558000Y-47803000D03*
X135496500Y-47803000D03*
D32*
G04 #@! TO.N,/RESET2*
X92189500Y-70663000D03*
X92189500Y-73457000D03*
X92189500Y-77330500D03*
X117018000Y-77330500D03*
X117018000Y-75870000D03*
D31*
G04 #@! TO.N,/VBAT_0*
X110287000Y-52692500D03*
X112382500Y-57836000D03*
D32*
G04 #@! TO.N,Net-(R11-Pad2)*
X82220000Y-107556500D03*
X82220000Y-105080000D03*
X89840000Y-105080000D03*
X89840000Y-107620000D03*
G04 #@! TO.N,Net-(R12-Pad1)*
X87490500Y-70663000D03*
X87490500Y-73457000D03*
G04 #@! TO.N,Net-(U5-Pad7)*
X91110000Y-105080000D03*
X91110000Y-97460000D03*
G04 #@! TO.N,Net-(U5-Pad9)*
X88570000Y-107620000D03*
X88570000Y-110160000D03*
G04 #@! TO.N,Net-(U6-Pad10)*
X111176000Y-74600000D03*
X114224000Y-74600000D03*
D31*
G04 #@! TO.N,Net-(K1-Pad4)*
X113970000Y-91110000D03*
G04 #@! TD*
D33*
G04 #@! TO.N,VSC*
X78603000Y-50790000D02*
X78600500Y-50787500D01*
X78600500Y-53010000D02*
X75870000Y-53010000D01*
X82140000Y-50790000D02*
X78603000Y-50790000D01*
X78603000Y-50790000D02*
X78600500Y-50787500D01*
X78600500Y-49073000D02*
X82220000Y-49073000D01*
X82220000Y-49073000D02*
X91110000Y-49073000D01*
X66980000Y-58090000D02*
X70790000Y-58090000D01*
X82220000Y-49073000D02*
X82220000Y-47295000D01*
X83490000Y-46025000D02*
X88570000Y-46025000D01*
X88570000Y-46025000D02*
X96825000Y-46025000D01*
X82220000Y-47295000D02*
X83490000Y-46025000D01*
X78600500Y-49073000D02*
X78600500Y-48755500D01*
X59995000Y-60630000D02*
X61900000Y-62535000D01*
X59995000Y-48565000D02*
X59995000Y-50470000D01*
X59995000Y-50470000D02*
X59995000Y-60630000D01*
X61900000Y-46660000D02*
X59995000Y-48565000D01*
X76505000Y-46660000D02*
X69520000Y-46660000D01*
X69520000Y-46660000D02*
X61900000Y-46660000D01*
X78600500Y-48755500D02*
X76505000Y-46660000D01*
X61900000Y-62535000D02*
X62535000Y-62535000D01*
X62535000Y-62535000D02*
X76505000Y-62535000D01*
X91110000Y-51740000D02*
X93015000Y-51740000D01*
X87935000Y-58725000D02*
X85395000Y-58725000D01*
X89840000Y-56820000D02*
X87935000Y-58725000D01*
X92380000Y-56820000D02*
X89840000Y-56820000D01*
X93650000Y-55550000D02*
X93015000Y-56185000D01*
X93015000Y-56185000D02*
X92380000Y-56820000D01*
X93650000Y-52375000D02*
X93650000Y-55550000D01*
X93015000Y-51740000D02*
X93650000Y-52375000D01*
G04 #@! TO.N,GND*
X135560000Y-63170000D02*
X135560000Y-59360000D01*
X139370000Y-56090000D02*
X137941000Y-56090000D01*
X137020500Y-59360000D02*
X135560000Y-59360000D01*
X137528500Y-58852000D02*
X137020500Y-59360000D01*
X137528500Y-56502500D02*
X137528500Y-58852000D01*
X137941000Y-56090000D02*
X137528500Y-56502500D01*
X92380000Y-100000000D02*
X96190000Y-100000000D01*
X97140000Y-73460000D02*
X98663500Y-73460000D01*
X98663500Y-73460000D02*
X98666500Y-73457000D01*
X79680000Y-110240000D02*
X79760000Y-110160000D01*
X92380000Y-79108500D02*
X98666500Y-79108500D01*
X98730000Y-65519500D02*
X98666500Y-65519500D01*
X98666500Y-65519500D02*
X60630000Y-65519500D01*
X109850000Y-75870000D02*
X103490000Y-75870000D01*
X103490000Y-75870000D02*
X98666500Y-75870000D01*
X103490000Y-73460000D02*
X103490000Y-75870000D01*
X98666500Y-65519500D02*
X127940000Y-65519500D01*
X127940000Y-65519500D02*
X135560000Y-65519500D01*
X135560000Y-87300000D02*
X130480000Y-87300000D01*
X130480000Y-87300000D02*
X129210000Y-87300000D01*
X127940000Y-86030000D02*
X127940000Y-84760000D01*
X129210000Y-87300000D02*
X127940000Y-86030000D01*
X130480000Y-115240000D02*
X110795000Y-115240000D01*
X79680000Y-110240000D02*
X79680000Y-114160500D01*
X80759500Y-115240000D02*
X92380000Y-115240000D01*
X79680000Y-114160500D02*
X80759500Y-115240000D01*
X110795000Y-103905000D02*
X110795000Y-105715000D01*
X92380000Y-115240000D02*
X110795000Y-115240000D01*
G04 #@! TO.N,VBAT*
X127940000Y-56280000D02*
X126448000Y-56280000D01*
X125908000Y-56820000D02*
X124260000Y-56820000D01*
X126448000Y-56280000D02*
X125908000Y-56820000D01*
X133083500Y-48819000D02*
X133782000Y-48819000D01*
X132700000Y-49202500D02*
X133083500Y-48819000D01*
X132700000Y-50240000D02*
X132700000Y-49202500D01*
X134226500Y-50343000D02*
X134226500Y-49263500D01*
X134226500Y-49263500D02*
X133782000Y-48819000D01*
X127940000Y-63170000D02*
X127940000Y-59995000D01*
X127940000Y-59995000D02*
X127940000Y-58725000D01*
X127940000Y-58725000D02*
X127940000Y-56280000D01*
X127940000Y-63170000D02*
X125400000Y-63170000D01*
X63170000Y-64440000D02*
X115240000Y-64440000D01*
X115240000Y-64440000D02*
X124130000Y-64440000D01*
X125400000Y-63170000D02*
X124130000Y-64440000D01*
X134226500Y-50343000D02*
X136957000Y-50343000D01*
X136830000Y-46025000D02*
X125400000Y-46025000D01*
X125400000Y-46025000D02*
X112065000Y-46025000D01*
X112065000Y-46025000D02*
X101905000Y-46025000D01*
X138100000Y-47295000D02*
X136830000Y-46025000D01*
X138100000Y-49200000D02*
X138100000Y-47295000D01*
X136957000Y-50343000D02*
X138100000Y-49200000D01*
X127940000Y-59995000D02*
X118415000Y-59995000D01*
X118415000Y-59995000D02*
X108890000Y-59995000D01*
X108890000Y-59995000D02*
X101905000Y-59995000D01*
G04 #@! TO.N,VCC*
X131750000Y-63170000D02*
X131750000Y-59360000D01*
X139370000Y-60090000D02*
X139370000Y-62090500D01*
X103810000Y-100000000D02*
X106350000Y-100000000D01*
X86030000Y-116510000D02*
X106350000Y-116510000D01*
X86030000Y-116510000D02*
X82601000Y-116510000D01*
X82601000Y-116510000D02*
X73711000Y-116510000D01*
X75870000Y-107620000D02*
X73711000Y-107620000D01*
X73711000Y-94920000D02*
X79680000Y-94920000D01*
X80950000Y-67060000D02*
X80870000Y-66980000D01*
X80950000Y-67060000D02*
X80950000Y-68250000D01*
X118161000Y-66599000D02*
X131750000Y-66599000D01*
X118161000Y-80188000D02*
X79680000Y-80188000D01*
X115550000Y-68250000D02*
X118161000Y-68250000D01*
X120320000Y-100000000D02*
X110890000Y-100000000D01*
X127940000Y-113970000D02*
X122860000Y-113970000D01*
X89125000Y-112700000D02*
X86030000Y-112700000D01*
X110890000Y-100000000D02*
X106350000Y-100000000D01*
G04 #@! TO.N,Net-(K1-Pad5)*
X127874500Y-90600000D02*
X124890000Y-90600000D01*
X127876500Y-90602000D02*
X127874500Y-90600000D01*
G04 #@! TO.N,/-*
X88890000Y-70660000D02*
X88890000Y-69332000D01*
X102540000Y-69329500D02*
X102540000Y-70660000D01*
X102159000Y-68948500D02*
X102540000Y-69329500D01*
X89273500Y-68948500D02*
X100254000Y-68948500D01*
X100254000Y-68948500D02*
X102159000Y-68948500D01*
X88890000Y-69332000D02*
X89273500Y-68948500D01*
X124890000Y-83000000D02*
X122941500Y-83000000D01*
X121463000Y-81521500D02*
X100254000Y-81521500D01*
X122941500Y-83000000D02*
X121463000Y-81521500D01*
G04 #@! TO.N,/+*
X96190000Y-70660000D02*
X96187000Y-70663000D01*
X84443000Y-73457000D02*
X84440000Y-73460000D01*
X85966500Y-73457000D02*
X84443000Y-73457000D01*
X93713500Y-67869000D02*
X85966500Y-67869000D01*
X96187000Y-70663000D02*
X93713500Y-70663000D01*
X118290000Y-83000000D02*
X85984500Y-83000000D01*
X85984500Y-83000000D02*
X85966500Y-82982000D01*
G04 #@! TO.N,Net-(K1-Pad3)*
X118290000Y-88400000D02*
X118310500Y-88379500D01*
X124869500Y-88379500D02*
X124890000Y-88400000D01*
X122923500Y-88379500D02*
X124869500Y-88379500D01*
X118310500Y-88379500D02*
X120256500Y-88379500D01*
X118290000Y-88400000D02*
X115410000Y-88400000D01*
X114140000Y-88400000D02*
X113970000Y-88570000D01*
X115410000Y-88400000D02*
X114140000Y-88400000D01*
D34*
G04 #@! TO.N,Net-(P1-Pad1)*
X74600000Y-60710000D02*
X74520000Y-60630000D01*
X74520000Y-60630000D02*
X70790000Y-60630000D01*
G04 #@! TO.N,/STAT*
X74600000Y-58010000D02*
X75442000Y-58010000D01*
X84842500Y-52692500D02*
X84840000Y-52690000D01*
X88189000Y-52692500D02*
X84842500Y-52692500D01*
X77203500Y-56248500D02*
X88189000Y-56248500D01*
X75442000Y-58010000D02*
X77203500Y-56248500D01*
G04 #@! TO.N,/VPROG*
X81016000Y-52690000D02*
X82140000Y-52690000D01*
X80759500Y-52946500D02*
X81016000Y-52690000D01*
X80759500Y-53518000D02*
X80759500Y-52946500D01*
X81204000Y-53962500D02*
X80759500Y-53518000D01*
X82220000Y-53962500D02*
X81204000Y-53962500D01*
G04 #@! TO.N,/~RST*
X110290000Y-56500000D02*
X112385000Y-56500000D01*
X113572500Y-53090000D02*
X115240000Y-53090000D01*
X112954000Y-53708500D02*
X113572500Y-53090000D01*
X112954000Y-55931000D02*
X112954000Y-53708500D01*
X112385000Y-56500000D02*
X112954000Y-55931000D01*
X112954000Y-49009500D02*
X118986500Y-49009500D01*
X118986500Y-49009500D02*
X119558000Y-49009500D01*
X119558000Y-49009500D02*
X126924000Y-49009500D01*
X130800000Y-49266000D02*
X130800000Y-50240000D01*
X130543500Y-49009500D02*
X130800000Y-49266000D01*
X128956000Y-49009500D02*
X130543500Y-49009500D01*
X121460000Y-50790000D02*
X119814500Y-50790000D01*
X119558000Y-50533500D02*
X119558000Y-49009500D01*
X119814500Y-50790000D02*
X119558000Y-50533500D01*
G04 #@! TO.N,Net-(R4-Pad1)*
X124260000Y-53769000D02*
X124260000Y-51740000D01*
X121460000Y-54534000D02*
X123495000Y-54534000D01*
X123495000Y-54534000D02*
X124260000Y-53769000D01*
X121460000Y-55870000D02*
X121460000Y-54534000D01*
X117780000Y-53090000D02*
X117780000Y-54089500D01*
X118224500Y-54534000D02*
X121460000Y-54534000D01*
X117780000Y-54089500D02*
X118224500Y-54534000D01*
G04 #@! TO.N,Net-(R5-Pad1)*
X103810000Y-92380000D02*
X106350000Y-92380000D01*
X65710000Y-78410000D02*
X65710000Y-77220000D01*
X106350000Y-87300000D02*
X65710000Y-87300000D01*
G04 #@! TO.N,Net-(R5-Pad2)*
X65710000Y-69520000D02*
X65710000Y-74520000D01*
G04 #@! TO.N,Net-(R6-Pad1)*
X68250000Y-77220000D02*
X68250000Y-78410000D01*
X107620000Y-89840000D02*
X103810000Y-89840000D01*
X68250000Y-86030000D02*
X107620000Y-86030000D01*
G04 #@! TO.N,Net-(R6-Pad2)*
X68250000Y-69520000D02*
X68250000Y-74520000D01*
G04 #@! TO.N,Net-(R7-Pad1)*
X96190000Y-89840000D02*
X70790000Y-89840000D01*
X70790000Y-78410000D02*
X70790000Y-77220000D01*
G04 #@! TO.N,Net-(R7-Pad2)*
X70790000Y-69520000D02*
X70790000Y-74520000D01*
G04 #@! TO.N,Net-(R8-Pad1)*
X73330000Y-77220000D02*
X73330000Y-78410000D01*
X73330000Y-92380000D02*
X96190000Y-92380000D01*
G04 #@! TO.N,Net-(R8-Pad2)*
X73330000Y-69520000D02*
X73330000Y-74520000D01*
G04 #@! TO.N,Net-(R9-Pad2)*
X75870000Y-69520000D02*
X75870000Y-74520000D01*
D33*
G04 #@! TO.N,Net-(SC1-Pad1)*
X72060000Y-50470000D02*
X68250000Y-50470000D01*
D34*
G04 #@! TO.N,/SET*
X82540000Y-73460000D02*
X82540000Y-74597500D01*
X82540000Y-74597500D02*
X82860000Y-74917500D01*
X82860000Y-74917500D02*
X87490500Y-74917500D01*
X90792500Y-74917500D02*
X93015000Y-74917500D01*
X87490500Y-74917500D02*
X90792500Y-74917500D01*
X93015000Y-74917500D02*
X101270000Y-74917500D01*
X101590000Y-74597500D02*
X101590000Y-73460000D01*
X101590000Y-74597500D02*
X101270000Y-74917500D01*
X108445500Y-78156000D02*
X93015000Y-78156000D01*
X109850000Y-69520000D02*
X108445500Y-69520000D01*
X109850000Y-68250000D02*
X108763000Y-68250000D01*
X108763000Y-68250000D02*
X108445500Y-68567500D01*
X108445500Y-68567500D02*
X108445500Y-69520000D01*
X103810000Y-94920000D02*
X108890000Y-94920000D01*
G04 #@! TO.N,/RESET*
X103810000Y-97460000D02*
X110160000Y-97460000D01*
X107620000Y-73330000D02*
X109850000Y-73330000D01*
X110160000Y-78981500D02*
X107620000Y-78981500D01*
G04 #@! TO.N,/VPP*
X96190000Y-97460000D02*
X93650000Y-97460000D01*
X93713500Y-112700000D02*
X93650000Y-112700000D01*
X93650000Y-112700000D02*
X125400000Y-112700000D01*
X91825000Y-112700000D02*
X93650000Y-112700000D01*
G04 #@! TO.N,/ICSPDAT*
X103810000Y-102540000D02*
X107620000Y-102540000D01*
X133020000Y-116510000D02*
X107620000Y-116510000D01*
G04 #@! TO.N,/ICSPCLK*
X103810000Y-105080000D02*
X108890000Y-105080000D01*
X108890000Y-117780000D02*
X135560000Y-117780000D01*
G04 #@! TO.N,/INT*
X75870000Y-77220000D02*
X75870000Y-78410000D01*
X75870000Y-102540000D02*
X96190000Y-102540000D01*
D33*
G04 #@! TO.N,Net-(U1-Pad3)*
X84840000Y-50790000D02*
X86091000Y-50790000D01*
X94920000Y-50470000D02*
X96190000Y-50470000D01*
X94602500Y-50152500D02*
X94920000Y-50470000D01*
X86091000Y-50790000D02*
X86728500Y-50152500D01*
X86728500Y-50152500D02*
X94602500Y-50152500D01*
G04 #@! TO.N,GND_ALIM*
X64440000Y-53010000D02*
X68250000Y-53010000D01*
X68250000Y-55169000D02*
X86474500Y-55169000D01*
X86474500Y-55169000D02*
X87871500Y-55169000D01*
X89300500Y-53740000D02*
X91110000Y-53740000D01*
X87871500Y-55169000D02*
X89300500Y-53740000D01*
X84840000Y-51740000D02*
X86919000Y-51740000D01*
X96190000Y-60630000D02*
X94666000Y-60630000D01*
X94666000Y-60630000D02*
X93936000Y-61360000D01*
X93936000Y-61360000D02*
X91110000Y-61360000D01*
X91110000Y-61360000D02*
X89681500Y-61360000D01*
X89141500Y-61900000D02*
X89681500Y-61360000D01*
X89141500Y-61900000D02*
X86919000Y-61900000D01*
X105588000Y-47803000D02*
X106096000Y-47803000D01*
X86919000Y-47803000D02*
X105588000Y-47803000D01*
X106096000Y-56502500D02*
X106096000Y-56500000D01*
X103940000Y-56500000D02*
X106096000Y-56500000D01*
X107490000Y-55550000D02*
X106350000Y-55550000D01*
X106350000Y-55550000D02*
X106096000Y-55804000D01*
X106096000Y-55804000D02*
X106096000Y-56502500D01*
X106096000Y-56502500D02*
X106096000Y-57455000D01*
X98857000Y-57709000D02*
X105842000Y-57709000D01*
X106096000Y-57455000D02*
X105842000Y-57709000D01*
X97650500Y-60630000D02*
X96190000Y-60630000D01*
X97650500Y-60630000D02*
X98285500Y-59995000D01*
X98285500Y-59995000D02*
X98285500Y-58280500D01*
X98285500Y-58280500D02*
X98857000Y-57709000D01*
X121460000Y-52690000D02*
X119560500Y-52690000D01*
X119558000Y-47803000D02*
X108160000Y-47803000D01*
X108160000Y-47803000D02*
X106096000Y-47803000D01*
X119560500Y-52690000D02*
X119558000Y-52692500D01*
X108160000Y-50470000D02*
X108160000Y-47803000D01*
X126606500Y-47803000D02*
X119558000Y-47803000D01*
X127940000Y-47803000D02*
X131242000Y-47803000D01*
X131242000Y-47803000D02*
X131750000Y-47803000D01*
X131750000Y-47803000D02*
X135496500Y-47803000D01*
X127940000Y-47803000D02*
X126606500Y-47803000D01*
X127940000Y-52280000D02*
X127940000Y-47803000D01*
X130800000Y-53240000D02*
X130202000Y-53240000D01*
X129242000Y-52280000D02*
X127940000Y-52280000D01*
X130202000Y-53240000D02*
X129242000Y-52280000D01*
X131750000Y-50240000D02*
X131750000Y-47803000D01*
X66980000Y-60630000D02*
X65075000Y-60630000D01*
X64440000Y-59995000D02*
X64440000Y-53010000D01*
X65075000Y-60630000D02*
X64440000Y-59995000D01*
D34*
G04 #@! TO.N,/RESET2*
X90790000Y-70660000D02*
X90793000Y-70663000D01*
X95237000Y-73457000D02*
X95240000Y-73460000D01*
X92189500Y-73457000D02*
X95237000Y-73457000D01*
X90793000Y-70663000D02*
X92189500Y-70663000D01*
X115550000Y-75870000D02*
X117018000Y-75870000D01*
X117018000Y-77330500D02*
X92189500Y-77330500D01*
D33*
G04 #@! TO.N,Net-(C2-Pad1)*
X96190000Y-58090000D02*
X94412000Y-58090000D01*
X93142000Y-59360000D02*
X91110000Y-59360000D01*
X94412000Y-58090000D02*
X93142000Y-59360000D01*
X96190000Y-53010000D02*
X99555500Y-53010000D01*
X100450000Y-52115500D02*
X100450000Y-50470000D01*
X99555500Y-53010000D02*
X100450000Y-52115500D01*
G04 #@! TO.N,Net-(U3-Pad5)*
X131750000Y-56820000D02*
X131750000Y-55613500D01*
X132700000Y-54663500D02*
X132700000Y-53240000D01*
X131750000Y-55613500D02*
X132700000Y-54663500D01*
G04 #@! TO.N,/VBAT_0*
X103940000Y-54600000D02*
X105268000Y-54600000D01*
X107175500Y-52692500D02*
X110287000Y-52692500D01*
X110287000Y-52692500D02*
X110290000Y-52692500D01*
X105268000Y-54600000D02*
X107175500Y-52692500D01*
X110290000Y-54600000D02*
X110290000Y-52692500D01*
X112160000Y-50470000D02*
X112160000Y-51962500D01*
X111430000Y-52692500D02*
X110290000Y-52692500D01*
X112160000Y-51962500D02*
X111430000Y-52692500D01*
X115240000Y-50390000D02*
X112240000Y-50390000D01*
X112240000Y-50390000D02*
X112160000Y-50470000D01*
X117780000Y-50390000D02*
X115240000Y-50390000D01*
X121460000Y-57770000D02*
X112448500Y-57770000D01*
X112382500Y-57836000D02*
X112448500Y-57770000D01*
G04 #@! TO.N,Net-(F1-Pad1)*
X104630000Y-50470000D02*
X104630000Y-51936000D01*
X101140000Y-53330500D02*
X101140000Y-55550000D01*
X101651000Y-52819500D02*
X101140000Y-53330500D01*
X103746500Y-52819500D02*
X101651000Y-52819500D01*
X104630000Y-51936000D02*
X103746500Y-52819500D01*
D34*
G04 #@! TO.N,Net-(R11-Pad2)*
X96110000Y-107540000D02*
X96190000Y-107620000D01*
X79680000Y-107540000D02*
X78807500Y-107540000D01*
X78807500Y-107540000D02*
X78283000Y-108064500D01*
X78283000Y-108064500D02*
X78283000Y-109525000D01*
X78283000Y-109525000D02*
X77648000Y-110160000D01*
X77648000Y-110160000D02*
X75870000Y-110160000D01*
X96190000Y-107620000D02*
X89840000Y-107620000D01*
X82203500Y-107540000D02*
X82220000Y-107556500D01*
X82203500Y-107540000D02*
X79680000Y-107540000D01*
X82220000Y-105080000D02*
X89840000Y-105080000D01*
G04 #@! TO.N,Net-(R12-Pad1)*
X89840000Y-73460000D02*
X87493500Y-73460000D01*
X83493000Y-70663000D02*
X83490000Y-70660000D01*
X87490500Y-70663000D02*
X83493000Y-70663000D01*
X87493500Y-73460000D02*
X87490500Y-73457000D01*
X83570000Y-66980000D02*
X83490000Y-67060000D01*
X83490000Y-67060000D02*
X83490000Y-70660000D01*
D33*
G04 #@! TO.N,Net-(W1-Pad2)*
X75870000Y-50470000D02*
X74536500Y-50470000D01*
X73457000Y-53010000D02*
X72060000Y-53010000D01*
X73965000Y-52502000D02*
X73457000Y-53010000D01*
X73965000Y-51041500D02*
X73965000Y-52502000D01*
X74536500Y-50470000D02*
X73965000Y-51041500D01*
X64440000Y-50470000D02*
X64440000Y-49200000D01*
X75870000Y-49009500D02*
X75870000Y-50470000D01*
X75235000Y-48374500D02*
X75870000Y-49009500D01*
X65265500Y-48374500D02*
X75235000Y-48374500D01*
X64440000Y-49200000D02*
X65265500Y-48374500D01*
D34*
G04 #@! TO.N,Net-(U5-Pad10)*
X120320000Y-110160000D02*
X103810000Y-110160000D01*
G04 #@! TO.N,Net-(U5-Pad11)*
X115240000Y-107620000D02*
X111430000Y-107620000D01*
X111430000Y-107620000D02*
X103810000Y-107620000D01*
G04 #@! TO.N,Net-(U5-Pad3)*
X96190000Y-94920000D02*
X88570000Y-94920000D01*
X88570000Y-94920000D02*
X84760000Y-94920000D01*
G04 #@! TO.N,Net-(U5-Pad7)*
X96190000Y-105080000D02*
X91110000Y-105080000D01*
X91110000Y-97460000D02*
X79680000Y-97460000D01*
G04 #@! TO.N,Net-(U5-Pad9)*
X86030000Y-107620000D02*
X88570000Y-107620000D01*
X88570000Y-110160000D02*
X96190000Y-110160000D01*
G04 #@! TO.N,Net-(U6-Pad3)*
X109850000Y-70790000D02*
X108763000Y-70790000D01*
X108763000Y-72060000D02*
X109850000Y-72060000D01*
X108445500Y-71742500D02*
X108763000Y-72060000D01*
X108445500Y-71107500D02*
X108445500Y-71742500D01*
X108763000Y-70790000D02*
X108445500Y-71107500D01*
G04 #@! TO.N,Net-(U6-Pad10)*
X115550000Y-73330000D02*
X116637000Y-73330000D01*
X116637000Y-74600000D02*
X115550000Y-74600000D01*
X116891000Y-74346000D02*
X116637000Y-74600000D01*
X116891000Y-73584000D02*
X116891000Y-74346000D01*
X116637000Y-73330000D02*
X116891000Y-73584000D01*
X115550000Y-74600000D02*
X114224000Y-74600000D01*
X111176000Y-74600000D02*
X109850000Y-74600000D01*
D33*
G04 #@! TO.N,Net-(K1-Pad4)*
X115750000Y-90600000D02*
X118290000Y-90600000D01*
X115240000Y-91110000D02*
X115750000Y-90600000D01*
X113970000Y-91110000D02*
X115240000Y-91110000D01*
G04 #@! TD*
D35*
G04 #@! TO.N,VCC*
G36*
X59520400Y-65298787D02*
X59520400Y-65740213D01*
X59689327Y-66148038D01*
X60001462Y-66460173D01*
X60409287Y-66629100D01*
X60850713Y-66629100D01*
X61212844Y-66479100D01*
X79510400Y-66479100D01*
X79510400Y-66675200D01*
X79662800Y-66827600D01*
X80717600Y-66827600D01*
X80717600Y-66807600D01*
X81022400Y-66807600D01*
X81022400Y-66827600D01*
X81042400Y-66827600D01*
X81042400Y-67132400D01*
X81022400Y-67132400D01*
X81022400Y-68087200D01*
X81174800Y-68239600D01*
X81741257Y-68239600D01*
X81965311Y-68146794D01*
X82136794Y-67975311D01*
X82224856Y-67762711D01*
X82245770Y-67867854D01*
X82380503Y-68069497D01*
X82582146Y-68204230D01*
X82755400Y-68238692D01*
X82755401Y-69300413D01*
X82650503Y-69370503D01*
X82515770Y-69572146D01*
X82468458Y-69810000D01*
X82468458Y-71510000D01*
X82515770Y-71747854D01*
X82650503Y-71949497D01*
X82708812Y-71988458D01*
X82140000Y-71988458D01*
X81902146Y-72035770D01*
X81700503Y-72170503D01*
X81565770Y-72372146D01*
X81518458Y-72610000D01*
X81518458Y-74310000D01*
X81565770Y-74547854D01*
X81700503Y-74749497D01*
X81839752Y-74842540D01*
X81846331Y-74875617D01*
X81848024Y-74884126D01*
X82010384Y-75127117D01*
X82071719Y-75168100D01*
X82289399Y-75385780D01*
X82330383Y-75447117D01*
X82573374Y-75609477D01*
X82787652Y-75652100D01*
X82787653Y-75652100D01*
X82859999Y-75666491D01*
X82932346Y-75652100D01*
X92321811Y-75652100D01*
X92443108Y-75773397D01*
X92814178Y-75927100D01*
X93215822Y-75927100D01*
X93586892Y-75773397D01*
X93708189Y-75652100D01*
X97556900Y-75652100D01*
X97556900Y-76090713D01*
X97725827Y-76498538D01*
X97823189Y-76595900D01*
X92882689Y-76595900D01*
X92761392Y-76474603D01*
X92390322Y-76320900D01*
X91988678Y-76320900D01*
X91617608Y-76474603D01*
X91333603Y-76758608D01*
X91179900Y-77129678D01*
X91179900Y-77531322D01*
X91333603Y-77902392D01*
X91617608Y-78186397D01*
X91699126Y-78220163D01*
X91439327Y-78479962D01*
X91270400Y-78887787D01*
X91270400Y-79329213D01*
X91439327Y-79737038D01*
X91751462Y-80049173D01*
X92159287Y-80218100D01*
X92600713Y-80218100D01*
X92962844Y-80068100D01*
X98083656Y-80068100D01*
X98445787Y-80218100D01*
X98887213Y-80218100D01*
X99295038Y-80049173D01*
X99607173Y-79737038D01*
X99776100Y-79329213D01*
X99776100Y-78890600D01*
X106610400Y-78890600D01*
X106610400Y-79182322D01*
X106764103Y-79553392D01*
X107048108Y-79837397D01*
X107419178Y-79991100D01*
X107820822Y-79991100D01*
X108191892Y-79837397D01*
X108313189Y-79716100D01*
X109466811Y-79716100D01*
X109588108Y-79837397D01*
X109959178Y-79991100D01*
X110360822Y-79991100D01*
X110731892Y-79837397D01*
X111015897Y-79553392D01*
X111169600Y-79182322D01*
X111169600Y-78780678D01*
X111015897Y-78409608D01*
X110731892Y-78125603D01*
X110585826Y-78065100D01*
X116324811Y-78065100D01*
X116446108Y-78186397D01*
X116817178Y-78340100D01*
X117218822Y-78340100D01*
X117589892Y-78186397D01*
X117666567Y-78109722D01*
X131510400Y-78109722D01*
X131510400Y-78710278D01*
X131740223Y-79265120D01*
X132164880Y-79689777D01*
X132719722Y-79919600D01*
X133320278Y-79919600D01*
X133875120Y-79689777D01*
X134299777Y-79265120D01*
X134529600Y-78710278D01*
X134529600Y-78109722D01*
X134299777Y-77554880D01*
X133875120Y-77130223D01*
X133320278Y-76900400D01*
X132719722Y-76900400D01*
X132164880Y-77130223D01*
X131740223Y-77554880D01*
X131510400Y-78109722D01*
X117666567Y-78109722D01*
X117873897Y-77902392D01*
X118027600Y-77531322D01*
X118027600Y-77129678D01*
X117873897Y-76758608D01*
X117715539Y-76600250D01*
X117873897Y-76441892D01*
X118027600Y-76070822D01*
X118027600Y-75669178D01*
X117986404Y-75569722D01*
X123890400Y-75569722D01*
X123890400Y-76170278D01*
X124120223Y-76725120D01*
X124544880Y-77149777D01*
X125099722Y-77379600D01*
X125700278Y-77379600D01*
X126255120Y-77149777D01*
X126679777Y-76725120D01*
X126909600Y-76170278D01*
X126909600Y-75569722D01*
X136590400Y-75569722D01*
X136590400Y-76170278D01*
X136820223Y-76725120D01*
X137244880Y-77149777D01*
X137799722Y-77379600D01*
X138400278Y-77379600D01*
X138955120Y-77149777D01*
X139379777Y-76725120D01*
X139609600Y-76170278D01*
X139609600Y-75569722D01*
X139379777Y-75014880D01*
X138955120Y-74590223D01*
X138400278Y-74360400D01*
X137799722Y-74360400D01*
X137244880Y-74590223D01*
X136820223Y-75014880D01*
X136590400Y-75569722D01*
X126909600Y-75569722D01*
X126679777Y-75014880D01*
X126255120Y-74590223D01*
X125700278Y-74360400D01*
X125099722Y-74360400D01*
X124544880Y-74590223D01*
X124120223Y-75014880D01*
X123890400Y-75569722D01*
X117986404Y-75569722D01*
X117873897Y-75298108D01*
X117589892Y-75014103D01*
X117357881Y-74918000D01*
X117359280Y-74916601D01*
X117420617Y-74875617D01*
X117582977Y-74632626D01*
X117625600Y-74418348D01*
X117625600Y-74418347D01*
X117639991Y-74346001D01*
X117625600Y-74273654D01*
X117625600Y-73656346D01*
X117639991Y-73583999D01*
X117625600Y-73511652D01*
X117582977Y-73297374D01*
X117420617Y-73054383D01*
X117359280Y-73013400D01*
X117207602Y-72861721D01*
X117166617Y-72800383D01*
X116974622Y-72672097D01*
X117024230Y-72597854D01*
X117071542Y-72360000D01*
X117071542Y-71760000D01*
X117071487Y-71759722D01*
X131510400Y-71759722D01*
X131510400Y-72360278D01*
X131740223Y-72915120D01*
X132164880Y-73339777D01*
X132719722Y-73569600D01*
X133320278Y-73569600D01*
X133875120Y-73339777D01*
X134299777Y-72915120D01*
X134529600Y-72360278D01*
X134529600Y-71759722D01*
X134299777Y-71204880D01*
X133875120Y-70780223D01*
X133320278Y-70550400D01*
X132719722Y-70550400D01*
X132164880Y-70780223D01*
X131740223Y-71204880D01*
X131510400Y-71759722D01*
X117071487Y-71759722D01*
X117024230Y-71522146D01*
X116959319Y-71425000D01*
X117024230Y-71327854D01*
X117071542Y-71090000D01*
X117071542Y-70490000D01*
X117024230Y-70252146D01*
X116959319Y-70155000D01*
X117024230Y-70057854D01*
X117071542Y-69820000D01*
X117071542Y-69220000D01*
X117071487Y-69219722D01*
X123890400Y-69219722D01*
X123890400Y-69820278D01*
X124120223Y-70375120D01*
X124544880Y-70799777D01*
X125099722Y-71029600D01*
X125700278Y-71029600D01*
X126255120Y-70799777D01*
X126679777Y-70375120D01*
X126909600Y-69820278D01*
X126909600Y-69219722D01*
X136590400Y-69219722D01*
X136590400Y-69820278D01*
X136820223Y-70375120D01*
X137244880Y-70799777D01*
X137799722Y-71029600D01*
X138400278Y-71029600D01*
X138955120Y-70799777D01*
X139379777Y-70375120D01*
X139609600Y-69820278D01*
X139609600Y-69219722D01*
X139379777Y-68664880D01*
X138955120Y-68240223D01*
X138400278Y-68010400D01*
X137799722Y-68010400D01*
X137244880Y-68240223D01*
X136820223Y-68664880D01*
X136590400Y-69219722D01*
X126909600Y-69219722D01*
X126679777Y-68664880D01*
X126255120Y-68240223D01*
X125700278Y-68010400D01*
X125099722Y-68010400D01*
X124544880Y-68240223D01*
X124120223Y-68664880D01*
X123890400Y-69219722D01*
X117071487Y-69219722D01*
X117024230Y-68982146D01*
X116966443Y-68895662D01*
X116966794Y-68895311D01*
X117059600Y-68671257D01*
X117059600Y-68552400D01*
X116907200Y-68400000D01*
X115702400Y-68400000D01*
X115702400Y-68422400D01*
X115397600Y-68422400D01*
X115397600Y-68400000D01*
X114192800Y-68400000D01*
X114040400Y-68552400D01*
X114040400Y-68671257D01*
X114133206Y-68895311D01*
X114133557Y-68895662D01*
X114075770Y-68982146D01*
X114028458Y-69220000D01*
X114028458Y-69820000D01*
X114075770Y-70057854D01*
X114140681Y-70155000D01*
X114075770Y-70252146D01*
X114028458Y-70490000D01*
X114028458Y-71090000D01*
X114075770Y-71327854D01*
X114140681Y-71425000D01*
X114075770Y-71522146D01*
X114028458Y-71760000D01*
X114028458Y-72360000D01*
X114075770Y-72597854D01*
X114140681Y-72695000D01*
X114075770Y-72792146D01*
X114028458Y-73030000D01*
X114028458Y-73590400D01*
X114023178Y-73590400D01*
X113652108Y-73744103D01*
X113368103Y-74028108D01*
X113214400Y-74399178D01*
X113214400Y-74800822D01*
X113368103Y-75171892D01*
X113652108Y-75455897D01*
X114023178Y-75609600D01*
X114028458Y-75609600D01*
X114028458Y-76170000D01*
X114075770Y-76407854D01*
X114201418Y-76595900D01*
X111198582Y-76595900D01*
X111324230Y-76407854D01*
X111371542Y-76170000D01*
X111371542Y-75609600D01*
X111376822Y-75609600D01*
X111747892Y-75455897D01*
X112031897Y-75171892D01*
X112185600Y-74800822D01*
X112185600Y-74399178D01*
X112031897Y-74028108D01*
X111747892Y-73744103D01*
X111376822Y-73590400D01*
X111371542Y-73590400D01*
X111371542Y-73030000D01*
X111324230Y-72792146D01*
X111259319Y-72695000D01*
X111324230Y-72597854D01*
X111371542Y-72360000D01*
X111371542Y-71760000D01*
X111324230Y-71522146D01*
X111259319Y-71425000D01*
X111324230Y-71327854D01*
X111371542Y-71090000D01*
X111371542Y-70490000D01*
X111324230Y-70252146D01*
X111259319Y-70155000D01*
X111324230Y-70057854D01*
X111371542Y-69820000D01*
X111371542Y-69220000D01*
X111324230Y-68982146D01*
X111259319Y-68885000D01*
X111324230Y-68787854D01*
X111371542Y-68550000D01*
X111371542Y-67950000D01*
X111347423Y-67828743D01*
X114040400Y-67828743D01*
X114040400Y-67947600D01*
X114192800Y-68100000D01*
X115397600Y-68100000D01*
X115397600Y-67492800D01*
X115702400Y-67492800D01*
X115702400Y-68100000D01*
X116907200Y-68100000D01*
X117059600Y-67947600D01*
X117059600Y-67828743D01*
X116966794Y-67604689D01*
X116795311Y-67433206D01*
X116571257Y-67340400D01*
X115854800Y-67340400D01*
X115702400Y-67492800D01*
X115397600Y-67492800D01*
X115245200Y-67340400D01*
X114528743Y-67340400D01*
X114304689Y-67433206D01*
X114133206Y-67604689D01*
X114040400Y-67828743D01*
X111347423Y-67828743D01*
X111324230Y-67712146D01*
X111189497Y-67510503D01*
X110987854Y-67375770D01*
X110750000Y-67328458D01*
X108950000Y-67328458D01*
X108712146Y-67375770D01*
X108510503Y-67510503D01*
X108479116Y-67557478D01*
X108476374Y-67558023D01*
X108233383Y-67720383D01*
X108192398Y-67781722D01*
X107977222Y-67996898D01*
X107915883Y-68037883D01*
X107753523Y-68280875D01*
X107710900Y-68495152D01*
X107696509Y-68567500D01*
X107710900Y-68639847D01*
X107710900Y-68826811D01*
X107589603Y-68948108D01*
X107435900Y-69319178D01*
X107435900Y-69720822D01*
X107589603Y-70091892D01*
X107873608Y-70375897D01*
X108060719Y-70453401D01*
X107977222Y-70536898D01*
X107915883Y-70577883D01*
X107753523Y-70820875D01*
X107710900Y-71035152D01*
X107696509Y-71107500D01*
X107710900Y-71179846D01*
X107710900Y-71670154D01*
X107696509Y-71742500D01*
X107710900Y-71814846D01*
X107710900Y-71814848D01*
X107753523Y-72029126D01*
X107915884Y-72272117D01*
X107977220Y-72313100D01*
X108100273Y-72436153D01*
X107820822Y-72320400D01*
X107419178Y-72320400D01*
X107048108Y-72474103D01*
X106764103Y-72758108D01*
X106610400Y-73129178D01*
X106610400Y-73530822D01*
X106764103Y-73901892D01*
X107048108Y-74185897D01*
X107419178Y-74339600D01*
X107820822Y-74339600D01*
X108191892Y-74185897D01*
X108313189Y-74064600D01*
X108375282Y-74064600D01*
X108328458Y-74300000D01*
X108328458Y-74900000D01*
X108330527Y-74910400D01*
X104449600Y-74910400D01*
X104449600Y-74569749D01*
X104464230Y-74547854D01*
X104511542Y-74310000D01*
X104511542Y-72610000D01*
X104464230Y-72372146D01*
X104329497Y-72170503D01*
X104127854Y-72035770D01*
X103890000Y-71988458D01*
X103321188Y-71988458D01*
X103379497Y-71949497D01*
X103514230Y-71747854D01*
X103561542Y-71510000D01*
X103561542Y-69810000D01*
X103514230Y-69572146D01*
X103499600Y-69550251D01*
X103499600Y-69424007D01*
X103518399Y-69329499D01*
X103472175Y-69097116D01*
X103443923Y-68955083D01*
X103231833Y-68637667D01*
X103151707Y-68584129D01*
X102904372Y-68336794D01*
X102850833Y-68256667D01*
X102533417Y-68044577D01*
X102253509Y-67988900D01*
X102253508Y-67988900D01*
X102159000Y-67970101D01*
X102064492Y-67988900D01*
X100836844Y-67988900D01*
X100474713Y-67838900D01*
X100033287Y-67838900D01*
X99671156Y-67988900D01*
X94823100Y-67988900D01*
X94823100Y-67648287D01*
X94654173Y-67240462D01*
X94342038Y-66928327D01*
X93934213Y-66759400D01*
X93492787Y-66759400D01*
X93130656Y-66909400D01*
X86549344Y-66909400D01*
X86187213Y-66759400D01*
X85745787Y-66759400D01*
X85337962Y-66928327D01*
X85025827Y-67240462D01*
X84941542Y-67443944D01*
X84941542Y-66479100D01*
X98083656Y-66479100D01*
X98445787Y-66629100D01*
X98887213Y-66629100D01*
X99249344Y-66479100D01*
X127357156Y-66479100D01*
X127719287Y-66629100D01*
X128160713Y-66629100D01*
X128522844Y-66479100D01*
X134977156Y-66479100D01*
X135339287Y-66629100D01*
X135780713Y-66629100D01*
X136188538Y-66460173D01*
X136500673Y-66148038D01*
X136669600Y-65740213D01*
X136669600Y-65298787D01*
X136618988Y-65176600D01*
X141815400Y-65176600D01*
X141815401Y-93802400D01*
X129464000Y-93802400D01*
X129425119Y-93810134D01*
X129392158Y-93832158D01*
X129370134Y-93865119D01*
X129362400Y-93904000D01*
X129362400Y-105588000D01*
X129370134Y-105626881D01*
X129392158Y-105659842D01*
X129425119Y-105681866D01*
X129464000Y-105689600D01*
X141815401Y-105689600D01*
X141815401Y-118815400D01*
X58184600Y-118815400D01*
X58184600Y-107924800D01*
X74310400Y-107924800D01*
X74310400Y-108691257D01*
X74403206Y-108915311D01*
X74574689Y-109086794D01*
X74689884Y-109134509D01*
X74547835Y-109276558D01*
X74310400Y-109849776D01*
X74310400Y-110470224D01*
X74547835Y-111043442D01*
X74986558Y-111482165D01*
X75559776Y-111719600D01*
X76180224Y-111719600D01*
X76753442Y-111482165D01*
X77192165Y-111043442D01*
X77253817Y-110894600D01*
X77575654Y-110894600D01*
X77648000Y-110908991D01*
X77720346Y-110894600D01*
X77720348Y-110894600D01*
X77934626Y-110851977D01*
X78177617Y-110689617D01*
X78218602Y-110628278D01*
X78408458Y-110438422D01*
X78408458Y-110990000D01*
X78455770Y-111227854D01*
X78590503Y-111429497D01*
X78720400Y-111516291D01*
X78720401Y-114065987D01*
X78701601Y-114160500D01*
X78729216Y-114299327D01*
X78776078Y-114534917D01*
X78988168Y-114852333D01*
X79068292Y-114905870D01*
X80014130Y-115851709D01*
X80067667Y-115931833D01*
X80385083Y-116143923D01*
X80759500Y-116218399D01*
X80854009Y-116199600D01*
X91797156Y-116199600D01*
X92159287Y-116349600D01*
X92600713Y-116349600D01*
X92962844Y-116199600D01*
X106655789Y-116199600D01*
X106610400Y-116309178D01*
X106610400Y-116710822D01*
X106764103Y-117081892D01*
X107048108Y-117365897D01*
X107419178Y-117519600D01*
X107820822Y-117519600D01*
X107922528Y-117477472D01*
X107880400Y-117579178D01*
X107880400Y-117980822D01*
X108034103Y-118351892D01*
X108318108Y-118635897D01*
X108689178Y-118789600D01*
X109090822Y-118789600D01*
X109461892Y-118635897D01*
X109583189Y-118514600D01*
X134866811Y-118514600D01*
X134988108Y-118635897D01*
X135359178Y-118789600D01*
X135760822Y-118789600D01*
X136131892Y-118635897D01*
X136415897Y-118351892D01*
X136569600Y-117980822D01*
X136569600Y-117579178D01*
X136415897Y-117208108D01*
X136131892Y-116924103D01*
X135760822Y-116770400D01*
X135359178Y-116770400D01*
X134988108Y-116924103D01*
X134866811Y-117045400D01*
X133891013Y-117045400D01*
X134029600Y-116710822D01*
X134029600Y-116309178D01*
X133875897Y-115938108D01*
X133591892Y-115654103D01*
X133220822Y-115500400D01*
X132819178Y-115500400D01*
X132448108Y-115654103D01*
X132326811Y-115775400D01*
X131459252Y-115775400D01*
X131589600Y-115460713D01*
X131589600Y-115019287D01*
X131420673Y-114611462D01*
X131108538Y-114299327D01*
X130700713Y-114130400D01*
X130259287Y-114130400D01*
X129897156Y-114280400D01*
X111377844Y-114280400D01*
X111015713Y-114130400D01*
X110574287Y-114130400D01*
X110212156Y-114280400D01*
X92962844Y-114280400D01*
X92600713Y-114130400D01*
X92159287Y-114130400D01*
X91797156Y-114280400D01*
X81156979Y-114280400D01*
X80639600Y-113763022D01*
X80639600Y-113004800D01*
X87765400Y-113004800D01*
X87765400Y-113471257D01*
X87858206Y-113695311D01*
X88029689Y-113866794D01*
X88253743Y-113959600D01*
X88820200Y-113959600D01*
X88972600Y-113807200D01*
X88972600Y-112852400D01*
X87917800Y-112852400D01*
X87765400Y-113004800D01*
X80639600Y-113004800D01*
X80639600Y-111928743D01*
X87765400Y-111928743D01*
X87765400Y-112395200D01*
X87917800Y-112547600D01*
X88972600Y-112547600D01*
X88972600Y-111592800D01*
X89277400Y-111592800D01*
X89277400Y-112547600D01*
X89297400Y-112547600D01*
X89297400Y-112852400D01*
X89277400Y-112852400D01*
X89277400Y-113807200D01*
X89429800Y-113959600D01*
X89996257Y-113959600D01*
X90220311Y-113866794D01*
X90391794Y-113695311D01*
X90479856Y-113482711D01*
X90500770Y-113587854D01*
X90635503Y-113789497D01*
X90837146Y-113924230D01*
X91075000Y-113971542D01*
X92575000Y-113971542D01*
X92812854Y-113924230D01*
X93014497Y-113789497D01*
X93149230Y-113587854D01*
X93149689Y-113585547D01*
X93449178Y-113709600D01*
X93850822Y-113709600D01*
X94221892Y-113555897D01*
X94343189Y-113434600D01*
X124706811Y-113434600D01*
X124828108Y-113555897D01*
X125199178Y-113709600D01*
X125600822Y-113709600D01*
X125971892Y-113555897D01*
X126255897Y-113271892D01*
X126409600Y-112900822D01*
X126409600Y-112499178D01*
X126255897Y-112128108D01*
X125971892Y-111844103D01*
X125600822Y-111690400D01*
X125199178Y-111690400D01*
X124828108Y-111844103D01*
X124706811Y-111965400D01*
X94343189Y-111965400D01*
X94221892Y-111844103D01*
X93850822Y-111690400D01*
X93449178Y-111690400D01*
X93149689Y-111814453D01*
X93149230Y-111812146D01*
X93014497Y-111610503D01*
X92812854Y-111475770D01*
X92575000Y-111428458D01*
X91075000Y-111428458D01*
X90837146Y-111475770D01*
X90635503Y-111610503D01*
X90500770Y-111812146D01*
X90479856Y-111917289D01*
X90391794Y-111704689D01*
X90220311Y-111533206D01*
X89996257Y-111440400D01*
X89429800Y-111440400D01*
X89277400Y-111592800D01*
X88972600Y-111592800D01*
X88820200Y-111440400D01*
X88253743Y-111440400D01*
X88029689Y-111533206D01*
X87858206Y-111704689D01*
X87765400Y-111928743D01*
X80639600Y-111928743D01*
X80639600Y-111516291D01*
X80769497Y-111429497D01*
X80904230Y-111227854D01*
X80951542Y-110990000D01*
X80951542Y-110464800D01*
X84470400Y-110464800D01*
X84470400Y-111231257D01*
X84563206Y-111455311D01*
X84734689Y-111626794D01*
X84958743Y-111719600D01*
X85725200Y-111719600D01*
X85877600Y-111567200D01*
X85877600Y-110312400D01*
X84622800Y-110312400D01*
X84470400Y-110464800D01*
X80951542Y-110464800D01*
X80951542Y-109490000D01*
X80904230Y-109252146D01*
X80769497Y-109050503D01*
X80567854Y-108915770D01*
X80438299Y-108890000D01*
X80567854Y-108864230D01*
X80769497Y-108729497D01*
X80904230Y-108527854D01*
X80951542Y-108290000D01*
X80951542Y-108274600D01*
X81510311Y-108274600D01*
X81648108Y-108412397D01*
X82019178Y-108566100D01*
X82420822Y-108566100D01*
X82791892Y-108412397D01*
X83075897Y-108128392D01*
X83229600Y-107757322D01*
X83229600Y-107355678D01*
X83075897Y-106984608D01*
X82791892Y-106700603D01*
X82420822Y-106546900D01*
X82019178Y-106546900D01*
X81648108Y-106700603D01*
X81543311Y-106805400D01*
X80951542Y-106805400D01*
X80951542Y-106790000D01*
X80904230Y-106552146D01*
X80769497Y-106350503D01*
X80567854Y-106215770D01*
X80330000Y-106168458D01*
X79030000Y-106168458D01*
X78792146Y-106215770D01*
X78590503Y-106350503D01*
X78455770Y-106552146D01*
X78408458Y-106790000D01*
X78408458Y-106923136D01*
X78277883Y-107010383D01*
X78236900Y-107071720D01*
X77814722Y-107493898D01*
X77753383Y-107534883D01*
X77591023Y-107777875D01*
X77560719Y-107930224D01*
X77534009Y-108064500D01*
X77548400Y-108136847D01*
X77548401Y-109220719D01*
X77343720Y-109425400D01*
X77253817Y-109425400D01*
X77192165Y-109276558D01*
X77050116Y-109134509D01*
X77165311Y-109086794D01*
X77336794Y-108915311D01*
X77429600Y-108691257D01*
X77429600Y-107924800D01*
X77277200Y-107772400D01*
X76022400Y-107772400D01*
X76022400Y-107792400D01*
X75717600Y-107792400D01*
X75717600Y-107772400D01*
X74462800Y-107772400D01*
X74310400Y-107924800D01*
X58184600Y-107924800D01*
X58184600Y-106548743D01*
X74310400Y-106548743D01*
X74310400Y-107315200D01*
X74462800Y-107467600D01*
X75717600Y-107467600D01*
X75717600Y-106212800D01*
X76022400Y-106212800D01*
X76022400Y-107467600D01*
X77277200Y-107467600D01*
X77429600Y-107315200D01*
X77429600Y-106548743D01*
X77336794Y-106324689D01*
X77165311Y-106153206D01*
X76941257Y-106060400D01*
X76174800Y-106060400D01*
X76022400Y-106212800D01*
X75717600Y-106212800D01*
X75565200Y-106060400D01*
X74798743Y-106060400D01*
X74574689Y-106153206D01*
X74403206Y-106324689D01*
X74310400Y-106548743D01*
X58184600Y-106548743D01*
X58184600Y-105689600D01*
X70536000Y-105689600D01*
X70574881Y-105681866D01*
X70607842Y-105659842D01*
X70629866Y-105626881D01*
X70637600Y-105588000D01*
X70637600Y-95224800D01*
X78120400Y-95224800D01*
X78120400Y-95991257D01*
X78213206Y-96215311D01*
X78384689Y-96386794D01*
X78499884Y-96434509D01*
X78357835Y-96576558D01*
X78120400Y-97149776D01*
X78120400Y-97770224D01*
X78357835Y-98343442D01*
X78796558Y-98782165D01*
X79369776Y-99019600D01*
X79990224Y-99019600D01*
X80563442Y-98782165D01*
X81002165Y-98343442D01*
X81063817Y-98194600D01*
X90416811Y-98194600D01*
X90538108Y-98315897D01*
X90909178Y-98469600D01*
X91310822Y-98469600D01*
X91681892Y-98315897D01*
X91965897Y-98031892D01*
X92119600Y-97660822D01*
X92119600Y-97259178D01*
X91965897Y-96888108D01*
X91681892Y-96604103D01*
X91310822Y-96450400D01*
X90909178Y-96450400D01*
X90538108Y-96604103D01*
X90416811Y-96725400D01*
X81063817Y-96725400D01*
X81002165Y-96576558D01*
X80860116Y-96434509D01*
X80975311Y-96386794D01*
X81146794Y-96215311D01*
X81239600Y-95991257D01*
X81239600Y-95224800D01*
X81087200Y-95072400D01*
X79832400Y-95072400D01*
X79832400Y-95092400D01*
X79527600Y-95092400D01*
X79527600Y-95072400D01*
X78272800Y-95072400D01*
X78120400Y-95224800D01*
X70637600Y-95224800D01*
X70637600Y-93904000D01*
X70629866Y-93865119D01*
X70618924Y-93848743D01*
X78120400Y-93848743D01*
X78120400Y-94615200D01*
X78272800Y-94767600D01*
X79527600Y-94767600D01*
X79527600Y-93512800D01*
X79832400Y-93512800D01*
X79832400Y-94767600D01*
X81087200Y-94767600D01*
X81239600Y-94615200D01*
X81239600Y-93848743D01*
X81146794Y-93624689D01*
X80975311Y-93453206D01*
X80751257Y-93360400D01*
X79984800Y-93360400D01*
X79832400Y-93512800D01*
X79527600Y-93512800D01*
X79375200Y-93360400D01*
X78608743Y-93360400D01*
X78384689Y-93453206D01*
X78213206Y-93624689D01*
X78120400Y-93848743D01*
X70618924Y-93848743D01*
X70607842Y-93832158D01*
X70603362Y-93829165D01*
X70603362Y-91495900D01*
X61324638Y-91495900D01*
X61324638Y-93802400D01*
X58184600Y-93802400D01*
X58184600Y-89639178D01*
X69780400Y-89639178D01*
X69780400Y-90040822D01*
X69934103Y-90411892D01*
X70218108Y-90695897D01*
X70589178Y-90849600D01*
X70990822Y-90849600D01*
X71361892Y-90695897D01*
X71483189Y-90574600D01*
X94368458Y-90574600D01*
X94368458Y-90640000D01*
X94415770Y-90877854D01*
X94550503Y-91079497D01*
X94752146Y-91214230D01*
X94941205Y-91251836D01*
X94773736Y-91363736D01*
X94585534Y-91645400D01*
X74023189Y-91645400D01*
X73901892Y-91524103D01*
X73530822Y-91370400D01*
X73129178Y-91370400D01*
X72758108Y-91524103D01*
X72474103Y-91808108D01*
X72320400Y-92179178D01*
X72320400Y-92580822D01*
X72474103Y-92951892D01*
X72758108Y-93235897D01*
X73129178Y-93389600D01*
X73530822Y-93389600D01*
X73901892Y-93235897D01*
X74023189Y-93114600D01*
X94585534Y-93114600D01*
X94773736Y-93396264D01*
X95153478Y-93650000D01*
X94773736Y-93903736D01*
X94585534Y-94185400D01*
X86231542Y-94185400D01*
X86231542Y-94070000D01*
X86184230Y-93832146D01*
X86049497Y-93630503D01*
X85847854Y-93495770D01*
X85610000Y-93448458D01*
X83910000Y-93448458D01*
X83672146Y-93495770D01*
X83470503Y-93630503D01*
X83335770Y-93832146D01*
X83288458Y-94070000D01*
X83288458Y-95770000D01*
X83335770Y-96007854D01*
X83470503Y-96209497D01*
X83672146Y-96344230D01*
X83910000Y-96391542D01*
X85610000Y-96391542D01*
X85847854Y-96344230D01*
X86049497Y-96209497D01*
X86184230Y-96007854D01*
X86231542Y-95770000D01*
X86231542Y-95654600D01*
X94585534Y-95654600D01*
X94773736Y-95936264D01*
X95153478Y-96190000D01*
X94773736Y-96443736D01*
X94585534Y-96725400D01*
X94343189Y-96725400D01*
X94221892Y-96604103D01*
X93850822Y-96450400D01*
X93449178Y-96450400D01*
X93078108Y-96604103D01*
X92794103Y-96888108D01*
X92640400Y-97259178D01*
X92640400Y-97660822D01*
X92794103Y-98031892D01*
X93078108Y-98315897D01*
X93449178Y-98469600D01*
X93850822Y-98469600D01*
X94221892Y-98315897D01*
X94343189Y-98194600D01*
X94585534Y-98194600D01*
X94773736Y-98476264D01*
X95153478Y-98730000D01*
X94773736Y-98983736D01*
X94735874Y-99040400D01*
X92962844Y-99040400D01*
X92600713Y-98890400D01*
X92159287Y-98890400D01*
X91751462Y-99059327D01*
X91439327Y-99371462D01*
X91270400Y-99779287D01*
X91270400Y-100220713D01*
X91439327Y-100628538D01*
X91751462Y-100940673D01*
X92159287Y-101109600D01*
X92600713Y-101109600D01*
X92962844Y-100959600D01*
X94735874Y-100959600D01*
X94773736Y-101016264D01*
X95153478Y-101270000D01*
X94773736Y-101523736D01*
X94585534Y-101805400D01*
X76563189Y-101805400D01*
X76441892Y-101684103D01*
X76070822Y-101530400D01*
X75669178Y-101530400D01*
X75298108Y-101684103D01*
X75014103Y-101968108D01*
X74860400Y-102339178D01*
X74860400Y-102740822D01*
X75014103Y-103111892D01*
X75298108Y-103395897D01*
X75669178Y-103549600D01*
X76070822Y-103549600D01*
X76441892Y-103395897D01*
X76563189Y-103274600D01*
X94585534Y-103274600D01*
X94773736Y-103556264D01*
X95153478Y-103810000D01*
X94773736Y-104063736D01*
X94585534Y-104345400D01*
X91803189Y-104345400D01*
X91681892Y-104224103D01*
X91310822Y-104070400D01*
X90909178Y-104070400D01*
X90538108Y-104224103D01*
X90475000Y-104287211D01*
X90411892Y-104224103D01*
X90040822Y-104070400D01*
X89639178Y-104070400D01*
X89268108Y-104224103D01*
X89146811Y-104345400D01*
X82913189Y-104345400D01*
X82791892Y-104224103D01*
X82420822Y-104070400D01*
X82019178Y-104070400D01*
X81648108Y-104224103D01*
X81364103Y-104508108D01*
X81210400Y-104879178D01*
X81210400Y-105280822D01*
X81364103Y-105651892D01*
X81648108Y-105935897D01*
X82019178Y-106089600D01*
X82420822Y-106089600D01*
X82791892Y-105935897D01*
X82913189Y-105814600D01*
X89146811Y-105814600D01*
X89268108Y-105935897D01*
X89639178Y-106089600D01*
X90040822Y-106089600D01*
X90411892Y-105935897D01*
X90475000Y-105872789D01*
X90538108Y-105935897D01*
X90909178Y-106089600D01*
X91310822Y-106089600D01*
X91681892Y-105935897D01*
X91803189Y-105814600D01*
X94585534Y-105814600D01*
X94773736Y-106096264D01*
X95153478Y-106350000D01*
X94773736Y-106603736D01*
X94585534Y-106885400D01*
X90533189Y-106885400D01*
X90411892Y-106764103D01*
X90040822Y-106610400D01*
X89639178Y-106610400D01*
X89268108Y-106764103D01*
X89205000Y-106827211D01*
X89141892Y-106764103D01*
X88770822Y-106610400D01*
X88369178Y-106610400D01*
X87998108Y-106764103D01*
X87876811Y-106885400D01*
X87413817Y-106885400D01*
X87352165Y-106736558D01*
X86913442Y-106297835D01*
X86340224Y-106060400D01*
X85719776Y-106060400D01*
X85146558Y-106297835D01*
X84707835Y-106736558D01*
X84470400Y-107309776D01*
X84470400Y-107930224D01*
X84707835Y-108503442D01*
X84849884Y-108645491D01*
X84734689Y-108693206D01*
X84563206Y-108864689D01*
X84470400Y-109088743D01*
X84470400Y-109855200D01*
X84622800Y-110007600D01*
X85877600Y-110007600D01*
X85877600Y-109987600D01*
X86182400Y-109987600D01*
X86182400Y-110007600D01*
X86202400Y-110007600D01*
X86202400Y-110312400D01*
X86182400Y-110312400D01*
X86182400Y-111567200D01*
X86334800Y-111719600D01*
X87101257Y-111719600D01*
X87325311Y-111626794D01*
X87496794Y-111455311D01*
X87589600Y-111231257D01*
X87589600Y-110464800D01*
X87437202Y-110312402D01*
X87560400Y-110312402D01*
X87560400Y-110360822D01*
X87714103Y-110731892D01*
X87998108Y-111015897D01*
X88369178Y-111169600D01*
X88770822Y-111169600D01*
X89141892Y-111015897D01*
X89263189Y-110894600D01*
X94585534Y-110894600D01*
X94773736Y-111176264D01*
X95240002Y-111487814D01*
X95651170Y-111569600D01*
X96728830Y-111569600D01*
X97139998Y-111487814D01*
X97606264Y-111176264D01*
X97917814Y-110709998D01*
X98027215Y-110160000D01*
X97917814Y-109610002D01*
X97606264Y-109143736D01*
X97226522Y-108890000D01*
X97606264Y-108636264D01*
X97917814Y-108169998D01*
X98027215Y-107620000D01*
X97917814Y-107070002D01*
X97606264Y-106603736D01*
X97226522Y-106350000D01*
X97606264Y-106096264D01*
X97917814Y-105629998D01*
X98027215Y-105080000D01*
X97917814Y-104530002D01*
X97606264Y-104063736D01*
X97226522Y-103810000D01*
X97606264Y-103556264D01*
X97917814Y-103089998D01*
X98027215Y-102540000D01*
X101972785Y-102540000D01*
X102082186Y-103089998D01*
X102393736Y-103556264D01*
X102773478Y-103810000D01*
X102393736Y-104063736D01*
X102082186Y-104530002D01*
X101972785Y-105080000D01*
X102082186Y-105629998D01*
X102393736Y-106096264D01*
X102773478Y-106350000D01*
X102393736Y-106603736D01*
X102082186Y-107070002D01*
X101972785Y-107620000D01*
X102082186Y-108169998D01*
X102393736Y-108636264D01*
X102773478Y-108890000D01*
X102393736Y-109143736D01*
X102082186Y-109610002D01*
X101972785Y-110160000D01*
X102082186Y-110709998D01*
X102393736Y-111176264D01*
X102860002Y-111487814D01*
X103271170Y-111569600D01*
X104348830Y-111569600D01*
X104759998Y-111487814D01*
X105226264Y-111176264D01*
X105414466Y-110894600D01*
X118936183Y-110894600D01*
X118997835Y-111043442D01*
X119436558Y-111482165D01*
X120009776Y-111719600D01*
X120630224Y-111719600D01*
X121203442Y-111482165D01*
X121642165Y-111043442D01*
X121879600Y-110470224D01*
X121879600Y-109849776D01*
X121642165Y-109276558D01*
X121500116Y-109134509D01*
X121615311Y-109086794D01*
X121786794Y-108915311D01*
X121879600Y-108691257D01*
X121879600Y-107940000D01*
X123828458Y-107940000D01*
X123828458Y-109840000D01*
X123875770Y-110077854D01*
X124010503Y-110279497D01*
X124212146Y-110414230D01*
X124450000Y-110461542D01*
X126350000Y-110461542D01*
X126587854Y-110414230D01*
X126789497Y-110279497D01*
X126907255Y-110103258D01*
X126924763Y-110120766D01*
X127036846Y-110008683D01*
X127132927Y-110260118D01*
X127718683Y-110464677D01*
X128338132Y-110429506D01*
X128747073Y-110260118D01*
X128843155Y-110008681D01*
X127940000Y-109105526D01*
X127925858Y-109119669D01*
X127710332Y-108904143D01*
X127724474Y-108890000D01*
X128155526Y-108890000D01*
X129058681Y-109793155D01*
X129151335Y-109757749D01*
X129157835Y-109773442D01*
X129596558Y-110212165D01*
X130169776Y-110449600D01*
X130790224Y-110449600D01*
X131363442Y-110212165D01*
X131750000Y-109825607D01*
X132136558Y-110212165D01*
X132709776Y-110449600D01*
X133330224Y-110449600D01*
X133903442Y-110212165D01*
X134290000Y-109825607D01*
X134676558Y-110212165D01*
X135249776Y-110449600D01*
X135870224Y-110449600D01*
X136443442Y-110212165D01*
X136830000Y-109825607D01*
X137216558Y-110212165D01*
X137789776Y-110449600D01*
X138410224Y-110449600D01*
X138983442Y-110212165D01*
X139422165Y-109773442D01*
X139659600Y-109200224D01*
X139659600Y-108579776D01*
X139422165Y-108006558D01*
X138983442Y-107567835D01*
X138410224Y-107330400D01*
X137789776Y-107330400D01*
X137216558Y-107567835D01*
X136830000Y-107954393D01*
X136443442Y-107567835D01*
X135870224Y-107330400D01*
X135249776Y-107330400D01*
X134676558Y-107567835D01*
X134290000Y-107954393D01*
X133903442Y-107567835D01*
X133330224Y-107330400D01*
X132709776Y-107330400D01*
X132136558Y-107567835D01*
X131750000Y-107954393D01*
X131363442Y-107567835D01*
X130790224Y-107330400D01*
X130169776Y-107330400D01*
X129596558Y-107567835D01*
X129157835Y-108006558D01*
X129151335Y-108022251D01*
X129058681Y-107986845D01*
X128155526Y-108890000D01*
X127724474Y-108890000D01*
X127710332Y-108875858D01*
X127925858Y-108660332D01*
X127940000Y-108674474D01*
X128843155Y-107771319D01*
X128747073Y-107519882D01*
X128161317Y-107315323D01*
X127541868Y-107350494D01*
X127132927Y-107519882D01*
X127036846Y-107771317D01*
X126924763Y-107659234D01*
X126907255Y-107676742D01*
X126789497Y-107500503D01*
X126587854Y-107365770D01*
X126350000Y-107318458D01*
X124450000Y-107318458D01*
X124212146Y-107365770D01*
X124010503Y-107500503D01*
X123875770Y-107702146D01*
X123828458Y-107940000D01*
X121879600Y-107940000D01*
X121879600Y-107924800D01*
X121727200Y-107772400D01*
X120472400Y-107772400D01*
X120472400Y-107792400D01*
X120167600Y-107792400D01*
X120167600Y-107772400D01*
X118912800Y-107772400D01*
X118760400Y-107924800D01*
X118760400Y-108691257D01*
X118853206Y-108915311D01*
X119024689Y-109086794D01*
X119139884Y-109134509D01*
X118997835Y-109276558D01*
X118936183Y-109425400D01*
X105414466Y-109425400D01*
X105226264Y-109143736D01*
X104846522Y-108890000D01*
X105226264Y-108636264D01*
X105414466Y-108354600D01*
X113768458Y-108354600D01*
X113768458Y-108470000D01*
X113815770Y-108707854D01*
X113950503Y-108909497D01*
X114152146Y-109044230D01*
X114390000Y-109091542D01*
X116090000Y-109091542D01*
X116327854Y-109044230D01*
X116529497Y-108909497D01*
X116664230Y-108707854D01*
X116711542Y-108470000D01*
X116711542Y-106770000D01*
X116667532Y-106548743D01*
X118760400Y-106548743D01*
X118760400Y-107315200D01*
X118912800Y-107467600D01*
X120167600Y-107467600D01*
X120167600Y-106212800D01*
X120472400Y-106212800D01*
X120472400Y-107467600D01*
X121727200Y-107467600D01*
X121879600Y-107315200D01*
X121879600Y-106548743D01*
X121786794Y-106324689D01*
X121615311Y-106153206D01*
X121391257Y-106060400D01*
X120624800Y-106060400D01*
X120472400Y-106212800D01*
X120167600Y-106212800D01*
X120015200Y-106060400D01*
X119248743Y-106060400D01*
X119024689Y-106153206D01*
X118853206Y-106324689D01*
X118760400Y-106548743D01*
X116667532Y-106548743D01*
X116664230Y-106532146D01*
X116529497Y-106330503D01*
X116327854Y-106195770D01*
X116090000Y-106148458D01*
X114390000Y-106148458D01*
X114152146Y-106195770D01*
X113950503Y-106330503D01*
X113815770Y-106532146D01*
X113768458Y-106770000D01*
X113768458Y-106885400D01*
X105414466Y-106885400D01*
X105226264Y-106603736D01*
X104846522Y-106350000D01*
X105226264Y-106096264D01*
X105414466Y-105814600D01*
X108196811Y-105814600D01*
X108318108Y-105935897D01*
X108689178Y-106089600D01*
X109090822Y-106089600D01*
X109461892Y-105935897D01*
X109685400Y-105712389D01*
X109685400Y-105935713D01*
X109854327Y-106343538D01*
X110166462Y-106655673D01*
X110574287Y-106824600D01*
X111015713Y-106824600D01*
X111423538Y-106655673D01*
X111735673Y-106343538D01*
X111904600Y-105935713D01*
X111904600Y-105494287D01*
X111884163Y-105444947D01*
X112034497Y-105344497D01*
X112169230Y-105142854D01*
X112216542Y-104905000D01*
X112216542Y-102905000D01*
X112169230Y-102667146D01*
X112034497Y-102465503D01*
X111832854Y-102330770D01*
X111595000Y-102283458D01*
X109995000Y-102283458D01*
X109757146Y-102330770D01*
X109555503Y-102465503D01*
X109420770Y-102667146D01*
X109373458Y-102905000D01*
X109373458Y-104187472D01*
X109090822Y-104070400D01*
X108689178Y-104070400D01*
X108318108Y-104224103D01*
X108196811Y-104345400D01*
X105414466Y-104345400D01*
X105226264Y-104063736D01*
X104846522Y-103810000D01*
X105226264Y-103556264D01*
X105414466Y-103274600D01*
X106926811Y-103274600D01*
X107048108Y-103395897D01*
X107419178Y-103549600D01*
X107820822Y-103549600D01*
X108191892Y-103395897D01*
X108475897Y-103111892D01*
X108629600Y-102740822D01*
X108629600Y-102339178D01*
X108475897Y-101968108D01*
X108191892Y-101684103D01*
X107820822Y-101530400D01*
X107419178Y-101530400D01*
X107048108Y-101684103D01*
X106926811Y-101805400D01*
X105414466Y-101805400D01*
X105226264Y-101523736D01*
X104833991Y-101261627D01*
X104890230Y-101243980D01*
X105314501Y-100888975D01*
X105570244Y-100369741D01*
X105487592Y-100209800D01*
X109385400Y-100209800D01*
X109385400Y-101026257D01*
X109478206Y-101250311D01*
X109649689Y-101421794D01*
X109873743Y-101514600D01*
X110490200Y-101514600D01*
X110642600Y-101362200D01*
X110642600Y-100057400D01*
X110947400Y-100057400D01*
X110947400Y-101362200D01*
X111099800Y-101514600D01*
X111716257Y-101514600D01*
X111940311Y-101421794D01*
X112111794Y-101250311D01*
X112204600Y-101026257D01*
X112204600Y-100209800D01*
X112052200Y-100057400D01*
X110947400Y-100057400D01*
X110642600Y-100057400D01*
X109537800Y-100057400D01*
X109385400Y-100209800D01*
X105487592Y-100209800D01*
X105457929Y-100152400D01*
X103962400Y-100152400D01*
X103962400Y-100172400D01*
X103657600Y-100172400D01*
X103657600Y-100152400D01*
X102162071Y-100152400D01*
X102049756Y-100369741D01*
X102305499Y-100888975D01*
X102729770Y-101243980D01*
X102786009Y-101261627D01*
X102393736Y-101523736D01*
X102082186Y-101990002D01*
X101972785Y-102540000D01*
X98027215Y-102540000D01*
X97917814Y-101990002D01*
X97606264Y-101523736D01*
X97226522Y-101270000D01*
X97606264Y-101016264D01*
X97917814Y-100549998D01*
X98027215Y-100000000D01*
X97917814Y-99450002D01*
X97606264Y-98983736D01*
X97226522Y-98730000D01*
X97606264Y-98476264D01*
X97917814Y-98009998D01*
X98027215Y-97460000D01*
X97917814Y-96910002D01*
X97606264Y-96443736D01*
X97226522Y-96190000D01*
X97606264Y-95936264D01*
X97917814Y-95469998D01*
X98027215Y-94920000D01*
X97917814Y-94370002D01*
X97606264Y-93903736D01*
X97226522Y-93650000D01*
X97606264Y-93396264D01*
X97917814Y-92929998D01*
X98027215Y-92380000D01*
X97917814Y-91830002D01*
X97606264Y-91363736D01*
X97438795Y-91251836D01*
X97627854Y-91214230D01*
X97829497Y-91079497D01*
X97964230Y-90877854D01*
X98011542Y-90640000D01*
X98011542Y-89840000D01*
X101972785Y-89840000D01*
X102082186Y-90389998D01*
X102393736Y-90856264D01*
X102773478Y-91110000D01*
X102393736Y-91363736D01*
X102082186Y-91830002D01*
X101972785Y-92380000D01*
X102082186Y-92929998D01*
X102393736Y-93396264D01*
X102773478Y-93650000D01*
X102393736Y-93903736D01*
X102082186Y-94370002D01*
X101972785Y-94920000D01*
X102082186Y-95469998D01*
X102393736Y-95936264D01*
X102773478Y-96190000D01*
X102393736Y-96443736D01*
X102082186Y-96910002D01*
X101972785Y-97460000D01*
X102082186Y-98009998D01*
X102393736Y-98476264D01*
X102786009Y-98738373D01*
X102729770Y-98756020D01*
X102305499Y-99111025D01*
X102049756Y-99630259D01*
X102162071Y-99847600D01*
X103657600Y-99847600D01*
X103657600Y-99827600D01*
X103962400Y-99827600D01*
X103962400Y-99847600D01*
X105457929Y-99847600D01*
X105570244Y-99630259D01*
X105314501Y-99111025D01*
X104890230Y-98756020D01*
X104833991Y-98738373D01*
X105226264Y-98476264D01*
X105414466Y-98194600D01*
X109466811Y-98194600D01*
X109588108Y-98315897D01*
X109706183Y-98364805D01*
X109649689Y-98388206D01*
X109478206Y-98559689D01*
X109385400Y-98783743D01*
X109385400Y-99600200D01*
X109537800Y-99752600D01*
X110642600Y-99752600D01*
X110642600Y-98447800D01*
X110947400Y-98447800D01*
X110947400Y-99752600D01*
X112052200Y-99752600D01*
X112204600Y-99600200D01*
X112204600Y-98783743D01*
X112111794Y-98559689D01*
X111940311Y-98388206D01*
X111716257Y-98295400D01*
X111099800Y-98295400D01*
X110947400Y-98447800D01*
X110642600Y-98447800D01*
X110575484Y-98380684D01*
X110731892Y-98315897D01*
X111015897Y-98031892D01*
X111169600Y-97660822D01*
X111169600Y-97259178D01*
X111015897Y-96888108D01*
X110731892Y-96604103D01*
X110360822Y-96450400D01*
X109959178Y-96450400D01*
X109588108Y-96604103D01*
X109466811Y-96725400D01*
X105414466Y-96725400D01*
X105226264Y-96443736D01*
X104846522Y-96190000D01*
X105226264Y-95936264D01*
X105414466Y-95654600D01*
X108196811Y-95654600D01*
X108318108Y-95775897D01*
X108689178Y-95929600D01*
X109090822Y-95929600D01*
X109461892Y-95775897D01*
X109745897Y-95491892D01*
X109899600Y-95120822D01*
X109899600Y-94719178D01*
X109745897Y-94348108D01*
X109461892Y-94064103D01*
X109090822Y-93910400D01*
X108689178Y-93910400D01*
X108318108Y-94064103D01*
X108196811Y-94185400D01*
X105414466Y-94185400D01*
X105226264Y-93903736D01*
X104846522Y-93650000D01*
X105226264Y-93396264D01*
X105414466Y-93114600D01*
X105656811Y-93114600D01*
X105778108Y-93235897D01*
X106149178Y-93389600D01*
X106550822Y-93389600D01*
X106921892Y-93235897D01*
X107205897Y-92951892D01*
X107359600Y-92580822D01*
X107359600Y-92179178D01*
X107205897Y-91808108D01*
X106921892Y-91524103D01*
X106550822Y-91370400D01*
X106149178Y-91370400D01*
X105778108Y-91524103D01*
X105656811Y-91645400D01*
X105414466Y-91645400D01*
X105226264Y-91363736D01*
X104846522Y-91110000D01*
X105226264Y-90856264D01*
X105414466Y-90574600D01*
X106926811Y-90574600D01*
X107048108Y-90695897D01*
X107419178Y-90849600D01*
X107820822Y-90849600D01*
X108191892Y-90695897D01*
X108475897Y-90411892D01*
X108629600Y-90040822D01*
X108629600Y-89639178D01*
X108475897Y-89268108D01*
X108191892Y-88984103D01*
X107820822Y-88830400D01*
X107419178Y-88830400D01*
X107048108Y-88984103D01*
X106926811Y-89105400D01*
X105414466Y-89105400D01*
X105226264Y-88823736D01*
X104759998Y-88512186D01*
X104348830Y-88430400D01*
X103271170Y-88430400D01*
X102860002Y-88512186D01*
X102393736Y-88823736D01*
X102082186Y-89290002D01*
X101972785Y-89840000D01*
X98011542Y-89840000D01*
X98011542Y-89040000D01*
X97964230Y-88802146D01*
X97829497Y-88600503D01*
X97627854Y-88465770D01*
X97390000Y-88418458D01*
X94990000Y-88418458D01*
X94752146Y-88465770D01*
X94550503Y-88600503D01*
X94415770Y-88802146D01*
X94368458Y-89040000D01*
X94368458Y-89105400D01*
X71483189Y-89105400D01*
X71361892Y-88984103D01*
X70990822Y-88830400D01*
X70589178Y-88830400D01*
X70218108Y-88984103D01*
X69934103Y-89268108D01*
X69780400Y-89639178D01*
X58184600Y-89639178D01*
X58184600Y-87099178D01*
X64700400Y-87099178D01*
X64700400Y-87500822D01*
X64854103Y-87871892D01*
X65138108Y-88155897D01*
X65509178Y-88309600D01*
X65910822Y-88309600D01*
X66281892Y-88155897D01*
X66403189Y-88034600D01*
X105656811Y-88034600D01*
X105778108Y-88155897D01*
X106149178Y-88309600D01*
X106550822Y-88309600D01*
X106921892Y-88155897D01*
X107205897Y-87871892D01*
X107359600Y-87500822D01*
X107359600Y-87099178D01*
X107317472Y-86997472D01*
X107419178Y-87039600D01*
X107820822Y-87039600D01*
X108191892Y-86885897D01*
X108475897Y-86601892D01*
X108629600Y-86230822D01*
X108629600Y-85829178D01*
X108475897Y-85458108D01*
X108191892Y-85174103D01*
X107964709Y-85080000D01*
X112398458Y-85080000D01*
X112398458Y-86980000D01*
X112445770Y-87217854D01*
X112580503Y-87419497D01*
X112780957Y-87553436D01*
X112647835Y-87686558D01*
X112410400Y-88259776D01*
X112410400Y-88880224D01*
X112647835Y-89453442D01*
X113086558Y-89892165D01*
X113548574Y-90083538D01*
X113341462Y-90169327D01*
X113029327Y-90481462D01*
X112860400Y-90889287D01*
X112860400Y-91330713D01*
X113029327Y-91738538D01*
X113341462Y-92050673D01*
X113749287Y-92219600D01*
X114190713Y-92219600D01*
X114552844Y-92069600D01*
X115145492Y-92069600D01*
X115240000Y-92088399D01*
X115334508Y-92069600D01*
X115334509Y-92069600D01*
X115614417Y-92013923D01*
X115931833Y-91801833D01*
X115985372Y-91721706D01*
X116147478Y-91559600D01*
X116580589Y-91559600D01*
X116752146Y-91674230D01*
X116990000Y-91721542D01*
X119590000Y-91721542D01*
X119827854Y-91674230D01*
X120029497Y-91539497D01*
X120164230Y-91337854D01*
X120211542Y-91100000D01*
X120211542Y-90100000D01*
X120164230Y-89862146D01*
X120029497Y-89660503D01*
X119827854Y-89525770D01*
X119698299Y-89500000D01*
X119827854Y-89474230D01*
X119893689Y-89430241D01*
X120035787Y-89489100D01*
X120477213Y-89489100D01*
X120885038Y-89320173D01*
X121197173Y-89008038D01*
X121366100Y-88600213D01*
X121366100Y-88158787D01*
X121813900Y-88158787D01*
X121813900Y-88600213D01*
X121982827Y-89008038D01*
X122294962Y-89320173D01*
X122702787Y-89489100D01*
X123144213Y-89489100D01*
X123286311Y-89430241D01*
X123352146Y-89474230D01*
X123481701Y-89500000D01*
X123352146Y-89525770D01*
X123150503Y-89660503D01*
X123015770Y-89862146D01*
X122968458Y-90100000D01*
X122968458Y-91100000D01*
X123015770Y-91337854D01*
X123150503Y-91539497D01*
X123352146Y-91674230D01*
X123590000Y-91721542D01*
X126190000Y-91721542D01*
X126427854Y-91674230D01*
X126599411Y-91559600D01*
X127288827Y-91559600D01*
X127655787Y-91711600D01*
X128097213Y-91711600D01*
X128505038Y-91542673D01*
X128817173Y-91230538D01*
X128986100Y-90822713D01*
X128986100Y-90381287D01*
X128817173Y-89973462D01*
X128505038Y-89661327D01*
X128097213Y-89492400D01*
X127655787Y-89492400D01*
X127298484Y-89640400D01*
X126599411Y-89640400D01*
X126427854Y-89525770D01*
X126298299Y-89500000D01*
X126427854Y-89474230D01*
X126629497Y-89339497D01*
X126764230Y-89137854D01*
X126811542Y-88900000D01*
X126811542Y-87900000D01*
X126764230Y-87662146D01*
X126629497Y-87460503D01*
X126427854Y-87325770D01*
X126298299Y-87300000D01*
X126427854Y-87274230D01*
X126629497Y-87139497D01*
X126764230Y-86937854D01*
X126811542Y-86700000D01*
X126811542Y-85700000D01*
X126764230Y-85462146D01*
X126629497Y-85260503D01*
X126427854Y-85125770D01*
X126190000Y-85078458D01*
X123590000Y-85078458D01*
X123352146Y-85125770D01*
X123150503Y-85260503D01*
X123015770Y-85462146D01*
X122968458Y-85700000D01*
X122968458Y-86700000D01*
X123015770Y-86937854D01*
X123150503Y-87139497D01*
X123352146Y-87274230D01*
X123481701Y-87300000D01*
X123352146Y-87325770D01*
X123324190Y-87344449D01*
X123144213Y-87269900D01*
X122702787Y-87269900D01*
X122294962Y-87438827D01*
X121982827Y-87750962D01*
X121813900Y-88158787D01*
X121366100Y-88158787D01*
X121197173Y-87750962D01*
X120885038Y-87438827D01*
X120477213Y-87269900D01*
X120035787Y-87269900D01*
X119855810Y-87344449D01*
X119827854Y-87325770D01*
X119698299Y-87300000D01*
X119827854Y-87274230D01*
X120029497Y-87139497D01*
X120164230Y-86937854D01*
X120211542Y-86700000D01*
X120211542Y-85700000D01*
X120164230Y-85462146D01*
X120029497Y-85260503D01*
X119827854Y-85125770D01*
X119590000Y-85078458D01*
X116990000Y-85078458D01*
X116752146Y-85125770D01*
X116550503Y-85260503D01*
X116415770Y-85462146D01*
X116368458Y-85700000D01*
X116368458Y-86700000D01*
X116415770Y-86937854D01*
X116550503Y-87139497D01*
X116752146Y-87274230D01*
X116881701Y-87300000D01*
X116752146Y-87325770D01*
X116580589Y-87440400D01*
X115328213Y-87440400D01*
X115359497Y-87419497D01*
X115494230Y-87217854D01*
X115541542Y-86980000D01*
X115541542Y-85080000D01*
X115494230Y-84842146D01*
X115359497Y-84640503D01*
X115208016Y-84539287D01*
X126830400Y-84539287D01*
X126830400Y-84980713D01*
X126980401Y-85342846D01*
X126980400Y-85935491D01*
X126961601Y-86030000D01*
X126980400Y-86124508D01*
X127036077Y-86404416D01*
X127248167Y-86721833D01*
X127328294Y-86775372D01*
X128464630Y-87911709D01*
X128518167Y-87991833D01*
X128835583Y-88203923D01*
X128908458Y-88218419D01*
X128908458Y-88250000D01*
X128955770Y-88487854D01*
X129090503Y-88689497D01*
X129292146Y-88824230D01*
X129530000Y-88871542D01*
X131430000Y-88871542D01*
X131667854Y-88824230D01*
X131869497Y-88689497D01*
X132004230Y-88487854D01*
X132049632Y-88259600D01*
X133990368Y-88259600D01*
X134035770Y-88487854D01*
X134170503Y-88689497D01*
X134372146Y-88824230D01*
X134610000Y-88871542D01*
X136510000Y-88871542D01*
X136747854Y-88824230D01*
X136949497Y-88689497D01*
X137084230Y-88487854D01*
X137131542Y-88250000D01*
X137131542Y-86350000D01*
X137084230Y-86112146D01*
X136949497Y-85910503D01*
X136749043Y-85776564D01*
X136882165Y-85643442D01*
X137119600Y-85070224D01*
X137119600Y-84449776D01*
X136882165Y-83876558D01*
X136443442Y-83437835D01*
X135870224Y-83200400D01*
X135249776Y-83200400D01*
X134676558Y-83437835D01*
X134237835Y-83876558D01*
X134000400Y-84449776D01*
X134000400Y-85070224D01*
X134237835Y-85643442D01*
X134370957Y-85776564D01*
X134170503Y-85910503D01*
X134035770Y-86112146D01*
X133990368Y-86340400D01*
X132049632Y-86340400D01*
X132004230Y-86112146D01*
X131869497Y-85910503D01*
X131669043Y-85776564D01*
X131802165Y-85643442D01*
X132039600Y-85070224D01*
X132039600Y-84449776D01*
X131802165Y-83876558D01*
X131363442Y-83437835D01*
X130790224Y-83200400D01*
X130169776Y-83200400D01*
X129596558Y-83437835D01*
X129157835Y-83876558D01*
X128966462Y-84338574D01*
X128880673Y-84131462D01*
X128568538Y-83819327D01*
X128160713Y-83650400D01*
X127719287Y-83650400D01*
X127311462Y-83819327D01*
X126999327Y-84131462D01*
X126830400Y-84539287D01*
X115208016Y-84539287D01*
X115157854Y-84505770D01*
X114920000Y-84458458D01*
X113020000Y-84458458D01*
X112782146Y-84505770D01*
X112580503Y-84640503D01*
X112445770Y-84842146D01*
X112398458Y-85080000D01*
X107964709Y-85080000D01*
X107820822Y-85020400D01*
X107419178Y-85020400D01*
X107048108Y-85174103D01*
X106926811Y-85295400D01*
X68943189Y-85295400D01*
X68821892Y-85174103D01*
X68450822Y-85020400D01*
X68049178Y-85020400D01*
X67678108Y-85174103D01*
X67394103Y-85458108D01*
X67240400Y-85829178D01*
X67240400Y-86230822D01*
X67378987Y-86565400D01*
X66403189Y-86565400D01*
X66281892Y-86444103D01*
X65910822Y-86290400D01*
X65509178Y-86290400D01*
X65138108Y-86444103D01*
X64854103Y-86728108D01*
X64700400Y-87099178D01*
X58184600Y-87099178D01*
X58184600Y-82761287D01*
X84856900Y-82761287D01*
X84856900Y-83202713D01*
X85025827Y-83610538D01*
X85337962Y-83922673D01*
X85745787Y-84091600D01*
X86187213Y-84091600D01*
X86505889Y-83959600D01*
X116580589Y-83959600D01*
X116752146Y-84074230D01*
X116990000Y-84121542D01*
X119590000Y-84121542D01*
X119827854Y-84074230D01*
X120029497Y-83939497D01*
X120164230Y-83737854D01*
X120211542Y-83500000D01*
X120211542Y-82500000D01*
X120207783Y-82481100D01*
X121065522Y-82481100D01*
X122196130Y-83611709D01*
X122249667Y-83691833D01*
X122440476Y-83819327D01*
X122567082Y-83903923D01*
X122941500Y-83978399D01*
X123036009Y-83959600D01*
X123180589Y-83959600D01*
X123352146Y-84074230D01*
X123590000Y-84121542D01*
X126190000Y-84121542D01*
X126427854Y-84074230D01*
X126629497Y-83939497D01*
X126764230Y-83737854D01*
X126811542Y-83500000D01*
X126811542Y-82500000D01*
X126764230Y-82262146D01*
X126629497Y-82060503D01*
X126427854Y-81925770D01*
X126190000Y-81878458D01*
X123590000Y-81878458D01*
X123352146Y-81925770D01*
X123275537Y-81976958D01*
X122208372Y-80909794D01*
X122154833Y-80829667D01*
X121837417Y-80617577D01*
X121557509Y-80561900D01*
X121557508Y-80561900D01*
X121463000Y-80543101D01*
X121368492Y-80561900D01*
X100836844Y-80561900D01*
X100474713Y-80411900D01*
X100033287Y-80411900D01*
X99625462Y-80580827D01*
X99313327Y-80892962D01*
X99144400Y-81300787D01*
X99144400Y-81742213D01*
X99267913Y-82040400D01*
X86592800Y-82040400D01*
X86187213Y-81872400D01*
X85745787Y-81872400D01*
X85337962Y-82041327D01*
X85025827Y-82353462D01*
X84856900Y-82761287D01*
X58184600Y-82761287D01*
X58184600Y-69209776D01*
X59070400Y-69209776D01*
X59070400Y-69830224D01*
X59307835Y-70403442D01*
X59746558Y-70842165D01*
X60319776Y-71079600D01*
X60940224Y-71079600D01*
X61513442Y-70842165D01*
X61900000Y-70455607D01*
X62286558Y-70842165D01*
X62859776Y-71079600D01*
X63480224Y-71079600D01*
X64053442Y-70842165D01*
X64440000Y-70455607D01*
X64826558Y-70842165D01*
X64975400Y-70903818D01*
X64975401Y-73165286D01*
X64822146Y-73195770D01*
X64620503Y-73330503D01*
X64485770Y-73532146D01*
X64438458Y-73770000D01*
X64438458Y-75270000D01*
X64485770Y-75507854D01*
X64620503Y-75709497D01*
X64822146Y-75844230D01*
X64951701Y-75870000D01*
X64822146Y-75895770D01*
X64620503Y-76030503D01*
X64485770Y-76232146D01*
X64438458Y-76470000D01*
X64438458Y-77970000D01*
X64485770Y-78207854D01*
X64620503Y-78409497D01*
X64700400Y-78462882D01*
X64700400Y-78610822D01*
X64854103Y-78981892D01*
X65138108Y-79265897D01*
X65509178Y-79419600D01*
X65910822Y-79419600D01*
X66281892Y-79265897D01*
X66565897Y-78981892D01*
X66719600Y-78610822D01*
X66719600Y-78462882D01*
X66799497Y-78409497D01*
X66934230Y-78207854D01*
X66980000Y-77977752D01*
X67025770Y-78207854D01*
X67160503Y-78409497D01*
X67240400Y-78462882D01*
X67240400Y-78610822D01*
X67394103Y-78981892D01*
X67678108Y-79265897D01*
X68049178Y-79419600D01*
X68450822Y-79419600D01*
X68821892Y-79265897D01*
X69105897Y-78981892D01*
X69259600Y-78610822D01*
X69259600Y-78462882D01*
X69339497Y-78409497D01*
X69474230Y-78207854D01*
X69520000Y-77977752D01*
X69565770Y-78207854D01*
X69700503Y-78409497D01*
X69780400Y-78462882D01*
X69780400Y-78610822D01*
X69934103Y-78981892D01*
X70218108Y-79265897D01*
X70589178Y-79419600D01*
X70990822Y-79419600D01*
X71361892Y-79265897D01*
X71645897Y-78981892D01*
X71799600Y-78610822D01*
X71799600Y-78462882D01*
X71879497Y-78409497D01*
X72014230Y-78207854D01*
X72060000Y-77977752D01*
X72105770Y-78207854D01*
X72240503Y-78409497D01*
X72320400Y-78462882D01*
X72320400Y-78610822D01*
X72474103Y-78981892D01*
X72758108Y-79265897D01*
X73129178Y-79419600D01*
X73530822Y-79419600D01*
X73901892Y-79265897D01*
X74185897Y-78981892D01*
X74339600Y-78610822D01*
X74339600Y-78462882D01*
X74419497Y-78409497D01*
X74554230Y-78207854D01*
X74600000Y-77977752D01*
X74645770Y-78207854D01*
X74780503Y-78409497D01*
X74860400Y-78462882D01*
X74860400Y-78610822D01*
X75014103Y-78981892D01*
X75298108Y-79265897D01*
X75669178Y-79419600D01*
X76070822Y-79419600D01*
X76441892Y-79265897D01*
X76725897Y-78981892D01*
X76879600Y-78610822D01*
X76879600Y-78462882D01*
X76959497Y-78409497D01*
X77094230Y-78207854D01*
X77141542Y-77970000D01*
X77141542Y-76470000D01*
X77094230Y-76232146D01*
X76959497Y-76030503D01*
X76757854Y-75895770D01*
X76628299Y-75870000D01*
X76757854Y-75844230D01*
X76959497Y-75709497D01*
X77094230Y-75507854D01*
X77141542Y-75270000D01*
X77141542Y-73770000D01*
X77094230Y-73532146D01*
X76959497Y-73330503D01*
X76757854Y-73195770D01*
X76604600Y-73165286D01*
X76604600Y-70903817D01*
X76753442Y-70842165D01*
X77192165Y-70403442D01*
X77429600Y-69830224D01*
X77429600Y-69209776D01*
X77192165Y-68636558D01*
X76753442Y-68197835D01*
X76180224Y-67960400D01*
X75559776Y-67960400D01*
X74986558Y-68197835D01*
X74600000Y-68584393D01*
X74213442Y-68197835D01*
X73640224Y-67960400D01*
X73019776Y-67960400D01*
X72446558Y-68197835D01*
X72060000Y-68584393D01*
X71673442Y-68197835D01*
X71100224Y-67960400D01*
X70479776Y-67960400D01*
X69906558Y-68197835D01*
X69520000Y-68584393D01*
X69133442Y-68197835D01*
X68560224Y-67960400D01*
X67939776Y-67960400D01*
X67366558Y-68197835D01*
X66980000Y-68584393D01*
X66593442Y-68197835D01*
X66020224Y-67960400D01*
X65399776Y-67960400D01*
X64826558Y-68197835D01*
X64440000Y-68584393D01*
X64053442Y-68197835D01*
X63480224Y-67960400D01*
X62859776Y-67960400D01*
X62286558Y-68197835D01*
X61900000Y-68584393D01*
X61513442Y-68197835D01*
X60940224Y-67960400D01*
X60319776Y-67960400D01*
X59746558Y-68197835D01*
X59307835Y-68636558D01*
X59070400Y-69209776D01*
X58184600Y-69209776D01*
X58184600Y-67284800D01*
X79510400Y-67284800D01*
X79510400Y-67751257D01*
X79603206Y-67975311D01*
X79774689Y-68146794D01*
X79998743Y-68239600D01*
X80565200Y-68239600D01*
X80717600Y-68087200D01*
X80717600Y-67132400D01*
X79662800Y-67132400D01*
X79510400Y-67284800D01*
X58184600Y-67284800D01*
X58184600Y-65176600D01*
X59571012Y-65176600D01*
X59520400Y-65298787D01*
X59520400Y-65298787D01*
G37*
X59520400Y-65298787D02*
X59520400Y-65740213D01*
X59689327Y-66148038D01*
X60001462Y-66460173D01*
X60409287Y-66629100D01*
X60850713Y-66629100D01*
X61212844Y-66479100D01*
X79510400Y-66479100D01*
X79510400Y-66675200D01*
X79662800Y-66827600D01*
X80717600Y-66827600D01*
X80717600Y-66807600D01*
X81022400Y-66807600D01*
X81022400Y-66827600D01*
X81042400Y-66827600D01*
X81042400Y-67132400D01*
X81022400Y-67132400D01*
X81022400Y-68087200D01*
X81174800Y-68239600D01*
X81741257Y-68239600D01*
X81965311Y-68146794D01*
X82136794Y-67975311D01*
X82224856Y-67762711D01*
X82245770Y-67867854D01*
X82380503Y-68069497D01*
X82582146Y-68204230D01*
X82755400Y-68238692D01*
X82755401Y-69300413D01*
X82650503Y-69370503D01*
X82515770Y-69572146D01*
X82468458Y-69810000D01*
X82468458Y-71510000D01*
X82515770Y-71747854D01*
X82650503Y-71949497D01*
X82708812Y-71988458D01*
X82140000Y-71988458D01*
X81902146Y-72035770D01*
X81700503Y-72170503D01*
X81565770Y-72372146D01*
X81518458Y-72610000D01*
X81518458Y-74310000D01*
X81565770Y-74547854D01*
X81700503Y-74749497D01*
X81839752Y-74842540D01*
X81846331Y-74875617D01*
X81848024Y-74884126D01*
X82010384Y-75127117D01*
X82071719Y-75168100D01*
X82289399Y-75385780D01*
X82330383Y-75447117D01*
X82573374Y-75609477D01*
X82787652Y-75652100D01*
X82787653Y-75652100D01*
X82859999Y-75666491D01*
X82932346Y-75652100D01*
X92321811Y-75652100D01*
X92443108Y-75773397D01*
X92814178Y-75927100D01*
X93215822Y-75927100D01*
X93586892Y-75773397D01*
X93708189Y-75652100D01*
X97556900Y-75652100D01*
X97556900Y-76090713D01*
X97725827Y-76498538D01*
X97823189Y-76595900D01*
X92882689Y-76595900D01*
X92761392Y-76474603D01*
X92390322Y-76320900D01*
X91988678Y-76320900D01*
X91617608Y-76474603D01*
X91333603Y-76758608D01*
X91179900Y-77129678D01*
X91179900Y-77531322D01*
X91333603Y-77902392D01*
X91617608Y-78186397D01*
X91699126Y-78220163D01*
X91439327Y-78479962D01*
X91270400Y-78887787D01*
X91270400Y-79329213D01*
X91439327Y-79737038D01*
X91751462Y-80049173D01*
X92159287Y-80218100D01*
X92600713Y-80218100D01*
X92962844Y-80068100D01*
X98083656Y-80068100D01*
X98445787Y-80218100D01*
X98887213Y-80218100D01*
X99295038Y-80049173D01*
X99607173Y-79737038D01*
X99776100Y-79329213D01*
X99776100Y-78890600D01*
X106610400Y-78890600D01*
X106610400Y-79182322D01*
X106764103Y-79553392D01*
X107048108Y-79837397D01*
X107419178Y-79991100D01*
X107820822Y-79991100D01*
X108191892Y-79837397D01*
X108313189Y-79716100D01*
X109466811Y-79716100D01*
X109588108Y-79837397D01*
X109959178Y-79991100D01*
X110360822Y-79991100D01*
X110731892Y-79837397D01*
X111015897Y-79553392D01*
X111169600Y-79182322D01*
X111169600Y-78780678D01*
X111015897Y-78409608D01*
X110731892Y-78125603D01*
X110585826Y-78065100D01*
X116324811Y-78065100D01*
X116446108Y-78186397D01*
X116817178Y-78340100D01*
X117218822Y-78340100D01*
X117589892Y-78186397D01*
X117666567Y-78109722D01*
X131510400Y-78109722D01*
X131510400Y-78710278D01*
X131740223Y-79265120D01*
X132164880Y-79689777D01*
X132719722Y-79919600D01*
X133320278Y-79919600D01*
X133875120Y-79689777D01*
X134299777Y-79265120D01*
X134529600Y-78710278D01*
X134529600Y-78109722D01*
X134299777Y-77554880D01*
X133875120Y-77130223D01*
X133320278Y-76900400D01*
X132719722Y-76900400D01*
X132164880Y-77130223D01*
X131740223Y-77554880D01*
X131510400Y-78109722D01*
X117666567Y-78109722D01*
X117873897Y-77902392D01*
X118027600Y-77531322D01*
X118027600Y-77129678D01*
X117873897Y-76758608D01*
X117715539Y-76600250D01*
X117873897Y-76441892D01*
X118027600Y-76070822D01*
X118027600Y-75669178D01*
X117986404Y-75569722D01*
X123890400Y-75569722D01*
X123890400Y-76170278D01*
X124120223Y-76725120D01*
X124544880Y-77149777D01*
X125099722Y-77379600D01*
X125700278Y-77379600D01*
X126255120Y-77149777D01*
X126679777Y-76725120D01*
X126909600Y-76170278D01*
X126909600Y-75569722D01*
X136590400Y-75569722D01*
X136590400Y-76170278D01*
X136820223Y-76725120D01*
X137244880Y-77149777D01*
X137799722Y-77379600D01*
X138400278Y-77379600D01*
X138955120Y-77149777D01*
X139379777Y-76725120D01*
X139609600Y-76170278D01*
X139609600Y-75569722D01*
X139379777Y-75014880D01*
X138955120Y-74590223D01*
X138400278Y-74360400D01*
X137799722Y-74360400D01*
X137244880Y-74590223D01*
X136820223Y-75014880D01*
X136590400Y-75569722D01*
X126909600Y-75569722D01*
X126679777Y-75014880D01*
X126255120Y-74590223D01*
X125700278Y-74360400D01*
X125099722Y-74360400D01*
X124544880Y-74590223D01*
X124120223Y-75014880D01*
X123890400Y-75569722D01*
X117986404Y-75569722D01*
X117873897Y-75298108D01*
X117589892Y-75014103D01*
X117357881Y-74918000D01*
X117359280Y-74916601D01*
X117420617Y-74875617D01*
X117582977Y-74632626D01*
X117625600Y-74418348D01*
X117625600Y-74418347D01*
X117639991Y-74346001D01*
X117625600Y-74273654D01*
X117625600Y-73656346D01*
X117639991Y-73583999D01*
X117625600Y-73511652D01*
X117582977Y-73297374D01*
X117420617Y-73054383D01*
X117359280Y-73013400D01*
X117207602Y-72861721D01*
X117166617Y-72800383D01*
X116974622Y-72672097D01*
X117024230Y-72597854D01*
X117071542Y-72360000D01*
X117071542Y-71760000D01*
X117071487Y-71759722D01*
X131510400Y-71759722D01*
X131510400Y-72360278D01*
X131740223Y-72915120D01*
X132164880Y-73339777D01*
X132719722Y-73569600D01*
X133320278Y-73569600D01*
X133875120Y-73339777D01*
X134299777Y-72915120D01*
X134529600Y-72360278D01*
X134529600Y-71759722D01*
X134299777Y-71204880D01*
X133875120Y-70780223D01*
X133320278Y-70550400D01*
X132719722Y-70550400D01*
X132164880Y-70780223D01*
X131740223Y-71204880D01*
X131510400Y-71759722D01*
X117071487Y-71759722D01*
X117024230Y-71522146D01*
X116959319Y-71425000D01*
X117024230Y-71327854D01*
X117071542Y-71090000D01*
X117071542Y-70490000D01*
X117024230Y-70252146D01*
X116959319Y-70155000D01*
X117024230Y-70057854D01*
X117071542Y-69820000D01*
X117071542Y-69220000D01*
X117071487Y-69219722D01*
X123890400Y-69219722D01*
X123890400Y-69820278D01*
X124120223Y-70375120D01*
X124544880Y-70799777D01*
X125099722Y-71029600D01*
X125700278Y-71029600D01*
X126255120Y-70799777D01*
X126679777Y-70375120D01*
X126909600Y-69820278D01*
X126909600Y-69219722D01*
X136590400Y-69219722D01*
X136590400Y-69820278D01*
X136820223Y-70375120D01*
X137244880Y-70799777D01*
X137799722Y-71029600D01*
X138400278Y-71029600D01*
X138955120Y-70799777D01*
X139379777Y-70375120D01*
X139609600Y-69820278D01*
X139609600Y-69219722D01*
X139379777Y-68664880D01*
X138955120Y-68240223D01*
X138400278Y-68010400D01*
X137799722Y-68010400D01*
X137244880Y-68240223D01*
X136820223Y-68664880D01*
X136590400Y-69219722D01*
X126909600Y-69219722D01*
X126679777Y-68664880D01*
X126255120Y-68240223D01*
X125700278Y-68010400D01*
X125099722Y-68010400D01*
X124544880Y-68240223D01*
X124120223Y-68664880D01*
X123890400Y-69219722D01*
X117071487Y-69219722D01*
X117024230Y-68982146D01*
X116966443Y-68895662D01*
X116966794Y-68895311D01*
X117059600Y-68671257D01*
X117059600Y-68552400D01*
X116907200Y-68400000D01*
X115702400Y-68400000D01*
X115702400Y-68422400D01*
X115397600Y-68422400D01*
X115397600Y-68400000D01*
X114192800Y-68400000D01*
X114040400Y-68552400D01*
X114040400Y-68671257D01*
X114133206Y-68895311D01*
X114133557Y-68895662D01*
X114075770Y-68982146D01*
X114028458Y-69220000D01*
X114028458Y-69820000D01*
X114075770Y-70057854D01*
X114140681Y-70155000D01*
X114075770Y-70252146D01*
X114028458Y-70490000D01*
X114028458Y-71090000D01*
X114075770Y-71327854D01*
X114140681Y-71425000D01*
X114075770Y-71522146D01*
X114028458Y-71760000D01*
X114028458Y-72360000D01*
X114075770Y-72597854D01*
X114140681Y-72695000D01*
X114075770Y-72792146D01*
X114028458Y-73030000D01*
X114028458Y-73590400D01*
X114023178Y-73590400D01*
X113652108Y-73744103D01*
X113368103Y-74028108D01*
X113214400Y-74399178D01*
X113214400Y-74800822D01*
X113368103Y-75171892D01*
X113652108Y-75455897D01*
X114023178Y-75609600D01*
X114028458Y-75609600D01*
X114028458Y-76170000D01*
X114075770Y-76407854D01*
X114201418Y-76595900D01*
X111198582Y-76595900D01*
X111324230Y-76407854D01*
X111371542Y-76170000D01*
X111371542Y-75609600D01*
X111376822Y-75609600D01*
X111747892Y-75455897D01*
X112031897Y-75171892D01*
X112185600Y-74800822D01*
X112185600Y-74399178D01*
X112031897Y-74028108D01*
X111747892Y-73744103D01*
X111376822Y-73590400D01*
X111371542Y-73590400D01*
X111371542Y-73030000D01*
X111324230Y-72792146D01*
X111259319Y-72695000D01*
X111324230Y-72597854D01*
X111371542Y-72360000D01*
X111371542Y-71760000D01*
X111324230Y-71522146D01*
X111259319Y-71425000D01*
X111324230Y-71327854D01*
X111371542Y-71090000D01*
X111371542Y-70490000D01*
X111324230Y-70252146D01*
X111259319Y-70155000D01*
X111324230Y-70057854D01*
X111371542Y-69820000D01*
X111371542Y-69220000D01*
X111324230Y-68982146D01*
X111259319Y-68885000D01*
X111324230Y-68787854D01*
X111371542Y-68550000D01*
X111371542Y-67950000D01*
X111347423Y-67828743D01*
X114040400Y-67828743D01*
X114040400Y-67947600D01*
X114192800Y-68100000D01*
X115397600Y-68100000D01*
X115397600Y-67492800D01*
X115702400Y-67492800D01*
X115702400Y-68100000D01*
X116907200Y-68100000D01*
X117059600Y-67947600D01*
X117059600Y-67828743D01*
X116966794Y-67604689D01*
X116795311Y-67433206D01*
X116571257Y-67340400D01*
X115854800Y-67340400D01*
X115702400Y-67492800D01*
X115397600Y-67492800D01*
X115245200Y-67340400D01*
X114528743Y-67340400D01*
X114304689Y-67433206D01*
X114133206Y-67604689D01*
X114040400Y-67828743D01*
X111347423Y-67828743D01*
X111324230Y-67712146D01*
X111189497Y-67510503D01*
X110987854Y-67375770D01*
X110750000Y-67328458D01*
X108950000Y-67328458D01*
X108712146Y-67375770D01*
X108510503Y-67510503D01*
X108479116Y-67557478D01*
X108476374Y-67558023D01*
X108233383Y-67720383D01*
X108192398Y-67781722D01*
X107977222Y-67996898D01*
X107915883Y-68037883D01*
X107753523Y-68280875D01*
X107710900Y-68495152D01*
X107696509Y-68567500D01*
X107710900Y-68639847D01*
X107710900Y-68826811D01*
X107589603Y-68948108D01*
X107435900Y-69319178D01*
X107435900Y-69720822D01*
X107589603Y-70091892D01*
X107873608Y-70375897D01*
X108060719Y-70453401D01*
X107977222Y-70536898D01*
X107915883Y-70577883D01*
X107753523Y-70820875D01*
X107710900Y-71035152D01*
X107696509Y-71107500D01*
X107710900Y-71179846D01*
X107710900Y-71670154D01*
X107696509Y-71742500D01*
X107710900Y-71814846D01*
X107710900Y-71814848D01*
X107753523Y-72029126D01*
X107915884Y-72272117D01*
X107977220Y-72313100D01*
X108100273Y-72436153D01*
X107820822Y-72320400D01*
X107419178Y-72320400D01*
X107048108Y-72474103D01*
X106764103Y-72758108D01*
X106610400Y-73129178D01*
X106610400Y-73530822D01*
X106764103Y-73901892D01*
X107048108Y-74185897D01*
X107419178Y-74339600D01*
X107820822Y-74339600D01*
X108191892Y-74185897D01*
X108313189Y-74064600D01*
X108375282Y-74064600D01*
X108328458Y-74300000D01*
X108328458Y-74900000D01*
X108330527Y-74910400D01*
X104449600Y-74910400D01*
X104449600Y-74569749D01*
X104464230Y-74547854D01*
X104511542Y-74310000D01*
X104511542Y-72610000D01*
X104464230Y-72372146D01*
X104329497Y-72170503D01*
X104127854Y-72035770D01*
X103890000Y-71988458D01*
X103321188Y-71988458D01*
X103379497Y-71949497D01*
X103514230Y-71747854D01*
X103561542Y-71510000D01*
X103561542Y-69810000D01*
X103514230Y-69572146D01*
X103499600Y-69550251D01*
X103499600Y-69424007D01*
X103518399Y-69329499D01*
X103472175Y-69097116D01*
X103443923Y-68955083D01*
X103231833Y-68637667D01*
X103151707Y-68584129D01*
X102904372Y-68336794D01*
X102850833Y-68256667D01*
X102533417Y-68044577D01*
X102253509Y-67988900D01*
X102253508Y-67988900D01*
X102159000Y-67970101D01*
X102064492Y-67988900D01*
X100836844Y-67988900D01*
X100474713Y-67838900D01*
X100033287Y-67838900D01*
X99671156Y-67988900D01*
X94823100Y-67988900D01*
X94823100Y-67648287D01*
X94654173Y-67240462D01*
X94342038Y-66928327D01*
X93934213Y-66759400D01*
X93492787Y-66759400D01*
X93130656Y-66909400D01*
X86549344Y-66909400D01*
X86187213Y-66759400D01*
X85745787Y-66759400D01*
X85337962Y-66928327D01*
X85025827Y-67240462D01*
X84941542Y-67443944D01*
X84941542Y-66479100D01*
X98083656Y-66479100D01*
X98445787Y-66629100D01*
X98887213Y-66629100D01*
X99249344Y-66479100D01*
X127357156Y-66479100D01*
X127719287Y-66629100D01*
X128160713Y-66629100D01*
X128522844Y-66479100D01*
X134977156Y-66479100D01*
X135339287Y-66629100D01*
X135780713Y-66629100D01*
X136188538Y-66460173D01*
X136500673Y-66148038D01*
X136669600Y-65740213D01*
X136669600Y-65298787D01*
X136618988Y-65176600D01*
X141815400Y-65176600D01*
X141815401Y-93802400D01*
X129464000Y-93802400D01*
X129425119Y-93810134D01*
X129392158Y-93832158D01*
X129370134Y-93865119D01*
X129362400Y-93904000D01*
X129362400Y-105588000D01*
X129370134Y-105626881D01*
X129392158Y-105659842D01*
X129425119Y-105681866D01*
X129464000Y-105689600D01*
X141815401Y-105689600D01*
X141815401Y-118815400D01*
X58184600Y-118815400D01*
X58184600Y-107924800D01*
X74310400Y-107924800D01*
X74310400Y-108691257D01*
X74403206Y-108915311D01*
X74574689Y-109086794D01*
X74689884Y-109134509D01*
X74547835Y-109276558D01*
X74310400Y-109849776D01*
X74310400Y-110470224D01*
X74547835Y-111043442D01*
X74986558Y-111482165D01*
X75559776Y-111719600D01*
X76180224Y-111719600D01*
X76753442Y-111482165D01*
X77192165Y-111043442D01*
X77253817Y-110894600D01*
X77575654Y-110894600D01*
X77648000Y-110908991D01*
X77720346Y-110894600D01*
X77720348Y-110894600D01*
X77934626Y-110851977D01*
X78177617Y-110689617D01*
X78218602Y-110628278D01*
X78408458Y-110438422D01*
X78408458Y-110990000D01*
X78455770Y-111227854D01*
X78590503Y-111429497D01*
X78720400Y-111516291D01*
X78720401Y-114065987D01*
X78701601Y-114160500D01*
X78729216Y-114299327D01*
X78776078Y-114534917D01*
X78988168Y-114852333D01*
X79068292Y-114905870D01*
X80014130Y-115851709D01*
X80067667Y-115931833D01*
X80385083Y-116143923D01*
X80759500Y-116218399D01*
X80854009Y-116199600D01*
X91797156Y-116199600D01*
X92159287Y-116349600D01*
X92600713Y-116349600D01*
X92962844Y-116199600D01*
X106655789Y-116199600D01*
X106610400Y-116309178D01*
X106610400Y-116710822D01*
X106764103Y-117081892D01*
X107048108Y-117365897D01*
X107419178Y-117519600D01*
X107820822Y-117519600D01*
X107922528Y-117477472D01*
X107880400Y-117579178D01*
X107880400Y-117980822D01*
X108034103Y-118351892D01*
X108318108Y-118635897D01*
X108689178Y-118789600D01*
X109090822Y-118789600D01*
X109461892Y-118635897D01*
X109583189Y-118514600D01*
X134866811Y-118514600D01*
X134988108Y-118635897D01*
X135359178Y-118789600D01*
X135760822Y-118789600D01*
X136131892Y-118635897D01*
X136415897Y-118351892D01*
X136569600Y-117980822D01*
X136569600Y-117579178D01*
X136415897Y-117208108D01*
X136131892Y-116924103D01*
X135760822Y-116770400D01*
X135359178Y-116770400D01*
X134988108Y-116924103D01*
X134866811Y-117045400D01*
X133891013Y-117045400D01*
X134029600Y-116710822D01*
X134029600Y-116309178D01*
X133875897Y-115938108D01*
X133591892Y-115654103D01*
X133220822Y-115500400D01*
X132819178Y-115500400D01*
X132448108Y-115654103D01*
X132326811Y-115775400D01*
X131459252Y-115775400D01*
X131589600Y-115460713D01*
X131589600Y-115019287D01*
X131420673Y-114611462D01*
X131108538Y-114299327D01*
X130700713Y-114130400D01*
X130259287Y-114130400D01*
X129897156Y-114280400D01*
X111377844Y-114280400D01*
X111015713Y-114130400D01*
X110574287Y-114130400D01*
X110212156Y-114280400D01*
X92962844Y-114280400D01*
X92600713Y-114130400D01*
X92159287Y-114130400D01*
X91797156Y-114280400D01*
X81156979Y-114280400D01*
X80639600Y-113763022D01*
X80639600Y-113004800D01*
X87765400Y-113004800D01*
X87765400Y-113471257D01*
X87858206Y-113695311D01*
X88029689Y-113866794D01*
X88253743Y-113959600D01*
X88820200Y-113959600D01*
X88972600Y-113807200D01*
X88972600Y-112852400D01*
X87917800Y-112852400D01*
X87765400Y-113004800D01*
X80639600Y-113004800D01*
X80639600Y-111928743D01*
X87765400Y-111928743D01*
X87765400Y-112395200D01*
X87917800Y-112547600D01*
X88972600Y-112547600D01*
X88972600Y-111592800D01*
X89277400Y-111592800D01*
X89277400Y-112547600D01*
X89297400Y-112547600D01*
X89297400Y-112852400D01*
X89277400Y-112852400D01*
X89277400Y-113807200D01*
X89429800Y-113959600D01*
X89996257Y-113959600D01*
X90220311Y-113866794D01*
X90391794Y-113695311D01*
X90479856Y-113482711D01*
X90500770Y-113587854D01*
X90635503Y-113789497D01*
X90837146Y-113924230D01*
X91075000Y-113971542D01*
X92575000Y-113971542D01*
X92812854Y-113924230D01*
X93014497Y-113789497D01*
X93149230Y-113587854D01*
X93149689Y-113585547D01*
X93449178Y-113709600D01*
X93850822Y-113709600D01*
X94221892Y-113555897D01*
X94343189Y-113434600D01*
X124706811Y-113434600D01*
X124828108Y-113555897D01*
X125199178Y-113709600D01*
X125600822Y-113709600D01*
X125971892Y-113555897D01*
X126255897Y-113271892D01*
X126409600Y-112900822D01*
X126409600Y-112499178D01*
X126255897Y-112128108D01*
X125971892Y-111844103D01*
X125600822Y-111690400D01*
X125199178Y-111690400D01*
X124828108Y-111844103D01*
X124706811Y-111965400D01*
X94343189Y-111965400D01*
X94221892Y-111844103D01*
X93850822Y-111690400D01*
X93449178Y-111690400D01*
X93149689Y-111814453D01*
X93149230Y-111812146D01*
X93014497Y-111610503D01*
X92812854Y-111475770D01*
X92575000Y-111428458D01*
X91075000Y-111428458D01*
X90837146Y-111475770D01*
X90635503Y-111610503D01*
X90500770Y-111812146D01*
X90479856Y-111917289D01*
X90391794Y-111704689D01*
X90220311Y-111533206D01*
X89996257Y-111440400D01*
X89429800Y-111440400D01*
X89277400Y-111592800D01*
X88972600Y-111592800D01*
X88820200Y-111440400D01*
X88253743Y-111440400D01*
X88029689Y-111533206D01*
X87858206Y-111704689D01*
X87765400Y-111928743D01*
X80639600Y-111928743D01*
X80639600Y-111516291D01*
X80769497Y-111429497D01*
X80904230Y-111227854D01*
X80951542Y-110990000D01*
X80951542Y-110464800D01*
X84470400Y-110464800D01*
X84470400Y-111231257D01*
X84563206Y-111455311D01*
X84734689Y-111626794D01*
X84958743Y-111719600D01*
X85725200Y-111719600D01*
X85877600Y-111567200D01*
X85877600Y-110312400D01*
X84622800Y-110312400D01*
X84470400Y-110464800D01*
X80951542Y-110464800D01*
X80951542Y-109490000D01*
X80904230Y-109252146D01*
X80769497Y-109050503D01*
X80567854Y-108915770D01*
X80438299Y-108890000D01*
X80567854Y-108864230D01*
X80769497Y-108729497D01*
X80904230Y-108527854D01*
X80951542Y-108290000D01*
X80951542Y-108274600D01*
X81510311Y-108274600D01*
X81648108Y-108412397D01*
X82019178Y-108566100D01*
X82420822Y-108566100D01*
X82791892Y-108412397D01*
X83075897Y-108128392D01*
X83229600Y-107757322D01*
X83229600Y-107355678D01*
X83075897Y-106984608D01*
X82791892Y-106700603D01*
X82420822Y-106546900D01*
X82019178Y-106546900D01*
X81648108Y-106700603D01*
X81543311Y-106805400D01*
X80951542Y-106805400D01*
X80951542Y-106790000D01*
X80904230Y-106552146D01*
X80769497Y-106350503D01*
X80567854Y-106215770D01*
X80330000Y-106168458D01*
X79030000Y-106168458D01*
X78792146Y-106215770D01*
X78590503Y-106350503D01*
X78455770Y-106552146D01*
X78408458Y-106790000D01*
X78408458Y-106923136D01*
X78277883Y-107010383D01*
X78236900Y-107071720D01*
X77814722Y-107493898D01*
X77753383Y-107534883D01*
X77591023Y-107777875D01*
X77560719Y-107930224D01*
X77534009Y-108064500D01*
X77548400Y-108136847D01*
X77548401Y-109220719D01*
X77343720Y-109425400D01*
X77253817Y-109425400D01*
X77192165Y-109276558D01*
X77050116Y-109134509D01*
X77165311Y-109086794D01*
X77336794Y-108915311D01*
X77429600Y-108691257D01*
X77429600Y-107924800D01*
X77277200Y-107772400D01*
X76022400Y-107772400D01*
X76022400Y-107792400D01*
X75717600Y-107792400D01*
X75717600Y-107772400D01*
X74462800Y-107772400D01*
X74310400Y-107924800D01*
X58184600Y-107924800D01*
X58184600Y-106548743D01*
X74310400Y-106548743D01*
X74310400Y-107315200D01*
X74462800Y-107467600D01*
X75717600Y-107467600D01*
X75717600Y-106212800D01*
X76022400Y-106212800D01*
X76022400Y-107467600D01*
X77277200Y-107467600D01*
X77429600Y-107315200D01*
X77429600Y-106548743D01*
X77336794Y-106324689D01*
X77165311Y-106153206D01*
X76941257Y-106060400D01*
X76174800Y-106060400D01*
X76022400Y-106212800D01*
X75717600Y-106212800D01*
X75565200Y-106060400D01*
X74798743Y-106060400D01*
X74574689Y-106153206D01*
X74403206Y-106324689D01*
X74310400Y-106548743D01*
X58184600Y-106548743D01*
X58184600Y-105689600D01*
X70536000Y-105689600D01*
X70574881Y-105681866D01*
X70607842Y-105659842D01*
X70629866Y-105626881D01*
X70637600Y-105588000D01*
X70637600Y-95224800D01*
X78120400Y-95224800D01*
X78120400Y-95991257D01*
X78213206Y-96215311D01*
X78384689Y-96386794D01*
X78499884Y-96434509D01*
X78357835Y-96576558D01*
X78120400Y-97149776D01*
X78120400Y-97770224D01*
X78357835Y-98343442D01*
X78796558Y-98782165D01*
X79369776Y-99019600D01*
X79990224Y-99019600D01*
X80563442Y-98782165D01*
X81002165Y-98343442D01*
X81063817Y-98194600D01*
X90416811Y-98194600D01*
X90538108Y-98315897D01*
X90909178Y-98469600D01*
X91310822Y-98469600D01*
X91681892Y-98315897D01*
X91965897Y-98031892D01*
X92119600Y-97660822D01*
X92119600Y-97259178D01*
X91965897Y-96888108D01*
X91681892Y-96604103D01*
X91310822Y-96450400D01*
X90909178Y-96450400D01*
X90538108Y-96604103D01*
X90416811Y-96725400D01*
X81063817Y-96725400D01*
X81002165Y-96576558D01*
X80860116Y-96434509D01*
X80975311Y-96386794D01*
X81146794Y-96215311D01*
X81239600Y-95991257D01*
X81239600Y-95224800D01*
X81087200Y-95072400D01*
X79832400Y-95072400D01*
X79832400Y-95092400D01*
X79527600Y-95092400D01*
X79527600Y-95072400D01*
X78272800Y-95072400D01*
X78120400Y-95224800D01*
X70637600Y-95224800D01*
X70637600Y-93904000D01*
X70629866Y-93865119D01*
X70618924Y-93848743D01*
X78120400Y-93848743D01*
X78120400Y-94615200D01*
X78272800Y-94767600D01*
X79527600Y-94767600D01*
X79527600Y-93512800D01*
X79832400Y-93512800D01*
X79832400Y-94767600D01*
X81087200Y-94767600D01*
X81239600Y-94615200D01*
X81239600Y-93848743D01*
X81146794Y-93624689D01*
X80975311Y-93453206D01*
X80751257Y-93360400D01*
X79984800Y-93360400D01*
X79832400Y-93512800D01*
X79527600Y-93512800D01*
X79375200Y-93360400D01*
X78608743Y-93360400D01*
X78384689Y-93453206D01*
X78213206Y-93624689D01*
X78120400Y-93848743D01*
X70618924Y-93848743D01*
X70607842Y-93832158D01*
X70603362Y-93829165D01*
X70603362Y-91495900D01*
X61324638Y-91495900D01*
X61324638Y-93802400D01*
X58184600Y-93802400D01*
X58184600Y-89639178D01*
X69780400Y-89639178D01*
X69780400Y-90040822D01*
X69934103Y-90411892D01*
X70218108Y-90695897D01*
X70589178Y-90849600D01*
X70990822Y-90849600D01*
X71361892Y-90695897D01*
X71483189Y-90574600D01*
X94368458Y-90574600D01*
X94368458Y-90640000D01*
X94415770Y-90877854D01*
X94550503Y-91079497D01*
X94752146Y-91214230D01*
X94941205Y-91251836D01*
X94773736Y-91363736D01*
X94585534Y-91645400D01*
X74023189Y-91645400D01*
X73901892Y-91524103D01*
X73530822Y-91370400D01*
X73129178Y-91370400D01*
X72758108Y-91524103D01*
X72474103Y-91808108D01*
X72320400Y-92179178D01*
X72320400Y-92580822D01*
X72474103Y-92951892D01*
X72758108Y-93235897D01*
X73129178Y-93389600D01*
X73530822Y-93389600D01*
X73901892Y-93235897D01*
X74023189Y-93114600D01*
X94585534Y-93114600D01*
X94773736Y-93396264D01*
X95153478Y-93650000D01*
X94773736Y-93903736D01*
X94585534Y-94185400D01*
X86231542Y-94185400D01*
X86231542Y-94070000D01*
X86184230Y-93832146D01*
X86049497Y-93630503D01*
X85847854Y-93495770D01*
X85610000Y-93448458D01*
X83910000Y-93448458D01*
X83672146Y-93495770D01*
X83470503Y-93630503D01*
X83335770Y-93832146D01*
X83288458Y-94070000D01*
X83288458Y-95770000D01*
X83335770Y-96007854D01*
X83470503Y-96209497D01*
X83672146Y-96344230D01*
X83910000Y-96391542D01*
X85610000Y-96391542D01*
X85847854Y-96344230D01*
X86049497Y-96209497D01*
X86184230Y-96007854D01*
X86231542Y-95770000D01*
X86231542Y-95654600D01*
X94585534Y-95654600D01*
X94773736Y-95936264D01*
X95153478Y-96190000D01*
X94773736Y-96443736D01*
X94585534Y-96725400D01*
X94343189Y-96725400D01*
X94221892Y-96604103D01*
X93850822Y-96450400D01*
X93449178Y-96450400D01*
X93078108Y-96604103D01*
X92794103Y-96888108D01*
X92640400Y-97259178D01*
X92640400Y-97660822D01*
X92794103Y-98031892D01*
X93078108Y-98315897D01*
X93449178Y-98469600D01*
X93850822Y-98469600D01*
X94221892Y-98315897D01*
X94343189Y-98194600D01*
X94585534Y-98194600D01*
X94773736Y-98476264D01*
X95153478Y-98730000D01*
X94773736Y-98983736D01*
X94735874Y-99040400D01*
X92962844Y-99040400D01*
X92600713Y-98890400D01*
X92159287Y-98890400D01*
X91751462Y-99059327D01*
X91439327Y-99371462D01*
X91270400Y-99779287D01*
X91270400Y-100220713D01*
X91439327Y-100628538D01*
X91751462Y-100940673D01*
X92159287Y-101109600D01*
X92600713Y-101109600D01*
X92962844Y-100959600D01*
X94735874Y-100959600D01*
X94773736Y-101016264D01*
X95153478Y-101270000D01*
X94773736Y-101523736D01*
X94585534Y-101805400D01*
X76563189Y-101805400D01*
X76441892Y-101684103D01*
X76070822Y-101530400D01*
X75669178Y-101530400D01*
X75298108Y-101684103D01*
X75014103Y-101968108D01*
X74860400Y-102339178D01*
X74860400Y-102740822D01*
X75014103Y-103111892D01*
X75298108Y-103395897D01*
X75669178Y-103549600D01*
X76070822Y-103549600D01*
X76441892Y-103395897D01*
X76563189Y-103274600D01*
X94585534Y-103274600D01*
X94773736Y-103556264D01*
X95153478Y-103810000D01*
X94773736Y-104063736D01*
X94585534Y-104345400D01*
X91803189Y-104345400D01*
X91681892Y-104224103D01*
X91310822Y-104070400D01*
X90909178Y-104070400D01*
X90538108Y-104224103D01*
X90475000Y-104287211D01*
X90411892Y-104224103D01*
X90040822Y-104070400D01*
X89639178Y-104070400D01*
X89268108Y-104224103D01*
X89146811Y-104345400D01*
X82913189Y-104345400D01*
X82791892Y-104224103D01*
X82420822Y-104070400D01*
X82019178Y-104070400D01*
X81648108Y-104224103D01*
X81364103Y-104508108D01*
X81210400Y-104879178D01*
X81210400Y-105280822D01*
X81364103Y-105651892D01*
X81648108Y-105935897D01*
X82019178Y-106089600D01*
X82420822Y-106089600D01*
X82791892Y-105935897D01*
X82913189Y-105814600D01*
X89146811Y-105814600D01*
X89268108Y-105935897D01*
X89639178Y-106089600D01*
X90040822Y-106089600D01*
X90411892Y-105935897D01*
X90475000Y-105872789D01*
X90538108Y-105935897D01*
X90909178Y-106089600D01*
X91310822Y-106089600D01*
X91681892Y-105935897D01*
X91803189Y-105814600D01*
X94585534Y-105814600D01*
X94773736Y-106096264D01*
X95153478Y-106350000D01*
X94773736Y-106603736D01*
X94585534Y-106885400D01*
X90533189Y-106885400D01*
X90411892Y-106764103D01*
X90040822Y-106610400D01*
X89639178Y-106610400D01*
X89268108Y-106764103D01*
X89205000Y-106827211D01*
X89141892Y-106764103D01*
X88770822Y-106610400D01*
X88369178Y-106610400D01*
X87998108Y-106764103D01*
X87876811Y-106885400D01*
X87413817Y-106885400D01*
X87352165Y-106736558D01*
X86913442Y-106297835D01*
X86340224Y-106060400D01*
X85719776Y-106060400D01*
X85146558Y-106297835D01*
X84707835Y-106736558D01*
X84470400Y-107309776D01*
X84470400Y-107930224D01*
X84707835Y-108503442D01*
X84849884Y-108645491D01*
X84734689Y-108693206D01*
X84563206Y-108864689D01*
X84470400Y-109088743D01*
X84470400Y-109855200D01*
X84622800Y-110007600D01*
X85877600Y-110007600D01*
X85877600Y-109987600D01*
X86182400Y-109987600D01*
X86182400Y-110007600D01*
X86202400Y-110007600D01*
X86202400Y-110312400D01*
X86182400Y-110312400D01*
X86182400Y-111567200D01*
X86334800Y-111719600D01*
X87101257Y-111719600D01*
X87325311Y-111626794D01*
X87496794Y-111455311D01*
X87589600Y-111231257D01*
X87589600Y-110464800D01*
X87437202Y-110312402D01*
X87560400Y-110312402D01*
X87560400Y-110360822D01*
X87714103Y-110731892D01*
X87998108Y-111015897D01*
X88369178Y-111169600D01*
X88770822Y-111169600D01*
X89141892Y-111015897D01*
X89263189Y-110894600D01*
X94585534Y-110894600D01*
X94773736Y-111176264D01*
X95240002Y-111487814D01*
X95651170Y-111569600D01*
X96728830Y-111569600D01*
X97139998Y-111487814D01*
X97606264Y-111176264D01*
X97917814Y-110709998D01*
X98027215Y-110160000D01*
X97917814Y-109610002D01*
X97606264Y-109143736D01*
X97226522Y-108890000D01*
X97606264Y-108636264D01*
X97917814Y-108169998D01*
X98027215Y-107620000D01*
X97917814Y-107070002D01*
X97606264Y-106603736D01*
X97226522Y-106350000D01*
X97606264Y-106096264D01*
X97917814Y-105629998D01*
X98027215Y-105080000D01*
X97917814Y-104530002D01*
X97606264Y-104063736D01*
X97226522Y-103810000D01*
X97606264Y-103556264D01*
X97917814Y-103089998D01*
X98027215Y-102540000D01*
X101972785Y-102540000D01*
X102082186Y-103089998D01*
X102393736Y-103556264D01*
X102773478Y-103810000D01*
X102393736Y-104063736D01*
X102082186Y-104530002D01*
X101972785Y-105080000D01*
X102082186Y-105629998D01*
X102393736Y-106096264D01*
X102773478Y-106350000D01*
X102393736Y-106603736D01*
X102082186Y-107070002D01*
X101972785Y-107620000D01*
X102082186Y-108169998D01*
X102393736Y-108636264D01*
X102773478Y-108890000D01*
X102393736Y-109143736D01*
X102082186Y-109610002D01*
X101972785Y-110160000D01*
X102082186Y-110709998D01*
X102393736Y-111176264D01*
X102860002Y-111487814D01*
X103271170Y-111569600D01*
X104348830Y-111569600D01*
X104759998Y-111487814D01*
X105226264Y-111176264D01*
X105414466Y-110894600D01*
X118936183Y-110894600D01*
X118997835Y-111043442D01*
X119436558Y-111482165D01*
X120009776Y-111719600D01*
X120630224Y-111719600D01*
X121203442Y-111482165D01*
X121642165Y-111043442D01*
X121879600Y-110470224D01*
X121879600Y-109849776D01*
X121642165Y-109276558D01*
X121500116Y-109134509D01*
X121615311Y-109086794D01*
X121786794Y-108915311D01*
X121879600Y-108691257D01*
X121879600Y-107940000D01*
X123828458Y-107940000D01*
X123828458Y-109840000D01*
X123875770Y-110077854D01*
X124010503Y-110279497D01*
X124212146Y-110414230D01*
X124450000Y-110461542D01*
X126350000Y-110461542D01*
X126587854Y-110414230D01*
X126789497Y-110279497D01*
X126907255Y-110103258D01*
X126924763Y-110120766D01*
X127036846Y-110008683D01*
X127132927Y-110260118D01*
X127718683Y-110464677D01*
X128338132Y-110429506D01*
X128747073Y-110260118D01*
X128843155Y-110008681D01*
X127940000Y-109105526D01*
X127925858Y-109119669D01*
X127710332Y-108904143D01*
X127724474Y-108890000D01*
X128155526Y-108890000D01*
X129058681Y-109793155D01*
X129151335Y-109757749D01*
X129157835Y-109773442D01*
X129596558Y-110212165D01*
X130169776Y-110449600D01*
X130790224Y-110449600D01*
X131363442Y-110212165D01*
X131750000Y-109825607D01*
X132136558Y-110212165D01*
X132709776Y-110449600D01*
X133330224Y-110449600D01*
X133903442Y-110212165D01*
X134290000Y-109825607D01*
X134676558Y-110212165D01*
X135249776Y-110449600D01*
X135870224Y-110449600D01*
X136443442Y-110212165D01*
X136830000Y-109825607D01*
X137216558Y-110212165D01*
X137789776Y-110449600D01*
X138410224Y-110449600D01*
X138983442Y-110212165D01*
X139422165Y-109773442D01*
X139659600Y-109200224D01*
X139659600Y-108579776D01*
X139422165Y-108006558D01*
X138983442Y-107567835D01*
X138410224Y-107330400D01*
X137789776Y-107330400D01*
X137216558Y-107567835D01*
X136830000Y-107954393D01*
X136443442Y-107567835D01*
X135870224Y-107330400D01*
X135249776Y-107330400D01*
X134676558Y-107567835D01*
X134290000Y-107954393D01*
X133903442Y-107567835D01*
X133330224Y-107330400D01*
X132709776Y-107330400D01*
X132136558Y-107567835D01*
X131750000Y-107954393D01*
X131363442Y-107567835D01*
X130790224Y-107330400D01*
X130169776Y-107330400D01*
X129596558Y-107567835D01*
X129157835Y-108006558D01*
X129151335Y-108022251D01*
X129058681Y-107986845D01*
X128155526Y-108890000D01*
X127724474Y-108890000D01*
X127710332Y-108875858D01*
X127925858Y-108660332D01*
X127940000Y-108674474D01*
X128843155Y-107771319D01*
X128747073Y-107519882D01*
X128161317Y-107315323D01*
X127541868Y-107350494D01*
X127132927Y-107519882D01*
X127036846Y-107771317D01*
X126924763Y-107659234D01*
X126907255Y-107676742D01*
X126789497Y-107500503D01*
X126587854Y-107365770D01*
X126350000Y-107318458D01*
X124450000Y-107318458D01*
X124212146Y-107365770D01*
X124010503Y-107500503D01*
X123875770Y-107702146D01*
X123828458Y-107940000D01*
X121879600Y-107940000D01*
X121879600Y-107924800D01*
X121727200Y-107772400D01*
X120472400Y-107772400D01*
X120472400Y-107792400D01*
X120167600Y-107792400D01*
X120167600Y-107772400D01*
X118912800Y-107772400D01*
X118760400Y-107924800D01*
X118760400Y-108691257D01*
X118853206Y-108915311D01*
X119024689Y-109086794D01*
X119139884Y-109134509D01*
X118997835Y-109276558D01*
X118936183Y-109425400D01*
X105414466Y-109425400D01*
X105226264Y-109143736D01*
X104846522Y-108890000D01*
X105226264Y-108636264D01*
X105414466Y-108354600D01*
X113768458Y-108354600D01*
X113768458Y-108470000D01*
X113815770Y-108707854D01*
X113950503Y-108909497D01*
X114152146Y-109044230D01*
X114390000Y-109091542D01*
X116090000Y-109091542D01*
X116327854Y-109044230D01*
X116529497Y-108909497D01*
X116664230Y-108707854D01*
X116711542Y-108470000D01*
X116711542Y-106770000D01*
X116667532Y-106548743D01*
X118760400Y-106548743D01*
X118760400Y-107315200D01*
X118912800Y-107467600D01*
X120167600Y-107467600D01*
X120167600Y-106212800D01*
X120472400Y-106212800D01*
X120472400Y-107467600D01*
X121727200Y-107467600D01*
X121879600Y-107315200D01*
X121879600Y-106548743D01*
X121786794Y-106324689D01*
X121615311Y-106153206D01*
X121391257Y-106060400D01*
X120624800Y-106060400D01*
X120472400Y-106212800D01*
X120167600Y-106212800D01*
X120015200Y-106060400D01*
X119248743Y-106060400D01*
X119024689Y-106153206D01*
X118853206Y-106324689D01*
X118760400Y-106548743D01*
X116667532Y-106548743D01*
X116664230Y-106532146D01*
X116529497Y-106330503D01*
X116327854Y-106195770D01*
X116090000Y-106148458D01*
X114390000Y-106148458D01*
X114152146Y-106195770D01*
X113950503Y-106330503D01*
X113815770Y-106532146D01*
X113768458Y-106770000D01*
X113768458Y-106885400D01*
X105414466Y-106885400D01*
X105226264Y-106603736D01*
X104846522Y-106350000D01*
X105226264Y-106096264D01*
X105414466Y-105814600D01*
X108196811Y-105814600D01*
X108318108Y-105935897D01*
X108689178Y-106089600D01*
X109090822Y-106089600D01*
X109461892Y-105935897D01*
X109685400Y-105712389D01*
X109685400Y-105935713D01*
X109854327Y-106343538D01*
X110166462Y-106655673D01*
X110574287Y-106824600D01*
X111015713Y-106824600D01*
X111423538Y-106655673D01*
X111735673Y-106343538D01*
X111904600Y-105935713D01*
X111904600Y-105494287D01*
X111884163Y-105444947D01*
X112034497Y-105344497D01*
X112169230Y-105142854D01*
X112216542Y-104905000D01*
X112216542Y-102905000D01*
X112169230Y-102667146D01*
X112034497Y-102465503D01*
X111832854Y-102330770D01*
X111595000Y-102283458D01*
X109995000Y-102283458D01*
X109757146Y-102330770D01*
X109555503Y-102465503D01*
X109420770Y-102667146D01*
X109373458Y-102905000D01*
X109373458Y-104187472D01*
X109090822Y-104070400D01*
X108689178Y-104070400D01*
X108318108Y-104224103D01*
X108196811Y-104345400D01*
X105414466Y-104345400D01*
X105226264Y-104063736D01*
X104846522Y-103810000D01*
X105226264Y-103556264D01*
X105414466Y-103274600D01*
X106926811Y-103274600D01*
X107048108Y-103395897D01*
X107419178Y-103549600D01*
X107820822Y-103549600D01*
X108191892Y-103395897D01*
X108475897Y-103111892D01*
X108629600Y-102740822D01*
X108629600Y-102339178D01*
X108475897Y-101968108D01*
X108191892Y-101684103D01*
X107820822Y-101530400D01*
X107419178Y-101530400D01*
X107048108Y-101684103D01*
X106926811Y-101805400D01*
X105414466Y-101805400D01*
X105226264Y-101523736D01*
X104833991Y-101261627D01*
X104890230Y-101243980D01*
X105314501Y-100888975D01*
X105570244Y-100369741D01*
X105487592Y-100209800D01*
X109385400Y-100209800D01*
X109385400Y-101026257D01*
X109478206Y-101250311D01*
X109649689Y-101421794D01*
X109873743Y-101514600D01*
X110490200Y-101514600D01*
X110642600Y-101362200D01*
X110642600Y-100057400D01*
X110947400Y-100057400D01*
X110947400Y-101362200D01*
X111099800Y-101514600D01*
X111716257Y-101514600D01*
X111940311Y-101421794D01*
X112111794Y-101250311D01*
X112204600Y-101026257D01*
X112204600Y-100209800D01*
X112052200Y-100057400D01*
X110947400Y-100057400D01*
X110642600Y-100057400D01*
X109537800Y-100057400D01*
X109385400Y-100209800D01*
X105487592Y-100209800D01*
X105457929Y-100152400D01*
X103962400Y-100152400D01*
X103962400Y-100172400D01*
X103657600Y-100172400D01*
X103657600Y-100152400D01*
X102162071Y-100152400D01*
X102049756Y-100369741D01*
X102305499Y-100888975D01*
X102729770Y-101243980D01*
X102786009Y-101261627D01*
X102393736Y-101523736D01*
X102082186Y-101990002D01*
X101972785Y-102540000D01*
X98027215Y-102540000D01*
X97917814Y-101990002D01*
X97606264Y-101523736D01*
X97226522Y-101270000D01*
X97606264Y-101016264D01*
X97917814Y-100549998D01*
X98027215Y-100000000D01*
X97917814Y-99450002D01*
X97606264Y-98983736D01*
X97226522Y-98730000D01*
X97606264Y-98476264D01*
X97917814Y-98009998D01*
X98027215Y-97460000D01*
X97917814Y-96910002D01*
X97606264Y-96443736D01*
X97226522Y-96190000D01*
X97606264Y-95936264D01*
X97917814Y-95469998D01*
X98027215Y-94920000D01*
X97917814Y-94370002D01*
X97606264Y-93903736D01*
X97226522Y-93650000D01*
X97606264Y-93396264D01*
X97917814Y-92929998D01*
X98027215Y-92380000D01*
X97917814Y-91830002D01*
X97606264Y-91363736D01*
X97438795Y-91251836D01*
X97627854Y-91214230D01*
X97829497Y-91079497D01*
X97964230Y-90877854D01*
X98011542Y-90640000D01*
X98011542Y-89840000D01*
X101972785Y-89840000D01*
X102082186Y-90389998D01*
X102393736Y-90856264D01*
X102773478Y-91110000D01*
X102393736Y-91363736D01*
X102082186Y-91830002D01*
X101972785Y-92380000D01*
X102082186Y-92929998D01*
X102393736Y-93396264D01*
X102773478Y-93650000D01*
X102393736Y-93903736D01*
X102082186Y-94370002D01*
X101972785Y-94920000D01*
X102082186Y-95469998D01*
X102393736Y-95936264D01*
X102773478Y-96190000D01*
X102393736Y-96443736D01*
X102082186Y-96910002D01*
X101972785Y-97460000D01*
X102082186Y-98009998D01*
X102393736Y-98476264D01*
X102786009Y-98738373D01*
X102729770Y-98756020D01*
X102305499Y-99111025D01*
X102049756Y-99630259D01*
X102162071Y-99847600D01*
X103657600Y-99847600D01*
X103657600Y-99827600D01*
X103962400Y-99827600D01*
X103962400Y-99847600D01*
X105457929Y-99847600D01*
X105570244Y-99630259D01*
X105314501Y-99111025D01*
X104890230Y-98756020D01*
X104833991Y-98738373D01*
X105226264Y-98476264D01*
X105414466Y-98194600D01*
X109466811Y-98194600D01*
X109588108Y-98315897D01*
X109706183Y-98364805D01*
X109649689Y-98388206D01*
X109478206Y-98559689D01*
X109385400Y-98783743D01*
X109385400Y-99600200D01*
X109537800Y-99752600D01*
X110642600Y-99752600D01*
X110642600Y-98447800D01*
X110947400Y-98447800D01*
X110947400Y-99752600D01*
X112052200Y-99752600D01*
X112204600Y-99600200D01*
X112204600Y-98783743D01*
X112111794Y-98559689D01*
X111940311Y-98388206D01*
X111716257Y-98295400D01*
X111099800Y-98295400D01*
X110947400Y-98447800D01*
X110642600Y-98447800D01*
X110575484Y-98380684D01*
X110731892Y-98315897D01*
X111015897Y-98031892D01*
X111169600Y-97660822D01*
X111169600Y-97259178D01*
X111015897Y-96888108D01*
X110731892Y-96604103D01*
X110360822Y-96450400D01*
X109959178Y-96450400D01*
X109588108Y-96604103D01*
X109466811Y-96725400D01*
X105414466Y-96725400D01*
X105226264Y-96443736D01*
X104846522Y-96190000D01*
X105226264Y-95936264D01*
X105414466Y-95654600D01*
X108196811Y-95654600D01*
X108318108Y-95775897D01*
X108689178Y-95929600D01*
X109090822Y-95929600D01*
X109461892Y-95775897D01*
X109745897Y-95491892D01*
X109899600Y-95120822D01*
X109899600Y-94719178D01*
X109745897Y-94348108D01*
X109461892Y-94064103D01*
X109090822Y-93910400D01*
X108689178Y-93910400D01*
X108318108Y-94064103D01*
X108196811Y-94185400D01*
X105414466Y-94185400D01*
X105226264Y-93903736D01*
X104846522Y-93650000D01*
X105226264Y-93396264D01*
X105414466Y-93114600D01*
X105656811Y-93114600D01*
X105778108Y-93235897D01*
X106149178Y-93389600D01*
X106550822Y-93389600D01*
X106921892Y-93235897D01*
X107205897Y-92951892D01*
X107359600Y-92580822D01*
X107359600Y-92179178D01*
X107205897Y-91808108D01*
X106921892Y-91524103D01*
X106550822Y-91370400D01*
X106149178Y-91370400D01*
X105778108Y-91524103D01*
X105656811Y-91645400D01*
X105414466Y-91645400D01*
X105226264Y-91363736D01*
X104846522Y-91110000D01*
X105226264Y-90856264D01*
X105414466Y-90574600D01*
X106926811Y-90574600D01*
X107048108Y-90695897D01*
X107419178Y-90849600D01*
X107820822Y-90849600D01*
X108191892Y-90695897D01*
X108475897Y-90411892D01*
X108629600Y-90040822D01*
X108629600Y-89639178D01*
X108475897Y-89268108D01*
X108191892Y-88984103D01*
X107820822Y-88830400D01*
X107419178Y-88830400D01*
X107048108Y-88984103D01*
X106926811Y-89105400D01*
X105414466Y-89105400D01*
X105226264Y-88823736D01*
X104759998Y-88512186D01*
X104348830Y-88430400D01*
X103271170Y-88430400D01*
X102860002Y-88512186D01*
X102393736Y-88823736D01*
X102082186Y-89290002D01*
X101972785Y-89840000D01*
X98011542Y-89840000D01*
X98011542Y-89040000D01*
X97964230Y-88802146D01*
X97829497Y-88600503D01*
X97627854Y-88465770D01*
X97390000Y-88418458D01*
X94990000Y-88418458D01*
X94752146Y-88465770D01*
X94550503Y-88600503D01*
X94415770Y-88802146D01*
X94368458Y-89040000D01*
X94368458Y-89105400D01*
X71483189Y-89105400D01*
X71361892Y-88984103D01*
X70990822Y-88830400D01*
X70589178Y-88830400D01*
X70218108Y-88984103D01*
X69934103Y-89268108D01*
X69780400Y-89639178D01*
X58184600Y-89639178D01*
X58184600Y-87099178D01*
X64700400Y-87099178D01*
X64700400Y-87500822D01*
X64854103Y-87871892D01*
X65138108Y-88155897D01*
X65509178Y-88309600D01*
X65910822Y-88309600D01*
X66281892Y-88155897D01*
X66403189Y-88034600D01*
X105656811Y-88034600D01*
X105778108Y-88155897D01*
X106149178Y-88309600D01*
X106550822Y-88309600D01*
X106921892Y-88155897D01*
X107205897Y-87871892D01*
X107359600Y-87500822D01*
X107359600Y-87099178D01*
X107317472Y-86997472D01*
X107419178Y-87039600D01*
X107820822Y-87039600D01*
X108191892Y-86885897D01*
X108475897Y-86601892D01*
X108629600Y-86230822D01*
X108629600Y-85829178D01*
X108475897Y-85458108D01*
X108191892Y-85174103D01*
X107964709Y-85080000D01*
X112398458Y-85080000D01*
X112398458Y-86980000D01*
X112445770Y-87217854D01*
X112580503Y-87419497D01*
X112780957Y-87553436D01*
X112647835Y-87686558D01*
X112410400Y-88259776D01*
X112410400Y-88880224D01*
X112647835Y-89453442D01*
X113086558Y-89892165D01*
X113548574Y-90083538D01*
X113341462Y-90169327D01*
X113029327Y-90481462D01*
X112860400Y-90889287D01*
X112860400Y-91330713D01*
X113029327Y-91738538D01*
X113341462Y-92050673D01*
X113749287Y-92219600D01*
X114190713Y-92219600D01*
X114552844Y-92069600D01*
X115145492Y-92069600D01*
X115240000Y-92088399D01*
X115334508Y-92069600D01*
X115334509Y-92069600D01*
X115614417Y-92013923D01*
X115931833Y-91801833D01*
X115985372Y-91721706D01*
X116147478Y-91559600D01*
X116580589Y-91559600D01*
X116752146Y-91674230D01*
X116990000Y-91721542D01*
X119590000Y-91721542D01*
X119827854Y-91674230D01*
X120029497Y-91539497D01*
X120164230Y-91337854D01*
X120211542Y-91100000D01*
X120211542Y-90100000D01*
X120164230Y-89862146D01*
X120029497Y-89660503D01*
X119827854Y-89525770D01*
X119698299Y-89500000D01*
X119827854Y-89474230D01*
X119893689Y-89430241D01*
X120035787Y-89489100D01*
X120477213Y-89489100D01*
X120885038Y-89320173D01*
X121197173Y-89008038D01*
X121366100Y-88600213D01*
X121366100Y-88158787D01*
X121813900Y-88158787D01*
X121813900Y-88600213D01*
X121982827Y-89008038D01*
X122294962Y-89320173D01*
X122702787Y-89489100D01*
X123144213Y-89489100D01*
X123286311Y-89430241D01*
X123352146Y-89474230D01*
X123481701Y-89500000D01*
X123352146Y-89525770D01*
X123150503Y-89660503D01*
X123015770Y-89862146D01*
X122968458Y-90100000D01*
X122968458Y-91100000D01*
X123015770Y-91337854D01*
X123150503Y-91539497D01*
X123352146Y-91674230D01*
X123590000Y-91721542D01*
X126190000Y-91721542D01*
X126427854Y-91674230D01*
X126599411Y-91559600D01*
X127288827Y-91559600D01*
X127655787Y-91711600D01*
X128097213Y-91711600D01*
X128505038Y-91542673D01*
X128817173Y-91230538D01*
X128986100Y-90822713D01*
X128986100Y-90381287D01*
X128817173Y-89973462D01*
X128505038Y-89661327D01*
X128097213Y-89492400D01*
X127655787Y-89492400D01*
X127298484Y-89640400D01*
X126599411Y-89640400D01*
X126427854Y-89525770D01*
X126298299Y-89500000D01*
X126427854Y-89474230D01*
X126629497Y-89339497D01*
X126764230Y-89137854D01*
X126811542Y-88900000D01*
X126811542Y-87900000D01*
X126764230Y-87662146D01*
X126629497Y-87460503D01*
X126427854Y-87325770D01*
X126298299Y-87300000D01*
X126427854Y-87274230D01*
X126629497Y-87139497D01*
X126764230Y-86937854D01*
X126811542Y-86700000D01*
X126811542Y-85700000D01*
X126764230Y-85462146D01*
X126629497Y-85260503D01*
X126427854Y-85125770D01*
X126190000Y-85078458D01*
X123590000Y-85078458D01*
X123352146Y-85125770D01*
X123150503Y-85260503D01*
X123015770Y-85462146D01*
X122968458Y-85700000D01*
X122968458Y-86700000D01*
X123015770Y-86937854D01*
X123150503Y-87139497D01*
X123352146Y-87274230D01*
X123481701Y-87300000D01*
X123352146Y-87325770D01*
X123324190Y-87344449D01*
X123144213Y-87269900D01*
X122702787Y-87269900D01*
X122294962Y-87438827D01*
X121982827Y-87750962D01*
X121813900Y-88158787D01*
X121366100Y-88158787D01*
X121197173Y-87750962D01*
X120885038Y-87438827D01*
X120477213Y-87269900D01*
X120035787Y-87269900D01*
X119855810Y-87344449D01*
X119827854Y-87325770D01*
X119698299Y-87300000D01*
X119827854Y-87274230D01*
X120029497Y-87139497D01*
X120164230Y-86937854D01*
X120211542Y-86700000D01*
X120211542Y-85700000D01*
X120164230Y-85462146D01*
X120029497Y-85260503D01*
X119827854Y-85125770D01*
X119590000Y-85078458D01*
X116990000Y-85078458D01*
X116752146Y-85125770D01*
X116550503Y-85260503D01*
X116415770Y-85462146D01*
X116368458Y-85700000D01*
X116368458Y-86700000D01*
X116415770Y-86937854D01*
X116550503Y-87139497D01*
X116752146Y-87274230D01*
X116881701Y-87300000D01*
X116752146Y-87325770D01*
X116580589Y-87440400D01*
X115328213Y-87440400D01*
X115359497Y-87419497D01*
X115494230Y-87217854D01*
X115541542Y-86980000D01*
X115541542Y-85080000D01*
X115494230Y-84842146D01*
X115359497Y-84640503D01*
X115208016Y-84539287D01*
X126830400Y-84539287D01*
X126830400Y-84980713D01*
X126980401Y-85342846D01*
X126980400Y-85935491D01*
X126961601Y-86030000D01*
X126980400Y-86124508D01*
X127036077Y-86404416D01*
X127248167Y-86721833D01*
X127328294Y-86775372D01*
X128464630Y-87911709D01*
X128518167Y-87991833D01*
X128835583Y-88203923D01*
X128908458Y-88218419D01*
X128908458Y-88250000D01*
X128955770Y-88487854D01*
X129090503Y-88689497D01*
X129292146Y-88824230D01*
X129530000Y-88871542D01*
X131430000Y-88871542D01*
X131667854Y-88824230D01*
X131869497Y-88689497D01*
X132004230Y-88487854D01*
X132049632Y-88259600D01*
X133990368Y-88259600D01*
X134035770Y-88487854D01*
X134170503Y-88689497D01*
X134372146Y-88824230D01*
X134610000Y-88871542D01*
X136510000Y-88871542D01*
X136747854Y-88824230D01*
X136949497Y-88689497D01*
X137084230Y-88487854D01*
X137131542Y-88250000D01*
X137131542Y-86350000D01*
X137084230Y-86112146D01*
X136949497Y-85910503D01*
X136749043Y-85776564D01*
X136882165Y-85643442D01*
X137119600Y-85070224D01*
X137119600Y-84449776D01*
X136882165Y-83876558D01*
X136443442Y-83437835D01*
X135870224Y-83200400D01*
X135249776Y-83200400D01*
X134676558Y-83437835D01*
X134237835Y-83876558D01*
X134000400Y-84449776D01*
X134000400Y-85070224D01*
X134237835Y-85643442D01*
X134370957Y-85776564D01*
X134170503Y-85910503D01*
X134035770Y-86112146D01*
X133990368Y-86340400D01*
X132049632Y-86340400D01*
X132004230Y-86112146D01*
X131869497Y-85910503D01*
X131669043Y-85776564D01*
X131802165Y-85643442D01*
X132039600Y-85070224D01*
X132039600Y-84449776D01*
X131802165Y-83876558D01*
X131363442Y-83437835D01*
X130790224Y-83200400D01*
X130169776Y-83200400D01*
X129596558Y-83437835D01*
X129157835Y-83876558D01*
X128966462Y-84338574D01*
X128880673Y-84131462D01*
X128568538Y-83819327D01*
X128160713Y-83650400D01*
X127719287Y-83650400D01*
X127311462Y-83819327D01*
X126999327Y-84131462D01*
X126830400Y-84539287D01*
X115208016Y-84539287D01*
X115157854Y-84505770D01*
X114920000Y-84458458D01*
X113020000Y-84458458D01*
X112782146Y-84505770D01*
X112580503Y-84640503D01*
X112445770Y-84842146D01*
X112398458Y-85080000D01*
X107964709Y-85080000D01*
X107820822Y-85020400D01*
X107419178Y-85020400D01*
X107048108Y-85174103D01*
X106926811Y-85295400D01*
X68943189Y-85295400D01*
X68821892Y-85174103D01*
X68450822Y-85020400D01*
X68049178Y-85020400D01*
X67678108Y-85174103D01*
X67394103Y-85458108D01*
X67240400Y-85829178D01*
X67240400Y-86230822D01*
X67378987Y-86565400D01*
X66403189Y-86565400D01*
X66281892Y-86444103D01*
X65910822Y-86290400D01*
X65509178Y-86290400D01*
X65138108Y-86444103D01*
X64854103Y-86728108D01*
X64700400Y-87099178D01*
X58184600Y-87099178D01*
X58184600Y-82761287D01*
X84856900Y-82761287D01*
X84856900Y-83202713D01*
X85025827Y-83610538D01*
X85337962Y-83922673D01*
X85745787Y-84091600D01*
X86187213Y-84091600D01*
X86505889Y-83959600D01*
X116580589Y-83959600D01*
X116752146Y-84074230D01*
X116990000Y-84121542D01*
X119590000Y-84121542D01*
X119827854Y-84074230D01*
X120029497Y-83939497D01*
X120164230Y-83737854D01*
X120211542Y-83500000D01*
X120211542Y-82500000D01*
X120207783Y-82481100D01*
X121065522Y-82481100D01*
X122196130Y-83611709D01*
X122249667Y-83691833D01*
X122440476Y-83819327D01*
X122567082Y-83903923D01*
X122941500Y-83978399D01*
X123036009Y-83959600D01*
X123180589Y-83959600D01*
X123352146Y-84074230D01*
X123590000Y-84121542D01*
X126190000Y-84121542D01*
X126427854Y-84074230D01*
X126629497Y-83939497D01*
X126764230Y-83737854D01*
X126811542Y-83500000D01*
X126811542Y-82500000D01*
X126764230Y-82262146D01*
X126629497Y-82060503D01*
X126427854Y-81925770D01*
X126190000Y-81878458D01*
X123590000Y-81878458D01*
X123352146Y-81925770D01*
X123275537Y-81976958D01*
X122208372Y-80909794D01*
X122154833Y-80829667D01*
X121837417Y-80617577D01*
X121557509Y-80561900D01*
X121557508Y-80561900D01*
X121463000Y-80543101D01*
X121368492Y-80561900D01*
X100836844Y-80561900D01*
X100474713Y-80411900D01*
X100033287Y-80411900D01*
X99625462Y-80580827D01*
X99313327Y-80892962D01*
X99144400Y-81300787D01*
X99144400Y-81742213D01*
X99267913Y-82040400D01*
X86592800Y-82040400D01*
X86187213Y-81872400D01*
X85745787Y-81872400D01*
X85337962Y-82041327D01*
X85025827Y-82353462D01*
X84856900Y-82761287D01*
X58184600Y-82761287D01*
X58184600Y-69209776D01*
X59070400Y-69209776D01*
X59070400Y-69830224D01*
X59307835Y-70403442D01*
X59746558Y-70842165D01*
X60319776Y-71079600D01*
X60940224Y-71079600D01*
X61513442Y-70842165D01*
X61900000Y-70455607D01*
X62286558Y-70842165D01*
X62859776Y-71079600D01*
X63480224Y-71079600D01*
X64053442Y-70842165D01*
X64440000Y-70455607D01*
X64826558Y-70842165D01*
X64975400Y-70903818D01*
X64975401Y-73165286D01*
X64822146Y-73195770D01*
X64620503Y-73330503D01*
X64485770Y-73532146D01*
X64438458Y-73770000D01*
X64438458Y-75270000D01*
X64485770Y-75507854D01*
X64620503Y-75709497D01*
X64822146Y-75844230D01*
X64951701Y-75870000D01*
X64822146Y-75895770D01*
X64620503Y-76030503D01*
X64485770Y-76232146D01*
X64438458Y-76470000D01*
X64438458Y-77970000D01*
X64485770Y-78207854D01*
X64620503Y-78409497D01*
X64700400Y-78462882D01*
X64700400Y-78610822D01*
X64854103Y-78981892D01*
X65138108Y-79265897D01*
X65509178Y-79419600D01*
X65910822Y-79419600D01*
X66281892Y-79265897D01*
X66565897Y-78981892D01*
X66719600Y-78610822D01*
X66719600Y-78462882D01*
X66799497Y-78409497D01*
X66934230Y-78207854D01*
X66980000Y-77977752D01*
X67025770Y-78207854D01*
X67160503Y-78409497D01*
X67240400Y-78462882D01*
X67240400Y-78610822D01*
X67394103Y-78981892D01*
X67678108Y-79265897D01*
X68049178Y-79419600D01*
X68450822Y-79419600D01*
X68821892Y-79265897D01*
X69105897Y-78981892D01*
X69259600Y-78610822D01*
X69259600Y-78462882D01*
X69339497Y-78409497D01*
X69474230Y-78207854D01*
X69520000Y-77977752D01*
X69565770Y-78207854D01*
X69700503Y-78409497D01*
X69780400Y-78462882D01*
X69780400Y-78610822D01*
X69934103Y-78981892D01*
X70218108Y-79265897D01*
X70589178Y-79419600D01*
X70990822Y-79419600D01*
X71361892Y-79265897D01*
X71645897Y-78981892D01*
X71799600Y-78610822D01*
X71799600Y-78462882D01*
X71879497Y-78409497D01*
X72014230Y-78207854D01*
X72060000Y-77977752D01*
X72105770Y-78207854D01*
X72240503Y-78409497D01*
X72320400Y-78462882D01*
X72320400Y-78610822D01*
X72474103Y-78981892D01*
X72758108Y-79265897D01*
X73129178Y-79419600D01*
X73530822Y-79419600D01*
X73901892Y-79265897D01*
X74185897Y-78981892D01*
X74339600Y-78610822D01*
X74339600Y-78462882D01*
X74419497Y-78409497D01*
X74554230Y-78207854D01*
X74600000Y-77977752D01*
X74645770Y-78207854D01*
X74780503Y-78409497D01*
X74860400Y-78462882D01*
X74860400Y-78610822D01*
X75014103Y-78981892D01*
X75298108Y-79265897D01*
X75669178Y-79419600D01*
X76070822Y-79419600D01*
X76441892Y-79265897D01*
X76725897Y-78981892D01*
X76879600Y-78610822D01*
X76879600Y-78462882D01*
X76959497Y-78409497D01*
X77094230Y-78207854D01*
X77141542Y-77970000D01*
X77141542Y-76470000D01*
X77094230Y-76232146D01*
X76959497Y-76030503D01*
X76757854Y-75895770D01*
X76628299Y-75870000D01*
X76757854Y-75844230D01*
X76959497Y-75709497D01*
X77094230Y-75507854D01*
X77141542Y-75270000D01*
X77141542Y-73770000D01*
X77094230Y-73532146D01*
X76959497Y-73330503D01*
X76757854Y-73195770D01*
X76604600Y-73165286D01*
X76604600Y-70903817D01*
X76753442Y-70842165D01*
X77192165Y-70403442D01*
X77429600Y-69830224D01*
X77429600Y-69209776D01*
X77192165Y-68636558D01*
X76753442Y-68197835D01*
X76180224Y-67960400D01*
X75559776Y-67960400D01*
X74986558Y-68197835D01*
X74600000Y-68584393D01*
X74213442Y-68197835D01*
X73640224Y-67960400D01*
X73019776Y-67960400D01*
X72446558Y-68197835D01*
X72060000Y-68584393D01*
X71673442Y-68197835D01*
X71100224Y-67960400D01*
X70479776Y-67960400D01*
X69906558Y-68197835D01*
X69520000Y-68584393D01*
X69133442Y-68197835D01*
X68560224Y-67960400D01*
X67939776Y-67960400D01*
X67366558Y-68197835D01*
X66980000Y-68584393D01*
X66593442Y-68197835D01*
X66020224Y-67960400D01*
X65399776Y-67960400D01*
X64826558Y-68197835D01*
X64440000Y-68584393D01*
X64053442Y-68197835D01*
X63480224Y-67960400D01*
X62859776Y-67960400D01*
X62286558Y-68197835D01*
X61900000Y-68584393D01*
X61513442Y-68197835D01*
X60940224Y-67960400D01*
X60319776Y-67960400D01*
X59746558Y-68197835D01*
X59307835Y-68636558D01*
X59070400Y-69209776D01*
X58184600Y-69209776D01*
X58184600Y-67284800D01*
X79510400Y-67284800D01*
X79510400Y-67751257D01*
X79603206Y-67975311D01*
X79774689Y-68146794D01*
X79998743Y-68239600D01*
X80565200Y-68239600D01*
X80717600Y-68087200D01*
X80717600Y-67132400D01*
X79662800Y-67132400D01*
X79510400Y-67284800D01*
X58184600Y-67284800D01*
X58184600Y-65176600D01*
X59571012Y-65176600D01*
X59520400Y-65298787D01*
G04 #@! TO.N,VBAT*
G36*
X126518458Y-53280000D02*
X126565770Y-53517854D01*
X126700503Y-53719497D01*
X126902146Y-53854230D01*
X127140000Y-53901542D01*
X128740000Y-53901542D01*
X128977854Y-53854230D01*
X129179497Y-53719497D01*
X129237544Y-53632623D01*
X129456630Y-53851709D01*
X129510167Y-53931833D01*
X129827583Y-54143923D01*
X129850017Y-54148385D01*
X129875770Y-54277854D01*
X130010503Y-54479497D01*
X130212146Y-54614230D01*
X130450000Y-54661542D01*
X131150000Y-54661542D01*
X131387854Y-54614230D01*
X131400926Y-54605496D01*
X131138292Y-54868130D01*
X131058168Y-54921667D01*
X130881495Y-55186078D01*
X130846078Y-55239083D01*
X130844213Y-55248458D01*
X130800000Y-55248458D01*
X130562146Y-55295770D01*
X130360503Y-55430503D01*
X130225770Y-55632146D01*
X130178458Y-55870000D01*
X130178458Y-57770000D01*
X130225770Y-58007854D01*
X130360503Y-58209497D01*
X130560957Y-58343436D01*
X130427835Y-58476558D01*
X130190400Y-59049776D01*
X130190400Y-59670224D01*
X130427835Y-60243442D01*
X130790401Y-60606008D01*
X130790400Y-61923993D01*
X130427835Y-62286558D01*
X130190400Y-62859776D01*
X130190400Y-63480224D01*
X130282843Y-63703400D01*
X129405691Y-63703400D01*
X129514677Y-63391317D01*
X129479506Y-62771868D01*
X129310118Y-62362927D01*
X129058681Y-62266845D01*
X128155526Y-63170000D01*
X128169669Y-63184143D01*
X127954143Y-63399669D01*
X127940000Y-63385526D01*
X127925858Y-63399669D01*
X127710332Y-63184143D01*
X127724474Y-63170000D01*
X126821319Y-62266845D01*
X126569882Y-62362927D01*
X126365323Y-62948683D01*
X126400494Y-63568132D01*
X126456524Y-63703400D01*
X99466600Y-63703400D01*
X99466600Y-62051319D01*
X127036845Y-62051319D01*
X127940000Y-62954474D01*
X128843155Y-62051319D01*
X128747073Y-61799882D01*
X128161317Y-61595323D01*
X127541868Y-61630494D01*
X127132927Y-61799882D01*
X127036845Y-62051319D01*
X99466600Y-62051319D01*
X99466600Y-58668600D01*
X105747492Y-58668600D01*
X105842000Y-58687399D01*
X105936508Y-58668600D01*
X105936509Y-58668600D01*
X106216417Y-58612923D01*
X106533833Y-58400833D01*
X106587372Y-58320706D01*
X106707706Y-58200372D01*
X106787833Y-58146833D01*
X106999923Y-57829417D01*
X107055600Y-57549508D01*
X107074399Y-57455001D01*
X107055600Y-57360493D01*
X107055600Y-57085344D01*
X107205600Y-56723213D01*
X107205600Y-56571542D01*
X108340000Y-56571542D01*
X108577854Y-56524230D01*
X108779497Y-56389497D01*
X108818458Y-56331188D01*
X108818458Y-56900000D01*
X108865770Y-57137854D01*
X109000503Y-57339497D01*
X109202146Y-57474230D01*
X109440000Y-57521542D01*
X111140000Y-57521542D01*
X111327150Y-57484316D01*
X111272900Y-57615287D01*
X111272900Y-58056713D01*
X111441827Y-58464538D01*
X111753962Y-58776673D01*
X112161787Y-58945600D01*
X112603213Y-58945600D01*
X113011038Y-58776673D01*
X113058111Y-58729600D01*
X120350251Y-58729600D01*
X120372146Y-58744230D01*
X120610000Y-58791542D01*
X122310000Y-58791542D01*
X122547854Y-58744230D01*
X122749497Y-58609497D01*
X122884230Y-58407854D01*
X122931542Y-58170000D01*
X122931542Y-57603647D01*
X123064689Y-57736794D01*
X123288743Y-57829600D01*
X123955200Y-57829600D01*
X124107600Y-57677200D01*
X124107600Y-56972400D01*
X124412400Y-56972400D01*
X124412400Y-57677200D01*
X124564800Y-57829600D01*
X125231257Y-57829600D01*
X125455311Y-57736794D01*
X125626794Y-57565311D01*
X125719600Y-57341257D01*
X125719600Y-57124800D01*
X125567200Y-56972400D01*
X124412400Y-56972400D01*
X124107600Y-56972400D01*
X122952800Y-56972400D01*
X122847710Y-57077490D01*
X122749497Y-56930503D01*
X122584117Y-56820000D01*
X122749497Y-56709497D01*
X122847710Y-56562510D01*
X122952800Y-56667600D01*
X124107600Y-56667600D01*
X124107600Y-55962800D01*
X124412400Y-55962800D01*
X124412400Y-56667600D01*
X125567200Y-56667600D01*
X125650000Y-56584800D01*
X126530400Y-56584800D01*
X126530400Y-57401257D01*
X126623206Y-57625311D01*
X126794689Y-57796794D01*
X127018743Y-57889600D01*
X127635200Y-57889600D01*
X127787600Y-57737200D01*
X127787600Y-56432400D01*
X128092400Y-56432400D01*
X128092400Y-57737200D01*
X128244800Y-57889600D01*
X128861257Y-57889600D01*
X129085311Y-57796794D01*
X129256794Y-57625311D01*
X129349600Y-57401257D01*
X129349600Y-56584800D01*
X129197200Y-56432400D01*
X128092400Y-56432400D01*
X127787600Y-56432400D01*
X126682800Y-56432400D01*
X126530400Y-56584800D01*
X125650000Y-56584800D01*
X125719600Y-56515200D01*
X125719600Y-56298743D01*
X125626794Y-56074689D01*
X125455311Y-55903206D01*
X125231257Y-55810400D01*
X124564800Y-55810400D01*
X124412400Y-55962800D01*
X124107600Y-55962800D01*
X123955200Y-55810400D01*
X123288743Y-55810400D01*
X123064689Y-55903206D01*
X122931542Y-56036353D01*
X122931542Y-55470000D01*
X122891481Y-55268600D01*
X123422654Y-55268600D01*
X123495000Y-55282991D01*
X123567346Y-55268600D01*
X123567348Y-55268600D01*
X123781626Y-55225977D01*
X123882249Y-55158743D01*
X126530400Y-55158743D01*
X126530400Y-55975200D01*
X126682800Y-56127600D01*
X127787600Y-56127600D01*
X127787600Y-54822800D01*
X128092400Y-54822800D01*
X128092400Y-56127600D01*
X129197200Y-56127600D01*
X129349600Y-55975200D01*
X129349600Y-55158743D01*
X129256794Y-54934689D01*
X129085311Y-54763206D01*
X128861257Y-54670400D01*
X128244800Y-54670400D01*
X128092400Y-54822800D01*
X127787600Y-54822800D01*
X127635200Y-54670400D01*
X127018743Y-54670400D01*
X126794689Y-54763206D01*
X126623206Y-54934689D01*
X126530400Y-55158743D01*
X123882249Y-55158743D01*
X124024617Y-55063617D01*
X124065602Y-55002279D01*
X124728284Y-54339598D01*
X124789617Y-54298617D01*
X124951977Y-54055626D01*
X124994600Y-53841348D01*
X124994600Y-53841347D01*
X125008991Y-53769001D01*
X124994600Y-53696654D01*
X124994600Y-52761542D01*
X125110000Y-52761542D01*
X125347854Y-52714230D01*
X125549497Y-52579497D01*
X125618250Y-52476600D01*
X126518458Y-52476600D01*
X126518458Y-53280000D01*
X126518458Y-53280000D01*
G37*
X126518458Y-53280000D02*
X126565770Y-53517854D01*
X126700503Y-53719497D01*
X126902146Y-53854230D01*
X127140000Y-53901542D01*
X128740000Y-53901542D01*
X128977854Y-53854230D01*
X129179497Y-53719497D01*
X129237544Y-53632623D01*
X129456630Y-53851709D01*
X129510167Y-53931833D01*
X129827583Y-54143923D01*
X129850017Y-54148385D01*
X129875770Y-54277854D01*
X130010503Y-54479497D01*
X130212146Y-54614230D01*
X130450000Y-54661542D01*
X131150000Y-54661542D01*
X131387854Y-54614230D01*
X131400926Y-54605496D01*
X131138292Y-54868130D01*
X131058168Y-54921667D01*
X130881495Y-55186078D01*
X130846078Y-55239083D01*
X130844213Y-55248458D01*
X130800000Y-55248458D01*
X130562146Y-55295770D01*
X130360503Y-55430503D01*
X130225770Y-55632146D01*
X130178458Y-55870000D01*
X130178458Y-57770000D01*
X130225770Y-58007854D01*
X130360503Y-58209497D01*
X130560957Y-58343436D01*
X130427835Y-58476558D01*
X130190400Y-59049776D01*
X130190400Y-59670224D01*
X130427835Y-60243442D01*
X130790401Y-60606008D01*
X130790400Y-61923993D01*
X130427835Y-62286558D01*
X130190400Y-62859776D01*
X130190400Y-63480224D01*
X130282843Y-63703400D01*
X129405691Y-63703400D01*
X129514677Y-63391317D01*
X129479506Y-62771868D01*
X129310118Y-62362927D01*
X129058681Y-62266845D01*
X128155526Y-63170000D01*
X128169669Y-63184143D01*
X127954143Y-63399669D01*
X127940000Y-63385526D01*
X127925858Y-63399669D01*
X127710332Y-63184143D01*
X127724474Y-63170000D01*
X126821319Y-62266845D01*
X126569882Y-62362927D01*
X126365323Y-62948683D01*
X126400494Y-63568132D01*
X126456524Y-63703400D01*
X99466600Y-63703400D01*
X99466600Y-62051319D01*
X127036845Y-62051319D01*
X127940000Y-62954474D01*
X128843155Y-62051319D01*
X128747073Y-61799882D01*
X128161317Y-61595323D01*
X127541868Y-61630494D01*
X127132927Y-61799882D01*
X127036845Y-62051319D01*
X99466600Y-62051319D01*
X99466600Y-58668600D01*
X105747492Y-58668600D01*
X105842000Y-58687399D01*
X105936508Y-58668600D01*
X105936509Y-58668600D01*
X106216417Y-58612923D01*
X106533833Y-58400833D01*
X106587372Y-58320706D01*
X106707706Y-58200372D01*
X106787833Y-58146833D01*
X106999923Y-57829417D01*
X107055600Y-57549508D01*
X107074399Y-57455001D01*
X107055600Y-57360493D01*
X107055600Y-57085344D01*
X107205600Y-56723213D01*
X107205600Y-56571542D01*
X108340000Y-56571542D01*
X108577854Y-56524230D01*
X108779497Y-56389497D01*
X108818458Y-56331188D01*
X108818458Y-56900000D01*
X108865770Y-57137854D01*
X109000503Y-57339497D01*
X109202146Y-57474230D01*
X109440000Y-57521542D01*
X111140000Y-57521542D01*
X111327150Y-57484316D01*
X111272900Y-57615287D01*
X111272900Y-58056713D01*
X111441827Y-58464538D01*
X111753962Y-58776673D01*
X112161787Y-58945600D01*
X112603213Y-58945600D01*
X113011038Y-58776673D01*
X113058111Y-58729600D01*
X120350251Y-58729600D01*
X120372146Y-58744230D01*
X120610000Y-58791542D01*
X122310000Y-58791542D01*
X122547854Y-58744230D01*
X122749497Y-58609497D01*
X122884230Y-58407854D01*
X122931542Y-58170000D01*
X122931542Y-57603647D01*
X123064689Y-57736794D01*
X123288743Y-57829600D01*
X123955200Y-57829600D01*
X124107600Y-57677200D01*
X124107600Y-56972400D01*
X124412400Y-56972400D01*
X124412400Y-57677200D01*
X124564800Y-57829600D01*
X125231257Y-57829600D01*
X125455311Y-57736794D01*
X125626794Y-57565311D01*
X125719600Y-57341257D01*
X125719600Y-57124800D01*
X125567200Y-56972400D01*
X124412400Y-56972400D01*
X124107600Y-56972400D01*
X122952800Y-56972400D01*
X122847710Y-57077490D01*
X122749497Y-56930503D01*
X122584117Y-56820000D01*
X122749497Y-56709497D01*
X122847710Y-56562510D01*
X122952800Y-56667600D01*
X124107600Y-56667600D01*
X124107600Y-55962800D01*
X124412400Y-55962800D01*
X124412400Y-56667600D01*
X125567200Y-56667600D01*
X125650000Y-56584800D01*
X126530400Y-56584800D01*
X126530400Y-57401257D01*
X126623206Y-57625311D01*
X126794689Y-57796794D01*
X127018743Y-57889600D01*
X127635200Y-57889600D01*
X127787600Y-57737200D01*
X127787600Y-56432400D01*
X128092400Y-56432400D01*
X128092400Y-57737200D01*
X128244800Y-57889600D01*
X128861257Y-57889600D01*
X129085311Y-57796794D01*
X129256794Y-57625311D01*
X129349600Y-57401257D01*
X129349600Y-56584800D01*
X129197200Y-56432400D01*
X128092400Y-56432400D01*
X127787600Y-56432400D01*
X126682800Y-56432400D01*
X126530400Y-56584800D01*
X125650000Y-56584800D01*
X125719600Y-56515200D01*
X125719600Y-56298743D01*
X125626794Y-56074689D01*
X125455311Y-55903206D01*
X125231257Y-55810400D01*
X124564800Y-55810400D01*
X124412400Y-55962800D01*
X124107600Y-55962800D01*
X123955200Y-55810400D01*
X123288743Y-55810400D01*
X123064689Y-55903206D01*
X122931542Y-56036353D01*
X122931542Y-55470000D01*
X122891481Y-55268600D01*
X123422654Y-55268600D01*
X123495000Y-55282991D01*
X123567346Y-55268600D01*
X123567348Y-55268600D01*
X123781626Y-55225977D01*
X123882249Y-55158743D01*
X126530400Y-55158743D01*
X126530400Y-55975200D01*
X126682800Y-56127600D01*
X127787600Y-56127600D01*
X127787600Y-54822800D01*
X128092400Y-54822800D01*
X128092400Y-56127600D01*
X129197200Y-56127600D01*
X129349600Y-55975200D01*
X129349600Y-55158743D01*
X129256794Y-54934689D01*
X129085311Y-54763206D01*
X128861257Y-54670400D01*
X128244800Y-54670400D01*
X128092400Y-54822800D01*
X127787600Y-54822800D01*
X127635200Y-54670400D01*
X127018743Y-54670400D01*
X126794689Y-54763206D01*
X126623206Y-54934689D01*
X126530400Y-55158743D01*
X123882249Y-55158743D01*
X124024617Y-55063617D01*
X124065602Y-55002279D01*
X124728284Y-54339598D01*
X124789617Y-54298617D01*
X124951977Y-54055626D01*
X124994600Y-53841348D01*
X124994600Y-53841347D01*
X125008991Y-53769001D01*
X124994600Y-53696654D01*
X124994600Y-52761542D01*
X125110000Y-52761542D01*
X125347854Y-52714230D01*
X125549497Y-52579497D01*
X125618250Y-52476600D01*
X126518458Y-52476600D01*
X126518458Y-53280000D01*
G36*
X141815400Y-54813400D02*
X140718341Y-54813400D01*
X140609497Y-54650503D01*
X140407854Y-54515770D01*
X140170000Y-54468458D01*
X138570000Y-54468458D01*
X138332146Y-54515770D01*
X138130503Y-54650503D01*
X137995770Y-54852146D01*
X137948458Y-55090000D01*
X137948458Y-55113085D01*
X137940999Y-55111601D01*
X137846491Y-55130400D01*
X137566583Y-55186077D01*
X137249167Y-55398167D01*
X137195628Y-55478294D01*
X137067225Y-55606697D01*
X136949497Y-55430503D01*
X136747854Y-55295770D01*
X136510000Y-55248458D01*
X134610000Y-55248458D01*
X134391600Y-55291900D01*
X134391600Y-54915000D01*
X134383866Y-54876119D01*
X134361842Y-54843158D01*
X134328881Y-54821134D01*
X134290000Y-54813400D01*
X133648582Y-54813400D01*
X133659600Y-54758009D01*
X133659600Y-54758008D01*
X133678399Y-54663500D01*
X133659600Y-54568992D01*
X133659600Y-54100037D01*
X133671542Y-54040000D01*
X133671542Y-52473310D01*
X133693881Y-52468866D01*
X133726842Y-52446842D01*
X133748866Y-52413881D01*
X133756600Y-52375000D01*
X133756600Y-51105000D01*
X133748866Y-51066119D01*
X133726842Y-51033158D01*
X133693881Y-51011134D01*
X133659600Y-51004315D01*
X133659600Y-50544800D01*
X133507200Y-50392400D01*
X132852400Y-50392400D01*
X132852400Y-50412400D01*
X132721542Y-50412400D01*
X132721542Y-50067600D01*
X132852400Y-50067600D01*
X132852400Y-50087600D01*
X133507200Y-50087600D01*
X133659600Y-49935200D01*
X133659600Y-49318743D01*
X133566794Y-49094689D01*
X133395311Y-48923206D01*
X133171257Y-48830400D01*
X133004800Y-48830400D01*
X132852402Y-48982798D01*
X132852402Y-48830400D01*
X132709600Y-48830400D01*
X132709600Y-48762600D01*
X134913656Y-48762600D01*
X135275787Y-48912600D01*
X135717213Y-48912600D01*
X136125038Y-48743673D01*
X136437173Y-48431538D01*
X136606100Y-48023713D01*
X136606100Y-47582287D01*
X136437173Y-47174462D01*
X136125038Y-46862327D01*
X135717213Y-46693400D01*
X135275787Y-46693400D01*
X134913656Y-46843400D01*
X131844509Y-46843400D01*
X131750000Y-46824601D01*
X131655491Y-46843400D01*
X128034509Y-46843400D01*
X127940000Y-46824601D01*
X127845491Y-46843400D01*
X120140844Y-46843400D01*
X119778713Y-46693400D01*
X119337287Y-46693400D01*
X118975156Y-46843400D01*
X108254509Y-46843400D01*
X108160000Y-46824601D01*
X108065491Y-46843400D01*
X106678844Y-46843400D01*
X106316713Y-46693400D01*
X105875287Y-46693400D01*
X105513156Y-46843400D01*
X99466600Y-46843400D01*
X99466600Y-45184600D01*
X141815400Y-45184600D01*
X141815400Y-54813400D01*
X141815400Y-54813400D01*
G37*
X141815400Y-54813400D02*
X140718341Y-54813400D01*
X140609497Y-54650503D01*
X140407854Y-54515770D01*
X140170000Y-54468458D01*
X138570000Y-54468458D01*
X138332146Y-54515770D01*
X138130503Y-54650503D01*
X137995770Y-54852146D01*
X137948458Y-55090000D01*
X137948458Y-55113085D01*
X137940999Y-55111601D01*
X137846491Y-55130400D01*
X137566583Y-55186077D01*
X137249167Y-55398167D01*
X137195628Y-55478294D01*
X137067225Y-55606697D01*
X136949497Y-55430503D01*
X136747854Y-55295770D01*
X136510000Y-55248458D01*
X134610000Y-55248458D01*
X134391600Y-55291900D01*
X134391600Y-54915000D01*
X134383866Y-54876119D01*
X134361842Y-54843158D01*
X134328881Y-54821134D01*
X134290000Y-54813400D01*
X133648582Y-54813400D01*
X133659600Y-54758009D01*
X133659600Y-54758008D01*
X133678399Y-54663500D01*
X133659600Y-54568992D01*
X133659600Y-54100037D01*
X133671542Y-54040000D01*
X133671542Y-52473310D01*
X133693881Y-52468866D01*
X133726842Y-52446842D01*
X133748866Y-52413881D01*
X133756600Y-52375000D01*
X133756600Y-51105000D01*
X133748866Y-51066119D01*
X133726842Y-51033158D01*
X133693881Y-51011134D01*
X133659600Y-51004315D01*
X133659600Y-50544800D01*
X133507200Y-50392400D01*
X132852400Y-50392400D01*
X132852400Y-50412400D01*
X132721542Y-50412400D01*
X132721542Y-50067600D01*
X132852400Y-50067600D01*
X132852400Y-50087600D01*
X133507200Y-50087600D01*
X133659600Y-49935200D01*
X133659600Y-49318743D01*
X133566794Y-49094689D01*
X133395311Y-48923206D01*
X133171257Y-48830400D01*
X133004800Y-48830400D01*
X132852402Y-48982798D01*
X132852402Y-48830400D01*
X132709600Y-48830400D01*
X132709600Y-48762600D01*
X134913656Y-48762600D01*
X135275787Y-48912600D01*
X135717213Y-48912600D01*
X136125038Y-48743673D01*
X136437173Y-48431538D01*
X136606100Y-48023713D01*
X136606100Y-47582287D01*
X136437173Y-47174462D01*
X136125038Y-46862327D01*
X135717213Y-46693400D01*
X135275787Y-46693400D01*
X134913656Y-46843400D01*
X131844509Y-46843400D01*
X131750000Y-46824601D01*
X131655491Y-46843400D01*
X128034509Y-46843400D01*
X127940000Y-46824601D01*
X127845491Y-46843400D01*
X120140844Y-46843400D01*
X119778713Y-46693400D01*
X119337287Y-46693400D01*
X118975156Y-46843400D01*
X108254509Y-46843400D01*
X108160000Y-46824601D01*
X108065491Y-46843400D01*
X106678844Y-46843400D01*
X106316713Y-46693400D01*
X105875287Y-46693400D01*
X105513156Y-46843400D01*
X99466600Y-46843400D01*
X99466600Y-45184600D01*
X141815400Y-45184600D01*
X141815400Y-54813400D01*
G04 #@! TO.N,VSC*
G36*
X97993400Y-46843400D02*
X87501844Y-46843400D01*
X87139713Y-46693400D01*
X86698287Y-46693400D01*
X86290462Y-46862327D01*
X85978327Y-47174462D01*
X85809400Y-47582287D01*
X85809400Y-48023713D01*
X85978327Y-48431538D01*
X86290462Y-48743673D01*
X86698287Y-48912600D01*
X87139713Y-48912600D01*
X87501844Y-48762600D01*
X91643400Y-48762600D01*
X91643400Y-49192900D01*
X86823007Y-49192900D01*
X86728499Y-49174101D01*
X86633991Y-49192900D01*
X86354083Y-49248577D01*
X86036667Y-49460667D01*
X85983130Y-49540792D01*
X85693522Y-49830400D01*
X84745491Y-49830400D01*
X84679844Y-49843458D01*
X84060000Y-49843458D01*
X83822146Y-49890770D01*
X83620503Y-50025503D01*
X83485770Y-50227146D01*
X83484321Y-50234430D01*
X83436794Y-50119689D01*
X83265311Y-49948206D01*
X83041257Y-49855400D01*
X82444800Y-49855400D01*
X82292400Y-50007800D01*
X82292400Y-50637600D01*
X82312400Y-50637600D01*
X82312400Y-50942400D01*
X82292400Y-50942400D01*
X82292400Y-50962400D01*
X81987600Y-50962400D01*
X81987600Y-50942400D01*
X80902800Y-50942400D01*
X80750400Y-51094800D01*
X80750400Y-51236257D01*
X80843206Y-51460311D01*
X81014689Y-51631794D01*
X81238743Y-51724600D01*
X81483400Y-51724600D01*
X81483400Y-51743458D01*
X81360000Y-51743458D01*
X81122146Y-51790770D01*
X80920503Y-51925503D01*
X80893916Y-51965293D01*
X80729374Y-51998023D01*
X80486383Y-52160383D01*
X80445398Y-52221722D01*
X80291220Y-52375900D01*
X80229884Y-52416883D01*
X80067523Y-52659874D01*
X80029784Y-52849600D01*
X80010509Y-52946500D01*
X80024900Y-53018846D01*
X80024900Y-53445654D01*
X80010509Y-53518000D01*
X80024900Y-53590346D01*
X80024900Y-53590347D01*
X80067523Y-53804625D01*
X80229883Y-54047617D01*
X80291222Y-54088602D01*
X80412020Y-54209400D01*
X76742310Y-54209400D01*
X76773155Y-54128681D01*
X75971600Y-53327126D01*
X75971600Y-53010000D01*
X75963866Y-52971119D01*
X75941842Y-52938158D01*
X75908881Y-52916134D01*
X75870000Y-52908400D01*
X75727789Y-52908400D01*
X75855858Y-52780332D01*
X75870000Y-52794474D01*
X75884143Y-52780332D01*
X76099669Y-52995858D01*
X76085526Y-53010000D01*
X76988681Y-53913155D01*
X77240118Y-53817073D01*
X77444677Y-53231317D01*
X77409506Y-52611868D01*
X77240118Y-52202927D01*
X76988683Y-52106846D01*
X77100766Y-51994763D01*
X77083258Y-51977255D01*
X77259497Y-51859497D01*
X77394230Y-51657854D01*
X77441542Y-51420000D01*
X77441542Y-50343743D01*
X80750400Y-50343743D01*
X80750400Y-50485200D01*
X80902800Y-50637600D01*
X81987600Y-50637600D01*
X81987600Y-50007800D01*
X81835200Y-49855400D01*
X81238743Y-49855400D01*
X81014689Y-49948206D01*
X80843206Y-50119689D01*
X80750400Y-50343743D01*
X77441542Y-50343743D01*
X77441542Y-49520000D01*
X77394230Y-49282146D01*
X77259497Y-49080503D01*
X77057854Y-48945770D01*
X76826571Y-48899765D01*
X76773923Y-48635082D01*
X76701116Y-48526119D01*
X76561833Y-48317667D01*
X76481709Y-48264130D01*
X75980372Y-47762793D01*
X75926833Y-47682667D01*
X75609417Y-47470577D01*
X75329509Y-47414900D01*
X75329508Y-47414900D01*
X75235000Y-47396101D01*
X75140492Y-47414900D01*
X65360007Y-47414900D01*
X65265499Y-47396101D01*
X65170991Y-47414900D01*
X64891083Y-47470577D01*
X64573667Y-47682667D01*
X64520130Y-47762791D01*
X63828292Y-48454630D01*
X63748168Y-48508167D01*
X63587304Y-48748918D01*
X63536078Y-48825583D01*
X63521582Y-48898458D01*
X63490000Y-48898458D01*
X63252146Y-48945770D01*
X63050503Y-49080503D01*
X62915770Y-49282146D01*
X62868458Y-49520000D01*
X62868458Y-51420000D01*
X62915770Y-51657854D01*
X63050503Y-51859497D01*
X63250957Y-51993436D01*
X63117835Y-52126558D01*
X62880400Y-52699776D01*
X62880400Y-53320224D01*
X63117835Y-53893442D01*
X63480401Y-54256008D01*
X63480400Y-59900492D01*
X63461601Y-59995000D01*
X63480400Y-60089508D01*
X63536077Y-60369416D01*
X63748167Y-60686833D01*
X63828293Y-60740372D01*
X64329630Y-61241708D01*
X64383167Y-61321833D01*
X64588439Y-61458991D01*
X64700582Y-61533923D01*
X65075000Y-61608399D01*
X65169509Y-61589600D01*
X65733993Y-61589600D01*
X66096558Y-61952165D01*
X66669776Y-62189600D01*
X67290224Y-62189600D01*
X67863442Y-61952165D01*
X68302165Y-61513442D01*
X68539600Y-60940224D01*
X68539600Y-60319776D01*
X68302165Y-59746558D01*
X67863442Y-59307835D01*
X67847749Y-59301335D01*
X67883155Y-59208681D01*
X66980000Y-58305526D01*
X66076845Y-59208681D01*
X66112251Y-59301335D01*
X66096558Y-59307835D01*
X65733993Y-59670400D01*
X65472479Y-59670400D01*
X65399600Y-59597522D01*
X65399600Y-57868683D01*
X65405323Y-57868683D01*
X65440494Y-58488132D01*
X65609882Y-58897073D01*
X65861319Y-58993155D01*
X66764474Y-58090000D01*
X67195526Y-58090000D01*
X68098681Y-58993155D01*
X68350118Y-58897073D01*
X68554677Y-58311317D01*
X68519506Y-57691868D01*
X68350118Y-57282927D01*
X68098681Y-57186845D01*
X67195526Y-58090000D01*
X66764474Y-58090000D01*
X65861319Y-57186845D01*
X65609882Y-57282927D01*
X65405323Y-57868683D01*
X65399600Y-57868683D01*
X65399600Y-56971319D01*
X66076845Y-56971319D01*
X66980000Y-57874474D01*
X67846896Y-57007578D01*
X69923104Y-57007578D01*
X70790000Y-57874474D01*
X71656896Y-57007578D01*
X71566965Y-56761321D01*
X70999358Y-56565129D01*
X70399879Y-56601086D01*
X70013035Y-56761321D01*
X69923104Y-57007578D01*
X67846896Y-57007578D01*
X67883155Y-56971319D01*
X67787073Y-56719882D01*
X67201317Y-56515323D01*
X66581868Y-56550494D01*
X66172927Y-56719882D01*
X66076845Y-56971319D01*
X65399600Y-56971319D01*
X65399600Y-54256007D01*
X65686007Y-53969600D01*
X67003993Y-53969600D01*
X67366558Y-54332165D01*
X67473378Y-54376411D01*
X67309327Y-54540462D01*
X67140400Y-54948287D01*
X67140400Y-55389713D01*
X67309327Y-55797538D01*
X67621462Y-56109673D01*
X68029287Y-56278600D01*
X68470713Y-56278600D01*
X68832844Y-56128600D01*
X76284518Y-56128600D01*
X75631421Y-56781698D01*
X75487854Y-56685770D01*
X75250000Y-56638458D01*
X73950000Y-56638458D01*
X73712146Y-56685770D01*
X73510503Y-56820503D01*
X73375770Y-57022146D01*
X73328458Y-57260000D01*
X73328458Y-58760000D01*
X73375770Y-58997854D01*
X73510503Y-59199497D01*
X73712146Y-59334230D01*
X73841701Y-59360000D01*
X73712146Y-59385770D01*
X73510503Y-59520503D01*
X73375770Y-59722146D01*
X73341308Y-59895400D01*
X72311542Y-59895400D01*
X72311542Y-59730000D01*
X72264230Y-59492146D01*
X72129497Y-59290503D01*
X71927854Y-59155770D01*
X71903067Y-59150840D01*
X71984718Y-59069189D01*
X71872424Y-58956895D01*
X72118679Y-58866965D01*
X72314871Y-58299358D01*
X72278914Y-57699879D01*
X72118679Y-57313035D01*
X71872422Y-57223104D01*
X71005526Y-58090000D01*
X71019669Y-58104143D01*
X70804143Y-58319669D01*
X70790000Y-58305526D01*
X70775858Y-58319669D01*
X70560332Y-58104143D01*
X70574474Y-58090000D01*
X69707578Y-57223104D01*
X69461321Y-57313035D01*
X69265129Y-57880642D01*
X69301086Y-58480121D01*
X69461321Y-58866965D01*
X69707576Y-58956895D01*
X69595282Y-59069189D01*
X69676933Y-59150840D01*
X69652146Y-59155770D01*
X69450503Y-59290503D01*
X69315770Y-59492146D01*
X69268458Y-59730000D01*
X69268458Y-61530000D01*
X69315770Y-61767854D01*
X69450503Y-61969497D01*
X69652146Y-62104230D01*
X69890000Y-62151542D01*
X71690000Y-62151542D01*
X71927854Y-62104230D01*
X72129497Y-61969497D01*
X72264230Y-61767854D01*
X72311542Y-61530000D01*
X72311542Y-61364600D01*
X73328458Y-61364600D01*
X73328458Y-61460000D01*
X73375770Y-61697854D01*
X73510503Y-61899497D01*
X73712146Y-62034230D01*
X73950000Y-62081542D01*
X75250000Y-62081542D01*
X75487854Y-62034230D01*
X75689497Y-61899497D01*
X75824230Y-61697854D01*
X75843749Y-61599722D01*
X78170400Y-61599722D01*
X78170400Y-62200278D01*
X78400223Y-62755120D01*
X78824880Y-63179777D01*
X79379722Y-63409600D01*
X79980278Y-63409600D01*
X80535120Y-63179777D01*
X80959777Y-62755120D01*
X81189600Y-62200278D01*
X81189600Y-61599722D01*
X80959777Y-61044880D01*
X80535120Y-60620223D01*
X79980278Y-60390400D01*
X79379722Y-60390400D01*
X78824880Y-60620223D01*
X78400223Y-61044880D01*
X78170400Y-61599722D01*
X75843749Y-61599722D01*
X75871542Y-61460000D01*
X75871542Y-59960000D01*
X75824230Y-59722146D01*
X75689497Y-59520503D01*
X75487854Y-59385770D01*
X75358299Y-59360000D01*
X75487854Y-59334230D01*
X75689497Y-59199497D01*
X75782891Y-59059722D01*
X80710400Y-59059722D01*
X80710400Y-59660278D01*
X80940223Y-60215120D01*
X81364880Y-60639777D01*
X81919722Y-60869600D01*
X82520278Y-60869600D01*
X83075120Y-60639777D01*
X83499777Y-60215120D01*
X83729600Y-59660278D01*
X83729600Y-59059722D01*
X83499777Y-58504880D01*
X83075120Y-58080223D01*
X82520278Y-57850400D01*
X81919722Y-57850400D01*
X81364880Y-58080223D01*
X80940223Y-58504880D01*
X80710400Y-59059722D01*
X75782891Y-59059722D01*
X75824230Y-58997854D01*
X75871542Y-58760000D01*
X75871542Y-58606484D01*
X75971617Y-58539617D01*
X76012602Y-58478278D01*
X77507782Y-56983100D01*
X87495811Y-56983100D01*
X87617108Y-57104397D01*
X87988178Y-57258100D01*
X88389822Y-57258100D01*
X88760892Y-57104397D01*
X89044897Y-56820392D01*
X89198600Y-56449322D01*
X89198600Y-56047678D01*
X89044897Y-55676608D01*
X88882934Y-55514645D01*
X89697979Y-54699600D01*
X90076125Y-54699600D01*
X90311526Y-54935001D01*
X90829613Y-55149600D01*
X91390387Y-55149600D01*
X91908474Y-54935001D01*
X92305001Y-54538474D01*
X92519600Y-54020387D01*
X92519600Y-53459613D01*
X92324208Y-52987897D01*
X92426794Y-52885311D01*
X92519600Y-52661257D01*
X92519600Y-52044800D01*
X92367200Y-51892400D01*
X91262400Y-51892400D01*
X91262400Y-51912400D01*
X91211600Y-51912400D01*
X91211600Y-51567600D01*
X91262400Y-51567600D01*
X91262400Y-51587600D01*
X92367200Y-51587600D01*
X92519600Y-51435200D01*
X92519600Y-51112100D01*
X94194937Y-51112100D01*
X94228167Y-51161833D01*
X94514051Y-51352854D01*
X94545583Y-51373923D01*
X94618458Y-51388419D01*
X94618458Y-51420000D01*
X94665770Y-51657854D01*
X94800503Y-51859497D01*
X95000957Y-51993436D01*
X94867835Y-52126558D01*
X94630400Y-52699776D01*
X94630400Y-53320224D01*
X94867835Y-53893442D01*
X95306558Y-54332165D01*
X95879776Y-54569600D01*
X96500224Y-54569600D01*
X97073442Y-54332165D01*
X97436007Y-53969600D01*
X97993400Y-53969600D01*
X97993400Y-57215522D01*
X97761542Y-57447380D01*
X97761542Y-57140000D01*
X97714230Y-56902146D01*
X97579497Y-56700503D01*
X97377854Y-56565770D01*
X97140000Y-56518458D01*
X95240000Y-56518458D01*
X95002146Y-56565770D01*
X94800503Y-56700503D01*
X94665770Y-56902146D01*
X94620368Y-57130400D01*
X94506507Y-57130400D01*
X94411999Y-57111601D01*
X94317491Y-57130400D01*
X94037583Y-57186077D01*
X93720167Y-57398167D01*
X93666630Y-57478291D01*
X92744522Y-58400400D01*
X92499796Y-58400400D01*
X92484230Y-58322146D01*
X92349497Y-58120503D01*
X92147854Y-57985770D01*
X91910000Y-57938458D01*
X90310000Y-57938458D01*
X90072146Y-57985770D01*
X89870503Y-58120503D01*
X89735770Y-58322146D01*
X89688458Y-58560000D01*
X89688458Y-60160000D01*
X89734640Y-60392171D01*
X89681499Y-60381601D01*
X89586991Y-60400400D01*
X89307083Y-60456077D01*
X88989667Y-60668167D01*
X88936128Y-60748294D01*
X88744022Y-60940400D01*
X87501844Y-60940400D01*
X87139713Y-60790400D01*
X86698287Y-60790400D01*
X86290462Y-60959327D01*
X86088143Y-61161646D01*
X86039777Y-61044880D01*
X85615120Y-60620223D01*
X85060278Y-60390400D01*
X84459722Y-60390400D01*
X83904880Y-60620223D01*
X83480223Y-61044880D01*
X83250400Y-61599722D01*
X83250400Y-62200278D01*
X83480223Y-62755120D01*
X83904880Y-63179777D01*
X84459722Y-63409600D01*
X85060278Y-63409600D01*
X85615120Y-63179777D01*
X85928400Y-62866497D01*
X85928400Y-63480400D01*
X63752844Y-63480400D01*
X63390713Y-63330400D01*
X62949287Y-63330400D01*
X62541462Y-63499327D01*
X62337389Y-63703400D01*
X58184600Y-63703400D01*
X58184600Y-45184600D01*
X97993400Y-45184600D01*
X97993400Y-46843400D01*
X97993400Y-46843400D01*
G37*
X97993400Y-46843400D02*
X87501844Y-46843400D01*
X87139713Y-46693400D01*
X86698287Y-46693400D01*
X86290462Y-46862327D01*
X85978327Y-47174462D01*
X85809400Y-47582287D01*
X85809400Y-48023713D01*
X85978327Y-48431538D01*
X86290462Y-48743673D01*
X86698287Y-48912600D01*
X87139713Y-48912600D01*
X87501844Y-48762600D01*
X91643400Y-48762600D01*
X91643400Y-49192900D01*
X86823007Y-49192900D01*
X86728499Y-49174101D01*
X86633991Y-49192900D01*
X86354083Y-49248577D01*
X86036667Y-49460667D01*
X85983130Y-49540792D01*
X85693522Y-49830400D01*
X84745491Y-49830400D01*
X84679844Y-49843458D01*
X84060000Y-49843458D01*
X83822146Y-49890770D01*
X83620503Y-50025503D01*
X83485770Y-50227146D01*
X83484321Y-50234430D01*
X83436794Y-50119689D01*
X83265311Y-49948206D01*
X83041257Y-49855400D01*
X82444800Y-49855400D01*
X82292400Y-50007800D01*
X82292400Y-50637600D01*
X82312400Y-50637600D01*
X82312400Y-50942400D01*
X82292400Y-50942400D01*
X82292400Y-50962400D01*
X81987600Y-50962400D01*
X81987600Y-50942400D01*
X80902800Y-50942400D01*
X80750400Y-51094800D01*
X80750400Y-51236257D01*
X80843206Y-51460311D01*
X81014689Y-51631794D01*
X81238743Y-51724600D01*
X81483400Y-51724600D01*
X81483400Y-51743458D01*
X81360000Y-51743458D01*
X81122146Y-51790770D01*
X80920503Y-51925503D01*
X80893916Y-51965293D01*
X80729374Y-51998023D01*
X80486383Y-52160383D01*
X80445398Y-52221722D01*
X80291220Y-52375900D01*
X80229884Y-52416883D01*
X80067523Y-52659874D01*
X80029784Y-52849600D01*
X80010509Y-52946500D01*
X80024900Y-53018846D01*
X80024900Y-53445654D01*
X80010509Y-53518000D01*
X80024900Y-53590346D01*
X80024900Y-53590347D01*
X80067523Y-53804625D01*
X80229883Y-54047617D01*
X80291222Y-54088602D01*
X80412020Y-54209400D01*
X76742310Y-54209400D01*
X76773155Y-54128681D01*
X75971600Y-53327126D01*
X75971600Y-53010000D01*
X75963866Y-52971119D01*
X75941842Y-52938158D01*
X75908881Y-52916134D01*
X75870000Y-52908400D01*
X75727789Y-52908400D01*
X75855858Y-52780332D01*
X75870000Y-52794474D01*
X75884143Y-52780332D01*
X76099669Y-52995858D01*
X76085526Y-53010000D01*
X76988681Y-53913155D01*
X77240118Y-53817073D01*
X77444677Y-53231317D01*
X77409506Y-52611868D01*
X77240118Y-52202927D01*
X76988683Y-52106846D01*
X77100766Y-51994763D01*
X77083258Y-51977255D01*
X77259497Y-51859497D01*
X77394230Y-51657854D01*
X77441542Y-51420000D01*
X77441542Y-50343743D01*
X80750400Y-50343743D01*
X80750400Y-50485200D01*
X80902800Y-50637600D01*
X81987600Y-50637600D01*
X81987600Y-50007800D01*
X81835200Y-49855400D01*
X81238743Y-49855400D01*
X81014689Y-49948206D01*
X80843206Y-50119689D01*
X80750400Y-50343743D01*
X77441542Y-50343743D01*
X77441542Y-49520000D01*
X77394230Y-49282146D01*
X77259497Y-49080503D01*
X77057854Y-48945770D01*
X76826571Y-48899765D01*
X76773923Y-48635082D01*
X76701116Y-48526119D01*
X76561833Y-48317667D01*
X76481709Y-48264130D01*
X75980372Y-47762793D01*
X75926833Y-47682667D01*
X75609417Y-47470577D01*
X75329509Y-47414900D01*
X75329508Y-47414900D01*
X75235000Y-47396101D01*
X75140492Y-47414900D01*
X65360007Y-47414900D01*
X65265499Y-47396101D01*
X65170991Y-47414900D01*
X64891083Y-47470577D01*
X64573667Y-47682667D01*
X64520130Y-47762791D01*
X63828292Y-48454630D01*
X63748168Y-48508167D01*
X63587304Y-48748918D01*
X63536078Y-48825583D01*
X63521582Y-48898458D01*
X63490000Y-48898458D01*
X63252146Y-48945770D01*
X63050503Y-49080503D01*
X62915770Y-49282146D01*
X62868458Y-49520000D01*
X62868458Y-51420000D01*
X62915770Y-51657854D01*
X63050503Y-51859497D01*
X63250957Y-51993436D01*
X63117835Y-52126558D01*
X62880400Y-52699776D01*
X62880400Y-53320224D01*
X63117835Y-53893442D01*
X63480401Y-54256008D01*
X63480400Y-59900492D01*
X63461601Y-59995000D01*
X63480400Y-60089508D01*
X63536077Y-60369416D01*
X63748167Y-60686833D01*
X63828293Y-60740372D01*
X64329630Y-61241708D01*
X64383167Y-61321833D01*
X64588439Y-61458991D01*
X64700582Y-61533923D01*
X65075000Y-61608399D01*
X65169509Y-61589600D01*
X65733993Y-61589600D01*
X66096558Y-61952165D01*
X66669776Y-62189600D01*
X67290224Y-62189600D01*
X67863442Y-61952165D01*
X68302165Y-61513442D01*
X68539600Y-60940224D01*
X68539600Y-60319776D01*
X68302165Y-59746558D01*
X67863442Y-59307835D01*
X67847749Y-59301335D01*
X67883155Y-59208681D01*
X66980000Y-58305526D01*
X66076845Y-59208681D01*
X66112251Y-59301335D01*
X66096558Y-59307835D01*
X65733993Y-59670400D01*
X65472479Y-59670400D01*
X65399600Y-59597522D01*
X65399600Y-57868683D01*
X65405323Y-57868683D01*
X65440494Y-58488132D01*
X65609882Y-58897073D01*
X65861319Y-58993155D01*
X66764474Y-58090000D01*
X67195526Y-58090000D01*
X68098681Y-58993155D01*
X68350118Y-58897073D01*
X68554677Y-58311317D01*
X68519506Y-57691868D01*
X68350118Y-57282927D01*
X68098681Y-57186845D01*
X67195526Y-58090000D01*
X66764474Y-58090000D01*
X65861319Y-57186845D01*
X65609882Y-57282927D01*
X65405323Y-57868683D01*
X65399600Y-57868683D01*
X65399600Y-56971319D01*
X66076845Y-56971319D01*
X66980000Y-57874474D01*
X67846896Y-57007578D01*
X69923104Y-57007578D01*
X70790000Y-57874474D01*
X71656896Y-57007578D01*
X71566965Y-56761321D01*
X70999358Y-56565129D01*
X70399879Y-56601086D01*
X70013035Y-56761321D01*
X69923104Y-57007578D01*
X67846896Y-57007578D01*
X67883155Y-56971319D01*
X67787073Y-56719882D01*
X67201317Y-56515323D01*
X66581868Y-56550494D01*
X66172927Y-56719882D01*
X66076845Y-56971319D01*
X65399600Y-56971319D01*
X65399600Y-54256007D01*
X65686007Y-53969600D01*
X67003993Y-53969600D01*
X67366558Y-54332165D01*
X67473378Y-54376411D01*
X67309327Y-54540462D01*
X67140400Y-54948287D01*
X67140400Y-55389713D01*
X67309327Y-55797538D01*
X67621462Y-56109673D01*
X68029287Y-56278600D01*
X68470713Y-56278600D01*
X68832844Y-56128600D01*
X76284518Y-56128600D01*
X75631421Y-56781698D01*
X75487854Y-56685770D01*
X75250000Y-56638458D01*
X73950000Y-56638458D01*
X73712146Y-56685770D01*
X73510503Y-56820503D01*
X73375770Y-57022146D01*
X73328458Y-57260000D01*
X73328458Y-58760000D01*
X73375770Y-58997854D01*
X73510503Y-59199497D01*
X73712146Y-59334230D01*
X73841701Y-59360000D01*
X73712146Y-59385770D01*
X73510503Y-59520503D01*
X73375770Y-59722146D01*
X73341308Y-59895400D01*
X72311542Y-59895400D01*
X72311542Y-59730000D01*
X72264230Y-59492146D01*
X72129497Y-59290503D01*
X71927854Y-59155770D01*
X71903067Y-59150840D01*
X71984718Y-59069189D01*
X71872424Y-58956895D01*
X72118679Y-58866965D01*
X72314871Y-58299358D01*
X72278914Y-57699879D01*
X72118679Y-57313035D01*
X71872422Y-57223104D01*
X71005526Y-58090000D01*
X71019669Y-58104143D01*
X70804143Y-58319669D01*
X70790000Y-58305526D01*
X70775858Y-58319669D01*
X70560332Y-58104143D01*
X70574474Y-58090000D01*
X69707578Y-57223104D01*
X69461321Y-57313035D01*
X69265129Y-57880642D01*
X69301086Y-58480121D01*
X69461321Y-58866965D01*
X69707576Y-58956895D01*
X69595282Y-59069189D01*
X69676933Y-59150840D01*
X69652146Y-59155770D01*
X69450503Y-59290503D01*
X69315770Y-59492146D01*
X69268458Y-59730000D01*
X69268458Y-61530000D01*
X69315770Y-61767854D01*
X69450503Y-61969497D01*
X69652146Y-62104230D01*
X69890000Y-62151542D01*
X71690000Y-62151542D01*
X71927854Y-62104230D01*
X72129497Y-61969497D01*
X72264230Y-61767854D01*
X72311542Y-61530000D01*
X72311542Y-61364600D01*
X73328458Y-61364600D01*
X73328458Y-61460000D01*
X73375770Y-61697854D01*
X73510503Y-61899497D01*
X73712146Y-62034230D01*
X73950000Y-62081542D01*
X75250000Y-62081542D01*
X75487854Y-62034230D01*
X75689497Y-61899497D01*
X75824230Y-61697854D01*
X75843749Y-61599722D01*
X78170400Y-61599722D01*
X78170400Y-62200278D01*
X78400223Y-62755120D01*
X78824880Y-63179777D01*
X79379722Y-63409600D01*
X79980278Y-63409600D01*
X80535120Y-63179777D01*
X80959777Y-62755120D01*
X81189600Y-62200278D01*
X81189600Y-61599722D01*
X80959777Y-61044880D01*
X80535120Y-60620223D01*
X79980278Y-60390400D01*
X79379722Y-60390400D01*
X78824880Y-60620223D01*
X78400223Y-61044880D01*
X78170400Y-61599722D01*
X75843749Y-61599722D01*
X75871542Y-61460000D01*
X75871542Y-59960000D01*
X75824230Y-59722146D01*
X75689497Y-59520503D01*
X75487854Y-59385770D01*
X75358299Y-59360000D01*
X75487854Y-59334230D01*
X75689497Y-59199497D01*
X75782891Y-59059722D01*
X80710400Y-59059722D01*
X80710400Y-59660278D01*
X80940223Y-60215120D01*
X81364880Y-60639777D01*
X81919722Y-60869600D01*
X82520278Y-60869600D01*
X83075120Y-60639777D01*
X83499777Y-60215120D01*
X83729600Y-59660278D01*
X83729600Y-59059722D01*
X83499777Y-58504880D01*
X83075120Y-58080223D01*
X82520278Y-57850400D01*
X81919722Y-57850400D01*
X81364880Y-58080223D01*
X80940223Y-58504880D01*
X80710400Y-59059722D01*
X75782891Y-59059722D01*
X75824230Y-58997854D01*
X75871542Y-58760000D01*
X75871542Y-58606484D01*
X75971617Y-58539617D01*
X76012602Y-58478278D01*
X77507782Y-56983100D01*
X87495811Y-56983100D01*
X87617108Y-57104397D01*
X87988178Y-57258100D01*
X88389822Y-57258100D01*
X88760892Y-57104397D01*
X89044897Y-56820392D01*
X89198600Y-56449322D01*
X89198600Y-56047678D01*
X89044897Y-55676608D01*
X88882934Y-55514645D01*
X89697979Y-54699600D01*
X90076125Y-54699600D01*
X90311526Y-54935001D01*
X90829613Y-55149600D01*
X91390387Y-55149600D01*
X91908474Y-54935001D01*
X92305001Y-54538474D01*
X92519600Y-54020387D01*
X92519600Y-53459613D01*
X92324208Y-52987897D01*
X92426794Y-52885311D01*
X92519600Y-52661257D01*
X92519600Y-52044800D01*
X92367200Y-51892400D01*
X91262400Y-51892400D01*
X91262400Y-51912400D01*
X91211600Y-51912400D01*
X91211600Y-51567600D01*
X91262400Y-51567600D01*
X91262400Y-51587600D01*
X92367200Y-51587600D01*
X92519600Y-51435200D01*
X92519600Y-51112100D01*
X94194937Y-51112100D01*
X94228167Y-51161833D01*
X94514051Y-51352854D01*
X94545583Y-51373923D01*
X94618458Y-51388419D01*
X94618458Y-51420000D01*
X94665770Y-51657854D01*
X94800503Y-51859497D01*
X95000957Y-51993436D01*
X94867835Y-52126558D01*
X94630400Y-52699776D01*
X94630400Y-53320224D01*
X94867835Y-53893442D01*
X95306558Y-54332165D01*
X95879776Y-54569600D01*
X96500224Y-54569600D01*
X97073442Y-54332165D01*
X97436007Y-53969600D01*
X97993400Y-53969600D01*
X97993400Y-57215522D01*
X97761542Y-57447380D01*
X97761542Y-57140000D01*
X97714230Y-56902146D01*
X97579497Y-56700503D01*
X97377854Y-56565770D01*
X97140000Y-56518458D01*
X95240000Y-56518458D01*
X95002146Y-56565770D01*
X94800503Y-56700503D01*
X94665770Y-56902146D01*
X94620368Y-57130400D01*
X94506507Y-57130400D01*
X94411999Y-57111601D01*
X94317491Y-57130400D01*
X94037583Y-57186077D01*
X93720167Y-57398167D01*
X93666630Y-57478291D01*
X92744522Y-58400400D01*
X92499796Y-58400400D01*
X92484230Y-58322146D01*
X92349497Y-58120503D01*
X92147854Y-57985770D01*
X91910000Y-57938458D01*
X90310000Y-57938458D01*
X90072146Y-57985770D01*
X89870503Y-58120503D01*
X89735770Y-58322146D01*
X89688458Y-58560000D01*
X89688458Y-60160000D01*
X89734640Y-60392171D01*
X89681499Y-60381601D01*
X89586991Y-60400400D01*
X89307083Y-60456077D01*
X88989667Y-60668167D01*
X88936128Y-60748294D01*
X88744022Y-60940400D01*
X87501844Y-60940400D01*
X87139713Y-60790400D01*
X86698287Y-60790400D01*
X86290462Y-60959327D01*
X86088143Y-61161646D01*
X86039777Y-61044880D01*
X85615120Y-60620223D01*
X85060278Y-60390400D01*
X84459722Y-60390400D01*
X83904880Y-60620223D01*
X83480223Y-61044880D01*
X83250400Y-61599722D01*
X83250400Y-62200278D01*
X83480223Y-62755120D01*
X83904880Y-63179777D01*
X84459722Y-63409600D01*
X85060278Y-63409600D01*
X85615120Y-63179777D01*
X85928400Y-62866497D01*
X85928400Y-63480400D01*
X63752844Y-63480400D01*
X63390713Y-63330400D01*
X62949287Y-63330400D01*
X62541462Y-63499327D01*
X62337389Y-63703400D01*
X58184600Y-63703400D01*
X58184600Y-45184600D01*
X97993400Y-45184600D01*
X97993400Y-46843400D01*
G04 #@! TD*
M02*
