M48
;DRILL file {KiCad 4.0.5} date 08/19/18 23:38:04
;FORMAT={-:-/ absolute / metric / decimal}
FMAT,2
METRIC,TZ
T1C0.400
T2C0.600
T3C0.800
T4C0.900
T5C1.000
T6C1.100
T7C2.000
%
G90
G05
M71
T1
X63.17Y-81.966
X63.17Y-88.57
X66.726Y-125.654
X66.726Y-133.02
X67.742Y-79.426
X67.742Y-85.014
X69.012Y-81.966
X69.012Y-85.014
X69.52Y-138.354
X72.06Y-129.718
X73.838Y-125.654
X74.854Y-81.966
X74.854Y-85.014
X74.854Y-89.84
X74.854Y-124.638
X74.854Y-127.94
X75.616Y-63.678
X75.616Y-80.188
X75.87Y-124.638
X76.124Y-132.766
X76.378Y-65.71
X76.378Y-79.426
X76.378Y-81.966
X79.426Y-86.538
X79.426Y-90.602
X79.426Y-98.73
X79.426Y-112.7
X81.458Y-96.698
X81.458Y-120.32
X82.982Y-97.46
X82.982Y-110.16
X83.744Y-95.936
X83.744Y-107.62
X83.744Y-115.24
X83.744Y-137.084
X84.76Y-53.01
X88.57Y-133.02
X88.57Y-137.084
X89.332Y-99.746
X89.332Y-122.86
X90.094Y-98.984
X90.094Y-125.4
X90.856Y-98.222
X90.856Y-127.94
X92.38Y-53.01
X92.634Y-94.412
X92.634Y-110.16
X94.92Y-95.174
X98.73Y-99.746
X98.73Y-110.16
X101.27Y-120.32
X101.27Y-136.83
X103.81Y-122.86
X103.81Y-136.83
X106.35Y-127.178
X106.35Y-133.274
X110.16Y-90.602
X110.16Y-99.746
X111.176Y-89.84
X111.176Y-92.888
X111.938Y-99.746
X111.938Y-130.988
X112.954Y-98.222
X112.954Y-119.05
X113.97Y-98.984
X113.97Y-111.43
X120.32Y-97.46
X120.32Y-115.24
X121.082Y-96.698
X121.082Y-111.43
X121.844Y-95.936
X121.844Y-119.05
X122.606Y-95.174
X122.606Y-122.86
X122.86Y-133.274
X122.86Y-139.116
X123.368Y-94.412
X123.368Y-126.67
X124.13Y-92.888
X124.13Y-130.226
X126.67Y-130.988
X126.67Y-134.036
X127.686Y-130.226
X127.686Y-131.242
X136.83Y-131.242
X136.83Y-141.656
T2
X73.33Y-65.71
X73.33Y-70.79
X73.33Y-73.33
X73.33Y-88.824
X77.902Y-91.618
X80.442Y-102.032
X80.442Y-111.684
X80.696Y-85.014
X80.696Y-87.554
X84.76Y-100.762
X84.76Y-103.81
X84.76Y-117.78
X84.76Y-135.814
X84.76Y-138.1
X84.76Y-141.656
X86.03Y-134.544
X86.03Y-142.926
X87.3Y-75.87
X87.3Y-91.618
X89.5Y-51.5
X89.84Y-73.16
X90.5Y-50.5
X96.19Y-134.29
X97.46Y-103.81
X97.46Y-117.78
X97.46Y-121.844
X98.73Y-135.814
X102.54Y-58.598
X105.08Y-73.16
X106.35Y-60.63
X108.636Y-81.712
X108.636Y-87.554
X108.636Y-100.762
X112.7Y-81.712
X114.478Y-121.844
X116.51Y-69.012
X116.51Y-88.824
X116.51Y-102.032
X116.51Y-105.08
X116.51Y-121.844
X116.51Y-132.258
X118.288Y-88.824
X119.05Y-100.762
X119.05Y-129.21
X119.812Y-84.76
X121.082Y-58.63
X121.082Y-62.154
X121.59Y-138.1
X121.59Y-143.18
X125.4Y-65.39
X125.4Y-129.21
X125.4Y-141.656
X126.924Y-88.57
X126.924Y-109.652
X130.988Y-69.012
X133.02Y-57.836
X134.544Y-109.652
X134.544Y-143.18
X135.56Y-69.012
T3
X79.68Y-49.74
X79.68Y-51.74
X87.3Y-107.62
X87.3Y-110.16
X87.3Y-112.7
X87.3Y-115.24
X87.3Y-117.78
X87.3Y-120.32
X87.3Y-122.86
X87.3Y-125.4
X87.3Y-127.94
X92.38Y-58.63
X92.38Y-60.63
X94.92Y-107.62
X94.92Y-110.16
X94.92Y-112.7
X94.92Y-115.24
X94.92Y-117.78
X94.92Y-120.32
X94.92Y-122.86
X94.92Y-125.4
X94.92Y-127.94
X132.925Y-83.49
X134.925Y-83.49
T4
X80.95Y-58.09
X83.49Y-58.09
T5
X61.9Y-112.7
X66.98Y-110.16
X74.6Y-112.7
X79.68Y-94.92
X79.68Y-135.56
X82.22Y-127.94
X82.22Y-140.64
X97.206Y-53.01
X99.746Y-50.47
X99.746Y-55.55
X110.16Y-124.13
T6
X61.9Y-117.78
X61.9Y-122.86
X63.17Y-49.2
X63.17Y-51.74
X63.17Y-56.82
X63.17Y-59.36
X63.17Y-64.44
X63.17Y-66.98
X63.17Y-72.06
X63.17Y-74.6
X64.44Y-117.78
X64.44Y-122.86
X64.44Y-140.64
X65.71Y-56.82
X65.71Y-59.36
X65.71Y-64.44
X65.71Y-66.98
X65.71Y-72.06
X65.71Y-74.6
X66.98Y-49.2
X66.98Y-51.74
X66.98Y-140.64
X68.25Y-56.82
X68.25Y-59.36
X68.25Y-64.44
X68.25Y-66.98
X68.25Y-72.06
X68.25Y-74.6
X68.25Y-117.78
X68.25Y-122.86
X70.79Y-49.2
X70.79Y-51.74
X70.79Y-56.82
X70.79Y-59.36
X70.79Y-64.44
X70.79Y-66.98
X70.79Y-72.06
X70.79Y-74.6
X70.79Y-117.78
X70.79Y-122.86
X72.06Y-140.64
X74.6Y-49.2
X74.6Y-51.74
X74.6Y-140.64
X79.68Y-117.78
X79.68Y-120.32
X82.22Y-65.71
X82.22Y-70.79
X82.22Y-75.87
X84.76Y-65.71
X84.76Y-70.79
X84.76Y-75.87
X89.84Y-82.22
X89.84Y-84.76
X93.65Y-140.64
X96.19Y-140.64
X98.73Y-140.64
X101.27Y-140.64
X103.81Y-140.64
X105.08Y-82.22
X105.08Y-84.76
X106.35Y-49.2
X106.35Y-51.74
X106.35Y-107.62
X106.35Y-110.16
X106.35Y-116.51
X106.35Y-119.05
X106.35Y-140.64
X110.16Y-49.2
X110.16Y-51.74
X110.16Y-65.71
X110.16Y-70.79
X110.16Y-75.87
X110.16Y-113.97
X110.16Y-116.51
X111.43Y-136.83
X111.43Y-139.37
X112.7Y-65.71
X112.7Y-70.79
X112.7Y-75.87
X113.97Y-126.67
X113.97Y-129.21
X113.97Y-136.83
X113.97Y-139.37
X115.24Y-49.2
X115.24Y-51.74
X116.51Y-108.89
X116.51Y-111.43
X116.51Y-116.51
X116.51Y-119.05
X116.51Y-136.83
X116.51Y-139.37
X117.78Y-49.2
X117.78Y-51.74
X119.05Y-136.83
X119.05Y-139.37
X120.32Y-49.2
X120.32Y-51.74
X122.86Y-49.2
X122.86Y-51.74
X125.4Y-111.43
X125.4Y-115.24
X125.4Y-119.05
X125.4Y-122.86
X125.4Y-126.67
X127.94Y-111.43
X127.94Y-115.24
X127.94Y-119.05
X127.94Y-122.86
X127.94Y-126.67
X133.02Y-60.63
X133.02Y-63.17
X133.02Y-70.79
X133.02Y-73.33
X133.02Y-75.87
X133.02Y-78.41
X133.02Y-88.57
X135.56Y-70.79
X135.56Y-73.33
X135.56Y-75.87
X135.56Y-78.41
X135.56Y-88.57
X136.83Y-60.63
X136.83Y-63.17
X136.83Y-113.97
X136.83Y-116.51
X136.83Y-119.05
X136.83Y-121.59
X136.83Y-124.13
X136.83Y-126.67
X136.83Y-129.21
T7
X122.86Y-65.39
X122.86Y-88.89
T0
M30
