G04 #@! TF.GenerationSoftware,KiCad,Pcbnew,(5.1.0)-1*
G04 #@! TF.CreationDate,2019-08-12T15:22:36+02:00*
G04 #@! TF.ProjectId,LampeSolaire,4c616d70-6553-46f6-9c61-6972652e6b69,7*
G04 #@! TF.SameCoordinates,Original*
G04 #@! TF.FileFunction,Copper,L1,Top*
G04 #@! TF.FilePolarity,Positive*
%FSLAX46Y46*%
G04 Gerber Fmt 4.6, Leading zero omitted, Abs format (unit mm)*
G04 Created by KiCad (PCBNEW (5.1.0)-1) date 2019-08-12 15:22:36*
%MOMM*%
%LPD*%
G04 APERTURE LIST*
%ADD10C,0.050000*%
%ADD11C,0.250000*%
%ADD12C,3.048000*%
%ADD13R,1.500000X1.250000*%
%ADD14R,2.600000X1.700000*%
%ADD15R,0.450000X0.630000*%
%ADD16R,1.700000X0.800000*%
%ADD17R,1.400000X1.000000*%
%ADD18R,1.000000X1.400000*%
%ADD19R,0.700000X1.600000*%
%ADD20R,1.560000X0.650000*%
%ADD21C,1.900000*%
%ADD22R,1.900000X1.900000*%
%ADD23R,1.500000X1.300000*%
%ADD24R,1.300000X1.500000*%
%ADD25R,1.750000X0.450000*%
%ADD26R,2.650000X2.030000*%
%ADD27R,1.250000X1.500000*%
%ADD28C,1.800000*%
%ADD29R,1.700000X1.700000*%
%ADD30O,1.700000X1.700000*%
%ADD31C,1.000000*%
%ADD32C,0.800000*%
%ADD33C,0.700000*%
%ADD34C,0.450000*%
%ADD35C,0.254000*%
G04 APERTURE END LIST*
D10*
G36*
X106982500Y-101840500D02*
G01*
X101734100Y-101840500D01*
X101737400Y-100189500D01*
X106982500Y-100189500D01*
X106982500Y-101840500D01*
G37*
X106982500Y-101840500D02*
X101734100Y-101840500D01*
X101737400Y-100189500D01*
X106982500Y-100189500D01*
X106982500Y-101840500D01*
D11*
X66046666Y-91123571D02*
X65713333Y-91123571D01*
X65713333Y-91647380D02*
X65713333Y-90647380D01*
X66189523Y-90647380D01*
X66570476Y-91552142D02*
X66618095Y-91599761D01*
X66570476Y-91647380D01*
X66522857Y-91599761D01*
X66570476Y-91552142D01*
X66570476Y-91647380D01*
X67618095Y-91552142D02*
X67570476Y-91599761D01*
X67427619Y-91647380D01*
X67332380Y-91647380D01*
X67189523Y-91599761D01*
X67094285Y-91504523D01*
X67046666Y-91409285D01*
X66999047Y-91218809D01*
X66999047Y-91075952D01*
X67046666Y-90885476D01*
X67094285Y-90790238D01*
X67189523Y-90695000D01*
X67332380Y-90647380D01*
X67427619Y-90647380D01*
X67570476Y-90695000D01*
X67618095Y-90742619D01*
X68475238Y-90980714D02*
X68475238Y-91647380D01*
X68046666Y-90980714D02*
X68046666Y-91504523D01*
X68094285Y-91599761D01*
X68189523Y-91647380D01*
X68332380Y-91647380D01*
X68427619Y-91599761D01*
X68475238Y-91552142D01*
X69713333Y-91266428D02*
X70475238Y-91266428D01*
X71570476Y-90647380D02*
X71903809Y-91647380D01*
X72237142Y-90647380D01*
X72475238Y-90647380D02*
X73141904Y-90647380D01*
X72713333Y-91647380D01*
D12*
X127460000Y-68630000D03*
X119840000Y-71170000D03*
X119840000Y-66090000D03*
X132060000Y-68630000D03*
X124440000Y-71170000D03*
X124440000Y-66090000D03*
X71840000Y-66090000D03*
X71840000Y-71170000D03*
X64220000Y-68630000D03*
D13*
X98160000Y-118160000D03*
X100660000Y-118160000D03*
D14*
X104490000Y-101015000D03*
D15*
X103540000Y-102355000D03*
X104490000Y-102355000D03*
X105440000Y-102355000D03*
X105440000Y-99675000D03*
X104490000Y-99675000D03*
X103540000Y-99675000D03*
D16*
X116050000Y-51485000D03*
X113250000Y-52435000D03*
X113250000Y-50535000D03*
X97635000Y-54025000D03*
X94835000Y-54975000D03*
X94835000Y-53075000D03*
D17*
X70980000Y-48945000D03*
X73230000Y-48945000D03*
D18*
X128620000Y-122115000D03*
X128620000Y-124365000D03*
D19*
X122585000Y-52985000D03*
X120685000Y-52985000D03*
X120685000Y-49985000D03*
X121635000Y-49985000D03*
X122585000Y-49985000D03*
D20*
X70755000Y-53070000D03*
X70755000Y-51170000D03*
X73455000Y-51170000D03*
X73455000Y-52120000D03*
X73455000Y-53070000D03*
D16*
X103725000Y-48945000D03*
X106525000Y-47995000D03*
X106525000Y-49895000D03*
X106525000Y-54025000D03*
X103725000Y-54975000D03*
X103725000Y-53075000D03*
D21*
X82265000Y-52120000D03*
D22*
X79725000Y-52120000D03*
D21*
X127350000Y-52755000D03*
D22*
X127350000Y-50215000D03*
D21*
X132430000Y-52755000D03*
D22*
X132430000Y-50215000D03*
D23*
X76470000Y-48945000D03*
X79170000Y-48945000D03*
D24*
X110205000Y-52835000D03*
X110205000Y-50135000D03*
X100680000Y-56645000D03*
X100680000Y-53945000D03*
X128620000Y-116810000D03*
X128620000Y-119510000D03*
X96235000Y-94745000D03*
X96235000Y-92045000D03*
X98140000Y-115065000D03*
X98140000Y-112365000D03*
D25*
X93485000Y-109020000D03*
X93485000Y-108370000D03*
X93485000Y-107720000D03*
X93485000Y-107070000D03*
X93485000Y-106420000D03*
X93485000Y-105770000D03*
X93485000Y-105120000D03*
X93485000Y-104470000D03*
X93485000Y-103820000D03*
X93485000Y-103170000D03*
X86285000Y-103170000D03*
X86285000Y-103820000D03*
X86285000Y-104470000D03*
X86285000Y-105120000D03*
X86285000Y-105770000D03*
X86285000Y-106420000D03*
X86285000Y-107070000D03*
X86285000Y-107720000D03*
X86285000Y-108370000D03*
X86285000Y-109020000D03*
D23*
X70755000Y-55295000D03*
X73455000Y-55295000D03*
D26*
X98325000Y-48945000D03*
X94145000Y-48945000D03*
D23*
X105045000Y-95300000D03*
X107745000Y-95300000D03*
D27*
X65755000Y-50870000D03*
X65755000Y-53370000D03*
X107665000Y-106075000D03*
X107665000Y-103575000D03*
X91155000Y-50870000D03*
X91155000Y-53370000D03*
D28*
X132430000Y-88950000D03*
X127350000Y-91490000D03*
X119730000Y-88950000D03*
X132430000Y-109270000D03*
X127350000Y-111810000D03*
X119730000Y-109270000D03*
D13*
X113400000Y-54660000D03*
X115900000Y-54660000D03*
X113400000Y-57200000D03*
X115900000Y-57200000D03*
X131140000Y-55930000D03*
X128640000Y-55930000D03*
X88635000Y-113080000D03*
X91135000Y-113080000D03*
D27*
X96235000Y-86430000D03*
X96235000Y-88930000D03*
D13*
X105145000Y-92760000D03*
X107645000Y-92760000D03*
D29*
X65120000Y-112445000D03*
D30*
X65120000Y-114985000D03*
X65120000Y-117525000D03*
X65120000Y-120065000D03*
X65120000Y-122605000D03*
D23*
X121555000Y-97205000D03*
X124255000Y-97205000D03*
X121555000Y-103555000D03*
X124255000Y-103555000D03*
D21*
X98140000Y-124510000D03*
X95600000Y-124510000D03*
X93060000Y-124510000D03*
X85440000Y-124510000D03*
X87980000Y-124510000D03*
X90520000Y-124510000D03*
X100680000Y-124510000D03*
X82265000Y-88950000D03*
D22*
X82265000Y-86410000D03*
D21*
X91155000Y-88950000D03*
D22*
X91155000Y-86410000D03*
D21*
X114015000Y-97205000D03*
D22*
X111475000Y-97205000D03*
D21*
X114015000Y-103555000D03*
D22*
X111475000Y-103555000D03*
D21*
X62580000Y-53390000D03*
D22*
X62580000Y-50850000D03*
D21*
X87980000Y-53390000D03*
D22*
X87980000Y-50850000D03*
D18*
X132430000Y-78935000D03*
X132430000Y-81185000D03*
X126080000Y-122115000D03*
X126080000Y-124365000D03*
D24*
X129890000Y-81410000D03*
X129890000Y-78710000D03*
X126080000Y-116810000D03*
X126080000Y-119510000D03*
D18*
X117190000Y-122115000D03*
X117190000Y-124365000D03*
X119730000Y-124365000D03*
X119730000Y-122115000D03*
D23*
X114730000Y-119430000D03*
X112030000Y-119430000D03*
X112030000Y-116890000D03*
X114730000Y-116890000D03*
X120920000Y-80060000D03*
X123620000Y-80060000D03*
X118540000Y-80060000D03*
X115840000Y-80060000D03*
D22*
X100680000Y-86410000D03*
D21*
X100680000Y-88950000D03*
D31*
X96108000Y-106095000D03*
X96108000Y-113080000D03*
X102331000Y-97205000D03*
X100680000Y-113080000D03*
X96108000Y-97205000D03*
X96108000Y-116534400D03*
X108554000Y-54025000D03*
X111221000Y-57200000D03*
X124048000Y-49961000D03*
D32*
X75280000Y-53136000D03*
X80995000Y-48945000D03*
X119222000Y-49961000D03*
X111729000Y-49072000D03*
X98140000Y-107111000D03*
X98140000Y-110794000D03*
X77947000Y-105079000D03*
X77947000Y-120065000D03*
X78709000Y-104317000D03*
X78709000Y-122605000D03*
D31*
X91155000Y-55041000D03*
X91155000Y-46786000D03*
X126080000Y-56184000D03*
D32*
X99029000Y-91998000D03*
X99029000Y-108000000D03*
X84043000Y-106095000D03*
X84043000Y-113080000D03*
X86710000Y-86410000D03*
X113634000Y-86410000D03*
X127985000Y-81457000D03*
X127985000Y-86410000D03*
X96235000Y-83489000D03*
X98160000Y-120045000D03*
X102331000Y-120065000D03*
D31*
X119730000Y-103555000D03*
X119730000Y-97205000D03*
D32*
X106141000Y-98348000D03*
X101315000Y-98348000D03*
X81122000Y-119049000D03*
X90520000Y-119049000D03*
X81122000Y-107873000D03*
X81884000Y-118287000D03*
X87980000Y-118287000D03*
X81884000Y-108635000D03*
X79598000Y-103428000D03*
X79598000Y-120573000D03*
X85440000Y-120573000D03*
X82646000Y-117525000D03*
X95600000Y-117525000D03*
X82646000Y-109397000D03*
X80360000Y-107111000D03*
X80360000Y-119811000D03*
X93060000Y-119811000D03*
X101696000Y-105079000D03*
X101696000Y-112064000D03*
X123032000Y-112064000D03*
X130271000Y-124383000D03*
X102585000Y-103936000D03*
X102585000Y-111175000D03*
X124175000Y-111175000D03*
X124175000Y-124383000D03*
X124175000Y-116763000D03*
X103347000Y-108889000D03*
X105760000Y-124383000D03*
X104236000Y-109778000D03*
X121508000Y-124383000D03*
X100172000Y-102920000D03*
X118587000Y-82346000D03*
X100680000Y-82346000D03*
D33*
X65735000Y-50850000D02*
X65755000Y-50870000D01*
X62580000Y-50850000D02*
X65735000Y-50850000D01*
X70755000Y-51170000D02*
X68615000Y-51170000D01*
X68315000Y-50870000D02*
X65755000Y-50870000D01*
X68615000Y-51170000D02*
X68315000Y-50870000D01*
X70980000Y-48945000D02*
X68930000Y-48945000D01*
X68315000Y-49560000D02*
X68315000Y-50870000D01*
X68930000Y-48945000D02*
X68315000Y-49560000D01*
X127350000Y-52755000D02*
X127350000Y-53517000D01*
X128640000Y-54045000D02*
X127350000Y-52755000D01*
X128640000Y-55930000D02*
X128640000Y-54045000D01*
D34*
X93485000Y-106420000D02*
X95783000Y-106420000D01*
X95783000Y-106420000D02*
X96108000Y-106095000D01*
X95783000Y-105770000D02*
X96108000Y-106095000D01*
X93485000Y-105770000D02*
X95783000Y-105770000D01*
D33*
X96108000Y-113080000D02*
X91135000Y-113080000D01*
D34*
X105440000Y-102355000D02*
X105440000Y-103108000D01*
X105440000Y-103108000D02*
X105887000Y-103555000D01*
D33*
X111475000Y-103555000D02*
X111475000Y-97205000D01*
X104490000Y-101015000D02*
X102331000Y-101015000D01*
X102331000Y-101015000D02*
X102331000Y-97205000D01*
X107645000Y-92760000D02*
X111475000Y-92760000D01*
X107745000Y-95300000D02*
X111475000Y-95300000D01*
X111475000Y-92760000D02*
X111475000Y-95300000D01*
X111475000Y-95300000D02*
X111475000Y-97205000D01*
X107645000Y-103555000D02*
X107665000Y-103575000D01*
D34*
X105887000Y-103555000D02*
X107645000Y-103555000D01*
D33*
X107685000Y-103555000D02*
X107665000Y-103575000D01*
X111475000Y-103555000D02*
X107685000Y-103555000D01*
X100680000Y-118180000D02*
X100660000Y-118160000D01*
X100680000Y-124510000D02*
X100680000Y-118180000D01*
X100680000Y-118140000D02*
X100660000Y-118160000D01*
X100680000Y-113080000D02*
X100680000Y-118140000D01*
X96108000Y-94872000D02*
X96235000Y-94745000D01*
X96108000Y-97205000D02*
X96108000Y-94872000D01*
X96108000Y-97205000D02*
X102331000Y-97205000D01*
X132430000Y-81185000D02*
X132430000Y-84124000D01*
X65120000Y-117525000D02*
X68396600Y-117525000D01*
X68396600Y-117525000D02*
X69387200Y-116534400D01*
X69387200Y-116534400D02*
X96108000Y-116534400D01*
X134843000Y-84124000D02*
X132430000Y-84124000D01*
X128640000Y-58109000D02*
X129636000Y-59105000D01*
X128640000Y-55930000D02*
X128640000Y-58109000D01*
X129636000Y-59105000D02*
X135605000Y-59105000D01*
X135605000Y-59105000D02*
X136367000Y-59867000D01*
X136367000Y-59867000D02*
X136367000Y-82600000D01*
X136367000Y-82600000D02*
X134843000Y-84124000D01*
X111475000Y-85521000D02*
X111475000Y-92760000D01*
X112872000Y-84124000D02*
X111475000Y-85521000D01*
X115840000Y-84077000D02*
X115793000Y-84124000D01*
X115840000Y-80060000D02*
X115840000Y-84077000D01*
X132430000Y-84124000D02*
X115793000Y-84124000D01*
X115793000Y-84124000D02*
X112872000Y-84124000D01*
X106525000Y-54025000D02*
X108554000Y-54025000D01*
X111221000Y-57200000D02*
X113400000Y-57200000D01*
X122609000Y-49961000D02*
X122585000Y-49985000D01*
X124048000Y-49961000D02*
X122609000Y-49961000D01*
D34*
X103540000Y-99675000D02*
X103540000Y-98790000D01*
D33*
X103540000Y-85455000D02*
X112491000Y-76504000D01*
X103606000Y-92760000D02*
X103540000Y-92694000D01*
X105145000Y-92760000D02*
X103606000Y-92760000D01*
X103540000Y-98790000D02*
X103540000Y-92694000D01*
X103540000Y-92694000D02*
X103540000Y-85455000D01*
X113400000Y-57200000D02*
X113400000Y-58617000D01*
X113400000Y-58617000D02*
X114904000Y-60121000D01*
X114904000Y-60121000D02*
X134335000Y-60121000D01*
X134335000Y-60121000D02*
X135224000Y-61010000D01*
X135224000Y-61010000D02*
X135224000Y-75869000D01*
X135224000Y-75869000D02*
X134589000Y-76504000D01*
X123620000Y-76551000D02*
X123667000Y-76504000D01*
X123620000Y-80060000D02*
X123620000Y-76551000D01*
X134589000Y-76504000D02*
X123667000Y-76504000D01*
X123667000Y-76504000D02*
X112491000Y-76504000D01*
D11*
X75214000Y-53070000D02*
X75280000Y-53136000D01*
X73455000Y-53070000D02*
X75214000Y-53070000D01*
X79170000Y-48945000D02*
X80995000Y-48945000D01*
X70755000Y-53070000D02*
X70755000Y-55295000D01*
X109965000Y-49895000D02*
X110205000Y-50135000D01*
X106525000Y-49895000D02*
X109965000Y-49895000D01*
X120685000Y-49985000D02*
X119246000Y-49985000D01*
X119246000Y-49985000D02*
X119222000Y-49961000D01*
X113250000Y-50535000D02*
X112176000Y-50535000D01*
X111729000Y-50088000D02*
X111729000Y-49072000D01*
X112176000Y-50535000D02*
X111729000Y-50088000D01*
X110252000Y-50088000D02*
X110205000Y-50135000D01*
X111729000Y-50088000D02*
X110252000Y-50088000D01*
X100680000Y-53945000D02*
X101522000Y-53945000D01*
X102392000Y-53075000D02*
X103725000Y-53075000D01*
X101522000Y-53945000D02*
X102392000Y-53075000D01*
X103725000Y-53075000D02*
X103725000Y-48945000D01*
X93485000Y-107070000D02*
X98099000Y-107070000D01*
X98099000Y-107070000D02*
X98140000Y-107111000D01*
X98140000Y-110794000D02*
X98140000Y-112365000D01*
X70403200Y-110794000D02*
X98140000Y-110794000D01*
X65120000Y-112445000D02*
X68752200Y-112445000D01*
X68752200Y-112445000D02*
X70403200Y-110794000D01*
X86285000Y-105120000D02*
X77988000Y-105120000D01*
X77988000Y-105120000D02*
X77947000Y-105079000D01*
X77947000Y-120065000D02*
X65120000Y-120065000D01*
X65120000Y-122605000D02*
X78709000Y-122605000D01*
X86285000Y-104470000D02*
X83307000Y-104470000D01*
X83307000Y-104470000D02*
X83154000Y-104317000D01*
X83154000Y-104317000D02*
X78709000Y-104317000D01*
D33*
X77820000Y-52120000D02*
X79725000Y-52120000D01*
X73455000Y-51170000D02*
X76870000Y-51170000D01*
X76870000Y-51170000D02*
X77820000Y-52120000D01*
X65735000Y-53390000D02*
X65755000Y-53370000D01*
X62580000Y-53390000D02*
X65735000Y-53390000D01*
X65755000Y-53370000D02*
X65755000Y-55295000D01*
X65755000Y-55295000D02*
X67660000Y-57200000D01*
X75280000Y-57200000D02*
X76550000Y-55930000D01*
X75915000Y-52120000D02*
X73455000Y-52120000D01*
X76550000Y-52755000D02*
X75915000Y-52120000D01*
X73455000Y-57120000D02*
X73375000Y-57200000D01*
X73455000Y-55295000D02*
X73455000Y-57120000D01*
X67660000Y-57200000D02*
X73375000Y-57200000D01*
X73375000Y-57200000D02*
X75280000Y-57200000D01*
X91135000Y-53390000D02*
X91155000Y-53370000D01*
X87980000Y-53390000D02*
X91135000Y-53390000D01*
X87980000Y-53390000D02*
X86075000Y-53390000D01*
X84805000Y-54660000D02*
X76550000Y-54660000D01*
X86075000Y-53390000D02*
X84805000Y-54660000D01*
X76550000Y-55930000D02*
X76550000Y-54660000D01*
X76550000Y-54660000D02*
X76550000Y-52755000D01*
X94835000Y-53075000D02*
X93375000Y-53075000D01*
X93080000Y-53370000D02*
X91155000Y-53370000D01*
X93375000Y-53075000D02*
X93080000Y-53370000D01*
X91155000Y-53370000D02*
X91155000Y-55041000D01*
X91155000Y-46786000D02*
X106141000Y-46786000D01*
X106525000Y-47170000D02*
X106525000Y-47995000D01*
X106141000Y-46786000D02*
X106525000Y-47170000D01*
X106525000Y-47995000D02*
X115981000Y-47995000D01*
X116050000Y-54510000D02*
X115900000Y-54660000D01*
X115900000Y-57200000D02*
X115900000Y-54660000D01*
X116050000Y-51485000D02*
X116050000Y-52885000D01*
X116150000Y-52985000D02*
X116050000Y-52885000D01*
X120685000Y-52985000D02*
X116150000Y-52985000D01*
X116050000Y-52885000D02*
X116050000Y-54510000D01*
X116050000Y-48064000D02*
X115981000Y-47995000D01*
X116050000Y-51485000D02*
X116050000Y-48064000D01*
X127350000Y-50215000D02*
X127350000Y-48310000D01*
X127350000Y-48310000D02*
X127035000Y-47995000D01*
X121635000Y-48056000D02*
X121574000Y-47995000D01*
X121635000Y-49985000D02*
X121635000Y-48056000D01*
X115981000Y-47995000D02*
X121574000Y-47995000D01*
X121574000Y-47995000D02*
X127035000Y-47995000D01*
X82265000Y-52120000D02*
X84170000Y-52120000D01*
X84170000Y-52120000D02*
X85440000Y-50850000D01*
X85440000Y-50850000D02*
X87980000Y-50850000D01*
X88000000Y-50870000D02*
X87980000Y-50850000D01*
X91155000Y-50870000D02*
X88000000Y-50870000D01*
X91155000Y-49707000D02*
X91917000Y-48945000D01*
X91155000Y-50870000D02*
X91155000Y-49707000D01*
X94145000Y-48945000D02*
X91917000Y-48945000D01*
X122585000Y-54975000D02*
X123794000Y-56184000D01*
X123794000Y-56184000D02*
X126080000Y-56184000D01*
X122585000Y-52985000D02*
X122585000Y-54975000D01*
X95426000Y-56645000D02*
X100680000Y-56645000D01*
X94835000Y-56054000D02*
X95426000Y-56645000D01*
X94835000Y-54975000D02*
X94835000Y-56054000D01*
X100727000Y-56692000D02*
X100680000Y-56645000D01*
X103728000Y-56692000D02*
X100727000Y-56692000D01*
X103728000Y-54978000D02*
X103725000Y-54975000D01*
X103728000Y-56692000D02*
X103728000Y-54978000D01*
X113250000Y-52435000D02*
X111795000Y-52435000D01*
X111395000Y-52835000D02*
X110205000Y-52835000D01*
X111795000Y-52435000D02*
X111395000Y-52835000D01*
X103728000Y-56692000D02*
X109062000Y-56692000D01*
X109062000Y-56692000D02*
X110205000Y-55549000D01*
X113400000Y-54660000D02*
X110205000Y-54660000D01*
X110205000Y-55549000D02*
X110205000Y-54660000D01*
X110205000Y-54660000D02*
X110205000Y-52835000D01*
X98325000Y-48945000D02*
X98325000Y-50919000D01*
X97635000Y-51609000D02*
X97635000Y-54025000D01*
X98325000Y-50919000D02*
X97635000Y-51609000D01*
D11*
X96235000Y-88930000D02*
X96235000Y-92045000D01*
X96215000Y-88950000D02*
X96235000Y-88930000D01*
X91155000Y-88950000D02*
X96215000Y-88950000D01*
X96282000Y-91998000D02*
X96235000Y-92045000D01*
X99029000Y-91998000D02*
X96282000Y-91998000D01*
X93485000Y-107720000D02*
X95320000Y-107720000D01*
X95600000Y-108000000D02*
X99029000Y-108000000D01*
X95320000Y-107720000D02*
X95600000Y-108000000D01*
X86285000Y-103170000D02*
X83708800Y-103170000D01*
X82265000Y-101726200D02*
X82265000Y-88950000D01*
X83708800Y-103170000D02*
X82265000Y-101726200D01*
D34*
X131140000Y-54045000D02*
X132430000Y-52755000D01*
X131140000Y-55930000D02*
X131140000Y-54045000D01*
X86285000Y-106420000D02*
X84368000Y-106420000D01*
X84368000Y-106420000D02*
X84043000Y-106095000D01*
X84368000Y-105770000D02*
X84043000Y-106095000D01*
X86285000Y-105770000D02*
X84368000Y-105770000D01*
X84043000Y-113080000D02*
X88635000Y-113080000D01*
X98160000Y-124490000D02*
X98140000Y-124510000D01*
X98160000Y-115085000D02*
X98140000Y-115065000D01*
X98160000Y-118160000D02*
X98160000Y-115085000D01*
X91175000Y-86430000D02*
X91155000Y-86410000D01*
X96235000Y-86430000D02*
X91175000Y-86430000D01*
X82265000Y-86410000D02*
X86710000Y-86410000D01*
X86710000Y-86410000D02*
X91155000Y-86410000D01*
X94504000Y-115065000D02*
X98140000Y-115065000D01*
X98160000Y-120045000D02*
X98160000Y-124490000D01*
X98160000Y-118160000D02*
X98160000Y-120045000D01*
X65200000Y-115065000D02*
X65120000Y-114985000D01*
X84043000Y-115043400D02*
X84021400Y-115065000D01*
X84043000Y-113080000D02*
X84043000Y-115043400D01*
X94504000Y-115065000D02*
X84021400Y-115065000D01*
X84021400Y-115065000D02*
X65200000Y-115065000D01*
X129890000Y-81410000D02*
X128032000Y-81410000D01*
X128032000Y-81410000D02*
X127985000Y-81457000D01*
X113634000Y-86410000D02*
X127985000Y-86410000D01*
X136494000Y-86410000D02*
X127985000Y-86410000D01*
X131140000Y-55930000D02*
X131140000Y-57307000D01*
X131140000Y-57307000D02*
X131922000Y-58089000D01*
X131922000Y-58089000D02*
X137002000Y-58089000D01*
X137002000Y-58089000D02*
X137637000Y-58724000D01*
X137637000Y-58724000D02*
X137637000Y-85267000D01*
X137637000Y-85267000D02*
X136494000Y-86410000D01*
X96235000Y-86430000D02*
X96235000Y-83489000D01*
X128620000Y-116810000D02*
X128620000Y-115239000D01*
X128620000Y-115239000D02*
X127731000Y-114350000D01*
X126080000Y-116810000D02*
X126080000Y-114350000D01*
X127731000Y-114350000D02*
X126080000Y-114350000D01*
X126080000Y-114350000D02*
X112110000Y-114350000D01*
X112030000Y-114430000D02*
X112110000Y-114350000D01*
X112030000Y-116890000D02*
X112030000Y-114430000D01*
X109824000Y-115112000D02*
X109824000Y-119430000D01*
X110586000Y-114350000D02*
X109824000Y-115112000D01*
X112110000Y-114350000D02*
X110586000Y-114350000D01*
X112030000Y-119430000D02*
X109824000Y-119430000D01*
X109189000Y-120065000D02*
X109824000Y-119430000D01*
X102331000Y-120065000D02*
X109189000Y-120065000D01*
D33*
X121555000Y-103555000D02*
X119730000Y-103555000D01*
X121555000Y-97205000D02*
X119730000Y-97205000D01*
X107665000Y-106075000D02*
X111963000Y-106075000D01*
X115158000Y-109270000D02*
X119730000Y-109270000D01*
X111963000Y-106075000D02*
X115158000Y-109270000D01*
D34*
X104025500Y-106075000D02*
X103537500Y-105587000D01*
X103540000Y-105584500D02*
X103537500Y-105587000D01*
D33*
X107665000Y-106075000D02*
X104510000Y-106075000D01*
D34*
X104510000Y-106075000D02*
X104025500Y-106075000D01*
X104490000Y-106055000D02*
X104510000Y-106075000D01*
X104490000Y-102355000D02*
X104490000Y-106055000D01*
X103540000Y-102355000D02*
X103540000Y-105584500D01*
D11*
X104490000Y-99675000D02*
X104490000Y-98856000D01*
X104998000Y-98348000D02*
X106141000Y-98348000D01*
X104490000Y-98856000D02*
X104998000Y-98348000D01*
X104998000Y-95347000D02*
X105045000Y-95300000D01*
X104998000Y-98348000D02*
X104998000Y-95347000D01*
X100172000Y-98348000D02*
X101315000Y-98348000D01*
X95350000Y-103170000D02*
X100172000Y-98348000D01*
X93485000Y-103170000D02*
X95350000Y-103170000D01*
X73230000Y-48945000D02*
X76470000Y-48945000D01*
D33*
X126080000Y-97205000D02*
X124255000Y-97205000D01*
X127350000Y-95935000D02*
X126080000Y-97205000D01*
X127350000Y-91490000D02*
X127350000Y-94665000D01*
X127350000Y-94665000D02*
X127350000Y-95935000D01*
X117190000Y-97205000D02*
X119730000Y-94665000D01*
X114015000Y-97205000D02*
X117190000Y-97205000D01*
X119730000Y-94665000D02*
X127350000Y-94665000D01*
X114015000Y-103555000D02*
X117190000Y-103555000D01*
X119730000Y-106095000D02*
X127350000Y-106095000D01*
X117190000Y-103555000D02*
X119730000Y-106095000D01*
X126080000Y-103555000D02*
X127350000Y-104825000D01*
X124255000Y-103555000D02*
X126080000Y-103555000D01*
X127350000Y-104825000D02*
X127350000Y-106095000D01*
X127350000Y-111810000D02*
X127350000Y-106095000D01*
D11*
X128620000Y-122115000D02*
X128620000Y-119510000D01*
X81122000Y-119049000D02*
X90520000Y-119049000D01*
X86285000Y-107720000D02*
X83053000Y-107720000D01*
X83053000Y-107720000D02*
X82900000Y-107873000D01*
X82900000Y-107873000D02*
X81122000Y-107873000D01*
X81884000Y-118287000D02*
X87980000Y-118287000D01*
X86285000Y-108370000D02*
X83419000Y-108370000D01*
X83419000Y-108370000D02*
X83154000Y-108635000D01*
X83154000Y-108635000D02*
X81884000Y-108635000D01*
X86285000Y-103820000D02*
X83546000Y-103820000D01*
X83546000Y-103820000D02*
X83154000Y-103428000D01*
X83154000Y-103428000D02*
X79598000Y-103428000D01*
X79598000Y-120573000D02*
X85440000Y-120573000D01*
X82646000Y-117525000D02*
X95600000Y-117525000D01*
X86285000Y-109020000D02*
X84039000Y-109020000D01*
X84039000Y-109020000D02*
X83662000Y-109397000D01*
X83662000Y-109397000D02*
X82646000Y-109397000D01*
X86285000Y-107070000D02*
X80401000Y-107070000D01*
X80401000Y-107070000D02*
X80360000Y-107111000D01*
X80360000Y-119811000D02*
X93060000Y-119811000D01*
X93485000Y-105120000D02*
X101655000Y-105120000D01*
X101655000Y-105120000D02*
X101696000Y-105079000D01*
X101696000Y-112064000D02*
X123032000Y-112064000D01*
X128638000Y-124383000D02*
X128620000Y-124365000D01*
X130271000Y-124383000D02*
X128638000Y-124383000D01*
X132205000Y-78710000D02*
X132430000Y-78935000D01*
X129890000Y-78710000D02*
X132205000Y-78710000D01*
X126080000Y-119510000D02*
X126080000Y-122115000D01*
X93485000Y-104470000D02*
X99765000Y-104470000D01*
X99765000Y-104470000D02*
X100299000Y-103936000D01*
X100299000Y-103936000D02*
X102585000Y-103936000D01*
X102585000Y-111175000D02*
X124175000Y-111175000D01*
X126062000Y-124383000D02*
X126080000Y-124365000D01*
X124175000Y-124383000D02*
X126062000Y-124383000D01*
X124175000Y-116763000D02*
X124175000Y-124383000D01*
X114730000Y-119430000D02*
X116428000Y-119430000D01*
X117190000Y-120192000D02*
X117190000Y-122115000D01*
X116428000Y-119430000D02*
X117190000Y-120192000D01*
X93485000Y-108370000D02*
X95208000Y-108370000D01*
X95208000Y-108370000D02*
X95727000Y-108889000D01*
X95727000Y-108889000D02*
X103347000Y-108889000D01*
X117172000Y-124383000D02*
X117190000Y-124365000D01*
X105760000Y-124383000D02*
X117172000Y-124383000D01*
X93485000Y-109020000D02*
X94715000Y-109020000D01*
X94715000Y-109020000D02*
X95473000Y-109778000D01*
X95473000Y-109778000D02*
X104236000Y-109778000D01*
X119730000Y-124365000D02*
X121490000Y-124365000D01*
X121490000Y-124365000D02*
X121508000Y-124383000D01*
X114730000Y-116890000D02*
X118714000Y-116890000D01*
X119730000Y-117906000D02*
X119730000Y-122115000D01*
X118714000Y-116890000D02*
X119730000Y-117906000D01*
X93485000Y-103820000D02*
X96399757Y-103820000D01*
X96399757Y-103820000D02*
X97299757Y-102920000D01*
X97299757Y-102920000D02*
X100172000Y-102920000D01*
X120920000Y-80060000D02*
X118540000Y-80060000D01*
X118587000Y-80107000D02*
X118540000Y-80060000D01*
X118587000Y-82346000D02*
X118587000Y-80107000D01*
X100680000Y-82346000D02*
X100680000Y-86410000D01*
D35*
G36*
X70873000Y-47810000D02*
G01*
X70852998Y-47810000D01*
X70852998Y-47968748D01*
X70694250Y-47810000D01*
X70280000Y-47806928D01*
X70155518Y-47819188D01*
X70035820Y-47855498D01*
X69925506Y-47914463D01*
X69828815Y-47993815D01*
X69749463Y-48090506D01*
X69690498Y-48200820D01*
X69654188Y-48320518D01*
X69641928Y-48445000D01*
X69645000Y-48659250D01*
X69803750Y-48818000D01*
X70853000Y-48818000D01*
X70853000Y-48798000D01*
X70873000Y-48798000D01*
X70873000Y-49092000D01*
X70853000Y-49092000D01*
X70853000Y-49072000D01*
X69803750Y-49072000D01*
X69645000Y-49230750D01*
X69641928Y-49445000D01*
X69654188Y-49569482D01*
X69690498Y-49689180D01*
X69749463Y-49799494D01*
X69828815Y-49896185D01*
X69925506Y-49975537D01*
X70035820Y-50034502D01*
X70155518Y-50070812D01*
X70280000Y-50083072D01*
X70694250Y-50080000D01*
X70852998Y-49921252D01*
X70852998Y-50080000D01*
X70873000Y-50080000D01*
X70873000Y-51317000D01*
X70628000Y-51317000D01*
X70628000Y-51297000D01*
X69498750Y-51297000D01*
X69340000Y-51455750D01*
X69336928Y-51495000D01*
X69349188Y-51619482D01*
X69385498Y-51739180D01*
X69444463Y-51849494D01*
X69523815Y-51946185D01*
X69620506Y-52025537D01*
X69700811Y-52068462D01*
X69695443Y-52070090D01*
X69569147Y-52137597D01*
X69458446Y-52228446D01*
X69367597Y-52339147D01*
X69300090Y-52465443D01*
X69258520Y-52602483D01*
X69244483Y-52745000D01*
X69244483Y-53395000D01*
X69258520Y-53537517D01*
X69300090Y-53674557D01*
X69367597Y-53800853D01*
X69458446Y-53911554D01*
X69569147Y-54002403D01*
X69617068Y-54028018D01*
X69599147Y-54037597D01*
X69488446Y-54128446D01*
X69397597Y-54239147D01*
X69330090Y-54365443D01*
X69288520Y-54502483D01*
X69274483Y-54645000D01*
X69274483Y-55945000D01*
X69288520Y-56087517D01*
X69299283Y-56123000D01*
X68106108Y-56123000D01*
X66832000Y-54848893D01*
X66832000Y-54689532D01*
X66896554Y-54636554D01*
X66987403Y-54525853D01*
X67054910Y-54399557D01*
X67096480Y-54262517D01*
X67110517Y-54120000D01*
X67110517Y-52620000D01*
X67096480Y-52477483D01*
X67054910Y-52340443D01*
X66987403Y-52214147D01*
X66896554Y-52103446D01*
X66841672Y-52058406D01*
X66910537Y-51974494D01*
X66969502Y-51864180D01*
X67005812Y-51744482D01*
X67018072Y-51620000D01*
X67015000Y-51155750D01*
X66856250Y-50997000D01*
X65882000Y-50997000D01*
X65882000Y-51017000D01*
X65628000Y-51017000D01*
X65628000Y-50997000D01*
X64653750Y-50997000D01*
X64495000Y-51155750D01*
X64491928Y-51620000D01*
X64504188Y-51744482D01*
X64540498Y-51864180D01*
X64599463Y-51974494D01*
X64668328Y-52058406D01*
X64613446Y-52103446D01*
X64522597Y-52214147D01*
X64469759Y-52313000D01*
X63905863Y-52313000D01*
X63981185Y-52251185D01*
X64060537Y-52154494D01*
X64119502Y-52044180D01*
X64155812Y-51924482D01*
X64168072Y-51800000D01*
X64165000Y-51135750D01*
X64006250Y-50977000D01*
X62707000Y-50977000D01*
X62707000Y-50997000D01*
X62453000Y-50997000D01*
X62453000Y-50977000D01*
X61153750Y-50977000D01*
X60995000Y-51135750D01*
X60991928Y-51800000D01*
X61004188Y-51924482D01*
X61040498Y-52044180D01*
X61099463Y-52154494D01*
X61178815Y-52251185D01*
X61272596Y-52328149D01*
X61093862Y-52595643D01*
X60967446Y-52900837D01*
X60903000Y-53224830D01*
X60903000Y-53555170D01*
X60967446Y-53879163D01*
X61093862Y-54184357D01*
X61277389Y-54459025D01*
X61510975Y-54692611D01*
X61785643Y-54876138D01*
X62090837Y-55002554D01*
X62414830Y-55067000D01*
X62745170Y-55067000D01*
X63069163Y-55002554D01*
X63374357Y-54876138D01*
X63649025Y-54692611D01*
X63874636Y-54467000D01*
X64491139Y-54467000D01*
X64522597Y-54525853D01*
X64613446Y-54636554D01*
X64678001Y-54689532D01*
X64678001Y-55242084D01*
X64672789Y-55295000D01*
X64689240Y-55462021D01*
X64693584Y-55506129D01*
X64755168Y-55709144D01*
X64855175Y-55896244D01*
X64989762Y-56060239D01*
X65030861Y-56093968D01*
X66861032Y-57924140D01*
X66894761Y-57965239D01*
X66935858Y-57998966D01*
X67058755Y-58099826D01*
X67158762Y-58153280D01*
X67245856Y-58199833D01*
X67448871Y-58261417D01*
X67607091Y-58277000D01*
X67607093Y-58277000D01*
X67660000Y-58282211D01*
X67712907Y-58277000D01*
X70873000Y-58277000D01*
X70873000Y-59873000D01*
X58302000Y-59873000D01*
X58302000Y-50845000D01*
X69336928Y-50845000D01*
X69340000Y-50884250D01*
X69498750Y-51043000D01*
X70628000Y-51043000D01*
X70628000Y-50368750D01*
X70469250Y-50210000D01*
X69975000Y-50206928D01*
X69850518Y-50219188D01*
X69730820Y-50255498D01*
X69620506Y-50314463D01*
X69523815Y-50393815D01*
X69444463Y-50490506D01*
X69385498Y-50600820D01*
X69349188Y-50720518D01*
X69336928Y-50845000D01*
X58302000Y-50845000D01*
X58302000Y-49900000D01*
X60991928Y-49900000D01*
X60995000Y-50564250D01*
X61153750Y-50723000D01*
X62453000Y-50723000D01*
X62453000Y-49423750D01*
X62707000Y-49423750D01*
X62707000Y-50723000D01*
X64006250Y-50723000D01*
X64165000Y-50564250D01*
X64167054Y-50120000D01*
X64491928Y-50120000D01*
X64495000Y-50584250D01*
X64653750Y-50743000D01*
X65628000Y-50743000D01*
X65628000Y-49643750D01*
X65882000Y-49643750D01*
X65882000Y-50743000D01*
X66856250Y-50743000D01*
X67015000Y-50584250D01*
X67018072Y-50120000D01*
X67005812Y-49995518D01*
X66969502Y-49875820D01*
X66910537Y-49765506D01*
X66831185Y-49668815D01*
X66734494Y-49589463D01*
X66624180Y-49530498D01*
X66504482Y-49494188D01*
X66380000Y-49481928D01*
X66040750Y-49485000D01*
X65882000Y-49643750D01*
X65628000Y-49643750D01*
X65469250Y-49485000D01*
X65130000Y-49481928D01*
X65005518Y-49494188D01*
X64885820Y-49530498D01*
X64775506Y-49589463D01*
X64678815Y-49668815D01*
X64599463Y-49765506D01*
X64540498Y-49875820D01*
X64504188Y-49995518D01*
X64491928Y-50120000D01*
X64167054Y-50120000D01*
X64168072Y-49900000D01*
X64155812Y-49775518D01*
X64119502Y-49655820D01*
X64060537Y-49545506D01*
X63981185Y-49448815D01*
X63884494Y-49369463D01*
X63774180Y-49310498D01*
X63654482Y-49274188D01*
X63530000Y-49261928D01*
X62865750Y-49265000D01*
X62707000Y-49423750D01*
X62453000Y-49423750D01*
X62294250Y-49265000D01*
X61630000Y-49261928D01*
X61505518Y-49274188D01*
X61385820Y-49310498D01*
X61275506Y-49369463D01*
X61178815Y-49448815D01*
X61099463Y-49545506D01*
X61040498Y-49655820D01*
X61004188Y-49775518D01*
X60991928Y-49900000D01*
X58302000Y-49900000D01*
X58302000Y-45302000D01*
X70873000Y-45302000D01*
X70873000Y-47810000D01*
X70873000Y-47810000D01*
G37*
X70873000Y-47810000D02*
X70852998Y-47810000D01*
X70852998Y-47968748D01*
X70694250Y-47810000D01*
X70280000Y-47806928D01*
X70155518Y-47819188D01*
X70035820Y-47855498D01*
X69925506Y-47914463D01*
X69828815Y-47993815D01*
X69749463Y-48090506D01*
X69690498Y-48200820D01*
X69654188Y-48320518D01*
X69641928Y-48445000D01*
X69645000Y-48659250D01*
X69803750Y-48818000D01*
X70853000Y-48818000D01*
X70853000Y-48798000D01*
X70873000Y-48798000D01*
X70873000Y-49092000D01*
X70853000Y-49092000D01*
X70853000Y-49072000D01*
X69803750Y-49072000D01*
X69645000Y-49230750D01*
X69641928Y-49445000D01*
X69654188Y-49569482D01*
X69690498Y-49689180D01*
X69749463Y-49799494D01*
X69828815Y-49896185D01*
X69925506Y-49975537D01*
X70035820Y-50034502D01*
X70155518Y-50070812D01*
X70280000Y-50083072D01*
X70694250Y-50080000D01*
X70852998Y-49921252D01*
X70852998Y-50080000D01*
X70873000Y-50080000D01*
X70873000Y-51317000D01*
X70628000Y-51317000D01*
X70628000Y-51297000D01*
X69498750Y-51297000D01*
X69340000Y-51455750D01*
X69336928Y-51495000D01*
X69349188Y-51619482D01*
X69385498Y-51739180D01*
X69444463Y-51849494D01*
X69523815Y-51946185D01*
X69620506Y-52025537D01*
X69700811Y-52068462D01*
X69695443Y-52070090D01*
X69569147Y-52137597D01*
X69458446Y-52228446D01*
X69367597Y-52339147D01*
X69300090Y-52465443D01*
X69258520Y-52602483D01*
X69244483Y-52745000D01*
X69244483Y-53395000D01*
X69258520Y-53537517D01*
X69300090Y-53674557D01*
X69367597Y-53800853D01*
X69458446Y-53911554D01*
X69569147Y-54002403D01*
X69617068Y-54028018D01*
X69599147Y-54037597D01*
X69488446Y-54128446D01*
X69397597Y-54239147D01*
X69330090Y-54365443D01*
X69288520Y-54502483D01*
X69274483Y-54645000D01*
X69274483Y-55945000D01*
X69288520Y-56087517D01*
X69299283Y-56123000D01*
X68106108Y-56123000D01*
X66832000Y-54848893D01*
X66832000Y-54689532D01*
X66896554Y-54636554D01*
X66987403Y-54525853D01*
X67054910Y-54399557D01*
X67096480Y-54262517D01*
X67110517Y-54120000D01*
X67110517Y-52620000D01*
X67096480Y-52477483D01*
X67054910Y-52340443D01*
X66987403Y-52214147D01*
X66896554Y-52103446D01*
X66841672Y-52058406D01*
X66910537Y-51974494D01*
X66969502Y-51864180D01*
X67005812Y-51744482D01*
X67018072Y-51620000D01*
X67015000Y-51155750D01*
X66856250Y-50997000D01*
X65882000Y-50997000D01*
X65882000Y-51017000D01*
X65628000Y-51017000D01*
X65628000Y-50997000D01*
X64653750Y-50997000D01*
X64495000Y-51155750D01*
X64491928Y-51620000D01*
X64504188Y-51744482D01*
X64540498Y-51864180D01*
X64599463Y-51974494D01*
X64668328Y-52058406D01*
X64613446Y-52103446D01*
X64522597Y-52214147D01*
X64469759Y-52313000D01*
X63905863Y-52313000D01*
X63981185Y-52251185D01*
X64060537Y-52154494D01*
X64119502Y-52044180D01*
X64155812Y-51924482D01*
X64168072Y-51800000D01*
X64165000Y-51135750D01*
X64006250Y-50977000D01*
X62707000Y-50977000D01*
X62707000Y-50997000D01*
X62453000Y-50997000D01*
X62453000Y-50977000D01*
X61153750Y-50977000D01*
X60995000Y-51135750D01*
X60991928Y-51800000D01*
X61004188Y-51924482D01*
X61040498Y-52044180D01*
X61099463Y-52154494D01*
X61178815Y-52251185D01*
X61272596Y-52328149D01*
X61093862Y-52595643D01*
X60967446Y-52900837D01*
X60903000Y-53224830D01*
X60903000Y-53555170D01*
X60967446Y-53879163D01*
X61093862Y-54184357D01*
X61277389Y-54459025D01*
X61510975Y-54692611D01*
X61785643Y-54876138D01*
X62090837Y-55002554D01*
X62414830Y-55067000D01*
X62745170Y-55067000D01*
X63069163Y-55002554D01*
X63374357Y-54876138D01*
X63649025Y-54692611D01*
X63874636Y-54467000D01*
X64491139Y-54467000D01*
X64522597Y-54525853D01*
X64613446Y-54636554D01*
X64678001Y-54689532D01*
X64678001Y-55242084D01*
X64672789Y-55295000D01*
X64689240Y-55462021D01*
X64693584Y-55506129D01*
X64755168Y-55709144D01*
X64855175Y-55896244D01*
X64989762Y-56060239D01*
X65030861Y-56093968D01*
X66861032Y-57924140D01*
X66894761Y-57965239D01*
X66935858Y-57998966D01*
X67058755Y-58099826D01*
X67158762Y-58153280D01*
X67245856Y-58199833D01*
X67448871Y-58261417D01*
X67607091Y-58277000D01*
X67607093Y-58277000D01*
X67660000Y-58282211D01*
X67712907Y-58277000D01*
X70873000Y-58277000D01*
X70873000Y-59873000D01*
X58302000Y-59873000D01*
X58302000Y-50845000D01*
X69336928Y-50845000D01*
X69340000Y-50884250D01*
X69498750Y-51043000D01*
X70628000Y-51043000D01*
X70628000Y-50368750D01*
X70469250Y-50210000D01*
X69975000Y-50206928D01*
X69850518Y-50219188D01*
X69730820Y-50255498D01*
X69620506Y-50314463D01*
X69523815Y-50393815D01*
X69444463Y-50490506D01*
X69385498Y-50600820D01*
X69349188Y-50720518D01*
X69336928Y-50845000D01*
X58302000Y-50845000D01*
X58302000Y-49900000D01*
X60991928Y-49900000D01*
X60995000Y-50564250D01*
X61153750Y-50723000D01*
X62453000Y-50723000D01*
X62453000Y-49423750D01*
X62707000Y-49423750D01*
X62707000Y-50723000D01*
X64006250Y-50723000D01*
X64165000Y-50564250D01*
X64167054Y-50120000D01*
X64491928Y-50120000D01*
X64495000Y-50584250D01*
X64653750Y-50743000D01*
X65628000Y-50743000D01*
X65628000Y-49643750D01*
X65882000Y-49643750D01*
X65882000Y-50743000D01*
X66856250Y-50743000D01*
X67015000Y-50584250D01*
X67018072Y-50120000D01*
X67005812Y-49995518D01*
X66969502Y-49875820D01*
X66910537Y-49765506D01*
X66831185Y-49668815D01*
X66734494Y-49589463D01*
X66624180Y-49530498D01*
X66504482Y-49494188D01*
X66380000Y-49481928D01*
X66040750Y-49485000D01*
X65882000Y-49643750D01*
X65628000Y-49643750D01*
X65469250Y-49485000D01*
X65130000Y-49481928D01*
X65005518Y-49494188D01*
X64885820Y-49530498D01*
X64775506Y-49589463D01*
X64678815Y-49668815D01*
X64599463Y-49765506D01*
X64540498Y-49875820D01*
X64504188Y-49995518D01*
X64491928Y-50120000D01*
X64167054Y-50120000D01*
X64168072Y-49900000D01*
X64155812Y-49775518D01*
X64119502Y-49655820D01*
X64060537Y-49545506D01*
X63981185Y-49448815D01*
X63884494Y-49369463D01*
X63774180Y-49310498D01*
X63654482Y-49274188D01*
X63530000Y-49261928D01*
X62865750Y-49265000D01*
X62707000Y-49423750D01*
X62453000Y-49423750D01*
X62294250Y-49265000D01*
X61630000Y-49261928D01*
X61505518Y-49274188D01*
X61385820Y-49310498D01*
X61275506Y-49369463D01*
X61178815Y-49448815D01*
X61099463Y-49545506D01*
X61040498Y-49655820D01*
X61004188Y-49775518D01*
X60991928Y-49900000D01*
X58302000Y-49900000D01*
X58302000Y-45302000D01*
X70873000Y-45302000D01*
X70873000Y-47810000D01*
G36*
X141698000Y-93903000D02*
G01*
X129255000Y-93903000D01*
X129230224Y-93905440D01*
X129206399Y-93912667D01*
X129184443Y-93924403D01*
X129165197Y-93940197D01*
X129149403Y-93959443D01*
X129137667Y-93981399D01*
X129130440Y-94005224D01*
X129128000Y-94030000D01*
X129128000Y-106095000D01*
X129130440Y-106119776D01*
X129137667Y-106143601D01*
X129149403Y-106165557D01*
X129165197Y-106184803D01*
X129184443Y-106200597D01*
X129206399Y-106212333D01*
X129230224Y-106219560D01*
X129255000Y-106222000D01*
X141698000Y-106222000D01*
X141698000Y-126698000D01*
X58302000Y-126698000D01*
X58302000Y-124344830D01*
X83763000Y-124344830D01*
X83763000Y-124675170D01*
X83827446Y-124999163D01*
X83953862Y-125304357D01*
X84137389Y-125579025D01*
X84370975Y-125812611D01*
X84645643Y-125996138D01*
X84950837Y-126122554D01*
X85274830Y-126187000D01*
X85605170Y-126187000D01*
X85929163Y-126122554D01*
X86234357Y-125996138D01*
X86509025Y-125812611D01*
X86710000Y-125611636D01*
X86910975Y-125812611D01*
X87185643Y-125996138D01*
X87490837Y-126122554D01*
X87814830Y-126187000D01*
X88145170Y-126187000D01*
X88469163Y-126122554D01*
X88774357Y-125996138D01*
X89049025Y-125812611D01*
X89250000Y-125611636D01*
X89450975Y-125812611D01*
X89725643Y-125996138D01*
X90030837Y-126122554D01*
X90354830Y-126187000D01*
X90685170Y-126187000D01*
X91009163Y-126122554D01*
X91314357Y-125996138D01*
X91589025Y-125812611D01*
X91790000Y-125611636D01*
X91990975Y-125812611D01*
X92265643Y-125996138D01*
X92570837Y-126122554D01*
X92894830Y-126187000D01*
X93225170Y-126187000D01*
X93549163Y-126122554D01*
X93854357Y-125996138D01*
X94129025Y-125812611D01*
X94330000Y-125611636D01*
X94530975Y-125812611D01*
X94805643Y-125996138D01*
X95110837Y-126122554D01*
X95434830Y-126187000D01*
X95765170Y-126187000D01*
X96089163Y-126122554D01*
X96394357Y-125996138D01*
X96669025Y-125812611D01*
X96871884Y-125609752D01*
X97219853Y-125609752D01*
X97309579Y-125869042D01*
X97590671Y-126004935D01*
X97892873Y-126083379D01*
X98204573Y-126101359D01*
X98513791Y-126058184D01*
X98808644Y-125955513D01*
X98970421Y-125869042D01*
X99060147Y-125609752D01*
X98140000Y-124689605D01*
X97219853Y-125609752D01*
X96871884Y-125609752D01*
X96902611Y-125579025D01*
X97009254Y-125419422D01*
X97040248Y-125430147D01*
X97960395Y-124510000D01*
X97040248Y-123589853D01*
X97009254Y-123600578D01*
X96902611Y-123440975D01*
X96871884Y-123410248D01*
X97219853Y-123410248D01*
X98140000Y-124330395D01*
X99060147Y-123410248D01*
X98970421Y-123150958D01*
X98689329Y-123015065D01*
X98387127Y-122936621D01*
X98075427Y-122918641D01*
X97766209Y-122961816D01*
X97471356Y-123064487D01*
X97309579Y-123150958D01*
X97219853Y-123410248D01*
X96871884Y-123410248D01*
X96669025Y-123207389D01*
X96394357Y-123023862D01*
X96089163Y-122897446D01*
X95765170Y-122833000D01*
X95434830Y-122833000D01*
X95110837Y-122897446D01*
X94805643Y-123023862D01*
X94530975Y-123207389D01*
X94330000Y-123408364D01*
X94129025Y-123207389D01*
X93854357Y-123023862D01*
X93549163Y-122897446D01*
X93225170Y-122833000D01*
X92894830Y-122833000D01*
X92570837Y-122897446D01*
X92265643Y-123023862D01*
X91990975Y-123207389D01*
X91790000Y-123408364D01*
X91589025Y-123207389D01*
X91314357Y-123023862D01*
X91009163Y-122897446D01*
X90685170Y-122833000D01*
X90354830Y-122833000D01*
X90030837Y-122897446D01*
X89725643Y-123023862D01*
X89450975Y-123207389D01*
X89250000Y-123408364D01*
X89049025Y-123207389D01*
X88774357Y-123023862D01*
X88469163Y-122897446D01*
X88145170Y-122833000D01*
X87814830Y-122833000D01*
X87490837Y-122897446D01*
X87185643Y-123023862D01*
X86910975Y-123207389D01*
X86710000Y-123408364D01*
X86509025Y-123207389D01*
X86234357Y-123023862D01*
X85929163Y-122897446D01*
X85605170Y-122833000D01*
X85274830Y-122833000D01*
X84950837Y-122897446D01*
X84645643Y-123023862D01*
X84370975Y-123207389D01*
X84137389Y-123440975D01*
X83953862Y-123715643D01*
X83827446Y-124020837D01*
X83763000Y-124344830D01*
X58302000Y-124344830D01*
X58302000Y-117525000D01*
X63535370Y-117525000D01*
X63565818Y-117834146D01*
X63655993Y-118131412D01*
X63802428Y-118405373D01*
X63999497Y-118645503D01*
X64181660Y-118795000D01*
X63999497Y-118944497D01*
X63802428Y-119184627D01*
X63655993Y-119458588D01*
X63565818Y-119755854D01*
X63535370Y-120065000D01*
X63565818Y-120374146D01*
X63655993Y-120671412D01*
X63802428Y-120945373D01*
X63999497Y-121185503D01*
X64181660Y-121335000D01*
X63999497Y-121484497D01*
X63802428Y-121724627D01*
X63655993Y-121998588D01*
X63565818Y-122295854D01*
X63535370Y-122605000D01*
X63565818Y-122914146D01*
X63655993Y-123211412D01*
X63802428Y-123485373D01*
X63999497Y-123725503D01*
X64239627Y-123922572D01*
X64513588Y-124069007D01*
X64810854Y-124159182D01*
X65042531Y-124182000D01*
X65197469Y-124182000D01*
X65429146Y-124159182D01*
X65726412Y-124069007D01*
X66000373Y-123922572D01*
X66240503Y-123725503D01*
X66437572Y-123485373D01*
X66452738Y-123457000D01*
X77967181Y-123457000D01*
X77990579Y-123480398D01*
X78175165Y-123603734D01*
X78380266Y-123688690D01*
X78598000Y-123732000D01*
X78820000Y-123732000D01*
X79037734Y-123688690D01*
X79242835Y-123603734D01*
X79427421Y-123480398D01*
X79584398Y-123323421D01*
X79707734Y-123138835D01*
X79792690Y-122933734D01*
X79836000Y-122716000D01*
X79836000Y-122494000D01*
X79792690Y-122276266D01*
X79707734Y-122071165D01*
X79584398Y-121886579D01*
X79427421Y-121729602D01*
X79339085Y-121670578D01*
X79487000Y-121700000D01*
X79709000Y-121700000D01*
X79926734Y-121656690D01*
X80131835Y-121571734D01*
X80316421Y-121448398D01*
X80339819Y-121425000D01*
X84698181Y-121425000D01*
X84721579Y-121448398D01*
X84906165Y-121571734D01*
X85111266Y-121656690D01*
X85329000Y-121700000D01*
X85551000Y-121700000D01*
X85768734Y-121656690D01*
X85973835Y-121571734D01*
X86158421Y-121448398D01*
X86315398Y-121291421D01*
X86438734Y-121106835D01*
X86523690Y-120901734D01*
X86567000Y-120684000D01*
X86567000Y-120663000D01*
X92318181Y-120663000D01*
X92341579Y-120686398D01*
X92526165Y-120809734D01*
X92731266Y-120894690D01*
X92949000Y-120938000D01*
X93171000Y-120938000D01*
X93388734Y-120894690D01*
X93593835Y-120809734D01*
X93778421Y-120686398D01*
X93935398Y-120529421D01*
X94058734Y-120344835D01*
X94143690Y-120139734D01*
X94187000Y-119922000D01*
X94187000Y-119700000D01*
X94143690Y-119482266D01*
X94058734Y-119277165D01*
X93935398Y-119092579D01*
X93778421Y-118935602D01*
X93593835Y-118812266D01*
X93528010Y-118785000D01*
X96771928Y-118785000D01*
X96784188Y-118909482D01*
X96820498Y-119029180D01*
X96879463Y-119139494D01*
X96958815Y-119236185D01*
X97055506Y-119315537D01*
X97165820Y-119374502D01*
X97285518Y-119410812D01*
X97410000Y-119423072D01*
X97874250Y-119420000D01*
X98033000Y-119261250D01*
X98033000Y-118287000D01*
X96933750Y-118287000D01*
X96775000Y-118445750D01*
X96771928Y-118785000D01*
X93528010Y-118785000D01*
X93388734Y-118727310D01*
X93171000Y-118684000D01*
X92949000Y-118684000D01*
X92731266Y-118727310D01*
X92526165Y-118812266D01*
X92341579Y-118935602D01*
X92318181Y-118959000D01*
X91647000Y-118959000D01*
X91647000Y-118938000D01*
X91603690Y-118720266D01*
X91518734Y-118515165D01*
X91426415Y-118377000D01*
X94858181Y-118377000D01*
X94881579Y-118400398D01*
X95066165Y-118523734D01*
X95271266Y-118608690D01*
X95489000Y-118652000D01*
X95711000Y-118652000D01*
X95928734Y-118608690D01*
X96133835Y-118523734D01*
X96318421Y-118400398D01*
X96475398Y-118243421D01*
X96598734Y-118058835D01*
X96683690Y-117853734D01*
X96727000Y-117636000D01*
X96727000Y-117596497D01*
X96772211Y-117566288D01*
X96775000Y-117874250D01*
X96933750Y-118033000D01*
X98033000Y-118033000D01*
X98033000Y-117058750D01*
X97874250Y-116900000D01*
X97410000Y-116896928D01*
X97285518Y-116909188D01*
X97280183Y-116910806D01*
X97287847Y-116892303D01*
X97335000Y-116655249D01*
X97335000Y-116431554D01*
X97365518Y-116440812D01*
X97490000Y-116453072D01*
X97854250Y-116450000D01*
X98013000Y-116291250D01*
X98013000Y-115192000D01*
X98267000Y-115192000D01*
X98267000Y-116291250D01*
X98425750Y-116450000D01*
X98790000Y-116453072D01*
X98914482Y-116440812D01*
X99034180Y-116404502D01*
X99144494Y-116345537D01*
X99241185Y-116266185D01*
X99320537Y-116169494D01*
X99379502Y-116059180D01*
X99415812Y-115939482D01*
X99428072Y-115815000D01*
X99425000Y-115350750D01*
X99266250Y-115192000D01*
X98267000Y-115192000D01*
X98013000Y-115192000D01*
X97013750Y-115192000D01*
X96855000Y-115350750D01*
X96853636Y-115556918D01*
X96689202Y-115447047D01*
X96465903Y-115354553D01*
X96228849Y-115307400D01*
X95987151Y-115307400D01*
X95750097Y-115354553D01*
X95526798Y-115447047D01*
X95511304Y-115457400D01*
X69440107Y-115457400D01*
X69387200Y-115452189D01*
X69334293Y-115457400D01*
X69334291Y-115457400D01*
X69176071Y-115472983D01*
X68973056Y-115534567D01*
X68785956Y-115634574D01*
X68621961Y-115769161D01*
X68588232Y-115810261D01*
X67950493Y-116448000D01*
X66276205Y-116448000D01*
X66240503Y-116404497D01*
X66000373Y-116207428D01*
X65976779Y-116194817D01*
X66001355Y-116180178D01*
X66217588Y-115985269D01*
X66391641Y-115751920D01*
X66516825Y-115489099D01*
X66561476Y-115341890D01*
X66440155Y-115112000D01*
X65247000Y-115112000D01*
X65247000Y-115132000D01*
X64993000Y-115132000D01*
X64993000Y-115112000D01*
X63799845Y-115112000D01*
X63678524Y-115341890D01*
X63723175Y-115489099D01*
X63848359Y-115751920D01*
X64022412Y-115985269D01*
X64238645Y-116180178D01*
X64263221Y-116194817D01*
X64239627Y-116207428D01*
X63999497Y-116404497D01*
X63802428Y-116644627D01*
X63655993Y-116918588D01*
X63565818Y-117215854D01*
X63535370Y-117525000D01*
X58302000Y-117525000D01*
X58302000Y-106222000D01*
X71037466Y-106222000D01*
X71062242Y-106219560D01*
X71086067Y-106212333D01*
X71108023Y-106200597D01*
X71127269Y-106184803D01*
X71143063Y-106165557D01*
X71154799Y-106143601D01*
X71162026Y-106119776D01*
X71164466Y-106095000D01*
X71164466Y-94030000D01*
X71162026Y-94005224D01*
X71154799Y-93981399D01*
X71143063Y-93959443D01*
X71127269Y-93940197D01*
X71108023Y-93924403D01*
X71086067Y-93912667D01*
X71062242Y-93905440D01*
X71037466Y-93903000D01*
X58302000Y-93903000D01*
X58302000Y-89685500D01*
X64623238Y-89685500D01*
X64623238Y-92889500D01*
X74136762Y-92889500D01*
X74136762Y-89685500D01*
X64623238Y-89685500D01*
X58302000Y-89685500D01*
X58302000Y-85460000D01*
X80676928Y-85460000D01*
X80680000Y-86124250D01*
X80838750Y-86283000D01*
X82138000Y-86283000D01*
X82138000Y-84983750D01*
X82392000Y-84983750D01*
X82392000Y-86283000D01*
X83691250Y-86283000D01*
X83850000Y-86124250D01*
X83853072Y-85460000D01*
X89566928Y-85460000D01*
X89570000Y-86124250D01*
X89728750Y-86283000D01*
X91028000Y-86283000D01*
X91028000Y-84983750D01*
X91282000Y-84983750D01*
X91282000Y-86283000D01*
X92581250Y-86283000D01*
X92740000Y-86124250D01*
X92742054Y-85680000D01*
X94971928Y-85680000D01*
X94975000Y-86144250D01*
X95133750Y-86303000D01*
X96108000Y-86303000D01*
X96108000Y-85203750D01*
X96362000Y-85203750D01*
X96362000Y-86303000D01*
X97336250Y-86303000D01*
X97495000Y-86144250D01*
X97498072Y-85680000D01*
X97485812Y-85555518D01*
X97456837Y-85460000D01*
X98999483Y-85460000D01*
X98999483Y-87360000D01*
X99013520Y-87502517D01*
X99055090Y-87639557D01*
X99122597Y-87765853D01*
X99213446Y-87876554D01*
X99321236Y-87965014D01*
X99193862Y-88155643D01*
X99067446Y-88460837D01*
X99003000Y-88784830D01*
X99003000Y-89115170D01*
X99067446Y-89439163D01*
X99193862Y-89744357D01*
X99377389Y-90019025D01*
X99610975Y-90252611D01*
X99885643Y-90436138D01*
X100190837Y-90562554D01*
X100514830Y-90627000D01*
X100845170Y-90627000D01*
X101169163Y-90562554D01*
X101474357Y-90436138D01*
X101749025Y-90252611D01*
X101982611Y-90019025D01*
X102166138Y-89744357D01*
X102292554Y-89439163D01*
X102357000Y-89115170D01*
X102357000Y-88784830D01*
X102292554Y-88460837D01*
X102166138Y-88155643D01*
X102038764Y-87965014D01*
X102146554Y-87876554D01*
X102237403Y-87765853D01*
X102304910Y-87639557D01*
X102346480Y-87502517D01*
X102360517Y-87360000D01*
X102360517Y-85460000D01*
X102346480Y-85317483D01*
X102304910Y-85180443D01*
X102237403Y-85054147D01*
X102146554Y-84943446D01*
X102035853Y-84852597D01*
X101909557Y-84785090D01*
X101772517Y-84743520D01*
X101630000Y-84729483D01*
X101532000Y-84729483D01*
X101532000Y-83087819D01*
X101555398Y-83064421D01*
X101678734Y-82879835D01*
X101763690Y-82674734D01*
X101807000Y-82457000D01*
X101807000Y-82235000D01*
X101763690Y-82017266D01*
X101678734Y-81812165D01*
X101555398Y-81627579D01*
X101398421Y-81470602D01*
X101213835Y-81347266D01*
X101008734Y-81262310D01*
X100791000Y-81219000D01*
X100569000Y-81219000D01*
X100351266Y-81262310D01*
X100146165Y-81347266D01*
X99961579Y-81470602D01*
X99804602Y-81627579D01*
X99681266Y-81812165D01*
X99596310Y-82017266D01*
X99553000Y-82235000D01*
X99553000Y-82457000D01*
X99596310Y-82674734D01*
X99681266Y-82879835D01*
X99804602Y-83064421D01*
X99828000Y-83087819D01*
X99828001Y-84729483D01*
X99730000Y-84729483D01*
X99587483Y-84743520D01*
X99450443Y-84785090D01*
X99324147Y-84852597D01*
X99213446Y-84943446D01*
X99122597Y-85054147D01*
X99055090Y-85180443D01*
X99013520Y-85317483D01*
X98999483Y-85460000D01*
X97456837Y-85460000D01*
X97449502Y-85435820D01*
X97390537Y-85325506D01*
X97311185Y-85228815D01*
X97214494Y-85149463D01*
X97104180Y-85090498D01*
X96984482Y-85054188D01*
X96860000Y-85041928D01*
X96520750Y-85045000D01*
X96362000Y-85203750D01*
X96108000Y-85203750D01*
X95949250Y-85045000D01*
X95610000Y-85041928D01*
X95485518Y-85054188D01*
X95365820Y-85090498D01*
X95255506Y-85149463D01*
X95158815Y-85228815D01*
X95079463Y-85325506D01*
X95020498Y-85435820D01*
X94984188Y-85555518D01*
X94971928Y-85680000D01*
X92742054Y-85680000D01*
X92743072Y-85460000D01*
X92730812Y-85335518D01*
X92694502Y-85215820D01*
X92635537Y-85105506D01*
X92556185Y-85008815D01*
X92459494Y-84929463D01*
X92349180Y-84870498D01*
X92229482Y-84834188D01*
X92105000Y-84821928D01*
X91440750Y-84825000D01*
X91282000Y-84983750D01*
X91028000Y-84983750D01*
X90869250Y-84825000D01*
X90205000Y-84821928D01*
X90080518Y-84834188D01*
X89960820Y-84870498D01*
X89850506Y-84929463D01*
X89753815Y-85008815D01*
X89674463Y-85105506D01*
X89615498Y-85215820D01*
X89579188Y-85335518D01*
X89566928Y-85460000D01*
X83853072Y-85460000D01*
X83840812Y-85335518D01*
X83804502Y-85215820D01*
X83745537Y-85105506D01*
X83666185Y-85008815D01*
X83569494Y-84929463D01*
X83459180Y-84870498D01*
X83339482Y-84834188D01*
X83215000Y-84821928D01*
X82550750Y-84825000D01*
X82392000Y-84983750D01*
X82138000Y-84983750D01*
X81979250Y-84825000D01*
X81315000Y-84821928D01*
X81190518Y-84834188D01*
X81070820Y-84870498D01*
X80960506Y-84929463D01*
X80863815Y-85008815D01*
X80784463Y-85105506D01*
X80725498Y-85215820D01*
X80689188Y-85335518D01*
X80676928Y-85460000D01*
X58302000Y-85460000D01*
X58302000Y-70948296D01*
X69589000Y-70948296D01*
X69589000Y-71391704D01*
X69675504Y-71826593D01*
X69845189Y-72236249D01*
X70091534Y-72604929D01*
X70405071Y-72918466D01*
X70773751Y-73164811D01*
X71183407Y-73334496D01*
X71618296Y-73421000D01*
X72061704Y-73421000D01*
X72496593Y-73334496D01*
X72906249Y-73164811D01*
X73274929Y-72918466D01*
X73588466Y-72604929D01*
X73834811Y-72236249D01*
X74004496Y-71826593D01*
X74091000Y-71391704D01*
X74091000Y-70948296D01*
X117589000Y-70948296D01*
X117589000Y-71391704D01*
X117675504Y-71826593D01*
X117845189Y-72236249D01*
X118091534Y-72604929D01*
X118405071Y-72918466D01*
X118773751Y-73164811D01*
X119183407Y-73334496D01*
X119618296Y-73421000D01*
X120061704Y-73421000D01*
X120496593Y-73334496D01*
X120906249Y-73164811D01*
X121274929Y-72918466D01*
X121588466Y-72604929D01*
X121834811Y-72236249D01*
X122004496Y-71826593D01*
X122091000Y-71391704D01*
X122091000Y-70948296D01*
X122004496Y-70513407D01*
X121834811Y-70103751D01*
X121588466Y-69735071D01*
X121274929Y-69421534D01*
X120906249Y-69175189D01*
X120496593Y-69005504D01*
X120061704Y-68919000D01*
X119618296Y-68919000D01*
X119183407Y-69005504D01*
X118773751Y-69175189D01*
X118405071Y-69421534D01*
X118091534Y-69735071D01*
X117845189Y-70103751D01*
X117675504Y-70513407D01*
X117589000Y-70948296D01*
X74091000Y-70948296D01*
X74004496Y-70513407D01*
X73834811Y-70103751D01*
X73588466Y-69735071D01*
X73274929Y-69421534D01*
X72906249Y-69175189D01*
X72496593Y-69005504D01*
X72061704Y-68919000D01*
X71618296Y-68919000D01*
X71183407Y-69005504D01*
X70773751Y-69175189D01*
X70405071Y-69421534D01*
X70091534Y-69735071D01*
X69845189Y-70103751D01*
X69675504Y-70513407D01*
X69589000Y-70948296D01*
X58302000Y-70948296D01*
X58302000Y-68408296D01*
X61969000Y-68408296D01*
X61969000Y-68851704D01*
X62055504Y-69286593D01*
X62225189Y-69696249D01*
X62471534Y-70064929D01*
X62785071Y-70378466D01*
X63153751Y-70624811D01*
X63563407Y-70794496D01*
X63998296Y-70881000D01*
X64441704Y-70881000D01*
X64876593Y-70794496D01*
X65286249Y-70624811D01*
X65654929Y-70378466D01*
X65968466Y-70064929D01*
X66214811Y-69696249D01*
X66384496Y-69286593D01*
X66471000Y-68851704D01*
X66471000Y-68408296D01*
X66384496Y-67973407D01*
X66214811Y-67563751D01*
X65968466Y-67195071D01*
X65654929Y-66881534D01*
X65286249Y-66635189D01*
X64876593Y-66465504D01*
X64441704Y-66379000D01*
X63998296Y-66379000D01*
X63563407Y-66465504D01*
X63153751Y-66635189D01*
X62785071Y-66881534D01*
X62471534Y-67195071D01*
X62225189Y-67563751D01*
X62055504Y-67973407D01*
X61969000Y-68408296D01*
X58302000Y-68408296D01*
X58302000Y-65868296D01*
X69589000Y-65868296D01*
X69589000Y-66311704D01*
X69675504Y-66746593D01*
X69845189Y-67156249D01*
X70091534Y-67524929D01*
X70405071Y-67838466D01*
X70773751Y-68084811D01*
X71183407Y-68254496D01*
X71618296Y-68341000D01*
X72061704Y-68341000D01*
X72496593Y-68254496D01*
X72906249Y-68084811D01*
X73274929Y-67838466D01*
X73588466Y-67524929D01*
X73834811Y-67156249D01*
X74004496Y-66746593D01*
X74091000Y-66311704D01*
X74091000Y-65868296D01*
X117589000Y-65868296D01*
X117589000Y-66311704D01*
X117675504Y-66746593D01*
X117845189Y-67156249D01*
X118091534Y-67524929D01*
X118405071Y-67838466D01*
X118773751Y-68084811D01*
X119183407Y-68254496D01*
X119618296Y-68341000D01*
X120061704Y-68341000D01*
X120496593Y-68254496D01*
X120906249Y-68084811D01*
X121274929Y-67838466D01*
X121588466Y-67524929D01*
X121834811Y-67156249D01*
X122004496Y-66746593D01*
X122091000Y-66311704D01*
X122091000Y-65868296D01*
X122189000Y-65868296D01*
X122189000Y-66311704D01*
X122275504Y-66746593D01*
X122445189Y-67156249D01*
X122691534Y-67524929D01*
X123005071Y-67838466D01*
X123373751Y-68084811D01*
X123783407Y-68254496D01*
X124218296Y-68341000D01*
X124661704Y-68341000D01*
X125096593Y-68254496D01*
X125252432Y-68189945D01*
X125209000Y-68408296D01*
X125209000Y-68851704D01*
X125252432Y-69070055D01*
X125096593Y-69005504D01*
X124661704Y-68919000D01*
X124218296Y-68919000D01*
X123783407Y-69005504D01*
X123373751Y-69175189D01*
X123005071Y-69421534D01*
X122691534Y-69735071D01*
X122445189Y-70103751D01*
X122275504Y-70513407D01*
X122189000Y-70948296D01*
X122189000Y-71391704D01*
X122275504Y-71826593D01*
X122445189Y-72236249D01*
X122691534Y-72604929D01*
X123005071Y-72918466D01*
X123373751Y-73164811D01*
X123783407Y-73334496D01*
X124218296Y-73421000D01*
X124661704Y-73421000D01*
X125096593Y-73334496D01*
X125506249Y-73164811D01*
X125874929Y-72918466D01*
X126188466Y-72604929D01*
X126434811Y-72236249D01*
X126604496Y-71826593D01*
X126691000Y-71391704D01*
X126691000Y-70948296D01*
X126647568Y-70729945D01*
X126803407Y-70794496D01*
X127238296Y-70881000D01*
X127681704Y-70881000D01*
X128116593Y-70794496D01*
X128526249Y-70624811D01*
X128894929Y-70378466D01*
X129208466Y-70064929D01*
X129454811Y-69696249D01*
X129624496Y-69286593D01*
X129711000Y-68851704D01*
X129711000Y-68408296D01*
X129624496Y-67973407D01*
X129454811Y-67563751D01*
X129208466Y-67195071D01*
X128894929Y-66881534D01*
X128526249Y-66635189D01*
X128116593Y-66465504D01*
X127681704Y-66379000D01*
X127238296Y-66379000D01*
X126803407Y-66465504D01*
X126647568Y-66530055D01*
X126691000Y-66311704D01*
X126691000Y-65868296D01*
X126604496Y-65433407D01*
X126434811Y-65023751D01*
X126188466Y-64655071D01*
X125874929Y-64341534D01*
X125506249Y-64095189D01*
X125096593Y-63925504D01*
X124661704Y-63839000D01*
X124218296Y-63839000D01*
X123783407Y-63925504D01*
X123373751Y-64095189D01*
X123005071Y-64341534D01*
X122691534Y-64655071D01*
X122445189Y-65023751D01*
X122275504Y-65433407D01*
X122189000Y-65868296D01*
X122091000Y-65868296D01*
X122004496Y-65433407D01*
X121834811Y-65023751D01*
X121588466Y-64655071D01*
X121274929Y-64341534D01*
X120906249Y-64095189D01*
X120496593Y-63925504D01*
X120061704Y-63839000D01*
X119618296Y-63839000D01*
X119183407Y-63925504D01*
X118773751Y-64095189D01*
X118405071Y-64341534D01*
X118091534Y-64655071D01*
X117845189Y-65023751D01*
X117675504Y-65433407D01*
X117589000Y-65868296D01*
X74091000Y-65868296D01*
X74004496Y-65433407D01*
X73834811Y-65023751D01*
X73588466Y-64655071D01*
X73274929Y-64341534D01*
X72906249Y-64095189D01*
X72496593Y-63925504D01*
X72061704Y-63839000D01*
X71618296Y-63839000D01*
X71183407Y-63925504D01*
X70773751Y-64095189D01*
X70405071Y-64341534D01*
X70091534Y-64655071D01*
X69845189Y-65023751D01*
X69675504Y-65433407D01*
X69589000Y-65868296D01*
X58302000Y-65868296D01*
X58302000Y-61127000D01*
X72000000Y-61127000D01*
X72024776Y-61124560D01*
X72048601Y-61117333D01*
X72070557Y-61105597D01*
X72089803Y-61089803D01*
X72105597Y-61070557D01*
X72117333Y-61048601D01*
X72124560Y-61024776D01*
X72127000Y-61000000D01*
X72127000Y-58277000D01*
X73322093Y-58277000D01*
X73375000Y-58282211D01*
X73427907Y-58277000D01*
X75227093Y-58277000D01*
X75280000Y-58282211D01*
X75332907Y-58277000D01*
X75332909Y-58277000D01*
X75491129Y-58261417D01*
X75694144Y-58199833D01*
X75881244Y-58099826D01*
X76045239Y-57965239D01*
X76078972Y-57924135D01*
X77274140Y-56728968D01*
X77315239Y-56695239D01*
X77449826Y-56531244D01*
X77549833Y-56344144D01*
X77611417Y-56141129D01*
X77627000Y-55982909D01*
X77627000Y-55982908D01*
X77632211Y-55930001D01*
X77627000Y-55877091D01*
X77627000Y-55737000D01*
X84752093Y-55737000D01*
X84805000Y-55742211D01*
X84857907Y-55737000D01*
X84857909Y-55737000D01*
X85016129Y-55721417D01*
X85219144Y-55659833D01*
X85406244Y-55559826D01*
X85570239Y-55425239D01*
X85603972Y-55384135D01*
X86521108Y-54467000D01*
X86685364Y-54467000D01*
X86910975Y-54692611D01*
X87185643Y-54876138D01*
X87490837Y-55002554D01*
X87814830Y-55067000D01*
X88145170Y-55067000D01*
X88469163Y-55002554D01*
X88774357Y-54876138D01*
X89049025Y-54692611D01*
X89274636Y-54467000D01*
X89891139Y-54467000D01*
X89922597Y-54525853D01*
X90000810Y-54621157D01*
X89975153Y-54683097D01*
X89928000Y-54920151D01*
X89928000Y-55161849D01*
X89975153Y-55398903D01*
X90067647Y-55622202D01*
X90201927Y-55823167D01*
X90372833Y-55994073D01*
X90573798Y-56128353D01*
X90797097Y-56220847D01*
X91034151Y-56268000D01*
X91275849Y-56268000D01*
X91512903Y-56220847D01*
X91736202Y-56128353D01*
X91937167Y-55994073D01*
X92108073Y-55823167D01*
X92242353Y-55622202D01*
X92334847Y-55398903D01*
X92382000Y-55161849D01*
X92382000Y-54920151D01*
X92334847Y-54683097D01*
X92309190Y-54621157D01*
X92387403Y-54525853D01*
X92429551Y-54447000D01*
X93027093Y-54447000D01*
X93080000Y-54452211D01*
X93132907Y-54447000D01*
X93132909Y-54447000D01*
X93268405Y-54433655D01*
X93254483Y-54575000D01*
X93254483Y-55375000D01*
X93268520Y-55517517D01*
X93310090Y-55654557D01*
X93377597Y-55780853D01*
X93468446Y-55891554D01*
X93579147Y-55982403D01*
X93705443Y-56049910D01*
X93753832Y-56064588D01*
X93758000Y-56106907D01*
X93758000Y-56106909D01*
X93773583Y-56265129D01*
X93835168Y-56468144D01*
X93935175Y-56655244D01*
X94069762Y-56819239D01*
X94110861Y-56852968D01*
X94627027Y-57369134D01*
X94660761Y-57410239D01*
X94824756Y-57544826D01*
X95011856Y-57644833D01*
X95214871Y-57706417D01*
X95373091Y-57722000D01*
X95373092Y-57722000D01*
X95425999Y-57727211D01*
X95478906Y-57722000D01*
X99380449Y-57722000D01*
X99422597Y-57800853D01*
X99513446Y-57911554D01*
X99624147Y-58002403D01*
X99750443Y-58069910D01*
X99887483Y-58111480D01*
X100030000Y-58125517D01*
X101330000Y-58125517D01*
X101472517Y-58111480D01*
X101609557Y-58069910D01*
X101735853Y-58002403D01*
X101846554Y-57911554D01*
X101937403Y-57800853D01*
X101954429Y-57769000D01*
X103675091Y-57769000D01*
X103728000Y-57774211D01*
X103780909Y-57769000D01*
X109009093Y-57769000D01*
X109062000Y-57774211D01*
X109114907Y-57769000D01*
X109114909Y-57769000D01*
X109273129Y-57753417D01*
X109476144Y-57691833D01*
X109663244Y-57591826D01*
X109827239Y-57457239D01*
X109860972Y-57416135D01*
X109994000Y-57283107D01*
X109994000Y-57320849D01*
X110041153Y-57557903D01*
X110133647Y-57781202D01*
X110267927Y-57982167D01*
X110438833Y-58153073D01*
X110639798Y-58287353D01*
X110863097Y-58379847D01*
X111100151Y-58427000D01*
X111341849Y-58427000D01*
X111578903Y-58379847D01*
X111802202Y-58287353D01*
X111817696Y-58277000D01*
X112080468Y-58277000D01*
X112133446Y-58341554D01*
X112244147Y-58432403D01*
X112323000Y-58474551D01*
X112323000Y-58564093D01*
X112317789Y-58617000D01*
X112323000Y-58669907D01*
X112323000Y-58669909D01*
X112338583Y-58828129D01*
X112400168Y-59031144D01*
X112500175Y-59218244D01*
X112634762Y-59382239D01*
X112675861Y-59415968D01*
X114105032Y-60845140D01*
X114138761Y-60886239D01*
X114302756Y-61020826D01*
X114489856Y-61120833D01*
X114692871Y-61182417D01*
X114851091Y-61198000D01*
X114851092Y-61198000D01*
X114903999Y-61203211D01*
X114956906Y-61198000D01*
X133888893Y-61198000D01*
X134147000Y-61456108D01*
X134147000Y-67786316D01*
X134054811Y-67563751D01*
X133808466Y-67195071D01*
X133494929Y-66881534D01*
X133126249Y-66635189D01*
X132716593Y-66465504D01*
X132281704Y-66379000D01*
X131838296Y-66379000D01*
X131403407Y-66465504D01*
X130993751Y-66635189D01*
X130625071Y-66881534D01*
X130311534Y-67195071D01*
X130065189Y-67563751D01*
X129895504Y-67973407D01*
X129809000Y-68408296D01*
X129809000Y-68851704D01*
X129895504Y-69286593D01*
X130065189Y-69696249D01*
X130311534Y-70064929D01*
X130625071Y-70378466D01*
X130993751Y-70624811D01*
X131403407Y-70794496D01*
X131838296Y-70881000D01*
X132281704Y-70881000D01*
X132716593Y-70794496D01*
X133126249Y-70624811D01*
X133494929Y-70378466D01*
X133808466Y-70064929D01*
X134054811Y-69696249D01*
X134147001Y-69473684D01*
X134147001Y-75422892D01*
X134142893Y-75427000D01*
X123719906Y-75427000D01*
X123666999Y-75421789D01*
X123614093Y-75427000D01*
X112543909Y-75427000D01*
X112491000Y-75421789D01*
X112279870Y-75442583D01*
X112076855Y-75504167D01*
X111889755Y-75604174D01*
X111832486Y-75651174D01*
X111725761Y-75738761D01*
X111692033Y-75779859D01*
X102815861Y-84656032D01*
X102774762Y-84689761D01*
X102741034Y-84730859D01*
X102640175Y-84853756D01*
X102540168Y-85040856D01*
X102478584Y-85243871D01*
X102457789Y-85455000D01*
X102463001Y-85507917D01*
X102463000Y-92641091D01*
X102457789Y-92694000D01*
X102463000Y-92746907D01*
X102463000Y-92746908D01*
X102463001Y-92746918D01*
X102463000Y-95980218D01*
X102451849Y-95978000D01*
X102210151Y-95978000D01*
X101973097Y-96025153D01*
X101749798Y-96117647D01*
X101734304Y-96128000D01*
X97242965Y-96128000D01*
X97290853Y-96102403D01*
X97401554Y-96011554D01*
X97492403Y-95900853D01*
X97559910Y-95774557D01*
X97601480Y-95637517D01*
X97615517Y-95495000D01*
X97615517Y-93995000D01*
X97601480Y-93852483D01*
X97559910Y-93715443D01*
X97492403Y-93589147D01*
X97401554Y-93478446D01*
X97299874Y-93395000D01*
X97401554Y-93311554D01*
X97492403Y-93200853D01*
X97559910Y-93074557D01*
X97601480Y-92937517D01*
X97610100Y-92850000D01*
X98287181Y-92850000D01*
X98310579Y-92873398D01*
X98495165Y-92996734D01*
X98700266Y-93081690D01*
X98918000Y-93125000D01*
X99140000Y-93125000D01*
X99357734Y-93081690D01*
X99562835Y-92996734D01*
X99747421Y-92873398D01*
X99904398Y-92716421D01*
X100027734Y-92531835D01*
X100112690Y-92326734D01*
X100156000Y-92109000D01*
X100156000Y-91887000D01*
X100112690Y-91669266D01*
X100027734Y-91464165D01*
X99904398Y-91279579D01*
X99747421Y-91122602D01*
X99562835Y-90999266D01*
X99357734Y-90914310D01*
X99140000Y-90871000D01*
X98918000Y-90871000D01*
X98700266Y-90914310D01*
X98495165Y-90999266D01*
X98310579Y-91122602D01*
X98287181Y-91146000D01*
X97599513Y-91146000D01*
X97559910Y-91015443D01*
X97492403Y-90889147D01*
X97401554Y-90778446D01*
X97290853Y-90687597D01*
X97164557Y-90620090D01*
X97087000Y-90596564D01*
X97087000Y-90370853D01*
X97139557Y-90354910D01*
X97265853Y-90287403D01*
X97376554Y-90196554D01*
X97467403Y-90085853D01*
X97534910Y-89959557D01*
X97576480Y-89822517D01*
X97590517Y-89680000D01*
X97590517Y-88180000D01*
X97576480Y-88037483D01*
X97534910Y-87900443D01*
X97467403Y-87774147D01*
X97376554Y-87663446D01*
X97321672Y-87618406D01*
X97390537Y-87534494D01*
X97449502Y-87424180D01*
X97485812Y-87304482D01*
X97498072Y-87180000D01*
X97495000Y-86715750D01*
X97336250Y-86557000D01*
X96362000Y-86557000D01*
X96362000Y-86577000D01*
X96108000Y-86577000D01*
X96108000Y-86557000D01*
X95133750Y-86557000D01*
X94975000Y-86715750D01*
X94971928Y-87180000D01*
X94984188Y-87304482D01*
X95020498Y-87424180D01*
X95079463Y-87534494D01*
X95148328Y-87618406D01*
X95093446Y-87663446D01*
X95002597Y-87774147D01*
X94935090Y-87900443D01*
X94893520Y-88037483D01*
X94887559Y-88098000D01*
X92602622Y-88098000D01*
X92462404Y-87888149D01*
X92556185Y-87811185D01*
X92635537Y-87714494D01*
X92694502Y-87604180D01*
X92730812Y-87484482D01*
X92743072Y-87360000D01*
X92740000Y-86695750D01*
X92581250Y-86537000D01*
X91282000Y-86537000D01*
X91282000Y-86557000D01*
X91028000Y-86557000D01*
X91028000Y-86537000D01*
X89728750Y-86537000D01*
X89570000Y-86695750D01*
X89566928Y-87360000D01*
X89579188Y-87484482D01*
X89615498Y-87604180D01*
X89674463Y-87714494D01*
X89753815Y-87811185D01*
X89847596Y-87888149D01*
X89668862Y-88155643D01*
X89542446Y-88460837D01*
X89478000Y-88784830D01*
X89478000Y-89115170D01*
X89542446Y-89439163D01*
X89668862Y-89744357D01*
X89852389Y-90019025D01*
X90085975Y-90252611D01*
X90360643Y-90436138D01*
X90665837Y-90562554D01*
X90989830Y-90627000D01*
X91320170Y-90627000D01*
X91644163Y-90562554D01*
X91949357Y-90436138D01*
X92224025Y-90252611D01*
X92457611Y-90019025D01*
X92602622Y-89802000D01*
X94891499Y-89802000D01*
X94893520Y-89822517D01*
X94935090Y-89959557D01*
X95002597Y-90085853D01*
X95093446Y-90196554D01*
X95204147Y-90287403D01*
X95330443Y-90354910D01*
X95383000Y-90370853D01*
X95383001Y-90596564D01*
X95305443Y-90620090D01*
X95179147Y-90687597D01*
X95068446Y-90778446D01*
X94977597Y-90889147D01*
X94910090Y-91015443D01*
X94868520Y-91152483D01*
X94854483Y-91295000D01*
X94854483Y-92795000D01*
X94868520Y-92937517D01*
X94910090Y-93074557D01*
X94977597Y-93200853D01*
X95068446Y-93311554D01*
X95170126Y-93395000D01*
X95068446Y-93478446D01*
X94977597Y-93589147D01*
X94910090Y-93715443D01*
X94868520Y-93852483D01*
X94854483Y-93995000D01*
X94854483Y-95495000D01*
X94868520Y-95637517D01*
X94910090Y-95774557D01*
X94977597Y-95900853D01*
X95031001Y-95965926D01*
X95031000Y-96608303D01*
X95020647Y-96623798D01*
X94928153Y-96847097D01*
X94881000Y-97084151D01*
X94881000Y-97325849D01*
X94928153Y-97562903D01*
X95020647Y-97786202D01*
X95154927Y-97987167D01*
X95325833Y-98158073D01*
X95526798Y-98292353D01*
X95750097Y-98384847D01*
X95987151Y-98432000D01*
X96228849Y-98432000D01*
X96465903Y-98384847D01*
X96689202Y-98292353D01*
X96704696Y-98282000D01*
X99033090Y-98282000D01*
X94997091Y-102318000D01*
X94729190Y-102318000D01*
X94639557Y-102270090D01*
X94502517Y-102228520D01*
X94360000Y-102214483D01*
X92610000Y-102214483D01*
X92467483Y-102228520D01*
X92330443Y-102270090D01*
X92204147Y-102337597D01*
X92093446Y-102428446D01*
X92002597Y-102539147D01*
X91935090Y-102665443D01*
X91893520Y-102802483D01*
X91879483Y-102945000D01*
X91879483Y-103395000D01*
X91889332Y-103495000D01*
X91879483Y-103595000D01*
X91879483Y-104045000D01*
X91889332Y-104145000D01*
X91879483Y-104245000D01*
X91879483Y-104695000D01*
X91889332Y-104795000D01*
X91879483Y-104895000D01*
X91879483Y-105345000D01*
X91889332Y-105445000D01*
X91879483Y-105545000D01*
X91879483Y-105995000D01*
X91889332Y-106094999D01*
X91879483Y-106195000D01*
X91879483Y-106645000D01*
X91889332Y-106745000D01*
X91879483Y-106845000D01*
X91879483Y-107295000D01*
X91889332Y-107395000D01*
X91879483Y-107495000D01*
X91879483Y-107945000D01*
X91889332Y-108045000D01*
X91879483Y-108145000D01*
X91879483Y-108595000D01*
X91889332Y-108695000D01*
X91879483Y-108795000D01*
X91879483Y-109245000D01*
X91893520Y-109387517D01*
X91935090Y-109524557D01*
X92002597Y-109650853D01*
X92093446Y-109761554D01*
X92204147Y-109852403D01*
X92330443Y-109919910D01*
X92403265Y-109942000D01*
X87366735Y-109942000D01*
X87439557Y-109919910D01*
X87565853Y-109852403D01*
X87676554Y-109761554D01*
X87767403Y-109650853D01*
X87834910Y-109524557D01*
X87876480Y-109387517D01*
X87890517Y-109245000D01*
X87890517Y-108795000D01*
X87880668Y-108695000D01*
X87890517Y-108595000D01*
X87890517Y-108145000D01*
X87880668Y-108045000D01*
X87890517Y-107945000D01*
X87890517Y-107495000D01*
X87880668Y-107395000D01*
X87890517Y-107295000D01*
X87890517Y-106845000D01*
X87876480Y-106702483D01*
X87834910Y-106565443D01*
X87767403Y-106439147D01*
X87691330Y-106346451D01*
X87746199Y-106247005D01*
X87762493Y-106195757D01*
X87795000Y-106163250D01*
X87787637Y-106095000D01*
X87795000Y-106026750D01*
X87762493Y-105994243D01*
X87746199Y-105942995D01*
X87691330Y-105843549D01*
X87767403Y-105750853D01*
X87834910Y-105624557D01*
X87876480Y-105487517D01*
X87890517Y-105345000D01*
X87890517Y-104895000D01*
X87880668Y-104795000D01*
X87890517Y-104695000D01*
X87890517Y-104245000D01*
X87880668Y-104145000D01*
X87890517Y-104045000D01*
X87890517Y-103595000D01*
X87880668Y-103495000D01*
X87890517Y-103395000D01*
X87890517Y-102945000D01*
X87876480Y-102802483D01*
X87834910Y-102665443D01*
X87767403Y-102539147D01*
X87676554Y-102428446D01*
X87565853Y-102337597D01*
X87439557Y-102270090D01*
X87302517Y-102228520D01*
X87160000Y-102214483D01*
X85410000Y-102214483D01*
X85267483Y-102228520D01*
X85130443Y-102270090D01*
X85040810Y-102318000D01*
X84061710Y-102318000D01*
X83117000Y-101373291D01*
X83117000Y-90397622D01*
X83334025Y-90252611D01*
X83567611Y-90019025D01*
X83751138Y-89744357D01*
X83877554Y-89439163D01*
X83942000Y-89115170D01*
X83942000Y-88784830D01*
X83877554Y-88460837D01*
X83751138Y-88155643D01*
X83572404Y-87888149D01*
X83666185Y-87811185D01*
X83745537Y-87714494D01*
X83804502Y-87604180D01*
X83840812Y-87484482D01*
X83853072Y-87360000D01*
X83850000Y-86695750D01*
X83691250Y-86537000D01*
X82392000Y-86537000D01*
X82392000Y-86557000D01*
X82138000Y-86557000D01*
X82138000Y-86537000D01*
X80838750Y-86537000D01*
X80680000Y-86695750D01*
X80676928Y-87360000D01*
X80689188Y-87484482D01*
X80725498Y-87604180D01*
X80784463Y-87714494D01*
X80863815Y-87811185D01*
X80957596Y-87888149D01*
X80778862Y-88155643D01*
X80652446Y-88460837D01*
X80588000Y-88784830D01*
X80588000Y-89115170D01*
X80652446Y-89439163D01*
X80778862Y-89744357D01*
X80962389Y-90019025D01*
X81195975Y-90252611D01*
X81413001Y-90397623D01*
X81413000Y-101684351D01*
X81408878Y-101726200D01*
X81413000Y-101768049D01*
X81413000Y-101768051D01*
X81425328Y-101893220D01*
X81462219Y-102014833D01*
X81474046Y-102053823D01*
X81553161Y-102201836D01*
X81566096Y-102217597D01*
X81659630Y-102331570D01*
X81692146Y-102358255D01*
X81909891Y-102576000D01*
X80339819Y-102576000D01*
X80316421Y-102552602D01*
X80131835Y-102429266D01*
X79926734Y-102344310D01*
X79709000Y-102301000D01*
X79487000Y-102301000D01*
X79269266Y-102344310D01*
X79064165Y-102429266D01*
X78879579Y-102552602D01*
X78722602Y-102709579D01*
X78599266Y-102894165D01*
X78514310Y-103099266D01*
X78492071Y-103211071D01*
X78380266Y-103233310D01*
X78175165Y-103318266D01*
X77990579Y-103441602D01*
X77833602Y-103598579D01*
X77710266Y-103783165D01*
X77625310Y-103988266D01*
X77624141Y-103994141D01*
X77618266Y-103995310D01*
X77413165Y-104080266D01*
X77228579Y-104203602D01*
X77071602Y-104360579D01*
X76948266Y-104545165D01*
X76863310Y-104750266D01*
X76820000Y-104968000D01*
X76820000Y-105190000D01*
X76863310Y-105407734D01*
X76948266Y-105612835D01*
X77071602Y-105797421D01*
X77228579Y-105954398D01*
X77413165Y-106077734D01*
X77618266Y-106162690D01*
X77836000Y-106206000D01*
X78058000Y-106206000D01*
X78275734Y-106162690D01*
X78480835Y-106077734D01*
X78639078Y-105972000D01*
X84814579Y-105972000D01*
X84807507Y-105994243D01*
X84775000Y-106026750D01*
X84782363Y-106095000D01*
X84775000Y-106163250D01*
X84807507Y-106195757D01*
X84814579Y-106218000D01*
X81052078Y-106218000D01*
X80893835Y-106112266D01*
X80688734Y-106027310D01*
X80471000Y-105984000D01*
X80249000Y-105984000D01*
X80031266Y-106027310D01*
X79826165Y-106112266D01*
X79641579Y-106235602D01*
X79484602Y-106392579D01*
X79361266Y-106577165D01*
X79276310Y-106782266D01*
X79233000Y-107000000D01*
X79233000Y-107222000D01*
X79276310Y-107439734D01*
X79361266Y-107644835D01*
X79484602Y-107829421D01*
X79641579Y-107986398D01*
X79826165Y-108109734D01*
X80031266Y-108194690D01*
X80037141Y-108195859D01*
X80038310Y-108201734D01*
X80123266Y-108406835D01*
X80246602Y-108591421D01*
X80403579Y-108748398D01*
X80588165Y-108871734D01*
X80793266Y-108956690D01*
X80799141Y-108957859D01*
X80800310Y-108963734D01*
X80885266Y-109168835D01*
X81008602Y-109353421D01*
X81165579Y-109510398D01*
X81350165Y-109633734D01*
X81555266Y-109718690D01*
X81561141Y-109719859D01*
X81562310Y-109725734D01*
X81647266Y-109930835D01*
X81654726Y-109942000D01*
X70445049Y-109942000D01*
X70403200Y-109937878D01*
X70361351Y-109942000D01*
X70361348Y-109942000D01*
X70236179Y-109954328D01*
X70075576Y-110003046D01*
X69927564Y-110082161D01*
X69797830Y-110188630D01*
X69771150Y-110221140D01*
X68399291Y-111593000D01*
X66700320Y-111593000D01*
X66686480Y-111452483D01*
X66644910Y-111315443D01*
X66577403Y-111189147D01*
X66486554Y-111078446D01*
X66375853Y-110987597D01*
X66249557Y-110920090D01*
X66112517Y-110878520D01*
X65970000Y-110864483D01*
X64270000Y-110864483D01*
X64127483Y-110878520D01*
X63990443Y-110920090D01*
X63864147Y-110987597D01*
X63753446Y-111078446D01*
X63662597Y-111189147D01*
X63595090Y-111315443D01*
X63553520Y-111452483D01*
X63539483Y-111595000D01*
X63539483Y-113295000D01*
X63553520Y-113437517D01*
X63595090Y-113574557D01*
X63662597Y-113700853D01*
X63753446Y-113811554D01*
X63864147Y-113902403D01*
X63990443Y-113969910D01*
X64026665Y-113980898D01*
X64022412Y-113984731D01*
X63848359Y-114218080D01*
X63723175Y-114480901D01*
X63678524Y-114628110D01*
X63799845Y-114858000D01*
X64993000Y-114858000D01*
X64993000Y-114838000D01*
X65247000Y-114838000D01*
X65247000Y-114858000D01*
X66440155Y-114858000D01*
X66561476Y-114628110D01*
X66516825Y-114480901D01*
X66391641Y-114218080D01*
X66217588Y-113984731D01*
X66213335Y-113980898D01*
X66249557Y-113969910D01*
X66375853Y-113902403D01*
X66486554Y-113811554D01*
X66573999Y-113705000D01*
X87246928Y-113705000D01*
X87259188Y-113829482D01*
X87295498Y-113949180D01*
X87354463Y-114059494D01*
X87433815Y-114156185D01*
X87530506Y-114235537D01*
X87640820Y-114294502D01*
X87760518Y-114330812D01*
X87885000Y-114343072D01*
X88349250Y-114340000D01*
X88508000Y-114181250D01*
X88508000Y-113207000D01*
X87408750Y-113207000D01*
X87250000Y-113365750D01*
X87246928Y-113705000D01*
X66573999Y-113705000D01*
X66577403Y-113700853D01*
X66644910Y-113574557D01*
X66686480Y-113437517D01*
X66700320Y-113297000D01*
X68710351Y-113297000D01*
X68752200Y-113301122D01*
X68794049Y-113297000D01*
X68794052Y-113297000D01*
X68919221Y-113284672D01*
X69079824Y-113235954D01*
X69227836Y-113156839D01*
X69357570Y-113050370D01*
X69384255Y-113017854D01*
X69947109Y-112455000D01*
X87246928Y-112455000D01*
X87250000Y-112794250D01*
X87408750Y-112953000D01*
X88508000Y-112953000D01*
X88508000Y-111978750D01*
X88349250Y-111820000D01*
X87885000Y-111816928D01*
X87760518Y-111829188D01*
X87640820Y-111865498D01*
X87530506Y-111924463D01*
X87433815Y-112003815D01*
X87354463Y-112100506D01*
X87295498Y-112210820D01*
X87259188Y-112330518D01*
X87246928Y-112455000D01*
X69947109Y-112455000D01*
X70756110Y-111646000D01*
X96759483Y-111646000D01*
X96759483Y-112039607D01*
X96689202Y-111992647D01*
X96465903Y-111900153D01*
X96228849Y-111853000D01*
X95987151Y-111853000D01*
X95750097Y-111900153D01*
X95526798Y-111992647D01*
X95511304Y-112003000D01*
X92454532Y-112003000D01*
X92401554Y-111938446D01*
X92290853Y-111847597D01*
X92164557Y-111780090D01*
X92027517Y-111738520D01*
X91885000Y-111724483D01*
X90385000Y-111724483D01*
X90242483Y-111738520D01*
X90105443Y-111780090D01*
X89979147Y-111847597D01*
X89868446Y-111938446D01*
X89823406Y-111993328D01*
X89739494Y-111924463D01*
X89629180Y-111865498D01*
X89509482Y-111829188D01*
X89385000Y-111816928D01*
X88920750Y-111820000D01*
X88762000Y-111978750D01*
X88762000Y-112953000D01*
X88782000Y-112953000D01*
X88782000Y-113207000D01*
X88762000Y-113207000D01*
X88762000Y-114181250D01*
X88920750Y-114340000D01*
X89385000Y-114343072D01*
X89509482Y-114330812D01*
X89629180Y-114294502D01*
X89739494Y-114235537D01*
X89823406Y-114166672D01*
X89868446Y-114221554D01*
X89979147Y-114312403D01*
X90105443Y-114379910D01*
X90242483Y-114421480D01*
X90385000Y-114435517D01*
X91885000Y-114435517D01*
X92027517Y-114421480D01*
X92164557Y-114379910D01*
X92290853Y-114312403D01*
X92401554Y-114221554D01*
X92454532Y-114157000D01*
X95511304Y-114157000D01*
X95526798Y-114167353D01*
X95750097Y-114259847D01*
X95987151Y-114307000D01*
X96228849Y-114307000D01*
X96465903Y-114259847D01*
X96689202Y-114167353D01*
X96890167Y-114033073D01*
X96955707Y-113967533D01*
X96900498Y-114070820D01*
X96864188Y-114190518D01*
X96851928Y-114315000D01*
X96855000Y-114779250D01*
X97013750Y-114938000D01*
X98013000Y-114938000D01*
X98013000Y-114918000D01*
X98267000Y-114918000D01*
X98267000Y-114938000D01*
X99266250Y-114938000D01*
X99425000Y-114779250D01*
X99428072Y-114315000D01*
X99415812Y-114190518D01*
X99379502Y-114070820D01*
X99320537Y-113960506D01*
X99241185Y-113863815D01*
X99144494Y-113784463D01*
X99112121Y-113767159D01*
X99195853Y-113722403D01*
X99306554Y-113631554D01*
X99397403Y-113520853D01*
X99464910Y-113394557D01*
X99480988Y-113341554D01*
X99500153Y-113437903D01*
X99592647Y-113661202D01*
X99603000Y-113676697D01*
X99603001Y-116874758D01*
X99504147Y-116927597D01*
X99393446Y-117018446D01*
X99348406Y-117073328D01*
X99264494Y-117004463D01*
X99154180Y-116945498D01*
X99034482Y-116909188D01*
X98910000Y-116896928D01*
X98445750Y-116900000D01*
X98287000Y-117058750D01*
X98287000Y-118033000D01*
X98307000Y-118033000D01*
X98307000Y-118287000D01*
X98287000Y-118287000D01*
X98287000Y-119261250D01*
X98445750Y-119420000D01*
X98910000Y-119423072D01*
X99034482Y-119410812D01*
X99154180Y-119374502D01*
X99264494Y-119315537D01*
X99348406Y-119246672D01*
X99393446Y-119301554D01*
X99504147Y-119392403D01*
X99603001Y-119445242D01*
X99603000Y-123215364D01*
X99377389Y-123440975D01*
X99270746Y-123600578D01*
X99239752Y-123589853D01*
X98319605Y-124510000D01*
X99239752Y-125430147D01*
X99270746Y-125419422D01*
X99377389Y-125579025D01*
X99610975Y-125812611D01*
X99885643Y-125996138D01*
X100190837Y-126122554D01*
X100514830Y-126187000D01*
X100845170Y-126187000D01*
X101169163Y-126122554D01*
X101474357Y-125996138D01*
X101749025Y-125812611D01*
X101982611Y-125579025D01*
X102166138Y-125304357D01*
X102292554Y-124999163D01*
X102357000Y-124675170D01*
X102357000Y-124344830D01*
X102342514Y-124272000D01*
X104633000Y-124272000D01*
X104633000Y-124494000D01*
X104676310Y-124711734D01*
X104761266Y-124916835D01*
X104884602Y-125101421D01*
X105041579Y-125258398D01*
X105226165Y-125381734D01*
X105431266Y-125466690D01*
X105649000Y-125510000D01*
X105871000Y-125510000D01*
X106088734Y-125466690D01*
X106293835Y-125381734D01*
X106478421Y-125258398D01*
X106501819Y-125235000D01*
X115981857Y-125235000D01*
X116015090Y-125344557D01*
X116082597Y-125470853D01*
X116173446Y-125581554D01*
X116284147Y-125672403D01*
X116410443Y-125739910D01*
X116547483Y-125781480D01*
X116690000Y-125795517D01*
X117690000Y-125795517D01*
X117832517Y-125781480D01*
X117969557Y-125739910D01*
X118095853Y-125672403D01*
X118206554Y-125581554D01*
X118297403Y-125470853D01*
X118364910Y-125344557D01*
X118406480Y-125207517D01*
X118420517Y-125065000D01*
X118420517Y-123665000D01*
X118406480Y-123522483D01*
X118364910Y-123385443D01*
X118297403Y-123259147D01*
X118281690Y-123240000D01*
X118297403Y-123220853D01*
X118364910Y-123094557D01*
X118406480Y-122957517D01*
X118420517Y-122815000D01*
X118420517Y-121415000D01*
X118406480Y-121272483D01*
X118364910Y-121135443D01*
X118297403Y-121009147D01*
X118206554Y-120898446D01*
X118095853Y-120807597D01*
X118042000Y-120778812D01*
X118042000Y-120233849D01*
X118046122Y-120192000D01*
X118042000Y-120150148D01*
X118029672Y-120024979D01*
X117980954Y-119864376D01*
X117901839Y-119716364D01*
X117795370Y-119586630D01*
X117762855Y-119559946D01*
X117060055Y-118857146D01*
X117033370Y-118824630D01*
X116903636Y-118718161D01*
X116755624Y-118639046D01*
X116595021Y-118590328D01*
X116469852Y-118578000D01*
X116469849Y-118578000D01*
X116428000Y-118573878D01*
X116386151Y-118578000D01*
X116178436Y-118578000D01*
X116154910Y-118500443D01*
X116087403Y-118374147D01*
X115996554Y-118263446D01*
X115885853Y-118172597D01*
X115862286Y-118160000D01*
X115885853Y-118147403D01*
X115996554Y-118056554D01*
X116087403Y-117945853D01*
X116154910Y-117819557D01*
X116178436Y-117742000D01*
X118361091Y-117742000D01*
X118878000Y-118258910D01*
X118878001Y-120778811D01*
X118824147Y-120807597D01*
X118713446Y-120898446D01*
X118622597Y-121009147D01*
X118555090Y-121135443D01*
X118513520Y-121272483D01*
X118499483Y-121415000D01*
X118499483Y-122815000D01*
X118513520Y-122957517D01*
X118555090Y-123094557D01*
X118622597Y-123220853D01*
X118638310Y-123240000D01*
X118622597Y-123259147D01*
X118555090Y-123385443D01*
X118513520Y-123522483D01*
X118499483Y-123665000D01*
X118499483Y-125065000D01*
X118513520Y-125207517D01*
X118555090Y-125344557D01*
X118622597Y-125470853D01*
X118713446Y-125581554D01*
X118824147Y-125672403D01*
X118950443Y-125739910D01*
X119087483Y-125781480D01*
X119230000Y-125795517D01*
X120230000Y-125795517D01*
X120372517Y-125781480D01*
X120509557Y-125739910D01*
X120635853Y-125672403D01*
X120746554Y-125581554D01*
X120837403Y-125470853D01*
X120904910Y-125344557D01*
X120907205Y-125336993D01*
X120974165Y-125381734D01*
X121179266Y-125466690D01*
X121397000Y-125510000D01*
X121619000Y-125510000D01*
X121836734Y-125466690D01*
X122041835Y-125381734D01*
X122226421Y-125258398D01*
X122383398Y-125101421D01*
X122506734Y-124916835D01*
X122591690Y-124711734D01*
X122635000Y-124494000D01*
X122635000Y-124272000D01*
X122591690Y-124054266D01*
X122506734Y-123849165D01*
X122383398Y-123664579D01*
X122226421Y-123507602D01*
X122041835Y-123384266D01*
X121836734Y-123299310D01*
X121619000Y-123256000D01*
X121397000Y-123256000D01*
X121179266Y-123299310D01*
X120974165Y-123384266D01*
X120916285Y-123422940D01*
X120904910Y-123385443D01*
X120837403Y-123259147D01*
X120821690Y-123240000D01*
X120837403Y-123220853D01*
X120904910Y-123094557D01*
X120946480Y-122957517D01*
X120960517Y-122815000D01*
X120960517Y-121415000D01*
X120946480Y-121272483D01*
X120904910Y-121135443D01*
X120837403Y-121009147D01*
X120746554Y-120898446D01*
X120635853Y-120807597D01*
X120582000Y-120778812D01*
X120582000Y-117947849D01*
X120586122Y-117906000D01*
X120580865Y-117852624D01*
X120569672Y-117738979D01*
X120520954Y-117578376D01*
X120500441Y-117540000D01*
X120441839Y-117430363D01*
X120362048Y-117333138D01*
X120335370Y-117300630D01*
X120302861Y-117273951D01*
X119680910Y-116652000D01*
X123048000Y-116652000D01*
X123048000Y-116874000D01*
X123091310Y-117091734D01*
X123176266Y-117296835D01*
X123299602Y-117481421D01*
X123323000Y-117504819D01*
X123323001Y-123641180D01*
X123299602Y-123664579D01*
X123176266Y-123849165D01*
X123091310Y-124054266D01*
X123048000Y-124272000D01*
X123048000Y-124494000D01*
X123091310Y-124711734D01*
X123176266Y-124916835D01*
X123299602Y-125101421D01*
X123456579Y-125258398D01*
X123641165Y-125381734D01*
X123846266Y-125466690D01*
X124064000Y-125510000D01*
X124286000Y-125510000D01*
X124503734Y-125466690D01*
X124708835Y-125381734D01*
X124881392Y-125266435D01*
X124905090Y-125344557D01*
X124972597Y-125470853D01*
X125063446Y-125581554D01*
X125174147Y-125672403D01*
X125300443Y-125739910D01*
X125437483Y-125781480D01*
X125580000Y-125795517D01*
X126580000Y-125795517D01*
X126722517Y-125781480D01*
X126859557Y-125739910D01*
X126985853Y-125672403D01*
X127096554Y-125581554D01*
X127187403Y-125470853D01*
X127254910Y-125344557D01*
X127296480Y-125207517D01*
X127310517Y-125065000D01*
X127310517Y-123665000D01*
X127296480Y-123522483D01*
X127254910Y-123385443D01*
X127187403Y-123259147D01*
X127171690Y-123240000D01*
X127187403Y-123220853D01*
X127254910Y-123094557D01*
X127296480Y-122957517D01*
X127310517Y-122815000D01*
X127310517Y-121415000D01*
X127296480Y-121272483D01*
X127254910Y-121135443D01*
X127187403Y-121009147D01*
X127096554Y-120898446D01*
X127089148Y-120892368D01*
X127135853Y-120867403D01*
X127246554Y-120776554D01*
X127337403Y-120665853D01*
X127350000Y-120642286D01*
X127362597Y-120665853D01*
X127453446Y-120776554D01*
X127564147Y-120867403D01*
X127610852Y-120892368D01*
X127603446Y-120898446D01*
X127512597Y-121009147D01*
X127445090Y-121135443D01*
X127403520Y-121272483D01*
X127389483Y-121415000D01*
X127389483Y-122815000D01*
X127403520Y-122957517D01*
X127445090Y-123094557D01*
X127512597Y-123220853D01*
X127528310Y-123240000D01*
X127512597Y-123259147D01*
X127445090Y-123385443D01*
X127403520Y-123522483D01*
X127389483Y-123665000D01*
X127389483Y-125065000D01*
X127403520Y-125207517D01*
X127445090Y-125344557D01*
X127512597Y-125470853D01*
X127603446Y-125581554D01*
X127714147Y-125672403D01*
X127840443Y-125739910D01*
X127977483Y-125781480D01*
X128120000Y-125795517D01*
X129120000Y-125795517D01*
X129262517Y-125781480D01*
X129399557Y-125739910D01*
X129525853Y-125672403D01*
X129636554Y-125581554D01*
X129727403Y-125470853D01*
X129768173Y-125394578D01*
X129942266Y-125466690D01*
X130160000Y-125510000D01*
X130382000Y-125510000D01*
X130599734Y-125466690D01*
X130804835Y-125381734D01*
X130989421Y-125258398D01*
X131146398Y-125101421D01*
X131269734Y-124916835D01*
X131354690Y-124711734D01*
X131398000Y-124494000D01*
X131398000Y-124272000D01*
X131354690Y-124054266D01*
X131269734Y-123849165D01*
X131146398Y-123664579D01*
X130989421Y-123507602D01*
X130804835Y-123384266D01*
X130599734Y-123299310D01*
X130382000Y-123256000D01*
X130160000Y-123256000D01*
X129942266Y-123299310D01*
X129783927Y-123364896D01*
X129727403Y-123259147D01*
X129711690Y-123240000D01*
X129727403Y-123220853D01*
X129794910Y-123094557D01*
X129836480Y-122957517D01*
X129850517Y-122815000D01*
X129850517Y-121415000D01*
X129836480Y-121272483D01*
X129794910Y-121135443D01*
X129727403Y-121009147D01*
X129636554Y-120898446D01*
X129629148Y-120892368D01*
X129675853Y-120867403D01*
X129786554Y-120776554D01*
X129877403Y-120665853D01*
X129944910Y-120539557D01*
X129986480Y-120402517D01*
X130000517Y-120260000D01*
X130000517Y-118760000D01*
X129986480Y-118617483D01*
X129944910Y-118480443D01*
X129877403Y-118354147D01*
X129786554Y-118243446D01*
X129675853Y-118152597D01*
X129592121Y-118107841D01*
X129624494Y-118090537D01*
X129721185Y-118011185D01*
X129800537Y-117914494D01*
X129859502Y-117804180D01*
X129895812Y-117684482D01*
X129908072Y-117560000D01*
X129905000Y-117095750D01*
X129746250Y-116937000D01*
X128747000Y-116937000D01*
X128747000Y-116957000D01*
X128493000Y-116957000D01*
X128493000Y-116937000D01*
X127493750Y-116937000D01*
X127350000Y-117080750D01*
X127206250Y-116937000D01*
X126207000Y-116937000D01*
X126207000Y-116957000D01*
X125953000Y-116957000D01*
X125953000Y-116937000D01*
X125933000Y-116937000D01*
X125933000Y-116683000D01*
X125953000Y-116683000D01*
X125953000Y-115583750D01*
X126207000Y-115583750D01*
X126207000Y-116683000D01*
X127206250Y-116683000D01*
X127350000Y-116539250D01*
X127493750Y-116683000D01*
X128493000Y-116683000D01*
X128493000Y-115583750D01*
X128747000Y-115583750D01*
X128747000Y-116683000D01*
X129746250Y-116683000D01*
X129905000Y-116524250D01*
X129908072Y-116060000D01*
X129895812Y-115935518D01*
X129859502Y-115815820D01*
X129800537Y-115705506D01*
X129721185Y-115608815D01*
X129624494Y-115529463D01*
X129514180Y-115470498D01*
X129394482Y-115434188D01*
X129270000Y-115421928D01*
X128905750Y-115425000D01*
X128747000Y-115583750D01*
X128493000Y-115583750D01*
X128334250Y-115425000D01*
X127970000Y-115421928D01*
X127845518Y-115434188D01*
X127725820Y-115470498D01*
X127615506Y-115529463D01*
X127518815Y-115608815D01*
X127439463Y-115705506D01*
X127380498Y-115815820D01*
X127350000Y-115916358D01*
X127319502Y-115815820D01*
X127260537Y-115705506D01*
X127181185Y-115608815D01*
X127084494Y-115529463D01*
X126974180Y-115470498D01*
X126854482Y-115434188D01*
X126730000Y-115421928D01*
X126365750Y-115425000D01*
X126207000Y-115583750D01*
X125953000Y-115583750D01*
X125794250Y-115425000D01*
X125430000Y-115421928D01*
X125305518Y-115434188D01*
X125185820Y-115470498D01*
X125075506Y-115529463D01*
X124978815Y-115608815D01*
X124899463Y-115705506D01*
X124840498Y-115815820D01*
X124831312Y-115846102D01*
X124708835Y-115764266D01*
X124503734Y-115679310D01*
X124286000Y-115636000D01*
X124064000Y-115636000D01*
X123846266Y-115679310D01*
X123641165Y-115764266D01*
X123456579Y-115887602D01*
X123299602Y-116044579D01*
X123176266Y-116229165D01*
X123091310Y-116434266D01*
X123048000Y-116652000D01*
X119680910Y-116652000D01*
X119346054Y-116317145D01*
X119319370Y-116284630D01*
X119189636Y-116178161D01*
X119041624Y-116099046D01*
X118881021Y-116050328D01*
X118755852Y-116038000D01*
X118755849Y-116038000D01*
X118714000Y-116033878D01*
X118672151Y-116038000D01*
X116178436Y-116038000D01*
X116154910Y-115960443D01*
X116087403Y-115834147D01*
X115996554Y-115723446D01*
X115885853Y-115632597D01*
X115759557Y-115565090D01*
X115622517Y-115523520D01*
X115480000Y-115509483D01*
X113980000Y-115509483D01*
X113837483Y-115523520D01*
X113700443Y-115565090D01*
X113574147Y-115632597D01*
X113463446Y-115723446D01*
X113372597Y-115834147D01*
X113327841Y-115917879D01*
X113310537Y-115885506D01*
X113231185Y-115788815D01*
X113134494Y-115709463D01*
X113024180Y-115650498D01*
X112904482Y-115614188D01*
X112780000Y-115601928D01*
X112315750Y-115605000D01*
X112157000Y-115763750D01*
X112157000Y-116763000D01*
X112177000Y-116763000D01*
X112177000Y-117017000D01*
X112157000Y-117017000D01*
X112157000Y-118016250D01*
X112300750Y-118160000D01*
X112157000Y-118303750D01*
X112157000Y-119303000D01*
X112177000Y-119303000D01*
X112177000Y-119557000D01*
X112157000Y-119557000D01*
X112157000Y-120556250D01*
X112315750Y-120715000D01*
X112780000Y-120718072D01*
X112904482Y-120705812D01*
X113024180Y-120669502D01*
X113134494Y-120610537D01*
X113231185Y-120531185D01*
X113310537Y-120434494D01*
X113327841Y-120402121D01*
X113372597Y-120485853D01*
X113463446Y-120596554D01*
X113574147Y-120687403D01*
X113700443Y-120754910D01*
X113837483Y-120796480D01*
X113980000Y-120810517D01*
X115480000Y-120810517D01*
X115622517Y-120796480D01*
X115759557Y-120754910D01*
X115885853Y-120687403D01*
X115996554Y-120596554D01*
X116087403Y-120485853D01*
X116154122Y-120361031D01*
X116338000Y-120544909D01*
X116338000Y-120778812D01*
X116284147Y-120807597D01*
X116173446Y-120898446D01*
X116082597Y-121009147D01*
X116015090Y-121135443D01*
X115973520Y-121272483D01*
X115959483Y-121415000D01*
X115959483Y-122815000D01*
X115973520Y-122957517D01*
X116015090Y-123094557D01*
X116082597Y-123220853D01*
X116098310Y-123240000D01*
X116082597Y-123259147D01*
X116015090Y-123385443D01*
X115973520Y-123522483D01*
X115972681Y-123531000D01*
X106501819Y-123531000D01*
X106478421Y-123507602D01*
X106293835Y-123384266D01*
X106088734Y-123299310D01*
X105871000Y-123256000D01*
X105649000Y-123256000D01*
X105431266Y-123299310D01*
X105226165Y-123384266D01*
X105041579Y-123507602D01*
X104884602Y-123664579D01*
X104761266Y-123849165D01*
X104676310Y-124054266D01*
X104633000Y-124272000D01*
X102342514Y-124272000D01*
X102292554Y-124020837D01*
X102166138Y-123715643D01*
X101982611Y-123440975D01*
X101757000Y-123215364D01*
X101757000Y-120080000D01*
X110641928Y-120080000D01*
X110654188Y-120204482D01*
X110690498Y-120324180D01*
X110749463Y-120434494D01*
X110828815Y-120531185D01*
X110925506Y-120610537D01*
X111035820Y-120669502D01*
X111155518Y-120705812D01*
X111280000Y-120718072D01*
X111744250Y-120715000D01*
X111903000Y-120556250D01*
X111903000Y-119557000D01*
X110803750Y-119557000D01*
X110645000Y-119715750D01*
X110641928Y-120080000D01*
X101757000Y-120080000D01*
X101757000Y-119423861D01*
X101815853Y-119392403D01*
X101926554Y-119301554D01*
X102017403Y-119190853D01*
X102084910Y-119064557D01*
X102126480Y-118927517D01*
X102140517Y-118785000D01*
X102140517Y-117540000D01*
X110641928Y-117540000D01*
X110654188Y-117664482D01*
X110690498Y-117784180D01*
X110749463Y-117894494D01*
X110828815Y-117991185D01*
X110925506Y-118070537D01*
X111035820Y-118129502D01*
X111136358Y-118160000D01*
X111035820Y-118190498D01*
X110925506Y-118249463D01*
X110828815Y-118328815D01*
X110749463Y-118425506D01*
X110690498Y-118535820D01*
X110654188Y-118655518D01*
X110641928Y-118780000D01*
X110645000Y-119144250D01*
X110803750Y-119303000D01*
X111903000Y-119303000D01*
X111903000Y-118303750D01*
X111759250Y-118160000D01*
X111903000Y-118016250D01*
X111903000Y-117017000D01*
X110803750Y-117017000D01*
X110645000Y-117175750D01*
X110641928Y-117540000D01*
X102140517Y-117540000D01*
X102140517Y-117535000D01*
X102126480Y-117392483D01*
X102084910Y-117255443D01*
X102017403Y-117129147D01*
X101926554Y-117018446D01*
X101815853Y-116927597D01*
X101757000Y-116896139D01*
X101757000Y-116240000D01*
X110641928Y-116240000D01*
X110645000Y-116604250D01*
X110803750Y-116763000D01*
X111903000Y-116763000D01*
X111903000Y-115763750D01*
X111744250Y-115605000D01*
X111280000Y-115601928D01*
X111155518Y-115614188D01*
X111035820Y-115650498D01*
X110925506Y-115709463D01*
X110828815Y-115788815D01*
X110749463Y-115885506D01*
X110690498Y-115995820D01*
X110654188Y-116115518D01*
X110641928Y-116240000D01*
X101757000Y-116240000D01*
X101757000Y-113676696D01*
X101767353Y-113661202D01*
X101859847Y-113437903D01*
X101907000Y-113200849D01*
X101907000Y-113171109D01*
X102024734Y-113147690D01*
X102229835Y-113062734D01*
X102414421Y-112939398D01*
X102437819Y-112916000D01*
X122290181Y-112916000D01*
X122313579Y-112939398D01*
X122498165Y-113062734D01*
X122703266Y-113147690D01*
X122921000Y-113191000D01*
X123143000Y-113191000D01*
X123360734Y-113147690D01*
X123565835Y-113062734D01*
X123750421Y-112939398D01*
X123907398Y-112782421D01*
X124030734Y-112597835D01*
X124115690Y-112392734D01*
X124133738Y-112302000D01*
X124286000Y-112302000D01*
X124503734Y-112258690D01*
X124708835Y-112173734D01*
X124893421Y-112050398D01*
X125050398Y-111893421D01*
X125173734Y-111708835D01*
X125258690Y-111503734D01*
X125302000Y-111286000D01*
X125302000Y-111064000D01*
X125258690Y-110846266D01*
X125173734Y-110641165D01*
X125050398Y-110456579D01*
X124893421Y-110299602D01*
X124708835Y-110176266D01*
X124503734Y-110091310D01*
X124286000Y-110048000D01*
X124064000Y-110048000D01*
X123846266Y-110091310D01*
X123641165Y-110176266D01*
X123456579Y-110299602D01*
X123433181Y-110323000D01*
X120977925Y-110323000D01*
X120993773Y-110307152D01*
X121171828Y-110040673D01*
X121294475Y-109744578D01*
X121357000Y-109430245D01*
X121357000Y-109109755D01*
X121294475Y-108795422D01*
X121171828Y-108499327D01*
X120993773Y-108232848D01*
X120767152Y-108006227D01*
X120500673Y-107828172D01*
X120204578Y-107705525D01*
X119890245Y-107643000D01*
X119569755Y-107643000D01*
X119255422Y-107705525D01*
X118959327Y-107828172D01*
X118692848Y-108006227D01*
X118506075Y-108193000D01*
X115604108Y-108193000D01*
X112761973Y-105350866D01*
X112728239Y-105309761D01*
X112606324Y-105209708D01*
X112704557Y-105179910D01*
X112830853Y-105112403D01*
X112941554Y-105021554D01*
X113030014Y-104913764D01*
X113220643Y-105041138D01*
X113525837Y-105167554D01*
X113849830Y-105232000D01*
X114180170Y-105232000D01*
X114504163Y-105167554D01*
X114809357Y-105041138D01*
X115084025Y-104857611D01*
X115309636Y-104632000D01*
X116743893Y-104632000D01*
X118931032Y-106819140D01*
X118964761Y-106860239D01*
X119128756Y-106994826D01*
X119315856Y-107094833D01*
X119518871Y-107156417D01*
X119677091Y-107172000D01*
X119677092Y-107172000D01*
X119729999Y-107177211D01*
X119782906Y-107172000D01*
X126273001Y-107172000D01*
X126273000Y-110586075D01*
X126086227Y-110772848D01*
X125908172Y-111039327D01*
X125785525Y-111335422D01*
X125723000Y-111649755D01*
X125723000Y-111970245D01*
X125785525Y-112284578D01*
X125908172Y-112580673D01*
X126086227Y-112847152D01*
X126312848Y-113073773D01*
X126579327Y-113251828D01*
X126875422Y-113374475D01*
X127189755Y-113437000D01*
X127510245Y-113437000D01*
X127824578Y-113374475D01*
X128120673Y-113251828D01*
X128387152Y-113073773D01*
X128613773Y-112847152D01*
X128791828Y-112580673D01*
X128914475Y-112284578D01*
X128977000Y-111970245D01*
X128977000Y-111649755D01*
X128914475Y-111335422D01*
X128791828Y-111039327D01*
X128613773Y-110772848D01*
X128427000Y-110586075D01*
X128427000Y-109109755D01*
X130803000Y-109109755D01*
X130803000Y-109430245D01*
X130865525Y-109744578D01*
X130988172Y-110040673D01*
X131166227Y-110307152D01*
X131392848Y-110533773D01*
X131659327Y-110711828D01*
X131955422Y-110834475D01*
X132269755Y-110897000D01*
X132590245Y-110897000D01*
X132904578Y-110834475D01*
X133200673Y-110711828D01*
X133467152Y-110533773D01*
X133693773Y-110307152D01*
X133871828Y-110040673D01*
X133994475Y-109744578D01*
X134057000Y-109430245D01*
X134057000Y-109109755D01*
X133994475Y-108795422D01*
X133871828Y-108499327D01*
X133693773Y-108232848D01*
X133467152Y-108006227D01*
X133200673Y-107828172D01*
X132904578Y-107705525D01*
X132590245Y-107643000D01*
X132269755Y-107643000D01*
X131955422Y-107705525D01*
X131659327Y-107828172D01*
X131392848Y-108006227D01*
X131166227Y-108232848D01*
X130988172Y-108499327D01*
X130865525Y-108795422D01*
X130803000Y-109109755D01*
X128427000Y-109109755D01*
X128427000Y-106147909D01*
X128432211Y-106095000D01*
X128427000Y-106042091D01*
X128427000Y-104877906D01*
X128432211Y-104824999D01*
X128422554Y-104726954D01*
X128411417Y-104613871D01*
X128349833Y-104410856D01*
X128249826Y-104223756D01*
X128115239Y-104059761D01*
X128074140Y-104026032D01*
X126878972Y-102830865D01*
X126845239Y-102789761D01*
X126681244Y-102655174D01*
X126494144Y-102555167D01*
X126291129Y-102493583D01*
X126132909Y-102478000D01*
X126132907Y-102478000D01*
X126080000Y-102472789D01*
X126027093Y-102478000D01*
X125595048Y-102478000D01*
X125521554Y-102388446D01*
X125410853Y-102297597D01*
X125284557Y-102230090D01*
X125147517Y-102188520D01*
X125005000Y-102174483D01*
X123505000Y-102174483D01*
X123362483Y-102188520D01*
X123225443Y-102230090D01*
X123099147Y-102297597D01*
X122988446Y-102388446D01*
X122905000Y-102490126D01*
X122821554Y-102388446D01*
X122710853Y-102297597D01*
X122584557Y-102230090D01*
X122447517Y-102188520D01*
X122305000Y-102174483D01*
X120805000Y-102174483D01*
X120662483Y-102188520D01*
X120525443Y-102230090D01*
X120399147Y-102297597D01*
X120288446Y-102388446D01*
X120245711Y-102440520D01*
X120087903Y-102375153D01*
X119850849Y-102328000D01*
X119609151Y-102328000D01*
X119372097Y-102375153D01*
X119148798Y-102467647D01*
X118947833Y-102601927D01*
X118776927Y-102772833D01*
X118642647Y-102973798D01*
X118550153Y-103197097D01*
X118517809Y-103359702D01*
X117988973Y-102830866D01*
X117955239Y-102789761D01*
X117791244Y-102655174D01*
X117604144Y-102555167D01*
X117401129Y-102493583D01*
X117242909Y-102478000D01*
X117242907Y-102478000D01*
X117190000Y-102472789D01*
X117137093Y-102478000D01*
X115309636Y-102478000D01*
X115084025Y-102252389D01*
X114809357Y-102068862D01*
X114504163Y-101942446D01*
X114180170Y-101878000D01*
X113849830Y-101878000D01*
X113525837Y-101942446D01*
X113220643Y-102068862D01*
X113030014Y-102196236D01*
X112941554Y-102088446D01*
X112830853Y-101997597D01*
X112704557Y-101930090D01*
X112567517Y-101888520D01*
X112552000Y-101886992D01*
X112552000Y-98873008D01*
X112567517Y-98871480D01*
X112704557Y-98829910D01*
X112830853Y-98762403D01*
X112941554Y-98671554D01*
X113030014Y-98563764D01*
X113220643Y-98691138D01*
X113525837Y-98817554D01*
X113849830Y-98882000D01*
X114180170Y-98882000D01*
X114504163Y-98817554D01*
X114809357Y-98691138D01*
X115084025Y-98507611D01*
X115309636Y-98282000D01*
X117137093Y-98282000D01*
X117190000Y-98287211D01*
X117242907Y-98282000D01*
X117242909Y-98282000D01*
X117401129Y-98266417D01*
X117604144Y-98204833D01*
X117791244Y-98104826D01*
X117955239Y-97970239D01*
X117988973Y-97929134D01*
X118517809Y-97400298D01*
X118550153Y-97562903D01*
X118642647Y-97786202D01*
X118776927Y-97987167D01*
X118947833Y-98158073D01*
X119148798Y-98292353D01*
X119372097Y-98384847D01*
X119609151Y-98432000D01*
X119850849Y-98432000D01*
X120087903Y-98384847D01*
X120245711Y-98319480D01*
X120288446Y-98371554D01*
X120399147Y-98462403D01*
X120525443Y-98529910D01*
X120662483Y-98571480D01*
X120805000Y-98585517D01*
X122305000Y-98585517D01*
X122447517Y-98571480D01*
X122584557Y-98529910D01*
X122710853Y-98462403D01*
X122821554Y-98371554D01*
X122905000Y-98269874D01*
X122988446Y-98371554D01*
X123099147Y-98462403D01*
X123225443Y-98529910D01*
X123362483Y-98571480D01*
X123505000Y-98585517D01*
X125005000Y-98585517D01*
X125147517Y-98571480D01*
X125284557Y-98529910D01*
X125410853Y-98462403D01*
X125521554Y-98371554D01*
X125595048Y-98282000D01*
X126027093Y-98282000D01*
X126080000Y-98287211D01*
X126132907Y-98282000D01*
X126132909Y-98282000D01*
X126291129Y-98266417D01*
X126494144Y-98204833D01*
X126681244Y-98104826D01*
X126845239Y-97970239D01*
X126878972Y-97929135D01*
X128074140Y-96733968D01*
X128115239Y-96700239D01*
X128249826Y-96536244D01*
X128349833Y-96349144D01*
X128411417Y-96146129D01*
X128427000Y-95987909D01*
X128427000Y-95987908D01*
X128432211Y-95935001D01*
X128427000Y-95882094D01*
X128427000Y-94717909D01*
X128432211Y-94665000D01*
X128427000Y-94612091D01*
X128427000Y-92713925D01*
X128613773Y-92527152D01*
X128791828Y-92260673D01*
X128914475Y-91964578D01*
X128977000Y-91650245D01*
X128977000Y-91329755D01*
X128914475Y-91015422D01*
X128791828Y-90719327D01*
X128613773Y-90452848D01*
X128387152Y-90226227D01*
X128120673Y-90048172D01*
X127824578Y-89925525D01*
X127510245Y-89863000D01*
X127189755Y-89863000D01*
X126875422Y-89925525D01*
X126579327Y-90048172D01*
X126312848Y-90226227D01*
X126086227Y-90452848D01*
X125908172Y-90719327D01*
X125785525Y-91015422D01*
X125723000Y-91329755D01*
X125723000Y-91650245D01*
X125785525Y-91964578D01*
X125908172Y-92260673D01*
X126086227Y-92527152D01*
X126273000Y-92713925D01*
X126273001Y-93588000D01*
X119782906Y-93588000D01*
X119729999Y-93582789D01*
X119677092Y-93588000D01*
X119677091Y-93588000D01*
X119518871Y-93603583D01*
X119315856Y-93665167D01*
X119128756Y-93765174D01*
X118964761Y-93899761D01*
X118931032Y-93940860D01*
X116743893Y-96128000D01*
X115309636Y-96128000D01*
X115084025Y-95902389D01*
X114809357Y-95718862D01*
X114504163Y-95592446D01*
X114180170Y-95528000D01*
X113849830Y-95528000D01*
X113525837Y-95592446D01*
X113220643Y-95718862D01*
X113030014Y-95846236D01*
X112941554Y-95738446D01*
X112830853Y-95647597D01*
X112704557Y-95580090D01*
X112567517Y-95538520D01*
X112552000Y-95536992D01*
X112552000Y-95352909D01*
X112557211Y-95300000D01*
X112552000Y-95247091D01*
X112552000Y-92812909D01*
X112557211Y-92760000D01*
X112552000Y-92707091D01*
X112552000Y-88789755D01*
X118103000Y-88789755D01*
X118103000Y-89110245D01*
X118165525Y-89424578D01*
X118288172Y-89720673D01*
X118466227Y-89987152D01*
X118692848Y-90213773D01*
X118959327Y-90391828D01*
X119255422Y-90514475D01*
X119569755Y-90577000D01*
X119890245Y-90577000D01*
X120204578Y-90514475D01*
X120500673Y-90391828D01*
X120767152Y-90213773D01*
X120993773Y-89987152D01*
X121171828Y-89720673D01*
X121294475Y-89424578D01*
X121357000Y-89110245D01*
X121357000Y-88789755D01*
X130803000Y-88789755D01*
X130803000Y-89110245D01*
X130865525Y-89424578D01*
X130988172Y-89720673D01*
X131166227Y-89987152D01*
X131392848Y-90213773D01*
X131659327Y-90391828D01*
X131955422Y-90514475D01*
X132269755Y-90577000D01*
X132590245Y-90577000D01*
X132904578Y-90514475D01*
X133200673Y-90391828D01*
X133467152Y-90213773D01*
X133693773Y-89987152D01*
X133871828Y-89720673D01*
X133994475Y-89424578D01*
X134057000Y-89110245D01*
X134057000Y-88789755D01*
X133994475Y-88475422D01*
X133871828Y-88179327D01*
X133693773Y-87912848D01*
X133467152Y-87686227D01*
X133200673Y-87508172D01*
X132904578Y-87385525D01*
X132590245Y-87323000D01*
X132269755Y-87323000D01*
X131955422Y-87385525D01*
X131659327Y-87508172D01*
X131392848Y-87686227D01*
X131166227Y-87912848D01*
X130988172Y-88179327D01*
X130865525Y-88475422D01*
X130803000Y-88789755D01*
X121357000Y-88789755D01*
X121294475Y-88475422D01*
X121171828Y-88179327D01*
X120993773Y-87912848D01*
X120767152Y-87686227D01*
X120500673Y-87508172D01*
X120204578Y-87385525D01*
X119890245Y-87323000D01*
X119569755Y-87323000D01*
X119255422Y-87385525D01*
X118959327Y-87508172D01*
X118692848Y-87686227D01*
X118466227Y-87912848D01*
X118288172Y-88179327D01*
X118165525Y-88475422D01*
X118103000Y-88789755D01*
X112552000Y-88789755D01*
X112552000Y-85967107D01*
X113318108Y-85201000D01*
X115740093Y-85201000D01*
X115793000Y-85206211D01*
X115845907Y-85201000D01*
X132377091Y-85201000D01*
X132430000Y-85206211D01*
X132482909Y-85201000D01*
X134790093Y-85201000D01*
X134843000Y-85206211D01*
X134895907Y-85201000D01*
X134895909Y-85201000D01*
X135054129Y-85185417D01*
X135257144Y-85123833D01*
X135444244Y-85023826D01*
X135608239Y-84889239D01*
X135641972Y-84848135D01*
X137091140Y-83398968D01*
X137132239Y-83365239D01*
X137266826Y-83201244D01*
X137366833Y-83014144D01*
X137428417Y-82811129D01*
X137444000Y-82652909D01*
X137444000Y-82652908D01*
X137449211Y-82600001D01*
X137444000Y-82547094D01*
X137444000Y-59919907D01*
X137449211Y-59867000D01*
X137433378Y-59706244D01*
X137428417Y-59655871D01*
X137366833Y-59452856D01*
X137293751Y-59316129D01*
X137266826Y-59265755D01*
X137165966Y-59142858D01*
X137132239Y-59101761D01*
X137091139Y-59068031D01*
X136403972Y-58380865D01*
X136370239Y-58339761D01*
X136206244Y-58205174D01*
X136019144Y-58105167D01*
X135816129Y-58043583D01*
X135657909Y-58028000D01*
X135657907Y-58028000D01*
X135605000Y-58022789D01*
X135552093Y-58028000D01*
X130082108Y-58028000D01*
X129717000Y-57662893D01*
X129717000Y-57204551D01*
X129795853Y-57162403D01*
X129906554Y-57071554D01*
X129951594Y-57016672D01*
X130035506Y-57085537D01*
X130145820Y-57144502D01*
X130265518Y-57180812D01*
X130390000Y-57193072D01*
X130854250Y-57190000D01*
X131013000Y-57031250D01*
X131013000Y-56057000D01*
X131267000Y-56057000D01*
X131267000Y-57031250D01*
X131425750Y-57190000D01*
X131890000Y-57193072D01*
X132014482Y-57180812D01*
X132134180Y-57144502D01*
X132244494Y-57085537D01*
X132341185Y-57006185D01*
X132420537Y-56909494D01*
X132479502Y-56799180D01*
X132515812Y-56679482D01*
X132528072Y-56555000D01*
X132525000Y-56215750D01*
X132366250Y-56057000D01*
X131267000Y-56057000D01*
X131013000Y-56057000D01*
X130993000Y-56057000D01*
X130993000Y-55803000D01*
X131013000Y-55803000D01*
X131013000Y-54828750D01*
X131267000Y-54828750D01*
X131267000Y-55803000D01*
X132366250Y-55803000D01*
X132525000Y-55644250D01*
X132528072Y-55305000D01*
X132515812Y-55180518D01*
X132479502Y-55060820D01*
X132420537Y-54950506D01*
X132341185Y-54853815D01*
X132244494Y-54774463D01*
X132134180Y-54715498D01*
X132014482Y-54679188D01*
X131890000Y-54666928D01*
X131425750Y-54670000D01*
X131267000Y-54828750D01*
X131013000Y-54828750D01*
X130854250Y-54670000D01*
X130390000Y-54666928D01*
X130265518Y-54679188D01*
X130145820Y-54715498D01*
X130035506Y-54774463D01*
X129951594Y-54843328D01*
X129906554Y-54788446D01*
X129795853Y-54697597D01*
X129717000Y-54655449D01*
X129717000Y-54097906D01*
X129722211Y-54044999D01*
X129716917Y-53991245D01*
X129703474Y-53854752D01*
X131509853Y-53854752D01*
X131599579Y-54114042D01*
X131880671Y-54249935D01*
X132182873Y-54328379D01*
X132494573Y-54346359D01*
X132803791Y-54303184D01*
X133098644Y-54200513D01*
X133260421Y-54114042D01*
X133350147Y-53854752D01*
X132430000Y-52934605D01*
X131509853Y-53854752D01*
X129703474Y-53854752D01*
X129701417Y-53833871D01*
X129639833Y-53630856D01*
X129539826Y-53443756D01*
X129405239Y-53279761D01*
X129364140Y-53246032D01*
X129027000Y-52908892D01*
X129027000Y-52589830D01*
X128962554Y-52265837D01*
X128836138Y-51960643D01*
X128708764Y-51770014D01*
X128816554Y-51681554D01*
X128907403Y-51570853D01*
X128974910Y-51444557D01*
X129016480Y-51307517D01*
X129030517Y-51165000D01*
X129030517Y-49265000D01*
X130749483Y-49265000D01*
X130749483Y-51165000D01*
X130763520Y-51307517D01*
X130805090Y-51444557D01*
X130872597Y-51570853D01*
X130963446Y-51681554D01*
X131074147Y-51772403D01*
X131200443Y-51839910D01*
X131261826Y-51858530D01*
X131070958Y-51924579D01*
X130935065Y-52205671D01*
X130856621Y-52507873D01*
X130838641Y-52819573D01*
X130881816Y-53128791D01*
X130984487Y-53423644D01*
X131070958Y-53585421D01*
X131330248Y-53675147D01*
X132250395Y-52755000D01*
X132236253Y-52740858D01*
X132415858Y-52561253D01*
X132430000Y-52575395D01*
X132444143Y-52561253D01*
X132623748Y-52740858D01*
X132609605Y-52755000D01*
X133529752Y-53675147D01*
X133789042Y-53585421D01*
X133924935Y-53304329D01*
X134003379Y-53002127D01*
X134021359Y-52690427D01*
X133978184Y-52381209D01*
X133875513Y-52086356D01*
X133789042Y-51924579D01*
X133598174Y-51858530D01*
X133659557Y-51839910D01*
X133785853Y-51772403D01*
X133896554Y-51681554D01*
X133987403Y-51570853D01*
X134054910Y-51444557D01*
X134096480Y-51307517D01*
X134110517Y-51165000D01*
X134110517Y-49265000D01*
X134096480Y-49122483D01*
X134054910Y-48985443D01*
X133987403Y-48859147D01*
X133896554Y-48748446D01*
X133785853Y-48657597D01*
X133659557Y-48590090D01*
X133522517Y-48548520D01*
X133380000Y-48534483D01*
X131480000Y-48534483D01*
X131337483Y-48548520D01*
X131200443Y-48590090D01*
X131074147Y-48657597D01*
X130963446Y-48748446D01*
X130872597Y-48859147D01*
X130805090Y-48985443D01*
X130763520Y-49122483D01*
X130749483Y-49265000D01*
X129030517Y-49265000D01*
X129016480Y-49122483D01*
X128974910Y-48985443D01*
X128907403Y-48859147D01*
X128816554Y-48748446D01*
X128705853Y-48657597D01*
X128579557Y-48590090D01*
X128442517Y-48548520D01*
X128427000Y-48546992D01*
X128427000Y-48362906D01*
X128432211Y-48309999D01*
X128422941Y-48215878D01*
X128411417Y-48098871D01*
X128349833Y-47895856D01*
X128249826Y-47708756D01*
X128115239Y-47544761D01*
X128074134Y-47511027D01*
X127833973Y-47270866D01*
X127800239Y-47229761D01*
X127636244Y-47095174D01*
X127449144Y-46995167D01*
X127246129Y-46933583D01*
X127087909Y-46918000D01*
X127087907Y-46918000D01*
X127035000Y-46912789D01*
X126982093Y-46918000D01*
X121626907Y-46918000D01*
X121574000Y-46912789D01*
X121521093Y-46918000D01*
X116033907Y-46918000D01*
X115981000Y-46912789D01*
X115928093Y-46918000D01*
X107647667Y-46918000D01*
X107566555Y-46893395D01*
X107524833Y-46755856D01*
X107424826Y-46568756D01*
X107290239Y-46404761D01*
X107249134Y-46371027D01*
X106939973Y-46061866D01*
X106906239Y-46020761D01*
X106742244Y-45886174D01*
X106555144Y-45786167D01*
X106352129Y-45724583D01*
X106193909Y-45709000D01*
X106193907Y-45709000D01*
X106141000Y-45703789D01*
X106088093Y-45709000D01*
X91751696Y-45709000D01*
X91736202Y-45698647D01*
X91512903Y-45606153D01*
X91275849Y-45559000D01*
X91034151Y-45559000D01*
X90797097Y-45606153D01*
X90573798Y-45698647D01*
X90372833Y-45832927D01*
X90201927Y-46003833D01*
X90067647Y-46204798D01*
X89975153Y-46428097D01*
X89928000Y-46665151D01*
X89928000Y-46906849D01*
X89975153Y-47143903D01*
X90067647Y-47367202D01*
X90201927Y-47568167D01*
X90372833Y-47739073D01*
X90573798Y-47873353D01*
X90797097Y-47965847D01*
X91034151Y-48013000D01*
X91275849Y-48013000D01*
X91435280Y-47981287D01*
X91422141Y-47988310D01*
X91315755Y-48045174D01*
X91250327Y-48098870D01*
X91151761Y-48179761D01*
X91118031Y-48220861D01*
X90430861Y-48908032D01*
X90389762Y-48941761D01*
X90255175Y-49105756D01*
X90155168Y-49292856D01*
X90093583Y-49495871D01*
X90089103Y-49541356D01*
X90013446Y-49603446D01*
X89922597Y-49714147D01*
X89880449Y-49793000D01*
X89649978Y-49793000D01*
X89646480Y-49757483D01*
X89604910Y-49620443D01*
X89537403Y-49494147D01*
X89446554Y-49383446D01*
X89335853Y-49292597D01*
X89209557Y-49225090D01*
X89072517Y-49183520D01*
X88930000Y-49169483D01*
X87030000Y-49169483D01*
X86887483Y-49183520D01*
X86750443Y-49225090D01*
X86624147Y-49292597D01*
X86513446Y-49383446D01*
X86422597Y-49494147D01*
X86355090Y-49620443D01*
X86313520Y-49757483D01*
X86311992Y-49773000D01*
X85492906Y-49773000D01*
X85439999Y-49767789D01*
X85387092Y-49773000D01*
X85387091Y-49773000D01*
X85228871Y-49788583D01*
X85025856Y-49850167D01*
X84838756Y-49950174D01*
X84674761Y-50084761D01*
X84641032Y-50125860D01*
X83723893Y-51043000D01*
X83559636Y-51043000D01*
X83334025Y-50817389D01*
X83059357Y-50633862D01*
X82754163Y-50507446D01*
X82430170Y-50443000D01*
X82099830Y-50443000D01*
X81775837Y-50507446D01*
X81470643Y-50633862D01*
X81280014Y-50761236D01*
X81191554Y-50653446D01*
X81080853Y-50562597D01*
X80954557Y-50495090D01*
X80817517Y-50453520D01*
X80675000Y-50439483D01*
X78775000Y-50439483D01*
X78632483Y-50453520D01*
X78495443Y-50495090D01*
X78369147Y-50562597D01*
X78258446Y-50653446D01*
X78167597Y-50764147D01*
X78104779Y-50881671D01*
X77668972Y-50445865D01*
X77635239Y-50404761D01*
X77478650Y-50276252D01*
X77499557Y-50269910D01*
X77625853Y-50202403D01*
X77736554Y-50111554D01*
X77820000Y-50009874D01*
X77903446Y-50111554D01*
X78014147Y-50202403D01*
X78140443Y-50269910D01*
X78277483Y-50311480D01*
X78420000Y-50325517D01*
X79920000Y-50325517D01*
X80062517Y-50311480D01*
X80199557Y-50269910D01*
X80325853Y-50202403D01*
X80436554Y-50111554D01*
X80527403Y-50000853D01*
X80540393Y-49976551D01*
X80666266Y-50028690D01*
X80884000Y-50072000D01*
X81106000Y-50072000D01*
X81323734Y-50028690D01*
X81528835Y-49943734D01*
X81713421Y-49820398D01*
X81870398Y-49663421D01*
X81993734Y-49478835D01*
X82078690Y-49273734D01*
X82122000Y-49056000D01*
X82122000Y-48834000D01*
X82078690Y-48616266D01*
X81993734Y-48411165D01*
X81870398Y-48226579D01*
X81713421Y-48069602D01*
X81528835Y-47946266D01*
X81323734Y-47861310D01*
X81106000Y-47818000D01*
X80884000Y-47818000D01*
X80666266Y-47861310D01*
X80540393Y-47913449D01*
X80527403Y-47889147D01*
X80436554Y-47778446D01*
X80325853Y-47687597D01*
X80199557Y-47620090D01*
X80062517Y-47578520D01*
X79920000Y-47564483D01*
X78420000Y-47564483D01*
X78277483Y-47578520D01*
X78140443Y-47620090D01*
X78014147Y-47687597D01*
X77903446Y-47778446D01*
X77820000Y-47880126D01*
X77736554Y-47778446D01*
X77625853Y-47687597D01*
X77499557Y-47620090D01*
X77362517Y-47578520D01*
X77220000Y-47564483D01*
X75720000Y-47564483D01*
X75577483Y-47578520D01*
X75440443Y-47620090D01*
X75314147Y-47687597D01*
X75203446Y-47778446D01*
X75112597Y-47889147D01*
X75045090Y-48015443D01*
X75021564Y-48093000D01*
X74566188Y-48093000D01*
X74537403Y-48039147D01*
X74446554Y-47928446D01*
X74335853Y-47837597D01*
X74209557Y-47770090D01*
X74072517Y-47728520D01*
X73930000Y-47714483D01*
X72530000Y-47714483D01*
X72387483Y-47728520D01*
X72250443Y-47770090D01*
X72127000Y-47836072D01*
X72127000Y-45302000D01*
X141698001Y-45302000D01*
X141698000Y-93903000D01*
X141698000Y-93903000D01*
G37*
X141698000Y-93903000D02*
X129255000Y-93903000D01*
X129230224Y-93905440D01*
X129206399Y-93912667D01*
X129184443Y-93924403D01*
X129165197Y-93940197D01*
X129149403Y-93959443D01*
X129137667Y-93981399D01*
X129130440Y-94005224D01*
X129128000Y-94030000D01*
X129128000Y-106095000D01*
X129130440Y-106119776D01*
X129137667Y-106143601D01*
X129149403Y-106165557D01*
X129165197Y-106184803D01*
X129184443Y-106200597D01*
X129206399Y-106212333D01*
X129230224Y-106219560D01*
X129255000Y-106222000D01*
X141698000Y-106222000D01*
X141698000Y-126698000D01*
X58302000Y-126698000D01*
X58302000Y-124344830D01*
X83763000Y-124344830D01*
X83763000Y-124675170D01*
X83827446Y-124999163D01*
X83953862Y-125304357D01*
X84137389Y-125579025D01*
X84370975Y-125812611D01*
X84645643Y-125996138D01*
X84950837Y-126122554D01*
X85274830Y-126187000D01*
X85605170Y-126187000D01*
X85929163Y-126122554D01*
X86234357Y-125996138D01*
X86509025Y-125812611D01*
X86710000Y-125611636D01*
X86910975Y-125812611D01*
X87185643Y-125996138D01*
X87490837Y-126122554D01*
X87814830Y-126187000D01*
X88145170Y-126187000D01*
X88469163Y-126122554D01*
X88774357Y-125996138D01*
X89049025Y-125812611D01*
X89250000Y-125611636D01*
X89450975Y-125812611D01*
X89725643Y-125996138D01*
X90030837Y-126122554D01*
X90354830Y-126187000D01*
X90685170Y-126187000D01*
X91009163Y-126122554D01*
X91314357Y-125996138D01*
X91589025Y-125812611D01*
X91790000Y-125611636D01*
X91990975Y-125812611D01*
X92265643Y-125996138D01*
X92570837Y-126122554D01*
X92894830Y-126187000D01*
X93225170Y-126187000D01*
X93549163Y-126122554D01*
X93854357Y-125996138D01*
X94129025Y-125812611D01*
X94330000Y-125611636D01*
X94530975Y-125812611D01*
X94805643Y-125996138D01*
X95110837Y-126122554D01*
X95434830Y-126187000D01*
X95765170Y-126187000D01*
X96089163Y-126122554D01*
X96394357Y-125996138D01*
X96669025Y-125812611D01*
X96871884Y-125609752D01*
X97219853Y-125609752D01*
X97309579Y-125869042D01*
X97590671Y-126004935D01*
X97892873Y-126083379D01*
X98204573Y-126101359D01*
X98513791Y-126058184D01*
X98808644Y-125955513D01*
X98970421Y-125869042D01*
X99060147Y-125609752D01*
X98140000Y-124689605D01*
X97219853Y-125609752D01*
X96871884Y-125609752D01*
X96902611Y-125579025D01*
X97009254Y-125419422D01*
X97040248Y-125430147D01*
X97960395Y-124510000D01*
X97040248Y-123589853D01*
X97009254Y-123600578D01*
X96902611Y-123440975D01*
X96871884Y-123410248D01*
X97219853Y-123410248D01*
X98140000Y-124330395D01*
X99060147Y-123410248D01*
X98970421Y-123150958D01*
X98689329Y-123015065D01*
X98387127Y-122936621D01*
X98075427Y-122918641D01*
X97766209Y-122961816D01*
X97471356Y-123064487D01*
X97309579Y-123150958D01*
X97219853Y-123410248D01*
X96871884Y-123410248D01*
X96669025Y-123207389D01*
X96394357Y-123023862D01*
X96089163Y-122897446D01*
X95765170Y-122833000D01*
X95434830Y-122833000D01*
X95110837Y-122897446D01*
X94805643Y-123023862D01*
X94530975Y-123207389D01*
X94330000Y-123408364D01*
X94129025Y-123207389D01*
X93854357Y-123023862D01*
X93549163Y-122897446D01*
X93225170Y-122833000D01*
X92894830Y-122833000D01*
X92570837Y-122897446D01*
X92265643Y-123023862D01*
X91990975Y-123207389D01*
X91790000Y-123408364D01*
X91589025Y-123207389D01*
X91314357Y-123023862D01*
X91009163Y-122897446D01*
X90685170Y-122833000D01*
X90354830Y-122833000D01*
X90030837Y-122897446D01*
X89725643Y-123023862D01*
X89450975Y-123207389D01*
X89250000Y-123408364D01*
X89049025Y-123207389D01*
X88774357Y-123023862D01*
X88469163Y-122897446D01*
X88145170Y-122833000D01*
X87814830Y-122833000D01*
X87490837Y-122897446D01*
X87185643Y-123023862D01*
X86910975Y-123207389D01*
X86710000Y-123408364D01*
X86509025Y-123207389D01*
X86234357Y-123023862D01*
X85929163Y-122897446D01*
X85605170Y-122833000D01*
X85274830Y-122833000D01*
X84950837Y-122897446D01*
X84645643Y-123023862D01*
X84370975Y-123207389D01*
X84137389Y-123440975D01*
X83953862Y-123715643D01*
X83827446Y-124020837D01*
X83763000Y-124344830D01*
X58302000Y-124344830D01*
X58302000Y-117525000D01*
X63535370Y-117525000D01*
X63565818Y-117834146D01*
X63655993Y-118131412D01*
X63802428Y-118405373D01*
X63999497Y-118645503D01*
X64181660Y-118795000D01*
X63999497Y-118944497D01*
X63802428Y-119184627D01*
X63655993Y-119458588D01*
X63565818Y-119755854D01*
X63535370Y-120065000D01*
X63565818Y-120374146D01*
X63655993Y-120671412D01*
X63802428Y-120945373D01*
X63999497Y-121185503D01*
X64181660Y-121335000D01*
X63999497Y-121484497D01*
X63802428Y-121724627D01*
X63655993Y-121998588D01*
X63565818Y-122295854D01*
X63535370Y-122605000D01*
X63565818Y-122914146D01*
X63655993Y-123211412D01*
X63802428Y-123485373D01*
X63999497Y-123725503D01*
X64239627Y-123922572D01*
X64513588Y-124069007D01*
X64810854Y-124159182D01*
X65042531Y-124182000D01*
X65197469Y-124182000D01*
X65429146Y-124159182D01*
X65726412Y-124069007D01*
X66000373Y-123922572D01*
X66240503Y-123725503D01*
X66437572Y-123485373D01*
X66452738Y-123457000D01*
X77967181Y-123457000D01*
X77990579Y-123480398D01*
X78175165Y-123603734D01*
X78380266Y-123688690D01*
X78598000Y-123732000D01*
X78820000Y-123732000D01*
X79037734Y-123688690D01*
X79242835Y-123603734D01*
X79427421Y-123480398D01*
X79584398Y-123323421D01*
X79707734Y-123138835D01*
X79792690Y-122933734D01*
X79836000Y-122716000D01*
X79836000Y-122494000D01*
X79792690Y-122276266D01*
X79707734Y-122071165D01*
X79584398Y-121886579D01*
X79427421Y-121729602D01*
X79339085Y-121670578D01*
X79487000Y-121700000D01*
X79709000Y-121700000D01*
X79926734Y-121656690D01*
X80131835Y-121571734D01*
X80316421Y-121448398D01*
X80339819Y-121425000D01*
X84698181Y-121425000D01*
X84721579Y-121448398D01*
X84906165Y-121571734D01*
X85111266Y-121656690D01*
X85329000Y-121700000D01*
X85551000Y-121700000D01*
X85768734Y-121656690D01*
X85973835Y-121571734D01*
X86158421Y-121448398D01*
X86315398Y-121291421D01*
X86438734Y-121106835D01*
X86523690Y-120901734D01*
X86567000Y-120684000D01*
X86567000Y-120663000D01*
X92318181Y-120663000D01*
X92341579Y-120686398D01*
X92526165Y-120809734D01*
X92731266Y-120894690D01*
X92949000Y-120938000D01*
X93171000Y-120938000D01*
X93388734Y-120894690D01*
X93593835Y-120809734D01*
X93778421Y-120686398D01*
X93935398Y-120529421D01*
X94058734Y-120344835D01*
X94143690Y-120139734D01*
X94187000Y-119922000D01*
X94187000Y-119700000D01*
X94143690Y-119482266D01*
X94058734Y-119277165D01*
X93935398Y-119092579D01*
X93778421Y-118935602D01*
X93593835Y-118812266D01*
X93528010Y-118785000D01*
X96771928Y-118785000D01*
X96784188Y-118909482D01*
X96820498Y-119029180D01*
X96879463Y-119139494D01*
X96958815Y-119236185D01*
X97055506Y-119315537D01*
X97165820Y-119374502D01*
X97285518Y-119410812D01*
X97410000Y-119423072D01*
X97874250Y-119420000D01*
X98033000Y-119261250D01*
X98033000Y-118287000D01*
X96933750Y-118287000D01*
X96775000Y-118445750D01*
X96771928Y-118785000D01*
X93528010Y-118785000D01*
X93388734Y-118727310D01*
X93171000Y-118684000D01*
X92949000Y-118684000D01*
X92731266Y-118727310D01*
X92526165Y-118812266D01*
X92341579Y-118935602D01*
X92318181Y-118959000D01*
X91647000Y-118959000D01*
X91647000Y-118938000D01*
X91603690Y-118720266D01*
X91518734Y-118515165D01*
X91426415Y-118377000D01*
X94858181Y-118377000D01*
X94881579Y-118400398D01*
X95066165Y-118523734D01*
X95271266Y-118608690D01*
X95489000Y-118652000D01*
X95711000Y-118652000D01*
X95928734Y-118608690D01*
X96133835Y-118523734D01*
X96318421Y-118400398D01*
X96475398Y-118243421D01*
X96598734Y-118058835D01*
X96683690Y-117853734D01*
X96727000Y-117636000D01*
X96727000Y-117596497D01*
X96772211Y-117566288D01*
X96775000Y-117874250D01*
X96933750Y-118033000D01*
X98033000Y-118033000D01*
X98033000Y-117058750D01*
X97874250Y-116900000D01*
X97410000Y-116896928D01*
X97285518Y-116909188D01*
X97280183Y-116910806D01*
X97287847Y-116892303D01*
X97335000Y-116655249D01*
X97335000Y-116431554D01*
X97365518Y-116440812D01*
X97490000Y-116453072D01*
X97854250Y-116450000D01*
X98013000Y-116291250D01*
X98013000Y-115192000D01*
X98267000Y-115192000D01*
X98267000Y-116291250D01*
X98425750Y-116450000D01*
X98790000Y-116453072D01*
X98914482Y-116440812D01*
X99034180Y-116404502D01*
X99144494Y-116345537D01*
X99241185Y-116266185D01*
X99320537Y-116169494D01*
X99379502Y-116059180D01*
X99415812Y-115939482D01*
X99428072Y-115815000D01*
X99425000Y-115350750D01*
X99266250Y-115192000D01*
X98267000Y-115192000D01*
X98013000Y-115192000D01*
X97013750Y-115192000D01*
X96855000Y-115350750D01*
X96853636Y-115556918D01*
X96689202Y-115447047D01*
X96465903Y-115354553D01*
X96228849Y-115307400D01*
X95987151Y-115307400D01*
X95750097Y-115354553D01*
X95526798Y-115447047D01*
X95511304Y-115457400D01*
X69440107Y-115457400D01*
X69387200Y-115452189D01*
X69334293Y-115457400D01*
X69334291Y-115457400D01*
X69176071Y-115472983D01*
X68973056Y-115534567D01*
X68785956Y-115634574D01*
X68621961Y-115769161D01*
X68588232Y-115810261D01*
X67950493Y-116448000D01*
X66276205Y-116448000D01*
X66240503Y-116404497D01*
X66000373Y-116207428D01*
X65976779Y-116194817D01*
X66001355Y-116180178D01*
X66217588Y-115985269D01*
X66391641Y-115751920D01*
X66516825Y-115489099D01*
X66561476Y-115341890D01*
X66440155Y-115112000D01*
X65247000Y-115112000D01*
X65247000Y-115132000D01*
X64993000Y-115132000D01*
X64993000Y-115112000D01*
X63799845Y-115112000D01*
X63678524Y-115341890D01*
X63723175Y-115489099D01*
X63848359Y-115751920D01*
X64022412Y-115985269D01*
X64238645Y-116180178D01*
X64263221Y-116194817D01*
X64239627Y-116207428D01*
X63999497Y-116404497D01*
X63802428Y-116644627D01*
X63655993Y-116918588D01*
X63565818Y-117215854D01*
X63535370Y-117525000D01*
X58302000Y-117525000D01*
X58302000Y-106222000D01*
X71037466Y-106222000D01*
X71062242Y-106219560D01*
X71086067Y-106212333D01*
X71108023Y-106200597D01*
X71127269Y-106184803D01*
X71143063Y-106165557D01*
X71154799Y-106143601D01*
X71162026Y-106119776D01*
X71164466Y-106095000D01*
X71164466Y-94030000D01*
X71162026Y-94005224D01*
X71154799Y-93981399D01*
X71143063Y-93959443D01*
X71127269Y-93940197D01*
X71108023Y-93924403D01*
X71086067Y-93912667D01*
X71062242Y-93905440D01*
X71037466Y-93903000D01*
X58302000Y-93903000D01*
X58302000Y-89685500D01*
X64623238Y-89685500D01*
X64623238Y-92889500D01*
X74136762Y-92889500D01*
X74136762Y-89685500D01*
X64623238Y-89685500D01*
X58302000Y-89685500D01*
X58302000Y-85460000D01*
X80676928Y-85460000D01*
X80680000Y-86124250D01*
X80838750Y-86283000D01*
X82138000Y-86283000D01*
X82138000Y-84983750D01*
X82392000Y-84983750D01*
X82392000Y-86283000D01*
X83691250Y-86283000D01*
X83850000Y-86124250D01*
X83853072Y-85460000D01*
X89566928Y-85460000D01*
X89570000Y-86124250D01*
X89728750Y-86283000D01*
X91028000Y-86283000D01*
X91028000Y-84983750D01*
X91282000Y-84983750D01*
X91282000Y-86283000D01*
X92581250Y-86283000D01*
X92740000Y-86124250D01*
X92742054Y-85680000D01*
X94971928Y-85680000D01*
X94975000Y-86144250D01*
X95133750Y-86303000D01*
X96108000Y-86303000D01*
X96108000Y-85203750D01*
X96362000Y-85203750D01*
X96362000Y-86303000D01*
X97336250Y-86303000D01*
X97495000Y-86144250D01*
X97498072Y-85680000D01*
X97485812Y-85555518D01*
X97456837Y-85460000D01*
X98999483Y-85460000D01*
X98999483Y-87360000D01*
X99013520Y-87502517D01*
X99055090Y-87639557D01*
X99122597Y-87765853D01*
X99213446Y-87876554D01*
X99321236Y-87965014D01*
X99193862Y-88155643D01*
X99067446Y-88460837D01*
X99003000Y-88784830D01*
X99003000Y-89115170D01*
X99067446Y-89439163D01*
X99193862Y-89744357D01*
X99377389Y-90019025D01*
X99610975Y-90252611D01*
X99885643Y-90436138D01*
X100190837Y-90562554D01*
X100514830Y-90627000D01*
X100845170Y-90627000D01*
X101169163Y-90562554D01*
X101474357Y-90436138D01*
X101749025Y-90252611D01*
X101982611Y-90019025D01*
X102166138Y-89744357D01*
X102292554Y-89439163D01*
X102357000Y-89115170D01*
X102357000Y-88784830D01*
X102292554Y-88460837D01*
X102166138Y-88155643D01*
X102038764Y-87965014D01*
X102146554Y-87876554D01*
X102237403Y-87765853D01*
X102304910Y-87639557D01*
X102346480Y-87502517D01*
X102360517Y-87360000D01*
X102360517Y-85460000D01*
X102346480Y-85317483D01*
X102304910Y-85180443D01*
X102237403Y-85054147D01*
X102146554Y-84943446D01*
X102035853Y-84852597D01*
X101909557Y-84785090D01*
X101772517Y-84743520D01*
X101630000Y-84729483D01*
X101532000Y-84729483D01*
X101532000Y-83087819D01*
X101555398Y-83064421D01*
X101678734Y-82879835D01*
X101763690Y-82674734D01*
X101807000Y-82457000D01*
X101807000Y-82235000D01*
X101763690Y-82017266D01*
X101678734Y-81812165D01*
X101555398Y-81627579D01*
X101398421Y-81470602D01*
X101213835Y-81347266D01*
X101008734Y-81262310D01*
X100791000Y-81219000D01*
X100569000Y-81219000D01*
X100351266Y-81262310D01*
X100146165Y-81347266D01*
X99961579Y-81470602D01*
X99804602Y-81627579D01*
X99681266Y-81812165D01*
X99596310Y-82017266D01*
X99553000Y-82235000D01*
X99553000Y-82457000D01*
X99596310Y-82674734D01*
X99681266Y-82879835D01*
X99804602Y-83064421D01*
X99828000Y-83087819D01*
X99828001Y-84729483D01*
X99730000Y-84729483D01*
X99587483Y-84743520D01*
X99450443Y-84785090D01*
X99324147Y-84852597D01*
X99213446Y-84943446D01*
X99122597Y-85054147D01*
X99055090Y-85180443D01*
X99013520Y-85317483D01*
X98999483Y-85460000D01*
X97456837Y-85460000D01*
X97449502Y-85435820D01*
X97390537Y-85325506D01*
X97311185Y-85228815D01*
X97214494Y-85149463D01*
X97104180Y-85090498D01*
X96984482Y-85054188D01*
X96860000Y-85041928D01*
X96520750Y-85045000D01*
X96362000Y-85203750D01*
X96108000Y-85203750D01*
X95949250Y-85045000D01*
X95610000Y-85041928D01*
X95485518Y-85054188D01*
X95365820Y-85090498D01*
X95255506Y-85149463D01*
X95158815Y-85228815D01*
X95079463Y-85325506D01*
X95020498Y-85435820D01*
X94984188Y-85555518D01*
X94971928Y-85680000D01*
X92742054Y-85680000D01*
X92743072Y-85460000D01*
X92730812Y-85335518D01*
X92694502Y-85215820D01*
X92635537Y-85105506D01*
X92556185Y-85008815D01*
X92459494Y-84929463D01*
X92349180Y-84870498D01*
X92229482Y-84834188D01*
X92105000Y-84821928D01*
X91440750Y-84825000D01*
X91282000Y-84983750D01*
X91028000Y-84983750D01*
X90869250Y-84825000D01*
X90205000Y-84821928D01*
X90080518Y-84834188D01*
X89960820Y-84870498D01*
X89850506Y-84929463D01*
X89753815Y-85008815D01*
X89674463Y-85105506D01*
X89615498Y-85215820D01*
X89579188Y-85335518D01*
X89566928Y-85460000D01*
X83853072Y-85460000D01*
X83840812Y-85335518D01*
X83804502Y-85215820D01*
X83745537Y-85105506D01*
X83666185Y-85008815D01*
X83569494Y-84929463D01*
X83459180Y-84870498D01*
X83339482Y-84834188D01*
X83215000Y-84821928D01*
X82550750Y-84825000D01*
X82392000Y-84983750D01*
X82138000Y-84983750D01*
X81979250Y-84825000D01*
X81315000Y-84821928D01*
X81190518Y-84834188D01*
X81070820Y-84870498D01*
X80960506Y-84929463D01*
X80863815Y-85008815D01*
X80784463Y-85105506D01*
X80725498Y-85215820D01*
X80689188Y-85335518D01*
X80676928Y-85460000D01*
X58302000Y-85460000D01*
X58302000Y-70948296D01*
X69589000Y-70948296D01*
X69589000Y-71391704D01*
X69675504Y-71826593D01*
X69845189Y-72236249D01*
X70091534Y-72604929D01*
X70405071Y-72918466D01*
X70773751Y-73164811D01*
X71183407Y-73334496D01*
X71618296Y-73421000D01*
X72061704Y-73421000D01*
X72496593Y-73334496D01*
X72906249Y-73164811D01*
X73274929Y-72918466D01*
X73588466Y-72604929D01*
X73834811Y-72236249D01*
X74004496Y-71826593D01*
X74091000Y-71391704D01*
X74091000Y-70948296D01*
X117589000Y-70948296D01*
X117589000Y-71391704D01*
X117675504Y-71826593D01*
X117845189Y-72236249D01*
X118091534Y-72604929D01*
X118405071Y-72918466D01*
X118773751Y-73164811D01*
X119183407Y-73334496D01*
X119618296Y-73421000D01*
X120061704Y-73421000D01*
X120496593Y-73334496D01*
X120906249Y-73164811D01*
X121274929Y-72918466D01*
X121588466Y-72604929D01*
X121834811Y-72236249D01*
X122004496Y-71826593D01*
X122091000Y-71391704D01*
X122091000Y-70948296D01*
X122004496Y-70513407D01*
X121834811Y-70103751D01*
X121588466Y-69735071D01*
X121274929Y-69421534D01*
X120906249Y-69175189D01*
X120496593Y-69005504D01*
X120061704Y-68919000D01*
X119618296Y-68919000D01*
X119183407Y-69005504D01*
X118773751Y-69175189D01*
X118405071Y-69421534D01*
X118091534Y-69735071D01*
X117845189Y-70103751D01*
X117675504Y-70513407D01*
X117589000Y-70948296D01*
X74091000Y-70948296D01*
X74004496Y-70513407D01*
X73834811Y-70103751D01*
X73588466Y-69735071D01*
X73274929Y-69421534D01*
X72906249Y-69175189D01*
X72496593Y-69005504D01*
X72061704Y-68919000D01*
X71618296Y-68919000D01*
X71183407Y-69005504D01*
X70773751Y-69175189D01*
X70405071Y-69421534D01*
X70091534Y-69735071D01*
X69845189Y-70103751D01*
X69675504Y-70513407D01*
X69589000Y-70948296D01*
X58302000Y-70948296D01*
X58302000Y-68408296D01*
X61969000Y-68408296D01*
X61969000Y-68851704D01*
X62055504Y-69286593D01*
X62225189Y-69696249D01*
X62471534Y-70064929D01*
X62785071Y-70378466D01*
X63153751Y-70624811D01*
X63563407Y-70794496D01*
X63998296Y-70881000D01*
X64441704Y-70881000D01*
X64876593Y-70794496D01*
X65286249Y-70624811D01*
X65654929Y-70378466D01*
X65968466Y-70064929D01*
X66214811Y-69696249D01*
X66384496Y-69286593D01*
X66471000Y-68851704D01*
X66471000Y-68408296D01*
X66384496Y-67973407D01*
X66214811Y-67563751D01*
X65968466Y-67195071D01*
X65654929Y-66881534D01*
X65286249Y-66635189D01*
X64876593Y-66465504D01*
X64441704Y-66379000D01*
X63998296Y-66379000D01*
X63563407Y-66465504D01*
X63153751Y-66635189D01*
X62785071Y-66881534D01*
X62471534Y-67195071D01*
X62225189Y-67563751D01*
X62055504Y-67973407D01*
X61969000Y-68408296D01*
X58302000Y-68408296D01*
X58302000Y-65868296D01*
X69589000Y-65868296D01*
X69589000Y-66311704D01*
X69675504Y-66746593D01*
X69845189Y-67156249D01*
X70091534Y-67524929D01*
X70405071Y-67838466D01*
X70773751Y-68084811D01*
X71183407Y-68254496D01*
X71618296Y-68341000D01*
X72061704Y-68341000D01*
X72496593Y-68254496D01*
X72906249Y-68084811D01*
X73274929Y-67838466D01*
X73588466Y-67524929D01*
X73834811Y-67156249D01*
X74004496Y-66746593D01*
X74091000Y-66311704D01*
X74091000Y-65868296D01*
X117589000Y-65868296D01*
X117589000Y-66311704D01*
X117675504Y-66746593D01*
X117845189Y-67156249D01*
X118091534Y-67524929D01*
X118405071Y-67838466D01*
X118773751Y-68084811D01*
X119183407Y-68254496D01*
X119618296Y-68341000D01*
X120061704Y-68341000D01*
X120496593Y-68254496D01*
X120906249Y-68084811D01*
X121274929Y-67838466D01*
X121588466Y-67524929D01*
X121834811Y-67156249D01*
X122004496Y-66746593D01*
X122091000Y-66311704D01*
X122091000Y-65868296D01*
X122189000Y-65868296D01*
X122189000Y-66311704D01*
X122275504Y-66746593D01*
X122445189Y-67156249D01*
X122691534Y-67524929D01*
X123005071Y-67838466D01*
X123373751Y-68084811D01*
X123783407Y-68254496D01*
X124218296Y-68341000D01*
X124661704Y-68341000D01*
X125096593Y-68254496D01*
X125252432Y-68189945D01*
X125209000Y-68408296D01*
X125209000Y-68851704D01*
X125252432Y-69070055D01*
X125096593Y-69005504D01*
X124661704Y-68919000D01*
X124218296Y-68919000D01*
X123783407Y-69005504D01*
X123373751Y-69175189D01*
X123005071Y-69421534D01*
X122691534Y-69735071D01*
X122445189Y-70103751D01*
X122275504Y-70513407D01*
X122189000Y-70948296D01*
X122189000Y-71391704D01*
X122275504Y-71826593D01*
X122445189Y-72236249D01*
X122691534Y-72604929D01*
X123005071Y-72918466D01*
X123373751Y-73164811D01*
X123783407Y-73334496D01*
X124218296Y-73421000D01*
X124661704Y-73421000D01*
X125096593Y-73334496D01*
X125506249Y-73164811D01*
X125874929Y-72918466D01*
X126188466Y-72604929D01*
X126434811Y-72236249D01*
X126604496Y-71826593D01*
X126691000Y-71391704D01*
X126691000Y-70948296D01*
X126647568Y-70729945D01*
X126803407Y-70794496D01*
X127238296Y-70881000D01*
X127681704Y-70881000D01*
X128116593Y-70794496D01*
X128526249Y-70624811D01*
X128894929Y-70378466D01*
X129208466Y-70064929D01*
X129454811Y-69696249D01*
X129624496Y-69286593D01*
X129711000Y-68851704D01*
X129711000Y-68408296D01*
X129624496Y-67973407D01*
X129454811Y-67563751D01*
X129208466Y-67195071D01*
X128894929Y-66881534D01*
X128526249Y-66635189D01*
X128116593Y-66465504D01*
X127681704Y-66379000D01*
X127238296Y-66379000D01*
X126803407Y-66465504D01*
X126647568Y-66530055D01*
X126691000Y-66311704D01*
X126691000Y-65868296D01*
X126604496Y-65433407D01*
X126434811Y-65023751D01*
X126188466Y-64655071D01*
X125874929Y-64341534D01*
X125506249Y-64095189D01*
X125096593Y-63925504D01*
X124661704Y-63839000D01*
X124218296Y-63839000D01*
X123783407Y-63925504D01*
X123373751Y-64095189D01*
X123005071Y-64341534D01*
X122691534Y-64655071D01*
X122445189Y-65023751D01*
X122275504Y-65433407D01*
X122189000Y-65868296D01*
X122091000Y-65868296D01*
X122004496Y-65433407D01*
X121834811Y-65023751D01*
X121588466Y-64655071D01*
X121274929Y-64341534D01*
X120906249Y-64095189D01*
X120496593Y-63925504D01*
X120061704Y-63839000D01*
X119618296Y-63839000D01*
X119183407Y-63925504D01*
X118773751Y-64095189D01*
X118405071Y-64341534D01*
X118091534Y-64655071D01*
X117845189Y-65023751D01*
X117675504Y-65433407D01*
X117589000Y-65868296D01*
X74091000Y-65868296D01*
X74004496Y-65433407D01*
X73834811Y-65023751D01*
X73588466Y-64655071D01*
X73274929Y-64341534D01*
X72906249Y-64095189D01*
X72496593Y-63925504D01*
X72061704Y-63839000D01*
X71618296Y-63839000D01*
X71183407Y-63925504D01*
X70773751Y-64095189D01*
X70405071Y-64341534D01*
X70091534Y-64655071D01*
X69845189Y-65023751D01*
X69675504Y-65433407D01*
X69589000Y-65868296D01*
X58302000Y-65868296D01*
X58302000Y-61127000D01*
X72000000Y-61127000D01*
X72024776Y-61124560D01*
X72048601Y-61117333D01*
X72070557Y-61105597D01*
X72089803Y-61089803D01*
X72105597Y-61070557D01*
X72117333Y-61048601D01*
X72124560Y-61024776D01*
X72127000Y-61000000D01*
X72127000Y-58277000D01*
X73322093Y-58277000D01*
X73375000Y-58282211D01*
X73427907Y-58277000D01*
X75227093Y-58277000D01*
X75280000Y-58282211D01*
X75332907Y-58277000D01*
X75332909Y-58277000D01*
X75491129Y-58261417D01*
X75694144Y-58199833D01*
X75881244Y-58099826D01*
X76045239Y-57965239D01*
X76078972Y-57924135D01*
X77274140Y-56728968D01*
X77315239Y-56695239D01*
X77449826Y-56531244D01*
X77549833Y-56344144D01*
X77611417Y-56141129D01*
X77627000Y-55982909D01*
X77627000Y-55982908D01*
X77632211Y-55930001D01*
X77627000Y-55877091D01*
X77627000Y-55737000D01*
X84752093Y-55737000D01*
X84805000Y-55742211D01*
X84857907Y-55737000D01*
X84857909Y-55737000D01*
X85016129Y-55721417D01*
X85219144Y-55659833D01*
X85406244Y-55559826D01*
X85570239Y-55425239D01*
X85603972Y-55384135D01*
X86521108Y-54467000D01*
X86685364Y-54467000D01*
X86910975Y-54692611D01*
X87185643Y-54876138D01*
X87490837Y-55002554D01*
X87814830Y-55067000D01*
X88145170Y-55067000D01*
X88469163Y-55002554D01*
X88774357Y-54876138D01*
X89049025Y-54692611D01*
X89274636Y-54467000D01*
X89891139Y-54467000D01*
X89922597Y-54525853D01*
X90000810Y-54621157D01*
X89975153Y-54683097D01*
X89928000Y-54920151D01*
X89928000Y-55161849D01*
X89975153Y-55398903D01*
X90067647Y-55622202D01*
X90201927Y-55823167D01*
X90372833Y-55994073D01*
X90573798Y-56128353D01*
X90797097Y-56220847D01*
X91034151Y-56268000D01*
X91275849Y-56268000D01*
X91512903Y-56220847D01*
X91736202Y-56128353D01*
X91937167Y-55994073D01*
X92108073Y-55823167D01*
X92242353Y-55622202D01*
X92334847Y-55398903D01*
X92382000Y-55161849D01*
X92382000Y-54920151D01*
X92334847Y-54683097D01*
X92309190Y-54621157D01*
X92387403Y-54525853D01*
X92429551Y-54447000D01*
X93027093Y-54447000D01*
X93080000Y-54452211D01*
X93132907Y-54447000D01*
X93132909Y-54447000D01*
X93268405Y-54433655D01*
X93254483Y-54575000D01*
X93254483Y-55375000D01*
X93268520Y-55517517D01*
X93310090Y-55654557D01*
X93377597Y-55780853D01*
X93468446Y-55891554D01*
X93579147Y-55982403D01*
X93705443Y-56049910D01*
X93753832Y-56064588D01*
X93758000Y-56106907D01*
X93758000Y-56106909D01*
X93773583Y-56265129D01*
X93835168Y-56468144D01*
X93935175Y-56655244D01*
X94069762Y-56819239D01*
X94110861Y-56852968D01*
X94627027Y-57369134D01*
X94660761Y-57410239D01*
X94824756Y-57544826D01*
X95011856Y-57644833D01*
X95214871Y-57706417D01*
X95373091Y-57722000D01*
X95373092Y-57722000D01*
X95425999Y-57727211D01*
X95478906Y-57722000D01*
X99380449Y-57722000D01*
X99422597Y-57800853D01*
X99513446Y-57911554D01*
X99624147Y-58002403D01*
X99750443Y-58069910D01*
X99887483Y-58111480D01*
X100030000Y-58125517D01*
X101330000Y-58125517D01*
X101472517Y-58111480D01*
X101609557Y-58069910D01*
X101735853Y-58002403D01*
X101846554Y-57911554D01*
X101937403Y-57800853D01*
X101954429Y-57769000D01*
X103675091Y-57769000D01*
X103728000Y-57774211D01*
X103780909Y-57769000D01*
X109009093Y-57769000D01*
X109062000Y-57774211D01*
X109114907Y-57769000D01*
X109114909Y-57769000D01*
X109273129Y-57753417D01*
X109476144Y-57691833D01*
X109663244Y-57591826D01*
X109827239Y-57457239D01*
X109860972Y-57416135D01*
X109994000Y-57283107D01*
X109994000Y-57320849D01*
X110041153Y-57557903D01*
X110133647Y-57781202D01*
X110267927Y-57982167D01*
X110438833Y-58153073D01*
X110639798Y-58287353D01*
X110863097Y-58379847D01*
X111100151Y-58427000D01*
X111341849Y-58427000D01*
X111578903Y-58379847D01*
X111802202Y-58287353D01*
X111817696Y-58277000D01*
X112080468Y-58277000D01*
X112133446Y-58341554D01*
X112244147Y-58432403D01*
X112323000Y-58474551D01*
X112323000Y-58564093D01*
X112317789Y-58617000D01*
X112323000Y-58669907D01*
X112323000Y-58669909D01*
X112338583Y-58828129D01*
X112400168Y-59031144D01*
X112500175Y-59218244D01*
X112634762Y-59382239D01*
X112675861Y-59415968D01*
X114105032Y-60845140D01*
X114138761Y-60886239D01*
X114302756Y-61020826D01*
X114489856Y-61120833D01*
X114692871Y-61182417D01*
X114851091Y-61198000D01*
X114851092Y-61198000D01*
X114903999Y-61203211D01*
X114956906Y-61198000D01*
X133888893Y-61198000D01*
X134147000Y-61456108D01*
X134147000Y-67786316D01*
X134054811Y-67563751D01*
X133808466Y-67195071D01*
X133494929Y-66881534D01*
X133126249Y-66635189D01*
X132716593Y-66465504D01*
X132281704Y-66379000D01*
X131838296Y-66379000D01*
X131403407Y-66465504D01*
X130993751Y-66635189D01*
X130625071Y-66881534D01*
X130311534Y-67195071D01*
X130065189Y-67563751D01*
X129895504Y-67973407D01*
X129809000Y-68408296D01*
X129809000Y-68851704D01*
X129895504Y-69286593D01*
X130065189Y-69696249D01*
X130311534Y-70064929D01*
X130625071Y-70378466D01*
X130993751Y-70624811D01*
X131403407Y-70794496D01*
X131838296Y-70881000D01*
X132281704Y-70881000D01*
X132716593Y-70794496D01*
X133126249Y-70624811D01*
X133494929Y-70378466D01*
X133808466Y-70064929D01*
X134054811Y-69696249D01*
X134147001Y-69473684D01*
X134147001Y-75422892D01*
X134142893Y-75427000D01*
X123719906Y-75427000D01*
X123666999Y-75421789D01*
X123614093Y-75427000D01*
X112543909Y-75427000D01*
X112491000Y-75421789D01*
X112279870Y-75442583D01*
X112076855Y-75504167D01*
X111889755Y-75604174D01*
X111832486Y-75651174D01*
X111725761Y-75738761D01*
X111692033Y-75779859D01*
X102815861Y-84656032D01*
X102774762Y-84689761D01*
X102741034Y-84730859D01*
X102640175Y-84853756D01*
X102540168Y-85040856D01*
X102478584Y-85243871D01*
X102457789Y-85455000D01*
X102463001Y-85507917D01*
X102463000Y-92641091D01*
X102457789Y-92694000D01*
X102463000Y-92746907D01*
X102463000Y-92746908D01*
X102463001Y-92746918D01*
X102463000Y-95980218D01*
X102451849Y-95978000D01*
X102210151Y-95978000D01*
X101973097Y-96025153D01*
X101749798Y-96117647D01*
X101734304Y-96128000D01*
X97242965Y-96128000D01*
X97290853Y-96102403D01*
X97401554Y-96011554D01*
X97492403Y-95900853D01*
X97559910Y-95774557D01*
X97601480Y-95637517D01*
X97615517Y-95495000D01*
X97615517Y-93995000D01*
X97601480Y-93852483D01*
X97559910Y-93715443D01*
X97492403Y-93589147D01*
X97401554Y-93478446D01*
X97299874Y-93395000D01*
X97401554Y-93311554D01*
X97492403Y-93200853D01*
X97559910Y-93074557D01*
X97601480Y-92937517D01*
X97610100Y-92850000D01*
X98287181Y-92850000D01*
X98310579Y-92873398D01*
X98495165Y-92996734D01*
X98700266Y-93081690D01*
X98918000Y-93125000D01*
X99140000Y-93125000D01*
X99357734Y-93081690D01*
X99562835Y-92996734D01*
X99747421Y-92873398D01*
X99904398Y-92716421D01*
X100027734Y-92531835D01*
X100112690Y-92326734D01*
X100156000Y-92109000D01*
X100156000Y-91887000D01*
X100112690Y-91669266D01*
X100027734Y-91464165D01*
X99904398Y-91279579D01*
X99747421Y-91122602D01*
X99562835Y-90999266D01*
X99357734Y-90914310D01*
X99140000Y-90871000D01*
X98918000Y-90871000D01*
X98700266Y-90914310D01*
X98495165Y-90999266D01*
X98310579Y-91122602D01*
X98287181Y-91146000D01*
X97599513Y-91146000D01*
X97559910Y-91015443D01*
X97492403Y-90889147D01*
X97401554Y-90778446D01*
X97290853Y-90687597D01*
X97164557Y-90620090D01*
X97087000Y-90596564D01*
X97087000Y-90370853D01*
X97139557Y-90354910D01*
X97265853Y-90287403D01*
X97376554Y-90196554D01*
X97467403Y-90085853D01*
X97534910Y-89959557D01*
X97576480Y-89822517D01*
X97590517Y-89680000D01*
X97590517Y-88180000D01*
X97576480Y-88037483D01*
X97534910Y-87900443D01*
X97467403Y-87774147D01*
X97376554Y-87663446D01*
X97321672Y-87618406D01*
X97390537Y-87534494D01*
X97449502Y-87424180D01*
X97485812Y-87304482D01*
X97498072Y-87180000D01*
X97495000Y-86715750D01*
X97336250Y-86557000D01*
X96362000Y-86557000D01*
X96362000Y-86577000D01*
X96108000Y-86577000D01*
X96108000Y-86557000D01*
X95133750Y-86557000D01*
X94975000Y-86715750D01*
X94971928Y-87180000D01*
X94984188Y-87304482D01*
X95020498Y-87424180D01*
X95079463Y-87534494D01*
X95148328Y-87618406D01*
X95093446Y-87663446D01*
X95002597Y-87774147D01*
X94935090Y-87900443D01*
X94893520Y-88037483D01*
X94887559Y-88098000D01*
X92602622Y-88098000D01*
X92462404Y-87888149D01*
X92556185Y-87811185D01*
X92635537Y-87714494D01*
X92694502Y-87604180D01*
X92730812Y-87484482D01*
X92743072Y-87360000D01*
X92740000Y-86695750D01*
X92581250Y-86537000D01*
X91282000Y-86537000D01*
X91282000Y-86557000D01*
X91028000Y-86557000D01*
X91028000Y-86537000D01*
X89728750Y-86537000D01*
X89570000Y-86695750D01*
X89566928Y-87360000D01*
X89579188Y-87484482D01*
X89615498Y-87604180D01*
X89674463Y-87714494D01*
X89753815Y-87811185D01*
X89847596Y-87888149D01*
X89668862Y-88155643D01*
X89542446Y-88460837D01*
X89478000Y-88784830D01*
X89478000Y-89115170D01*
X89542446Y-89439163D01*
X89668862Y-89744357D01*
X89852389Y-90019025D01*
X90085975Y-90252611D01*
X90360643Y-90436138D01*
X90665837Y-90562554D01*
X90989830Y-90627000D01*
X91320170Y-90627000D01*
X91644163Y-90562554D01*
X91949357Y-90436138D01*
X92224025Y-90252611D01*
X92457611Y-90019025D01*
X92602622Y-89802000D01*
X94891499Y-89802000D01*
X94893520Y-89822517D01*
X94935090Y-89959557D01*
X95002597Y-90085853D01*
X95093446Y-90196554D01*
X95204147Y-90287403D01*
X95330443Y-90354910D01*
X95383000Y-90370853D01*
X95383001Y-90596564D01*
X95305443Y-90620090D01*
X95179147Y-90687597D01*
X95068446Y-90778446D01*
X94977597Y-90889147D01*
X94910090Y-91015443D01*
X94868520Y-91152483D01*
X94854483Y-91295000D01*
X94854483Y-92795000D01*
X94868520Y-92937517D01*
X94910090Y-93074557D01*
X94977597Y-93200853D01*
X95068446Y-93311554D01*
X95170126Y-93395000D01*
X95068446Y-93478446D01*
X94977597Y-93589147D01*
X94910090Y-93715443D01*
X94868520Y-93852483D01*
X94854483Y-93995000D01*
X94854483Y-95495000D01*
X94868520Y-95637517D01*
X94910090Y-95774557D01*
X94977597Y-95900853D01*
X95031001Y-95965926D01*
X95031000Y-96608303D01*
X95020647Y-96623798D01*
X94928153Y-96847097D01*
X94881000Y-97084151D01*
X94881000Y-97325849D01*
X94928153Y-97562903D01*
X95020647Y-97786202D01*
X95154927Y-97987167D01*
X95325833Y-98158073D01*
X95526798Y-98292353D01*
X95750097Y-98384847D01*
X95987151Y-98432000D01*
X96228849Y-98432000D01*
X96465903Y-98384847D01*
X96689202Y-98292353D01*
X96704696Y-98282000D01*
X99033090Y-98282000D01*
X94997091Y-102318000D01*
X94729190Y-102318000D01*
X94639557Y-102270090D01*
X94502517Y-102228520D01*
X94360000Y-102214483D01*
X92610000Y-102214483D01*
X92467483Y-102228520D01*
X92330443Y-102270090D01*
X92204147Y-102337597D01*
X92093446Y-102428446D01*
X92002597Y-102539147D01*
X91935090Y-102665443D01*
X91893520Y-102802483D01*
X91879483Y-102945000D01*
X91879483Y-103395000D01*
X91889332Y-103495000D01*
X91879483Y-103595000D01*
X91879483Y-104045000D01*
X91889332Y-104145000D01*
X91879483Y-104245000D01*
X91879483Y-104695000D01*
X91889332Y-104795000D01*
X91879483Y-104895000D01*
X91879483Y-105345000D01*
X91889332Y-105445000D01*
X91879483Y-105545000D01*
X91879483Y-105995000D01*
X91889332Y-106094999D01*
X91879483Y-106195000D01*
X91879483Y-106645000D01*
X91889332Y-106745000D01*
X91879483Y-106845000D01*
X91879483Y-107295000D01*
X91889332Y-107395000D01*
X91879483Y-107495000D01*
X91879483Y-107945000D01*
X91889332Y-108045000D01*
X91879483Y-108145000D01*
X91879483Y-108595000D01*
X91889332Y-108695000D01*
X91879483Y-108795000D01*
X91879483Y-109245000D01*
X91893520Y-109387517D01*
X91935090Y-109524557D01*
X92002597Y-109650853D01*
X92093446Y-109761554D01*
X92204147Y-109852403D01*
X92330443Y-109919910D01*
X92403265Y-109942000D01*
X87366735Y-109942000D01*
X87439557Y-109919910D01*
X87565853Y-109852403D01*
X87676554Y-109761554D01*
X87767403Y-109650853D01*
X87834910Y-109524557D01*
X87876480Y-109387517D01*
X87890517Y-109245000D01*
X87890517Y-108795000D01*
X87880668Y-108695000D01*
X87890517Y-108595000D01*
X87890517Y-108145000D01*
X87880668Y-108045000D01*
X87890517Y-107945000D01*
X87890517Y-107495000D01*
X87880668Y-107395000D01*
X87890517Y-107295000D01*
X87890517Y-106845000D01*
X87876480Y-106702483D01*
X87834910Y-106565443D01*
X87767403Y-106439147D01*
X87691330Y-106346451D01*
X87746199Y-106247005D01*
X87762493Y-106195757D01*
X87795000Y-106163250D01*
X87787637Y-106095000D01*
X87795000Y-106026750D01*
X87762493Y-105994243D01*
X87746199Y-105942995D01*
X87691330Y-105843549D01*
X87767403Y-105750853D01*
X87834910Y-105624557D01*
X87876480Y-105487517D01*
X87890517Y-105345000D01*
X87890517Y-104895000D01*
X87880668Y-104795000D01*
X87890517Y-104695000D01*
X87890517Y-104245000D01*
X87880668Y-104145000D01*
X87890517Y-104045000D01*
X87890517Y-103595000D01*
X87880668Y-103495000D01*
X87890517Y-103395000D01*
X87890517Y-102945000D01*
X87876480Y-102802483D01*
X87834910Y-102665443D01*
X87767403Y-102539147D01*
X87676554Y-102428446D01*
X87565853Y-102337597D01*
X87439557Y-102270090D01*
X87302517Y-102228520D01*
X87160000Y-102214483D01*
X85410000Y-102214483D01*
X85267483Y-102228520D01*
X85130443Y-102270090D01*
X85040810Y-102318000D01*
X84061710Y-102318000D01*
X83117000Y-101373291D01*
X83117000Y-90397622D01*
X83334025Y-90252611D01*
X83567611Y-90019025D01*
X83751138Y-89744357D01*
X83877554Y-89439163D01*
X83942000Y-89115170D01*
X83942000Y-88784830D01*
X83877554Y-88460837D01*
X83751138Y-88155643D01*
X83572404Y-87888149D01*
X83666185Y-87811185D01*
X83745537Y-87714494D01*
X83804502Y-87604180D01*
X83840812Y-87484482D01*
X83853072Y-87360000D01*
X83850000Y-86695750D01*
X83691250Y-86537000D01*
X82392000Y-86537000D01*
X82392000Y-86557000D01*
X82138000Y-86557000D01*
X82138000Y-86537000D01*
X80838750Y-86537000D01*
X80680000Y-86695750D01*
X80676928Y-87360000D01*
X80689188Y-87484482D01*
X80725498Y-87604180D01*
X80784463Y-87714494D01*
X80863815Y-87811185D01*
X80957596Y-87888149D01*
X80778862Y-88155643D01*
X80652446Y-88460837D01*
X80588000Y-88784830D01*
X80588000Y-89115170D01*
X80652446Y-89439163D01*
X80778862Y-89744357D01*
X80962389Y-90019025D01*
X81195975Y-90252611D01*
X81413001Y-90397623D01*
X81413000Y-101684351D01*
X81408878Y-101726200D01*
X81413000Y-101768049D01*
X81413000Y-101768051D01*
X81425328Y-101893220D01*
X81462219Y-102014833D01*
X81474046Y-102053823D01*
X81553161Y-102201836D01*
X81566096Y-102217597D01*
X81659630Y-102331570D01*
X81692146Y-102358255D01*
X81909891Y-102576000D01*
X80339819Y-102576000D01*
X80316421Y-102552602D01*
X80131835Y-102429266D01*
X79926734Y-102344310D01*
X79709000Y-102301000D01*
X79487000Y-102301000D01*
X79269266Y-102344310D01*
X79064165Y-102429266D01*
X78879579Y-102552602D01*
X78722602Y-102709579D01*
X78599266Y-102894165D01*
X78514310Y-103099266D01*
X78492071Y-103211071D01*
X78380266Y-103233310D01*
X78175165Y-103318266D01*
X77990579Y-103441602D01*
X77833602Y-103598579D01*
X77710266Y-103783165D01*
X77625310Y-103988266D01*
X77624141Y-103994141D01*
X77618266Y-103995310D01*
X77413165Y-104080266D01*
X77228579Y-104203602D01*
X77071602Y-104360579D01*
X76948266Y-104545165D01*
X76863310Y-104750266D01*
X76820000Y-104968000D01*
X76820000Y-105190000D01*
X76863310Y-105407734D01*
X76948266Y-105612835D01*
X77071602Y-105797421D01*
X77228579Y-105954398D01*
X77413165Y-106077734D01*
X77618266Y-106162690D01*
X77836000Y-106206000D01*
X78058000Y-106206000D01*
X78275734Y-106162690D01*
X78480835Y-106077734D01*
X78639078Y-105972000D01*
X84814579Y-105972000D01*
X84807507Y-105994243D01*
X84775000Y-106026750D01*
X84782363Y-106095000D01*
X84775000Y-106163250D01*
X84807507Y-106195757D01*
X84814579Y-106218000D01*
X81052078Y-106218000D01*
X80893835Y-106112266D01*
X80688734Y-106027310D01*
X80471000Y-105984000D01*
X80249000Y-105984000D01*
X80031266Y-106027310D01*
X79826165Y-106112266D01*
X79641579Y-106235602D01*
X79484602Y-106392579D01*
X79361266Y-106577165D01*
X79276310Y-106782266D01*
X79233000Y-107000000D01*
X79233000Y-107222000D01*
X79276310Y-107439734D01*
X79361266Y-107644835D01*
X79484602Y-107829421D01*
X79641579Y-107986398D01*
X79826165Y-108109734D01*
X80031266Y-108194690D01*
X80037141Y-108195859D01*
X80038310Y-108201734D01*
X80123266Y-108406835D01*
X80246602Y-108591421D01*
X80403579Y-108748398D01*
X80588165Y-108871734D01*
X80793266Y-108956690D01*
X80799141Y-108957859D01*
X80800310Y-108963734D01*
X80885266Y-109168835D01*
X81008602Y-109353421D01*
X81165579Y-109510398D01*
X81350165Y-109633734D01*
X81555266Y-109718690D01*
X81561141Y-109719859D01*
X81562310Y-109725734D01*
X81647266Y-109930835D01*
X81654726Y-109942000D01*
X70445049Y-109942000D01*
X70403200Y-109937878D01*
X70361351Y-109942000D01*
X70361348Y-109942000D01*
X70236179Y-109954328D01*
X70075576Y-110003046D01*
X69927564Y-110082161D01*
X69797830Y-110188630D01*
X69771150Y-110221140D01*
X68399291Y-111593000D01*
X66700320Y-111593000D01*
X66686480Y-111452483D01*
X66644910Y-111315443D01*
X66577403Y-111189147D01*
X66486554Y-111078446D01*
X66375853Y-110987597D01*
X66249557Y-110920090D01*
X66112517Y-110878520D01*
X65970000Y-110864483D01*
X64270000Y-110864483D01*
X64127483Y-110878520D01*
X63990443Y-110920090D01*
X63864147Y-110987597D01*
X63753446Y-111078446D01*
X63662597Y-111189147D01*
X63595090Y-111315443D01*
X63553520Y-111452483D01*
X63539483Y-111595000D01*
X63539483Y-113295000D01*
X63553520Y-113437517D01*
X63595090Y-113574557D01*
X63662597Y-113700853D01*
X63753446Y-113811554D01*
X63864147Y-113902403D01*
X63990443Y-113969910D01*
X64026665Y-113980898D01*
X64022412Y-113984731D01*
X63848359Y-114218080D01*
X63723175Y-114480901D01*
X63678524Y-114628110D01*
X63799845Y-114858000D01*
X64993000Y-114858000D01*
X64993000Y-114838000D01*
X65247000Y-114838000D01*
X65247000Y-114858000D01*
X66440155Y-114858000D01*
X66561476Y-114628110D01*
X66516825Y-114480901D01*
X66391641Y-114218080D01*
X66217588Y-113984731D01*
X66213335Y-113980898D01*
X66249557Y-113969910D01*
X66375853Y-113902403D01*
X66486554Y-113811554D01*
X66573999Y-113705000D01*
X87246928Y-113705000D01*
X87259188Y-113829482D01*
X87295498Y-113949180D01*
X87354463Y-114059494D01*
X87433815Y-114156185D01*
X87530506Y-114235537D01*
X87640820Y-114294502D01*
X87760518Y-114330812D01*
X87885000Y-114343072D01*
X88349250Y-114340000D01*
X88508000Y-114181250D01*
X88508000Y-113207000D01*
X87408750Y-113207000D01*
X87250000Y-113365750D01*
X87246928Y-113705000D01*
X66573999Y-113705000D01*
X66577403Y-113700853D01*
X66644910Y-113574557D01*
X66686480Y-113437517D01*
X66700320Y-113297000D01*
X68710351Y-113297000D01*
X68752200Y-113301122D01*
X68794049Y-113297000D01*
X68794052Y-113297000D01*
X68919221Y-113284672D01*
X69079824Y-113235954D01*
X69227836Y-113156839D01*
X69357570Y-113050370D01*
X69384255Y-113017854D01*
X69947109Y-112455000D01*
X87246928Y-112455000D01*
X87250000Y-112794250D01*
X87408750Y-112953000D01*
X88508000Y-112953000D01*
X88508000Y-111978750D01*
X88349250Y-111820000D01*
X87885000Y-111816928D01*
X87760518Y-111829188D01*
X87640820Y-111865498D01*
X87530506Y-111924463D01*
X87433815Y-112003815D01*
X87354463Y-112100506D01*
X87295498Y-112210820D01*
X87259188Y-112330518D01*
X87246928Y-112455000D01*
X69947109Y-112455000D01*
X70756110Y-111646000D01*
X96759483Y-111646000D01*
X96759483Y-112039607D01*
X96689202Y-111992647D01*
X96465903Y-111900153D01*
X96228849Y-111853000D01*
X95987151Y-111853000D01*
X95750097Y-111900153D01*
X95526798Y-111992647D01*
X95511304Y-112003000D01*
X92454532Y-112003000D01*
X92401554Y-111938446D01*
X92290853Y-111847597D01*
X92164557Y-111780090D01*
X92027517Y-111738520D01*
X91885000Y-111724483D01*
X90385000Y-111724483D01*
X90242483Y-111738520D01*
X90105443Y-111780090D01*
X89979147Y-111847597D01*
X89868446Y-111938446D01*
X89823406Y-111993328D01*
X89739494Y-111924463D01*
X89629180Y-111865498D01*
X89509482Y-111829188D01*
X89385000Y-111816928D01*
X88920750Y-111820000D01*
X88762000Y-111978750D01*
X88762000Y-112953000D01*
X88782000Y-112953000D01*
X88782000Y-113207000D01*
X88762000Y-113207000D01*
X88762000Y-114181250D01*
X88920750Y-114340000D01*
X89385000Y-114343072D01*
X89509482Y-114330812D01*
X89629180Y-114294502D01*
X89739494Y-114235537D01*
X89823406Y-114166672D01*
X89868446Y-114221554D01*
X89979147Y-114312403D01*
X90105443Y-114379910D01*
X90242483Y-114421480D01*
X90385000Y-114435517D01*
X91885000Y-114435517D01*
X92027517Y-114421480D01*
X92164557Y-114379910D01*
X92290853Y-114312403D01*
X92401554Y-114221554D01*
X92454532Y-114157000D01*
X95511304Y-114157000D01*
X95526798Y-114167353D01*
X95750097Y-114259847D01*
X95987151Y-114307000D01*
X96228849Y-114307000D01*
X96465903Y-114259847D01*
X96689202Y-114167353D01*
X96890167Y-114033073D01*
X96955707Y-113967533D01*
X96900498Y-114070820D01*
X96864188Y-114190518D01*
X96851928Y-114315000D01*
X96855000Y-114779250D01*
X97013750Y-114938000D01*
X98013000Y-114938000D01*
X98013000Y-114918000D01*
X98267000Y-114918000D01*
X98267000Y-114938000D01*
X99266250Y-114938000D01*
X99425000Y-114779250D01*
X99428072Y-114315000D01*
X99415812Y-114190518D01*
X99379502Y-114070820D01*
X99320537Y-113960506D01*
X99241185Y-113863815D01*
X99144494Y-113784463D01*
X99112121Y-113767159D01*
X99195853Y-113722403D01*
X99306554Y-113631554D01*
X99397403Y-113520853D01*
X99464910Y-113394557D01*
X99480988Y-113341554D01*
X99500153Y-113437903D01*
X99592647Y-113661202D01*
X99603000Y-113676697D01*
X99603001Y-116874758D01*
X99504147Y-116927597D01*
X99393446Y-117018446D01*
X99348406Y-117073328D01*
X99264494Y-117004463D01*
X99154180Y-116945498D01*
X99034482Y-116909188D01*
X98910000Y-116896928D01*
X98445750Y-116900000D01*
X98287000Y-117058750D01*
X98287000Y-118033000D01*
X98307000Y-118033000D01*
X98307000Y-118287000D01*
X98287000Y-118287000D01*
X98287000Y-119261250D01*
X98445750Y-119420000D01*
X98910000Y-119423072D01*
X99034482Y-119410812D01*
X99154180Y-119374502D01*
X99264494Y-119315537D01*
X99348406Y-119246672D01*
X99393446Y-119301554D01*
X99504147Y-119392403D01*
X99603001Y-119445242D01*
X99603000Y-123215364D01*
X99377389Y-123440975D01*
X99270746Y-123600578D01*
X99239752Y-123589853D01*
X98319605Y-124510000D01*
X99239752Y-125430147D01*
X99270746Y-125419422D01*
X99377389Y-125579025D01*
X99610975Y-125812611D01*
X99885643Y-125996138D01*
X100190837Y-126122554D01*
X100514830Y-126187000D01*
X100845170Y-126187000D01*
X101169163Y-126122554D01*
X101474357Y-125996138D01*
X101749025Y-125812611D01*
X101982611Y-125579025D01*
X102166138Y-125304357D01*
X102292554Y-124999163D01*
X102357000Y-124675170D01*
X102357000Y-124344830D01*
X102342514Y-124272000D01*
X104633000Y-124272000D01*
X104633000Y-124494000D01*
X104676310Y-124711734D01*
X104761266Y-124916835D01*
X104884602Y-125101421D01*
X105041579Y-125258398D01*
X105226165Y-125381734D01*
X105431266Y-125466690D01*
X105649000Y-125510000D01*
X105871000Y-125510000D01*
X106088734Y-125466690D01*
X106293835Y-125381734D01*
X106478421Y-125258398D01*
X106501819Y-125235000D01*
X115981857Y-125235000D01*
X116015090Y-125344557D01*
X116082597Y-125470853D01*
X116173446Y-125581554D01*
X116284147Y-125672403D01*
X116410443Y-125739910D01*
X116547483Y-125781480D01*
X116690000Y-125795517D01*
X117690000Y-125795517D01*
X117832517Y-125781480D01*
X117969557Y-125739910D01*
X118095853Y-125672403D01*
X118206554Y-125581554D01*
X118297403Y-125470853D01*
X118364910Y-125344557D01*
X118406480Y-125207517D01*
X118420517Y-125065000D01*
X118420517Y-123665000D01*
X118406480Y-123522483D01*
X118364910Y-123385443D01*
X118297403Y-123259147D01*
X118281690Y-123240000D01*
X118297403Y-123220853D01*
X118364910Y-123094557D01*
X118406480Y-122957517D01*
X118420517Y-122815000D01*
X118420517Y-121415000D01*
X118406480Y-121272483D01*
X118364910Y-121135443D01*
X118297403Y-121009147D01*
X118206554Y-120898446D01*
X118095853Y-120807597D01*
X118042000Y-120778812D01*
X118042000Y-120233849D01*
X118046122Y-120192000D01*
X118042000Y-120150148D01*
X118029672Y-120024979D01*
X117980954Y-119864376D01*
X117901839Y-119716364D01*
X117795370Y-119586630D01*
X117762855Y-119559946D01*
X117060055Y-118857146D01*
X117033370Y-118824630D01*
X116903636Y-118718161D01*
X116755624Y-118639046D01*
X116595021Y-118590328D01*
X116469852Y-118578000D01*
X116469849Y-118578000D01*
X116428000Y-118573878D01*
X116386151Y-118578000D01*
X116178436Y-118578000D01*
X116154910Y-118500443D01*
X116087403Y-118374147D01*
X115996554Y-118263446D01*
X115885853Y-118172597D01*
X115862286Y-118160000D01*
X115885853Y-118147403D01*
X115996554Y-118056554D01*
X116087403Y-117945853D01*
X116154910Y-117819557D01*
X116178436Y-117742000D01*
X118361091Y-117742000D01*
X118878000Y-118258910D01*
X118878001Y-120778811D01*
X118824147Y-120807597D01*
X118713446Y-120898446D01*
X118622597Y-121009147D01*
X118555090Y-121135443D01*
X118513520Y-121272483D01*
X118499483Y-121415000D01*
X118499483Y-122815000D01*
X118513520Y-122957517D01*
X118555090Y-123094557D01*
X118622597Y-123220853D01*
X118638310Y-123240000D01*
X118622597Y-123259147D01*
X118555090Y-123385443D01*
X118513520Y-123522483D01*
X118499483Y-123665000D01*
X118499483Y-125065000D01*
X118513520Y-125207517D01*
X118555090Y-125344557D01*
X118622597Y-125470853D01*
X118713446Y-125581554D01*
X118824147Y-125672403D01*
X118950443Y-125739910D01*
X119087483Y-125781480D01*
X119230000Y-125795517D01*
X120230000Y-125795517D01*
X120372517Y-125781480D01*
X120509557Y-125739910D01*
X120635853Y-125672403D01*
X120746554Y-125581554D01*
X120837403Y-125470853D01*
X120904910Y-125344557D01*
X120907205Y-125336993D01*
X120974165Y-125381734D01*
X121179266Y-125466690D01*
X121397000Y-125510000D01*
X121619000Y-125510000D01*
X121836734Y-125466690D01*
X122041835Y-125381734D01*
X122226421Y-125258398D01*
X122383398Y-125101421D01*
X122506734Y-124916835D01*
X122591690Y-124711734D01*
X122635000Y-124494000D01*
X122635000Y-124272000D01*
X122591690Y-124054266D01*
X122506734Y-123849165D01*
X122383398Y-123664579D01*
X122226421Y-123507602D01*
X122041835Y-123384266D01*
X121836734Y-123299310D01*
X121619000Y-123256000D01*
X121397000Y-123256000D01*
X121179266Y-123299310D01*
X120974165Y-123384266D01*
X120916285Y-123422940D01*
X120904910Y-123385443D01*
X120837403Y-123259147D01*
X120821690Y-123240000D01*
X120837403Y-123220853D01*
X120904910Y-123094557D01*
X120946480Y-122957517D01*
X120960517Y-122815000D01*
X120960517Y-121415000D01*
X120946480Y-121272483D01*
X120904910Y-121135443D01*
X120837403Y-121009147D01*
X120746554Y-120898446D01*
X120635853Y-120807597D01*
X120582000Y-120778812D01*
X120582000Y-117947849D01*
X120586122Y-117906000D01*
X120580865Y-117852624D01*
X120569672Y-117738979D01*
X120520954Y-117578376D01*
X120500441Y-117540000D01*
X120441839Y-117430363D01*
X120362048Y-117333138D01*
X120335370Y-117300630D01*
X120302861Y-117273951D01*
X119680910Y-116652000D01*
X123048000Y-116652000D01*
X123048000Y-116874000D01*
X123091310Y-117091734D01*
X123176266Y-117296835D01*
X123299602Y-117481421D01*
X123323000Y-117504819D01*
X123323001Y-123641180D01*
X123299602Y-123664579D01*
X123176266Y-123849165D01*
X123091310Y-124054266D01*
X123048000Y-124272000D01*
X123048000Y-124494000D01*
X123091310Y-124711734D01*
X123176266Y-124916835D01*
X123299602Y-125101421D01*
X123456579Y-125258398D01*
X123641165Y-125381734D01*
X123846266Y-125466690D01*
X124064000Y-125510000D01*
X124286000Y-125510000D01*
X124503734Y-125466690D01*
X124708835Y-125381734D01*
X124881392Y-125266435D01*
X124905090Y-125344557D01*
X124972597Y-125470853D01*
X125063446Y-125581554D01*
X125174147Y-125672403D01*
X125300443Y-125739910D01*
X125437483Y-125781480D01*
X125580000Y-125795517D01*
X126580000Y-125795517D01*
X126722517Y-125781480D01*
X126859557Y-125739910D01*
X126985853Y-125672403D01*
X127096554Y-125581554D01*
X127187403Y-125470853D01*
X127254910Y-125344557D01*
X127296480Y-125207517D01*
X127310517Y-125065000D01*
X127310517Y-123665000D01*
X127296480Y-123522483D01*
X127254910Y-123385443D01*
X127187403Y-123259147D01*
X127171690Y-123240000D01*
X127187403Y-123220853D01*
X127254910Y-123094557D01*
X127296480Y-122957517D01*
X127310517Y-122815000D01*
X127310517Y-121415000D01*
X127296480Y-121272483D01*
X127254910Y-121135443D01*
X127187403Y-121009147D01*
X127096554Y-120898446D01*
X127089148Y-120892368D01*
X127135853Y-120867403D01*
X127246554Y-120776554D01*
X127337403Y-120665853D01*
X127350000Y-120642286D01*
X127362597Y-120665853D01*
X127453446Y-120776554D01*
X127564147Y-120867403D01*
X127610852Y-120892368D01*
X127603446Y-120898446D01*
X127512597Y-121009147D01*
X127445090Y-121135443D01*
X127403520Y-121272483D01*
X127389483Y-121415000D01*
X127389483Y-122815000D01*
X127403520Y-122957517D01*
X127445090Y-123094557D01*
X127512597Y-123220853D01*
X127528310Y-123240000D01*
X127512597Y-123259147D01*
X127445090Y-123385443D01*
X127403520Y-123522483D01*
X127389483Y-123665000D01*
X127389483Y-125065000D01*
X127403520Y-125207517D01*
X127445090Y-125344557D01*
X127512597Y-125470853D01*
X127603446Y-125581554D01*
X127714147Y-125672403D01*
X127840443Y-125739910D01*
X127977483Y-125781480D01*
X128120000Y-125795517D01*
X129120000Y-125795517D01*
X129262517Y-125781480D01*
X129399557Y-125739910D01*
X129525853Y-125672403D01*
X129636554Y-125581554D01*
X129727403Y-125470853D01*
X129768173Y-125394578D01*
X129942266Y-125466690D01*
X130160000Y-125510000D01*
X130382000Y-125510000D01*
X130599734Y-125466690D01*
X130804835Y-125381734D01*
X130989421Y-125258398D01*
X131146398Y-125101421D01*
X131269734Y-124916835D01*
X131354690Y-124711734D01*
X131398000Y-124494000D01*
X131398000Y-124272000D01*
X131354690Y-124054266D01*
X131269734Y-123849165D01*
X131146398Y-123664579D01*
X130989421Y-123507602D01*
X130804835Y-123384266D01*
X130599734Y-123299310D01*
X130382000Y-123256000D01*
X130160000Y-123256000D01*
X129942266Y-123299310D01*
X129783927Y-123364896D01*
X129727403Y-123259147D01*
X129711690Y-123240000D01*
X129727403Y-123220853D01*
X129794910Y-123094557D01*
X129836480Y-122957517D01*
X129850517Y-122815000D01*
X129850517Y-121415000D01*
X129836480Y-121272483D01*
X129794910Y-121135443D01*
X129727403Y-121009147D01*
X129636554Y-120898446D01*
X129629148Y-120892368D01*
X129675853Y-120867403D01*
X129786554Y-120776554D01*
X129877403Y-120665853D01*
X129944910Y-120539557D01*
X129986480Y-120402517D01*
X130000517Y-120260000D01*
X130000517Y-118760000D01*
X129986480Y-118617483D01*
X129944910Y-118480443D01*
X129877403Y-118354147D01*
X129786554Y-118243446D01*
X129675853Y-118152597D01*
X129592121Y-118107841D01*
X129624494Y-118090537D01*
X129721185Y-118011185D01*
X129800537Y-117914494D01*
X129859502Y-117804180D01*
X129895812Y-117684482D01*
X129908072Y-117560000D01*
X129905000Y-117095750D01*
X129746250Y-116937000D01*
X128747000Y-116937000D01*
X128747000Y-116957000D01*
X128493000Y-116957000D01*
X128493000Y-116937000D01*
X127493750Y-116937000D01*
X127350000Y-117080750D01*
X127206250Y-116937000D01*
X126207000Y-116937000D01*
X126207000Y-116957000D01*
X125953000Y-116957000D01*
X125953000Y-116937000D01*
X125933000Y-116937000D01*
X125933000Y-116683000D01*
X125953000Y-116683000D01*
X125953000Y-115583750D01*
X126207000Y-115583750D01*
X126207000Y-116683000D01*
X127206250Y-116683000D01*
X127350000Y-116539250D01*
X127493750Y-116683000D01*
X128493000Y-116683000D01*
X128493000Y-115583750D01*
X128747000Y-115583750D01*
X128747000Y-116683000D01*
X129746250Y-116683000D01*
X129905000Y-116524250D01*
X129908072Y-116060000D01*
X129895812Y-115935518D01*
X129859502Y-115815820D01*
X129800537Y-115705506D01*
X129721185Y-115608815D01*
X129624494Y-115529463D01*
X129514180Y-115470498D01*
X129394482Y-115434188D01*
X129270000Y-115421928D01*
X128905750Y-115425000D01*
X128747000Y-115583750D01*
X128493000Y-115583750D01*
X128334250Y-115425000D01*
X127970000Y-115421928D01*
X127845518Y-115434188D01*
X127725820Y-115470498D01*
X127615506Y-115529463D01*
X127518815Y-115608815D01*
X127439463Y-115705506D01*
X127380498Y-115815820D01*
X127350000Y-115916358D01*
X127319502Y-115815820D01*
X127260537Y-115705506D01*
X127181185Y-115608815D01*
X127084494Y-115529463D01*
X126974180Y-115470498D01*
X126854482Y-115434188D01*
X126730000Y-115421928D01*
X126365750Y-115425000D01*
X126207000Y-115583750D01*
X125953000Y-115583750D01*
X125794250Y-115425000D01*
X125430000Y-115421928D01*
X125305518Y-115434188D01*
X125185820Y-115470498D01*
X125075506Y-115529463D01*
X124978815Y-115608815D01*
X124899463Y-115705506D01*
X124840498Y-115815820D01*
X124831312Y-115846102D01*
X124708835Y-115764266D01*
X124503734Y-115679310D01*
X124286000Y-115636000D01*
X124064000Y-115636000D01*
X123846266Y-115679310D01*
X123641165Y-115764266D01*
X123456579Y-115887602D01*
X123299602Y-116044579D01*
X123176266Y-116229165D01*
X123091310Y-116434266D01*
X123048000Y-116652000D01*
X119680910Y-116652000D01*
X119346054Y-116317145D01*
X119319370Y-116284630D01*
X119189636Y-116178161D01*
X119041624Y-116099046D01*
X118881021Y-116050328D01*
X118755852Y-116038000D01*
X118755849Y-116038000D01*
X118714000Y-116033878D01*
X118672151Y-116038000D01*
X116178436Y-116038000D01*
X116154910Y-115960443D01*
X116087403Y-115834147D01*
X115996554Y-115723446D01*
X115885853Y-115632597D01*
X115759557Y-115565090D01*
X115622517Y-115523520D01*
X115480000Y-115509483D01*
X113980000Y-115509483D01*
X113837483Y-115523520D01*
X113700443Y-115565090D01*
X113574147Y-115632597D01*
X113463446Y-115723446D01*
X113372597Y-115834147D01*
X113327841Y-115917879D01*
X113310537Y-115885506D01*
X113231185Y-115788815D01*
X113134494Y-115709463D01*
X113024180Y-115650498D01*
X112904482Y-115614188D01*
X112780000Y-115601928D01*
X112315750Y-115605000D01*
X112157000Y-115763750D01*
X112157000Y-116763000D01*
X112177000Y-116763000D01*
X112177000Y-117017000D01*
X112157000Y-117017000D01*
X112157000Y-118016250D01*
X112300750Y-118160000D01*
X112157000Y-118303750D01*
X112157000Y-119303000D01*
X112177000Y-119303000D01*
X112177000Y-119557000D01*
X112157000Y-119557000D01*
X112157000Y-120556250D01*
X112315750Y-120715000D01*
X112780000Y-120718072D01*
X112904482Y-120705812D01*
X113024180Y-120669502D01*
X113134494Y-120610537D01*
X113231185Y-120531185D01*
X113310537Y-120434494D01*
X113327841Y-120402121D01*
X113372597Y-120485853D01*
X113463446Y-120596554D01*
X113574147Y-120687403D01*
X113700443Y-120754910D01*
X113837483Y-120796480D01*
X113980000Y-120810517D01*
X115480000Y-120810517D01*
X115622517Y-120796480D01*
X115759557Y-120754910D01*
X115885853Y-120687403D01*
X115996554Y-120596554D01*
X116087403Y-120485853D01*
X116154122Y-120361031D01*
X116338000Y-120544909D01*
X116338000Y-120778812D01*
X116284147Y-120807597D01*
X116173446Y-120898446D01*
X116082597Y-121009147D01*
X116015090Y-121135443D01*
X115973520Y-121272483D01*
X115959483Y-121415000D01*
X115959483Y-122815000D01*
X115973520Y-122957517D01*
X116015090Y-123094557D01*
X116082597Y-123220853D01*
X116098310Y-123240000D01*
X116082597Y-123259147D01*
X116015090Y-123385443D01*
X115973520Y-123522483D01*
X115972681Y-123531000D01*
X106501819Y-123531000D01*
X106478421Y-123507602D01*
X106293835Y-123384266D01*
X106088734Y-123299310D01*
X105871000Y-123256000D01*
X105649000Y-123256000D01*
X105431266Y-123299310D01*
X105226165Y-123384266D01*
X105041579Y-123507602D01*
X104884602Y-123664579D01*
X104761266Y-123849165D01*
X104676310Y-124054266D01*
X104633000Y-124272000D01*
X102342514Y-124272000D01*
X102292554Y-124020837D01*
X102166138Y-123715643D01*
X101982611Y-123440975D01*
X101757000Y-123215364D01*
X101757000Y-120080000D01*
X110641928Y-120080000D01*
X110654188Y-120204482D01*
X110690498Y-120324180D01*
X110749463Y-120434494D01*
X110828815Y-120531185D01*
X110925506Y-120610537D01*
X111035820Y-120669502D01*
X111155518Y-120705812D01*
X111280000Y-120718072D01*
X111744250Y-120715000D01*
X111903000Y-120556250D01*
X111903000Y-119557000D01*
X110803750Y-119557000D01*
X110645000Y-119715750D01*
X110641928Y-120080000D01*
X101757000Y-120080000D01*
X101757000Y-119423861D01*
X101815853Y-119392403D01*
X101926554Y-119301554D01*
X102017403Y-119190853D01*
X102084910Y-119064557D01*
X102126480Y-118927517D01*
X102140517Y-118785000D01*
X102140517Y-117540000D01*
X110641928Y-117540000D01*
X110654188Y-117664482D01*
X110690498Y-117784180D01*
X110749463Y-117894494D01*
X110828815Y-117991185D01*
X110925506Y-118070537D01*
X111035820Y-118129502D01*
X111136358Y-118160000D01*
X111035820Y-118190498D01*
X110925506Y-118249463D01*
X110828815Y-118328815D01*
X110749463Y-118425506D01*
X110690498Y-118535820D01*
X110654188Y-118655518D01*
X110641928Y-118780000D01*
X110645000Y-119144250D01*
X110803750Y-119303000D01*
X111903000Y-119303000D01*
X111903000Y-118303750D01*
X111759250Y-118160000D01*
X111903000Y-118016250D01*
X111903000Y-117017000D01*
X110803750Y-117017000D01*
X110645000Y-117175750D01*
X110641928Y-117540000D01*
X102140517Y-117540000D01*
X102140517Y-117535000D01*
X102126480Y-117392483D01*
X102084910Y-117255443D01*
X102017403Y-117129147D01*
X101926554Y-117018446D01*
X101815853Y-116927597D01*
X101757000Y-116896139D01*
X101757000Y-116240000D01*
X110641928Y-116240000D01*
X110645000Y-116604250D01*
X110803750Y-116763000D01*
X111903000Y-116763000D01*
X111903000Y-115763750D01*
X111744250Y-115605000D01*
X111280000Y-115601928D01*
X111155518Y-115614188D01*
X111035820Y-115650498D01*
X110925506Y-115709463D01*
X110828815Y-115788815D01*
X110749463Y-115885506D01*
X110690498Y-115995820D01*
X110654188Y-116115518D01*
X110641928Y-116240000D01*
X101757000Y-116240000D01*
X101757000Y-113676696D01*
X101767353Y-113661202D01*
X101859847Y-113437903D01*
X101907000Y-113200849D01*
X101907000Y-113171109D01*
X102024734Y-113147690D01*
X102229835Y-113062734D01*
X102414421Y-112939398D01*
X102437819Y-112916000D01*
X122290181Y-112916000D01*
X122313579Y-112939398D01*
X122498165Y-113062734D01*
X122703266Y-113147690D01*
X122921000Y-113191000D01*
X123143000Y-113191000D01*
X123360734Y-113147690D01*
X123565835Y-113062734D01*
X123750421Y-112939398D01*
X123907398Y-112782421D01*
X124030734Y-112597835D01*
X124115690Y-112392734D01*
X124133738Y-112302000D01*
X124286000Y-112302000D01*
X124503734Y-112258690D01*
X124708835Y-112173734D01*
X124893421Y-112050398D01*
X125050398Y-111893421D01*
X125173734Y-111708835D01*
X125258690Y-111503734D01*
X125302000Y-111286000D01*
X125302000Y-111064000D01*
X125258690Y-110846266D01*
X125173734Y-110641165D01*
X125050398Y-110456579D01*
X124893421Y-110299602D01*
X124708835Y-110176266D01*
X124503734Y-110091310D01*
X124286000Y-110048000D01*
X124064000Y-110048000D01*
X123846266Y-110091310D01*
X123641165Y-110176266D01*
X123456579Y-110299602D01*
X123433181Y-110323000D01*
X120977925Y-110323000D01*
X120993773Y-110307152D01*
X121171828Y-110040673D01*
X121294475Y-109744578D01*
X121357000Y-109430245D01*
X121357000Y-109109755D01*
X121294475Y-108795422D01*
X121171828Y-108499327D01*
X120993773Y-108232848D01*
X120767152Y-108006227D01*
X120500673Y-107828172D01*
X120204578Y-107705525D01*
X119890245Y-107643000D01*
X119569755Y-107643000D01*
X119255422Y-107705525D01*
X118959327Y-107828172D01*
X118692848Y-108006227D01*
X118506075Y-108193000D01*
X115604108Y-108193000D01*
X112761973Y-105350866D01*
X112728239Y-105309761D01*
X112606324Y-105209708D01*
X112704557Y-105179910D01*
X112830853Y-105112403D01*
X112941554Y-105021554D01*
X113030014Y-104913764D01*
X113220643Y-105041138D01*
X113525837Y-105167554D01*
X113849830Y-105232000D01*
X114180170Y-105232000D01*
X114504163Y-105167554D01*
X114809357Y-105041138D01*
X115084025Y-104857611D01*
X115309636Y-104632000D01*
X116743893Y-104632000D01*
X118931032Y-106819140D01*
X118964761Y-106860239D01*
X119128756Y-106994826D01*
X119315856Y-107094833D01*
X119518871Y-107156417D01*
X119677091Y-107172000D01*
X119677092Y-107172000D01*
X119729999Y-107177211D01*
X119782906Y-107172000D01*
X126273001Y-107172000D01*
X126273000Y-110586075D01*
X126086227Y-110772848D01*
X125908172Y-111039327D01*
X125785525Y-111335422D01*
X125723000Y-111649755D01*
X125723000Y-111970245D01*
X125785525Y-112284578D01*
X125908172Y-112580673D01*
X126086227Y-112847152D01*
X126312848Y-113073773D01*
X126579327Y-113251828D01*
X126875422Y-113374475D01*
X127189755Y-113437000D01*
X127510245Y-113437000D01*
X127824578Y-113374475D01*
X128120673Y-113251828D01*
X128387152Y-113073773D01*
X128613773Y-112847152D01*
X128791828Y-112580673D01*
X128914475Y-112284578D01*
X128977000Y-111970245D01*
X128977000Y-111649755D01*
X128914475Y-111335422D01*
X128791828Y-111039327D01*
X128613773Y-110772848D01*
X128427000Y-110586075D01*
X128427000Y-109109755D01*
X130803000Y-109109755D01*
X130803000Y-109430245D01*
X130865525Y-109744578D01*
X130988172Y-110040673D01*
X131166227Y-110307152D01*
X131392848Y-110533773D01*
X131659327Y-110711828D01*
X131955422Y-110834475D01*
X132269755Y-110897000D01*
X132590245Y-110897000D01*
X132904578Y-110834475D01*
X133200673Y-110711828D01*
X133467152Y-110533773D01*
X133693773Y-110307152D01*
X133871828Y-110040673D01*
X133994475Y-109744578D01*
X134057000Y-109430245D01*
X134057000Y-109109755D01*
X133994475Y-108795422D01*
X133871828Y-108499327D01*
X133693773Y-108232848D01*
X133467152Y-108006227D01*
X133200673Y-107828172D01*
X132904578Y-107705525D01*
X132590245Y-107643000D01*
X132269755Y-107643000D01*
X131955422Y-107705525D01*
X131659327Y-107828172D01*
X131392848Y-108006227D01*
X131166227Y-108232848D01*
X130988172Y-108499327D01*
X130865525Y-108795422D01*
X130803000Y-109109755D01*
X128427000Y-109109755D01*
X128427000Y-106147909D01*
X128432211Y-106095000D01*
X128427000Y-106042091D01*
X128427000Y-104877906D01*
X128432211Y-104824999D01*
X128422554Y-104726954D01*
X128411417Y-104613871D01*
X128349833Y-104410856D01*
X128249826Y-104223756D01*
X128115239Y-104059761D01*
X128074140Y-104026032D01*
X126878972Y-102830865D01*
X126845239Y-102789761D01*
X126681244Y-102655174D01*
X126494144Y-102555167D01*
X126291129Y-102493583D01*
X126132909Y-102478000D01*
X126132907Y-102478000D01*
X126080000Y-102472789D01*
X126027093Y-102478000D01*
X125595048Y-102478000D01*
X125521554Y-102388446D01*
X125410853Y-102297597D01*
X125284557Y-102230090D01*
X125147517Y-102188520D01*
X125005000Y-102174483D01*
X123505000Y-102174483D01*
X123362483Y-102188520D01*
X123225443Y-102230090D01*
X123099147Y-102297597D01*
X122988446Y-102388446D01*
X122905000Y-102490126D01*
X122821554Y-102388446D01*
X122710853Y-102297597D01*
X122584557Y-102230090D01*
X122447517Y-102188520D01*
X122305000Y-102174483D01*
X120805000Y-102174483D01*
X120662483Y-102188520D01*
X120525443Y-102230090D01*
X120399147Y-102297597D01*
X120288446Y-102388446D01*
X120245711Y-102440520D01*
X120087903Y-102375153D01*
X119850849Y-102328000D01*
X119609151Y-102328000D01*
X119372097Y-102375153D01*
X119148798Y-102467647D01*
X118947833Y-102601927D01*
X118776927Y-102772833D01*
X118642647Y-102973798D01*
X118550153Y-103197097D01*
X118517809Y-103359702D01*
X117988973Y-102830866D01*
X117955239Y-102789761D01*
X117791244Y-102655174D01*
X117604144Y-102555167D01*
X117401129Y-102493583D01*
X117242909Y-102478000D01*
X117242907Y-102478000D01*
X117190000Y-102472789D01*
X117137093Y-102478000D01*
X115309636Y-102478000D01*
X115084025Y-102252389D01*
X114809357Y-102068862D01*
X114504163Y-101942446D01*
X114180170Y-101878000D01*
X113849830Y-101878000D01*
X113525837Y-101942446D01*
X113220643Y-102068862D01*
X113030014Y-102196236D01*
X112941554Y-102088446D01*
X112830853Y-101997597D01*
X112704557Y-101930090D01*
X112567517Y-101888520D01*
X112552000Y-101886992D01*
X112552000Y-98873008D01*
X112567517Y-98871480D01*
X112704557Y-98829910D01*
X112830853Y-98762403D01*
X112941554Y-98671554D01*
X113030014Y-98563764D01*
X113220643Y-98691138D01*
X113525837Y-98817554D01*
X113849830Y-98882000D01*
X114180170Y-98882000D01*
X114504163Y-98817554D01*
X114809357Y-98691138D01*
X115084025Y-98507611D01*
X115309636Y-98282000D01*
X117137093Y-98282000D01*
X117190000Y-98287211D01*
X117242907Y-98282000D01*
X117242909Y-98282000D01*
X117401129Y-98266417D01*
X117604144Y-98204833D01*
X117791244Y-98104826D01*
X117955239Y-97970239D01*
X117988973Y-97929134D01*
X118517809Y-97400298D01*
X118550153Y-97562903D01*
X118642647Y-97786202D01*
X118776927Y-97987167D01*
X118947833Y-98158073D01*
X119148798Y-98292353D01*
X119372097Y-98384847D01*
X119609151Y-98432000D01*
X119850849Y-98432000D01*
X120087903Y-98384847D01*
X120245711Y-98319480D01*
X120288446Y-98371554D01*
X120399147Y-98462403D01*
X120525443Y-98529910D01*
X120662483Y-98571480D01*
X120805000Y-98585517D01*
X122305000Y-98585517D01*
X122447517Y-98571480D01*
X122584557Y-98529910D01*
X122710853Y-98462403D01*
X122821554Y-98371554D01*
X122905000Y-98269874D01*
X122988446Y-98371554D01*
X123099147Y-98462403D01*
X123225443Y-98529910D01*
X123362483Y-98571480D01*
X123505000Y-98585517D01*
X125005000Y-98585517D01*
X125147517Y-98571480D01*
X125284557Y-98529910D01*
X125410853Y-98462403D01*
X125521554Y-98371554D01*
X125595048Y-98282000D01*
X126027093Y-98282000D01*
X126080000Y-98287211D01*
X126132907Y-98282000D01*
X126132909Y-98282000D01*
X126291129Y-98266417D01*
X126494144Y-98204833D01*
X126681244Y-98104826D01*
X126845239Y-97970239D01*
X126878972Y-97929135D01*
X128074140Y-96733968D01*
X128115239Y-96700239D01*
X128249826Y-96536244D01*
X128349833Y-96349144D01*
X128411417Y-96146129D01*
X128427000Y-95987909D01*
X128427000Y-95987908D01*
X128432211Y-95935001D01*
X128427000Y-95882094D01*
X128427000Y-94717909D01*
X128432211Y-94665000D01*
X128427000Y-94612091D01*
X128427000Y-92713925D01*
X128613773Y-92527152D01*
X128791828Y-92260673D01*
X128914475Y-91964578D01*
X128977000Y-91650245D01*
X128977000Y-91329755D01*
X128914475Y-91015422D01*
X128791828Y-90719327D01*
X128613773Y-90452848D01*
X128387152Y-90226227D01*
X128120673Y-90048172D01*
X127824578Y-89925525D01*
X127510245Y-89863000D01*
X127189755Y-89863000D01*
X126875422Y-89925525D01*
X126579327Y-90048172D01*
X126312848Y-90226227D01*
X126086227Y-90452848D01*
X125908172Y-90719327D01*
X125785525Y-91015422D01*
X125723000Y-91329755D01*
X125723000Y-91650245D01*
X125785525Y-91964578D01*
X125908172Y-92260673D01*
X126086227Y-92527152D01*
X126273000Y-92713925D01*
X126273001Y-93588000D01*
X119782906Y-93588000D01*
X119729999Y-93582789D01*
X119677092Y-93588000D01*
X119677091Y-93588000D01*
X119518871Y-93603583D01*
X119315856Y-93665167D01*
X119128756Y-93765174D01*
X118964761Y-93899761D01*
X118931032Y-93940860D01*
X116743893Y-96128000D01*
X115309636Y-96128000D01*
X115084025Y-95902389D01*
X114809357Y-95718862D01*
X114504163Y-95592446D01*
X114180170Y-95528000D01*
X113849830Y-95528000D01*
X113525837Y-95592446D01*
X113220643Y-95718862D01*
X113030014Y-95846236D01*
X112941554Y-95738446D01*
X112830853Y-95647597D01*
X112704557Y-95580090D01*
X112567517Y-95538520D01*
X112552000Y-95536992D01*
X112552000Y-95352909D01*
X112557211Y-95300000D01*
X112552000Y-95247091D01*
X112552000Y-92812909D01*
X112557211Y-92760000D01*
X112552000Y-92707091D01*
X112552000Y-88789755D01*
X118103000Y-88789755D01*
X118103000Y-89110245D01*
X118165525Y-89424578D01*
X118288172Y-89720673D01*
X118466227Y-89987152D01*
X118692848Y-90213773D01*
X118959327Y-90391828D01*
X119255422Y-90514475D01*
X119569755Y-90577000D01*
X119890245Y-90577000D01*
X120204578Y-90514475D01*
X120500673Y-90391828D01*
X120767152Y-90213773D01*
X120993773Y-89987152D01*
X121171828Y-89720673D01*
X121294475Y-89424578D01*
X121357000Y-89110245D01*
X121357000Y-88789755D01*
X130803000Y-88789755D01*
X130803000Y-89110245D01*
X130865525Y-89424578D01*
X130988172Y-89720673D01*
X131166227Y-89987152D01*
X131392848Y-90213773D01*
X131659327Y-90391828D01*
X131955422Y-90514475D01*
X132269755Y-90577000D01*
X132590245Y-90577000D01*
X132904578Y-90514475D01*
X133200673Y-90391828D01*
X133467152Y-90213773D01*
X133693773Y-89987152D01*
X133871828Y-89720673D01*
X133994475Y-89424578D01*
X134057000Y-89110245D01*
X134057000Y-88789755D01*
X133994475Y-88475422D01*
X133871828Y-88179327D01*
X133693773Y-87912848D01*
X133467152Y-87686227D01*
X133200673Y-87508172D01*
X132904578Y-87385525D01*
X132590245Y-87323000D01*
X132269755Y-87323000D01*
X131955422Y-87385525D01*
X131659327Y-87508172D01*
X131392848Y-87686227D01*
X131166227Y-87912848D01*
X130988172Y-88179327D01*
X130865525Y-88475422D01*
X130803000Y-88789755D01*
X121357000Y-88789755D01*
X121294475Y-88475422D01*
X121171828Y-88179327D01*
X120993773Y-87912848D01*
X120767152Y-87686227D01*
X120500673Y-87508172D01*
X120204578Y-87385525D01*
X119890245Y-87323000D01*
X119569755Y-87323000D01*
X119255422Y-87385525D01*
X118959327Y-87508172D01*
X118692848Y-87686227D01*
X118466227Y-87912848D01*
X118288172Y-88179327D01*
X118165525Y-88475422D01*
X118103000Y-88789755D01*
X112552000Y-88789755D01*
X112552000Y-85967107D01*
X113318108Y-85201000D01*
X115740093Y-85201000D01*
X115793000Y-85206211D01*
X115845907Y-85201000D01*
X132377091Y-85201000D01*
X132430000Y-85206211D01*
X132482909Y-85201000D01*
X134790093Y-85201000D01*
X134843000Y-85206211D01*
X134895907Y-85201000D01*
X134895909Y-85201000D01*
X135054129Y-85185417D01*
X135257144Y-85123833D01*
X135444244Y-85023826D01*
X135608239Y-84889239D01*
X135641972Y-84848135D01*
X137091140Y-83398968D01*
X137132239Y-83365239D01*
X137266826Y-83201244D01*
X137366833Y-83014144D01*
X137428417Y-82811129D01*
X137444000Y-82652909D01*
X137444000Y-82652908D01*
X137449211Y-82600001D01*
X137444000Y-82547094D01*
X137444000Y-59919907D01*
X137449211Y-59867000D01*
X137433378Y-59706244D01*
X137428417Y-59655871D01*
X137366833Y-59452856D01*
X137293751Y-59316129D01*
X137266826Y-59265755D01*
X137165966Y-59142858D01*
X137132239Y-59101761D01*
X137091139Y-59068031D01*
X136403972Y-58380865D01*
X136370239Y-58339761D01*
X136206244Y-58205174D01*
X136019144Y-58105167D01*
X135816129Y-58043583D01*
X135657909Y-58028000D01*
X135657907Y-58028000D01*
X135605000Y-58022789D01*
X135552093Y-58028000D01*
X130082108Y-58028000D01*
X129717000Y-57662893D01*
X129717000Y-57204551D01*
X129795853Y-57162403D01*
X129906554Y-57071554D01*
X129951594Y-57016672D01*
X130035506Y-57085537D01*
X130145820Y-57144502D01*
X130265518Y-57180812D01*
X130390000Y-57193072D01*
X130854250Y-57190000D01*
X131013000Y-57031250D01*
X131013000Y-56057000D01*
X131267000Y-56057000D01*
X131267000Y-57031250D01*
X131425750Y-57190000D01*
X131890000Y-57193072D01*
X132014482Y-57180812D01*
X132134180Y-57144502D01*
X132244494Y-57085537D01*
X132341185Y-57006185D01*
X132420537Y-56909494D01*
X132479502Y-56799180D01*
X132515812Y-56679482D01*
X132528072Y-56555000D01*
X132525000Y-56215750D01*
X132366250Y-56057000D01*
X131267000Y-56057000D01*
X131013000Y-56057000D01*
X130993000Y-56057000D01*
X130993000Y-55803000D01*
X131013000Y-55803000D01*
X131013000Y-54828750D01*
X131267000Y-54828750D01*
X131267000Y-55803000D01*
X132366250Y-55803000D01*
X132525000Y-55644250D01*
X132528072Y-55305000D01*
X132515812Y-55180518D01*
X132479502Y-55060820D01*
X132420537Y-54950506D01*
X132341185Y-54853815D01*
X132244494Y-54774463D01*
X132134180Y-54715498D01*
X132014482Y-54679188D01*
X131890000Y-54666928D01*
X131425750Y-54670000D01*
X131267000Y-54828750D01*
X131013000Y-54828750D01*
X130854250Y-54670000D01*
X130390000Y-54666928D01*
X130265518Y-54679188D01*
X130145820Y-54715498D01*
X130035506Y-54774463D01*
X129951594Y-54843328D01*
X129906554Y-54788446D01*
X129795853Y-54697597D01*
X129717000Y-54655449D01*
X129717000Y-54097906D01*
X129722211Y-54044999D01*
X129716917Y-53991245D01*
X129703474Y-53854752D01*
X131509853Y-53854752D01*
X131599579Y-54114042D01*
X131880671Y-54249935D01*
X132182873Y-54328379D01*
X132494573Y-54346359D01*
X132803791Y-54303184D01*
X133098644Y-54200513D01*
X133260421Y-54114042D01*
X133350147Y-53854752D01*
X132430000Y-52934605D01*
X131509853Y-53854752D01*
X129703474Y-53854752D01*
X129701417Y-53833871D01*
X129639833Y-53630856D01*
X129539826Y-53443756D01*
X129405239Y-53279761D01*
X129364140Y-53246032D01*
X129027000Y-52908892D01*
X129027000Y-52589830D01*
X128962554Y-52265837D01*
X128836138Y-51960643D01*
X128708764Y-51770014D01*
X128816554Y-51681554D01*
X128907403Y-51570853D01*
X128974910Y-51444557D01*
X129016480Y-51307517D01*
X129030517Y-51165000D01*
X129030517Y-49265000D01*
X130749483Y-49265000D01*
X130749483Y-51165000D01*
X130763520Y-51307517D01*
X130805090Y-51444557D01*
X130872597Y-51570853D01*
X130963446Y-51681554D01*
X131074147Y-51772403D01*
X131200443Y-51839910D01*
X131261826Y-51858530D01*
X131070958Y-51924579D01*
X130935065Y-52205671D01*
X130856621Y-52507873D01*
X130838641Y-52819573D01*
X130881816Y-53128791D01*
X130984487Y-53423644D01*
X131070958Y-53585421D01*
X131330248Y-53675147D01*
X132250395Y-52755000D01*
X132236253Y-52740858D01*
X132415858Y-52561253D01*
X132430000Y-52575395D01*
X132444143Y-52561253D01*
X132623748Y-52740858D01*
X132609605Y-52755000D01*
X133529752Y-53675147D01*
X133789042Y-53585421D01*
X133924935Y-53304329D01*
X134003379Y-53002127D01*
X134021359Y-52690427D01*
X133978184Y-52381209D01*
X133875513Y-52086356D01*
X133789042Y-51924579D01*
X133598174Y-51858530D01*
X133659557Y-51839910D01*
X133785853Y-51772403D01*
X133896554Y-51681554D01*
X133987403Y-51570853D01*
X134054910Y-51444557D01*
X134096480Y-51307517D01*
X134110517Y-51165000D01*
X134110517Y-49265000D01*
X134096480Y-49122483D01*
X134054910Y-48985443D01*
X133987403Y-48859147D01*
X133896554Y-48748446D01*
X133785853Y-48657597D01*
X133659557Y-48590090D01*
X133522517Y-48548520D01*
X133380000Y-48534483D01*
X131480000Y-48534483D01*
X131337483Y-48548520D01*
X131200443Y-48590090D01*
X131074147Y-48657597D01*
X130963446Y-48748446D01*
X130872597Y-48859147D01*
X130805090Y-48985443D01*
X130763520Y-49122483D01*
X130749483Y-49265000D01*
X129030517Y-49265000D01*
X129016480Y-49122483D01*
X128974910Y-48985443D01*
X128907403Y-48859147D01*
X128816554Y-48748446D01*
X128705853Y-48657597D01*
X128579557Y-48590090D01*
X128442517Y-48548520D01*
X128427000Y-48546992D01*
X128427000Y-48362906D01*
X128432211Y-48309999D01*
X128422941Y-48215878D01*
X128411417Y-48098871D01*
X128349833Y-47895856D01*
X128249826Y-47708756D01*
X128115239Y-47544761D01*
X128074134Y-47511027D01*
X127833973Y-47270866D01*
X127800239Y-47229761D01*
X127636244Y-47095174D01*
X127449144Y-46995167D01*
X127246129Y-46933583D01*
X127087909Y-46918000D01*
X127087907Y-46918000D01*
X127035000Y-46912789D01*
X126982093Y-46918000D01*
X121626907Y-46918000D01*
X121574000Y-46912789D01*
X121521093Y-46918000D01*
X116033907Y-46918000D01*
X115981000Y-46912789D01*
X115928093Y-46918000D01*
X107647667Y-46918000D01*
X107566555Y-46893395D01*
X107524833Y-46755856D01*
X107424826Y-46568756D01*
X107290239Y-46404761D01*
X107249134Y-46371027D01*
X106939973Y-46061866D01*
X106906239Y-46020761D01*
X106742244Y-45886174D01*
X106555144Y-45786167D01*
X106352129Y-45724583D01*
X106193909Y-45709000D01*
X106193907Y-45709000D01*
X106141000Y-45703789D01*
X106088093Y-45709000D01*
X91751696Y-45709000D01*
X91736202Y-45698647D01*
X91512903Y-45606153D01*
X91275849Y-45559000D01*
X91034151Y-45559000D01*
X90797097Y-45606153D01*
X90573798Y-45698647D01*
X90372833Y-45832927D01*
X90201927Y-46003833D01*
X90067647Y-46204798D01*
X89975153Y-46428097D01*
X89928000Y-46665151D01*
X89928000Y-46906849D01*
X89975153Y-47143903D01*
X90067647Y-47367202D01*
X90201927Y-47568167D01*
X90372833Y-47739073D01*
X90573798Y-47873353D01*
X90797097Y-47965847D01*
X91034151Y-48013000D01*
X91275849Y-48013000D01*
X91435280Y-47981287D01*
X91422141Y-47988310D01*
X91315755Y-48045174D01*
X91250327Y-48098870D01*
X91151761Y-48179761D01*
X91118031Y-48220861D01*
X90430861Y-48908032D01*
X90389762Y-48941761D01*
X90255175Y-49105756D01*
X90155168Y-49292856D01*
X90093583Y-49495871D01*
X90089103Y-49541356D01*
X90013446Y-49603446D01*
X89922597Y-49714147D01*
X89880449Y-49793000D01*
X89649978Y-49793000D01*
X89646480Y-49757483D01*
X89604910Y-49620443D01*
X89537403Y-49494147D01*
X89446554Y-49383446D01*
X89335853Y-49292597D01*
X89209557Y-49225090D01*
X89072517Y-49183520D01*
X88930000Y-49169483D01*
X87030000Y-49169483D01*
X86887483Y-49183520D01*
X86750443Y-49225090D01*
X86624147Y-49292597D01*
X86513446Y-49383446D01*
X86422597Y-49494147D01*
X86355090Y-49620443D01*
X86313520Y-49757483D01*
X86311992Y-49773000D01*
X85492906Y-49773000D01*
X85439999Y-49767789D01*
X85387092Y-49773000D01*
X85387091Y-49773000D01*
X85228871Y-49788583D01*
X85025856Y-49850167D01*
X84838756Y-49950174D01*
X84674761Y-50084761D01*
X84641032Y-50125860D01*
X83723893Y-51043000D01*
X83559636Y-51043000D01*
X83334025Y-50817389D01*
X83059357Y-50633862D01*
X82754163Y-50507446D01*
X82430170Y-50443000D01*
X82099830Y-50443000D01*
X81775837Y-50507446D01*
X81470643Y-50633862D01*
X81280014Y-50761236D01*
X81191554Y-50653446D01*
X81080853Y-50562597D01*
X80954557Y-50495090D01*
X80817517Y-50453520D01*
X80675000Y-50439483D01*
X78775000Y-50439483D01*
X78632483Y-50453520D01*
X78495443Y-50495090D01*
X78369147Y-50562597D01*
X78258446Y-50653446D01*
X78167597Y-50764147D01*
X78104779Y-50881671D01*
X77668972Y-50445865D01*
X77635239Y-50404761D01*
X77478650Y-50276252D01*
X77499557Y-50269910D01*
X77625853Y-50202403D01*
X77736554Y-50111554D01*
X77820000Y-50009874D01*
X77903446Y-50111554D01*
X78014147Y-50202403D01*
X78140443Y-50269910D01*
X78277483Y-50311480D01*
X78420000Y-50325517D01*
X79920000Y-50325517D01*
X80062517Y-50311480D01*
X80199557Y-50269910D01*
X80325853Y-50202403D01*
X80436554Y-50111554D01*
X80527403Y-50000853D01*
X80540393Y-49976551D01*
X80666266Y-50028690D01*
X80884000Y-50072000D01*
X81106000Y-50072000D01*
X81323734Y-50028690D01*
X81528835Y-49943734D01*
X81713421Y-49820398D01*
X81870398Y-49663421D01*
X81993734Y-49478835D01*
X82078690Y-49273734D01*
X82122000Y-49056000D01*
X82122000Y-48834000D01*
X82078690Y-48616266D01*
X81993734Y-48411165D01*
X81870398Y-48226579D01*
X81713421Y-48069602D01*
X81528835Y-47946266D01*
X81323734Y-47861310D01*
X81106000Y-47818000D01*
X80884000Y-47818000D01*
X80666266Y-47861310D01*
X80540393Y-47913449D01*
X80527403Y-47889147D01*
X80436554Y-47778446D01*
X80325853Y-47687597D01*
X80199557Y-47620090D01*
X80062517Y-47578520D01*
X79920000Y-47564483D01*
X78420000Y-47564483D01*
X78277483Y-47578520D01*
X78140443Y-47620090D01*
X78014147Y-47687597D01*
X77903446Y-47778446D01*
X77820000Y-47880126D01*
X77736554Y-47778446D01*
X77625853Y-47687597D01*
X77499557Y-47620090D01*
X77362517Y-47578520D01*
X77220000Y-47564483D01*
X75720000Y-47564483D01*
X75577483Y-47578520D01*
X75440443Y-47620090D01*
X75314147Y-47687597D01*
X75203446Y-47778446D01*
X75112597Y-47889147D01*
X75045090Y-48015443D01*
X75021564Y-48093000D01*
X74566188Y-48093000D01*
X74537403Y-48039147D01*
X74446554Y-47928446D01*
X74335853Y-47837597D01*
X74209557Y-47770090D01*
X74072517Y-47728520D01*
X73930000Y-47714483D01*
X72530000Y-47714483D01*
X72387483Y-47728520D01*
X72250443Y-47770090D01*
X72127000Y-47836072D01*
X72127000Y-45302000D01*
X141698001Y-45302000D01*
X141698000Y-93903000D01*
G36*
X128565090Y-77680443D02*
G01*
X128523520Y-77817483D01*
X128509483Y-77960000D01*
X128509483Y-79460000D01*
X128523520Y-79602517D01*
X128565090Y-79739557D01*
X128632597Y-79865853D01*
X128723446Y-79976554D01*
X128834147Y-80067403D01*
X128917879Y-80112159D01*
X128885506Y-80129463D01*
X128788815Y-80208815D01*
X128709463Y-80305506D01*
X128650498Y-80415820D01*
X128614188Y-80535518D01*
X128601928Y-80660000D01*
X128605000Y-81124250D01*
X128763750Y-81283000D01*
X129763000Y-81283000D01*
X129763000Y-81263000D01*
X130017000Y-81263000D01*
X130017000Y-81283000D01*
X131016250Y-81283000D01*
X131175000Y-81124250D01*
X131178072Y-80660000D01*
X131165812Y-80535518D01*
X131129502Y-80415820D01*
X131070537Y-80305506D01*
X130991185Y-80208815D01*
X130894494Y-80129463D01*
X130862121Y-80112159D01*
X130945853Y-80067403D01*
X131056554Y-79976554D01*
X131147403Y-79865853D01*
X131210579Y-79747659D01*
X131213520Y-79777517D01*
X131255090Y-79914557D01*
X131322597Y-80040853D01*
X131338310Y-80060000D01*
X131322597Y-80079147D01*
X131255090Y-80205443D01*
X131213520Y-80342483D01*
X131199483Y-80485000D01*
X131199483Y-81885000D01*
X131213520Y-82027517D01*
X131255090Y-82164557D01*
X131322597Y-82290853D01*
X131353000Y-82327900D01*
X131353001Y-83047000D01*
X119474038Y-83047000D01*
X119585734Y-82879835D01*
X119670690Y-82674734D01*
X119714000Y-82457000D01*
X119714000Y-82235000D01*
X119699082Y-82160000D01*
X128601928Y-82160000D01*
X128614188Y-82284482D01*
X128650498Y-82404180D01*
X128709463Y-82514494D01*
X128788815Y-82611185D01*
X128885506Y-82690537D01*
X128995820Y-82749502D01*
X129115518Y-82785812D01*
X129240000Y-82798072D01*
X129604250Y-82795000D01*
X129763000Y-82636250D01*
X129763000Y-81537000D01*
X130017000Y-81537000D01*
X130017000Y-82636250D01*
X130175750Y-82795000D01*
X130540000Y-82798072D01*
X130664482Y-82785812D01*
X130784180Y-82749502D01*
X130894494Y-82690537D01*
X130991185Y-82611185D01*
X131070537Y-82514494D01*
X131129502Y-82404180D01*
X131165812Y-82284482D01*
X131178072Y-82160000D01*
X131175000Y-81695750D01*
X131016250Y-81537000D01*
X130017000Y-81537000D01*
X129763000Y-81537000D01*
X128763750Y-81537000D01*
X128605000Y-81695750D01*
X128601928Y-82160000D01*
X119699082Y-82160000D01*
X119670690Y-82017266D01*
X119585734Y-81812165D01*
X119462398Y-81627579D01*
X119439000Y-81604181D01*
X119439000Y-81424513D01*
X119569557Y-81384910D01*
X119695853Y-81317403D01*
X119730000Y-81289380D01*
X119764147Y-81317403D01*
X119890443Y-81384910D01*
X120027483Y-81426480D01*
X120170000Y-81440517D01*
X121670000Y-81440517D01*
X121812517Y-81426480D01*
X121949557Y-81384910D01*
X122075853Y-81317403D01*
X122186554Y-81226554D01*
X122270000Y-81124874D01*
X122353446Y-81226554D01*
X122464147Y-81317403D01*
X122590443Y-81384910D01*
X122727483Y-81426480D01*
X122870000Y-81440517D01*
X124370000Y-81440517D01*
X124512517Y-81426480D01*
X124649557Y-81384910D01*
X124775853Y-81317403D01*
X124886554Y-81226554D01*
X124977403Y-81115853D01*
X125044910Y-80989557D01*
X125086480Y-80852517D01*
X125100517Y-80710000D01*
X125100517Y-79410000D01*
X125086480Y-79267483D01*
X125044910Y-79130443D01*
X124977403Y-79004147D01*
X124886554Y-78893446D01*
X124775853Y-78802597D01*
X124697000Y-78760449D01*
X124697000Y-77581000D01*
X128618244Y-77581000D01*
X128565090Y-77680443D01*
X128565090Y-77680443D01*
G37*
X128565090Y-77680443D02*
X128523520Y-77817483D01*
X128509483Y-77960000D01*
X128509483Y-79460000D01*
X128523520Y-79602517D01*
X128565090Y-79739557D01*
X128632597Y-79865853D01*
X128723446Y-79976554D01*
X128834147Y-80067403D01*
X128917879Y-80112159D01*
X128885506Y-80129463D01*
X128788815Y-80208815D01*
X128709463Y-80305506D01*
X128650498Y-80415820D01*
X128614188Y-80535518D01*
X128601928Y-80660000D01*
X128605000Y-81124250D01*
X128763750Y-81283000D01*
X129763000Y-81283000D01*
X129763000Y-81263000D01*
X130017000Y-81263000D01*
X130017000Y-81283000D01*
X131016250Y-81283000D01*
X131175000Y-81124250D01*
X131178072Y-80660000D01*
X131165812Y-80535518D01*
X131129502Y-80415820D01*
X131070537Y-80305506D01*
X130991185Y-80208815D01*
X130894494Y-80129463D01*
X130862121Y-80112159D01*
X130945853Y-80067403D01*
X131056554Y-79976554D01*
X131147403Y-79865853D01*
X131210579Y-79747659D01*
X131213520Y-79777517D01*
X131255090Y-79914557D01*
X131322597Y-80040853D01*
X131338310Y-80060000D01*
X131322597Y-80079147D01*
X131255090Y-80205443D01*
X131213520Y-80342483D01*
X131199483Y-80485000D01*
X131199483Y-81885000D01*
X131213520Y-82027517D01*
X131255090Y-82164557D01*
X131322597Y-82290853D01*
X131353000Y-82327900D01*
X131353001Y-83047000D01*
X119474038Y-83047000D01*
X119585734Y-82879835D01*
X119670690Y-82674734D01*
X119714000Y-82457000D01*
X119714000Y-82235000D01*
X119699082Y-82160000D01*
X128601928Y-82160000D01*
X128614188Y-82284482D01*
X128650498Y-82404180D01*
X128709463Y-82514494D01*
X128788815Y-82611185D01*
X128885506Y-82690537D01*
X128995820Y-82749502D01*
X129115518Y-82785812D01*
X129240000Y-82798072D01*
X129604250Y-82795000D01*
X129763000Y-82636250D01*
X129763000Y-81537000D01*
X130017000Y-81537000D01*
X130017000Y-82636250D01*
X130175750Y-82795000D01*
X130540000Y-82798072D01*
X130664482Y-82785812D01*
X130784180Y-82749502D01*
X130894494Y-82690537D01*
X130991185Y-82611185D01*
X131070537Y-82514494D01*
X131129502Y-82404180D01*
X131165812Y-82284482D01*
X131178072Y-82160000D01*
X131175000Y-81695750D01*
X131016250Y-81537000D01*
X130017000Y-81537000D01*
X129763000Y-81537000D01*
X128763750Y-81537000D01*
X128605000Y-81695750D01*
X128601928Y-82160000D01*
X119699082Y-82160000D01*
X119670690Y-82017266D01*
X119585734Y-81812165D01*
X119462398Y-81627579D01*
X119439000Y-81604181D01*
X119439000Y-81424513D01*
X119569557Y-81384910D01*
X119695853Y-81317403D01*
X119730000Y-81289380D01*
X119764147Y-81317403D01*
X119890443Y-81384910D01*
X120027483Y-81426480D01*
X120170000Y-81440517D01*
X121670000Y-81440517D01*
X121812517Y-81426480D01*
X121949557Y-81384910D01*
X122075853Y-81317403D01*
X122186554Y-81226554D01*
X122270000Y-81124874D01*
X122353446Y-81226554D01*
X122464147Y-81317403D01*
X122590443Y-81384910D01*
X122727483Y-81426480D01*
X122870000Y-81440517D01*
X124370000Y-81440517D01*
X124512517Y-81426480D01*
X124649557Y-81384910D01*
X124775853Y-81317403D01*
X124886554Y-81226554D01*
X124977403Y-81115853D01*
X125044910Y-80989557D01*
X125086480Y-80852517D01*
X125100517Y-80710000D01*
X125100517Y-79410000D01*
X125086480Y-79267483D01*
X125044910Y-79130443D01*
X124977403Y-79004147D01*
X124886554Y-78893446D01*
X124775853Y-78802597D01*
X124697000Y-78760449D01*
X124697000Y-77581000D01*
X128618244Y-77581000D01*
X128565090Y-77680443D01*
M02*
