G04 #@! TF.GenerationSoftware,KiCad,Pcbnew,(5.1.0)-1*
G04 #@! TF.CreationDate,2019-04-28T18:18:51+02:00*
G04 #@! TF.ProjectId,LampeSolaire,4c616d70-6553-46f6-9c61-6972652e6b69,5*
G04 #@! TF.SameCoordinates,Original*
G04 #@! TF.FileFunction,Legend,Bot*
G04 #@! TF.FilePolarity,Positive*
%FSLAX46Y46*%
G04 Gerber Fmt 4.6, Leading zero omitted, Abs format (unit mm)*
G04 Created by KiCad (PCBNEW (5.1.0)-1) date 2019-04-28 18:18:51*
%MOMM*%
%LPD*%
G04 APERTURE LIST*
%ADD10C,0.300000*%
%ADD11C,0.120000*%
%ADD12C,0.150000*%
G04 APERTURE END LIST*
D10*
X127355714Y-98398571D02*
X128070000Y-98398571D01*
X128070000Y-96898571D01*
X126212857Y-98398571D02*
X126212857Y-97612857D01*
X126284285Y-97470000D01*
X126427142Y-97398571D01*
X126712857Y-97398571D01*
X126855714Y-97470000D01*
X126212857Y-98327142D02*
X126355714Y-98398571D01*
X126712857Y-98398571D01*
X126855714Y-98327142D01*
X126927142Y-98184285D01*
X126927142Y-98041428D01*
X126855714Y-97898571D01*
X126712857Y-97827142D01*
X126355714Y-97827142D01*
X126212857Y-97755714D01*
X125498571Y-98398571D02*
X125498571Y-97398571D01*
X125498571Y-97541428D02*
X125427142Y-97470000D01*
X125284285Y-97398571D01*
X125070000Y-97398571D01*
X124927142Y-97470000D01*
X124855714Y-97612857D01*
X124855714Y-98398571D01*
X124855714Y-97612857D02*
X124784285Y-97470000D01*
X124641428Y-97398571D01*
X124427142Y-97398571D01*
X124284285Y-97470000D01*
X124212857Y-97612857D01*
X124212857Y-98398571D01*
X123498571Y-97398571D02*
X123498571Y-98898571D01*
X123498571Y-97470000D02*
X123355714Y-97398571D01*
X123070000Y-97398571D01*
X122927142Y-97470000D01*
X122855714Y-97541428D01*
X122784285Y-97684285D01*
X122784285Y-98112857D01*
X122855714Y-98255714D01*
X122927142Y-98327142D01*
X123070000Y-98398571D01*
X123355714Y-98398571D01*
X123498571Y-98327142D01*
X121570000Y-98327142D02*
X121712857Y-98398571D01*
X121998571Y-98398571D01*
X122141428Y-98327142D01*
X122212857Y-98184285D01*
X122212857Y-97612857D01*
X122141428Y-97470000D01*
X121998571Y-97398571D01*
X121712857Y-97398571D01*
X121570000Y-97470000D01*
X121498571Y-97612857D01*
X121498571Y-97755714D01*
X122212857Y-97898571D01*
X119784285Y-98327142D02*
X119570000Y-98398571D01*
X119212857Y-98398571D01*
X119070000Y-98327142D01*
X118998571Y-98255714D01*
X118927142Y-98112857D01*
X118927142Y-97970000D01*
X118998571Y-97827142D01*
X119070000Y-97755714D01*
X119212857Y-97684285D01*
X119498571Y-97612857D01*
X119641428Y-97541428D01*
X119712857Y-97470000D01*
X119784285Y-97327142D01*
X119784285Y-97184285D01*
X119712857Y-97041428D01*
X119641428Y-96970000D01*
X119498571Y-96898571D01*
X119141428Y-96898571D01*
X118927142Y-96970000D01*
X118070000Y-98398571D02*
X118212857Y-98327142D01*
X118284285Y-98255714D01*
X118355714Y-98112857D01*
X118355714Y-97684285D01*
X118284285Y-97541428D01*
X118212857Y-97470000D01*
X118070000Y-97398571D01*
X117855714Y-97398571D01*
X117712857Y-97470000D01*
X117641428Y-97541428D01*
X117570000Y-97684285D01*
X117570000Y-98112857D01*
X117641428Y-98255714D01*
X117712857Y-98327142D01*
X117855714Y-98398571D01*
X118070000Y-98398571D01*
X116712857Y-98398571D02*
X116855714Y-98327142D01*
X116927142Y-98184285D01*
X116927142Y-96898571D01*
X115498571Y-98398571D02*
X115498571Y-97612857D01*
X115570000Y-97470000D01*
X115712857Y-97398571D01*
X115998571Y-97398571D01*
X116141428Y-97470000D01*
X115498571Y-98327142D02*
X115641428Y-98398571D01*
X115998571Y-98398571D01*
X116141428Y-98327142D01*
X116212857Y-98184285D01*
X116212857Y-98041428D01*
X116141428Y-97898571D01*
X115998571Y-97827142D01*
X115641428Y-97827142D01*
X115498571Y-97755714D01*
X114784285Y-98398571D02*
X114784285Y-97398571D01*
X114784285Y-96898571D02*
X114855714Y-96970000D01*
X114784285Y-97041428D01*
X114712857Y-96970000D01*
X114784285Y-96898571D01*
X114784285Y-97041428D01*
X114070000Y-98398571D02*
X114070000Y-97398571D01*
X114070000Y-97684285D02*
X113998571Y-97541428D01*
X113927142Y-97470000D01*
X113784285Y-97398571D01*
X113641428Y-97398571D01*
X112570000Y-98327142D02*
X112712857Y-98398571D01*
X112998571Y-98398571D01*
X113141428Y-98327142D01*
X113212857Y-98184285D01*
X113212857Y-97612857D01*
X113141428Y-97470000D01*
X112998571Y-97398571D01*
X112712857Y-97398571D01*
X112570000Y-97470000D01*
X112498571Y-97612857D01*
X112498571Y-97755714D01*
X113212857Y-97898571D01*
X128462857Y-99591428D02*
X128391428Y-99520000D01*
X128248571Y-99448571D01*
X127891428Y-99448571D01*
X127748571Y-99520000D01*
X127677142Y-99591428D01*
X127605714Y-99734285D01*
X127605714Y-99877142D01*
X127677142Y-100091428D01*
X128534285Y-100948571D01*
X127605714Y-100948571D01*
X126748571Y-100091428D02*
X126891428Y-100020000D01*
X126962857Y-99948571D01*
X127034285Y-99805714D01*
X127034285Y-99734285D01*
X126962857Y-99591428D01*
X126891428Y-99520000D01*
X126748571Y-99448571D01*
X126462857Y-99448571D01*
X126320000Y-99520000D01*
X126248571Y-99591428D01*
X126177142Y-99734285D01*
X126177142Y-99805714D01*
X126248571Y-99948571D01*
X126320000Y-100020000D01*
X126462857Y-100091428D01*
X126748571Y-100091428D01*
X126891428Y-100162857D01*
X126962857Y-100234285D01*
X127034285Y-100377142D01*
X127034285Y-100662857D01*
X126962857Y-100805714D01*
X126891428Y-100877142D01*
X126748571Y-100948571D01*
X126462857Y-100948571D01*
X126320000Y-100877142D01*
X126248571Y-100805714D01*
X126177142Y-100662857D01*
X126177142Y-100377142D01*
X126248571Y-100234285D01*
X126320000Y-100162857D01*
X126462857Y-100091428D01*
X125534285Y-100805714D02*
X125462857Y-100877142D01*
X125534285Y-100948571D01*
X125605714Y-100877142D01*
X125534285Y-100805714D01*
X125534285Y-100948571D01*
X124534285Y-99448571D02*
X124391428Y-99448571D01*
X124248571Y-99520000D01*
X124177142Y-99591428D01*
X124105714Y-99734285D01*
X124034285Y-100020000D01*
X124034285Y-100377142D01*
X124105714Y-100662857D01*
X124177142Y-100805714D01*
X124248571Y-100877142D01*
X124391428Y-100948571D01*
X124534285Y-100948571D01*
X124677142Y-100877142D01*
X124748571Y-100805714D01*
X124820000Y-100662857D01*
X124891428Y-100377142D01*
X124891428Y-100020000D01*
X124820000Y-99734285D01*
X124748571Y-99591428D01*
X124677142Y-99520000D01*
X124534285Y-99448571D01*
X122748571Y-99948571D02*
X122748571Y-100948571D01*
X123105714Y-99377142D02*
X123462857Y-100448571D01*
X122534285Y-100448571D01*
X121962857Y-100805714D02*
X121891428Y-100877142D01*
X121962857Y-100948571D01*
X122034285Y-100877142D01*
X121962857Y-100805714D01*
X121962857Y-100948571D01*
X120462857Y-100948571D02*
X121320000Y-100948571D01*
X120891428Y-100948571D02*
X120891428Y-99448571D01*
X121034285Y-99662857D01*
X121177142Y-99805714D01*
X121320000Y-99877142D01*
X119748571Y-100948571D02*
X119462857Y-100948571D01*
X119320000Y-100877142D01*
X119248571Y-100805714D01*
X119105714Y-100591428D01*
X119034285Y-100305714D01*
X119034285Y-99734285D01*
X119105714Y-99591428D01*
X119177142Y-99520000D01*
X119320000Y-99448571D01*
X119605714Y-99448571D01*
X119748571Y-99520000D01*
X119820000Y-99591428D01*
X119891428Y-99734285D01*
X119891428Y-100091428D01*
X119820000Y-100234285D01*
X119748571Y-100305714D01*
X119605714Y-100377142D01*
X119320000Y-100377142D01*
X119177142Y-100305714D01*
X119105714Y-100234285D01*
X119034285Y-100091428D01*
X117248571Y-100377142D02*
X116105714Y-100377142D01*
X114462857Y-99448571D02*
X113962857Y-100948571D01*
X113462857Y-99448571D01*
X112248571Y-99448571D02*
X112962857Y-99448571D01*
X113034285Y-100162857D01*
X112962857Y-100091428D01*
X112820000Y-100020000D01*
X112462857Y-100020000D01*
X112320000Y-100091428D01*
X112248571Y-100162857D01*
X112177142Y-100305714D01*
X112177142Y-100662857D01*
X112248571Y-100805714D01*
X112320000Y-100877142D01*
X112462857Y-100948571D01*
X112820000Y-100948571D01*
X112962857Y-100877142D01*
X113034285Y-100805714D01*
X124891428Y-102712857D02*
X124391428Y-102712857D01*
X124177142Y-103498571D02*
X124891428Y-103498571D01*
X124891428Y-101998571D01*
X124177142Y-101998571D01*
X123605714Y-103427142D02*
X123462857Y-103498571D01*
X123177142Y-103498571D01*
X123034285Y-103427142D01*
X122962857Y-103284285D01*
X122962857Y-103212857D01*
X123034285Y-103070000D01*
X123177142Y-102998571D01*
X123391428Y-102998571D01*
X123534285Y-102927142D01*
X123605714Y-102784285D01*
X123605714Y-102712857D01*
X123534285Y-102570000D01*
X123391428Y-102498571D01*
X123177142Y-102498571D01*
X123034285Y-102570000D01*
X122391428Y-103427142D02*
X122248571Y-103498571D01*
X121962857Y-103498571D01*
X121820000Y-103427142D01*
X121748571Y-103284285D01*
X121748571Y-103212857D01*
X121820000Y-103070000D01*
X121962857Y-102998571D01*
X122177142Y-102998571D01*
X122320000Y-102927142D01*
X122391428Y-102784285D01*
X122391428Y-102712857D01*
X122320000Y-102570000D01*
X122177142Y-102498571D01*
X121962857Y-102498571D01*
X121820000Y-102570000D01*
X120534285Y-103427142D02*
X120677142Y-103498571D01*
X120962857Y-103498571D01*
X121105714Y-103427142D01*
X121177142Y-103284285D01*
X121177142Y-102712857D01*
X121105714Y-102570000D01*
X120962857Y-102498571D01*
X120677142Y-102498571D01*
X120534285Y-102570000D01*
X120462857Y-102712857D01*
X120462857Y-102855714D01*
X121177142Y-102998571D01*
X119820000Y-103498571D02*
X119820000Y-102498571D01*
X119820000Y-101998571D02*
X119891428Y-102070000D01*
X119820000Y-102141428D01*
X119748571Y-102070000D01*
X119820000Y-101998571D01*
X119820000Y-102141428D01*
X119248571Y-102498571D02*
X118891428Y-103498571D01*
X118534285Y-102498571D01*
X117320000Y-103498571D02*
X117320000Y-102712857D01*
X117391428Y-102570000D01*
X117534285Y-102498571D01*
X117820000Y-102498571D01*
X117962857Y-102570000D01*
X117320000Y-103427142D02*
X117462857Y-103498571D01*
X117820000Y-103498571D01*
X117962857Y-103427142D01*
X118034285Y-103284285D01*
X118034285Y-103141428D01*
X117962857Y-102998571D01*
X117820000Y-102927142D01*
X117462857Y-102927142D01*
X117320000Y-102855714D01*
X116605714Y-103498571D02*
X116605714Y-101998571D01*
X115748571Y-103498571D01*
X115748571Y-101998571D01*
D11*
X99490000Y-56510000D02*
X98030000Y-56510000D01*
X99490000Y-59670000D02*
X96330000Y-59670000D01*
X99490000Y-59670000D02*
X99490000Y-58740000D01*
X99490000Y-56510000D02*
X99490000Y-57440000D01*
X111900000Y-51410000D02*
X114200000Y-51410000D01*
X113500000Y-54610000D02*
X111900000Y-54610000D01*
X114200000Y-51410000D02*
X114700000Y-50810000D01*
X102850000Y-52500000D02*
X102850000Y-51040000D01*
X99690000Y-52500000D02*
X99690000Y-49340000D01*
X99690000Y-52500000D02*
X100620000Y-52500000D01*
X102850000Y-52500000D02*
X101920000Y-52500000D01*
X79370000Y-111940000D02*
X79370000Y-113400000D01*
X82530000Y-111940000D02*
X82530000Y-115100000D01*
X82530000Y-111940000D02*
X81600000Y-111940000D01*
X79370000Y-111940000D02*
X80300000Y-111940000D01*
X76630000Y-109850000D02*
X75170000Y-109850000D01*
X76630000Y-113010000D02*
X73470000Y-113010000D01*
X76630000Y-113010000D02*
X76630000Y-112080000D01*
X76630000Y-109850000D02*
X76630000Y-110780000D01*
X120830000Y-52050000D02*
X122290000Y-52050000D01*
X120830000Y-48890000D02*
X123990000Y-48890000D01*
X120830000Y-48890000D02*
X120830000Y-49820000D01*
X120830000Y-52050000D02*
X120830000Y-51120000D01*
X121320000Y-59110000D02*
X119320000Y-59110000D01*
X119320000Y-57070000D02*
X121320000Y-57070000D01*
X72330000Y-74850000D02*
X74330000Y-74850000D01*
X74330000Y-76890000D02*
X72330000Y-76890000D01*
X90110000Y-65960000D02*
X92110000Y-65960000D01*
X92110000Y-68000000D02*
X90110000Y-68000000D01*
X76540000Y-51350000D02*
X77740000Y-51350000D01*
X77740000Y-49590000D02*
X76540000Y-49590000D01*
X95520000Y-52130000D02*
X94320000Y-52130000D01*
X94320000Y-53890000D02*
X95520000Y-53890000D01*
X104400000Y-56430000D02*
X105600000Y-56430000D01*
X105600000Y-54670000D02*
X104400000Y-54670000D01*
X99120000Y-79000000D02*
X99120000Y-80200000D01*
X100880000Y-80200000D02*
X100880000Y-79000000D01*
X73930000Y-83880000D02*
X72730000Y-83880000D01*
X72730000Y-85640000D02*
X73930000Y-85640000D01*
X90430000Y-65320000D02*
X91630000Y-65320000D01*
X91630000Y-63560000D02*
X90430000Y-63560000D01*
X100830000Y-91990000D02*
X102030000Y-91990000D01*
X102030000Y-90230000D02*
X100830000Y-90230000D01*
X68640000Y-70190000D02*
X68640000Y-71390000D01*
X70400000Y-71390000D02*
X70400000Y-70190000D01*
X89348000Y-115040000D02*
X91348000Y-115040000D01*
X91348000Y-112900000D02*
X89348000Y-112900000D01*
X98238000Y-115040000D02*
X100238000Y-115040000D01*
X100238000Y-112900000D02*
X98238000Y-112900000D01*
X104410000Y-66100000D02*
X103210000Y-66100000D01*
X103210000Y-67860000D02*
X104410000Y-67860000D01*
X89570000Y-51940000D02*
X87570000Y-51940000D01*
X87570000Y-54080000D02*
X89570000Y-54080000D01*
D12*
X95681904Y-57812380D02*
X95681904Y-58621904D01*
X95634285Y-58717142D01*
X95586666Y-58764761D01*
X95491428Y-58812380D01*
X95300952Y-58812380D01*
X95205714Y-58764761D01*
X95158095Y-58717142D01*
X95110476Y-58621904D01*
X95110476Y-57812380D01*
X94681904Y-57907619D02*
X94634285Y-57860000D01*
X94539047Y-57812380D01*
X94300952Y-57812380D01*
X94205714Y-57860000D01*
X94158095Y-57907619D01*
X94110476Y-58002857D01*
X94110476Y-58098095D01*
X94158095Y-58240952D01*
X94729523Y-58812380D01*
X94110476Y-58812380D01*
X113461904Y-50192380D02*
X113461904Y-51001904D01*
X113414285Y-51097142D01*
X113366666Y-51144761D01*
X113271428Y-51192380D01*
X113080952Y-51192380D01*
X112985714Y-51144761D01*
X112938095Y-51097142D01*
X112890476Y-51001904D01*
X112890476Y-50192380D01*
X112509523Y-50192380D02*
X111890476Y-50192380D01*
X112223809Y-50573333D01*
X112080952Y-50573333D01*
X111985714Y-50620952D01*
X111938095Y-50668571D01*
X111890476Y-50763809D01*
X111890476Y-51001904D01*
X111938095Y-51097142D01*
X111985714Y-51144761D01*
X112080952Y-51192380D01*
X112366666Y-51192380D01*
X112461904Y-51144761D01*
X112509523Y-51097142D01*
X102031904Y-47763380D02*
X101460476Y-47763380D01*
X101746190Y-48763380D02*
X101746190Y-47763380D01*
X101222380Y-47763380D02*
X100603333Y-47763380D01*
X100936666Y-48144333D01*
X100793809Y-48144333D01*
X100698571Y-48191952D01*
X100650952Y-48239571D01*
X100603333Y-48334809D01*
X100603333Y-48572904D01*
X100650952Y-48668142D01*
X100698571Y-48715761D01*
X100793809Y-48763380D01*
X101079523Y-48763380D01*
X101174761Y-48715761D01*
X101222380Y-48668142D01*
X81711904Y-115581380D02*
X81140476Y-115581380D01*
X81426190Y-116581380D02*
X81426190Y-115581380D01*
X80378571Y-115914714D02*
X80378571Y-116581380D01*
X80616666Y-115533761D02*
X80854761Y-116248047D01*
X80235714Y-116248047D01*
X72988619Y-112191904D02*
X72988619Y-111620476D01*
X71988619Y-111906190D02*
X72988619Y-111906190D01*
X72988619Y-110810952D02*
X72988619Y-111287142D01*
X72512428Y-111334761D01*
X72560047Y-111287142D01*
X72607666Y-111191904D01*
X72607666Y-110953809D01*
X72560047Y-110858571D01*
X72512428Y-110810952D01*
X72417190Y-110763333D01*
X72179095Y-110763333D01*
X72083857Y-110810952D01*
X72036238Y-110858571D01*
X71988619Y-110953809D01*
X71988619Y-111191904D01*
X72036238Y-111287142D01*
X72083857Y-111334761D01*
X122351904Y-52732380D02*
X121780476Y-52732380D01*
X122066190Y-53732380D02*
X122066190Y-52732380D01*
X121494761Y-52827619D02*
X121447142Y-52780000D01*
X121351904Y-52732380D01*
X121113809Y-52732380D01*
X121018571Y-52780000D01*
X120970952Y-52827619D01*
X120923333Y-52922857D01*
X120923333Y-53018095D01*
X120970952Y-53160952D01*
X121542380Y-53732380D01*
X120923333Y-53732380D01*
X120232666Y-56431142D02*
X120280285Y-56478761D01*
X120423142Y-56526380D01*
X120518380Y-56526380D01*
X120661238Y-56478761D01*
X120756476Y-56383523D01*
X120804095Y-56288285D01*
X120851714Y-56097809D01*
X120851714Y-55954952D01*
X120804095Y-55764476D01*
X120756476Y-55669238D01*
X120661238Y-55574000D01*
X120518380Y-55526380D01*
X120423142Y-55526380D01*
X120280285Y-55574000D01*
X120232666Y-55621619D01*
X119375523Y-55859714D02*
X119375523Y-56526380D01*
X119613619Y-55478761D02*
X119851714Y-56193047D01*
X119232666Y-56193047D01*
X73496666Y-74477142D02*
X73544285Y-74524761D01*
X73687142Y-74572380D01*
X73782380Y-74572380D01*
X73925238Y-74524761D01*
X74020476Y-74429523D01*
X74068095Y-74334285D01*
X74115714Y-74143809D01*
X74115714Y-74000952D01*
X74068095Y-73810476D01*
X74020476Y-73715238D01*
X73925238Y-73620000D01*
X73782380Y-73572380D01*
X73687142Y-73572380D01*
X73544285Y-73620000D01*
X73496666Y-73667619D01*
X72639523Y-73572380D02*
X72830000Y-73572380D01*
X72925238Y-73620000D01*
X72972857Y-73667619D01*
X73068095Y-73810476D01*
X73115714Y-74000952D01*
X73115714Y-74381904D01*
X73068095Y-74477142D01*
X73020476Y-74524761D01*
X72925238Y-74572380D01*
X72734761Y-74572380D01*
X72639523Y-74524761D01*
X72591904Y-74477142D01*
X72544285Y-74381904D01*
X72544285Y-74143809D01*
X72591904Y-74048571D01*
X72639523Y-74000952D01*
X72734761Y-73953333D01*
X72925238Y-73953333D01*
X73020476Y-74000952D01*
X73068095Y-74048571D01*
X73115714Y-74143809D01*
X91276666Y-63162142D02*
X91324285Y-63209761D01*
X91467142Y-63257380D01*
X91562380Y-63257380D01*
X91705238Y-63209761D01*
X91800476Y-63114523D01*
X91848095Y-63019285D01*
X91895714Y-62828809D01*
X91895714Y-62685952D01*
X91848095Y-62495476D01*
X91800476Y-62400238D01*
X91705238Y-62305000D01*
X91562380Y-62257380D01*
X91467142Y-62257380D01*
X91324285Y-62305000D01*
X91276666Y-62352619D01*
X90705238Y-62685952D02*
X90800476Y-62638333D01*
X90848095Y-62590714D01*
X90895714Y-62495476D01*
X90895714Y-62447857D01*
X90848095Y-62352619D01*
X90800476Y-62305000D01*
X90705238Y-62257380D01*
X90514761Y-62257380D01*
X90419523Y-62305000D01*
X90371904Y-62352619D01*
X90324285Y-62447857D01*
X90324285Y-62495476D01*
X90371904Y-62590714D01*
X90419523Y-62638333D01*
X90514761Y-62685952D01*
X90705238Y-62685952D01*
X90800476Y-62733571D01*
X90848095Y-62781190D01*
X90895714Y-62876428D01*
X90895714Y-63066904D01*
X90848095Y-63162142D01*
X90800476Y-63209761D01*
X90705238Y-63257380D01*
X90514761Y-63257380D01*
X90419523Y-63209761D01*
X90371904Y-63162142D01*
X90324285Y-63066904D01*
X90324285Y-62876428D01*
X90371904Y-62781190D01*
X90419523Y-62733571D01*
X90514761Y-62685952D01*
X77306666Y-49287380D02*
X77640000Y-48811190D01*
X77878095Y-49287380D02*
X77878095Y-48287380D01*
X77497142Y-48287380D01*
X77401904Y-48335000D01*
X77354285Y-48382619D01*
X77306666Y-48477857D01*
X77306666Y-48620714D01*
X77354285Y-48715952D01*
X77401904Y-48763571D01*
X77497142Y-48811190D01*
X77878095Y-48811190D01*
X76354285Y-49287380D02*
X76925714Y-49287380D01*
X76640000Y-49287380D02*
X76640000Y-48287380D01*
X76735238Y-48430238D01*
X76830476Y-48525476D01*
X76925714Y-48573095D01*
X95086666Y-51762380D02*
X95420000Y-51286190D01*
X95658095Y-51762380D02*
X95658095Y-50762380D01*
X95277142Y-50762380D01*
X95181904Y-50810000D01*
X95134285Y-50857619D01*
X95086666Y-50952857D01*
X95086666Y-51095714D01*
X95134285Y-51190952D01*
X95181904Y-51238571D01*
X95277142Y-51286190D01*
X95658095Y-51286190D01*
X94753333Y-50762380D02*
X94134285Y-50762380D01*
X94467619Y-51143333D01*
X94324761Y-51143333D01*
X94229523Y-51190952D01*
X94181904Y-51238571D01*
X94134285Y-51333809D01*
X94134285Y-51571904D01*
X94181904Y-51667142D01*
X94229523Y-51714761D01*
X94324761Y-51762380D01*
X94610476Y-51762380D01*
X94705714Y-51714761D01*
X94753333Y-51667142D01*
X105166666Y-57702380D02*
X105500000Y-57226190D01*
X105738095Y-57702380D02*
X105738095Y-56702380D01*
X105357142Y-56702380D01*
X105261904Y-56750000D01*
X105214285Y-56797619D01*
X105166666Y-56892857D01*
X105166666Y-57035714D01*
X105214285Y-57130952D01*
X105261904Y-57178571D01*
X105357142Y-57226190D01*
X105738095Y-57226190D01*
X104309523Y-57035714D02*
X104309523Y-57702380D01*
X104547619Y-56654761D02*
X104785714Y-57369047D01*
X104166666Y-57369047D01*
X98752380Y-79433333D02*
X98276190Y-79100000D01*
X98752380Y-78861904D02*
X97752380Y-78861904D01*
X97752380Y-79242857D01*
X97800000Y-79338095D01*
X97847619Y-79385714D01*
X97942857Y-79433333D01*
X98085714Y-79433333D01*
X98180952Y-79385714D01*
X98228571Y-79338095D01*
X98276190Y-79242857D01*
X98276190Y-78861904D01*
X97752380Y-80338095D02*
X97752380Y-79861904D01*
X98228571Y-79814285D01*
X98180952Y-79861904D01*
X98133333Y-79957142D01*
X98133333Y-80195238D01*
X98180952Y-80290476D01*
X98228571Y-80338095D01*
X98323809Y-80385714D01*
X98561904Y-80385714D01*
X98657142Y-80338095D01*
X98704761Y-80290476D01*
X98752380Y-80195238D01*
X98752380Y-79957142D01*
X98704761Y-79861904D01*
X98657142Y-79814285D01*
X73496666Y-83512380D02*
X73830000Y-83036190D01*
X74068095Y-83512380D02*
X74068095Y-82512380D01*
X73687142Y-82512380D01*
X73591904Y-82560000D01*
X73544285Y-82607619D01*
X73496666Y-82702857D01*
X73496666Y-82845714D01*
X73544285Y-82940952D01*
X73591904Y-82988571D01*
X73687142Y-83036190D01*
X74068095Y-83036190D01*
X72639523Y-82512380D02*
X72830000Y-82512380D01*
X72925238Y-82560000D01*
X72972857Y-82607619D01*
X73068095Y-82750476D01*
X73115714Y-82940952D01*
X73115714Y-83321904D01*
X73068095Y-83417142D01*
X73020476Y-83464761D01*
X72925238Y-83512380D01*
X72734761Y-83512380D01*
X72639523Y-83464761D01*
X72591904Y-83417142D01*
X72544285Y-83321904D01*
X72544285Y-83083809D01*
X72591904Y-82988571D01*
X72639523Y-82940952D01*
X72734761Y-82893333D01*
X72925238Y-82893333D01*
X73020476Y-82940952D01*
X73068095Y-82988571D01*
X73115714Y-83083809D01*
X90641666Y-69607380D02*
X90975000Y-69131190D01*
X91213095Y-69607380D02*
X91213095Y-68607380D01*
X90832142Y-68607380D01*
X90736904Y-68655000D01*
X90689285Y-68702619D01*
X90641666Y-68797857D01*
X90641666Y-68940714D01*
X90689285Y-69035952D01*
X90736904Y-69083571D01*
X90832142Y-69131190D01*
X91213095Y-69131190D01*
X90308333Y-68607380D02*
X89641666Y-68607380D01*
X90070238Y-69607380D01*
X101596666Y-93262380D02*
X101930000Y-92786190D01*
X102168095Y-93262380D02*
X102168095Y-92262380D01*
X101787142Y-92262380D01*
X101691904Y-92310000D01*
X101644285Y-92357619D01*
X101596666Y-92452857D01*
X101596666Y-92595714D01*
X101644285Y-92690952D01*
X101691904Y-92738571D01*
X101787142Y-92786190D01*
X102168095Y-92786190D01*
X101025238Y-92690952D02*
X101120476Y-92643333D01*
X101168095Y-92595714D01*
X101215714Y-92500476D01*
X101215714Y-92452857D01*
X101168095Y-92357619D01*
X101120476Y-92310000D01*
X101025238Y-92262380D01*
X100834761Y-92262380D01*
X100739523Y-92310000D01*
X100691904Y-92357619D01*
X100644285Y-92452857D01*
X100644285Y-92500476D01*
X100691904Y-92595714D01*
X100739523Y-92643333D01*
X100834761Y-92690952D01*
X101025238Y-92690952D01*
X101120476Y-92738571D01*
X101168095Y-92786190D01*
X101215714Y-92881428D01*
X101215714Y-93071904D01*
X101168095Y-93167142D01*
X101120476Y-93214761D01*
X101025238Y-93262380D01*
X100834761Y-93262380D01*
X100739523Y-93214761D01*
X100691904Y-93167142D01*
X100644285Y-93071904D01*
X100644285Y-92881428D01*
X100691904Y-92786190D01*
X100739523Y-92738571D01*
X100834761Y-92690952D01*
X72702857Y-70877380D02*
X73036190Y-70401190D01*
X73274285Y-70877380D02*
X73274285Y-69877380D01*
X72893333Y-69877380D01*
X72798095Y-69925000D01*
X72750476Y-69972619D01*
X72702857Y-70067857D01*
X72702857Y-70210714D01*
X72750476Y-70305952D01*
X72798095Y-70353571D01*
X72893333Y-70401190D01*
X73274285Y-70401190D01*
X71750476Y-70877380D02*
X72321904Y-70877380D01*
X72036190Y-70877380D02*
X72036190Y-69877380D01*
X72131428Y-70020238D01*
X72226666Y-70115476D01*
X72321904Y-70163095D01*
X71131428Y-69877380D02*
X71036190Y-69877380D01*
X70940952Y-69925000D01*
X70893333Y-69972619D01*
X70845714Y-70067857D01*
X70798095Y-70258333D01*
X70798095Y-70496428D01*
X70845714Y-70686904D01*
X70893333Y-70782142D01*
X70940952Y-70829761D01*
X71036190Y-70877380D01*
X71131428Y-70877380D01*
X71226666Y-70829761D01*
X71274285Y-70782142D01*
X71321904Y-70686904D01*
X71369523Y-70496428D01*
X71369523Y-70258333D01*
X71321904Y-70067857D01*
X71274285Y-69972619D01*
X71226666Y-69925000D01*
X71131428Y-69877380D01*
X90990857Y-112572380D02*
X91324190Y-112096190D01*
X91562285Y-112572380D02*
X91562285Y-111572380D01*
X91181333Y-111572380D01*
X91086095Y-111620000D01*
X91038476Y-111667619D01*
X90990857Y-111762857D01*
X90990857Y-111905714D01*
X91038476Y-112000952D01*
X91086095Y-112048571D01*
X91181333Y-112096190D01*
X91562285Y-112096190D01*
X90038476Y-112572380D02*
X90609904Y-112572380D01*
X90324190Y-112572380D02*
X90324190Y-111572380D01*
X90419428Y-111715238D01*
X90514666Y-111810476D01*
X90609904Y-111858095D01*
X89086095Y-112572380D02*
X89657523Y-112572380D01*
X89371809Y-112572380D02*
X89371809Y-111572380D01*
X89467047Y-111715238D01*
X89562285Y-111810476D01*
X89657523Y-111858095D01*
X99880857Y-112572380D02*
X100214190Y-112096190D01*
X100452285Y-112572380D02*
X100452285Y-111572380D01*
X100071333Y-111572380D01*
X99976095Y-111620000D01*
X99928476Y-111667619D01*
X99880857Y-111762857D01*
X99880857Y-111905714D01*
X99928476Y-112000952D01*
X99976095Y-112048571D01*
X100071333Y-112096190D01*
X100452285Y-112096190D01*
X98928476Y-112572380D02*
X99499904Y-112572380D01*
X99214190Y-112572380D02*
X99214190Y-111572380D01*
X99309428Y-111715238D01*
X99404666Y-111810476D01*
X99499904Y-111858095D01*
X98595142Y-111572380D02*
X97976095Y-111572380D01*
X98309428Y-111953333D01*
X98166571Y-111953333D01*
X98071333Y-112000952D01*
X98023714Y-112048571D01*
X97976095Y-112143809D01*
X97976095Y-112381904D01*
X98023714Y-112477142D01*
X98071333Y-112524761D01*
X98166571Y-112572380D01*
X98452285Y-112572380D01*
X98547523Y-112524761D01*
X98595142Y-112477142D01*
X103976666Y-65732380D02*
X104310000Y-65256190D01*
X104548095Y-65732380D02*
X104548095Y-64732380D01*
X104167142Y-64732380D01*
X104071904Y-64780000D01*
X104024285Y-64827619D01*
X103976666Y-64922857D01*
X103976666Y-65065714D01*
X104024285Y-65160952D01*
X104071904Y-65208571D01*
X104167142Y-65256190D01*
X104548095Y-65256190D01*
X103500476Y-65732380D02*
X103310000Y-65732380D01*
X103214761Y-65684761D01*
X103167142Y-65637142D01*
X103071904Y-65494285D01*
X103024285Y-65303809D01*
X103024285Y-64922857D01*
X103071904Y-64827619D01*
X103119523Y-64780000D01*
X103214761Y-64732380D01*
X103405238Y-64732380D01*
X103500476Y-64780000D01*
X103548095Y-64827619D01*
X103595714Y-64922857D01*
X103595714Y-65160952D01*
X103548095Y-65256190D01*
X103500476Y-65303809D01*
X103405238Y-65351428D01*
X103214761Y-65351428D01*
X103119523Y-65303809D01*
X103071904Y-65256190D01*
X103024285Y-65160952D01*
X88953333Y-50738571D02*
X89286666Y-50738571D01*
X89286666Y-51262380D02*
X89286666Y-50262380D01*
X88810476Y-50262380D01*
X87905714Y-51262380D02*
X88477142Y-51262380D01*
X88191428Y-51262380D02*
X88191428Y-50262380D01*
X88286666Y-50405238D01*
X88381904Y-50500476D01*
X88477142Y-50548095D01*
M02*
