M48
; DRILL file {KiCad (5.1.0)-1} date 24.06.2019 21:59:04
; FORMAT={-:-/ absolute / metric / decimal}
; #@! TF.CreationDate,2019-06-24T21:59:04+02:00
; #@! TF.GenerationSoftware,Kicad,Pcbnew,(5.1.0)-1
; #@! TF.FileFunction,Plated,1,2,PTH
FMAT,2
METRIC
T1C0.400
T2C0.600
T3C1.000
T4C1.100
%
G90
G05
T1
X54.915Y-70.79
X54.915Y-79.68
X54.915Y-82.22
X54.915Y-90.602
X55.677Y-77.14
X55.677Y-89.84
X56.566Y-74.6
X56.566Y-79.68
X57.455Y-72.06
X57.455Y-77.14
X62.154Y-72.06
X62.154Y-88.316
X62.916Y-63.17
X62.916Y-74.6
X62.916Y-84.76
X62.916Y-87.554
X63.932Y-72.822
X63.932Y-77.14
X64.694Y-79.68
X64.694Y-86.665
X64.948Y-77.902
X65.628Y-65.963
X65.71Y-75.87
X65.71Y-84.76
X66.472Y-70.028
X66.472Y-76.759
X66.472Y-77.902
X66.472Y-82.22
X67.234Y-69.266
X67.234Y-78.664
X67.234Y-80.188
X67.234Y-89.84
X67.996Y-70.79
X67.996Y-80.95
X70.536Y-63.17
X71.536Y-71.806
X71.552Y-78.41
X71.996Y-86.665
X72.06Y-72.822
X74.6Y-65.964
X74.6Y-71.806
X74.6Y-78.41
X76.632Y-84.76
X77.013Y-67.488
X79.045Y-77.521
X79.934Y-56.312
X79.934Y-80.442
X79.934Y-88.316
X80.696Y-79.68
X80.696Y-87.554
X80.95Y-107.62
X81.63Y-68.503
X81.631Y-71.806
X82.22Y-77.156
X82.22Y-87.635
X82.982Y-75.616
X82.982Y-84.76
X83.426Y-95.19
X83.49Y-107.62
X83.998Y-70.79
X83.998Y-74.6
X84.887Y-69.266
X84.887Y-75.362
X85.776Y-76.124
X85.776Y-81.966
X85.776Y-90.602
X86.527Y-69.277
X86.538Y-80.95
X87.046Y-107.62
X89.078Y-69.266
X91.735Y-69.012
X91.735Y-71.806
X91.745Y-80.95
X95.46Y-72.854
X95.46Y-87.667
X95.46Y-94.19
X97.46Y-62.678
X97.46Y-72.822
X97.46Y-76.124
X97.46Y-79.68
X99.746Y-94.158
X100.0Y-66.98
X100.0Y-72.822
X100.0Y-74.6
X100.0Y-84.76
X100.0Y-86.538
X100.254Y-47.438
X100.254Y-55.566
X102.413Y-61.662
X102.54Y-72.822
X102.54Y-74.6
X102.54Y-82.982
X102.54Y-86.538
X105.08Y-72.822
X105.08Y-80.95
X105.08Y-93.015
X107.588Y-94.19
X112.7Y-49.2
X113.97Y-61.662
X116.002Y-54.026
T2
X71.425Y-56.058
X74.092Y-53.264
X76.1Y-93.19
X80.95Y-58.09
X80.95Y-100.0
X84.76Y-56.09
X87.3Y-50.47
X87.427Y-60.392
X88.951Y-94.92
X98.73Y-49.708
X98.73Y-55.55
X102.032Y-58.09
X103.81Y-54.042
X109.7Y-52.06
X114.732Y-55.55
X115.748Y-50.724
X116.51Y-60.392
X117.272Y-53.06
X119.354Y-53.06
X123.114Y-53.264
T3
X103.048Y-107.62
X105.588Y-100.0
X105.588Y-112.7
X95.428Y-107.62
X97.968Y-100.0
X97.968Y-112.7
X60.63Y-72.06
X60.63Y-74.6
X60.63Y-77.14
X60.63Y-79.68
X60.63Y-82.22
T4
X111.43Y-58.09
X113.97Y-58.09
X83.49Y-58.09
X86.03Y-58.09
X51.74Y-72.06
X51.74Y-74.6
X51.74Y-77.14
X51.74Y-79.68
X51.74Y-82.22
X51.74Y-84.76
X51.74Y-87.3
X125.99Y-54.66
X125.99Y-57.2
T0
M30
