M48
; DRILL file {KiCad (5.1.0)-1} date 28.04.2019 18:18:56
; FORMAT={-:-/ absolute / metric / decimal}
; #@! TF.CreationDate,2019-04-28T18:18:56+02:00
; #@! TF.GenerationSoftware,Kicad,Pcbnew,(5.1.0)-1
; #@! TF.FileFunction,Plated,1,2,PTH
FMAT,2
METRIC
T1C0.400
T2C0.600
T3C0.800
T4C0.900
T5C1.000
T6C1.100
%
G90
G05
T1
X61.9Y-117.272
X62.154Y-72.06
X62.154Y-88.316
X62.916Y-74.6
X62.916Y-87.554
X64.948Y-77.902
X65.71Y-75.87
X65.71Y-84.76
X65.71Y-116.256
X66.444Y-68.739
X66.472Y-76.632
X66.472Y-77.902
X66.472Y-82.22
X67.234Y-69.266
X67.234Y-78.664
X67.234Y-80.188
X67.234Y-89.84
X67.996Y-70.79
X67.996Y-80.95
X68.25Y-82.22
X68.25Y-89.078
X70.502Y-104.826
X70.536Y-90.856
X70.536Y-107.62
X70.536Y-112.446
X71.552Y-72.822
X76.124Y-84.76
X76.378Y-113.97
X78.664Y-90.856
X79.172Y-83.998
X79.2Y-81.185
X79.934Y-56.312
X79.934Y-80.442
X79.934Y-88.316
X80.696Y-79.68
X80.696Y-87.554
X81.458Y-77.648
X82.982Y-75.616
X82.982Y-84.76
X83.744Y-111.176
X83.998Y-70.79
X83.998Y-74.6
X84.887Y-69.266
X84.887Y-75.362
X85.776Y-76.124
X85.776Y-81.966
X86.284Y-69.266
X86.284Y-106.858
X86.284Y-111.176
X86.538Y-89.078
X89.078Y-69.266
X89.586Y-109.398
X93.65Y-77.902
X93.65Y-106.858
X97.46Y-72.822
X97.46Y-76.124
X98.476Y-109.398
X100.0Y-72.822
X100.0Y-74.6
X100.0Y-76.886
X100.0Y-84.76
X100.0Y-86.538
X100.254Y-47.438
X100.254Y-55.566
X102.54Y-72.822
X102.54Y-74.6
X102.54Y-83.998
X102.54Y-86.538
X105.08Y-72.822
X112.7Y-49.2
X116.002Y-54.026
T2
X60.63Y-106.35
X63.932Y-72.822
X63.932Y-77.14
X64.694Y-79.68
X64.694Y-86.665
X65.964Y-54.534
X66.726Y-58.09
X67.488Y-53.264
X68.25Y-116.256
X69.52Y-110.414
X69.52Y-116.256
X70.282Y-56.058
X71.552Y-78.41
X71.552Y-91.872
X71.552Y-104.826
X71.552Y-116.256
X71.996Y-86.665
X72.06Y-54.534
X72.822Y-101.778
X72.822Y-104.826
X73.838Y-106.35
X74.092Y-53.264
X74.854Y-99.492
X74.854Y-103.048
X74.981Y-71.806
X74.981Y-78.41
X80.442Y-68.491
X80.442Y-71.806
X80.95Y-58.09
X80.95Y-107.874
X83.744Y-97.206
X84.76Y-56.09
X85.014Y-106.35
X85.014Y-113.97
X86.03Y-97.206
X87.3Y-50.47
X87.3Y-60.63
X87.427Y-71.806
X88.316Y-103.048
X91.735Y-69.012
X91.735Y-71.806
X91.872Y-80.95
X91.872Y-91.872
X91.872Y-101.778
X95.46Y-72.854
X95.46Y-94.19
X97.206Y-99.492
X97.46Y-62.678
X98.222Y-80.95
X98.73Y-49.708
X98.73Y-55.55
X99.746Y-94.158
X99.746Y-107.874
X100.0Y-66.98
X102.032Y-58.09
X102.286Y-61.646
X103.81Y-54.042
X105.08Y-92.38
X109.7Y-52.06
X113.97Y-61.646
X114.732Y-55.55
X115.748Y-50.724
X117.272Y-53.06
X118.288Y-60.63
X119.354Y-53.06
X123.114Y-53.264
T3
X101.81Y-100.0
X103.81Y-100.0
X92.38Y-56.09
X92.38Y-58.09
X63.17Y-56.09
X63.17Y-58.09
T4
X80.95Y-50.47
X83.49Y-50.47
T5
X60.63Y-69.52
X60.63Y-72.06
X60.63Y-74.6
X60.63Y-77.14
X60.63Y-79.68
X60.63Y-82.22
T6
X111.43Y-58.09
X113.97Y-58.09
X125.99Y-54.66
X125.99Y-57.2
X83.49Y-58.09
X86.03Y-58.09
X69.52Y-58.09
X72.06Y-58.09
T0
M30
