G04 #@! TF.GenerationSoftware,KiCad,Pcbnew,(5.1.0)-1*
G04 #@! TF.CreationDate,2019-06-24T21:59:01+02:00*
G04 #@! TF.ProjectId,LampeSolaire,4c616d70-6553-46f6-9c61-6972652e6b69,6.2*
G04 #@! TF.SameCoordinates,Original*
G04 #@! TF.FileFunction,Legend,Top*
G04 #@! TF.FilePolarity,Positive*
%FSLAX46Y46*%
G04 Gerber Fmt 4.6, Leading zero omitted, Abs format (unit mm)*
G04 Created by KiCad (PCBNEW (5.1.0)-1) date 2019-06-24 21:59:01*
%MOMM*%
%LPD*%
G04 APERTURE LIST*
%ADD10C,0.150000*%
%ADD11C,0.300000*%
%ADD12C,0.120000*%
%ADD13C,0.304800*%
G04 APERTURE END LIST*
D10*
X59761904Y-55254761D02*
X59904761Y-55302380D01*
X60142857Y-55302380D01*
X60238095Y-55254761D01*
X60285714Y-55207142D01*
X60333333Y-55111904D01*
X60333333Y-55016666D01*
X60285714Y-54921428D01*
X60238095Y-54873809D01*
X60142857Y-54826190D01*
X59952380Y-54778571D01*
X59857142Y-54730952D01*
X59809523Y-54683333D01*
X59761904Y-54588095D01*
X59761904Y-54492857D01*
X59809523Y-54397619D01*
X59857142Y-54350000D01*
X59952380Y-54302380D01*
X60190476Y-54302380D01*
X60333333Y-54350000D01*
X60904761Y-55302380D02*
X60809523Y-55254761D01*
X60761904Y-55207142D01*
X60714285Y-55111904D01*
X60714285Y-54826190D01*
X60761904Y-54730952D01*
X60809523Y-54683333D01*
X60904761Y-54635714D01*
X61047619Y-54635714D01*
X61142857Y-54683333D01*
X61190476Y-54730952D01*
X61238095Y-54826190D01*
X61238095Y-55111904D01*
X61190476Y-55207142D01*
X61142857Y-55254761D01*
X61047619Y-55302380D01*
X60904761Y-55302380D01*
X61809523Y-55302380D02*
X61714285Y-55254761D01*
X61666666Y-55159523D01*
X61666666Y-54302380D01*
X62619047Y-55302380D02*
X62619047Y-54778571D01*
X62571428Y-54683333D01*
X62476190Y-54635714D01*
X62285714Y-54635714D01*
X62190476Y-54683333D01*
X62619047Y-55254761D02*
X62523809Y-55302380D01*
X62285714Y-55302380D01*
X62190476Y-55254761D01*
X62142857Y-55159523D01*
X62142857Y-55064285D01*
X62190476Y-54969047D01*
X62285714Y-54921428D01*
X62523809Y-54921428D01*
X62619047Y-54873809D01*
X63095238Y-55302380D02*
X63095238Y-54635714D01*
X63095238Y-54826190D02*
X63142857Y-54730952D01*
X63190476Y-54683333D01*
X63285714Y-54635714D01*
X63380952Y-54635714D01*
X64476190Y-55302380D02*
X64476190Y-54302380D01*
X64857142Y-54302380D01*
X64952380Y-54350000D01*
X64999999Y-54397619D01*
X65047619Y-54492857D01*
X65047619Y-54635714D01*
X64999999Y-54730952D01*
X64952380Y-54778571D01*
X64857142Y-54826190D01*
X64476190Y-54826190D01*
X65904761Y-55302380D02*
X65904761Y-54778571D01*
X65857142Y-54683333D01*
X65761904Y-54635714D01*
X65571428Y-54635714D01*
X65476190Y-54683333D01*
X65904761Y-55254761D02*
X65809523Y-55302380D01*
X65571428Y-55302380D01*
X65476190Y-55254761D01*
X65428571Y-55159523D01*
X65428571Y-55064285D01*
X65476190Y-54969047D01*
X65571428Y-54921428D01*
X65809523Y-54921428D01*
X65904761Y-54873809D01*
X66380952Y-54635714D02*
X66380952Y-55302380D01*
X66380952Y-54730952D02*
X66428571Y-54683333D01*
X66523809Y-54635714D01*
X66666666Y-54635714D01*
X66761904Y-54683333D01*
X66809523Y-54778571D01*
X66809523Y-55302380D01*
X67666666Y-55254761D02*
X67571428Y-55302380D01*
X67380952Y-55302380D01*
X67285714Y-55254761D01*
X67238095Y-55159523D01*
X67238095Y-54778571D01*
X67285714Y-54683333D01*
X67380952Y-54635714D01*
X67571428Y-54635714D01*
X67666666Y-54683333D01*
X67714285Y-54778571D01*
X67714285Y-54873809D01*
X67238095Y-54969047D01*
X68285714Y-55302380D02*
X68190476Y-55254761D01*
X68142857Y-55159523D01*
X68142857Y-54302380D01*
X61904761Y-56857142D02*
X61857142Y-56904761D01*
X61714285Y-56952380D01*
X61619047Y-56952380D01*
X61476190Y-56904761D01*
X61380952Y-56809523D01*
X61333333Y-56714285D01*
X61285714Y-56523809D01*
X61285714Y-56380952D01*
X61333333Y-56190476D01*
X61380952Y-56095238D01*
X61476190Y-56000000D01*
X61619047Y-55952380D01*
X61714285Y-55952380D01*
X61857142Y-56000000D01*
X61904761Y-56047619D01*
X62333333Y-56952380D02*
X62333333Y-55952380D01*
X62761904Y-56952380D02*
X62761904Y-56428571D01*
X62714285Y-56333333D01*
X62619047Y-56285714D01*
X62476190Y-56285714D01*
X62380952Y-56333333D01*
X62333333Y-56380952D01*
X63666666Y-56952380D02*
X63666666Y-56428571D01*
X63619047Y-56333333D01*
X63523809Y-56285714D01*
X63333333Y-56285714D01*
X63238095Y-56333333D01*
X63666666Y-56904761D02*
X63571428Y-56952380D01*
X63333333Y-56952380D01*
X63238095Y-56904761D01*
X63190476Y-56809523D01*
X63190476Y-56714285D01*
X63238095Y-56619047D01*
X63333333Y-56571428D01*
X63571428Y-56571428D01*
X63666666Y-56523809D01*
X64142857Y-56952380D02*
X64142857Y-56285714D01*
X64142857Y-56476190D02*
X64190476Y-56380952D01*
X64238095Y-56333333D01*
X64333333Y-56285714D01*
X64428571Y-56285714D01*
X65190476Y-56285714D02*
X65190476Y-57095238D01*
X65142857Y-57190476D01*
X65095238Y-57238095D01*
X65000000Y-57285714D01*
X64857142Y-57285714D01*
X64761904Y-57238095D01*
X65190476Y-56904761D02*
X65095238Y-56952380D01*
X64904761Y-56952380D01*
X64809523Y-56904761D01*
X64761904Y-56857142D01*
X64714285Y-56761904D01*
X64714285Y-56476190D01*
X64761904Y-56380952D01*
X64809523Y-56333333D01*
X64904761Y-56285714D01*
X65095238Y-56285714D01*
X65190476Y-56333333D01*
X66047619Y-56904761D02*
X65952380Y-56952380D01*
X65761904Y-56952380D01*
X65666666Y-56904761D01*
X65619047Y-56809523D01*
X65619047Y-56428571D01*
X65666666Y-56333333D01*
X65761904Y-56285714D01*
X65952380Y-56285714D01*
X66047619Y-56333333D01*
X66095238Y-56428571D01*
X66095238Y-56523809D01*
X65619047Y-56619047D01*
X66523809Y-56952380D02*
X66523809Y-56285714D01*
X66523809Y-56476190D02*
X66571428Y-56380952D01*
X66619047Y-56333333D01*
X66714285Y-56285714D01*
X66809523Y-56285714D01*
X59166666Y-58602380D02*
X59166666Y-57602380D01*
X59547619Y-57602380D01*
X59642857Y-57650000D01*
X59690476Y-57697619D01*
X59738095Y-57792857D01*
X59738095Y-57935714D01*
X59690476Y-58030952D01*
X59642857Y-58078571D01*
X59547619Y-58126190D01*
X59166666Y-58126190D01*
X60309523Y-58602380D02*
X60214285Y-58554761D01*
X60166666Y-58507142D01*
X60119047Y-58411904D01*
X60119047Y-58126190D01*
X60166666Y-58030952D01*
X60214285Y-57983333D01*
X60309523Y-57935714D01*
X60452380Y-57935714D01*
X60547619Y-57983333D01*
X60595238Y-58030952D01*
X60642857Y-58126190D01*
X60642857Y-58411904D01*
X60595238Y-58507142D01*
X60547619Y-58554761D01*
X60452380Y-58602380D01*
X60309523Y-58602380D01*
X60976190Y-57935714D02*
X61166666Y-58602380D01*
X61357142Y-58126190D01*
X61547619Y-58602380D01*
X61738095Y-57935714D01*
X62500000Y-58554761D02*
X62404761Y-58602380D01*
X62214285Y-58602380D01*
X62119047Y-58554761D01*
X62071428Y-58459523D01*
X62071428Y-58078571D01*
X62119047Y-57983333D01*
X62214285Y-57935714D01*
X62404761Y-57935714D01*
X62500000Y-57983333D01*
X62547619Y-58078571D01*
X62547619Y-58173809D01*
X62071428Y-58269047D01*
X62976190Y-58602380D02*
X62976190Y-57935714D01*
X62976190Y-58126190D02*
X63023809Y-58030952D01*
X63071428Y-57983333D01*
X63166666Y-57935714D01*
X63261904Y-57935714D01*
X64309523Y-58554761D02*
X64452380Y-58602380D01*
X64690476Y-58602380D01*
X64785714Y-58554761D01*
X64833333Y-58507142D01*
X64880952Y-58411904D01*
X64880952Y-58316666D01*
X64833333Y-58221428D01*
X64785714Y-58173809D01*
X64690476Y-58126190D01*
X64500000Y-58078571D01*
X64404761Y-58030952D01*
X64357142Y-57983333D01*
X64309523Y-57888095D01*
X64309523Y-57792857D01*
X64357142Y-57697619D01*
X64404761Y-57650000D01*
X64500000Y-57602380D01*
X64738095Y-57602380D01*
X64880952Y-57650000D01*
X65738095Y-57935714D02*
X65738095Y-58602380D01*
X65309523Y-57935714D02*
X65309523Y-58459523D01*
X65357142Y-58554761D01*
X65452380Y-58602380D01*
X65595238Y-58602380D01*
X65690476Y-58554761D01*
X65738095Y-58507142D01*
X66214285Y-57935714D02*
X66214285Y-58935714D01*
X66214285Y-57983333D02*
X66309523Y-57935714D01*
X66500000Y-57935714D01*
X66595238Y-57983333D01*
X66642857Y-58030952D01*
X66690476Y-58126190D01*
X66690476Y-58411904D01*
X66642857Y-58507142D01*
X66595238Y-58554761D01*
X66500000Y-58602380D01*
X66309523Y-58602380D01*
X66214285Y-58554761D01*
X67119047Y-57935714D02*
X67119047Y-58935714D01*
X67119047Y-57983333D02*
X67214285Y-57935714D01*
X67404761Y-57935714D01*
X67500000Y-57983333D01*
X67547619Y-58030952D01*
X67595238Y-58126190D01*
X67595238Y-58411904D01*
X67547619Y-58507142D01*
X67500000Y-58554761D01*
X67404761Y-58602380D01*
X67214285Y-58602380D01*
X67119047Y-58554761D01*
X68166666Y-58602380D02*
X68071428Y-58554761D01*
X68023809Y-58459523D01*
X68023809Y-57602380D01*
X68452380Y-57935714D02*
X68690476Y-58602380D01*
X68928571Y-57935714D02*
X68690476Y-58602380D01*
X68595238Y-58840476D01*
X68547619Y-58888095D01*
X68452380Y-58935714D01*
X57500000Y-60000000D02*
X130000000Y-60000000D01*
D11*
X108782857Y-105504285D02*
X108782857Y-106004285D01*
X109568571Y-106004285D02*
X108068571Y-106004285D01*
X108068571Y-105290000D01*
X109568571Y-104504285D02*
X109497142Y-104647142D01*
X109425714Y-104718571D01*
X109282857Y-104790000D01*
X108854285Y-104790000D01*
X108711428Y-104718571D01*
X108640000Y-104647142D01*
X108568571Y-104504285D01*
X108568571Y-104290000D01*
X108640000Y-104147142D01*
X108711428Y-104075714D01*
X108854285Y-104004285D01*
X109282857Y-104004285D01*
X109425714Y-104075714D01*
X109497142Y-104147142D01*
X109568571Y-104290000D01*
X109568571Y-104504285D01*
X109568571Y-103361428D02*
X108568571Y-103361428D01*
X108854285Y-103361428D02*
X108711428Y-103290000D01*
X108640000Y-103218571D01*
X108568571Y-103075714D01*
X108568571Y-102932857D01*
X109568571Y-101290000D02*
X108068571Y-101290000D01*
X108068571Y-100718571D01*
X108140000Y-100575714D01*
X108211428Y-100504285D01*
X108354285Y-100432857D01*
X108568571Y-100432857D01*
X108711428Y-100504285D01*
X108782857Y-100575714D01*
X108854285Y-100718571D01*
X108854285Y-101290000D01*
X108068571Y-99932857D02*
X108068571Y-99004285D01*
X108640000Y-99504285D01*
X108640000Y-99290000D01*
X108711428Y-99147142D01*
X108782857Y-99075714D01*
X108925714Y-99004285D01*
X109282857Y-99004285D01*
X109425714Y-99075714D01*
X109497142Y-99147142D01*
X109568571Y-99290000D01*
X109568571Y-99718571D01*
X109497142Y-99861428D01*
X109425714Y-99932857D01*
X92272857Y-105504285D02*
X92272857Y-106004285D01*
X93058571Y-106004285D02*
X91558571Y-106004285D01*
X91558571Y-105290000D01*
X93058571Y-104504285D02*
X92987142Y-104647142D01*
X92915714Y-104718571D01*
X92772857Y-104790000D01*
X92344285Y-104790000D01*
X92201428Y-104718571D01*
X92130000Y-104647142D01*
X92058571Y-104504285D01*
X92058571Y-104290000D01*
X92130000Y-104147142D01*
X92201428Y-104075714D01*
X92344285Y-104004285D01*
X92772857Y-104004285D01*
X92915714Y-104075714D01*
X92987142Y-104147142D01*
X93058571Y-104290000D01*
X93058571Y-104504285D01*
X93058571Y-103361428D02*
X92058571Y-103361428D01*
X92344285Y-103361428D02*
X92201428Y-103290000D01*
X92130000Y-103218571D01*
X92058571Y-103075714D01*
X92058571Y-102932857D01*
X93058571Y-101290000D02*
X91558571Y-101290000D01*
X91558571Y-100718571D01*
X91630000Y-100575714D01*
X91701428Y-100504285D01*
X91844285Y-100432857D01*
X92058571Y-100432857D01*
X92201428Y-100504285D01*
X92272857Y-100575714D01*
X92344285Y-100718571D01*
X92344285Y-101290000D01*
X91701428Y-99861428D02*
X91630000Y-99790000D01*
X91558571Y-99647142D01*
X91558571Y-99290000D01*
X91630000Y-99147142D01*
X91701428Y-99075714D01*
X91844285Y-99004285D01*
X91987142Y-99004285D01*
X92201428Y-99075714D01*
X93058571Y-99932857D01*
X93058571Y-99004285D01*
X84851428Y-107028571D02*
X84851428Y-105528571D01*
X85708571Y-107028571D01*
X85708571Y-105528571D01*
X86422857Y-107028571D02*
X86422857Y-105528571D01*
X86994285Y-105528571D01*
X87137142Y-105600000D01*
X87208571Y-105671428D01*
X87280000Y-105814285D01*
X87280000Y-106028571D01*
X87208571Y-106171428D01*
X87137142Y-106242857D01*
X86994285Y-106314285D01*
X86422857Y-106314285D01*
X77231428Y-107028571D02*
X77231428Y-105528571D01*
X78088571Y-107028571D01*
X78088571Y-105528571D01*
X78802857Y-107028571D02*
X78802857Y-105528571D01*
X79374285Y-105528571D01*
X79517142Y-105600000D01*
X79588571Y-105671428D01*
X79660000Y-105814285D01*
X79660000Y-106028571D01*
X79588571Y-106171428D01*
X79517142Y-106242857D01*
X79374285Y-106314285D01*
X78802857Y-106314285D01*
X114414285Y-97578571D02*
X113700000Y-97578571D01*
X113700000Y-96078571D01*
X115557142Y-97578571D02*
X115557142Y-96792857D01*
X115485714Y-96650000D01*
X115342857Y-96578571D01*
X115057142Y-96578571D01*
X114914285Y-96650000D01*
X115557142Y-97507142D02*
X115414285Y-97578571D01*
X115057142Y-97578571D01*
X114914285Y-97507142D01*
X114842857Y-97364285D01*
X114842857Y-97221428D01*
X114914285Y-97078571D01*
X115057142Y-97007142D01*
X115414285Y-97007142D01*
X115557142Y-96935714D01*
X116271428Y-97578571D02*
X116271428Y-96578571D01*
X116271428Y-96721428D02*
X116342857Y-96650000D01*
X116485714Y-96578571D01*
X116700000Y-96578571D01*
X116842857Y-96650000D01*
X116914285Y-96792857D01*
X116914285Y-97578571D01*
X116914285Y-96792857D02*
X116985714Y-96650000D01*
X117128571Y-96578571D01*
X117342857Y-96578571D01*
X117485714Y-96650000D01*
X117557142Y-96792857D01*
X117557142Y-97578571D01*
X118271428Y-96578571D02*
X118271428Y-98078571D01*
X118271428Y-96650000D02*
X118414285Y-96578571D01*
X118700000Y-96578571D01*
X118842857Y-96650000D01*
X118914285Y-96721428D01*
X118985714Y-96864285D01*
X118985714Y-97292857D01*
X118914285Y-97435714D01*
X118842857Y-97507142D01*
X118700000Y-97578571D01*
X118414285Y-97578571D01*
X118271428Y-97507142D01*
X120200000Y-97507142D02*
X120057142Y-97578571D01*
X119771428Y-97578571D01*
X119628571Y-97507142D01*
X119557142Y-97364285D01*
X119557142Y-96792857D01*
X119628571Y-96650000D01*
X119771428Y-96578571D01*
X120057142Y-96578571D01*
X120200000Y-96650000D01*
X120271428Y-96792857D01*
X120271428Y-96935714D01*
X119557142Y-97078571D01*
X121985714Y-97507142D02*
X122200000Y-97578571D01*
X122557142Y-97578571D01*
X122700000Y-97507142D01*
X122771428Y-97435714D01*
X122842857Y-97292857D01*
X122842857Y-97150000D01*
X122771428Y-97007142D01*
X122700000Y-96935714D01*
X122557142Y-96864285D01*
X122271428Y-96792857D01*
X122128571Y-96721428D01*
X122057142Y-96650000D01*
X121985714Y-96507142D01*
X121985714Y-96364285D01*
X122057142Y-96221428D01*
X122128571Y-96150000D01*
X122271428Y-96078571D01*
X122628571Y-96078571D01*
X122842857Y-96150000D01*
X123700000Y-97578571D02*
X123557142Y-97507142D01*
X123485714Y-97435714D01*
X123414285Y-97292857D01*
X123414285Y-96864285D01*
X123485714Y-96721428D01*
X123557142Y-96650000D01*
X123700000Y-96578571D01*
X123914285Y-96578571D01*
X124057142Y-96650000D01*
X124128571Y-96721428D01*
X124200000Y-96864285D01*
X124200000Y-97292857D01*
X124128571Y-97435714D01*
X124057142Y-97507142D01*
X123914285Y-97578571D01*
X123700000Y-97578571D01*
X125057142Y-97578571D02*
X124914285Y-97507142D01*
X124842857Y-97364285D01*
X124842857Y-96078571D01*
X126271428Y-97578571D02*
X126271428Y-96792857D01*
X126200000Y-96650000D01*
X126057142Y-96578571D01*
X125771428Y-96578571D01*
X125628571Y-96650000D01*
X126271428Y-97507142D02*
X126128571Y-97578571D01*
X125771428Y-97578571D01*
X125628571Y-97507142D01*
X125557142Y-97364285D01*
X125557142Y-97221428D01*
X125628571Y-97078571D01*
X125771428Y-97007142D01*
X126128571Y-97007142D01*
X126271428Y-96935714D01*
X126985714Y-97578571D02*
X126985714Y-96578571D01*
X126985714Y-96078571D02*
X126914285Y-96150000D01*
X126985714Y-96221428D01*
X127057142Y-96150000D01*
X126985714Y-96078571D01*
X126985714Y-96221428D01*
X127700000Y-97578571D02*
X127700000Y-96578571D01*
X127700000Y-96864285D02*
X127771428Y-96721428D01*
X127842857Y-96650000D01*
X127985714Y-96578571D01*
X128128571Y-96578571D01*
X129200000Y-97507142D02*
X129057142Y-97578571D01*
X128771428Y-97578571D01*
X128628571Y-97507142D01*
X128557142Y-97364285D01*
X128557142Y-96792857D01*
X128628571Y-96650000D01*
X128771428Y-96578571D01*
X129057142Y-96578571D01*
X129200000Y-96650000D01*
X129271428Y-96792857D01*
X129271428Y-96935714D01*
X128557142Y-97078571D01*
X112235714Y-98771428D02*
X112307142Y-98700000D01*
X112450000Y-98628571D01*
X112807142Y-98628571D01*
X112950000Y-98700000D01*
X113021428Y-98771428D01*
X113092857Y-98914285D01*
X113092857Y-99057142D01*
X113021428Y-99271428D01*
X112164285Y-100128571D01*
X113092857Y-100128571D01*
X114378571Y-99128571D02*
X114378571Y-100128571D01*
X114021428Y-98557142D02*
X113664285Y-99628571D01*
X114592857Y-99628571D01*
X115164285Y-99985714D02*
X115235714Y-100057142D01*
X115164285Y-100128571D01*
X115092857Y-100057142D01*
X115164285Y-99985714D01*
X115164285Y-100128571D01*
X116164285Y-98628571D02*
X116307142Y-98628571D01*
X116450000Y-98700000D01*
X116521428Y-98771428D01*
X116592857Y-98914285D01*
X116664285Y-99200000D01*
X116664285Y-99557142D01*
X116592857Y-99842857D01*
X116521428Y-99985714D01*
X116450000Y-100057142D01*
X116307142Y-100128571D01*
X116164285Y-100128571D01*
X116021428Y-100057142D01*
X115950000Y-99985714D01*
X115878571Y-99842857D01*
X115807142Y-99557142D01*
X115807142Y-99200000D01*
X115878571Y-98914285D01*
X115950000Y-98771428D01*
X116021428Y-98700000D01*
X116164285Y-98628571D01*
X117950000Y-98628571D02*
X117664285Y-98628571D01*
X117521428Y-98700000D01*
X117450000Y-98771428D01*
X117307142Y-98985714D01*
X117235714Y-99271428D01*
X117235714Y-99842857D01*
X117307142Y-99985714D01*
X117378571Y-100057142D01*
X117521428Y-100128571D01*
X117807142Y-100128571D01*
X117950000Y-100057142D01*
X118021428Y-99985714D01*
X118092857Y-99842857D01*
X118092857Y-99485714D01*
X118021428Y-99342857D01*
X117950000Y-99271428D01*
X117807142Y-99200000D01*
X117521428Y-99200000D01*
X117378571Y-99271428D01*
X117307142Y-99342857D01*
X117235714Y-99485714D01*
X118735714Y-99985714D02*
X118807142Y-100057142D01*
X118735714Y-100128571D01*
X118664285Y-100057142D01*
X118735714Y-99985714D01*
X118735714Y-100128571D01*
X120235714Y-100128571D02*
X119378571Y-100128571D01*
X119807142Y-100128571D02*
X119807142Y-98628571D01*
X119664285Y-98842857D01*
X119521428Y-98985714D01*
X119378571Y-99057142D01*
X120950000Y-100128571D02*
X121235714Y-100128571D01*
X121378571Y-100057142D01*
X121450000Y-99985714D01*
X121592857Y-99771428D01*
X121664285Y-99485714D01*
X121664285Y-98914285D01*
X121592857Y-98771428D01*
X121521428Y-98700000D01*
X121378571Y-98628571D01*
X121092857Y-98628571D01*
X120950000Y-98700000D01*
X120878571Y-98771428D01*
X120807142Y-98914285D01*
X120807142Y-99271428D01*
X120878571Y-99414285D01*
X120950000Y-99485714D01*
X121092857Y-99557142D01*
X121378571Y-99557142D01*
X121521428Y-99485714D01*
X121592857Y-99414285D01*
X121664285Y-99271428D01*
X123450000Y-99557142D02*
X124592857Y-99557142D01*
X126235714Y-98628571D02*
X126735714Y-100128571D01*
X127235714Y-98628571D01*
X128378571Y-98628571D02*
X128092857Y-98628571D01*
X127950000Y-98700000D01*
X127878571Y-98771428D01*
X127735714Y-98985714D01*
X127664285Y-99271428D01*
X127664285Y-99842857D01*
X127735714Y-99985714D01*
X127807142Y-100057142D01*
X127950000Y-100128571D01*
X128235714Y-100128571D01*
X128378571Y-100057142D01*
X128450000Y-99985714D01*
X128521428Y-99842857D01*
X128521428Y-99485714D01*
X128450000Y-99342857D01*
X128378571Y-99271428D01*
X128235714Y-99200000D01*
X127950000Y-99200000D01*
X127807142Y-99271428D01*
X127735714Y-99342857D01*
X127664285Y-99485714D01*
X129164285Y-99985714D02*
X129235714Y-100057142D01*
X129164285Y-100128571D01*
X129092857Y-100057142D01*
X129164285Y-99985714D01*
X129164285Y-100128571D01*
X129807142Y-98771428D02*
X129878571Y-98700000D01*
X130021428Y-98628571D01*
X130378571Y-98628571D01*
X130521428Y-98700000D01*
X130592857Y-98771428D01*
X130664285Y-98914285D01*
X130664285Y-99057142D01*
X130592857Y-99271428D01*
X129735714Y-100128571D01*
X130664285Y-100128571D01*
X116878571Y-101892857D02*
X117378571Y-101892857D01*
X117592857Y-102678571D02*
X116878571Y-102678571D01*
X116878571Y-101178571D01*
X117592857Y-101178571D01*
X118164285Y-102607142D02*
X118307142Y-102678571D01*
X118592857Y-102678571D01*
X118735714Y-102607142D01*
X118807142Y-102464285D01*
X118807142Y-102392857D01*
X118735714Y-102250000D01*
X118592857Y-102178571D01*
X118378571Y-102178571D01*
X118235714Y-102107142D01*
X118164285Y-101964285D01*
X118164285Y-101892857D01*
X118235714Y-101750000D01*
X118378571Y-101678571D01*
X118592857Y-101678571D01*
X118735714Y-101750000D01*
X119378571Y-102607142D02*
X119521428Y-102678571D01*
X119807142Y-102678571D01*
X119950000Y-102607142D01*
X120021428Y-102464285D01*
X120021428Y-102392857D01*
X119950000Y-102250000D01*
X119807142Y-102178571D01*
X119592857Y-102178571D01*
X119450000Y-102107142D01*
X119378571Y-101964285D01*
X119378571Y-101892857D01*
X119450000Y-101750000D01*
X119592857Y-101678571D01*
X119807142Y-101678571D01*
X119950000Y-101750000D01*
X121235714Y-102607142D02*
X121092857Y-102678571D01*
X120807142Y-102678571D01*
X120664285Y-102607142D01*
X120592857Y-102464285D01*
X120592857Y-101892857D01*
X120664285Y-101750000D01*
X120807142Y-101678571D01*
X121092857Y-101678571D01*
X121235714Y-101750000D01*
X121307142Y-101892857D01*
X121307142Y-102035714D01*
X120592857Y-102178571D01*
X121950000Y-102678571D02*
X121950000Y-101678571D01*
X121950000Y-101178571D02*
X121878571Y-101250000D01*
X121950000Y-101321428D01*
X122021428Y-101250000D01*
X121950000Y-101178571D01*
X121950000Y-101321428D01*
X122521428Y-101678571D02*
X122878571Y-102678571D01*
X123235714Y-101678571D01*
X124450000Y-102678571D02*
X124450000Y-101892857D01*
X124378571Y-101750000D01*
X124235714Y-101678571D01*
X123950000Y-101678571D01*
X123807142Y-101750000D01*
X124450000Y-102607142D02*
X124307142Y-102678571D01*
X123950000Y-102678571D01*
X123807142Y-102607142D01*
X123735714Y-102464285D01*
X123735714Y-102321428D01*
X123807142Y-102178571D01*
X123950000Y-102107142D01*
X124307142Y-102107142D01*
X124450000Y-102035714D01*
X125164285Y-102678571D02*
X125164285Y-101178571D01*
X126021428Y-102678571D01*
X126021428Y-101178571D01*
D10*
X78655000Y-96840000D02*
X80705000Y-96840000D01*
X77950000Y-93540000D02*
X80705000Y-93540000D01*
X96190000Y-86538000D02*
X96190000Y-72822000D01*
D12*
X76240000Y-55890000D02*
X78690000Y-55890000D01*
X78040000Y-52670000D02*
X76240000Y-52670000D01*
X90350000Y-48890000D02*
X91810000Y-48890000D01*
X90350000Y-52050000D02*
X93510000Y-52050000D01*
X90350000Y-52050000D02*
X90350000Y-51120000D01*
X90350000Y-48890000D02*
X90350000Y-49820000D01*
X82160000Y-59420000D02*
X82160000Y-58090000D01*
X83490000Y-59420000D02*
X82160000Y-59420000D01*
X84760000Y-59420000D02*
X84760000Y-56760000D01*
X84760000Y-56760000D02*
X87360000Y-56760000D01*
X84760000Y-59420000D02*
X87360000Y-59420000D01*
X87360000Y-59420000D02*
X87360000Y-56760000D01*
X124660000Y-53330000D02*
X125990000Y-53330000D01*
X124660000Y-54660000D02*
X124660000Y-53330000D01*
X124660000Y-55930000D02*
X127320000Y-55930000D01*
X127320000Y-55930000D02*
X127320000Y-58530000D01*
X124660000Y-55930000D02*
X124660000Y-58530000D01*
X124660000Y-58530000D02*
X127320000Y-58530000D01*
X110100000Y-59420000D02*
X110100000Y-58090000D01*
X111430000Y-59420000D02*
X110100000Y-59420000D01*
X112700000Y-59420000D02*
X112700000Y-56760000D01*
X112700000Y-56760000D02*
X115300000Y-56760000D01*
X112700000Y-59420000D02*
X115300000Y-59420000D01*
X115300000Y-59420000D02*
X115300000Y-56760000D01*
D10*
X75330000Y-85660000D02*
X72980000Y-85660000D01*
X75330000Y-83860000D02*
X73030000Y-83860000D01*
X73430000Y-83860000D02*
X73380000Y-83860000D01*
X75330000Y-85660000D02*
X75330000Y-83860000D01*
X70455000Y-74585000D02*
X70455000Y-74935000D01*
X76205000Y-74585000D02*
X76205000Y-75035000D01*
X76205000Y-82235000D02*
X76205000Y-81785000D01*
X70455000Y-82235000D02*
X70455000Y-81785000D01*
X70455000Y-74585000D02*
X76205000Y-74585000D01*
X70455000Y-82235000D02*
X76205000Y-82235000D01*
X70455000Y-74935000D02*
X68855000Y-74935000D01*
D12*
X77740000Y-58970000D02*
X76540000Y-58970000D01*
X76540000Y-57210000D02*
X77740000Y-57210000D01*
X91120000Y-88560000D02*
X89920000Y-88560000D01*
X89920000Y-86800000D02*
X91120000Y-86800000D01*
X67740000Y-63750000D02*
X67740000Y-62820000D01*
X67740000Y-60590000D02*
X67740000Y-61520000D01*
X67740000Y-60590000D02*
X64580000Y-60590000D01*
X67740000Y-63750000D02*
X66280000Y-63750000D01*
X72480000Y-94420000D02*
X72480000Y-95420000D01*
X74180000Y-95420000D02*
X74180000Y-94420000D01*
X91960000Y-57320000D02*
X91960000Y-56320000D01*
X90260000Y-56320000D02*
X90260000Y-57320000D01*
X103078000Y-116061000D02*
X105558000Y-116061000D01*
X101843000Y-96889000D02*
X106794000Y-96889000D01*
X101843000Y-116060000D02*
X106794000Y-116060000D01*
X106794000Y-116060000D02*
X106794000Y-96889000D01*
X101843000Y-116060000D02*
X101843000Y-96889000D01*
X94223000Y-116060000D02*
X94223000Y-96889000D01*
X99174000Y-116060000D02*
X99174000Y-96889000D01*
X94223000Y-116060000D02*
X99174000Y-116060000D01*
X94223000Y-96889000D02*
X99174000Y-96889000D01*
X95458000Y-116061000D02*
X97938000Y-116061000D01*
X97040000Y-50970000D02*
X97040000Y-49970000D01*
X95340000Y-49970000D02*
X95340000Y-50970000D01*
X118550000Y-58940000D02*
X119550000Y-58940000D01*
X119550000Y-57240000D02*
X118550000Y-57240000D01*
X85180000Y-95690000D02*
X85180000Y-96690000D01*
X86880000Y-96690000D02*
X86880000Y-95690000D01*
X61960000Y-83550000D02*
X60630000Y-83550000D01*
X61960000Y-82220000D02*
X61960000Y-83550000D01*
X61960000Y-80950000D02*
X59300000Y-80950000D01*
X59300000Y-80950000D02*
X59300000Y-70730000D01*
X61960000Y-80950000D02*
X61960000Y-70730000D01*
X61960000Y-70730000D02*
X59300000Y-70730000D01*
X81830000Y-103210000D02*
X81830000Y-104410000D01*
X80070000Y-104410000D02*
X80070000Y-103210000D01*
X82610000Y-104410000D02*
X82610000Y-103210000D01*
X84370000Y-103210000D02*
X84370000Y-104410000D01*
D10*
X78918095Y-97547380D02*
X78918095Y-98356904D01*
X78965714Y-98452142D01*
X79013333Y-98499761D01*
X79108571Y-98547380D01*
X79299047Y-98547380D01*
X79394285Y-98499761D01*
X79441904Y-98452142D01*
X79489523Y-98356904D01*
X79489523Y-97547380D01*
X79870476Y-97547380D02*
X80537142Y-97547380D01*
X80108571Y-98547380D01*
X110665476Y-47127380D02*
X110998809Y-48127380D01*
X111332142Y-47127380D01*
X112189285Y-48127380D02*
X111617857Y-48127380D01*
X111903571Y-48127380D02*
X111903571Y-47127380D01*
X111808333Y-47270238D01*
X111713095Y-47365476D01*
X111617857Y-47413095D01*
X77036904Y-117232380D02*
X77036904Y-116232380D01*
X77417857Y-116232380D01*
X77513095Y-116280000D01*
X77560714Y-116327619D01*
X77608333Y-116422857D01*
X77608333Y-116565714D01*
X77560714Y-116660952D01*
X77513095Y-116708571D01*
X77417857Y-116756190D01*
X77036904Y-116756190D01*
X77989285Y-116327619D02*
X78036904Y-116280000D01*
X78132142Y-116232380D01*
X78370238Y-116232380D01*
X78465476Y-116280000D01*
X78513095Y-116327619D01*
X78560714Y-116422857D01*
X78560714Y-116518095D01*
X78513095Y-116660952D01*
X77941666Y-117232380D01*
X78560714Y-117232380D01*
X85926904Y-117232380D02*
X85926904Y-116232380D01*
X86307857Y-116232380D01*
X86403095Y-116280000D01*
X86450714Y-116327619D01*
X86498333Y-116422857D01*
X86498333Y-116565714D01*
X86450714Y-116660952D01*
X86403095Y-116708571D01*
X86307857Y-116756190D01*
X85926904Y-116756190D01*
X86831666Y-116232380D02*
X87450714Y-116232380D01*
X87117380Y-116613333D01*
X87260238Y-116613333D01*
X87355476Y-116660952D01*
X87403095Y-116708571D01*
X87450714Y-116803809D01*
X87450714Y-117041904D01*
X87403095Y-117137142D01*
X87355476Y-117184761D01*
X87260238Y-117232380D01*
X86974523Y-117232380D01*
X86879285Y-117184761D01*
X86831666Y-117137142D01*
X77193095Y-48079761D02*
X77335952Y-48127380D01*
X77574047Y-48127380D01*
X77669285Y-48079761D01*
X77716904Y-48032142D01*
X77764523Y-47936904D01*
X77764523Y-47841666D01*
X77716904Y-47746428D01*
X77669285Y-47698809D01*
X77574047Y-47651190D01*
X77383571Y-47603571D01*
X77288333Y-47555952D01*
X77240714Y-47508333D01*
X77193095Y-47413095D01*
X77193095Y-47317857D01*
X77240714Y-47222619D01*
X77288333Y-47175000D01*
X77383571Y-47127380D01*
X77621666Y-47127380D01*
X77764523Y-47175000D01*
X78764523Y-48032142D02*
X78716904Y-48079761D01*
X78574047Y-48127380D01*
X78478809Y-48127380D01*
X78335952Y-48079761D01*
X78240714Y-47984523D01*
X78193095Y-47889285D01*
X78145476Y-47698809D01*
X78145476Y-47555952D01*
X78193095Y-47365476D01*
X78240714Y-47270238D01*
X78335952Y-47175000D01*
X78478809Y-47127380D01*
X78574047Y-47127380D01*
X78716904Y-47175000D01*
X78764523Y-47222619D01*
X79716904Y-48127380D02*
X79145476Y-48127380D01*
X79431190Y-48127380D02*
X79431190Y-47127380D01*
X79335952Y-47270238D01*
X79240714Y-47365476D01*
X79145476Y-47413095D01*
X78870476Y-60987380D02*
X79537142Y-61987380D01*
X79537142Y-60987380D02*
X78870476Y-61987380D01*
X80346666Y-61320714D02*
X80346666Y-61987380D01*
X80108571Y-60939761D02*
X79870476Y-61654047D01*
X80489523Y-61654047D01*
X90300476Y-60987380D02*
X90967142Y-61987380D01*
X90967142Y-60987380D02*
X90300476Y-61987380D01*
X91776666Y-60987380D02*
X91586190Y-60987380D01*
X91490952Y-61035000D01*
X91443333Y-61082619D01*
X91348095Y-61225476D01*
X91300476Y-61415952D01*
X91300476Y-61796904D01*
X91348095Y-61892142D01*
X91395714Y-61939761D01*
X91490952Y-61987380D01*
X91681428Y-61987380D01*
X91776666Y-61939761D01*
X91824285Y-61892142D01*
X91871904Y-61796904D01*
X91871904Y-61558809D01*
X91824285Y-61463571D01*
X91776666Y-61415952D01*
X91681428Y-61368333D01*
X91490952Y-61368333D01*
X91395714Y-61415952D01*
X91348095Y-61463571D01*
X91300476Y-61558809D01*
D13*
D10*
X94372380Y-80076904D02*
X95181904Y-80076904D01*
X95277142Y-80029285D01*
X95324761Y-79981666D01*
X95372380Y-79886428D01*
X95372380Y-79695952D01*
X95324761Y-79600714D01*
X95277142Y-79553095D01*
X95181904Y-79505476D01*
X94372380Y-79505476D01*
X94705714Y-78600714D02*
X95372380Y-78600714D01*
X94324761Y-78838809D02*
X95039047Y-79076904D01*
X95039047Y-78457857D01*
X76378095Y-50827380D02*
X76378095Y-51636904D01*
X76425714Y-51732142D01*
X76473333Y-51779761D01*
X76568571Y-51827380D01*
X76759047Y-51827380D01*
X76854285Y-51779761D01*
X76901904Y-51732142D01*
X76949523Y-51636904D01*
X76949523Y-50827380D01*
X77949523Y-51827380D02*
X77378095Y-51827380D01*
X77663809Y-51827380D02*
X77663809Y-50827380D01*
X77568571Y-50970238D01*
X77473333Y-51065476D01*
X77378095Y-51113095D01*
X90348095Y-47652380D02*
X90919523Y-47652380D01*
X90633809Y-48652380D02*
X90633809Y-47652380D01*
X91776666Y-48652380D02*
X91205238Y-48652380D01*
X91490952Y-48652380D02*
X91490952Y-47652380D01*
X91395714Y-47795238D01*
X91300476Y-47890476D01*
X91205238Y-47938095D01*
X81995238Y-55382380D02*
X82233333Y-56382380D01*
X82423809Y-55668095D01*
X82614285Y-56382380D01*
X82852380Y-55382380D01*
X83138095Y-55382380D02*
X83757142Y-55382380D01*
X83423809Y-55763333D01*
X83566666Y-55763333D01*
X83661904Y-55810952D01*
X83709523Y-55858571D01*
X83757142Y-55953809D01*
X83757142Y-56191904D01*
X83709523Y-56287142D01*
X83661904Y-56334761D01*
X83566666Y-56382380D01*
X83280952Y-56382380D01*
X83185714Y-56334761D01*
X83138095Y-56287142D01*
X122590238Y-55272380D02*
X122828333Y-56272380D01*
X123018809Y-55558095D01*
X123209285Y-56272380D01*
X123447380Y-55272380D01*
X124256904Y-55605714D02*
X124256904Y-56272380D01*
X124018809Y-55224761D02*
X123780714Y-55939047D01*
X124399761Y-55939047D01*
X111795238Y-55272380D02*
X112033333Y-56272380D01*
X112223809Y-55558095D01*
X112414285Y-56272380D01*
X112652380Y-55272380D01*
X113509523Y-55272380D02*
X113033333Y-55272380D01*
X112985714Y-55748571D01*
X113033333Y-55700952D01*
X113128571Y-55653333D01*
X113366666Y-55653333D01*
X113461904Y-55700952D01*
X113509523Y-55748571D01*
X113557142Y-55843809D01*
X113557142Y-56081904D01*
X113509523Y-56177142D01*
X113461904Y-56224761D01*
X113366666Y-56272380D01*
X113128571Y-56272380D01*
X113033333Y-56224761D01*
X112985714Y-56177142D01*
X71956904Y-83037380D02*
X71956904Y-82037380D01*
X72337857Y-82037380D01*
X72433095Y-82085000D01*
X72480714Y-82132619D01*
X72528333Y-82227857D01*
X72528333Y-82370714D01*
X72480714Y-82465952D01*
X72433095Y-82513571D01*
X72337857Y-82561190D01*
X71956904Y-82561190D01*
X73385476Y-82370714D02*
X73385476Y-83037380D01*
X73147380Y-81989761D02*
X72909285Y-82704047D01*
X73528333Y-82704047D01*
X72568095Y-73112380D02*
X72568095Y-73921904D01*
X72615714Y-74017142D01*
X72663333Y-74064761D01*
X72758571Y-74112380D01*
X72949047Y-74112380D01*
X73044285Y-74064761D01*
X73091904Y-74017142D01*
X73139523Y-73921904D01*
X73139523Y-73112380D01*
X74091904Y-73112380D02*
X73615714Y-73112380D01*
X73568095Y-73588571D01*
X73615714Y-73540952D01*
X73710952Y-73493333D01*
X73949047Y-73493333D01*
X74044285Y-73540952D01*
X74091904Y-73588571D01*
X74139523Y-73683809D01*
X74139523Y-73921904D01*
X74091904Y-74017142D01*
X74044285Y-74064761D01*
X73949047Y-74112380D01*
X73710952Y-74112380D01*
X73615714Y-74064761D01*
X73568095Y-74017142D01*
X73333333Y-58452380D02*
X73000000Y-57976190D01*
X72761904Y-58452380D02*
X72761904Y-57452380D01*
X73142857Y-57452380D01*
X73238095Y-57500000D01*
X73285714Y-57547619D01*
X73333333Y-57642857D01*
X73333333Y-57785714D01*
X73285714Y-57880952D01*
X73238095Y-57928571D01*
X73142857Y-57976190D01*
X72761904Y-57976190D01*
X73714285Y-57547619D02*
X73761904Y-57500000D01*
X73857142Y-57452380D01*
X74095238Y-57452380D01*
X74190476Y-57500000D01*
X74238095Y-57547619D01*
X74285714Y-57642857D01*
X74285714Y-57738095D01*
X74238095Y-57880952D01*
X73666666Y-58452380D01*
X74285714Y-58452380D01*
X89877142Y-89832380D02*
X89543809Y-89356190D01*
X89305714Y-89832380D02*
X89305714Y-88832380D01*
X89686666Y-88832380D01*
X89781904Y-88880000D01*
X89829523Y-88927619D01*
X89877142Y-89022857D01*
X89877142Y-89165714D01*
X89829523Y-89260952D01*
X89781904Y-89308571D01*
X89686666Y-89356190D01*
X89305714Y-89356190D01*
X90829523Y-89832380D02*
X90258095Y-89832380D01*
X90543809Y-89832380D02*
X90543809Y-88832380D01*
X90448571Y-88975238D01*
X90353333Y-89070476D01*
X90258095Y-89118095D01*
X91210476Y-88927619D02*
X91258095Y-88880000D01*
X91353333Y-88832380D01*
X91591428Y-88832380D01*
X91686666Y-88880000D01*
X91734285Y-88927619D01*
X91781904Y-89022857D01*
X91781904Y-89118095D01*
X91734285Y-89260952D01*
X91162857Y-89832380D01*
X91781904Y-89832380D01*
X63003380Y-62931904D02*
X63812904Y-62931904D01*
X63908142Y-62884285D01*
X63955761Y-62836666D01*
X64003380Y-62741428D01*
X64003380Y-62550952D01*
X63955761Y-62455714D01*
X63908142Y-62408095D01*
X63812904Y-62360476D01*
X63003380Y-62360476D01*
X63003380Y-61455714D02*
X63003380Y-61646190D01*
X63051000Y-61741428D01*
X63098619Y-61789047D01*
X63241476Y-61884285D01*
X63431952Y-61931904D01*
X63812904Y-61931904D01*
X63908142Y-61884285D01*
X63955761Y-61836666D01*
X64003380Y-61741428D01*
X64003380Y-61550952D01*
X63955761Y-61455714D01*
X63908142Y-61408095D01*
X63812904Y-61360476D01*
X63574809Y-61360476D01*
X63479571Y-61408095D01*
X63431952Y-61455714D01*
X63384333Y-61550952D01*
X63384333Y-61741428D01*
X63431952Y-61836666D01*
X63479571Y-61884285D01*
X63574809Y-61931904D01*
X69893142Y-95261142D02*
X69845523Y-95308761D01*
X69702666Y-95356380D01*
X69607428Y-95356380D01*
X69464571Y-95308761D01*
X69369333Y-95213523D01*
X69321714Y-95118285D01*
X69274095Y-94927809D01*
X69274095Y-94784952D01*
X69321714Y-94594476D01*
X69369333Y-94499238D01*
X69464571Y-94404000D01*
X69607428Y-94356380D01*
X69702666Y-94356380D01*
X69845523Y-94404000D01*
X69893142Y-94451619D01*
X70845523Y-95356380D02*
X70274095Y-95356380D01*
X70559809Y-95356380D02*
X70559809Y-94356380D01*
X70464571Y-94499238D01*
X70369333Y-94594476D01*
X70274095Y-94642095D01*
X71464571Y-94356380D02*
X71559809Y-94356380D01*
X71655047Y-94404000D01*
X71702666Y-94451619D01*
X71750285Y-94546857D01*
X71797904Y-94737333D01*
X71797904Y-94975428D01*
X71750285Y-95165904D01*
X71702666Y-95261142D01*
X71655047Y-95308761D01*
X71559809Y-95356380D01*
X71464571Y-95356380D01*
X71369333Y-95308761D01*
X71321714Y-95261142D01*
X71274095Y-95165904D01*
X71226476Y-94975428D01*
X71226476Y-94737333D01*
X71274095Y-94546857D01*
X71321714Y-94451619D01*
X71369333Y-94404000D01*
X71464571Y-94356380D01*
X92873333Y-57177142D02*
X92825714Y-57224761D01*
X92682857Y-57272380D01*
X92587619Y-57272380D01*
X92444761Y-57224761D01*
X92349523Y-57129523D01*
X92301904Y-57034285D01*
X92254285Y-56843809D01*
X92254285Y-56700952D01*
X92301904Y-56510476D01*
X92349523Y-56415238D01*
X92444761Y-56320000D01*
X92587619Y-56272380D01*
X92682857Y-56272380D01*
X92825714Y-56320000D01*
X92873333Y-56367619D01*
X93254285Y-56367619D02*
X93301904Y-56320000D01*
X93397142Y-56272380D01*
X93635238Y-56272380D01*
X93730476Y-56320000D01*
X93778095Y-56367619D01*
X93825714Y-56462857D01*
X93825714Y-56558095D01*
X93778095Y-56700952D01*
X93206666Y-57272380D01*
X93825714Y-57272380D01*
X103802142Y-96007380D02*
X103468809Y-95531190D01*
X103230714Y-96007380D02*
X103230714Y-95007380D01*
X103611666Y-95007380D01*
X103706904Y-95055000D01*
X103754523Y-95102619D01*
X103802142Y-95197857D01*
X103802142Y-95340714D01*
X103754523Y-95435952D01*
X103706904Y-95483571D01*
X103611666Y-95531190D01*
X103230714Y-95531190D01*
X104754523Y-96007380D02*
X104183095Y-96007380D01*
X104468809Y-96007380D02*
X104468809Y-95007380D01*
X104373571Y-95150238D01*
X104278333Y-95245476D01*
X104183095Y-95293095D01*
X105706904Y-96007380D02*
X105135476Y-96007380D01*
X105421190Y-96007380D02*
X105421190Y-95007380D01*
X105325952Y-95150238D01*
X105230714Y-95245476D01*
X105135476Y-95293095D01*
X96182142Y-96007380D02*
X95848809Y-95531190D01*
X95610714Y-96007380D02*
X95610714Y-95007380D01*
X95991666Y-95007380D01*
X96086904Y-95055000D01*
X96134523Y-95102619D01*
X96182142Y-95197857D01*
X96182142Y-95340714D01*
X96134523Y-95435952D01*
X96086904Y-95483571D01*
X95991666Y-95531190D01*
X95610714Y-95531190D01*
X97134523Y-96007380D02*
X96563095Y-96007380D01*
X96848809Y-96007380D02*
X96848809Y-95007380D01*
X96753571Y-95150238D01*
X96658333Y-95245476D01*
X96563095Y-95293095D01*
X97467857Y-95007380D02*
X98086904Y-95007380D01*
X97753571Y-95388333D01*
X97896428Y-95388333D01*
X97991666Y-95435952D01*
X98039285Y-95483571D01*
X98086904Y-95578809D01*
X98086904Y-95816904D01*
X98039285Y-95912142D01*
X97991666Y-95959761D01*
X97896428Y-96007380D01*
X97610714Y-96007380D01*
X97515476Y-95959761D01*
X97467857Y-95912142D01*
X98297142Y-50636666D02*
X98344761Y-50684285D01*
X98392380Y-50827142D01*
X98392380Y-50922380D01*
X98344761Y-51065238D01*
X98249523Y-51160476D01*
X98154285Y-51208095D01*
X97963809Y-51255714D01*
X97820952Y-51255714D01*
X97630476Y-51208095D01*
X97535238Y-51160476D01*
X97440000Y-51065238D01*
X97392380Y-50922380D01*
X97392380Y-50827142D01*
X97440000Y-50684285D01*
X97487619Y-50636666D01*
X97392380Y-50303333D02*
X97392380Y-49684285D01*
X97773333Y-50017619D01*
X97773333Y-49874761D01*
X97820952Y-49779523D01*
X97868571Y-49731904D01*
X97963809Y-49684285D01*
X98201904Y-49684285D01*
X98297142Y-49731904D01*
X98344761Y-49779523D01*
X98392380Y-49874761D01*
X98392380Y-50160476D01*
X98344761Y-50255714D01*
X98297142Y-50303333D01*
X118883333Y-56697142D02*
X118835714Y-56744761D01*
X118692857Y-56792380D01*
X118597619Y-56792380D01*
X118454761Y-56744761D01*
X118359523Y-56649523D01*
X118311904Y-56554285D01*
X118264285Y-56363809D01*
X118264285Y-56220952D01*
X118311904Y-56030476D01*
X118359523Y-55935238D01*
X118454761Y-55840000D01*
X118597619Y-55792380D01*
X118692857Y-55792380D01*
X118835714Y-55840000D01*
X118883333Y-55887619D01*
X119788095Y-55792380D02*
X119311904Y-55792380D01*
X119264285Y-56268571D01*
X119311904Y-56220952D01*
X119407142Y-56173333D01*
X119645238Y-56173333D01*
X119740476Y-56220952D01*
X119788095Y-56268571D01*
X119835714Y-56363809D01*
X119835714Y-56601904D01*
X119788095Y-56697142D01*
X119740476Y-56744761D01*
X119645238Y-56792380D01*
X119407142Y-56792380D01*
X119311904Y-56744761D01*
X119264285Y-56697142D01*
X88137142Y-96356666D02*
X88184761Y-96404285D01*
X88232380Y-96547142D01*
X88232380Y-96642380D01*
X88184761Y-96785238D01*
X88089523Y-96880476D01*
X87994285Y-96928095D01*
X87803809Y-96975714D01*
X87660952Y-96975714D01*
X87470476Y-96928095D01*
X87375238Y-96880476D01*
X87280000Y-96785238D01*
X87232380Y-96642380D01*
X87232380Y-96547142D01*
X87280000Y-96404285D01*
X87327619Y-96356666D01*
X88232380Y-95880476D02*
X88232380Y-95690000D01*
X88184761Y-95594761D01*
X88137142Y-95547142D01*
X87994285Y-95451904D01*
X87803809Y-95404285D01*
X87422857Y-95404285D01*
X87327619Y-95451904D01*
X87280000Y-95499523D01*
X87232380Y-95594761D01*
X87232380Y-95785238D01*
X87280000Y-95880476D01*
X87327619Y-95928095D01*
X87422857Y-95975714D01*
X87660952Y-95975714D01*
X87756190Y-95928095D01*
X87803809Y-95880476D01*
X87851428Y-95785238D01*
X87851428Y-95594761D01*
X87803809Y-95499523D01*
X87756190Y-95451904D01*
X87660952Y-95404285D01*
X59820476Y-84002380D02*
X60487142Y-85002380D01*
X60487142Y-84002380D02*
X59820476Y-85002380D01*
X60820476Y-84097619D02*
X60868095Y-84050000D01*
X60963333Y-84002380D01*
X61201428Y-84002380D01*
X61296666Y-84050000D01*
X61344285Y-84097619D01*
X61391904Y-84192857D01*
X61391904Y-84288095D01*
X61344285Y-84430952D01*
X60772857Y-85002380D01*
X61391904Y-85002380D01*
X77767142Y-104262380D02*
X77433809Y-103786190D01*
X77195714Y-104262380D02*
X77195714Y-103262380D01*
X77576666Y-103262380D01*
X77671904Y-103310000D01*
X77719523Y-103357619D01*
X77767142Y-103452857D01*
X77767142Y-103595714D01*
X77719523Y-103690952D01*
X77671904Y-103738571D01*
X77576666Y-103786190D01*
X77195714Y-103786190D01*
X78719523Y-104262380D02*
X78148095Y-104262380D01*
X78433809Y-104262380D02*
X78433809Y-103262380D01*
X78338571Y-103405238D01*
X78243333Y-103500476D01*
X78148095Y-103548095D01*
X79576666Y-103595714D02*
X79576666Y-104262380D01*
X79338571Y-103214761D02*
X79100476Y-103929047D01*
X79719523Y-103929047D01*
X85328363Y-104292728D02*
X84995030Y-103816538D01*
X84756935Y-104292728D02*
X84756935Y-103292728D01*
X85137887Y-103292728D01*
X85233125Y-103340348D01*
X85280744Y-103387967D01*
X85328363Y-103483205D01*
X85328363Y-103626062D01*
X85280744Y-103721300D01*
X85233125Y-103768919D01*
X85137887Y-103816538D01*
X84756935Y-103816538D01*
X86280744Y-104292728D02*
X85709316Y-104292728D01*
X85995030Y-104292728D02*
X85995030Y-103292728D01*
X85899792Y-103435586D01*
X85804554Y-103530824D01*
X85709316Y-103578443D01*
X87185506Y-103292728D02*
X86709316Y-103292728D01*
X86661697Y-103768919D01*
X86709316Y-103721300D01*
X86804554Y-103673681D01*
X87042649Y-103673681D01*
X87137887Y-103721300D01*
X87185506Y-103768919D01*
X87233125Y-103864157D01*
X87233125Y-104102252D01*
X87185506Y-104197490D01*
X87137887Y-104245109D01*
X87042649Y-104292728D01*
X86804554Y-104292728D01*
X86709316Y-104245109D01*
X86661697Y-104197490D01*
X50978095Y-89292380D02*
X50978095Y-90101904D01*
X51025714Y-90197142D01*
X51073333Y-90244761D01*
X51168571Y-90292380D01*
X51359047Y-90292380D01*
X51454285Y-90244761D01*
X51501904Y-90197142D01*
X51549523Y-90101904D01*
X51549523Y-89292380D01*
X52168571Y-89720952D02*
X52073333Y-89673333D01*
X52025714Y-89625714D01*
X51978095Y-89530476D01*
X51978095Y-89482857D01*
X52025714Y-89387619D01*
X52073333Y-89340000D01*
X52168571Y-89292380D01*
X52359047Y-89292380D01*
X52454285Y-89340000D01*
X52501904Y-89387619D01*
X52549523Y-89482857D01*
X52549523Y-89530476D01*
X52501904Y-89625714D01*
X52454285Y-89673333D01*
X52359047Y-89720952D01*
X52168571Y-89720952D01*
X52073333Y-89768571D01*
X52025714Y-89816190D01*
X51978095Y-89911428D01*
X51978095Y-90101904D01*
X52025714Y-90197142D01*
X52073333Y-90244761D01*
X52168571Y-90292380D01*
X52359047Y-90292380D01*
X52454285Y-90244761D01*
X52501904Y-90197142D01*
X52549523Y-90101904D01*
X52549523Y-89911428D01*
X52501904Y-89816190D01*
X52454285Y-89768571D01*
X52359047Y-89720952D01*
M02*
