G04 #@! TF.FileFunction,Legend,Top*
%FSLAX46Y46*%
G04 Gerber Fmt 4.6, Leading zero omitted, Abs format (unit mm)*
G04 Created by KiCad (PCBNEW 4.0.5) date 08/19/18 23:38:00*
%MOMM*%
%LPD*%
G01*
G04 APERTURE LIST*
%ADD10C,0.100000*%
%ADD11C,0.300000*%
%ADD12C,0.120000*%
%ADD13C,0.150000*%
%ADD14C,0.304800*%
G04 APERTURE END LIST*
D10*
D11*
X101938571Y-103225713D02*
X101938571Y-103939999D01*
X100438571Y-103939999D01*
X101938571Y-102082856D02*
X101152857Y-102082856D01*
X101010000Y-102154285D01*
X100938571Y-102297142D01*
X100938571Y-102582856D01*
X101010000Y-102725713D01*
X101867143Y-102082856D02*
X101938571Y-102225713D01*
X101938571Y-102582856D01*
X101867143Y-102725713D01*
X101724286Y-102797142D01*
X101581429Y-102797142D01*
X101438571Y-102725713D01*
X101367143Y-102582856D01*
X101367143Y-102225713D01*
X101295714Y-102082856D01*
X101938571Y-101368570D02*
X100938571Y-101368570D01*
X101081429Y-101368570D02*
X101010000Y-101297142D01*
X100938571Y-101154284D01*
X100938571Y-100939999D01*
X101010000Y-100797142D01*
X101152857Y-100725713D01*
X101938571Y-100725713D01*
X101152857Y-100725713D02*
X101010000Y-100654284D01*
X100938571Y-100511427D01*
X100938571Y-100297142D01*
X101010000Y-100154284D01*
X101152857Y-100082856D01*
X101938571Y-100082856D01*
X100938571Y-99368570D02*
X102438571Y-99368570D01*
X101010000Y-99368570D02*
X100938571Y-99225713D01*
X100938571Y-98939999D01*
X101010000Y-98797142D01*
X101081429Y-98725713D01*
X101224286Y-98654284D01*
X101652857Y-98654284D01*
X101795714Y-98725713D01*
X101867143Y-98797142D01*
X101938571Y-98939999D01*
X101938571Y-99225713D01*
X101867143Y-99368570D01*
X101867143Y-97439999D02*
X101938571Y-97582856D01*
X101938571Y-97868570D01*
X101867143Y-98011427D01*
X101724286Y-98082856D01*
X101152857Y-98082856D01*
X101010000Y-98011427D01*
X100938571Y-97868570D01*
X100938571Y-97582856D01*
X101010000Y-97439999D01*
X101152857Y-97368570D01*
X101295714Y-97368570D01*
X101438571Y-98082856D01*
X101867143Y-95654285D02*
X101938571Y-95439999D01*
X101938571Y-95082856D01*
X101867143Y-94939999D01*
X101795714Y-94868570D01*
X101652857Y-94797142D01*
X101510000Y-94797142D01*
X101367143Y-94868570D01*
X101295714Y-94939999D01*
X101224286Y-95082856D01*
X101152857Y-95368570D01*
X101081429Y-95511428D01*
X101010000Y-95582856D01*
X100867143Y-95654285D01*
X100724286Y-95654285D01*
X100581429Y-95582856D01*
X100510000Y-95511428D01*
X100438571Y-95368570D01*
X100438571Y-95011428D01*
X100510000Y-94797142D01*
X101938571Y-93939999D02*
X101867143Y-94082857D01*
X101795714Y-94154285D01*
X101652857Y-94225714D01*
X101224286Y-94225714D01*
X101081429Y-94154285D01*
X101010000Y-94082857D01*
X100938571Y-93939999D01*
X100938571Y-93725714D01*
X101010000Y-93582857D01*
X101081429Y-93511428D01*
X101224286Y-93439999D01*
X101652857Y-93439999D01*
X101795714Y-93511428D01*
X101867143Y-93582857D01*
X101938571Y-93725714D01*
X101938571Y-93939999D01*
X101938571Y-92582856D02*
X101867143Y-92725714D01*
X101724286Y-92797142D01*
X100438571Y-92797142D01*
X101938571Y-91368571D02*
X101152857Y-91368571D01*
X101010000Y-91440000D01*
X100938571Y-91582857D01*
X100938571Y-91868571D01*
X101010000Y-92011428D01*
X101867143Y-91368571D02*
X101938571Y-91511428D01*
X101938571Y-91868571D01*
X101867143Y-92011428D01*
X101724286Y-92082857D01*
X101581429Y-92082857D01*
X101438571Y-92011428D01*
X101367143Y-91868571D01*
X101367143Y-91511428D01*
X101295714Y-91368571D01*
X101938571Y-90654285D02*
X100938571Y-90654285D01*
X100438571Y-90654285D02*
X100510000Y-90725714D01*
X100581429Y-90654285D01*
X100510000Y-90582857D01*
X100438571Y-90654285D01*
X100581429Y-90654285D01*
X101938571Y-89939999D02*
X100938571Y-89939999D01*
X101224286Y-89939999D02*
X101081429Y-89868571D01*
X101010000Y-89797142D01*
X100938571Y-89654285D01*
X100938571Y-89511428D01*
X101867143Y-88440000D02*
X101938571Y-88582857D01*
X101938571Y-88868571D01*
X101867143Y-89011428D01*
X101724286Y-89082857D01*
X101152857Y-89082857D01*
X101010000Y-89011428D01*
X100938571Y-88868571D01*
X100938571Y-88582857D01*
X101010000Y-88440000D01*
X101152857Y-88368571D01*
X101295714Y-88368571D01*
X101438571Y-89082857D01*
X102988571Y-103975713D02*
X102988571Y-103832856D01*
X103060000Y-103689999D01*
X103131429Y-103618570D01*
X103274286Y-103547141D01*
X103560000Y-103475713D01*
X103917143Y-103475713D01*
X104202857Y-103547141D01*
X104345714Y-103618570D01*
X104417143Y-103689999D01*
X104488571Y-103832856D01*
X104488571Y-103975713D01*
X104417143Y-104118570D01*
X104345714Y-104189999D01*
X104202857Y-104261427D01*
X103917143Y-104332856D01*
X103560000Y-104332856D01*
X103274286Y-104261427D01*
X103131429Y-104189999D01*
X103060000Y-104118570D01*
X102988571Y-103975713D01*
X102988571Y-102189999D02*
X102988571Y-102475713D01*
X103060000Y-102618570D01*
X103131429Y-102689999D01*
X103345714Y-102832856D01*
X103631429Y-102904285D01*
X104202857Y-102904285D01*
X104345714Y-102832856D01*
X104417143Y-102761428D01*
X104488571Y-102618570D01*
X104488571Y-102332856D01*
X104417143Y-102189999D01*
X104345714Y-102118570D01*
X104202857Y-102047142D01*
X103845714Y-102047142D01*
X103702857Y-102118570D01*
X103631429Y-102189999D01*
X103560000Y-102332856D01*
X103560000Y-102618570D01*
X103631429Y-102761428D01*
X103702857Y-102832856D01*
X103845714Y-102904285D01*
X104345714Y-101404285D02*
X104417143Y-101332857D01*
X104488571Y-101404285D01*
X104417143Y-101475714D01*
X104345714Y-101404285D01*
X104488571Y-101404285D01*
X102988571Y-100404285D02*
X102988571Y-100261428D01*
X103060000Y-100118571D01*
X103131429Y-100047142D01*
X103274286Y-99975713D01*
X103560000Y-99904285D01*
X103917143Y-99904285D01*
X104202857Y-99975713D01*
X104345714Y-100047142D01*
X104417143Y-100118571D01*
X104488571Y-100261428D01*
X104488571Y-100404285D01*
X104417143Y-100547142D01*
X104345714Y-100618571D01*
X104202857Y-100689999D01*
X103917143Y-100761428D01*
X103560000Y-100761428D01*
X103274286Y-100689999D01*
X103131429Y-100618571D01*
X103060000Y-100547142D01*
X102988571Y-100404285D01*
X103631429Y-99047142D02*
X103560000Y-99190000D01*
X103488571Y-99261428D01*
X103345714Y-99332857D01*
X103274286Y-99332857D01*
X103131429Y-99261428D01*
X103060000Y-99190000D01*
X102988571Y-99047142D01*
X102988571Y-98761428D01*
X103060000Y-98618571D01*
X103131429Y-98547142D01*
X103274286Y-98475714D01*
X103345714Y-98475714D01*
X103488571Y-98547142D01*
X103560000Y-98618571D01*
X103631429Y-98761428D01*
X103631429Y-99047142D01*
X103702857Y-99190000D01*
X103774286Y-99261428D01*
X103917143Y-99332857D01*
X104202857Y-99332857D01*
X104345714Y-99261428D01*
X104417143Y-99190000D01*
X104488571Y-99047142D01*
X104488571Y-98761428D01*
X104417143Y-98618571D01*
X104345714Y-98547142D01*
X104202857Y-98475714D01*
X103917143Y-98475714D01*
X103774286Y-98547142D01*
X103702857Y-98618571D01*
X103631429Y-98761428D01*
X104345714Y-97832857D02*
X104417143Y-97761429D01*
X104488571Y-97832857D01*
X104417143Y-97904286D01*
X104345714Y-97832857D01*
X104488571Y-97832857D01*
X104488571Y-96332857D02*
X104488571Y-97190000D01*
X104488571Y-96761428D02*
X102988571Y-96761428D01*
X103202857Y-96904285D01*
X103345714Y-97047143D01*
X103417143Y-97190000D01*
X103631429Y-95475714D02*
X103560000Y-95618572D01*
X103488571Y-95690000D01*
X103345714Y-95761429D01*
X103274286Y-95761429D01*
X103131429Y-95690000D01*
X103060000Y-95618572D01*
X102988571Y-95475714D01*
X102988571Y-95190000D01*
X103060000Y-95047143D01*
X103131429Y-94975714D01*
X103274286Y-94904286D01*
X103345714Y-94904286D01*
X103488571Y-94975714D01*
X103560000Y-95047143D01*
X103631429Y-95190000D01*
X103631429Y-95475714D01*
X103702857Y-95618572D01*
X103774286Y-95690000D01*
X103917143Y-95761429D01*
X104202857Y-95761429D01*
X104345714Y-95690000D01*
X104417143Y-95618572D01*
X104488571Y-95475714D01*
X104488571Y-95190000D01*
X104417143Y-95047143D01*
X104345714Y-94975714D01*
X104202857Y-94904286D01*
X103917143Y-94904286D01*
X103774286Y-94975714D01*
X103702857Y-95047143D01*
X103631429Y-95190000D01*
X103917143Y-93118572D02*
X103917143Y-91975715D01*
X102988571Y-90332858D02*
X104488571Y-89832858D01*
X102988571Y-89332858D01*
X103131429Y-88904287D02*
X103060000Y-88832858D01*
X102988571Y-88690001D01*
X102988571Y-88332858D01*
X103060000Y-88190001D01*
X103131429Y-88118572D01*
X103274286Y-88047144D01*
X103417143Y-88047144D01*
X103631429Y-88118572D01*
X104488571Y-88975715D01*
X104488571Y-88047144D01*
X106252857Y-100761429D02*
X106252857Y-100261429D01*
X107038571Y-100047143D02*
X107038571Y-100761429D01*
X105538571Y-100761429D01*
X105538571Y-100047143D01*
X106967143Y-99475715D02*
X107038571Y-99332858D01*
X107038571Y-99047143D01*
X106967143Y-98904286D01*
X106824286Y-98832858D01*
X106752857Y-98832858D01*
X106610000Y-98904286D01*
X106538571Y-99047143D01*
X106538571Y-99261429D01*
X106467143Y-99404286D01*
X106324286Y-99475715D01*
X106252857Y-99475715D01*
X106110000Y-99404286D01*
X106038571Y-99261429D01*
X106038571Y-99047143D01*
X106110000Y-98904286D01*
X106967143Y-98261429D02*
X107038571Y-98118572D01*
X107038571Y-97832857D01*
X106967143Y-97690000D01*
X106824286Y-97618572D01*
X106752857Y-97618572D01*
X106610000Y-97690000D01*
X106538571Y-97832857D01*
X106538571Y-98047143D01*
X106467143Y-98190000D01*
X106324286Y-98261429D01*
X106252857Y-98261429D01*
X106110000Y-98190000D01*
X106038571Y-98047143D01*
X106038571Y-97832857D01*
X106110000Y-97690000D01*
X106967143Y-96404286D02*
X107038571Y-96547143D01*
X107038571Y-96832857D01*
X106967143Y-96975714D01*
X106824286Y-97047143D01*
X106252857Y-97047143D01*
X106110000Y-96975714D01*
X106038571Y-96832857D01*
X106038571Y-96547143D01*
X106110000Y-96404286D01*
X106252857Y-96332857D01*
X106395714Y-96332857D01*
X106538571Y-97047143D01*
X107038571Y-95690000D02*
X106038571Y-95690000D01*
X105538571Y-95690000D02*
X105610000Y-95761429D01*
X105681429Y-95690000D01*
X105610000Y-95618572D01*
X105538571Y-95690000D01*
X105681429Y-95690000D01*
X106038571Y-95118571D02*
X107038571Y-94761428D01*
X106038571Y-94404286D01*
X107038571Y-93190000D02*
X106252857Y-93190000D01*
X106110000Y-93261429D01*
X106038571Y-93404286D01*
X106038571Y-93690000D01*
X106110000Y-93832857D01*
X106967143Y-93190000D02*
X107038571Y-93332857D01*
X107038571Y-93690000D01*
X106967143Y-93832857D01*
X106824286Y-93904286D01*
X106681429Y-93904286D01*
X106538571Y-93832857D01*
X106467143Y-93690000D01*
X106467143Y-93332857D01*
X106395714Y-93190000D01*
X107038571Y-92475714D02*
X105538571Y-92475714D01*
X107038571Y-91618571D01*
X105538571Y-91618571D01*
D12*
X108830000Y-125460000D02*
X111490000Y-125460000D01*
X108830000Y-125400000D02*
X108830000Y-125460000D01*
X111490000Y-125400000D02*
X111490000Y-125460000D01*
X108830000Y-125400000D02*
X111490000Y-125400000D01*
X108830000Y-124130000D02*
X108830000Y-122800000D01*
X108830000Y-122800000D02*
X110160000Y-122800000D01*
X78350000Y-96250000D02*
X81010000Y-96250000D01*
X78350000Y-96190000D02*
X78350000Y-96250000D01*
X81010000Y-96190000D02*
X81010000Y-96250000D01*
X78350000Y-96190000D02*
X81010000Y-96190000D01*
X78350000Y-94920000D02*
X78350000Y-93590000D01*
X78350000Y-93590000D02*
X79680000Y-93590000D01*
D13*
X128260000Y-77140000D02*
X128260000Y-92140000D01*
X128260000Y-92140000D02*
X117460000Y-92140000D01*
X117460000Y-92140000D02*
X117460000Y-62140000D01*
X117460000Y-62140000D02*
X128260000Y-62140000D01*
X128260000Y-62140000D02*
X128260000Y-77140000D01*
D12*
X69460000Y-53070000D02*
X72120000Y-53070000D01*
X69460000Y-50470000D02*
X69460000Y-53070000D01*
X72120000Y-50470000D02*
X72120000Y-53070000D01*
X69460000Y-50470000D02*
X72120000Y-50470000D01*
X69460000Y-49200000D02*
X69460000Y-47870000D01*
X69460000Y-47870000D02*
X70790000Y-47870000D01*
X78500277Y-48434278D02*
G75*
G03X78500000Y-53045580I1179723J-2305722D01*
G01*
X80859723Y-48434278D02*
G75*
G02X80860000Y-53045580I-1179723J-2305722D01*
G01*
X80859723Y-48434278D02*
G75*
G03X78500000Y-48434420I-1179723J-2305722D01*
G01*
X77130000Y-50740000D02*
X82230000Y-50740000D01*
X77130000Y-50700000D02*
X78700000Y-50700000D01*
X80660000Y-50700000D02*
X82230000Y-50700000D01*
X77131000Y-50660000D02*
X78700000Y-50660000D01*
X80660000Y-50660000D02*
X82229000Y-50660000D01*
X77132000Y-50620000D02*
X78700000Y-50620000D01*
X80660000Y-50620000D02*
X82228000Y-50620000D01*
X77134000Y-50580000D02*
X78700000Y-50580000D01*
X80660000Y-50580000D02*
X82226000Y-50580000D01*
X77137000Y-50540000D02*
X78700000Y-50540000D01*
X80660000Y-50540000D02*
X82223000Y-50540000D01*
X77141000Y-50500000D02*
X78700000Y-50500000D01*
X80660000Y-50500000D02*
X82219000Y-50500000D01*
X77145000Y-50460000D02*
X78700000Y-50460000D01*
X80660000Y-50460000D02*
X82215000Y-50460000D01*
X77149000Y-50420000D02*
X78700000Y-50420000D01*
X80660000Y-50420000D02*
X82211000Y-50420000D01*
X77155000Y-50380000D02*
X78700000Y-50380000D01*
X80660000Y-50380000D02*
X82205000Y-50380000D01*
X77161000Y-50340000D02*
X78700000Y-50340000D01*
X80660000Y-50340000D02*
X82199000Y-50340000D01*
X77167000Y-50300000D02*
X78700000Y-50300000D01*
X80660000Y-50300000D02*
X82193000Y-50300000D01*
X77174000Y-50260000D02*
X78700000Y-50260000D01*
X80660000Y-50260000D02*
X82186000Y-50260000D01*
X77182000Y-50220000D02*
X78700000Y-50220000D01*
X80660000Y-50220000D02*
X82178000Y-50220000D01*
X77191000Y-50180000D02*
X78700000Y-50180000D01*
X80660000Y-50180000D02*
X82169000Y-50180000D01*
X77200000Y-50140000D02*
X78700000Y-50140000D01*
X80660000Y-50140000D02*
X82160000Y-50140000D01*
X77210000Y-50100000D02*
X78700000Y-50100000D01*
X80660000Y-50100000D02*
X82150000Y-50100000D01*
X77220000Y-50060000D02*
X78700000Y-50060000D01*
X80660000Y-50060000D02*
X82140000Y-50060000D01*
X77232000Y-50019000D02*
X78700000Y-50019000D01*
X80660000Y-50019000D02*
X82128000Y-50019000D01*
X77244000Y-49979000D02*
X78700000Y-49979000D01*
X80660000Y-49979000D02*
X82116000Y-49979000D01*
X77256000Y-49939000D02*
X78700000Y-49939000D01*
X80660000Y-49939000D02*
X82104000Y-49939000D01*
X77270000Y-49899000D02*
X78700000Y-49899000D01*
X80660000Y-49899000D02*
X82090000Y-49899000D01*
X77284000Y-49859000D02*
X78700000Y-49859000D01*
X80660000Y-49859000D02*
X82076000Y-49859000D01*
X77298000Y-49819000D02*
X78700000Y-49819000D01*
X80660000Y-49819000D02*
X82062000Y-49819000D01*
X77314000Y-49779000D02*
X78700000Y-49779000D01*
X80660000Y-49779000D02*
X82046000Y-49779000D01*
X77330000Y-49739000D02*
X78700000Y-49739000D01*
X80660000Y-49739000D02*
X82030000Y-49739000D01*
X77347000Y-49699000D02*
X78700000Y-49699000D01*
X80660000Y-49699000D02*
X82013000Y-49699000D01*
X77365000Y-49659000D02*
X78700000Y-49659000D01*
X80660000Y-49659000D02*
X81995000Y-49659000D01*
X77384000Y-49619000D02*
X78700000Y-49619000D01*
X80660000Y-49619000D02*
X81976000Y-49619000D01*
X77404000Y-49579000D02*
X78700000Y-49579000D01*
X80660000Y-49579000D02*
X81956000Y-49579000D01*
X77424000Y-49539000D02*
X78700000Y-49539000D01*
X80660000Y-49539000D02*
X81936000Y-49539000D01*
X77446000Y-49499000D02*
X78700000Y-49499000D01*
X80660000Y-49499000D02*
X81914000Y-49499000D01*
X77468000Y-49459000D02*
X78700000Y-49459000D01*
X80660000Y-49459000D02*
X81892000Y-49459000D01*
X77491000Y-49419000D02*
X78700000Y-49419000D01*
X80660000Y-49419000D02*
X81869000Y-49419000D01*
X77515000Y-49379000D02*
X78700000Y-49379000D01*
X80660000Y-49379000D02*
X81845000Y-49379000D01*
X77540000Y-49339000D02*
X78700000Y-49339000D01*
X80660000Y-49339000D02*
X81820000Y-49339000D01*
X77567000Y-49299000D02*
X78700000Y-49299000D01*
X80660000Y-49299000D02*
X81793000Y-49299000D01*
X77594000Y-49259000D02*
X78700000Y-49259000D01*
X80660000Y-49259000D02*
X81766000Y-49259000D01*
X77622000Y-49219000D02*
X78700000Y-49219000D01*
X80660000Y-49219000D02*
X81738000Y-49219000D01*
X77652000Y-49179000D02*
X78700000Y-49179000D01*
X80660000Y-49179000D02*
X81708000Y-49179000D01*
X77683000Y-49139000D02*
X78700000Y-49139000D01*
X80660000Y-49139000D02*
X81677000Y-49139000D01*
X77715000Y-49099000D02*
X78700000Y-49099000D01*
X80660000Y-49099000D02*
X81645000Y-49099000D01*
X77748000Y-49059000D02*
X78700000Y-49059000D01*
X80660000Y-49059000D02*
X81612000Y-49059000D01*
X77783000Y-49019000D02*
X78700000Y-49019000D01*
X80660000Y-49019000D02*
X81577000Y-49019000D01*
X77819000Y-48979000D02*
X78700000Y-48979000D01*
X80660000Y-48979000D02*
X81541000Y-48979000D01*
X77857000Y-48939000D02*
X78700000Y-48939000D01*
X80660000Y-48939000D02*
X81503000Y-48939000D01*
X77897000Y-48899000D02*
X78700000Y-48899000D01*
X80660000Y-48899000D02*
X81463000Y-48899000D01*
X77938000Y-48859000D02*
X78700000Y-48859000D01*
X80660000Y-48859000D02*
X81422000Y-48859000D01*
X77981000Y-48819000D02*
X78700000Y-48819000D01*
X80660000Y-48819000D02*
X81379000Y-48819000D01*
X78026000Y-48779000D02*
X78700000Y-48779000D01*
X80660000Y-48779000D02*
X81334000Y-48779000D01*
X78074000Y-48739000D02*
X81286000Y-48739000D01*
X78124000Y-48699000D02*
X81236000Y-48699000D01*
X78176000Y-48659000D02*
X81184000Y-48659000D01*
X78232000Y-48619000D02*
X81128000Y-48619000D01*
X78290000Y-48579000D02*
X81070000Y-48579000D01*
X78353000Y-48539000D02*
X81007000Y-48539000D01*
X78419000Y-48499000D02*
X80941000Y-48499000D01*
X78491000Y-48459000D02*
X80869000Y-48459000D01*
X78568000Y-48419000D02*
X80792000Y-48419000D01*
X78652000Y-48379000D02*
X80708000Y-48379000D01*
X78746000Y-48339000D02*
X80614000Y-48339000D01*
X78851000Y-48299000D02*
X80509000Y-48299000D01*
X78973000Y-48259000D02*
X80387000Y-48259000D01*
X79121000Y-48219000D02*
X80239000Y-48219000D01*
X79326000Y-48179000D02*
X80034000Y-48179000D01*
X79680000Y-53940000D02*
X79680000Y-52740000D01*
X79030000Y-53340000D02*
X80330000Y-53340000D01*
X91200277Y-57324278D02*
G75*
G03X91200000Y-61935580I1179723J-2305722D01*
G01*
X93559723Y-57324278D02*
G75*
G02X93560000Y-61935580I-1179723J-2305722D01*
G01*
X93559723Y-57324278D02*
G75*
G03X91200000Y-57324420I-1179723J-2305722D01*
G01*
X89830000Y-59630000D02*
X94930000Y-59630000D01*
X89830000Y-59590000D02*
X91400000Y-59590000D01*
X93360000Y-59590000D02*
X94930000Y-59590000D01*
X89831000Y-59550000D02*
X91400000Y-59550000D01*
X93360000Y-59550000D02*
X94929000Y-59550000D01*
X89832000Y-59510000D02*
X91400000Y-59510000D01*
X93360000Y-59510000D02*
X94928000Y-59510000D01*
X89834000Y-59470000D02*
X91400000Y-59470000D01*
X93360000Y-59470000D02*
X94926000Y-59470000D01*
X89837000Y-59430000D02*
X91400000Y-59430000D01*
X93360000Y-59430000D02*
X94923000Y-59430000D01*
X89841000Y-59390000D02*
X91400000Y-59390000D01*
X93360000Y-59390000D02*
X94919000Y-59390000D01*
X89845000Y-59350000D02*
X91400000Y-59350000D01*
X93360000Y-59350000D02*
X94915000Y-59350000D01*
X89849000Y-59310000D02*
X91400000Y-59310000D01*
X93360000Y-59310000D02*
X94911000Y-59310000D01*
X89855000Y-59270000D02*
X91400000Y-59270000D01*
X93360000Y-59270000D02*
X94905000Y-59270000D01*
X89861000Y-59230000D02*
X91400000Y-59230000D01*
X93360000Y-59230000D02*
X94899000Y-59230000D01*
X89867000Y-59190000D02*
X91400000Y-59190000D01*
X93360000Y-59190000D02*
X94893000Y-59190000D01*
X89874000Y-59150000D02*
X91400000Y-59150000D01*
X93360000Y-59150000D02*
X94886000Y-59150000D01*
X89882000Y-59110000D02*
X91400000Y-59110000D01*
X93360000Y-59110000D02*
X94878000Y-59110000D01*
X89891000Y-59070000D02*
X91400000Y-59070000D01*
X93360000Y-59070000D02*
X94869000Y-59070000D01*
X89900000Y-59030000D02*
X91400000Y-59030000D01*
X93360000Y-59030000D02*
X94860000Y-59030000D01*
X89910000Y-58990000D02*
X91400000Y-58990000D01*
X93360000Y-58990000D02*
X94850000Y-58990000D01*
X89920000Y-58950000D02*
X91400000Y-58950000D01*
X93360000Y-58950000D02*
X94840000Y-58950000D01*
X89932000Y-58909000D02*
X91400000Y-58909000D01*
X93360000Y-58909000D02*
X94828000Y-58909000D01*
X89944000Y-58869000D02*
X91400000Y-58869000D01*
X93360000Y-58869000D02*
X94816000Y-58869000D01*
X89956000Y-58829000D02*
X91400000Y-58829000D01*
X93360000Y-58829000D02*
X94804000Y-58829000D01*
X89970000Y-58789000D02*
X91400000Y-58789000D01*
X93360000Y-58789000D02*
X94790000Y-58789000D01*
X89984000Y-58749000D02*
X91400000Y-58749000D01*
X93360000Y-58749000D02*
X94776000Y-58749000D01*
X89998000Y-58709000D02*
X91400000Y-58709000D01*
X93360000Y-58709000D02*
X94762000Y-58709000D01*
X90014000Y-58669000D02*
X91400000Y-58669000D01*
X93360000Y-58669000D02*
X94746000Y-58669000D01*
X90030000Y-58629000D02*
X91400000Y-58629000D01*
X93360000Y-58629000D02*
X94730000Y-58629000D01*
X90047000Y-58589000D02*
X91400000Y-58589000D01*
X93360000Y-58589000D02*
X94713000Y-58589000D01*
X90065000Y-58549000D02*
X91400000Y-58549000D01*
X93360000Y-58549000D02*
X94695000Y-58549000D01*
X90084000Y-58509000D02*
X91400000Y-58509000D01*
X93360000Y-58509000D02*
X94676000Y-58509000D01*
X90104000Y-58469000D02*
X91400000Y-58469000D01*
X93360000Y-58469000D02*
X94656000Y-58469000D01*
X90124000Y-58429000D02*
X91400000Y-58429000D01*
X93360000Y-58429000D02*
X94636000Y-58429000D01*
X90146000Y-58389000D02*
X91400000Y-58389000D01*
X93360000Y-58389000D02*
X94614000Y-58389000D01*
X90168000Y-58349000D02*
X91400000Y-58349000D01*
X93360000Y-58349000D02*
X94592000Y-58349000D01*
X90191000Y-58309000D02*
X91400000Y-58309000D01*
X93360000Y-58309000D02*
X94569000Y-58309000D01*
X90215000Y-58269000D02*
X91400000Y-58269000D01*
X93360000Y-58269000D02*
X94545000Y-58269000D01*
X90240000Y-58229000D02*
X91400000Y-58229000D01*
X93360000Y-58229000D02*
X94520000Y-58229000D01*
X90267000Y-58189000D02*
X91400000Y-58189000D01*
X93360000Y-58189000D02*
X94493000Y-58189000D01*
X90294000Y-58149000D02*
X91400000Y-58149000D01*
X93360000Y-58149000D02*
X94466000Y-58149000D01*
X90322000Y-58109000D02*
X91400000Y-58109000D01*
X93360000Y-58109000D02*
X94438000Y-58109000D01*
X90352000Y-58069000D02*
X91400000Y-58069000D01*
X93360000Y-58069000D02*
X94408000Y-58069000D01*
X90383000Y-58029000D02*
X91400000Y-58029000D01*
X93360000Y-58029000D02*
X94377000Y-58029000D01*
X90415000Y-57989000D02*
X91400000Y-57989000D01*
X93360000Y-57989000D02*
X94345000Y-57989000D01*
X90448000Y-57949000D02*
X91400000Y-57949000D01*
X93360000Y-57949000D02*
X94312000Y-57949000D01*
X90483000Y-57909000D02*
X91400000Y-57909000D01*
X93360000Y-57909000D02*
X94277000Y-57909000D01*
X90519000Y-57869000D02*
X91400000Y-57869000D01*
X93360000Y-57869000D02*
X94241000Y-57869000D01*
X90557000Y-57829000D02*
X91400000Y-57829000D01*
X93360000Y-57829000D02*
X94203000Y-57829000D01*
X90597000Y-57789000D02*
X91400000Y-57789000D01*
X93360000Y-57789000D02*
X94163000Y-57789000D01*
X90638000Y-57749000D02*
X91400000Y-57749000D01*
X93360000Y-57749000D02*
X94122000Y-57749000D01*
X90681000Y-57709000D02*
X91400000Y-57709000D01*
X93360000Y-57709000D02*
X94079000Y-57709000D01*
X90726000Y-57669000D02*
X91400000Y-57669000D01*
X93360000Y-57669000D02*
X94034000Y-57669000D01*
X90774000Y-57629000D02*
X93986000Y-57629000D01*
X90824000Y-57589000D02*
X93936000Y-57589000D01*
X90876000Y-57549000D02*
X93884000Y-57549000D01*
X90932000Y-57509000D02*
X93828000Y-57509000D01*
X90990000Y-57469000D02*
X93770000Y-57469000D01*
X91053000Y-57429000D02*
X93707000Y-57429000D01*
X91119000Y-57389000D02*
X93641000Y-57389000D01*
X91191000Y-57349000D02*
X93569000Y-57349000D01*
X91268000Y-57309000D02*
X93492000Y-57309000D01*
X91352000Y-57269000D02*
X93408000Y-57269000D01*
X91446000Y-57229000D02*
X93314000Y-57229000D01*
X91551000Y-57189000D02*
X93209000Y-57189000D01*
X91673000Y-57149000D02*
X93087000Y-57149000D01*
X91821000Y-57109000D02*
X92939000Y-57109000D01*
X92026000Y-57069000D02*
X92734000Y-57069000D01*
X92380000Y-62830000D02*
X92380000Y-61630000D01*
X91730000Y-62230000D02*
X93030000Y-62230000D01*
X111180000Y-57820000D02*
X111180000Y-55820000D01*
X109140000Y-55820000D02*
X109140000Y-57820000D01*
X123880000Y-57820000D02*
X123880000Y-55820000D01*
X121840000Y-55820000D02*
X121840000Y-57820000D01*
X133290000Y-68000000D02*
X135290000Y-68000000D01*
X135290000Y-65960000D02*
X133290000Y-65960000D01*
X131619278Y-84669723D02*
G75*
G03X136230580Y-84670000I2305722J1179723D01*
G01*
X131619278Y-82310277D02*
G75*
G02X136230580Y-82310000I2305722J-1179723D01*
G01*
X131619278Y-82310277D02*
G75*
G03X131619420Y-84670000I2305722J-1179723D01*
G01*
X133925000Y-86040000D02*
X133925000Y-80940000D01*
X133885000Y-86040000D02*
X133885000Y-84470000D01*
X133885000Y-82510000D02*
X133885000Y-80940000D01*
X133845000Y-86039000D02*
X133845000Y-84470000D01*
X133845000Y-82510000D02*
X133845000Y-80941000D01*
X133805000Y-86038000D02*
X133805000Y-84470000D01*
X133805000Y-82510000D02*
X133805000Y-80942000D01*
X133765000Y-86036000D02*
X133765000Y-84470000D01*
X133765000Y-82510000D02*
X133765000Y-80944000D01*
X133725000Y-86033000D02*
X133725000Y-84470000D01*
X133725000Y-82510000D02*
X133725000Y-80947000D01*
X133685000Y-86029000D02*
X133685000Y-84470000D01*
X133685000Y-82510000D02*
X133685000Y-80951000D01*
X133645000Y-86025000D02*
X133645000Y-84470000D01*
X133645000Y-82510000D02*
X133645000Y-80955000D01*
X133605000Y-86021000D02*
X133605000Y-84470000D01*
X133605000Y-82510000D02*
X133605000Y-80959000D01*
X133565000Y-86015000D02*
X133565000Y-84470000D01*
X133565000Y-82510000D02*
X133565000Y-80965000D01*
X133525000Y-86009000D02*
X133525000Y-84470000D01*
X133525000Y-82510000D02*
X133525000Y-80971000D01*
X133485000Y-86003000D02*
X133485000Y-84470000D01*
X133485000Y-82510000D02*
X133485000Y-80977000D01*
X133445000Y-85996000D02*
X133445000Y-84470000D01*
X133445000Y-82510000D02*
X133445000Y-80984000D01*
X133405000Y-85988000D02*
X133405000Y-84470000D01*
X133405000Y-82510000D02*
X133405000Y-80992000D01*
X133365000Y-85979000D02*
X133365000Y-84470000D01*
X133365000Y-82510000D02*
X133365000Y-81001000D01*
X133325000Y-85970000D02*
X133325000Y-84470000D01*
X133325000Y-82510000D02*
X133325000Y-81010000D01*
X133285000Y-85960000D02*
X133285000Y-84470000D01*
X133285000Y-82510000D02*
X133285000Y-81020000D01*
X133245000Y-85950000D02*
X133245000Y-84470000D01*
X133245000Y-82510000D02*
X133245000Y-81030000D01*
X133204000Y-85938000D02*
X133204000Y-84470000D01*
X133204000Y-82510000D02*
X133204000Y-81042000D01*
X133164000Y-85926000D02*
X133164000Y-84470000D01*
X133164000Y-82510000D02*
X133164000Y-81054000D01*
X133124000Y-85914000D02*
X133124000Y-84470000D01*
X133124000Y-82510000D02*
X133124000Y-81066000D01*
X133084000Y-85900000D02*
X133084000Y-84470000D01*
X133084000Y-82510000D02*
X133084000Y-81080000D01*
X133044000Y-85886000D02*
X133044000Y-84470000D01*
X133044000Y-82510000D02*
X133044000Y-81094000D01*
X133004000Y-85872000D02*
X133004000Y-84470000D01*
X133004000Y-82510000D02*
X133004000Y-81108000D01*
X132964000Y-85856000D02*
X132964000Y-84470000D01*
X132964000Y-82510000D02*
X132964000Y-81124000D01*
X132924000Y-85840000D02*
X132924000Y-84470000D01*
X132924000Y-82510000D02*
X132924000Y-81140000D01*
X132884000Y-85823000D02*
X132884000Y-84470000D01*
X132884000Y-82510000D02*
X132884000Y-81157000D01*
X132844000Y-85805000D02*
X132844000Y-84470000D01*
X132844000Y-82510000D02*
X132844000Y-81175000D01*
X132804000Y-85786000D02*
X132804000Y-84470000D01*
X132804000Y-82510000D02*
X132804000Y-81194000D01*
X132764000Y-85766000D02*
X132764000Y-84470000D01*
X132764000Y-82510000D02*
X132764000Y-81214000D01*
X132724000Y-85746000D02*
X132724000Y-84470000D01*
X132724000Y-82510000D02*
X132724000Y-81234000D01*
X132684000Y-85724000D02*
X132684000Y-84470000D01*
X132684000Y-82510000D02*
X132684000Y-81256000D01*
X132644000Y-85702000D02*
X132644000Y-84470000D01*
X132644000Y-82510000D02*
X132644000Y-81278000D01*
X132604000Y-85679000D02*
X132604000Y-84470000D01*
X132604000Y-82510000D02*
X132604000Y-81301000D01*
X132564000Y-85655000D02*
X132564000Y-84470000D01*
X132564000Y-82510000D02*
X132564000Y-81325000D01*
X132524000Y-85630000D02*
X132524000Y-84470000D01*
X132524000Y-82510000D02*
X132524000Y-81350000D01*
X132484000Y-85603000D02*
X132484000Y-84470000D01*
X132484000Y-82510000D02*
X132484000Y-81377000D01*
X132444000Y-85576000D02*
X132444000Y-84470000D01*
X132444000Y-82510000D02*
X132444000Y-81404000D01*
X132404000Y-85548000D02*
X132404000Y-84470000D01*
X132404000Y-82510000D02*
X132404000Y-81432000D01*
X132364000Y-85518000D02*
X132364000Y-84470000D01*
X132364000Y-82510000D02*
X132364000Y-81462000D01*
X132324000Y-85487000D02*
X132324000Y-84470000D01*
X132324000Y-82510000D02*
X132324000Y-81493000D01*
X132284000Y-85455000D02*
X132284000Y-84470000D01*
X132284000Y-82510000D02*
X132284000Y-81525000D01*
X132244000Y-85422000D02*
X132244000Y-84470000D01*
X132244000Y-82510000D02*
X132244000Y-81558000D01*
X132204000Y-85387000D02*
X132204000Y-84470000D01*
X132204000Y-82510000D02*
X132204000Y-81593000D01*
X132164000Y-85351000D02*
X132164000Y-84470000D01*
X132164000Y-82510000D02*
X132164000Y-81629000D01*
X132124000Y-85313000D02*
X132124000Y-84470000D01*
X132124000Y-82510000D02*
X132124000Y-81667000D01*
X132084000Y-85273000D02*
X132084000Y-84470000D01*
X132084000Y-82510000D02*
X132084000Y-81707000D01*
X132044000Y-85232000D02*
X132044000Y-84470000D01*
X132044000Y-82510000D02*
X132044000Y-81748000D01*
X132004000Y-85189000D02*
X132004000Y-84470000D01*
X132004000Y-82510000D02*
X132004000Y-81791000D01*
X131964000Y-85144000D02*
X131964000Y-84470000D01*
X131964000Y-82510000D02*
X131964000Y-81836000D01*
X131924000Y-85096000D02*
X131924000Y-81884000D01*
X131884000Y-85046000D02*
X131884000Y-81934000D01*
X131844000Y-84994000D02*
X131844000Y-81986000D01*
X131804000Y-84938000D02*
X131804000Y-82042000D01*
X131764000Y-84880000D02*
X131764000Y-82100000D01*
X131724000Y-84817000D02*
X131724000Y-82163000D01*
X131684000Y-84751000D02*
X131684000Y-82229000D01*
X131644000Y-84679000D02*
X131644000Y-82301000D01*
X131604000Y-84602000D02*
X131604000Y-82378000D01*
X131564000Y-84518000D02*
X131564000Y-82462000D01*
X131524000Y-84424000D02*
X131524000Y-82556000D01*
X131484000Y-84319000D02*
X131484000Y-82661000D01*
X131444000Y-84197000D02*
X131444000Y-82783000D01*
X131404000Y-84049000D02*
X131404000Y-82931000D01*
X131364000Y-83844000D02*
X131364000Y-83136000D01*
X137125000Y-83490000D02*
X135925000Y-83490000D01*
X136525000Y-84140000D02*
X136525000Y-82840000D01*
X90110000Y-104830000D02*
X92110000Y-104830000D01*
X92110000Y-102790000D02*
X90110000Y-102790000D01*
X74850000Y-118050000D02*
X74850000Y-120050000D01*
X76890000Y-120050000D02*
X76890000Y-118050000D01*
X69250000Y-128698000D02*
X67250000Y-128698000D01*
X67250000Y-130738000D02*
X69250000Y-130738000D01*
D13*
X94460000Y-66560000D02*
X93460000Y-65560000D01*
X100460000Y-76460000D02*
X100460000Y-66460000D01*
X100460000Y-66460000D02*
X94460000Y-66460000D01*
X94460000Y-66460000D02*
X94460000Y-76460000D01*
X94460000Y-76460000D02*
X100460000Y-76460000D01*
D12*
X80547665Y-59168608D02*
G75*
G03X83780000Y-59325516I1672335J1078608D01*
G01*
X80547665Y-57011392D02*
G75*
G02X83780000Y-56854484I1672335J-1078608D01*
G01*
X81178870Y-59169837D02*
G75*
G03X83260961Y-59170000I1041130J1079837D01*
G01*
X81178870Y-57010163D02*
G75*
G02X83260961Y-57010000I1041130J-1079837D01*
G01*
X83780000Y-59326000D02*
X83780000Y-59170000D01*
X83780000Y-57010000D02*
X83780000Y-56854000D01*
X86420000Y-56150000D02*
X86420000Y-54950000D01*
X88180000Y-54950000D02*
X88180000Y-56150000D01*
D13*
X95301000Y-53010000D02*
X95301000Y-57455000D01*
X95301000Y-57455000D02*
X101651000Y-57455000D01*
X101651000Y-57455000D02*
X101651000Y-48565000D01*
X101651000Y-48565000D02*
X95301000Y-48565000D01*
X95301000Y-48565000D02*
X95301000Y-53010000D01*
D12*
X119930000Y-56220000D02*
X119930000Y-57420000D01*
X118170000Y-57420000D02*
X118170000Y-56220000D01*
X133620000Y-127550000D02*
X132420000Y-127550000D01*
X132420000Y-125790000D02*
X133620000Y-125790000D01*
X133620000Y-123740000D02*
X132420000Y-123740000D01*
X132420000Y-121980000D02*
X133620000Y-121980000D01*
X133620000Y-119930000D02*
X132420000Y-119930000D01*
X132420000Y-118170000D02*
X133620000Y-118170000D01*
X133620000Y-116120000D02*
X132420000Y-116120000D01*
X132420000Y-114360000D02*
X133620000Y-114360000D01*
X133620000Y-112310000D02*
X132420000Y-112310000D01*
X132420000Y-110550000D02*
X133620000Y-110550000D01*
X117180000Y-97850000D02*
X118380000Y-97850000D01*
X118380000Y-99610000D02*
X117180000Y-99610000D01*
X67580000Y-89450000D02*
X66380000Y-89450000D01*
X66380000Y-87690000D02*
X67580000Y-87690000D01*
X75200000Y-135170000D02*
X74000000Y-135170000D01*
X74000000Y-133410000D02*
X75200000Y-133410000D01*
X62570000Y-133410000D02*
X63770000Y-133410000D01*
X63770000Y-135170000D02*
X62570000Y-135170000D01*
X71390000Y-127550000D02*
X70190000Y-127550000D01*
X70190000Y-125790000D02*
X71390000Y-125790000D01*
X74000000Y-135950000D02*
X75200000Y-135950000D01*
X75200000Y-137710000D02*
X74000000Y-137710000D01*
X63770000Y-137710000D02*
X62570000Y-137710000D01*
X62570000Y-135950000D02*
X63770000Y-135950000D01*
X73270000Y-53070000D02*
X75930000Y-53070000D01*
X73270000Y-50470000D02*
X73270000Y-53070000D01*
X75930000Y-50470000D02*
X75930000Y-53070000D01*
X73270000Y-50470000D02*
X75930000Y-50470000D01*
X73270000Y-49200000D02*
X73270000Y-47870000D01*
X73270000Y-47870000D02*
X74600000Y-47870000D01*
X62410000Y-125090000D02*
X62410000Y-126020000D01*
X62410000Y-128250000D02*
X62410000Y-127320000D01*
X62410000Y-128250000D02*
X65570000Y-128250000D01*
X62410000Y-125090000D02*
X63870000Y-125090000D01*
X67290000Y-82730000D02*
X66360000Y-82730000D01*
X64130000Y-82730000D02*
X65060000Y-82730000D01*
X64130000Y-82730000D02*
X64130000Y-85890000D01*
X67290000Y-82730000D02*
X67290000Y-84190000D01*
X70480000Y-84250000D02*
X71410000Y-84250000D01*
X73640000Y-84250000D02*
X72710000Y-84250000D01*
X73640000Y-84250000D02*
X73640000Y-81090000D01*
X70480000Y-84250000D02*
X70480000Y-82790000D01*
X79990000Y-82730000D02*
X79060000Y-82730000D01*
X76830000Y-82730000D02*
X77760000Y-82730000D01*
X76830000Y-82730000D02*
X76830000Y-85890000D01*
X79990000Y-82730000D02*
X79990000Y-84190000D01*
X86340000Y-82730000D02*
X85410000Y-82730000D01*
X83180000Y-82730000D02*
X84110000Y-82730000D01*
X83180000Y-82730000D02*
X83180000Y-85890000D01*
X86340000Y-82730000D02*
X86340000Y-84190000D01*
X86930000Y-48860000D02*
X85130000Y-48860000D01*
X85130000Y-52080000D02*
X87580000Y-52080000D01*
X113660000Y-57580000D02*
X114590000Y-57580000D01*
X116820000Y-57580000D02*
X115890000Y-57580000D01*
X116820000Y-57580000D02*
X116820000Y-54420000D01*
X113660000Y-57580000D02*
X113660000Y-56120000D01*
X127710000Y-55220000D02*
X127210000Y-54620000D01*
X128410000Y-58420000D02*
X130010000Y-58420000D01*
X130010000Y-55220000D02*
X127710000Y-55220000D01*
X92110000Y-106290000D02*
G75*
G02X90110000Y-106290000I-1000000J0D01*
G01*
X90110000Y-106290000D02*
X88860000Y-106290000D01*
X88860000Y-106290000D02*
X88860000Y-129270000D01*
X88860000Y-129270000D02*
X93360000Y-129270000D01*
X93360000Y-129270000D02*
X93360000Y-106290000D01*
X93360000Y-106290000D02*
X92110000Y-106290000D01*
X85860000Y-106230000D02*
X85860000Y-129330000D01*
X85860000Y-129330000D02*
X96360000Y-129330000D01*
X96360000Y-129330000D02*
X96360000Y-106230000D01*
X96360000Y-106230000D02*
X85860000Y-106230000D01*
X68620000Y-134630000D02*
X70420000Y-134630000D01*
X70420000Y-131410000D02*
X67970000Y-131410000D01*
D13*
X128888000Y-133246000D02*
X127288000Y-133246000D01*
X128888000Y-133246000D02*
X128388000Y-132646000D01*
X133088000Y-133446000D02*
X133088000Y-133246000D01*
X133088000Y-133246000D02*
X128888000Y-133246000D01*
X133063000Y-142296000D02*
X133063000Y-142181000D01*
X128913000Y-142296000D02*
X128913000Y-142181000D01*
X128913000Y-142296000D02*
X133063000Y-142296000D01*
D12*
X65650000Y-53070000D02*
X68310000Y-53070000D01*
X65650000Y-50470000D02*
X65650000Y-53070000D01*
X68310000Y-50470000D02*
X68310000Y-53070000D01*
X65650000Y-50470000D02*
X68310000Y-50470000D01*
X65650000Y-49200000D02*
X65650000Y-47870000D01*
X65650000Y-47870000D02*
X66980000Y-47870000D01*
X105020000Y-53070000D02*
X107680000Y-53070000D01*
X105020000Y-50470000D02*
X105020000Y-53070000D01*
X107680000Y-50470000D02*
X107680000Y-53070000D01*
X105020000Y-50470000D02*
X107680000Y-50470000D01*
X105020000Y-49200000D02*
X105020000Y-47870000D01*
X105020000Y-47870000D02*
X106350000Y-47870000D01*
X131690000Y-87240000D02*
X131690000Y-89900000D01*
X134290000Y-87240000D02*
X131690000Y-87240000D01*
X134290000Y-89900000D02*
X131690000Y-89900000D01*
X134290000Y-87240000D02*
X134290000Y-89900000D01*
X135560000Y-87240000D02*
X136890000Y-87240000D01*
X136890000Y-87240000D02*
X136890000Y-88570000D01*
X86090000Y-67040000D02*
X86090000Y-64380000D01*
X83490000Y-67040000D02*
X86090000Y-67040000D01*
X83490000Y-64380000D02*
X86090000Y-64380000D01*
X83490000Y-67040000D02*
X83490000Y-64380000D01*
X82220000Y-67040000D02*
X80890000Y-67040000D01*
X80890000Y-67040000D02*
X80890000Y-65710000D01*
X108830000Y-64380000D02*
X108830000Y-67040000D01*
X111430000Y-64380000D02*
X108830000Y-64380000D01*
X111430000Y-67040000D02*
X108830000Y-67040000D01*
X111430000Y-64380000D02*
X111430000Y-67040000D01*
X112700000Y-64380000D02*
X114030000Y-64380000D01*
X114030000Y-64380000D02*
X114030000Y-65710000D01*
X124070000Y-125340000D02*
X124070000Y-128000000D01*
X126670000Y-125340000D02*
X124070000Y-125340000D01*
X126670000Y-128000000D02*
X124070000Y-128000000D01*
X126670000Y-125340000D02*
X126670000Y-128000000D01*
X127940000Y-125340000D02*
X129270000Y-125340000D01*
X129270000Y-125340000D02*
X129270000Y-126670000D01*
X124070000Y-121530000D02*
X124070000Y-124190000D01*
X126670000Y-121530000D02*
X124070000Y-121530000D01*
X126670000Y-124190000D02*
X124070000Y-124190000D01*
X126670000Y-121530000D02*
X126670000Y-124190000D01*
X127940000Y-121530000D02*
X129270000Y-121530000D01*
X129270000Y-121530000D02*
X129270000Y-122860000D01*
X124070000Y-117720000D02*
X124070000Y-120380000D01*
X126670000Y-117720000D02*
X124070000Y-117720000D01*
X126670000Y-120380000D02*
X124070000Y-120380000D01*
X126670000Y-117720000D02*
X126670000Y-120380000D01*
X127940000Y-117720000D02*
X129270000Y-117720000D01*
X129270000Y-117720000D02*
X129270000Y-119050000D01*
X124070000Y-113910000D02*
X124070000Y-116570000D01*
X126670000Y-113910000D02*
X124070000Y-113910000D01*
X126670000Y-116570000D02*
X124070000Y-116570000D01*
X126670000Y-113910000D02*
X126670000Y-116570000D01*
X127940000Y-113910000D02*
X129270000Y-113910000D01*
X129270000Y-113910000D02*
X129270000Y-115240000D01*
X91170000Y-80890000D02*
X88510000Y-80890000D01*
X91170000Y-83490000D02*
X91170000Y-80890000D01*
X88510000Y-83490000D02*
X88510000Y-80890000D01*
X91170000Y-83490000D02*
X88510000Y-83490000D01*
X91170000Y-84760000D02*
X91170000Y-86090000D01*
X91170000Y-86090000D02*
X89840000Y-86090000D01*
X106410000Y-80890000D02*
X103750000Y-80890000D01*
X106410000Y-83490000D02*
X106410000Y-80890000D01*
X103750000Y-83490000D02*
X103750000Y-80890000D01*
X106410000Y-83490000D02*
X103750000Y-83490000D01*
X106410000Y-84760000D02*
X106410000Y-86090000D01*
X106410000Y-86090000D02*
X105080000Y-86090000D01*
X124070000Y-110100000D02*
X124070000Y-112760000D01*
X126670000Y-110100000D02*
X124070000Y-110100000D01*
X126670000Y-112760000D02*
X124070000Y-112760000D01*
X126670000Y-110100000D02*
X126670000Y-112760000D01*
X127940000Y-110100000D02*
X129270000Y-110100000D01*
X129270000Y-110100000D02*
X129270000Y-111430000D01*
X108830000Y-117840000D02*
X111490000Y-117840000D01*
X108830000Y-115240000D02*
X108830000Y-117840000D01*
X111490000Y-115240000D02*
X111490000Y-117840000D01*
X108830000Y-115240000D02*
X111490000Y-115240000D01*
X108830000Y-113970000D02*
X108830000Y-112640000D01*
X108830000Y-112640000D02*
X110160000Y-112640000D01*
X105020000Y-120380000D02*
X107680000Y-120380000D01*
X105020000Y-117780000D02*
X105020000Y-120380000D01*
X107680000Y-117780000D02*
X107680000Y-120380000D01*
X105020000Y-117780000D02*
X107680000Y-117780000D01*
X105020000Y-116510000D02*
X105020000Y-115180000D01*
X105020000Y-115180000D02*
X106350000Y-115180000D01*
X65770000Y-124190000D02*
X65770000Y-121530000D01*
X63170000Y-124190000D02*
X65770000Y-124190000D01*
X63170000Y-121530000D02*
X65770000Y-121530000D01*
X63170000Y-124190000D02*
X63170000Y-121530000D01*
X61900000Y-124190000D02*
X60570000Y-124190000D01*
X60570000Y-124190000D02*
X60570000Y-122860000D01*
X65770000Y-119110000D02*
X65770000Y-116450000D01*
X63170000Y-119110000D02*
X65770000Y-119110000D01*
X63170000Y-116450000D02*
X65770000Y-116450000D01*
X63170000Y-119110000D02*
X63170000Y-116450000D01*
X61900000Y-119110000D02*
X60570000Y-119110000D01*
X60570000Y-119110000D02*
X60570000Y-117780000D01*
X115180000Y-112760000D02*
X117840000Y-112760000D01*
X115180000Y-110160000D02*
X115180000Y-112760000D01*
X117840000Y-110160000D02*
X117840000Y-112760000D01*
X115180000Y-110160000D02*
X117840000Y-110160000D01*
X115180000Y-108890000D02*
X115180000Y-107560000D01*
X115180000Y-107560000D02*
X116510000Y-107560000D01*
X115180000Y-120380000D02*
X117840000Y-120380000D01*
X115180000Y-117780000D02*
X115180000Y-120380000D01*
X117840000Y-117780000D02*
X117840000Y-120380000D01*
X115180000Y-117780000D02*
X117840000Y-117780000D01*
X115180000Y-116510000D02*
X115180000Y-115180000D01*
X115180000Y-115180000D02*
X116510000Y-115180000D01*
X112640000Y-130540000D02*
X115300000Y-130540000D01*
X112640000Y-127940000D02*
X112640000Y-130540000D01*
X115300000Y-127940000D02*
X115300000Y-130540000D01*
X112640000Y-127940000D02*
X115300000Y-127940000D01*
X112640000Y-126670000D02*
X112640000Y-125340000D01*
X112640000Y-125340000D02*
X113970000Y-125340000D01*
X80890000Y-74540000D02*
X80890000Y-77200000D01*
X83490000Y-74540000D02*
X80890000Y-74540000D01*
X83490000Y-77200000D02*
X80890000Y-77200000D01*
X83490000Y-74540000D02*
X83490000Y-77200000D01*
X84760000Y-74540000D02*
X86090000Y-74540000D01*
X86090000Y-74540000D02*
X86090000Y-75870000D01*
X114030000Y-77200000D02*
X114030000Y-74540000D01*
X111430000Y-77200000D02*
X114030000Y-77200000D01*
X111430000Y-74540000D02*
X114030000Y-74540000D01*
X111430000Y-77200000D02*
X111430000Y-74540000D01*
X110160000Y-77200000D02*
X108830000Y-77200000D01*
X108830000Y-77200000D02*
X108830000Y-75870000D01*
X114030000Y-72120000D02*
X114030000Y-69460000D01*
X111430000Y-72120000D02*
X114030000Y-72120000D01*
X111430000Y-69460000D02*
X114030000Y-69460000D01*
X111430000Y-72120000D02*
X111430000Y-69460000D01*
X110160000Y-72120000D02*
X108830000Y-72120000D01*
X108830000Y-72120000D02*
X108830000Y-70790000D01*
X80890000Y-69460000D02*
X80890000Y-72120000D01*
X83490000Y-69460000D02*
X80890000Y-69460000D01*
X83490000Y-72120000D02*
X80890000Y-72120000D01*
X83490000Y-69460000D02*
X83490000Y-72120000D01*
X84760000Y-69460000D02*
X86090000Y-69460000D01*
X86090000Y-69460000D02*
X86090000Y-70790000D01*
X61840000Y-53070000D02*
X64500000Y-53070000D01*
X61840000Y-50470000D02*
X61840000Y-53070000D01*
X64500000Y-50470000D02*
X64500000Y-53070000D01*
X61840000Y-50470000D02*
X64500000Y-50470000D01*
X61840000Y-49200000D02*
X61840000Y-47870000D01*
X61840000Y-47870000D02*
X63170000Y-47870000D01*
X131690000Y-64500000D02*
X134350000Y-64500000D01*
X131690000Y-61900000D02*
X131690000Y-64500000D01*
X134350000Y-61900000D02*
X134350000Y-64500000D01*
X131690000Y-61900000D02*
X134350000Y-61900000D01*
X131690000Y-60630000D02*
X131690000Y-59300000D01*
X131690000Y-59300000D02*
X133020000Y-59300000D01*
X105020000Y-111490000D02*
X107680000Y-111490000D01*
X105020000Y-108890000D02*
X105020000Y-111490000D01*
X107680000Y-108890000D02*
X107680000Y-111490000D01*
X105020000Y-108890000D02*
X107680000Y-108890000D01*
X105020000Y-107620000D02*
X105020000Y-106290000D01*
X105020000Y-106290000D02*
X106350000Y-106290000D01*
X70730000Y-139310000D02*
X70730000Y-141970000D01*
X73330000Y-139310000D02*
X70730000Y-139310000D01*
X73330000Y-141970000D02*
X70730000Y-141970000D01*
X73330000Y-139310000D02*
X73330000Y-141970000D01*
X74600000Y-139310000D02*
X75930000Y-139310000D01*
X75930000Y-139310000D02*
X75930000Y-140640000D01*
X66920000Y-121530000D02*
X66920000Y-124190000D01*
X69520000Y-121530000D02*
X66920000Y-121530000D01*
X69520000Y-124190000D02*
X66920000Y-124190000D01*
X69520000Y-121530000D02*
X69520000Y-124190000D01*
X70790000Y-121530000D02*
X72120000Y-121530000D01*
X72120000Y-121530000D02*
X72120000Y-122860000D01*
X66920000Y-116450000D02*
X66920000Y-119110000D01*
X69520000Y-116450000D02*
X66920000Y-116450000D01*
X69520000Y-119110000D02*
X66920000Y-119110000D01*
X69520000Y-116450000D02*
X69520000Y-119110000D01*
X70790000Y-116450000D02*
X72120000Y-116450000D01*
X72120000Y-116450000D02*
X72120000Y-117780000D01*
X78350000Y-121650000D02*
X81010000Y-121650000D01*
X78350000Y-119050000D02*
X78350000Y-121650000D01*
X81010000Y-119050000D02*
X81010000Y-121650000D01*
X78350000Y-119050000D02*
X81010000Y-119050000D01*
X78350000Y-117780000D02*
X78350000Y-116450000D01*
X78350000Y-116450000D02*
X79680000Y-116450000D01*
X63110000Y-139310000D02*
X63110000Y-141970000D01*
X65710000Y-139310000D02*
X63110000Y-139310000D01*
X65710000Y-141970000D02*
X63110000Y-141970000D01*
X65710000Y-139310000D02*
X65710000Y-141970000D01*
X66980000Y-139310000D02*
X68310000Y-139310000D01*
X68310000Y-139310000D02*
X68310000Y-140640000D01*
X93650000Y-139370000D02*
X92380000Y-139370000D01*
X92380000Y-139370000D02*
X92380000Y-140640000D01*
X78475000Y-144000000D02*
X78475000Y-124829000D01*
X83426000Y-144000000D02*
X83426000Y-124829000D01*
X78475000Y-144000000D02*
X83426000Y-144000000D01*
X78475000Y-124829000D02*
X83426000Y-124829000D01*
X79710000Y-144001000D02*
X82190000Y-144001000D01*
X108830000Y-53070000D02*
X111490000Y-53070000D01*
X108830000Y-50470000D02*
X108830000Y-53070000D01*
X111490000Y-50470000D02*
X111490000Y-53070000D01*
X108830000Y-50470000D02*
X111490000Y-50470000D01*
X108830000Y-49200000D02*
X108830000Y-47870000D01*
X108830000Y-47870000D02*
X110160000Y-47870000D01*
X92980000Y-133900000D02*
X91780000Y-133900000D01*
X91780000Y-132140000D02*
X92980000Y-132140000D01*
X135500000Y-64500000D02*
X138160000Y-64500000D01*
X135500000Y-61900000D02*
X135500000Y-64500000D01*
X138160000Y-61900000D02*
X138160000Y-64500000D01*
X135500000Y-61900000D02*
X138160000Y-61900000D01*
X135500000Y-60630000D02*
X135500000Y-59300000D01*
X135500000Y-59300000D02*
X136830000Y-59300000D01*
X58540000Y-108955000D02*
X77711000Y-108955000D01*
X58540000Y-113906000D02*
X77711000Y-113906000D01*
X58540000Y-108955000D02*
X58540000Y-113906000D01*
X77711000Y-108955000D02*
X77711000Y-113906000D01*
X58539000Y-110190000D02*
X58539000Y-112670000D01*
D13*
X108874286Y-121252381D02*
X109540953Y-122252381D01*
X109540953Y-121252381D02*
X108874286Y-122252381D01*
X110445715Y-122252381D02*
X109874286Y-122252381D01*
X110160000Y-122252381D02*
X110160000Y-121252381D01*
X110064762Y-121395238D01*
X109969524Y-121490476D01*
X109874286Y-121538095D01*
X110779048Y-121252381D02*
X111445715Y-121252381D01*
X111017143Y-122252381D01*
X78870476Y-91832381D02*
X79537143Y-92832381D01*
X79537143Y-91832381D02*
X78870476Y-92832381D01*
X80346667Y-91832381D02*
X80156190Y-91832381D01*
X80060952Y-91880000D01*
X80013333Y-91927619D01*
X79918095Y-92070476D01*
X79870476Y-92260952D01*
X79870476Y-92641905D01*
X79918095Y-92737143D01*
X79965714Y-92784762D01*
X80060952Y-92832381D01*
X80251429Y-92832381D01*
X80346667Y-92784762D01*
X80394286Y-92737143D01*
X80441905Y-92641905D01*
X80441905Y-92403810D01*
X80394286Y-92308571D01*
X80346667Y-92260952D01*
X80251429Y-92213333D01*
X80060952Y-92213333D01*
X79965714Y-92260952D01*
X79918095Y-92308571D01*
X79870476Y-92403810D01*
X129788571Y-77473333D02*
X129788571Y-77806667D01*
X130312381Y-77806667D02*
X129312381Y-77806667D01*
X129312381Y-77330476D01*
X130312381Y-76425714D02*
X130312381Y-76997143D01*
X130312381Y-76711429D02*
X129312381Y-76711429D01*
X129455238Y-76806667D01*
X129550476Y-76901905D01*
X129598095Y-76997143D01*
X69885238Y-46322381D02*
X70123333Y-47322381D01*
X70313810Y-46608095D01*
X70504286Y-47322381D01*
X70742381Y-46322381D01*
X71028095Y-46322381D02*
X71647143Y-46322381D01*
X71313809Y-46703333D01*
X71456667Y-46703333D01*
X71551905Y-46750952D01*
X71599524Y-46798571D01*
X71647143Y-46893810D01*
X71647143Y-47131905D01*
X71599524Y-47227143D01*
X71551905Y-47274762D01*
X71456667Y-47322381D01*
X71170952Y-47322381D01*
X71075714Y-47274762D01*
X71028095Y-47227143D01*
D14*
D13*
X79513334Y-47271143D02*
X79465715Y-47318762D01*
X79322858Y-47366381D01*
X79227620Y-47366381D01*
X79084762Y-47318762D01*
X78989524Y-47223524D01*
X78941905Y-47128286D01*
X78894286Y-46937810D01*
X78894286Y-46794952D01*
X78941905Y-46604476D01*
X78989524Y-46509238D01*
X79084762Y-46414000D01*
X79227620Y-46366381D01*
X79322858Y-46366381D01*
X79465715Y-46414000D01*
X79513334Y-46461619D01*
X80465715Y-47366381D02*
X79894286Y-47366381D01*
X80180000Y-47366381D02*
X80180000Y-46366381D01*
X80084762Y-46509238D01*
X79989524Y-46604476D01*
X79894286Y-46652095D01*
X92213334Y-56415143D02*
X92165715Y-56462762D01*
X92022858Y-56510381D01*
X91927620Y-56510381D01*
X91784762Y-56462762D01*
X91689524Y-56367524D01*
X91641905Y-56272286D01*
X91594286Y-56081810D01*
X91594286Y-55938952D01*
X91641905Y-55748476D01*
X91689524Y-55653238D01*
X91784762Y-55558000D01*
X91927620Y-55510381D01*
X92022858Y-55510381D01*
X92165715Y-55558000D01*
X92213334Y-55605619D01*
X92594286Y-55605619D02*
X92641905Y-55558000D01*
X92737143Y-55510381D01*
X92975239Y-55510381D01*
X93070477Y-55558000D01*
X93118096Y-55605619D01*
X93165715Y-55700857D01*
X93165715Y-55796095D01*
X93118096Y-55938952D01*
X92546667Y-56510381D01*
X93165715Y-56510381D01*
X112267143Y-56986666D02*
X112314762Y-57034285D01*
X112362381Y-57177142D01*
X112362381Y-57272380D01*
X112314762Y-57415238D01*
X112219524Y-57510476D01*
X112124286Y-57558095D01*
X111933810Y-57605714D01*
X111790952Y-57605714D01*
X111600476Y-57558095D01*
X111505238Y-57510476D01*
X111410000Y-57415238D01*
X111362381Y-57272380D01*
X111362381Y-57177142D01*
X111410000Y-57034285D01*
X111457619Y-56986666D01*
X111362381Y-56653333D02*
X111362381Y-56034285D01*
X111743333Y-56367619D01*
X111743333Y-56224761D01*
X111790952Y-56129523D01*
X111838571Y-56081904D01*
X111933810Y-56034285D01*
X112171905Y-56034285D01*
X112267143Y-56081904D01*
X112314762Y-56129523D01*
X112362381Y-56224761D01*
X112362381Y-56510476D01*
X112314762Y-56605714D01*
X112267143Y-56653333D01*
X124967143Y-56986666D02*
X125014762Y-57034285D01*
X125062381Y-57177142D01*
X125062381Y-57272380D01*
X125014762Y-57415238D01*
X124919524Y-57510476D01*
X124824286Y-57558095D01*
X124633810Y-57605714D01*
X124490952Y-57605714D01*
X124300476Y-57558095D01*
X124205238Y-57510476D01*
X124110000Y-57415238D01*
X124062381Y-57272380D01*
X124062381Y-57177142D01*
X124110000Y-57034285D01*
X124157619Y-56986666D01*
X124395714Y-56129523D02*
X125062381Y-56129523D01*
X124014762Y-56367619D02*
X124729048Y-56605714D01*
X124729048Y-55986666D01*
X130583143Y-67146666D02*
X130630762Y-67194285D01*
X130678381Y-67337142D01*
X130678381Y-67432380D01*
X130630762Y-67575238D01*
X130535524Y-67670476D01*
X130440286Y-67718095D01*
X130249810Y-67765714D01*
X130106952Y-67765714D01*
X129916476Y-67718095D01*
X129821238Y-67670476D01*
X129726000Y-67575238D01*
X129678381Y-67432380D01*
X129678381Y-67337142D01*
X129726000Y-67194285D01*
X129773619Y-67146666D01*
X129678381Y-66241904D02*
X129678381Y-66718095D01*
X130154571Y-66765714D01*
X130106952Y-66718095D01*
X130059333Y-66622857D01*
X130059333Y-66384761D01*
X130106952Y-66289523D01*
X130154571Y-66241904D01*
X130249810Y-66194285D01*
X130487905Y-66194285D01*
X130583143Y-66241904D01*
X130630762Y-66289523D01*
X130678381Y-66384761D01*
X130678381Y-66622857D01*
X130630762Y-66718095D01*
X130583143Y-66765714D01*
X138457143Y-83656666D02*
X138504762Y-83704285D01*
X138552381Y-83847142D01*
X138552381Y-83942380D01*
X138504762Y-84085238D01*
X138409524Y-84180476D01*
X138314286Y-84228095D01*
X138123810Y-84275714D01*
X137980952Y-84275714D01*
X137790476Y-84228095D01*
X137695238Y-84180476D01*
X137600000Y-84085238D01*
X137552381Y-83942380D01*
X137552381Y-83847142D01*
X137600000Y-83704285D01*
X137647619Y-83656666D01*
X137552381Y-83323333D02*
X137552381Y-82656666D01*
X138552381Y-83085238D01*
X90943334Y-101627143D02*
X90895715Y-101674762D01*
X90752858Y-101722381D01*
X90657620Y-101722381D01*
X90514762Y-101674762D01*
X90419524Y-101579524D01*
X90371905Y-101484286D01*
X90324286Y-101293810D01*
X90324286Y-101150952D01*
X90371905Y-100960476D01*
X90419524Y-100865238D01*
X90514762Y-100770000D01*
X90657620Y-100722381D01*
X90752858Y-100722381D01*
X90895715Y-100770000D01*
X90943334Y-100817619D01*
X91514762Y-101150952D02*
X91419524Y-101103333D01*
X91371905Y-101055714D01*
X91324286Y-100960476D01*
X91324286Y-100912857D01*
X91371905Y-100817619D01*
X91419524Y-100770000D01*
X91514762Y-100722381D01*
X91705239Y-100722381D01*
X91800477Y-100770000D01*
X91848096Y-100817619D01*
X91895715Y-100912857D01*
X91895715Y-100960476D01*
X91848096Y-101055714D01*
X91800477Y-101103333D01*
X91705239Y-101150952D01*
X91514762Y-101150952D01*
X91419524Y-101198571D01*
X91371905Y-101246190D01*
X91324286Y-101341429D01*
X91324286Y-101531905D01*
X91371905Y-101627143D01*
X91419524Y-101674762D01*
X91514762Y-101722381D01*
X91705239Y-101722381D01*
X91800477Y-101674762D01*
X91848096Y-101627143D01*
X91895715Y-101531905D01*
X91895715Y-101341429D01*
X91848096Y-101246190D01*
X91800477Y-101198571D01*
X91705239Y-101150952D01*
X75703334Y-115597143D02*
X75655715Y-115644762D01*
X75512858Y-115692381D01*
X75417620Y-115692381D01*
X75274762Y-115644762D01*
X75179524Y-115549524D01*
X75131905Y-115454286D01*
X75084286Y-115263810D01*
X75084286Y-115120952D01*
X75131905Y-114930476D01*
X75179524Y-114835238D01*
X75274762Y-114740000D01*
X75417620Y-114692381D01*
X75512858Y-114692381D01*
X75655715Y-114740000D01*
X75703334Y-114787619D01*
X76179524Y-115692381D02*
X76370000Y-115692381D01*
X76465239Y-115644762D01*
X76512858Y-115597143D01*
X76608096Y-115454286D01*
X76655715Y-115263810D01*
X76655715Y-114882857D01*
X76608096Y-114787619D01*
X76560477Y-114740000D01*
X76465239Y-114692381D01*
X76274762Y-114692381D01*
X76179524Y-114740000D01*
X76131905Y-114787619D01*
X76084286Y-114882857D01*
X76084286Y-115120952D01*
X76131905Y-115216190D01*
X76179524Y-115263810D01*
X76274762Y-115311429D01*
X76465239Y-115311429D01*
X76560477Y-115263810D01*
X76608096Y-115216190D01*
X76655715Y-115120952D01*
X72433143Y-129059143D02*
X72385524Y-129106762D01*
X72242667Y-129154381D01*
X72147429Y-129154381D01*
X72004571Y-129106762D01*
X71909333Y-129011524D01*
X71861714Y-128916286D01*
X71814095Y-128725810D01*
X71814095Y-128582952D01*
X71861714Y-128392476D01*
X71909333Y-128297238D01*
X72004571Y-128202000D01*
X72147429Y-128154381D01*
X72242667Y-128154381D01*
X72385524Y-128202000D01*
X72433143Y-128249619D01*
X73385524Y-129154381D02*
X72814095Y-129154381D01*
X73099809Y-129154381D02*
X73099809Y-128154381D01*
X73004571Y-128297238D01*
X72909333Y-128392476D01*
X72814095Y-128440095D01*
X74004571Y-128154381D02*
X74099810Y-128154381D01*
X74195048Y-128202000D01*
X74242667Y-128249619D01*
X74290286Y-128344857D01*
X74337905Y-128535333D01*
X74337905Y-128773429D01*
X74290286Y-128963905D01*
X74242667Y-129059143D01*
X74195048Y-129106762D01*
X74099810Y-129154381D01*
X74004571Y-129154381D01*
X73909333Y-129106762D01*
X73861714Y-129059143D01*
X73814095Y-128963905D01*
X73766476Y-128773429D01*
X73766476Y-128535333D01*
X73814095Y-128344857D01*
X73861714Y-128249619D01*
X73909333Y-128202000D01*
X74004571Y-128154381D01*
X96721905Y-78862381D02*
X96721905Y-77862381D01*
X97293334Y-78862381D02*
X96864762Y-78290952D01*
X97293334Y-77862381D02*
X96721905Y-78433810D01*
X98245715Y-78862381D02*
X97674286Y-78862381D01*
X97960000Y-78862381D02*
X97960000Y-77862381D01*
X97864762Y-78005238D01*
X97769524Y-78100476D01*
X97674286Y-78148095D01*
X81481905Y-55494381D02*
X81481905Y-54494381D01*
X81862858Y-54494381D01*
X81958096Y-54542000D01*
X82005715Y-54589619D01*
X82053334Y-54684857D01*
X82053334Y-54827714D01*
X82005715Y-54922952D01*
X81958096Y-54970571D01*
X81862858Y-55018190D01*
X81481905Y-55018190D01*
X83005715Y-55494381D02*
X82434286Y-55494381D01*
X82720000Y-55494381D02*
X82720000Y-54494381D01*
X82624762Y-54637238D01*
X82529524Y-54732476D01*
X82434286Y-54780095D01*
X85974381Y-55716666D02*
X85498190Y-56050000D01*
X85974381Y-56288095D02*
X84974381Y-56288095D01*
X84974381Y-55907142D01*
X85022000Y-55811904D01*
X85069619Y-55764285D01*
X85164857Y-55716666D01*
X85307714Y-55716666D01*
X85402952Y-55764285D01*
X85450571Y-55811904D01*
X85498190Y-55907142D01*
X85498190Y-56288095D01*
X85974381Y-54764285D02*
X85974381Y-55335714D01*
X85974381Y-55050000D02*
X84974381Y-55050000D01*
X85117238Y-55145238D01*
X85212476Y-55240476D01*
X85260095Y-55335714D01*
X98309334Y-47874381D02*
X97976000Y-47398190D01*
X97737905Y-47874381D02*
X97737905Y-46874381D01*
X98118858Y-46874381D01*
X98214096Y-46922000D01*
X98261715Y-46969619D01*
X98309334Y-47064857D01*
X98309334Y-47207714D01*
X98261715Y-47302952D01*
X98214096Y-47350571D01*
X98118858Y-47398190D01*
X97737905Y-47398190D01*
X98690286Y-46969619D02*
X98737905Y-46922000D01*
X98833143Y-46874381D01*
X99071239Y-46874381D01*
X99166477Y-46922000D01*
X99214096Y-46969619D01*
X99261715Y-47064857D01*
X99261715Y-47160095D01*
X99214096Y-47302952D01*
X98642667Y-47874381D01*
X99261715Y-47874381D01*
X121280381Y-56732666D02*
X120804190Y-57066000D01*
X121280381Y-57304095D02*
X120280381Y-57304095D01*
X120280381Y-56923142D01*
X120328000Y-56827904D01*
X120375619Y-56780285D01*
X120470857Y-56732666D01*
X120613714Y-56732666D01*
X120708952Y-56780285D01*
X120756571Y-56827904D01*
X120804190Y-56923142D01*
X120804190Y-57304095D01*
X120280381Y-56399333D02*
X120280381Y-55780285D01*
X120661333Y-56113619D01*
X120661333Y-55970761D01*
X120708952Y-55875523D01*
X120756571Y-55827904D01*
X120851810Y-55780285D01*
X121089905Y-55780285D01*
X121185143Y-55827904D01*
X121232762Y-55875523D01*
X121280381Y-55970761D01*
X121280381Y-56256476D01*
X121232762Y-56351714D01*
X121185143Y-56399333D01*
X132853334Y-125422381D02*
X132520000Y-124946190D01*
X132281905Y-125422381D02*
X132281905Y-124422381D01*
X132662858Y-124422381D01*
X132758096Y-124470000D01*
X132805715Y-124517619D01*
X132853334Y-124612857D01*
X132853334Y-124755714D01*
X132805715Y-124850952D01*
X132758096Y-124898571D01*
X132662858Y-124946190D01*
X132281905Y-124946190D01*
X133710477Y-124755714D02*
X133710477Y-125422381D01*
X133472381Y-124374762D02*
X133234286Y-125089048D01*
X133853334Y-125089048D01*
X132853334Y-121612381D02*
X132520000Y-121136190D01*
X132281905Y-121612381D02*
X132281905Y-120612381D01*
X132662858Y-120612381D01*
X132758096Y-120660000D01*
X132805715Y-120707619D01*
X132853334Y-120802857D01*
X132853334Y-120945714D01*
X132805715Y-121040952D01*
X132758096Y-121088571D01*
X132662858Y-121136190D01*
X132281905Y-121136190D01*
X133758096Y-120612381D02*
X133281905Y-120612381D01*
X133234286Y-121088571D01*
X133281905Y-121040952D01*
X133377143Y-120993333D01*
X133615239Y-120993333D01*
X133710477Y-121040952D01*
X133758096Y-121088571D01*
X133805715Y-121183810D01*
X133805715Y-121421905D01*
X133758096Y-121517143D01*
X133710477Y-121564762D01*
X133615239Y-121612381D01*
X133377143Y-121612381D01*
X133281905Y-121564762D01*
X133234286Y-121517143D01*
X132853334Y-117802381D02*
X132520000Y-117326190D01*
X132281905Y-117802381D02*
X132281905Y-116802381D01*
X132662858Y-116802381D01*
X132758096Y-116850000D01*
X132805715Y-116897619D01*
X132853334Y-116992857D01*
X132853334Y-117135714D01*
X132805715Y-117230952D01*
X132758096Y-117278571D01*
X132662858Y-117326190D01*
X132281905Y-117326190D01*
X133710477Y-116802381D02*
X133520000Y-116802381D01*
X133424762Y-116850000D01*
X133377143Y-116897619D01*
X133281905Y-117040476D01*
X133234286Y-117230952D01*
X133234286Y-117611905D01*
X133281905Y-117707143D01*
X133329524Y-117754762D01*
X133424762Y-117802381D01*
X133615239Y-117802381D01*
X133710477Y-117754762D01*
X133758096Y-117707143D01*
X133805715Y-117611905D01*
X133805715Y-117373810D01*
X133758096Y-117278571D01*
X133710477Y-117230952D01*
X133615239Y-117183333D01*
X133424762Y-117183333D01*
X133329524Y-117230952D01*
X133281905Y-117278571D01*
X133234286Y-117373810D01*
X132853334Y-113992381D02*
X132520000Y-113516190D01*
X132281905Y-113992381D02*
X132281905Y-112992381D01*
X132662858Y-112992381D01*
X132758096Y-113040000D01*
X132805715Y-113087619D01*
X132853334Y-113182857D01*
X132853334Y-113325714D01*
X132805715Y-113420952D01*
X132758096Y-113468571D01*
X132662858Y-113516190D01*
X132281905Y-113516190D01*
X133186667Y-112992381D02*
X133853334Y-112992381D01*
X133424762Y-113992381D01*
X132853334Y-110182381D02*
X132520000Y-109706190D01*
X132281905Y-110182381D02*
X132281905Y-109182381D01*
X132662858Y-109182381D01*
X132758096Y-109230000D01*
X132805715Y-109277619D01*
X132853334Y-109372857D01*
X132853334Y-109515714D01*
X132805715Y-109610952D01*
X132758096Y-109658571D01*
X132662858Y-109706190D01*
X132281905Y-109706190D01*
X133424762Y-109610952D02*
X133329524Y-109563333D01*
X133281905Y-109515714D01*
X133234286Y-109420476D01*
X133234286Y-109372857D01*
X133281905Y-109277619D01*
X133329524Y-109230000D01*
X133424762Y-109182381D01*
X133615239Y-109182381D01*
X133710477Y-109230000D01*
X133758096Y-109277619D01*
X133805715Y-109372857D01*
X133805715Y-109420476D01*
X133758096Y-109515714D01*
X133710477Y-109563333D01*
X133615239Y-109610952D01*
X133424762Y-109610952D01*
X133329524Y-109658571D01*
X133281905Y-109706190D01*
X133234286Y-109801429D01*
X133234286Y-109991905D01*
X133281905Y-110087143D01*
X133329524Y-110134762D01*
X133424762Y-110182381D01*
X133615239Y-110182381D01*
X133710477Y-110134762D01*
X133758096Y-110087143D01*
X133805715Y-109991905D01*
X133805715Y-109801429D01*
X133758096Y-109706190D01*
X133710477Y-109658571D01*
X133615239Y-109610952D01*
X117613334Y-100882381D02*
X117280000Y-100406190D01*
X117041905Y-100882381D02*
X117041905Y-99882381D01*
X117422858Y-99882381D01*
X117518096Y-99930000D01*
X117565715Y-99977619D01*
X117613334Y-100072857D01*
X117613334Y-100215714D01*
X117565715Y-100310952D01*
X117518096Y-100358571D01*
X117422858Y-100406190D01*
X117041905Y-100406190D01*
X118089524Y-100882381D02*
X118280000Y-100882381D01*
X118375239Y-100834762D01*
X118422858Y-100787143D01*
X118518096Y-100644286D01*
X118565715Y-100453810D01*
X118565715Y-100072857D01*
X118518096Y-99977619D01*
X118470477Y-99930000D01*
X118375239Y-99882381D01*
X118184762Y-99882381D01*
X118089524Y-99930000D01*
X118041905Y-99977619D01*
X117994286Y-100072857D01*
X117994286Y-100310952D01*
X118041905Y-100406190D01*
X118089524Y-100453810D01*
X118184762Y-100501429D01*
X118375239Y-100501429D01*
X118470477Y-100453810D01*
X118518096Y-100406190D01*
X118565715Y-100310952D01*
X66337143Y-91562381D02*
X66003809Y-91086190D01*
X65765714Y-91562381D02*
X65765714Y-90562381D01*
X66146667Y-90562381D01*
X66241905Y-90610000D01*
X66289524Y-90657619D01*
X66337143Y-90752857D01*
X66337143Y-90895714D01*
X66289524Y-90990952D01*
X66241905Y-91038571D01*
X66146667Y-91086190D01*
X65765714Y-91086190D01*
X67289524Y-91562381D02*
X66718095Y-91562381D01*
X67003809Y-91562381D02*
X67003809Y-90562381D01*
X66908571Y-90705238D01*
X66813333Y-90800476D01*
X66718095Y-90848095D01*
X67908571Y-90562381D02*
X68003810Y-90562381D01*
X68099048Y-90610000D01*
X68146667Y-90657619D01*
X68194286Y-90752857D01*
X68241905Y-90943333D01*
X68241905Y-91181429D01*
X68194286Y-91371905D01*
X68146667Y-91467143D01*
X68099048Y-91514762D01*
X68003810Y-91562381D01*
X67908571Y-91562381D01*
X67813333Y-91514762D01*
X67765714Y-91467143D01*
X67718095Y-91371905D01*
X67670476Y-91181429D01*
X67670476Y-90943333D01*
X67718095Y-90752857D01*
X67765714Y-90657619D01*
X67813333Y-90610000D01*
X67908571Y-90562381D01*
X73957143Y-133042381D02*
X73623809Y-132566190D01*
X73385714Y-133042381D02*
X73385714Y-132042381D01*
X73766667Y-132042381D01*
X73861905Y-132090000D01*
X73909524Y-132137619D01*
X73957143Y-132232857D01*
X73957143Y-132375714D01*
X73909524Y-132470952D01*
X73861905Y-132518571D01*
X73766667Y-132566190D01*
X73385714Y-132566190D01*
X74909524Y-133042381D02*
X74338095Y-133042381D01*
X74623809Y-133042381D02*
X74623809Y-132042381D01*
X74528571Y-132185238D01*
X74433333Y-132280476D01*
X74338095Y-132328095D01*
X75861905Y-133042381D02*
X75290476Y-133042381D01*
X75576190Y-133042381D02*
X75576190Y-132042381D01*
X75480952Y-132185238D01*
X75385714Y-132280476D01*
X75290476Y-132328095D01*
X60574381Y-137980857D02*
X60098190Y-138314191D01*
X60574381Y-138552286D02*
X59574381Y-138552286D01*
X59574381Y-138171333D01*
X59622000Y-138076095D01*
X59669619Y-138028476D01*
X59764857Y-137980857D01*
X59907714Y-137980857D01*
X60002952Y-138028476D01*
X60050571Y-138076095D01*
X60098190Y-138171333D01*
X60098190Y-138552286D01*
X60574381Y-137028476D02*
X60574381Y-137599905D01*
X60574381Y-137314191D02*
X59574381Y-137314191D01*
X59717238Y-137409429D01*
X59812476Y-137504667D01*
X59860095Y-137599905D01*
X59669619Y-136647524D02*
X59622000Y-136599905D01*
X59574381Y-136504667D01*
X59574381Y-136266571D01*
X59622000Y-136171333D01*
X59669619Y-136123714D01*
X59764857Y-136076095D01*
X59860095Y-136076095D01*
X60002952Y-136123714D01*
X60574381Y-136695143D01*
X60574381Y-136076095D01*
X70147143Y-125422381D02*
X69813809Y-124946190D01*
X69575714Y-125422381D02*
X69575714Y-124422381D01*
X69956667Y-124422381D01*
X70051905Y-124470000D01*
X70099524Y-124517619D01*
X70147143Y-124612857D01*
X70147143Y-124755714D01*
X70099524Y-124850952D01*
X70051905Y-124898571D01*
X69956667Y-124946190D01*
X69575714Y-124946190D01*
X71099524Y-125422381D02*
X70528095Y-125422381D01*
X70813809Y-125422381D02*
X70813809Y-124422381D01*
X70718571Y-124565238D01*
X70623333Y-124660476D01*
X70528095Y-124708095D01*
X71432857Y-124422381D02*
X72051905Y-124422381D01*
X71718571Y-124803333D01*
X71861429Y-124803333D01*
X71956667Y-124850952D01*
X72004286Y-124898571D01*
X72051905Y-124993810D01*
X72051905Y-125231905D01*
X72004286Y-125327143D01*
X71956667Y-125374762D01*
X71861429Y-125422381D01*
X71575714Y-125422381D01*
X71480476Y-125374762D01*
X71432857Y-125327143D01*
X73957143Y-138982381D02*
X73623809Y-138506190D01*
X73385714Y-138982381D02*
X73385714Y-137982381D01*
X73766667Y-137982381D01*
X73861905Y-138030000D01*
X73909524Y-138077619D01*
X73957143Y-138172857D01*
X73957143Y-138315714D01*
X73909524Y-138410952D01*
X73861905Y-138458571D01*
X73766667Y-138506190D01*
X73385714Y-138506190D01*
X74909524Y-138982381D02*
X74338095Y-138982381D01*
X74623809Y-138982381D02*
X74623809Y-137982381D01*
X74528571Y-138125238D01*
X74433333Y-138220476D01*
X74338095Y-138268095D01*
X75766667Y-137982381D02*
X75576190Y-137982381D01*
X75480952Y-138030000D01*
X75433333Y-138077619D01*
X75338095Y-138220476D01*
X75290476Y-138410952D01*
X75290476Y-138791905D01*
X75338095Y-138887143D01*
X75385714Y-138934762D01*
X75480952Y-138982381D01*
X75671429Y-138982381D01*
X75766667Y-138934762D01*
X75814286Y-138887143D01*
X75861905Y-138791905D01*
X75861905Y-138553810D01*
X75814286Y-138458571D01*
X75766667Y-138410952D01*
X75671429Y-138363333D01*
X75480952Y-138363333D01*
X75385714Y-138410952D01*
X75338095Y-138458571D01*
X75290476Y-138553810D01*
X60574381Y-134424857D02*
X60098190Y-134758191D01*
X60574381Y-134996286D02*
X59574381Y-134996286D01*
X59574381Y-134615333D01*
X59622000Y-134520095D01*
X59669619Y-134472476D01*
X59764857Y-134424857D01*
X59907714Y-134424857D01*
X60002952Y-134472476D01*
X60050571Y-134520095D01*
X60098190Y-134615333D01*
X60098190Y-134996286D01*
X60574381Y-133472476D02*
X60574381Y-134043905D01*
X60574381Y-133758191D02*
X59574381Y-133758191D01*
X59717238Y-133853429D01*
X59812476Y-133948667D01*
X59860095Y-134043905D01*
X59574381Y-133139143D02*
X59574381Y-132472476D01*
X60574381Y-132901048D01*
X73338095Y-47274762D02*
X73480952Y-47322381D01*
X73719048Y-47322381D01*
X73814286Y-47274762D01*
X73861905Y-47227143D01*
X73909524Y-47131905D01*
X73909524Y-47036667D01*
X73861905Y-46941429D01*
X73814286Y-46893810D01*
X73719048Y-46846190D01*
X73528571Y-46798571D01*
X73433333Y-46750952D01*
X73385714Y-46703333D01*
X73338095Y-46608095D01*
X73338095Y-46512857D01*
X73385714Y-46417619D01*
X73433333Y-46370000D01*
X73528571Y-46322381D01*
X73766667Y-46322381D01*
X73909524Y-46370000D01*
X74909524Y-47227143D02*
X74861905Y-47274762D01*
X74719048Y-47322381D01*
X74623810Y-47322381D01*
X74480952Y-47274762D01*
X74385714Y-47179524D01*
X74338095Y-47084286D01*
X74290476Y-46893810D01*
X74290476Y-46750952D01*
X74338095Y-46560476D01*
X74385714Y-46465238D01*
X74480952Y-46370000D01*
X74623810Y-46322381D01*
X74719048Y-46322381D01*
X74861905Y-46370000D01*
X74909524Y-46417619D01*
X75861905Y-47322381D02*
X75290476Y-47322381D01*
X75576190Y-47322381D02*
X75576190Y-46322381D01*
X75480952Y-46465238D01*
X75385714Y-46560476D01*
X75290476Y-46608095D01*
X59320381Y-127431905D02*
X59320381Y-126860476D01*
X60320381Y-127146191D02*
X59320381Y-127146191D01*
X60320381Y-126003333D02*
X60320381Y-126574762D01*
X60320381Y-126289048D02*
X59320381Y-126289048D01*
X59463238Y-126384286D01*
X59558476Y-126479524D01*
X59606095Y-126574762D01*
X64948095Y-79132381D02*
X65519524Y-79132381D01*
X65233809Y-80132381D02*
X65233809Y-79132381D01*
X65805238Y-79227619D02*
X65852857Y-79180000D01*
X65948095Y-79132381D01*
X66186191Y-79132381D01*
X66281429Y-79180000D01*
X66329048Y-79227619D01*
X66376667Y-79322857D01*
X66376667Y-79418095D01*
X66329048Y-79560952D01*
X65757619Y-80132381D01*
X66376667Y-80132381D01*
X71298095Y-79132381D02*
X71869524Y-79132381D01*
X71583809Y-80132381D02*
X71583809Y-79132381D01*
X72107619Y-79132381D02*
X72726667Y-79132381D01*
X72393333Y-79513333D01*
X72536191Y-79513333D01*
X72631429Y-79560952D01*
X72679048Y-79608571D01*
X72726667Y-79703810D01*
X72726667Y-79941905D01*
X72679048Y-80037143D01*
X72631429Y-80084762D01*
X72536191Y-80132381D01*
X72250476Y-80132381D01*
X72155238Y-80084762D01*
X72107619Y-80037143D01*
X77648095Y-79132381D02*
X78219524Y-79132381D01*
X77933809Y-80132381D02*
X77933809Y-79132381D01*
X78981429Y-79465714D02*
X78981429Y-80132381D01*
X78743333Y-79084762D02*
X78505238Y-79799048D01*
X79124286Y-79799048D01*
X83998095Y-79132381D02*
X84569524Y-79132381D01*
X84283809Y-80132381D02*
X84283809Y-79132381D01*
X85379048Y-79132381D02*
X84902857Y-79132381D01*
X84855238Y-79608571D01*
X84902857Y-79560952D01*
X84998095Y-79513333D01*
X85236191Y-79513333D01*
X85331429Y-79560952D01*
X85379048Y-79608571D01*
X85426667Y-79703810D01*
X85426667Y-79941905D01*
X85379048Y-80037143D01*
X85331429Y-80084762D01*
X85236191Y-80132381D01*
X84998095Y-80132381D01*
X84902857Y-80084762D01*
X84855238Y-80037143D01*
X85268095Y-47128381D02*
X85268095Y-47937905D01*
X85315714Y-48033143D01*
X85363333Y-48080762D01*
X85458571Y-48128381D01*
X85649048Y-48128381D01*
X85744286Y-48080762D01*
X85791905Y-48033143D01*
X85839524Y-47937905D01*
X85839524Y-47128381D01*
X86839524Y-48128381D02*
X86268095Y-48128381D01*
X86553809Y-48128381D02*
X86553809Y-47128381D01*
X86458571Y-47271238D01*
X86363333Y-47366476D01*
X86268095Y-47414095D01*
X112914381Y-60121905D02*
X113723905Y-60121905D01*
X113819143Y-60074286D01*
X113866762Y-60026667D01*
X113914381Y-59931429D01*
X113914381Y-59740952D01*
X113866762Y-59645714D01*
X113819143Y-59598095D01*
X113723905Y-59550476D01*
X112914381Y-59550476D01*
X113009619Y-59121905D02*
X112962000Y-59074286D01*
X112914381Y-58979048D01*
X112914381Y-58740952D01*
X112962000Y-58645714D01*
X113009619Y-58598095D01*
X113104857Y-58550476D01*
X113200095Y-58550476D01*
X113342952Y-58598095D01*
X113914381Y-59169524D01*
X113914381Y-58550476D01*
X129464095Y-53478381D02*
X129464095Y-54287905D01*
X129511714Y-54383143D01*
X129559333Y-54430762D01*
X129654571Y-54478381D01*
X129845048Y-54478381D01*
X129940286Y-54430762D01*
X129987905Y-54383143D01*
X130035524Y-54287905D01*
X130035524Y-53478381D01*
X130416476Y-53478381D02*
X131035524Y-53478381D01*
X130702190Y-53859333D01*
X130845048Y-53859333D01*
X130940286Y-53906952D01*
X130987905Y-53954571D01*
X131035524Y-54049810D01*
X131035524Y-54287905D01*
X130987905Y-54383143D01*
X130940286Y-54430762D01*
X130845048Y-54478381D01*
X130559333Y-54478381D01*
X130464095Y-54430762D01*
X130416476Y-54383143D01*
X133742381Y-122351905D02*
X134551905Y-122351905D01*
X134647143Y-122304286D01*
X134694762Y-122256667D01*
X134742381Y-122161429D01*
X134742381Y-121970952D01*
X134694762Y-121875714D01*
X134647143Y-121828095D01*
X134551905Y-121780476D01*
X133742381Y-121780476D01*
X133742381Y-120828095D02*
X133742381Y-121304286D01*
X134218571Y-121351905D01*
X134170952Y-121304286D01*
X134123333Y-121209048D01*
X134123333Y-120970952D01*
X134170952Y-120875714D01*
X134218571Y-120828095D01*
X134313810Y-120780476D01*
X134551905Y-120780476D01*
X134647143Y-120828095D01*
X134694762Y-120875714D01*
X134742381Y-120970952D01*
X134742381Y-121209048D01*
X134694762Y-121304286D01*
X134647143Y-121351905D01*
X139925714Y-113422381D02*
X140259047Y-114422381D01*
X140592381Y-113422381D01*
X140782857Y-113422381D02*
X141354286Y-113422381D01*
X141068571Y-114422381D02*
X141068571Y-113422381D01*
X139901905Y-116962381D02*
X139901905Y-115962381D01*
X140140000Y-115962381D01*
X140282858Y-116010000D01*
X140378096Y-116105238D01*
X140425715Y-116200476D01*
X140473334Y-116390952D01*
X140473334Y-116533810D01*
X140425715Y-116724286D01*
X140378096Y-116819524D01*
X140282858Y-116914762D01*
X140140000Y-116962381D01*
X139901905Y-116962381D01*
X140806667Y-115962381D02*
X141425715Y-115962381D01*
X141092381Y-116343333D01*
X141235239Y-116343333D01*
X141330477Y-116390952D01*
X141378096Y-116438571D01*
X141425715Y-116533810D01*
X141425715Y-116771905D01*
X141378096Y-116867143D01*
X141330477Y-116914762D01*
X141235239Y-116962381D01*
X140949524Y-116962381D01*
X140854286Y-116914762D01*
X140806667Y-116867143D01*
X139901905Y-119502381D02*
X139901905Y-118502381D01*
X140140000Y-118502381D01*
X140282858Y-118550000D01*
X140378096Y-118645238D01*
X140425715Y-118740476D01*
X140473334Y-118930952D01*
X140473334Y-119073810D01*
X140425715Y-119264286D01*
X140378096Y-119359524D01*
X140282858Y-119454762D01*
X140140000Y-119502381D01*
X139901905Y-119502381D01*
X140854286Y-118597619D02*
X140901905Y-118550000D01*
X140997143Y-118502381D01*
X141235239Y-118502381D01*
X141330477Y-118550000D01*
X141378096Y-118597619D01*
X141425715Y-118692857D01*
X141425715Y-118788095D01*
X141378096Y-118930952D01*
X140806667Y-119502381D01*
X141425715Y-119502381D01*
X139901905Y-122042381D02*
X139901905Y-121042381D01*
X140140000Y-121042381D01*
X140282858Y-121090000D01*
X140378096Y-121185238D01*
X140425715Y-121280476D01*
X140473334Y-121470952D01*
X140473334Y-121613810D01*
X140425715Y-121804286D01*
X140378096Y-121899524D01*
X140282858Y-121994762D01*
X140140000Y-122042381D01*
X139901905Y-122042381D01*
X141425715Y-122042381D02*
X140854286Y-122042381D01*
X141140000Y-122042381D02*
X141140000Y-121042381D01*
X141044762Y-121185238D01*
X140949524Y-121280476D01*
X140854286Y-121328095D01*
X139901905Y-124582381D02*
X139901905Y-123582381D01*
X140140000Y-123582381D01*
X140282858Y-123630000D01*
X140378096Y-123725238D01*
X140425715Y-123820476D01*
X140473334Y-124010952D01*
X140473334Y-124153810D01*
X140425715Y-124344286D01*
X140378096Y-124439524D01*
X140282858Y-124534762D01*
X140140000Y-124582381D01*
X139901905Y-124582381D01*
X141092381Y-123582381D02*
X141187620Y-123582381D01*
X141282858Y-123630000D01*
X141330477Y-123677619D01*
X141378096Y-123772857D01*
X141425715Y-123963333D01*
X141425715Y-124201429D01*
X141378096Y-124391905D01*
X141330477Y-124487143D01*
X141282858Y-124534762D01*
X141187620Y-124582381D01*
X141092381Y-124582381D01*
X140997143Y-124534762D01*
X140949524Y-124487143D01*
X140901905Y-124391905D01*
X140854286Y-124201429D01*
X140854286Y-123963333D01*
X140901905Y-123772857D01*
X140949524Y-123677619D01*
X140997143Y-123630000D01*
X141092381Y-123582381D01*
X139306667Y-126122381D02*
X139640000Y-127122381D01*
X139973334Y-126122381D01*
X140878096Y-127027143D02*
X140830477Y-127074762D01*
X140687620Y-127122381D01*
X140592382Y-127122381D01*
X140449524Y-127074762D01*
X140354286Y-126979524D01*
X140306667Y-126884286D01*
X140259048Y-126693810D01*
X140259048Y-126550952D01*
X140306667Y-126360476D01*
X140354286Y-126265238D01*
X140449524Y-126170000D01*
X140592382Y-126122381D01*
X140687620Y-126122381D01*
X140830477Y-126170000D01*
X140878096Y-126217619D01*
X141878096Y-127027143D02*
X141830477Y-127074762D01*
X141687620Y-127122381D01*
X141592382Y-127122381D01*
X141449524Y-127074762D01*
X141354286Y-126979524D01*
X141306667Y-126884286D01*
X141259048Y-126693810D01*
X141259048Y-126550952D01*
X141306667Y-126360476D01*
X141354286Y-126265238D01*
X141449524Y-126170000D01*
X141592382Y-126122381D01*
X141687620Y-126122381D01*
X141830477Y-126170000D01*
X141878096Y-126217619D01*
X139354286Y-128662381D02*
X139687619Y-129662381D01*
X140020953Y-128662381D01*
X140306667Y-129614762D02*
X140449524Y-129662381D01*
X140687620Y-129662381D01*
X140782858Y-129614762D01*
X140830477Y-129567143D01*
X140878096Y-129471905D01*
X140878096Y-129376667D01*
X140830477Y-129281429D01*
X140782858Y-129233810D01*
X140687620Y-129186190D01*
X140497143Y-129138571D01*
X140401905Y-129090952D01*
X140354286Y-129043333D01*
X140306667Y-128948095D01*
X140306667Y-128852857D01*
X140354286Y-128757619D01*
X140401905Y-128710000D01*
X140497143Y-128662381D01*
X140735239Y-128662381D01*
X140878096Y-128710000D01*
X141259048Y-129614762D02*
X141401905Y-129662381D01*
X141640001Y-129662381D01*
X141735239Y-129614762D01*
X141782858Y-129567143D01*
X141830477Y-129471905D01*
X141830477Y-129376667D01*
X141782858Y-129281429D01*
X141735239Y-129233810D01*
X141640001Y-129186190D01*
X141449524Y-129138571D01*
X141354286Y-129090952D01*
X141306667Y-129043333D01*
X141259048Y-128948095D01*
X141259048Y-128852857D01*
X141306667Y-128757619D01*
X141354286Y-128710000D01*
X141449524Y-128662381D01*
X141687620Y-128662381D01*
X141830477Y-128710000D01*
X85268095Y-104532381D02*
X85268095Y-105341905D01*
X85315714Y-105437143D01*
X85363333Y-105484762D01*
X85458571Y-105532381D01*
X85649048Y-105532381D01*
X85744286Y-105484762D01*
X85791905Y-105437143D01*
X85839524Y-105341905D01*
X85839524Y-104532381D01*
X86744286Y-104532381D02*
X86553809Y-104532381D01*
X86458571Y-104580000D01*
X86410952Y-104627619D01*
X86315714Y-104770476D01*
X86268095Y-104960952D01*
X86268095Y-105341905D01*
X86315714Y-105437143D01*
X86363333Y-105484762D01*
X86458571Y-105532381D01*
X86649048Y-105532381D01*
X86744286Y-105484762D01*
X86791905Y-105437143D01*
X86839524Y-105341905D01*
X86839524Y-105103810D01*
X86791905Y-105008571D01*
X86744286Y-104960952D01*
X86649048Y-104913333D01*
X86458571Y-104913333D01*
X86363333Y-104960952D01*
X86315714Y-105008571D01*
X86268095Y-105103810D01*
X65202095Y-131202381D02*
X65202095Y-132011905D01*
X65249714Y-132107143D01*
X65297333Y-132154762D01*
X65392571Y-132202381D01*
X65583048Y-132202381D01*
X65678286Y-132154762D01*
X65725905Y-132107143D01*
X65773524Y-132011905D01*
X65773524Y-131202381D01*
X66154476Y-131202381D02*
X66821143Y-131202381D01*
X66392571Y-132202381D01*
X130226095Y-131923381D02*
X130226095Y-132732905D01*
X130273714Y-132828143D01*
X130321333Y-132875762D01*
X130416571Y-132923381D01*
X130607048Y-132923381D01*
X130702286Y-132875762D01*
X130749905Y-132828143D01*
X130797524Y-132732905D01*
X130797524Y-131923381D01*
X131416571Y-132351952D02*
X131321333Y-132304333D01*
X131273714Y-132256714D01*
X131226095Y-132161476D01*
X131226095Y-132113857D01*
X131273714Y-132018619D01*
X131321333Y-131971000D01*
X131416571Y-131923381D01*
X131607048Y-131923381D01*
X131702286Y-131971000D01*
X131749905Y-132018619D01*
X131797524Y-132113857D01*
X131797524Y-132161476D01*
X131749905Y-132256714D01*
X131702286Y-132304333D01*
X131607048Y-132351952D01*
X131416571Y-132351952D01*
X131321333Y-132399571D01*
X131273714Y-132447190D01*
X131226095Y-132542429D01*
X131226095Y-132732905D01*
X131273714Y-132828143D01*
X131321333Y-132875762D01*
X131416571Y-132923381D01*
X131607048Y-132923381D01*
X131702286Y-132875762D01*
X131749905Y-132828143D01*
X131797524Y-132732905D01*
X131797524Y-132542429D01*
X131749905Y-132447190D01*
X131702286Y-132399571D01*
X131607048Y-132351952D01*
X66075238Y-46322381D02*
X66313333Y-47322381D01*
X66503810Y-46608095D01*
X66694286Y-47322381D01*
X66932381Y-46322381D01*
X67837143Y-47322381D02*
X67265714Y-47322381D01*
X67551428Y-47322381D02*
X67551428Y-46322381D01*
X67456190Y-46465238D01*
X67360952Y-46560476D01*
X67265714Y-46608095D01*
X105445238Y-46322381D02*
X105683333Y-47322381D01*
X105873810Y-46608095D01*
X106064286Y-47322381D01*
X106302381Y-46322381D01*
X106635714Y-46417619D02*
X106683333Y-46370000D01*
X106778571Y-46322381D01*
X107016667Y-46322381D01*
X107111905Y-46370000D01*
X107159524Y-46417619D01*
X107207143Y-46512857D01*
X107207143Y-46608095D01*
X107159524Y-46750952D01*
X106588095Y-47322381D01*
X107207143Y-47322381D01*
X137342381Y-89474762D02*
X138342381Y-89236667D01*
X137628095Y-89046190D01*
X138342381Y-88855714D01*
X137342381Y-88617619D01*
X137675714Y-87808095D02*
X138342381Y-87808095D01*
X137294762Y-88046191D02*
X138009048Y-88284286D01*
X138009048Y-87665238D01*
X86752381Y-66614762D02*
X87752381Y-66376667D01*
X87038095Y-66186190D01*
X87752381Y-65995714D01*
X86752381Y-65757619D01*
X86752381Y-64948095D02*
X86752381Y-65138572D01*
X86800000Y-65233810D01*
X86847619Y-65281429D01*
X86990476Y-65376667D01*
X87180952Y-65424286D01*
X87561905Y-65424286D01*
X87657143Y-65376667D01*
X87704762Y-65329048D01*
X87752381Y-65233810D01*
X87752381Y-65043333D01*
X87704762Y-64948095D01*
X87657143Y-64900476D01*
X87561905Y-64852857D01*
X87323810Y-64852857D01*
X87228571Y-64900476D01*
X87180952Y-64948095D01*
X87133333Y-65043333D01*
X87133333Y-65233810D01*
X87180952Y-65329048D01*
X87228571Y-65376667D01*
X87323810Y-65424286D01*
X107072381Y-66614762D02*
X108072381Y-66376667D01*
X107358095Y-66186190D01*
X108072381Y-65995714D01*
X107072381Y-65757619D01*
X107072381Y-65471905D02*
X107072381Y-64805238D01*
X108072381Y-65233810D01*
X121701238Y-124090381D02*
X121939333Y-125090381D01*
X122129810Y-124376095D01*
X122320286Y-125090381D01*
X122558381Y-124090381D01*
X123082190Y-124518952D02*
X122986952Y-124471333D01*
X122939333Y-124423714D01*
X122891714Y-124328476D01*
X122891714Y-124280857D01*
X122939333Y-124185619D01*
X122986952Y-124138000D01*
X123082190Y-124090381D01*
X123272667Y-124090381D01*
X123367905Y-124138000D01*
X123415524Y-124185619D01*
X123463143Y-124280857D01*
X123463143Y-124328476D01*
X123415524Y-124423714D01*
X123367905Y-124471333D01*
X123272667Y-124518952D01*
X123082190Y-124518952D01*
X122986952Y-124566571D01*
X122939333Y-124614190D01*
X122891714Y-124709429D01*
X122891714Y-124899905D01*
X122939333Y-124995143D01*
X122986952Y-125042762D01*
X123082190Y-125090381D01*
X123272667Y-125090381D01*
X123367905Y-125042762D01*
X123415524Y-124995143D01*
X123463143Y-124899905D01*
X123463143Y-124709429D01*
X123415524Y-124614190D01*
X123367905Y-124566571D01*
X123272667Y-124518952D01*
X121701238Y-120280381D02*
X121939333Y-121280381D01*
X122129810Y-120566095D01*
X122320286Y-121280381D01*
X122558381Y-120280381D01*
X122986952Y-121280381D02*
X123177428Y-121280381D01*
X123272667Y-121232762D01*
X123320286Y-121185143D01*
X123415524Y-121042286D01*
X123463143Y-120851810D01*
X123463143Y-120470857D01*
X123415524Y-120375619D01*
X123367905Y-120328000D01*
X123272667Y-120280381D01*
X123082190Y-120280381D01*
X122986952Y-120328000D01*
X122939333Y-120375619D01*
X122891714Y-120470857D01*
X122891714Y-120708952D01*
X122939333Y-120804190D01*
X122986952Y-120851810D01*
X123082190Y-120899429D01*
X123272667Y-120899429D01*
X123367905Y-120851810D01*
X123415524Y-120804190D01*
X123463143Y-120708952D01*
X121225048Y-116470381D02*
X121463143Y-117470381D01*
X121653620Y-116756095D01*
X121844096Y-117470381D01*
X122082191Y-116470381D01*
X122986953Y-117470381D02*
X122415524Y-117470381D01*
X122701238Y-117470381D02*
X122701238Y-116470381D01*
X122606000Y-116613238D01*
X122510762Y-116708476D01*
X122415524Y-116756095D01*
X123606000Y-116470381D02*
X123701239Y-116470381D01*
X123796477Y-116518000D01*
X123844096Y-116565619D01*
X123891715Y-116660857D01*
X123939334Y-116851333D01*
X123939334Y-117089429D01*
X123891715Y-117279905D01*
X123844096Y-117375143D01*
X123796477Y-117422762D01*
X123701239Y-117470381D01*
X123606000Y-117470381D01*
X123510762Y-117422762D01*
X123463143Y-117375143D01*
X123415524Y-117279905D01*
X123367905Y-117089429D01*
X123367905Y-116851333D01*
X123415524Y-116660857D01*
X123463143Y-116565619D01*
X123510762Y-116518000D01*
X123606000Y-116470381D01*
X121225048Y-112660381D02*
X121463143Y-113660381D01*
X121653620Y-112946095D01*
X121844096Y-113660381D01*
X122082191Y-112660381D01*
X122986953Y-113660381D02*
X122415524Y-113660381D01*
X122701238Y-113660381D02*
X122701238Y-112660381D01*
X122606000Y-112803238D01*
X122510762Y-112898476D01*
X122415524Y-112946095D01*
X123939334Y-113660381D02*
X123367905Y-113660381D01*
X123653619Y-113660381D02*
X123653619Y-112660381D01*
X123558381Y-112803238D01*
X123463143Y-112898476D01*
X123367905Y-112946095D01*
X88459048Y-79132381D02*
X88697143Y-80132381D01*
X88887620Y-79418095D01*
X89078096Y-80132381D01*
X89316191Y-79132381D01*
X90220953Y-80132381D02*
X89649524Y-80132381D01*
X89935238Y-80132381D02*
X89935238Y-79132381D01*
X89840000Y-79275238D01*
X89744762Y-79370476D01*
X89649524Y-79418095D01*
X90601905Y-79227619D02*
X90649524Y-79180000D01*
X90744762Y-79132381D01*
X90982858Y-79132381D01*
X91078096Y-79180000D01*
X91125715Y-79227619D01*
X91173334Y-79322857D01*
X91173334Y-79418095D01*
X91125715Y-79560952D01*
X90554286Y-80132381D01*
X91173334Y-80132381D01*
X103699048Y-79132381D02*
X103937143Y-80132381D01*
X104127620Y-79418095D01*
X104318096Y-80132381D01*
X104556191Y-79132381D01*
X105460953Y-80132381D02*
X104889524Y-80132381D01*
X105175238Y-80132381D02*
X105175238Y-79132381D01*
X105080000Y-79275238D01*
X104984762Y-79370476D01*
X104889524Y-79418095D01*
X105794286Y-79132381D02*
X106413334Y-79132381D01*
X106080000Y-79513333D01*
X106222858Y-79513333D01*
X106318096Y-79560952D01*
X106365715Y-79608571D01*
X106413334Y-79703810D01*
X106413334Y-79941905D01*
X106365715Y-80037143D01*
X106318096Y-80084762D01*
X106222858Y-80132381D01*
X105937143Y-80132381D01*
X105841905Y-80084762D01*
X105794286Y-80037143D01*
X121225048Y-108850381D02*
X121463143Y-109850381D01*
X121653620Y-109136095D01*
X121844096Y-109850381D01*
X122082191Y-108850381D01*
X122986953Y-109850381D02*
X122415524Y-109850381D01*
X122701238Y-109850381D02*
X122701238Y-108850381D01*
X122606000Y-108993238D01*
X122510762Y-109088476D01*
X122415524Y-109136095D01*
X123844096Y-109183714D02*
X123844096Y-109850381D01*
X123606000Y-108802762D02*
X123367905Y-109517048D01*
X123986953Y-109517048D01*
X108779048Y-111092381D02*
X109017143Y-112092381D01*
X109207620Y-111378095D01*
X109398096Y-112092381D01*
X109636191Y-111092381D01*
X110540953Y-112092381D02*
X109969524Y-112092381D01*
X110255238Y-112092381D02*
X110255238Y-111092381D01*
X110160000Y-111235238D01*
X110064762Y-111330476D01*
X109969524Y-111378095D01*
X111445715Y-111092381D02*
X110969524Y-111092381D01*
X110921905Y-111568571D01*
X110969524Y-111520952D01*
X111064762Y-111473333D01*
X111302858Y-111473333D01*
X111398096Y-111520952D01*
X111445715Y-111568571D01*
X111493334Y-111663810D01*
X111493334Y-111901905D01*
X111445715Y-111997143D01*
X111398096Y-112044762D01*
X111302858Y-112092381D01*
X111064762Y-112092381D01*
X110969524Y-112044762D01*
X110921905Y-111997143D01*
X104969048Y-113632381D02*
X105207143Y-114632381D01*
X105397620Y-113918095D01*
X105588096Y-114632381D01*
X105826191Y-113632381D01*
X106730953Y-114632381D02*
X106159524Y-114632381D01*
X106445238Y-114632381D02*
X106445238Y-113632381D01*
X106350000Y-113775238D01*
X106254762Y-113870476D01*
X106159524Y-113918095D01*
X107588096Y-113632381D02*
X107397619Y-113632381D01*
X107302381Y-113680000D01*
X107254762Y-113727619D01*
X107159524Y-113870476D01*
X107111905Y-114060952D01*
X107111905Y-114441905D01*
X107159524Y-114537143D01*
X107207143Y-114584762D01*
X107302381Y-114632381D01*
X107492858Y-114632381D01*
X107588096Y-114584762D01*
X107635715Y-114537143D01*
X107683334Y-114441905D01*
X107683334Y-114203810D01*
X107635715Y-114108571D01*
X107588096Y-114060952D01*
X107492858Y-114013333D01*
X107302381Y-114013333D01*
X107207143Y-114060952D01*
X107159524Y-114108571D01*
X107111905Y-114203810D01*
X59022381Y-124240952D02*
X60022381Y-124002857D01*
X59308095Y-123812380D01*
X60022381Y-123621904D01*
X59022381Y-123383809D01*
X60022381Y-122479047D02*
X60022381Y-123050476D01*
X60022381Y-122764762D02*
X59022381Y-122764762D01*
X59165238Y-122860000D01*
X59260476Y-122955238D01*
X59308095Y-123050476D01*
X59022381Y-122145714D02*
X59022381Y-121479047D01*
X60022381Y-121907619D01*
X59022381Y-119160952D02*
X60022381Y-118922857D01*
X59308095Y-118732380D01*
X60022381Y-118541904D01*
X59022381Y-118303809D01*
X60022381Y-117399047D02*
X60022381Y-117970476D01*
X60022381Y-117684762D02*
X59022381Y-117684762D01*
X59165238Y-117780000D01*
X59260476Y-117875238D01*
X59308095Y-117970476D01*
X59450952Y-116827619D02*
X59403333Y-116922857D01*
X59355714Y-116970476D01*
X59260476Y-117018095D01*
X59212857Y-117018095D01*
X59117619Y-116970476D01*
X59070000Y-116922857D01*
X59022381Y-116827619D01*
X59022381Y-116637142D01*
X59070000Y-116541904D01*
X59117619Y-116494285D01*
X59212857Y-116446666D01*
X59260476Y-116446666D01*
X59355714Y-116494285D01*
X59403333Y-116541904D01*
X59450952Y-116637142D01*
X59450952Y-116827619D01*
X59498571Y-116922857D01*
X59546190Y-116970476D01*
X59641429Y-117018095D01*
X59831905Y-117018095D01*
X59927143Y-116970476D01*
X59974762Y-116922857D01*
X60022381Y-116827619D01*
X60022381Y-116637142D01*
X59974762Y-116541904D01*
X59927143Y-116494285D01*
X59831905Y-116446666D01*
X59641429Y-116446666D01*
X59546190Y-116494285D01*
X59498571Y-116541904D01*
X59450952Y-116637142D01*
X115700476Y-106012381D02*
X116367143Y-107012381D01*
X116367143Y-106012381D02*
X115700476Y-107012381D01*
X116700476Y-106107619D02*
X116748095Y-106060000D01*
X116843333Y-106012381D01*
X117081429Y-106012381D01*
X117176667Y-106060000D01*
X117224286Y-106107619D01*
X117271905Y-106202857D01*
X117271905Y-106298095D01*
X117224286Y-106440952D01*
X116652857Y-107012381D01*
X117271905Y-107012381D01*
X115700476Y-113632381D02*
X116367143Y-114632381D01*
X116367143Y-113632381D02*
X115700476Y-114632381D01*
X116652857Y-113632381D02*
X117271905Y-113632381D01*
X116938571Y-114013333D01*
X117081429Y-114013333D01*
X117176667Y-114060952D01*
X117224286Y-114108571D01*
X117271905Y-114203810D01*
X117271905Y-114441905D01*
X117224286Y-114537143D01*
X117176667Y-114584762D01*
X117081429Y-114632381D01*
X116795714Y-114632381D01*
X116700476Y-114584762D01*
X116652857Y-114537143D01*
X113160476Y-123792381D02*
X113827143Y-124792381D01*
X113827143Y-123792381D02*
X113160476Y-124792381D01*
X114636667Y-124125714D02*
X114636667Y-124792381D01*
X114398571Y-123744762D02*
X114160476Y-124459048D01*
X114779524Y-124459048D01*
X86752381Y-76679524D02*
X87752381Y-76012857D01*
X86752381Y-76012857D02*
X87752381Y-76679524D01*
X86752381Y-75155714D02*
X86752381Y-75631905D01*
X87228571Y-75679524D01*
X87180952Y-75631905D01*
X87133333Y-75536667D01*
X87133333Y-75298571D01*
X87180952Y-75203333D01*
X87228571Y-75155714D01*
X87323810Y-75108095D01*
X87561905Y-75108095D01*
X87657143Y-75155714D01*
X87704762Y-75203333D01*
X87752381Y-75298571D01*
X87752381Y-75536667D01*
X87704762Y-75631905D01*
X87657143Y-75679524D01*
X107072381Y-77155714D02*
X108072381Y-76489047D01*
X107072381Y-76489047D02*
X108072381Y-77155714D01*
X108072381Y-75584285D02*
X108072381Y-76155714D01*
X108072381Y-75870000D02*
X107072381Y-75870000D01*
X107215238Y-75965238D01*
X107310476Y-76060476D01*
X107358095Y-76155714D01*
X107072381Y-75250952D02*
X107072381Y-74631904D01*
X107453333Y-74965238D01*
X107453333Y-74822380D01*
X107500952Y-74727142D01*
X107548571Y-74679523D01*
X107643810Y-74631904D01*
X107881905Y-74631904D01*
X107977143Y-74679523D01*
X108024762Y-74727142D01*
X108072381Y-74822380D01*
X108072381Y-75108095D01*
X108024762Y-75203333D01*
X107977143Y-75250952D01*
X107072381Y-72075714D02*
X108072381Y-71409047D01*
X107072381Y-71409047D02*
X108072381Y-72075714D01*
X108072381Y-70504285D02*
X108072381Y-71075714D01*
X108072381Y-70790000D02*
X107072381Y-70790000D01*
X107215238Y-70885238D01*
X107310476Y-70980476D01*
X107358095Y-71075714D01*
X107405714Y-69647142D02*
X108072381Y-69647142D01*
X107024762Y-69885238D02*
X107739048Y-70123333D01*
X107739048Y-69504285D01*
X86752381Y-72075714D02*
X87752381Y-71409047D01*
X86752381Y-71409047D02*
X87752381Y-72075714D01*
X87752381Y-70504285D02*
X87752381Y-71075714D01*
X87752381Y-70790000D02*
X86752381Y-70790000D01*
X86895238Y-70885238D01*
X86990476Y-70980476D01*
X87038095Y-71075714D01*
X86752381Y-69599523D02*
X86752381Y-70075714D01*
X87228571Y-70123333D01*
X87180952Y-70075714D01*
X87133333Y-69980476D01*
X87133333Y-69742380D01*
X87180952Y-69647142D01*
X87228571Y-69599523D01*
X87323810Y-69551904D01*
X87561905Y-69551904D01*
X87657143Y-69599523D01*
X87704762Y-69647142D01*
X87752381Y-69742380D01*
X87752381Y-69980476D01*
X87704762Y-70075714D01*
X87657143Y-70123333D01*
X61884286Y-46322381D02*
X62550953Y-47322381D01*
X62550953Y-46322381D02*
X61884286Y-47322381D01*
X63455715Y-47322381D02*
X62884286Y-47322381D01*
X63170000Y-47322381D02*
X63170000Y-46322381D01*
X63074762Y-46465238D01*
X62979524Y-46560476D01*
X62884286Y-46608095D01*
X64027143Y-46750952D02*
X63931905Y-46703333D01*
X63884286Y-46655714D01*
X63836667Y-46560476D01*
X63836667Y-46512857D01*
X63884286Y-46417619D01*
X63931905Y-46370000D01*
X64027143Y-46322381D01*
X64217620Y-46322381D01*
X64312858Y-46370000D01*
X64360477Y-46417619D01*
X64408096Y-46512857D01*
X64408096Y-46560476D01*
X64360477Y-46655714D01*
X64312858Y-46703333D01*
X64217620Y-46750952D01*
X64027143Y-46750952D01*
X63931905Y-46798571D01*
X63884286Y-46846190D01*
X63836667Y-46941429D01*
X63836667Y-47131905D01*
X63884286Y-47227143D01*
X63931905Y-47274762D01*
X64027143Y-47322381D01*
X64217620Y-47322381D01*
X64312858Y-47274762D01*
X64360477Y-47227143D01*
X64408096Y-47131905D01*
X64408096Y-46941429D01*
X64360477Y-46846190D01*
X64312858Y-46798571D01*
X64217620Y-46750952D01*
D14*
D13*
X130186381Y-63280952D02*
X131186381Y-63042857D01*
X130472095Y-62852380D01*
X131186381Y-62661904D01*
X130186381Y-62423809D01*
X131186381Y-61519047D02*
X131186381Y-62090476D01*
X131186381Y-61804762D02*
X130186381Y-61804762D01*
X130329238Y-61900000D01*
X130424476Y-61995238D01*
X130472095Y-62090476D01*
X131186381Y-61042857D02*
X131186381Y-60852381D01*
X131138762Y-60757142D01*
X131091143Y-60709523D01*
X130948286Y-60614285D01*
X130757810Y-60566666D01*
X130376857Y-60566666D01*
X130281619Y-60614285D01*
X130234000Y-60661904D01*
X130186381Y-60757142D01*
X130186381Y-60947619D01*
X130234000Y-61042857D01*
X130281619Y-61090476D01*
X130376857Y-61138095D01*
X130614952Y-61138095D01*
X130710190Y-61090476D01*
X130757810Y-61042857D01*
X130805429Y-60947619D01*
X130805429Y-60757142D01*
X130757810Y-60661904D01*
X130710190Y-60614285D01*
X130614952Y-60566666D01*
X65241905Y-68972381D02*
X65813334Y-68972381D01*
X65527619Y-69972381D02*
X65527619Y-68972381D01*
X66146667Y-69972381D02*
X66146667Y-68972381D01*
X66527620Y-68972381D01*
X66622858Y-69020000D01*
X66670477Y-69067619D01*
X66718096Y-69162857D01*
X66718096Y-69305714D01*
X66670477Y-69400952D01*
X66622858Y-69448571D01*
X66527620Y-69496190D01*
X66146667Y-69496190D01*
X67051429Y-68972381D02*
X67670477Y-68972381D01*
X67337143Y-69353333D01*
X67480001Y-69353333D01*
X67575239Y-69400952D01*
X67622858Y-69448571D01*
X67670477Y-69543810D01*
X67670477Y-69781905D01*
X67622858Y-69877143D01*
X67575239Y-69924762D01*
X67480001Y-69972381D01*
X67194286Y-69972381D01*
X67099048Y-69924762D01*
X67051429Y-69877143D01*
X68622858Y-69972381D02*
X68051429Y-69972381D01*
X68337143Y-69972381D02*
X68337143Y-68972381D01*
X68241905Y-69115238D01*
X68146667Y-69210476D01*
X68051429Y-69258095D01*
X65241905Y-68972381D02*
X65813334Y-68972381D01*
X65527619Y-69972381D02*
X65527619Y-68972381D01*
X66146667Y-69972381D02*
X66146667Y-68972381D01*
X66527620Y-68972381D01*
X66622858Y-69020000D01*
X66670477Y-69067619D01*
X66718096Y-69162857D01*
X66718096Y-69305714D01*
X66670477Y-69400952D01*
X66622858Y-69448571D01*
X66527620Y-69496190D01*
X66146667Y-69496190D01*
X67051429Y-68972381D02*
X67670477Y-68972381D01*
X67337143Y-69353333D01*
X67480001Y-69353333D01*
X67575239Y-69400952D01*
X67622858Y-69448571D01*
X67670477Y-69543810D01*
X67670477Y-69781905D01*
X67622858Y-69877143D01*
X67575239Y-69924762D01*
X67480001Y-69972381D01*
X67194286Y-69972381D01*
X67099048Y-69924762D01*
X67051429Y-69877143D01*
X68051429Y-69067619D02*
X68099048Y-69020000D01*
X68194286Y-68972381D01*
X68432382Y-68972381D01*
X68527620Y-69020000D01*
X68575239Y-69067619D01*
X68622858Y-69162857D01*
X68622858Y-69258095D01*
X68575239Y-69400952D01*
X68003810Y-69972381D01*
X68622858Y-69972381D01*
X117311905Y-46112381D02*
X117883334Y-46112381D01*
X117597619Y-47112381D02*
X117597619Y-46112381D01*
X118216667Y-47112381D02*
X118216667Y-46112381D01*
X118597620Y-46112381D01*
X118692858Y-46160000D01*
X118740477Y-46207619D01*
X118788096Y-46302857D01*
X118788096Y-46445714D01*
X118740477Y-46540952D01*
X118692858Y-46588571D01*
X118597620Y-46636190D01*
X118216667Y-46636190D01*
X119121429Y-46112381D02*
X119740477Y-46112381D01*
X119407143Y-46493333D01*
X119550001Y-46493333D01*
X119645239Y-46540952D01*
X119692858Y-46588571D01*
X119740477Y-46683810D01*
X119740477Y-46921905D01*
X119692858Y-47017143D01*
X119645239Y-47064762D01*
X119550001Y-47112381D01*
X119264286Y-47112381D01*
X119169048Y-47064762D01*
X119121429Y-47017143D01*
X120073810Y-46112381D02*
X120692858Y-46112381D01*
X120359524Y-46493333D01*
X120502382Y-46493333D01*
X120597620Y-46540952D01*
X120645239Y-46588571D01*
X120692858Y-46683810D01*
X120692858Y-46921905D01*
X120645239Y-47017143D01*
X120597620Y-47064762D01*
X120502382Y-47112381D01*
X120216667Y-47112381D01*
X120121429Y-47064762D01*
X120073810Y-47017143D01*
X65241905Y-53732381D02*
X65813334Y-53732381D01*
X65527619Y-54732381D02*
X65527619Y-53732381D01*
X66146667Y-54732381D02*
X66146667Y-53732381D01*
X66527620Y-53732381D01*
X66622858Y-53780000D01*
X66670477Y-53827619D01*
X66718096Y-53922857D01*
X66718096Y-54065714D01*
X66670477Y-54160952D01*
X66622858Y-54208571D01*
X66527620Y-54256190D01*
X66146667Y-54256190D01*
X67051429Y-53732381D02*
X67670477Y-53732381D01*
X67337143Y-54113333D01*
X67480001Y-54113333D01*
X67575239Y-54160952D01*
X67622858Y-54208571D01*
X67670477Y-54303810D01*
X67670477Y-54541905D01*
X67622858Y-54637143D01*
X67575239Y-54684762D01*
X67480001Y-54732381D01*
X67194286Y-54732381D01*
X67099048Y-54684762D01*
X67051429Y-54637143D01*
X68527620Y-54065714D02*
X68527620Y-54732381D01*
X68289524Y-53684762D02*
X68051429Y-54399048D01*
X68670477Y-54399048D01*
X113501905Y-133742381D02*
X114073334Y-133742381D01*
X113787619Y-134742381D02*
X113787619Y-133742381D01*
X114406667Y-134742381D02*
X114406667Y-133742381D01*
X114787620Y-133742381D01*
X114882858Y-133790000D01*
X114930477Y-133837619D01*
X114978096Y-133932857D01*
X114978096Y-134075714D01*
X114930477Y-134170952D01*
X114882858Y-134218571D01*
X114787620Y-134266190D01*
X114406667Y-134266190D01*
X115311429Y-133742381D02*
X115930477Y-133742381D01*
X115597143Y-134123333D01*
X115740001Y-134123333D01*
X115835239Y-134170952D01*
X115882858Y-134218571D01*
X115930477Y-134313810D01*
X115930477Y-134551905D01*
X115882858Y-134647143D01*
X115835239Y-134694762D01*
X115740001Y-134742381D01*
X115454286Y-134742381D01*
X115359048Y-134694762D01*
X115311429Y-134647143D01*
X116835239Y-133742381D02*
X116359048Y-133742381D01*
X116311429Y-134218571D01*
X116359048Y-134170952D01*
X116454286Y-134123333D01*
X116692382Y-134123333D01*
X116787620Y-134170952D01*
X116835239Y-134218571D01*
X116882858Y-134313810D01*
X116882858Y-134551905D01*
X116835239Y-134647143D01*
X116787620Y-134694762D01*
X116692382Y-134742381D01*
X116454286Y-134742381D01*
X116359048Y-134694762D01*
X116311429Y-134647143D01*
X129932381Y-72821905D02*
X130741905Y-72821905D01*
X130837143Y-72774286D01*
X130884762Y-72726667D01*
X130932381Y-72631429D01*
X130932381Y-72440952D01*
X130884762Y-72345714D01*
X130837143Y-72298095D01*
X130741905Y-72250476D01*
X129932381Y-72250476D01*
X130265714Y-71345714D02*
X130932381Y-71345714D01*
X129884762Y-71583810D02*
X130599048Y-71821905D01*
X130599048Y-71202857D01*
X137552381Y-78140000D02*
X137552381Y-77949523D01*
X137600000Y-77854285D01*
X137695238Y-77759047D01*
X137885714Y-77711428D01*
X138219048Y-77711428D01*
X138409524Y-77759047D01*
X138504762Y-77854285D01*
X138552381Y-77949523D01*
X138552381Y-78140000D01*
X138504762Y-78235238D01*
X138409524Y-78330476D01*
X138219048Y-78378095D01*
X137885714Y-78378095D01*
X137695238Y-78330476D01*
X137600000Y-78235238D01*
X137552381Y-78140000D01*
X137552381Y-77282857D02*
X138361905Y-77282857D01*
X138457143Y-77235238D01*
X138504762Y-77187619D01*
X138552381Y-77092381D01*
X138552381Y-76901904D01*
X138504762Y-76806666D01*
X138457143Y-76759047D01*
X138361905Y-76711428D01*
X137552381Y-76711428D01*
X137552381Y-76378095D02*
X137552381Y-75806666D01*
X138552381Y-76092381D02*
X137552381Y-76092381D01*
X130551429Y-74980952D02*
X130551429Y-74219047D01*
X138171429Y-74980952D02*
X138171429Y-74219047D01*
X138552381Y-74599999D02*
X137790476Y-74599999D01*
X138552381Y-72583809D02*
X137552381Y-72583809D01*
X138552381Y-72107619D02*
X137552381Y-72107619D01*
X138552381Y-71536190D01*
X137552381Y-71536190D01*
X105540476Y-104742381D02*
X106207143Y-105742381D01*
X106207143Y-104742381D02*
X105540476Y-105742381D01*
X106730952Y-105170952D02*
X106635714Y-105123333D01*
X106588095Y-105075714D01*
X106540476Y-104980476D01*
X106540476Y-104932857D01*
X106588095Y-104837619D01*
X106635714Y-104790000D01*
X106730952Y-104742381D01*
X106921429Y-104742381D01*
X107016667Y-104790000D01*
X107064286Y-104837619D01*
X107111905Y-104932857D01*
X107111905Y-104980476D01*
X107064286Y-105075714D01*
X107016667Y-105123333D01*
X106921429Y-105170952D01*
X106730952Y-105170952D01*
X106635714Y-105218571D01*
X106588095Y-105266190D01*
X106540476Y-105361429D01*
X106540476Y-105551905D01*
X106588095Y-105647143D01*
X106635714Y-105694762D01*
X106730952Y-105742381D01*
X106921429Y-105742381D01*
X107016667Y-105694762D01*
X107064286Y-105647143D01*
X107111905Y-105551905D01*
X107111905Y-105361429D01*
X107064286Y-105266190D01*
X107016667Y-105218571D01*
X106921429Y-105170952D01*
X76592381Y-142020952D02*
X77592381Y-141782857D01*
X76878095Y-141592380D01*
X77592381Y-141401904D01*
X76592381Y-141163809D01*
X76687619Y-140830476D02*
X76640000Y-140782857D01*
X76592381Y-140687619D01*
X76592381Y-140449523D01*
X76640000Y-140354285D01*
X76687619Y-140306666D01*
X76782857Y-140259047D01*
X76878095Y-140259047D01*
X77020952Y-140306666D01*
X77592381Y-140878095D01*
X77592381Y-140259047D01*
X76592381Y-139640000D02*
X76592381Y-139544761D01*
X76640000Y-139449523D01*
X76687619Y-139401904D01*
X76782857Y-139354285D01*
X76973333Y-139306666D01*
X77211429Y-139306666D01*
X77401905Y-139354285D01*
X77497143Y-139401904D01*
X77544762Y-139449523D01*
X77592381Y-139544761D01*
X77592381Y-139640000D01*
X77544762Y-139735238D01*
X77497143Y-139782857D01*
X77401905Y-139830476D01*
X77211429Y-139878095D01*
X76973333Y-139878095D01*
X76782857Y-139830476D01*
X76687619Y-139782857D01*
X76640000Y-139735238D01*
X76592381Y-139640000D01*
X73572381Y-123598095D02*
X72572381Y-123598095D01*
X72572381Y-123217142D01*
X72620000Y-123121904D01*
X72667619Y-123074285D01*
X72762857Y-123026666D01*
X72905714Y-123026666D01*
X73000952Y-123074285D01*
X73048571Y-123121904D01*
X73096190Y-123217142D01*
X73096190Y-123598095D01*
X72667619Y-122645714D02*
X72620000Y-122598095D01*
X72572381Y-122502857D01*
X72572381Y-122264761D01*
X72620000Y-122169523D01*
X72667619Y-122121904D01*
X72762857Y-122074285D01*
X72858095Y-122074285D01*
X73000952Y-122121904D01*
X73572381Y-122693333D01*
X73572381Y-122074285D01*
X73572381Y-118518095D02*
X72572381Y-118518095D01*
X72572381Y-118137142D01*
X72620000Y-118041904D01*
X72667619Y-117994285D01*
X72762857Y-117946666D01*
X72905714Y-117946666D01*
X73000952Y-117994285D01*
X73048571Y-118041904D01*
X73096190Y-118137142D01*
X73096190Y-118518095D01*
X72572381Y-117613333D02*
X72572381Y-116994285D01*
X72953333Y-117327619D01*
X72953333Y-117184761D01*
X73000952Y-117089523D01*
X73048571Y-117041904D01*
X73143810Y-116994285D01*
X73381905Y-116994285D01*
X73477143Y-117041904D01*
X73524762Y-117089523D01*
X73572381Y-117184761D01*
X73572381Y-117470476D01*
X73524762Y-117565714D01*
X73477143Y-117613333D01*
X78299048Y-114902381D02*
X78537143Y-115902381D01*
X78727620Y-115188095D01*
X78918096Y-115902381D01*
X79156191Y-114902381D01*
X79489524Y-114997619D02*
X79537143Y-114950000D01*
X79632381Y-114902381D01*
X79870477Y-114902381D01*
X79965715Y-114950000D01*
X80013334Y-114997619D01*
X80060953Y-115092857D01*
X80060953Y-115188095D01*
X80013334Y-115330952D01*
X79441905Y-115902381D01*
X80060953Y-115902381D01*
X81013334Y-115902381D02*
X80441905Y-115902381D01*
X80727619Y-115902381D02*
X80727619Y-114902381D01*
X80632381Y-115045238D01*
X80537143Y-115140476D01*
X80441905Y-115188095D01*
X61352381Y-142020952D02*
X62352381Y-141782857D01*
X61638095Y-141592380D01*
X62352381Y-141401904D01*
X61352381Y-141163809D01*
X61447619Y-140830476D02*
X61400000Y-140782857D01*
X61352381Y-140687619D01*
X61352381Y-140449523D01*
X61400000Y-140354285D01*
X61447619Y-140306666D01*
X61542857Y-140259047D01*
X61638095Y-140259047D01*
X61780952Y-140306666D01*
X62352381Y-140878095D01*
X62352381Y-140259047D01*
X61447619Y-139878095D02*
X61400000Y-139830476D01*
X61352381Y-139735238D01*
X61352381Y-139497142D01*
X61400000Y-139401904D01*
X61447619Y-139354285D01*
X61542857Y-139306666D01*
X61638095Y-139306666D01*
X61780952Y-139354285D01*
X62352381Y-139925714D01*
X62352381Y-139306666D01*
X89538476Y-140092381D02*
X90205143Y-141092381D01*
X90205143Y-140092381D02*
X89538476Y-141092381D01*
X91109905Y-141092381D02*
X90538476Y-141092381D01*
X90824190Y-141092381D02*
X90824190Y-140092381D01*
X90728952Y-140235238D01*
X90633714Y-140330476D01*
X90538476Y-140378095D01*
X81577143Y-124328381D02*
X81243809Y-123852190D01*
X81005714Y-124328381D02*
X81005714Y-123328381D01*
X81386667Y-123328381D01*
X81481905Y-123376000D01*
X81529524Y-123423619D01*
X81577143Y-123518857D01*
X81577143Y-123661714D01*
X81529524Y-123756952D01*
X81481905Y-123804571D01*
X81386667Y-123852190D01*
X81005714Y-123852190D01*
X82529524Y-124328381D02*
X81958095Y-124328381D01*
X82243809Y-124328381D02*
X82243809Y-123328381D01*
X82148571Y-123471238D01*
X82053333Y-123566476D01*
X81958095Y-123614095D01*
X83386667Y-123661714D02*
X83386667Y-124328381D01*
X83148571Y-123280762D02*
X82910476Y-123995048D01*
X83529524Y-123995048D01*
X109350476Y-46322381D02*
X109683809Y-47322381D01*
X110017143Y-46322381D01*
X110874286Y-47322381D02*
X110302857Y-47322381D01*
X110588571Y-47322381D02*
X110588571Y-46322381D01*
X110493333Y-46465238D01*
X110398095Y-46560476D01*
X110302857Y-46608095D01*
X91737143Y-131772381D02*
X91403809Y-131296190D01*
X91165714Y-131772381D02*
X91165714Y-130772381D01*
X91546667Y-130772381D01*
X91641905Y-130820000D01*
X91689524Y-130867619D01*
X91737143Y-130962857D01*
X91737143Y-131105714D01*
X91689524Y-131200952D01*
X91641905Y-131248571D01*
X91546667Y-131296190D01*
X91165714Y-131296190D01*
X92689524Y-131772381D02*
X92118095Y-131772381D01*
X92403809Y-131772381D02*
X92403809Y-130772381D01*
X92308571Y-130915238D01*
X92213333Y-131010476D01*
X92118095Y-131058095D01*
X93165714Y-131772381D02*
X93356190Y-131772381D01*
X93451429Y-131724762D01*
X93499048Y-131677143D01*
X93594286Y-131534286D01*
X93641905Y-131343810D01*
X93641905Y-130962857D01*
X93594286Y-130867619D01*
X93546667Y-130820000D01*
X93451429Y-130772381D01*
X93260952Y-130772381D01*
X93165714Y-130820000D01*
X93118095Y-130867619D01*
X93070476Y-130962857D01*
X93070476Y-131200952D01*
X93118095Y-131296190D01*
X93165714Y-131343810D01*
X93260952Y-131391429D01*
X93451429Y-131391429D01*
X93546667Y-131343810D01*
X93594286Y-131296190D01*
X93641905Y-131200952D01*
X138568381Y-63280952D02*
X139568381Y-63042857D01*
X138854095Y-62852380D01*
X139568381Y-62661904D01*
X138568381Y-62423809D01*
X138663619Y-62090476D02*
X138616000Y-62042857D01*
X138568381Y-61947619D01*
X138568381Y-61709523D01*
X138616000Y-61614285D01*
X138663619Y-61566666D01*
X138758857Y-61519047D01*
X138854095Y-61519047D01*
X138996952Y-61566666D01*
X139568381Y-62138095D01*
X139568381Y-61519047D01*
X138568381Y-61185714D02*
X138568381Y-60566666D01*
X138949333Y-60900000D01*
X138949333Y-60757142D01*
X138996952Y-60661904D01*
X139044571Y-60614285D01*
X139139810Y-60566666D01*
X139377905Y-60566666D01*
X139473143Y-60614285D01*
X139520762Y-60661904D01*
X139568381Y-60757142D01*
X139568381Y-61042857D01*
X139520762Y-61138095D01*
X139473143Y-61185714D01*
X79116381Y-113342857D02*
X78640190Y-113676191D01*
X79116381Y-113914286D02*
X78116381Y-113914286D01*
X78116381Y-113533333D01*
X78164000Y-113438095D01*
X78211619Y-113390476D01*
X78306857Y-113342857D01*
X78449714Y-113342857D01*
X78544952Y-113390476D01*
X78592571Y-113438095D01*
X78640190Y-113533333D01*
X78640190Y-113914286D01*
X79116381Y-112390476D02*
X79116381Y-112961905D01*
X79116381Y-112676191D02*
X78116381Y-112676191D01*
X78259238Y-112771429D01*
X78354476Y-112866667D01*
X78402095Y-112961905D01*
X78116381Y-111485714D02*
X78116381Y-111961905D01*
X78592571Y-112009524D01*
X78544952Y-111961905D01*
X78497333Y-111866667D01*
X78497333Y-111628571D01*
X78544952Y-111533333D01*
X78592571Y-111485714D01*
X78687810Y-111438095D01*
X78925905Y-111438095D01*
X79021143Y-111485714D01*
X79068762Y-111533333D01*
X79116381Y-111628571D01*
X79116381Y-111866667D01*
X79068762Y-111961905D01*
X79021143Y-112009524D01*
M02*
